<svg width="24" height="25" viewBox="0 0 24 25" fill="none" xmlns="http://www.w3.org/2000/svg">
<g id="icon-set">
<path id="Icon" d="M4.99863 22.6094H18.9986M2.49863 8.60938H21.4986M9.99862 2.60938L7.99862 8.60938L11.9986 19.1094L15.9986 8.60938L13.9986 2.60938M12.5906 18.9582L21.5302 9.12467C21.6962 8.94201 21.7792 8.85069 21.8123 8.7467C21.8415 8.65506 21.8436 8.55696 21.8184 8.46416C21.7898 8.35884 21.7108 8.26402 21.5528 8.07438L17.2385 2.89723C17.1503 2.79142 17.1062 2.73851 17.0522 2.70048C17.0043 2.66678 16.9509 2.64176 16.8943 2.62654C16.8305 2.60938 16.7617 2.60938 16.6239 2.60938H7.37332C7.23559 2.60938 7.16673 2.60938 7.10291 2.62654C7.04637 2.64176 6.99294 2.66678 6.94505 2.70048C6.89101 2.73851 6.84692 2.79142 6.75875 2.89723L2.44445 8.07438C2.28642 8.26402 2.20741 8.35884 2.17883 8.46415C2.15364 8.55696 2.15576 8.65506 2.18491 8.7467C2.218 8.85069 2.30103 8.94201 2.46708 9.12467L11.4067 18.9582C11.6119 19.184 11.7145 19.2968 11.8351 19.3386C11.941 19.3752 12.0562 19.3752 12.1622 19.3386C12.2828 19.2968 12.3854 19.184 12.5906 18.9582Z" stroke="#C3F967" stroke-width="1.5" stroke-linecap="round" stroke-linejoin="round"/>
</g>
</svg>
