<svg width="24" height="25" viewBox="0 0 24 25" fill="none" xmlns="http://www.w3.org/2000/svg">
<g id="icon-set">
<path id="Icon" d="M19 9.60937L16 6.60938M16 6.60938L19 3.60938M16 6.60938L22 6.60938M16 21.6094V20.4094C16 18.7292 16 17.8891 15.673 17.2474C15.3854 16.6829 14.9265 16.224 14.362 15.9364C13.7202 15.6094 12.8802 15.6094 11.2 15.6094H6.8C5.11984 15.6094 4.27976 15.6094 3.63803 15.9364C3.07354 16.224 2.6146 16.6829 2.32698 17.2474C2 17.8891 2 18.7292 2 20.4094V21.6094M12.5 8.10938C12.5 10.0424 10.933 11.6094 9 11.6094C7.067 11.6094 5.5 10.0424 5.5 8.10938C5.5 6.17638 7.067 4.60938 9 4.60938C10.933 4.60938 12.5 6.17638 12.5 8.10938Z" stroke="#C3F967" stroke-width="1.5" stroke-linecap="round" stroke-linejoin="round"/>
</g>
</svg>
