<svg width="24" height="25" viewBox="0 0 24 25" fill="none" xmlns="http://www.w3.org/2000/svg">
<g id="icon-set">
<path id="Icon" d="M9.21296 15.1097C9.52517 15.7042 10.1486 16.1097 10.8667 16.1097H13C14.1046 16.1097 15 15.2143 15 14.1097C15 13.0052 14.1046 12.1097 13 12.1097H11C9.89543 12.1097 9 11.2143 9 10.1097C9 9.00516 9.89543 8.10973 11 8.10973H13.1333C13.8514 8.10973 14.4748 8.51523 14.787 9.10973M12 6.60973V8.10973M12 16.1097V17.6097M20 12.6097C20 17.5182 14.646 21.0881 12.698 22.2246C12.4766 22.3538 12.3659 22.4183 12.2097 22.4519C12.0884 22.4779 11.9116 22.4779 11.7903 22.4519C11.6341 22.4183 11.5234 22.3538 11.302 22.2246C9.35396 21.0881 4 17.5182 4 12.6097V7.82734C4 7.02782 4 6.62807 4.13076 6.28444C4.24627 5.98087 4.43398 5.71001 4.67766 5.49526C4.9535 5.25217 5.3278 5.11181 6.0764 4.83108L11.4382 2.82041C11.6461 2.74245 11.75 2.70347 11.857 2.68801C11.9518 2.67431 12.0482 2.67431 12.143 2.68801C12.25 2.70347 12.3539 2.74245 12.5618 2.82041L17.9236 4.83108C18.6722 5.11181 19.0465 5.25217 19.3223 5.49526C19.566 5.71001 19.7537 5.98087 19.8692 6.28444C20 6.62807 20 7.02782 20 7.82734V12.6097Z" stroke="#C3F967" stroke-width="1.5" stroke-linecap="round" stroke-linejoin="round"/>
</g>
</svg>
