<svg width="24" height="25" viewBox="0 0 24 25" fill="none" xmlns="http://www.w3.org/2000/svg">
<g id="icon-set">
<path id="Icon" d="M5 9.61135V17.6113M9.5 9.61135V17.6113M14.5 9.61135V17.6113M19 9.61135V17.6113M3 19.2113L3 20.0113C3 20.5714 3 20.8514 3.10899 21.0653C3.20487 21.2535 3.35785 21.4065 3.54601 21.5024C3.75992 21.6113 4.03995 21.6113 4.6 21.6113H19.4C19.9601 21.6113 20.2401 21.6113 20.454 21.5024C20.6422 21.4065 20.7951 21.2535 20.891 21.0653C21 20.8514 21 20.5714 21 20.0113V19.2113C21 18.6513 21 18.3713 20.891 18.1574C20.7951 17.9692 20.6422 17.8162 20.454 17.7203C20.2401 17.6113 19.9601 17.6113 19.4 17.6113H4.6C4.03995 17.6113 3.75992 17.6113 3.54601 17.7203C3.35785 17.8162 3.20487 17.9692 3.10899 18.1574C3 18.3713 3 18.6513 3 19.2113ZM11.6529 3.68848L4.25291 5.33292C3.80585 5.43227 3.58232 5.48194 3.41546 5.60215C3.26829 5.70818 3.15273 5.85224 3.08115 6.01891C3 6.20787 3 6.43686 3 6.89482L3 8.01135C3 8.5714 3 8.85143 3.10899 9.06534C3.20487 9.2535 3.35785 9.40648 3.54601 9.50235C3.75992 9.61135 4.03995 9.61135 4.6 9.61135H19.4C19.9601 9.61135 20.2401 9.61135 20.454 9.50235C20.6422 9.40648 20.7951 9.2535 20.891 9.06534C21 8.85143 21 8.5714 21 8.01135V6.89482C21 6.43686 21 6.20787 20.9188 6.01892C20.8473 5.85224 20.7317 5.70818 20.5845 5.60215C20.4177 5.48194 20.1942 5.43227 19.7471 5.33292L12.3471 3.68848C12.2176 3.6597 12.1528 3.6453 12.0874 3.63957C12.0292 3.63447 11.9708 3.63447 11.9126 3.63957C11.8472 3.6453 11.7824 3.6597 11.6529 3.68848Z" stroke="#C3F967" stroke-width="1.5" stroke-linecap="round" stroke-linejoin="round"/>
</g>
</svg>
