<svg width="24" height="25" viewBox="0 0 24 25" fill="none" xmlns="http://www.w3.org/2000/svg">
<g id="icon-set">
<path id="Icon" d="M7 10.108L2 12.608L11.6422 17.4291C11.7734 17.4947 11.839 17.5275 11.9078 17.5404C11.9687 17.5518 12.0313 17.5518 12.0922 17.5404C12.161 17.5275 12.2266 17.4947 12.3578 17.4291L22 12.608L17 10.108M7 15.108L2 17.608L11.6422 22.4291C11.7734 22.4947 11.839 22.5275 11.9078 22.5404C11.9687 22.5518 12.0313 22.5518 12.0922 22.5404C12.161 22.5275 12.2266 22.4947 12.3578 22.4291L22 17.608L17 15.108M2 7.60798L11.6422 2.78686C11.7734 2.72127 11.839 2.68847 11.9078 2.67557C11.9687 2.66413 12.0313 2.66413 12.0922 2.67557C12.161 2.68847 12.2266 2.72127 12.3578 2.78686L22 7.60798L12.3578 12.4291C12.2266 12.4947 12.161 12.5275 12.0922 12.5404C12.0313 12.5518 11.9687 12.5518 11.9078 12.5404C11.839 12.5275 11.7734 12.4947 11.6422 12.4291L2 7.60798Z" stroke="#C3F967" stroke-width="1.5" stroke-linecap="round" stroke-linejoin="round"/>
</g>
</svg>
