<svg width="104" height="27" viewBox="0 0 104 27" fill="none" xmlns="http://www.w3.org/2000/svg">
<g id="caraway-logo 1" clip-path="url(#clip0_417_20196)">
<path id="Vector" d="M90.386 19.7555C89.7219 19.7555 89.2112 19.7555 88.8947 19.2616L86.1256 11.7574L85.6461 10.4268C84.807 8.11316 82.8698 6.78255 80.2877 6.78255C78.7533 6.78255 77.1566 7.44666 75.9962 8.28818L77.0223 9.11053C77.684 8.57828 78.6478 8.04124 79.5445 8.04124C81.6375 8.04124 82.7571 9.01702 83.4956 11.0333L84.011 12.4479C82.9467 11.8002 81.723 11.4615 80.4771 11.4697C77.9597 11.4697 75.4088 13.124 75.4088 16.2791C75.4088 19.4342 77.5234 21.0573 81.5224 21.0573C84.1597 21.0573 85.7013 20.0503 86.4996 19.2831L86.9791 20.6018H90.8799L90.5562 19.7555H90.386ZM81.2923 20.2709C79.0314 20.2709 77.66 18.6646 77.66 16.3726C77.66 14.8909 77.8998 12.4023 80.8967 12.4023C82.1718 12.4003 83.4115 12.822 84.421 13.6011L86.0393 18.0484C85.4639 19.5589 83.3062 20.2709 81.3042 20.2709H81.2923ZM58.5951 19.7555C57.931 19.7555 57.4203 19.7555 57.1038 19.2616L54.3347 11.7574L53.8552 10.4268C53.0113 8.11316 51.0741 6.78255 48.4944 6.78255C46.96 6.78255 45.5694 7.44666 44.4186 8.28818L45.4256 9.11053C46.0873 8.57828 47.0559 8.04124 47.9501 8.04124C50.0408 8.04124 50.959 9.01702 51.6902 11.0333L52.2057 12.4479C51.1397 11.7972 49.9134 11.4568 48.6646 11.4649C46.1472 11.4649 43.8024 13.1192 43.8024 16.2743C43.8024 19.4294 45.7204 21.0525 49.7099 21.0525C52.3472 21.0525 53.8888 20.0456 54.6871 19.2784L55.1666 20.597H59.0674L58.7437 19.7507L58.5951 19.7555ZM49.5013 20.2709C47.2405 20.2709 46.0729 18.6646 46.0729 16.3726C46.0729 14.8909 46.1064 12.4023 49.1009 12.4023C50.3763 12.3991 51.6164 12.8209 52.6253 13.6011L54.2436 18.0484C53.6586 19.5589 51.4984 20.2709 49.4965 20.2709H49.5013ZM34.1093 19.7555C33.4428 19.7555 32.9298 19.7555 32.6157 19.2616L29.8466 11.7574L29.3671 10.4268C28.5279 8.11316 26.5859 6.78255 24.0062 6.78255C22.4766 6.78255 20.8895 7.44666 19.7147 8.28818L20.7384 9.11053C21.4001 8.57828 22.3639 8.04124 23.2606 8.04124C25.3536 8.04124 26.4733 9.01702 27.2093 11.0333L27.7272 12.4479C26.6628 11.8002 25.4392 11.4615 24.1932 11.4697C21.6759 11.4697 19.1225 13.124 19.1225 16.2791C19.1225 19.4342 21.2371 21.0573 25.2362 21.0573C27.8614 21.0573 29.4126 20.0503 30.2134 19.2831L30.6929 20.6018H34.5936L34.27 19.7555H34.1093ZM25.0132 20.2709C22.7547 20.2709 21.381 18.6646 21.381 16.3726C21.381 14.8909 21.6207 12.4023 24.6176 12.4023C25.8927 12.4003 27.1324 12.822 28.1419 13.6011L29.7602 18.0484C29.1753 19.5589 27.0151 20.2709 25.0132 20.2709ZM69.8154 19.1201L65.8307 7.19252H63.1887L65.6989 14.2796L63.474 19.6116L59.3215 7.19252H56.6771L61.4241 20.5946H63.8528L66.0825 15.368L67.9333 20.5946H70.362L74.994 7.19252H74.035L69.8154 19.1177V19.1201ZM103.093 15.5958V7.19252H100.87L101.079 15.1906V16.3414C101.079 18.0676 99.5972 19.6979 97.895 19.9736C97.3603 20.0132 96.8234 20.0132 96.2887 19.9736C94.5744 19.7962 93.1048 18.0556 93.1048 16.3414V15.1906L93.3062 7.19252H91.0861V17.3963C91.0861 18.9475 92.3495 21.5344 96.49 21.5344H97.6888C98.8636 21.5344 100.23 20.8775 101.031 20.2158C100.921 21.2563 100.815 22.316 100.494 23.0257C100.05 24.0134 99.041 25.1834 96.7154 25.1834C94.4522 25.1834 92.0834 23.2366 91.8581 22.8962L91.8029 22.8147L91.0837 22.8794L91.1916 23.0952C91.2059 23.1287 93.0017 26.2911 96.8329 26.4948C99.6859 26.6483 101.405 25.4999 102.347 23.0832C102.416 22.9015 102.47 22.7147 102.51 22.5246C102.87 21.1029 103.009 19.1801 103.057 17.7296C103.069 17.6189 103.075 17.5077 103.076 17.3963V16.9408L103.093 15.591V15.5958ZM37.8638 9.49413V7.13738H35.4663V20.5394H38.0796V10.5658C38.4055 10.0601 38.8509 9.64248 39.3765 9.34978C39.9021 9.05708 40.4917 8.89833 41.0933 8.88756C41.6828 8.87628 42.2619 9.04342 42.7547 9.36706V7.1134C42.3907 6.92018 41.9784 6.83689 41.568 6.87365C40.338 6.87845 38.4392 8.67178 37.8638 9.49173V9.49413ZM9.97363 18.6286C5.24574 18.6286 2.15776 13.6418 2.15776 9.17286C2.15776 6.60034 2.74754 4.48094 4.25078 3.04483C5.6541 1.74991 7.50347 1.04727 9.41261 1.08367C11.369 1.08367 12.8746 2.3112 13.7929 3.33733C14.4058 4.03009 14.9272 4.7988 15.344 5.62455L15.4256 5.79717L17.6792 4.35867C17.545 4.07097 16.7202 3.15991 16.4661 2.8818C15.0084 1.36658 13.299 0 9.47015 0C5.83553 0 3.59626 1.79094 2.37353 3.29417C0.840865 5.20455 0.00381784 7.57957 0 10.0288C0 11.5632 0.263726 14.5121 2.04507 16.9983C3.69935 19.3167 6.25989 20.5418 9.44138 20.5418C14.0877 20.5418 16.586 17.3579 17.7511 15.1714L16.725 14.7399C14.8645 17.3508 12.6492 18.6286 9.97363 18.6286Z" fill="white"/>
</g>
<defs>
<clipPath id="clip0_417_20196">
<rect width="103.093" height="26.5188" fill="white"/>
</clipPath>
</defs>
</svg>
