<svg width="26" height="21" viewBox="0 0 26 21" fill="none" xmlns="http://www.w3.org/2000/svg">
<path fill-rule="evenodd" clip-rule="evenodd" d="M17.4827 20.9956L14.024 16.0751C14.024 16.0751 20.6544 10.5302 22.8936 5.39805C22.8777 5.38075 15.1294 9.41782 15.1294 9.41782L11.9682 4.92052C17.7501 0.861322 21.125 1.4869 22.0268 2.77023L25.7544 8.07333C27.1357 10.0386 22.2424 17.2152 17.4823 20.9956H17.4827ZM8.50955 0L11.9682 4.92052C11.9682 4.92052 5.33778 10.4654 3.09859 15.5975C3.11455 15.6148 10.8628 11.5778 10.8628 11.5778L14.024 16.0751C8.24215 20.1343 4.86721 19.5087 3.96538 18.2253L0.237421 12.9222C-1.14393 10.957 3.74976 3.7804 8.50955 0Z" fill="white"/>
</svg>
