<svg width="120" height="11" viewBox="0 0 120 11" fill="none" xmlns="http://www.w3.org/2000/svg">
<g clip-path="url(#clip0_2815_103283)">
<path d="M0 9.98265V6.89818C0.432629 7.23505 0.961269 7.4087 1.5 7.39091C2.5815 7.39091 3.25392 6.80949 3.25392 5.66636V0.349836H7.89498V6.53849C7.89498 9.53427 5.96708 10.8203 3.19279 10.8203C1.61285 10.84 0.470219 10.3867 0 9.98265ZM16.0862 0C11.7038 0 9.07994 2.19756 9.07994 5.32638C9.07994 8.3468 11.7038 10.84 16.0721 10.84C20.4404 10.84 23.069 8.37636 23.069 5.34609C23.069 2.19756 20.4404 0 16.0862 0ZM16.0862 7.39091C15.8249 7.4132 15.562 7.3765 15.3154 7.28331C15.0687 7.19011 14.844 7.04257 14.6564 6.85064C14.4688 6.65871 14.3226 6.42686 14.2278 6.17072C14.1329 5.91458 14.0916 5.6401 14.1066 5.3658C14.1066 4.19804 14.8589 3.44909 16.0721 3.44909C17.2853 3.44909 18.0564 4.18818 18.0564 5.35595C18.0729 5.63149 18.0325 5.90752 17.938 6.16525C17.8435 6.42297 17.6971 6.65633 17.5088 6.84943C17.3205 7.04254 17.0947 7.19086 16.8468 7.2843C16.5989 7.37774 16.3346 7.4141 16.0721 7.39091H16.0862ZM49.5799 9.40616V6.47936C51.0247 7.37166 52.6709 7.84289 54.348 7.84422C55.2602 7.84422 55.6458 7.6964 55.6458 7.35149C55.6458 7.00658 55.4201 6.88833 54.7053 6.78485L53.337 6.58284C50.7508 6.20836 49.4671 5.20813 49.4671 3.45895C49.4671 1.48804 51.2492 0.00985455 55.3025 0.00985455C57.8041 0.00985455 59.2712 0.586345 60.0423 0.995309V3.86298C58.7893 3.26227 57.4231 2.96583 56.0455 2.99578C54.8041 2.99578 54.4749 3.18302 54.4749 3.48851C54.4749 3.72009 54.6207 3.86298 55.4765 3.95167L56.9483 4.12413C59.3464 4.40005 60.71 5.22291 60.71 7.08049C60.71 9.36675 58.3589 10.7661 55.0016 10.7661C53.1153 10.8124 51.2516 10.3292 49.6034 9.36675M71.9765 5.38058C72.8605 5.38058 73.3495 4.99133 73.3495 4.29658C73.3495 3.60184 72.8793 3.28649 72.0188 3.28649H70.4765V5.38058H71.9765ZM72.9169 10.4754L70.4906 6.47936V10.4754H65.8307V0.349836H74.0596C76.5705 0.349836 78.1411 1.6802 78.1411 3.83342C78.1705 4.56861 77.9433 5.28987 77.5019 5.86216C77.0605 6.43445 76.4351 6.81854 75.7429 6.94253L78.1834 10.4754H72.9169ZM86.0737 0C81.6912 0 79.0627 2.19756 79.0627 5.32638C79.0627 8.3468 81.6912 10.84 86.0502 10.84C90.4091 10.84 93.047 8.37636 93.047 5.34609C93.0517 2.19756 90.4232 0 86.0737 0ZM86.0737 7.39091C85.8142 7.41365 85.5532 7.37811 85.3079 7.28665C85.0626 7.19518 84.8388 7.04991 84.6514 6.86055C84.464 6.67118 84.3174 6.44208 84.2212 6.18856C84.1251 5.93503 84.0818 5.66293 84.094 5.39044C84.0752 4.19804 84.8417 3.44909 86.0502 3.44909C87.2586 3.44909 88.0345 4.18818 88.0345 5.35595C88.051 5.63149 88.0106 5.90752 87.9161 6.16525C87.8216 6.42297 87.6752 6.65633 87.4869 6.84943C87.2986 7.04254 87.0728 7.19086 86.8249 7.2843C86.5769 7.37774 86.3127 7.4141 86.0502 7.39091H86.0737ZM100.655 6.65675L99.6442 3.04013L98.6144 6.65675H100.655ZM101.299 8.943H97.9749L97.547 10.4754H93.0047L96.2962 0.344909H103.161L106.415 10.4754H101.746L101.299 8.943ZM113.375 0.344909H107.21V10.4754H112.947C117.926 10.4754 120 7.98711 120 5.34116C120.014 2.48827 117.842 0.344909 113.375 0.344909ZM112.876 7.49438H111.861V3.32591H113.045C114.456 3.32591 115.016 4.21282 115.016 5.32638C115.016 6.6124 114.301 7.49438 112.876 7.49438ZM36.5737 0.344909V10.4754H30.9828L28.2132 4.88785V10.4754H24.2727V0.344909H29.9671L32.652 5.88809V0.344909H36.5737ZM48.2868 7.4796V10.4754H38.3511V0.344909H48.2586V3.34069H42.9922V4.23745H48.0282V6.49415H42.9922V7.4796H48.2868Z" fill="white"/>
</g>
<defs>
<clipPath id="clip0_2815_103283">
<rect width="120" height="10.84" fill="white"/>
</clipPath>
</defs>
</svg>
