<svg width="24" height="25" viewBox="0 0 24 25" fill="none" xmlns="http://www.w3.org/2000/svg">
<g id="icon-set">
<path id="Icon" d="M14 11.6094H8M10 15.6094H8M16 7.60938H8M20 10.6094V7.40938C20 5.72922 20 4.88914 19.673 4.2474C19.3854 3.68292 18.9265 3.22398 18.362 2.93636C17.7202 2.60938 16.8802 2.60938 15.2 2.60938H8.8C7.11984 2.60938 6.27976 2.60938 5.63803 2.93636C5.07354 3.22398 4.6146 3.68292 4.32698 4.2474C4 4.88914 4 5.72922 4 7.40938V17.8094C4 19.4895 4 20.3296 4.32698 20.9713C4.6146 21.5358 5.07354 21.9948 5.63803 22.2824C6.27976 22.6094 7.11984 22.6094 8.8 22.6094H12.5M18 21.6094C18 21.6094 21 20.1795 21 18.0346V15.5323L18.8124 14.7506C18.2868 14.5623 17.712 14.5623 17.1864 14.7506L15 15.5323V18.0346C15 20.1795 18 21.6094 18 21.6094Z" stroke="#C3F967" stroke-width="1.5" stroke-linecap="round" stroke-linejoin="round"/>
</g>
</svg>
