<svg width="24" height="25" viewBox="0 0 24 25" fill="none" xmlns="http://www.w3.org/2000/svg">
<g id="icon-set">
<path id="Icon" d="M6 6.60938L8 4.60938M8 4.60938L6 2.60938M8 4.60938H6C3.79086 4.60938 2 6.40024 2 8.60938M18 18.6094L16 20.6094M16 20.6094L18 22.6094M16 20.6094H18C20.2091 20.6094 22 18.8185 22 16.6094M13.4172 14.0265C14.1994 14.4002 15.0753 14.6094 16 14.6094C19.3137 14.6094 22 11.9231 22 8.60938C22 5.29567 19.3137 2.60938 16 2.60938C12.6863 2.60938 10 5.29567 10 8.60938C10 9.53409 10.2092 10.4099 10.5828 11.1922M14 16.6094C14 19.9231 11.3137 22.6094 8 22.6094C4.68629 22.6094 2 19.9231 2 16.6094C2 13.2957 4.68629 10.6094 8 10.6094C11.3137 10.6094 14 13.2957 14 16.6094Z" stroke="#C3F967" stroke-width="1.5" stroke-linecap="round" stroke-linejoin="round"/>
</g>
</svg>
