<svg width="24" height="25" viewBox="0 0 24 25" fill="none" xmlns="http://www.w3.org/2000/svg">
<g id="icon-set">
<path id="Icon" d="M13.5295 8.96123C12.9571 9.36932 12.2566 9.60938 11.5 9.60938C9.567 9.60938 8 8.04237 8 6.10938C8 4.17638 9.567 2.60938 11.5 2.60938C12.753 2.60938 13.8522 3.26779 14.4705 4.25752M6 20.6965H8.61029C8.95063 20.6965 9.28888 20.737 9.61881 20.818L12.3769 21.4883C12.9753 21.634 13.5988 21.6482 14.2035 21.5308L17.253 20.9375C18.0585 20.7806 18.7996 20.3948 19.3803 19.8299L21.5379 17.7311C22.154 17.1327 22.154 16.1618 21.5379 15.5624C20.9832 15.0228 20.1047 14.9621 19.4771 15.4197L16.9626 17.2542C16.6025 17.5175 16.1643 17.6592 15.7137 17.6592H13.2855L14.8311 17.6591C15.7022 17.6591 16.4079 16.9727 16.4079 16.1253V15.8185C16.4079 15.1149 15.9156 14.5013 15.2141 14.3312L12.8286 13.7511C12.4404 13.657 12.0428 13.6094 11.6431 13.6094C10.6783 13.6094 8.93189 14.4082 8.93189 14.4082L6 15.6343M20 7.10938C20 9.04237 18.433 10.6094 16.5 10.6094C14.567 10.6094 13 9.04237 13 7.10938C13 5.17638 14.567 3.60938 16.5 3.60938C18.433 3.60938 20 5.17638 20 7.10938ZM2 15.2094L2 21.0094C2 21.5694 2 21.8495 2.10899 22.0634C2.20487 22.2515 2.35785 22.4045 2.54601 22.5004C2.75992 22.6094 3.03995 22.6094 3.6 22.6094H4.4C4.96005 22.6094 5.24008 22.6094 5.45399 22.5004C5.64215 22.4045 5.79513 22.2515 5.89101 22.0634C6 21.8495 6 21.5694 6 21.0094V15.2094C6 14.6493 6 14.3693 5.89101 14.1554C5.79513 13.9672 5.64215 13.8142 5.45399 13.7184C5.24008 13.6094 4.96005 13.6094 4.4 13.6094L3.6 13.6094C3.03995 13.6094 2.75992 13.6094 2.54601 13.7184C2.35785 13.8142 2.20487 13.9672 2.10899 14.1554C2 14.3693 2 14.6493 2 15.2094Z" stroke="#C3F967" stroke-width="1.5" stroke-linecap="round" stroke-linejoin="round"/>
</g>
</svg>
