<svg width="24" height="25" viewBox="0 0 24 25" fill="none" xmlns="http://www.w3.org/2000/svg">
<g id="icon-set">
<path id="Icon" d="M2 17.6094V17.4592C2 17.1427 2 16.9844 2.02421 16.8303C2.0457 16.6934 2.08136 16.5591 2.13061 16.4296C2.18609 16.2837 2.2646 16.1463 2.42162 15.8715L6 9.60938M2 17.6094C2 19.8185 3.79086 21.6094 6 21.6094C8.20914 21.6094 10 19.8185 10 17.6094M2 17.6094V17.4094C2 17.1293 2 16.9893 2.0545 16.8824C2.10243 16.7883 2.17892 16.7118 2.273 16.6639C2.37996 16.6094 2.51997 16.6094 2.8 16.6094H9.2C9.48003 16.6094 9.62004 16.6094 9.727 16.6639C9.82108 16.7118 9.89757 16.7883 9.9455 16.8824C10 16.9893 10 17.1293 10 17.4094V17.6094M6 9.60938L9.57838 15.8715C9.7354 16.1463 9.81391 16.2837 9.86939 16.4296C9.91864 16.5591 9.9543 16.6934 9.97579 16.8303C10 16.9844 10 17.1427 10 17.4592V17.6094M6 9.60938L18 7.60938M14 15.6094V15.4592C14 15.1427 14 14.9844 14.0242 14.8303C14.0457 14.6934 14.0814 14.5591 14.1306 14.4296C14.1861 14.2837 14.2646 14.1463 14.4216 13.8715L18 7.60938M14 15.6094C14 17.8185 15.7909 19.6094 18 19.6094C20.2091 19.6094 22 17.8185 22 15.6094M14 15.6094V15.4094C14 15.1293 14 14.9893 14.0545 14.8824C14.1024 14.7883 14.1789 14.7118 14.273 14.6639C14.38 14.6094 14.52 14.6094 14.8 14.6094H21.2C21.48 14.6094 21.62 14.6094 21.727 14.6639C21.8211 14.7118 21.8976 14.7883 21.9455 14.8824C22 14.9893 22 15.1293 22 15.4094V15.6094M18 7.60938L21.5784 13.8715C21.7354 14.1463 21.8139 14.2837 21.8694 14.4296C21.9186 14.5591 21.9543 14.6934 21.9758 14.8303C22 14.9844 22 15.1427 22 15.4592V15.6094M12 3.60938V8.60938" stroke="#C3F967" stroke-width="1.5" stroke-linecap="round" stroke-linejoin="round"/>
</g>
</svg>
