<svg width="375" height="173" viewBox="0 0 375 173" fill="none" xmlns="http://www.w3.org/2000/svg">
<path d="M761.553 34.542C761.553 65.1405 504.317 89.9454 186.999 89.9454C-130.318 89.9454 -387.555 65.1405 -387.555 34.542" stroke="url(#paint0_linear_1963_90304)" stroke-width="0.341996" stroke-dasharray="1.37 1.37"/>
<path d="M761.553 151.163C761.553 120.565 504.317 95.7597 186.999 95.7597C-130.318 95.7597 -387.555 120.565 -387.555 151.163" stroke="url(#paint1_linear_1963_90304)" stroke-width="0.341996" stroke-dasharray="1.37 1.37"/>
<path d="M542.676 27.0186C542.676 57.617 383.434 82.422 187 82.422C-9.43507 82.422 -168.677 57.617 -168.677 27.0186" stroke="url(#paint2_linear_1963_90304)" stroke-width="0.341996" stroke-dasharray="1.37 1.37"/>
<path d="M542.676 158.003C542.676 127.404 383.434 102.6 187 102.6C-9.43507 102.6 -168.677 127.404 -168.677 158.003" stroke="url(#paint3_linear_1963_90304)" stroke-width="0.341996" stroke-dasharray="1.37 1.37"/>
<path d="M467.437 16.416C467.437 48.9033 341.881 75.2394 187 75.2394C32.1185 75.2394 -93.4375 48.9033 -93.4375 16.416" stroke="url(#paint4_linear_1963_90304)" stroke-width="0.341996" stroke-dasharray="1.37 1.37"/>
<path d="M433.237 9.57617C433.237 42.0634 322.992 68.3996 186.999 68.3996C51.006 68.3996 -59.2383 42.0634 -59.2383 9.57617" stroke="url(#paint5_linear_1963_90304)" stroke-width="0.341996" stroke-dasharray="1.37 1.37"/>
<path d="M467.437 165.185C467.437 134.586 341.881 109.781 187 109.781C32.1185 109.781 -93.4375 134.586 -93.4375 165.185" stroke="url(#paint6_linear_1963_90304)" stroke-width="0.341996" stroke-dasharray="1.37 1.37"/>
<path d="M433.237 172.024C433.237 141.426 322.992 116.621 186.999 116.621C51.006 116.621 -59.2383 141.426 -59.2383 172.024" stroke="url(#paint7_linear_1963_90304)" stroke-width="0.341996" stroke-dasharray="1.37 1.37"/>
<path d="M100.132 102.599L99.1159 103.635L98.0796 104.651L99.1159 105.666L100.132 106.703L101.147 105.666L102.184 104.651L101.147 103.635L100.132 102.599Z" fill="#2330AA"/>
<path d="M79.6121 60.1914L78.5964 61.2277L77.5601 62.2434L78.5964 63.2591L79.6121 64.2954L80.6278 63.2591L81.6641 62.2434L80.6278 61.2277L79.6121 60.1914Z" fill="#2330AA"/>
<path d="M127.492 94.0488L126.476 95.0851L125.44 96.1008L126.476 97.1165L127.492 98.1528L128.508 97.1165L129.544 96.1008L128.508 95.0851L127.492 94.0488Z" fill="#2B3CD5"/>
<path d="M230.774 80.0273L229.759 81.0636L228.722 82.0793L229.759 83.095L230.774 84.1313L231.79 83.095L232.826 82.0793L231.79 81.0636L230.774 80.0273Z" fill="#3448FF"/>
<path d="M117.574 87.5508L116.558 88.5871L115.522 89.6028L116.558 90.6184L117.574 91.6547L118.59 90.6184L119.626 89.6028L118.59 88.5871L117.574 87.5508Z" fill="#2B3CD5"/>
<path d="M144.592 72.1611L143.576 73.1974L142.54 74.2131L143.576 75.2288L144.592 76.2651L145.607 75.2288L146.644 74.2131L145.607 73.1974L144.592 72.1611Z" fill="#3448FF"/>
<path d="M245.822 72.1611L244.806 73.1974L243.77 74.2131L244.806 75.2288L245.822 76.2651L246.838 75.2288L247.874 74.2131L246.838 73.1974L245.822 72.1611Z" fill="#2B3CD5"/>
<path d="M255.398 109.096L254.383 110.132L253.346 111.148L254.383 112.163L255.398 113.2L256.414 112.163L257.45 111.148L256.414 110.132L255.398 109.096Z" fill="#2B3CD5"/>
<path d="M39.2562 124.828L37.902 126.21L36.5202 127.564L37.902 128.918L39.2562 130.3L40.6105 128.918L41.9922 127.564L40.6105 126.21L39.2562 124.828Z" fill="#1A2480"/>
<path d="M302.593 86.1826L301.239 87.5644L299.857 88.9186L301.239 90.2728L302.593 91.6546L303.947 90.2728L305.329 88.9186L303.947 87.5644L302.593 86.1826Z" fill="#2330AA"/>
<path d="M312.854 57.4551L311.5 58.8368L310.118 60.191L311.5 61.5453L312.854 62.927L314.208 61.5453L315.59 60.191L314.208 58.8368L312.854 57.4551Z" fill="#1A2480"/>
<circle cx="182.9" cy="82.6493" r="44.6337" fill="#0C1038"/>
<circle cx="182.9" cy="82.6494" r="35.707" fill="#1A2480"/>
<circle cx="182.901" cy="82.6484" r="26.7802" fill="#2330AA"/>
<circle cx="182.9" cy="82.6496" r="19.6388" fill="#3448FF"/>
<path d="M190.686 84.8343C189.547 86.5887 187.891 88.4975 186.245 89.848L183.967 86.5786L183.959 86.566C183.985 86.5432 184.015 86.5167 184.049 86.4868C184.183 86.3689 184.377 86.1966 184.613 85.9784C185.087 85.5419 185.735 84.9212 186.433 84.1836C187.827 82.7124 189.436 80.7616 190.252 78.8745L190.296 78.7719L190.221 78.6893C190.186 78.6598 190.122 78.6354 190.099 78.6332C190.087 78.6332 190.068 78.635 190.061 78.6362C190.049 78.6384 190.04 78.6416 190.037 78.6425C190.03 78.645 190.024 78.6475 190.021 78.6486C190.015 78.6512 190.008 78.6543 190.002 78.6572C189.99 78.6631 189.973 78.6716 189.952 78.6821C189.909 78.7032 189.848 78.7343 189.772 78.7737C189.618 78.8527 189.4 78.966 189.138 79.1022C188.615 79.3746 187.919 79.7389 187.223 80.1035C186.527 80.4681 185.831 80.8331 185.31 81.107L184.68 81.438L184.575 81.4926L182.492 78.5027C184.486 77.1144 186.055 76.5333 187.195 76.4028C188.367 76.2686 189.057 76.6103 189.33 77.002L189.33 77.002L192.005 80.8418C192.101 80.9791 192.151 81.1751 192.144 81.4365C192.136 81.6975 192.072 82.0102 191.954 82.3657C191.717 83.0765 191.273 83.9312 190.686 84.8343ZM181.3 83.5589L181.404 83.5043L183.487 86.4942C181.494 87.8824 179.925 88.4636 178.785 88.5941C177.613 88.7283 176.923 88.3866 176.65 87.9949L176.65 87.9948L173.974 84.1551C173.879 84.0178 173.828 83.8218 173.836 83.5604C173.843 83.2994 173.907 82.9867 174.025 82.6312C174.262 81.9204 174.707 81.0657 175.293 80.1626C176.432 78.4081 178.089 76.4993 179.734 75.1487L182.012 78.4183L182.021 78.4309C181.995 78.4537 181.964 78.4802 181.93 78.5101C181.796 78.628 181.603 78.8003 181.366 79.0185C180.893 79.455 180.245 80.0757 179.546 80.8133C178.153 82.2845 176.544 84.2353 175.727 86.1224L175.683 86.225L175.759 86.3075C175.794 86.3371 175.858 86.3614 175.881 86.3637C175.893 86.3637 175.911 86.3619 175.919 86.3607C175.931 86.3584 175.94 86.3553 175.943 86.3544C175.95 86.3519 175.956 86.3494 175.958 86.3483C175.965 86.3457 175.971 86.3426 175.977 86.3397C175.99 86.3338 176.007 86.3253 176.028 86.3148C176.07 86.2937 176.131 86.2626 176.208 86.2231C176.361 86.1442 176.58 86.0309 176.841 85.8947C177.365 85.6223 178.061 85.258 178.757 84.8934C179.453 84.5288 180.148 84.1638 180.67 83.8899L181.3 83.5589Z" stroke="white" stroke-width="0.345572"/>
<circle opacity="0.2" cx="182.901" cy="82.6486" r="71.4139" transform="rotate(-90 182.901 82.6486)" stroke="#364153" stroke-width="0.341996"/>
<ellipse opacity="0.3" cx="182.901" cy="82.6507" rx="62.4872" ry="80.3407" transform="rotate(-100 182.901 82.6507)" stroke="#364153" stroke-width="0.341996"/>
<ellipse opacity="0.4" cx="182.901" cy="82.6517" rx="53.5605" ry="89.2674" transform="rotate(-105 182.901 82.6517)" stroke="#364153" stroke-width="0.341996"/>
<ellipse opacity="0.5" cx="182.9" cy="82.6494" rx="44.6337" ry="98.1942" transform="rotate(-110 182.9 82.6494)" stroke="#364153" stroke-width="0.341996"/>
<ellipse opacity="0.6" cx="182.9" cy="82.6505" rx="35.707" ry="107.121" transform="rotate(-115 182.9 82.6505)" stroke="#364153" stroke-width="0.341996"/>
<ellipse opacity="0.7" cx="182.901" cy="82.65" rx="26.7802" ry="116.048" transform="rotate(-120 182.901 82.65)" stroke="#364153" stroke-width="0.341996"/>
<ellipse opacity="0.8" cx="182.9" cy="82.6508" rx="13.3901" ry="124.974" transform="rotate(-125 182.9 82.6508)" stroke="#364153" stroke-width="0.341996"/>
<defs>
<linearGradient id="paint0_linear_1963_90304" x1="761.553" y1="62.2437" x2="-387.555" y2="62.2437" gradientUnits="userSpaceOnUse">
<stop stop-color="#364153" stop-opacity="0"/>
<stop offset="0.25" stop-color="#364153"/>
<stop offset="0.48" stop-color="#364153" stop-opacity="0.3"/>
<stop offset="0.52" stop-color="#364153" stop-opacity="0.3"/>
<stop offset="0.75" stop-color="#364153"/>
<stop offset="1" stop-color="#364153" stop-opacity="0"/>
</linearGradient>
<linearGradient id="paint1_linear_1963_90304" x1="761.553" y1="123.461" x2="-387.555" y2="123.461" gradientUnits="userSpaceOnUse">
<stop stop-color="#364153" stop-opacity="0"/>
<stop offset="0.25" stop-color="#364153"/>
<stop offset="0.48" stop-color="#364153" stop-opacity="0.3"/>
<stop offset="0.52" stop-color="#364153" stop-opacity="0.3"/>
<stop offset="0.75" stop-color="#364153"/>
<stop offset="1" stop-color="#364153" stop-opacity="0"/>
</linearGradient>
<linearGradient id="paint2_linear_1963_90304" x1="542.676" y1="54.7203" x2="-168.677" y2="54.7203" gradientUnits="userSpaceOnUse">
<stop stop-color="#364153" stop-opacity="0"/>
<stop offset="0.1" stop-color="#364153"/>
<stop offset="0.45" stop-color="#364153" stop-opacity="0.3"/>
<stop offset="0.55" stop-color="#364153" stop-opacity="0.3"/>
<stop offset="0.9" stop-color="#364153"/>
<stop offset="1" stop-color="#364153" stop-opacity="0"/>
</linearGradient>
<linearGradient id="paint3_linear_1963_90304" x1="542.676" y1="130.301" x2="-168.677" y2="130.301" gradientUnits="userSpaceOnUse">
<stop stop-color="#364153" stop-opacity="0"/>
<stop offset="0.1" stop-color="#364153"/>
<stop offset="0.45" stop-color="#364153" stop-opacity="0.3"/>
<stop offset="0.55" stop-color="#364153" stop-opacity="0.3"/>
<stop offset="0.9" stop-color="#364153"/>
<stop offset="1" stop-color="#364153" stop-opacity="0"/>
</linearGradient>
<linearGradient id="paint4_linear_1963_90304" x1="467.437" y1="45.8277" x2="-93.4375" y2="45.8277" gradientUnits="userSpaceOnUse">
<stop stop-color="#364153" stop-opacity="0"/>
<stop offset="0.1" stop-color="#364153"/>
<stop offset="0.45" stop-color="#364153" stop-opacity="0.3"/>
<stop offset="0.55" stop-color="#364153" stop-opacity="0.3"/>
<stop offset="0.9" stop-color="#364153"/>
<stop offset="1" stop-color="#364153" stop-opacity="0"/>
</linearGradient>
<linearGradient id="paint5_linear_1963_90304" x1="433.237" y1="38.9879" x2="-59.2383" y2="38.9879" gradientUnits="userSpaceOnUse">
<stop stop-color="#364153" stop-opacity="0"/>
<stop offset="0.1" stop-color="#364153"/>
<stop offset="0.45" stop-color="#364153" stop-opacity="0.3"/>
<stop offset="0.55" stop-color="#364153" stop-opacity="0.3"/>
<stop offset="0.9" stop-color="#364153"/>
<stop offset="1" stop-color="#364153" stop-opacity="0"/>
</linearGradient>
<linearGradient id="paint6_linear_1963_90304" x1="467.437" y1="137.483" x2="-93.4375" y2="137.483" gradientUnits="userSpaceOnUse">
<stop stop-color="#364153" stop-opacity="0"/>
<stop offset="0.1" stop-color="#364153"/>
<stop offset="0.45" stop-color="#364153" stop-opacity="0.3"/>
<stop offset="0.55" stop-color="#364153" stop-opacity="0.3"/>
<stop offset="0.9" stop-color="#364153"/>
<stop offset="1" stop-color="#364153" stop-opacity="0"/>
</linearGradient>
<linearGradient id="paint7_linear_1963_90304" x1="433.237" y1="144.323" x2="-59.2383" y2="144.323" gradientUnits="userSpaceOnUse">
<stop stop-color="#364153" stop-opacity="0"/>
<stop offset="0.1" stop-color="#364153"/>
<stop offset="0.45" stop-color="#364153" stop-opacity="0.3"/>
<stop offset="0.55" stop-color="#364153" stop-opacity="0.3"/>
<stop offset="0.9" stop-color="#364153"/>
<stop offset="1" stop-color="#364153" stop-opacity="0"/>
</linearGradient>
</defs>
</svg>
