<svg width="166" height="66" viewBox="0 0 166 66" fill="none" xmlns="http://www.w3.org/2000/svg">
<g clip-path="url(#clip0_13581_215705)">
<path d="M68.1252 38.2771C68.0451 38.6241 67.9708 38.9726 67.8833 39.3178C67.7669 39.7768 67.6975 40.2378 67.7746 40.7109C68.0815 42.5929 69.8896 43.1735 71.157 42.8075C71.4843 42.713 71.7803 42.5104 72.1009 42.3524C72.4548 42.8344 72.9102 43.2681 73.464 43.5859C75.0486 44.4952 76.7311 44.6221 78.459 44.1215C80.1082 43.6437 81.3526 42.5862 82.3431 41.2173C83.5355 39.5693 84.0112 37.6931 84.0478 35.6856C84.0647 34.7561 83.922 33.8523 83.6144 32.9732C83.4793 32.5872 83.4028 32.1776 83.2393 31.8052C82.8962 31.0238 82.3991 30.3416 81.753 29.7792C80.2596 28.4794 78.5217 27.9731 76.5629 28.2086C76.3135 28.2386 76.067 28.2934 75.8184 28.3368C75.8162 28.3156 75.8119 28.3033 75.8143 28.2926C76.0671 27.181 76.3236 26.0703 76.5721 24.9578C76.683 24.4616 76.8333 23.975 76.7821 23.4494C76.6718 22.3196 76.0187 21.482 74.9401 21.156C74.1005 20.9021 73.3143 21.0073 72.6181 21.5643C72.0473 22.0211 71.7207 22.6316 71.5588 23.3363C71.1026 25.3211 70.6473 27.3062 70.1911 29.291C69.5047 32.2767 68.8179 35.2623 68.1252 38.2771ZM54.6153 43.2085C54.9948 43.4171 55.3611 43.6561 55.7564 43.8285C57.0368 44.3868 58.3788 44.5064 59.7562 44.3364C61.2643 44.1503 62.6029 43.5775 63.7115 42.5358C64.8373 41.4779 65.6869 40.2443 65.9692 38.6816C66.063 38.1621 66.2298 37.6541 66.2986 37.1323C66.3936 36.4108 66.3424 35.6845 66.2366 34.9634C65.9001 32.6697 64.7728 30.8356 62.9486 29.4405C61.1339 28.0525 59.0728 27.7511 56.8789 28.2393C55.4805 28.5505 54.3119 29.2742 53.3384 30.3218C52.5475 31.1728 51.9361 32.1338 51.5399 33.2273C50.972 34.7948 50.9022 36.4001 51.2251 38.0229C51.6567 40.1921 52.7876 41.9156 54.6153 43.2085ZM91.2213 34.1458C91.1085 33.6477 90.9966 33.1493 90.883 32.6514C90.658 31.6671 90.4476 30.6792 90.2018 29.7002C90.0135 28.9517 89.6034 28.3549 88.8632 28.044C88.4045 27.8512 87.9219 27.796 87.4296 27.8605C86.5554 27.9753 85.8438 28.3599 85.4169 29.1593C85.105 29.7433 85.0554 30.3825 85.1858 31.0178C85.3094 31.6214 85.4891 32.2143 85.6616 32.8069C86.4379 35.4757 87.2177 38.1435 88.0022 40.8099C88.173 41.3905 88.3302 41.9797 88.5603 42.5375C89.3701 44.5014 91.6575 44.5463 92.7289 43.7346C93.1969 43.3799 93.5284 42.9244 93.7845 42.4077C94.7473 40.4646 95.7072 38.5199 96.6671 36.5753C97.3277 35.2375 97.9918 33.9017 98.6423 32.5592C98.9002 32.0275 99.0199 31.4619 98.9617 30.8647C98.8799 30.0229 98.443 29.4082 97.7356 28.9841C97.0805 28.5911 96.357 28.5033 95.6179 28.6522C94.773 28.8224 94.2865 29.4126 93.9789 30.1725C93.308 31.8294 92.6432 33.4887 91.9783 35.1482C91.8651 35.4315 91.7643 35.72 91.6497 36.0291C91.5053 35.3912 91.3678 34.7829 91.2213 34.1458ZM106.885 40.0224C106.851 39.3992 106.816 38.7761 106.783 38.1528C106.742 37.3751 106.705 36.5972 106.662 35.8196C106.597 34.6446 106.529 33.4697 106.461 32.2948C106.427 31.7076 106.419 31.1168 106.347 30.5341C106.182 29.1954 105.09 28.0737 103.562 28.2088C102.188 28.3303 101.153 29.4173 101.17 30.7957C101.183 31.7758 101.257 32.7552 101.305 33.7349C101.364 34.9402 101.425 36.1454 101.487 37.3506C101.546 38.5023 101.604 39.6541 101.67 40.8055C101.694 41.232 101.692 41.6667 101.779 42.082C102.238 44.2951 104.46 44.693 105.837 43.7572C106.582 43.2515 106.92 42.4907 106.948 41.6065C106.964 41.091 106.911 40.5734 106.885 40.0224ZM103.841 22.4162C103.8 22.4101 103.759 22.4005 103.718 22.3983C102.737 22.3462 101.926 22.6967 101.287 23.4393C100.851 23.9468 100.594 24.5285 100.598 25.2097C100.602 25.9095 100.846 26.5193 101.287 27.0579C102.373 28.3869 104.037 28.3667 105.063 27.6365C105.989 26.9783 106.416 26.0585 106.32 24.9082C106.22 23.6939 105.076 22.5243 103.841 22.4162ZM109.455 43.0954C109.957 43.8081 110.611 44.262 111.498 44.3812C113.049 44.5894 114.516 43.3574 114.61 41.7779C114.715 39.9975 113.111 38.4993 111.248 38.8779C109.464 39.2403 108.397 41.3224 109.455 43.0954Z" fill="white"/>
<path d="M112.35 46.4361C112.016 46.4361 111.682 46.4361 111.325 46.4225C109.919 46.279 108.835 45.6111 107.992 44.5767C107.697 44.843 107.418 45.1223 107.11 45.3654C106.373 45.9483 105.509 46.2067 104.584 46.2505C104.198 46.2688 103.806 46.2355 103.422 46.1812C102.562 46.0592 101.824 45.6679 101.189 45.0802C100.852 44.7677 100.567 44.4105 100.336 44.0127C99.9437 43.338 99.733 42.6062 99.6694 41.8313C99.6383 41.45 99.6183 41.0676 99.5976 40.6855C99.5711 40.1905 99.5504 39.6953 99.5251 39.2003C99.5029 38.7765 99.4743 38.3531 99.455 37.9292C99.4279 37.339 99.4072 36.7485 99.3818 36.1582C99.3772 36.0537 99.3618 35.9497 99.3514 35.8454C98.8913 36.7023 98.4715 37.5649 98.0482 38.4256C97.5495 39.4388 97.0497 40.4513 96.5471 41.4624C96.2102 42.1405 95.8715 42.8178 95.5261 43.4916C95.1917 44.1438 94.753 44.7121 94.1882 45.1881C93.442 45.8168 92.5831 46.17 91.6214 46.2498C91.0827 46.2945 90.5365 46.2782 90.0032 46.1495C89.2801 45.9751 88.6196 45.6821 88.0415 45.1978C87.4996 44.7442 87.0673 44.2069 86.7801 43.5715C86.5547 43.073 86.3961 42.5427 86.23 42.0196C86.051 41.4572 85.8995 40.8862 85.7327 40.3201C85.6562 40.0616 85.5712 39.8056 85.479 39.5135C85.1447 40.5389 84.6796 41.4546 84.0888 42.3057C83.5553 43.0742 82.9281 43.7621 82.2124 44.3619C81.5006 44.9584 80.7178 45.4479 79.8546 45.8029C79.1637 46.087 78.4523 46.2872 77.7079 46.366C77.5608 46.3816 77.4154 46.4124 77.2693 46.4361C76.8279 46.4361 76.3866 46.4361 75.9217 46.4223C75.5283 46.3584 75.1556 46.3233 74.7889 46.2555C73.7052 46.055 72.7216 45.6204 71.8409 44.9557C71.7179 44.8629 71.605 44.8111 71.4282 44.8543C71.1409 44.9244 70.8393 44.9641 70.5436 44.9652C69.9997 44.9673 69.465 44.8899 68.9396 44.7276C68.2886 44.5266 67.6988 44.2229 67.2127 43.7483C66.8924 43.4355 66.6113 43.0823 66.3051 42.7388C66.1822 42.8822 66.0488 43.0607 65.8925 43.2161C65.4451 43.661 65.0127 44.1258 64.529 44.5281C63.98 44.9849 63.3642 45.3554 62.6983 45.6257C62.269 45.8 61.837 45.978 61.391 46.0978C60.927 46.2223 60.4449 46.2792 59.9705 46.3648C59.8306 46.39 59.6902 46.4124 59.5501 46.4361C58.9778 46.4361 58.4054 46.4361 57.8097 46.4223C57.3928 46.3561 56.9933 46.3311 56.6072 46.2455C55.7793 46.0617 54.9869 45.7779 54.2358 45.3712C53.5013 44.9733 52.8382 44.4832 52.2323 43.9159C51.9298 43.6326 51.6598 43.3134 51.3849 43.0019C50.944 42.5023 50.5805 41.9474 50.2633 41.3632C49.9193 40.7295 49.6473 40.0647 49.4427 39.3728C49.2107 38.5883 49.0578 37.7846 49.0225 36.9713C48.991 36.2465 48.9765 35.5173 49.0762 34.7898C49.1618 34.166 49.2854 33.5539 49.4688 32.9533C49.702 32.1899 50.0329 31.4701 50.4398 30.7832C50.8646 30.0661 51.3691 29.4099 51.9438 28.8093C52.1959 28.5458 52.4791 28.3117 52.7514 28.0678C53.249 27.6218 53.8088 27.2617 54.4067 26.9741C54.8954 26.7391 55.4059 26.5402 55.9226 26.3751C56.6463 26.1439 57.395 26.0191 58.1576 26.0031C58.4857 25.9961 58.8148 25.988 59.1422 26.0055C59.5399 26.0267 59.942 26.0439 60.3321 26.1168C61.3228 26.302 62.2702 26.6191 63.1523 27.1203C63.8674 27.5266 64.5173 28.0189 65.1098 28.5849C65.395 28.8574 65.6513 29.1607 65.9143 29.4557C66.4794 30.09 66.9303 30.801 67.3088 31.5593C67.3624 31.6667 67.4128 31.7756 67.4666 31.8878C67.4887 31.8678 67.5035 31.8611 67.5055 31.8517C67.6207 31.3006 67.728 30.7477 67.8511 30.1984C67.9572 29.7254 68.0862 29.2577 68.1963 28.7856C68.4386 27.7473 68.6744 26.7075 68.9146 25.6688C69.1261 24.7544 69.3384 23.8402 69.5533 22.9265C69.8143 21.8167 70.3077 20.8434 71.1918 20.0894C71.6494 19.6991 72.1472 19.3894 72.7234 19.2155C72.997 19.133 73.2769 19.0712 73.5539 19C73.9357 19 74.3176 19 74.7222 19.0134C74.7982 19.0302 74.853 19.0268 74.9044 19.0382C75.4319 19.1549 75.9467 19.3018 76.4283 19.5611C77.2296 19.9925 77.8421 20.6058 78.2703 21.4044C78.5758 21.974 78.7522 22.5788 78.8143 23.2274C78.8587 23.691 78.8409 24.1448 78.7547 24.595C78.6568 25.1063 78.5257 25.6112 78.4029 26.1461C80.3414 26.3986 82.0312 27.1667 83.4348 28.5329C83.4549 28.4918 83.4709 28.4606 83.4855 28.4289C83.9199 27.4923 84.604 26.7909 85.5201 26.3273C86.3654 25.8996 87.2617 25.7198 88.2148 25.8177C88.6756 25.865 89.1229 25.9473 89.5548 26.1109C90.3332 26.4056 90.9481 26.9118 91.4385 27.5776C91.7847 28.0474 92.0123 28.5739 92.1805 29.1405C92.5103 28.5068 92.8961 27.9386 93.4452 27.4852C94.1957 26.8659 95.0631 26.5823 96.0169 26.5436C96.3377 26.5305 96.6618 26.58 96.9836 26.6101C97.5216 26.6603 98.0261 26.8281 98.5069 27.0698C98.6787 27.156 98.8445 27.2537 99.0431 27.3626C99.0174 27.2941 99.0063 27.2565 98.9899 27.2214C98.7534 26.7168 98.6066 26.1829 98.5676 25.6316C98.5194 24.9441 98.5873 24.2678 98.8399 23.6103C99.2846 22.4534 100.051 21.5792 101.113 20.9662C102.124 20.3821 103.219 20.2426 104.366 20.4268C105.259 20.5704 106.031 20.9696 106.703 21.5575C107.235 22.0235 107.669 22.5694 107.963 23.2266C108.345 24.0795 108.466 24.9666 108.342 25.8816C108.242 26.6241 107.998 27.3241 107.569 27.9505C107.54 27.992 107.548 28.0838 107.574 28.1328C107.687 28.3418 107.827 28.5369 107.933 28.7491C108.293 29.4715 108.407 30.2526 108.456 31.0471C108.482 31.4646 108.505 31.8823 108.528 32.3C108.564 32.9711 108.599 33.6422 108.635 34.3133C108.658 34.7369 108.685 35.1604 108.706 35.5841C108.732 36.1445 108.752 36.7052 108.779 37.2656C108.788 37.4387 108.81 37.6112 108.826 37.7911C108.854 37.7821 108.872 37.781 108.884 37.7713C109.597 37.1934 110.424 36.8825 111.325 36.7997C111.857 36.7508 112.396 36.7721 112.926 36.8954C113.702 37.0757 114.389 37.4293 114.983 37.9495C115.407 38.3211 115.773 38.7465 116.052 39.2496C116.378 39.835 116.574 40.4552 116.629 41.1131C116.662 41.5057 116.651 41.9107 116.592 42.2996C116.528 42.7138 116.424 43.1323 116.266 43.5194C115.965 44.2563 115.48 44.8692 114.86 45.377C114.324 45.816 113.721 46.114 113.057 46.2911C112.825 46.3529 112.586 46.3886 112.35 46.4361ZM68.1252 38.2771C68.0451 38.6241 67.9708 38.9726 67.8833 39.3178C67.7669 39.7768 67.6975 40.2378 67.7746 40.7109C68.0815 42.5929 69.8896 43.1735 71.157 42.8075C71.4843 42.713 71.7803 42.5104 72.1009 42.3524C72.4548 42.8344 72.9102 43.2681 73.464 43.5859C75.0486 44.4952 76.7311 44.6221 78.459 44.1215C80.1083 43.6437 81.3526 42.5862 82.3431 41.2173C83.5355 39.5693 84.0113 37.6931 84.0478 35.6856C84.0647 34.7561 83.922 33.8523 83.6144 32.9732C83.4793 32.5872 83.4028 32.1776 83.2393 31.8052C82.8962 31.0238 82.3991 30.3416 81.753 29.7792C80.2596 28.4794 78.5217 27.9731 76.5629 28.2086C76.3135 28.2386 76.067 28.2934 75.8184 28.3368C75.8162 28.3156 75.8119 28.3033 75.8143 28.2926C76.0671 27.181 76.3236 26.0703 76.5721 24.9578C76.683 24.4616 76.8334 23.975 76.7821 23.4494C76.6718 22.3196 76.0187 21.482 74.9401 21.156C74.1005 20.9021 73.3144 21.0073 72.6181 21.5643C72.0473 22.0211 71.7207 22.6316 71.5588 23.3363C71.1026 25.3211 70.6473 27.3062 70.1911 29.291C69.5047 32.2767 68.8179 35.2623 68.1252 38.2771ZM54.6153 43.2085C54.9948 43.4171 55.3611 43.6561 55.7564 43.8285C57.0368 44.3868 58.3788 44.5064 59.7562 44.3364C61.2643 44.1503 62.6029 43.5775 63.7115 42.5358C64.8373 41.4779 65.6869 40.2443 65.9692 38.6816C66.063 38.1621 66.2298 37.6541 66.2986 37.1323C66.3936 36.4108 66.3424 35.6845 66.2366 34.9634C65.9001 32.6697 64.7728 30.8356 62.9486 29.4405C61.1339 28.0525 59.0728 27.7511 56.8789 28.2393C55.4805 28.5505 54.3119 29.2742 53.3384 30.3218C52.5475 31.1728 51.9361 32.1338 51.5399 33.2273C50.972 34.7948 50.9022 36.4001 51.2251 38.0229C51.6567 40.1921 52.7876 41.9156 54.6153 43.2085ZM91.2213 34.1458C91.1085 33.6477 90.9966 33.1493 90.883 32.6514C90.658 31.6671 90.4476 30.6792 90.2018 29.7002C90.0135 28.9517 89.6034 28.3549 88.8632 28.044C88.4045 27.8512 87.9219 27.796 87.4296 27.8605C86.5554 27.9753 85.8438 28.3599 85.4169 29.1593C85.105 29.7433 85.0554 30.3825 85.1858 31.0178C85.3094 31.6214 85.4891 32.2143 85.6616 32.8069C86.4379 35.4757 87.2177 38.1435 88.0022 40.8099C88.173 41.3905 88.3302 41.9797 88.5603 42.5375C89.3701 44.5014 91.6575 44.5463 92.7289 43.7346C93.1969 43.3799 93.5284 42.9244 93.7845 42.4077C94.7473 40.4646 95.7072 38.5199 96.6671 36.5753C97.3277 35.2375 97.9918 33.9017 98.6423 32.5592C98.9002 32.0275 99.0199 31.4619 98.9617 30.8647C98.8799 30.0229 98.443 29.4082 97.7356 28.9841C97.0805 28.5911 96.357 28.5033 95.6179 28.6522C94.773 28.8224 94.2865 29.4126 93.9789 30.1725C93.308 31.8294 92.6432 33.4887 91.9783 35.1482C91.8651 35.4315 91.7643 35.72 91.6497 36.0291C91.5053 35.3912 91.3678 34.7829 91.2213 34.1458ZM106.885 40.0224C106.851 39.3992 106.816 38.7761 106.783 38.1528C106.742 37.3751 106.705 36.5972 106.662 35.8196C106.597 34.6446 106.529 33.4697 106.461 32.2948C106.427 31.7076 106.419 31.1168 106.347 30.5341C106.182 29.1954 105.09 28.0737 103.562 28.2088C102.188 28.3303 101.153 29.4173 101.17 30.7957C101.183 31.7758 101.257 32.7552 101.305 33.7349C101.364 34.9402 101.425 36.1454 101.487 37.3506C101.546 38.5023 101.604 39.6541 101.67 40.8055C101.694 41.232 101.692 41.6667 101.779 42.082C102.238 44.2951 104.46 44.693 105.837 43.7572C106.582 43.2515 106.92 42.4907 106.948 41.6065C106.964 41.091 106.911 40.5734 106.885 40.0224ZM103.841 22.4162C103.8 22.4101 103.759 22.4005 103.718 22.3983C102.737 22.3462 101.926 22.6967 101.287 23.4393C100.851 23.9468 100.594 24.5285 100.598 25.2097C100.602 25.9095 100.846 26.5193 101.287 27.0579C102.373 28.3869 104.037 28.3667 105.063 27.6365C105.989 26.9783 106.416 26.0585 106.32 24.9082C106.22 23.6939 105.076 22.5243 103.841 22.4162ZM109.455 43.0954C109.957 43.8081 110.611 44.262 111.498 44.3812C113.049 44.5894 114.516 43.3574 114.61 41.7779C114.715 39.9975 113.111 38.4993 111.248 38.8779C109.464 39.2403 108.397 41.3224 109.455 43.0954Z" fill="black"/>
<path d="M113.065 23.7478C113.065 23.7275 113.064 23.7216 113.063 23.7156C113.052 23.725 113.035 23.7322 113.03 23.7441C112.904 24.09 112.778 24.4364 112.653 24.7824C112.565 24.7824 112.483 24.7824 112.39 24.7824C112.266 24.4435 112.143 24.1056 112.02 23.7676C112.01 23.7704 111.999 23.7733 111.989 23.7761C111.989 24.1075 111.989 24.439 111.989 24.7789C111.887 24.7789 111.794 24.7789 111.687 24.7789C111.687 24.2579 111.687 23.7321 111.687 23.1807C111.8 23.1807 111.924 23.1687 112.043 23.1867C112.09 23.1938 112.148 23.2605 112.166 23.3123C112.285 23.6438 112.394 23.9788 112.521 24.3557C112.576 24.2115 112.622 24.1018 112.661 23.9899C112.715 23.8371 112.765 23.6828 112.815 23.5288C112.935 23.1575 112.935 23.1574 113.341 23.1908C113.341 23.7156 113.341 24.2415 113.341 24.7775C113.254 24.7775 113.169 24.7775 113.066 24.7775C113.066 24.4368 113.066 24.0995 113.065 23.7478Z" fill="black"/>
<path d="M111.346 23.1797C111.415 23.1824 111.467 23.1851 111.523 23.188C111.523 23.2682 111.523 23.3378 111.523 23.4241C111.365 23.4241 111.207 23.4241 111.034 23.4241C111.034 23.8827 111.034 24.3251 111.034 24.7773C110.92 24.7773 110.823 24.7773 110.709 24.7773C110.709 24.3312 110.709 23.8887 110.709 23.4296C110.536 23.4296 110.378 23.4296 110.215 23.4296C110.215 23.3432 110.215 23.2736 110.215 23.1797C110.585 23.1797 110.956 23.1797 111.346 23.1797Z" fill="black"/>
<path d="M74.1298 37.6427C73.9167 36.7391 74.0188 35.8703 74.2967 35.0133C74.5045 34.3726 74.837 33.8114 75.3599 33.3757C76.4205 32.4921 78.2657 32.8804 78.6517 34.4093C79.0701 36.0664 78.7369 37.5622 77.5155 38.7978C76.8534 39.4675 75.7642 39.5513 75.0218 39.0348C74.5394 38.6992 74.2822 38.2111 74.1298 37.6427Z" fill="black"/>
<path d="M60.2987 38.7884C59.3689 39.8006 57.8314 39.678 57.02 38.5426C56.5667 37.9082 56.3568 37.1936 56.306 36.4267C56.2521 35.611 56.3741 34.8329 56.7651 34.098C57.5269 32.6661 59.5333 32.534 60.4353 33.9989C60.9811 34.8854 61.1491 35.8501 61.0628 36.871C61.0103 37.4922 60.8231 38.0687 60.4601 38.5816C60.4121 38.6494 60.3576 38.7127 60.2987 38.7884Z" fill="black"/>
</g>
<defs>
<clipPath id="clip0_13581_215705">
<rect width="67.6615" height="27.4361" fill="white" transform="translate(49 19)"/>
</clipPath>
</defs>
</svg>
