<svg width="166" height="66" viewBox="0 0 166 66" fill="none" xmlns="http://www.w3.org/2000/svg">
<g clip-path="url(#clip0_13581_216682)">
<mask id="mask0_13581_216682" style="mask-type:luminance" maskUnits="userSpaceOnUse" x="30" y="21" width="105" height="24">
<path d="M134.57 21.9155H30.8232V44.6892H134.57V21.9155Z" fill="white"/>
</mask>
<g mask="url(#mask0_13581_216682)">
<path d="M30.8232 33.6024V24.1572H35.2381V33.1283C35.2381 35.0822 36.223 35.9411 37.714 35.9411C39.3254 35.9411 40.4889 34.8159 40.4889 32.5065V24.1572H44.8742V39.0801H40.8767V37.1263C39.9225 38.6071 38.311 39.465 36.3424 39.465C32.9715 39.465 30.8232 37.3339 30.8232 33.6024Z" fill="white"/>
<path d="M47.0225 24.1594H51.1097V25.936C52.1538 24.4855 53.9734 23.7451 55.9431 23.7451C59.4037 23.7451 61.403 25.936 61.403 29.6371V39.0822H56.9881V30.4069C56.9881 28.453 56.2717 27.4462 54.4224 27.4462C52.4232 27.4462 51.4393 28.6596 51.4393 30.7917V39.0822H47.0245V24.1594H47.0225Z" fill="white"/>
<path d="M63.7891 24.1572H68.204V39.0801H63.7891V24.1572Z" fill="white"/>
<path d="M90.3018 35.0682C90.3018 32.0782 92.9276 30.3177 97.6109 29.6371L99.9378 29.3109V28.7782C99.9378 27.6235 99.0428 27.0015 97.3129 27.0015C95.8515 27.0015 94.7769 27.4158 94.5982 28.6303H90.3916C90.3018 25.5511 93.047 23.7451 97.3721 23.7451C101.697 23.7451 104.323 25.4923 104.323 29.6077V39.0822H100.475V37.2459C99.699 38.43 98.1181 39.4661 95.5821 39.4661C92.748 39.4661 90.3018 37.9103 90.3018 35.0682ZM96.9251 36.1215C98.5957 36.1215 99.9378 35.0256 99.9378 32.6575V31.8877L98.1773 32.2128C95.6117 32.6869 94.7758 33.486 94.7758 34.5222C94.7758 35.6182 95.73 36.1215 96.9241 36.1215H96.9251Z" fill="white"/>
<path d="M121.213 34.429L125.399 34.4381C125.725 35.8815 126.615 36.3535 127.951 36.3535C129.494 36.3535 130.236 35.8825 130.236 34.9395C130.236 33.7615 129.197 33.5256 126.556 33.172C123.35 32.7304 121.569 31.2567 121.569 28.606C121.569 25.6007 124.3 23.7451 127.832 23.7451C131.365 23.7451 134.214 25.1591 134.273 28.5766H130.058C129.791 27.2213 129.019 26.7797 127.832 26.7797C126.496 26.7797 125.725 27.2811 125.725 28.1937C125.725 29.1063 126.496 29.4021 128.574 29.7545C131.81 30.2853 134.57 31.2182 134.57 34.429C134.57 37.6399 131.988 39.4661 127.951 39.4661C123.914 39.4661 121.272 37.6399 121.213 34.429Z" fill="white"/>
<path d="M81.0009 39.4658C81.3796 39.4658 84.9004 39.5256 87.3151 36.3512C88.5846 34.682 89.1244 32.6207 88.8326 30.5494C88.5408 28.477 87.4538 26.5951 85.772 25.335C82.6348 22.9851 78.2873 23.3184 75.543 25.9448C75.5461 24.9603 75.6675 24.0203 75.9319 23.0783L71.7221 21.9155C70.377 26.7115 71.9588 31.226 72.0895 31.621C71.2241 33.9415 70.9169 35.548 70.9219 40.351C70.925 43.6693 70.9219 44.6903 70.9219 44.6903H75.293C75.293 44.6903 75.1827 38.854 75.3359 37.0845C75.7176 37.4582 77.6974 39.4668 81.0009 39.4668V39.4658ZM84.088 33.9608C83.4839 34.7548 82.6052 35.2674 81.6132 35.4051C80.6213 35.5419 79.6354 35.2887 78.8353 34.69C77.9985 34.059 77.2341 33.034 76.6279 31.782C77.0228 31.0224 77.5066 30.2576 78.1005 29.4747C79.3466 27.8369 81.7041 27.5097 83.3543 28.7464C84.1534 29.3461 84.6708 30.2182 84.8096 31.2027C84.9484 32.1872 84.6922 33.1667 84.088 33.9608Z" fill="white"/>
<path d="M105.881 35.0682C105.881 32.0782 108.507 30.3177 113.19 29.6371L115.517 29.3109V28.7782C115.517 27.6235 114.622 27.0015 112.892 27.0015C111.431 27.0015 110.356 27.4158 110.177 28.6303H105.971C105.881 25.5511 108.626 23.7451 112.951 23.7451C117.276 23.7451 119.902 25.4923 119.902 29.6077V39.0822H116.054V37.2459C115.278 38.43 113.698 39.4661 111.161 39.4661C108.327 39.4661 105.881 37.9103 105.881 35.0682ZM112.503 36.1215C114.174 36.1215 115.516 35.0256 115.516 32.6575V31.8877L113.755 32.2128C111.189 32.6869 110.354 33.486 110.354 34.5222C110.354 35.6182 111.308 36.1215 112.502 36.1215H112.503Z" fill="white"/>
</g>
</g>
<defs>
<clipPath id="clip0_13581_216682">
<rect width="104" height="23.5328" fill="white" transform="translate(30.8232 21.168)"/>
</clipPath>
</defs>
</svg>
