<svg width="166" height="66" viewBox="0 0 166 66" fill="none" xmlns="http://www.w3.org/2000/svg">
<g clip-path="url(#clip0_13581_215943)">
<path d="M30.6658 34.0654C29.2534 32.9517 27.0995 32.032 24.2638 31.3311C21.9128 30.7948 20.141 30.2347 18.9944 29.6649C17.8956 29.1189 17.362 28.3898 17.362 27.4387V27.4332C17.3642 26.5611 17.8085 25.8884 18.7211 25.3771C19.6641 24.8484 20.9458 24.5798 22.5302 24.5798C24.2693 24.5798 25.6871 24.8863 26.7456 25.4908C27.791 26.0856 28.379 26.9014 28.5424 27.9847L28.5652 28.1374L28.7144 28.1721C29.187 28.2837 29.689 28.34 30.2074 28.34C30.7333 28.3194 31.2059 28.2393 31.6208 28.1028L31.7972 28.0443L31.6807 27.0216C31.3845 25.4258 30.4099 24.1085 28.7841 23.0902C27.1724 22.0827 25.049 21.5724 22.4725 21.5724C19.639 21.5724 17.3206 22.1661 15.5838 23.3371C13.8164 24.5266 12.9202 26.1441 12.9169 28.1461C12.9136 29.7462 13.5104 31.0895 14.6897 32.1382C15.8462 33.1673 17.8368 34.0535 20.6093 34.7728C23.9317 35.5117 26.0791 36.2299 26.9982 36.9092C27.9031 37.5754 28.3409 38.3543 28.3387 39.2881C28.3365 40.3411 27.8128 41.1526 26.7347 41.769C25.6359 42.3984 24.1637 42.718 22.3603 42.718C20.214 42.718 18.5207 42.3291 17.3283 41.5632C16.1544 40.8135 15.4879 39.8417 15.3464 38.6761L15.33 38.5472L15.2102 38.4951C14.73 38.2871 14.1932 38.1821 13.6149 38.1821C13.0574 38.2048 12.6 38.272 12.2069 38.3879L12 38.4486C12 38.4486 12.2929 39.6717 12.3049 39.7215V39.8244C12.5967 41.5956 13.6683 43.0257 15.4945 44.1112C17.2923 45.1815 19.687 45.7231 22.6119 45.7231C25.6599 45.7231 28.1449 45.1057 29.995 43.888C31.88 42.6552 32.8372 40.9327 32.8416 38.7714V38.7617C32.8416 36.7835 32.1098 35.2029 30.6658 34.0654Z" fill="white"/>
<path d="M56.7987 29.3232C56.7966 30.556 56.3185 31.4855 55.3384 32.1637C54.3486 32.8473 52.983 33.194 51.2842 33.194H46.017C46.0181 32.7758 46.0387 25.8858 46.0398 25.5023C46.8141 25.407 47.6068 25.3355 48.4072 25.3073L51.2799 25.2596C53.0658 25.2596 54.4531 25.6161 55.4027 26.3192C56.3424 27.0136 56.7987 27.9896 56.7987 29.3005V29.3232ZM59.1313 24.081C57.6568 22.8676 55.627 22.2523 53.0995 22.2523H40.3892L40.3838 23.1038H41.3312C41.341 23.1082 41.3737 23.1428 41.4052 23.2403C41.4368 23.3345 41.4869 23.6216 41.4869 24.51C41.4869 24.5511 41.4248 43.0458 41.4205 44.2483H40.7007V45.0977H47.1244V44.2483H46.1084C46.1063 44.2483 46.0769 44.2288 46.0496 44.1324C46.0235 44.0457 45.9821 43.7684 45.9821 42.8757C45.9821 42.8335 46.0039 36.5068 46.0061 36.0843H52.1325C54.8996 36.0843 57.1461 35.469 58.8089 34.2535C60.4946 33.0185 61.3517 31.2917 61.3571 29.1207V29.0827C61.3571 26.9811 60.6079 25.2986 59.1313 24.081Z" fill="white"/>
<path d="M80.0018 35.546H72.1178C72.3726 34.9783 75.7919 27.369 76.1654 26.537C76.5226 27.3755 79.7634 34.9848 80.0018 35.546ZM88.7179 44.2592C88.7179 44.2559 88.622 44.2083 88.4717 43.8844C88.4717 43.8844 79.1829 23.3238 79.0011 22.9186C78.9978 22.9089 78.9956 22.8992 78.9913 22.8807C79.11 22.8168 79.2755 22.7031 79.2755 22.5059V22.3174L79.0893 22.2827C78.6265 22.1961 78.0983 22.1397 77.5201 22.117L77.0682 22.0844C77.0377 22.0844 74.9981 22.2502 74.9981 22.2502L74.8663 22.261L74.8151 22.3802L64.8065 43.7858C64.6813 44.087 64.616 44.2093 64.5844 44.2592C64.4918 44.2613 64.1553 44.2744 64.1553 44.2744L63.9364 44.283L63.9277 44.5008V45.127H69.3061V44.2744H68.362C68.3652 44.1823 68.387 44.023 68.4807 43.7219C68.4818 43.7219 70.4789 39.2401 70.8372 38.4363H81.1801C81.2922 38.6963 83.652 44.1661 83.6988 44.2744C83.5235 44.2744 82.9551 44.2744 82.9551 44.2744V45.127H89.5716V44.2798C89.5716 44.2798 88.7189 44.2592 88.7179 44.2592Z" fill="white"/>
<path d="M113.617 23.0471H114.596C114.609 23.0471 114.648 23.0807 114.69 23.1858C114.727 23.2757 114.786 23.5671 114.78 24.5399C114.78 24.5399 114.687 37.7068 114.679 38.8411C113.926 37.9473 100.677 22.2281 100.677 22.2281H95.1746L95.167 23.0807H96.1863C96.2723 23.0807 96.3594 23.1555 96.4465 23.3028C96.5543 23.4881 96.6088 23.6506 96.6088 23.7849C96.6088 23.7871 96.4738 42.9989 96.465 44.2242H95.7104L95.7039 45.0724H101.129L101.131 44.2242H99.99C99.99 44.2242 99.953 44.2035 99.9149 44.0876C99.8855 43.9977 99.8386 43.7161 99.8386 42.8396C99.8386 42.7822 99.8386 42.7226 99.8386 42.6598C99.8386 42.6598 99.9214 30.7919 99.941 27.9589C100.693 28.8332 114.644 45.0496 114.644 45.0496L114.716 45.0669C115.186 45.1785 115.675 45.2446 116.207 45.2695H116.21C116.751 45.2695 117.289 45.2132 117.818 45.1016L117.999 45.0648C117.999 45.0648 118.152 23.2519 118.153 23.0493C118.171 23.0482 118.19 23.0471 118.19 23.0471H118.876V22.1978H113.623L113.617 23.0471Z" fill="white"/>
<path d="M142.728 45.0981H149.786L149.76 44.2542L149.031 44.2347C149.031 44.2326 148.958 44.1979 148.783 43.9769C148.783 43.9769 141.075 34.241 140.062 32.9627C140.287 32.6886 148.017 23.2831 148.017 23.2831C148.015 23.2853 148.09 23.1986 148.149 23.1314C148.286 23.1249 148.888 23.0924 148.888 23.0924L148.89 22.2528H143.308L143.304 23.0935C143.304 23.0935 143.938 23.1227 144.127 23.1303C144.091 23.2072 144.052 23.2907 144.052 23.2918C144.047 23.2918 141.015 27.0672 141.015 27.0672C141.015 27.0672 138.647 29.8697 137.978 30.6627C137.66 30.2565 132.388 23.5279 132.07 23.1216C132.275 23.113 132.718 23.0946 132.718 23.0946L132.728 22.8769V22.2528H125.858V23.1043H126.645C126.644 23.1043 126.644 23.1043 126.644 23.1043C126.644 23.1086 126.719 23.152 126.852 23.3578C126.864 23.3752 133.898 32.2411 134.856 33.4469C134.629 33.721 126.147 44.0387 126.147 44.0387C126.146 44.0387 126.039 44.1632 125.965 44.2488H125.336V45.0981H131.081V44.2488H130.172C130.179 44.1806 130.185 44.0972 130.191 44.0387C131.321 42.5751 132.453 41.1537 133.558 39.8147C133.558 39.8136 136.177 36.712 136.884 35.8735C137.208 36.2798 143.297 43.9228 143.556 44.2478C143.311 44.2478 142.728 44.2488 142.728 44.2488V45.0981Z" fill="white"/>
<path d="M151.895 20.8758V21.4705H152.183C152.492 21.4705 152.638 21.3969 152.638 21.1856C152.638 20.9657 152.492 20.8758 152.172 20.8758H151.895ZM152.987 21.1499C152.987 21.4034 152.836 21.5799 152.577 21.633L152.979 22.4542H152.599L152.23 21.6872H151.895V22.4542H151.552V20.6569H152.235C152.741 20.6569 152.987 20.8238 152.987 21.1499ZM153.18 20.6169C152.917 20.3482 152.577 20.2074 152.196 20.2074C151.821 20.2074 151.483 20.3439 151.23 20.5995C150.962 20.8725 150.81 21.2257 150.81 21.5853C150.81 21.9461 150.957 22.2863 151.217 22.5495C151.479 22.8149 151.827 22.959 152.183 22.959C152.559 22.959 152.897 22.8193 153.173 22.5549C153.434 22.3025 153.576 21.9656 153.576 21.5984C153.576 21.2159 153.437 20.8725 153.18 20.6169ZM153.327 20.4728C153.621 20.7674 153.787 21.1617 153.787 21.5853C153.787 22.0219 153.626 22.4076 153.323 22.699C153.01 23.0045 152.608 23.1714 152.192 23.1714C151.765 23.1714 151.372 23.0046 151.067 22.6947C150.767 22.3914 150.601 22.0046 150.601 21.5853C150.601 21.1672 150.775 20.761 151.085 20.449C151.378 20.1543 151.76 19.9993 152.192 19.9993C152.624 19.9993 153.024 20.1619 153.327 20.4728Z" fill="white"/>
</g>
<defs>
<clipPath id="clip0_13581_215943">
<rect width="142" height="26" fill="white" transform="translate(12 20)"/>
</clipPath>
</defs>
</svg>
