<svg width="166" height="66" viewBox="0 0 166 66" fill="none" xmlns="http://www.w3.org/2000/svg">
<path d="M108.457 22.0039H104.211V44.4856H108.457V22.0039Z" fill="white"/>
<path d="M102.556 33.8135C102.273 32.6688 101.816 31.6386 101.184 30.7228C100.553 29.83 99.7472 29.0974 98.7674 28.5708C97.7877 28.0443 96.6337 27.7695 95.3273 27.7695C94.1516 27.7695 93.0847 27.9985 92.105 28.4334C91.147 28.8684 90.2978 29.4866 89.6011 30.2421C88.9044 30.9975 88.3601 31.9133 87.9899 32.9664C87.6198 34.0195 87.4238 35.1413 87.4238 36.3547C87.4238 37.6138 87.598 38.7585 87.9681 39.8116C88.3383 40.8647 88.8608 41.7576 89.5358 42.5131C90.2107 43.2686 91.0381 43.8409 92.0179 44.253C92.9977 44.6651 94.0863 44.8712 95.3056 44.8712C97.0692 44.8712 98.5497 44.4591 99.7908 43.612C101.032 42.7649 101.946 41.3684 102.556 39.4224H98.811C98.6803 39.9261 98.2884 40.4069 97.6788 40.8647C97.0692 41.3226 96.3289 41.5516 95.458 41.5516C94.2605 41.5516 93.346 41.231 92.6928 40.5671C92.0614 39.9032 91.7131 38.873 91.6477 37.4078H102.817C102.948 36.1715 102.839 34.9582 102.556 33.8135ZM91.6913 34.5919C91.7131 34.2714 91.7784 33.9279 91.8872 33.5159C91.9961 33.1267 92.1921 32.7375 92.4533 32.3712C92.7146 32.0049 93.0847 31.7073 93.5202 31.4783C93.9774 31.2265 94.5435 31.112 95.2185 31.112C96.2636 31.112 97.0256 31.4096 97.5482 31.982C98.0489 32.5772 98.4191 33.4243 98.615 34.569L91.6913 34.5919Z" fill="white"/>
<path d="M82.0902 44.4845V42.218H82.0031C81.4588 43.1566 80.762 43.8435 79.9129 44.2555C79.0638 44.6676 78.1711 44.8966 77.2784 44.8966C76.1462 44.8966 75.21 44.7363 74.4697 44.4158C73.7512 44.0953 73.1633 43.6603 72.7497 43.088C72.336 42.5156 72.0312 41.8059 71.857 40.9817C71.6828 40.1576 71.5957 39.2418 71.5957 38.2345V28.207H75.8414V37.4103C75.8414 38.761 76.0373 39.7455 76.451 40.4094C76.8429 41.0733 77.5614 41.3938 78.5848 41.3938C79.7387 41.3938 80.5878 41.0275 81.1104 40.3178C81.6329 39.5852 81.8942 38.3947 81.8942 36.7464V28.207H86.1399V44.4845H82.0902Z" fill="white"/>
<path d="M56.7029 22V30.6309H65.3467V22H70.0496V44.4817H65.3467V34.7747H56.7029V44.4817H52V22H56.7029Z" fill="white"/>
<path d="M112.416 23.7856C112.438 23.8313 112.46 23.9 112.46 23.9916C112.46 24.1061 112.438 24.1976 112.416 24.2205C112.351 24.3808 112.09 24.3579 112.09 24.3579H111.785V23.6482H112.133C112.199 23.6482 112.373 23.6711 112.416 23.7856ZM113.135 23.8542C113.135 23.4422 112.917 23.2819 112.656 23.2132C112.416 23.1445 112.133 23.1445 112.133 23.1445H111.785H111.48H111.132V25.8689H111.785V24.8158H111.916C112.046 24.8387 112.242 24.8616 112.329 24.9989C112.46 25.1821 112.765 25.8689 112.765 25.8689H113.462C113.462 25.8689 113.244 25.3652 113.135 25.1363C113.026 24.9073 112.895 24.6555 112.721 24.6097C112.699 24.6097 112.678 24.6097 112.656 24.6097C112.721 24.5868 112.808 24.5182 112.895 24.4953C113.026 24.4037 113.135 24.2663 113.135 23.8542Z" fill="white"/>
<path d="M114.246 24.587C114.246 25.1822 114.05 25.6859 113.658 26.1209C113.266 26.533 112.787 26.7619 112.221 26.7619C111.655 26.7619 111.176 26.5559 110.784 26.1438C110.392 25.7317 110.196 25.2051 110.196 24.6099C110.196 24.0375 110.392 23.5339 110.784 23.0989C111.176 22.6639 111.655 22.4579 112.221 22.4579C112.787 22.4579 113.266 22.6639 113.658 23.0989C114.05 23.511 114.246 24.0146 114.246 24.587ZM114.681 24.587C114.681 23.8773 114.442 23.2592 113.963 22.7555C113.484 22.2518 112.896 22 112.221 22C111.568 22 111.002 22.2289 110.523 22.7097C110 23.2134 109.761 23.8315 109.761 24.587C109.761 25.3196 110 25.9377 110.479 26.4185C110.958 26.9222 111.546 27.174 112.221 27.174C112.896 27.174 113.462 26.9222 113.941 26.4414C114.442 25.9377 114.681 25.3196 114.681 24.587Z" fill="white"/>
</svg>
