<svg width="166" height="66" viewBox="0 0 166 66" fill="none" xmlns="http://www.w3.org/2000/svg">
<g clip-path="url(#clip0_13581_216418)">
<mask id="mask0_13581_216418" style="mask-type:luminance" maskUnits="userSpaceOnUse" x="33" y="22" width="100" height="21">
<path d="M132.53 22.4717H33.0322V42.8199H132.53V22.4717Z" fill="white"/>
</mask>
<g mask="url(#mask0_13581_216418)">
<path d="M46.1462 42.3342L45.403 39.9842H38.5457L37.8022 42.3342H33.04L39.9242 22.9834H44.0272L50.9939 42.3342H46.1462ZM41.9895 28.5115L39.6213 36.4734H44.3026L41.9895 28.5115Z" fill="white"/>
<path d="M51.5244 22.9834H56.0403V42.3342H51.5244V22.9834Z" fill="white"/>
<path d="M57.2584 38.3837C57.4611 37.4283 57.8194 36.513 58.3185 35.6745C58.7526 34.9659 59.2965 34.3314 59.9295 33.7946C60.5762 33.256 61.2619 32.7664 61.9808 32.3298C62.5497 31.9978 63.0774 31.6798 63.5642 31.376C64.0131 31.0993 64.441 30.7898 64.8445 30.45C65.1931 30.1592 65.4869 29.808 65.7121 29.4132C65.9271 29.0196 66.0362 28.5765 66.0287 28.1277C66.0287 27.3537 65.8176 26.7962 65.3955 26.4552C64.9479 26.106 64.3925 25.925 63.8259 25.9437C63.181 25.9242 62.5539 26.1572 62.0772 26.5935C61.6091 27.0267 61.3751 27.7501 61.3751 28.7637H56.9415C56.9336 27.9217 57.088 27.0861 57.3961 26.3029C57.6916 25.5578 58.1476 24.8876 58.7314 24.3401C59.3531 23.7665 60.0836 23.3246 60.8793 23.0409C61.8166 22.7122 62.8046 22.553 63.7973 22.5707C64.6492 22.5667 65.4974 22.6831 66.317 22.9164C67.0793 23.1288 67.7943 23.4853 68.4235 23.9669C69.0418 24.4523 69.537 25.0774 69.8691 25.7914C70.2442 26.6195 70.4277 27.5221 70.406 28.4315C70.4159 29.2008 70.2362 29.9606 69.8828 30.6433C69.5444 31.2926 69.113 31.8887 68.6023 32.4125C68.1038 32.9231 67.555 33.3818 66.9642 33.7811C66.3761 34.1776 65.8437 34.5139 65.3669 34.7901C64.7055 35.2325 64.1593 35.6149 63.7285 35.9376C63.3587 36.2059 63.0132 36.5065 62.696 36.8357C62.4587 37.0802 62.2756 37.3723 62.1588 37.6929C62.0525 38.0231 62.0014 38.3687 62.0074 38.7157H70.2686V42.3372H56.8866C56.863 41.0095 56.9877 39.6834 57.2584 38.3837Z" fill="white"/>
<path d="M71.1182 26.3837C71.8898 26.3995 72.6608 26.3299 73.4172 26.1763C73.9226 26.08 74.3987 25.8671 74.808 25.5544C75.1364 25.2808 75.3761 24.915 75.4963 24.5038C75.634 24.0092 75.6988 23.4969 75.6889 22.9834H79.6282V42.3363H75.0849V29.5362H71.1182V26.3837Z" fill="white"/>
<path d="M84.7393 22.9834H88.9517V42.3342H84.7393V22.9834Z" fill="white"/>
<path d="M104.506 29.0033V42.3286H100.293V40.4481C100.12 40.7717 99.8973 41.0656 99.6322 41.3188C99.3489 41.592 99.0293 41.8246 98.6824 42.0099C98.3105 42.2084 97.918 42.3655 97.512 42.4786C97.1 42.5967 96.6738 42.6571 96.2453 42.6581C95.3405 42.6686 94.4439 42.4847 93.6156 42.1191C92.8396 41.7761 92.1416 41.2777 91.5643 40.6543C90.9808 40.0132 90.5313 39.2611 90.2425 38.4426C89.6184 36.6433 89.6184 34.6851 90.2425 32.8858C90.5313 32.0672 90.9808 31.3151 91.5643 30.674C92.1416 30.0506 92.8396 29.5522 93.6156 29.2092C94.4442 28.8439 95.341 28.6605 96.2459 28.6714C96.6744 28.6723 97.1006 28.7328 97.5126 28.8509C97.9205 28.9651 98.3134 29.1275 98.683 29.3349C99.0308 29.5298 99.3503 29.7716 99.6328 30.0535C99.8909 30.3076 100.113 30.5959 100.294 30.9104V29.0033H104.506ZM97.1265 39.0662C97.5731 39.073 98.0155 38.9786 98.4207 38.79C98.7961 38.6136 99.1331 38.3647 99.4128 38.0576C99.6948 37.7427 99.9144 37.3767 100.06 36.9793C100.217 36.5595 100.296 36.1145 100.293 35.6662C100.3 34.792 99.9863 33.946 99.4122 33.2886C99.1356 32.9746 98.798 32.7206 98.4201 32.5421C98.0128 32.36 97.5719 32.2659 97.1259 32.2659C96.68 32.2659 96.2392 32.36 95.8319 32.5421C95.454 32.7207 95.1164 32.9746 94.8398 33.2886C94.2659 33.9461 93.9525 34.7921 93.9588 35.6662C93.9562 36.1146 94.0353 36.5596 94.1922 36.9793C94.3377 37.3767 94.5573 37.7426 94.8391 38.0576C95.1188 38.3646 95.456 38.6135 95.8312 38.79C96.2368 38.9789 96.6796 39.0733 97.1265 39.0662Z" fill="white"/>
<path d="M109.628 42.3342H105.415V22.9834H109.628V30.9163C109.809 30.6018 110.031 30.3135 110.289 30.0594C110.575 29.7752 110.899 29.5332 111.252 29.3408C111.623 29.1365 112.016 28.9742 112.423 28.8568C112.839 28.7368 113.27 28.6763 113.703 28.6773C114.608 28.6669 115.504 28.8507 116.333 29.2163C117.109 29.5593 117.807 30.0577 118.384 30.6811C118.967 31.3224 119.417 32.0744 119.706 32.8929C120.33 34.6921 120.33 36.6503 119.706 38.4496C119.417 39.2681 118.967 40.0202 118.384 40.6614C117.807 41.2848 117.109 41.7832 116.333 42.1262C115.504 42.4918 114.608 42.6755 113.703 42.6653C113.27 42.6662 112.839 42.6057 112.423 42.4857C112.018 42.3695 111.626 42.2125 111.252 42.017C110.9 41.8342 110.576 41.6014 110.289 41.3258C110.024 41.0727 109.801 40.7788 109.628 40.4552V42.3342ZM112.823 39.0719C113.26 39.0767 113.693 38.9823 114.089 38.7956C114.465 38.6192 114.802 38.3704 115.082 38.0632C115.363 37.7483 115.583 37.3823 115.729 36.9848C115.885 36.565 115.964 36.1201 115.962 35.6718C115.969 34.7977 115.655 33.9515 115.081 33.2942C114.804 32.9801 114.467 32.7261 114.089 32.5478C113.693 32.3609 113.26 32.266 112.823 32.2701C112.372 32.2645 111.925 32.3588 111.515 32.5463C111.132 32.7221 110.789 32.9763 110.51 33.2928C109.936 33.9501 109.622 34.7962 109.629 35.6703C109.626 36.1186 109.705 36.5636 109.862 36.9834C110.007 37.3809 110.227 37.7469 110.509 38.0618C110.792 38.3713 111.134 38.6204 111.514 38.7942C111.925 38.9825 112.371 39.0773 112.823 39.0719Z" fill="white"/>
<path d="M128.089 34.4828C128.677 34.6486 129.227 34.8283 129.741 35.0218C130.222 35.1976 130.676 35.4396 131.091 35.7408C131.472 36.0228 131.787 36.3862 132.013 36.8051C132.259 37.3024 132.377 37.8535 132.357 38.4084C132.38 39.1063 132.218 39.7978 131.889 40.4128C131.576 40.9577 131.131 41.4142 130.595 41.7399C130.006 42.096 129.357 42.3439 128.681 42.4722C127.915 42.6234 127.136 42.6974 126.354 42.6931C124.464 42.6931 122.972 42.2786 121.88 41.4492C120.787 40.6199 120.462 39.4311 120.462 37.8828H124.372C124.372 38.5836 124.569 39.0858 124.965 39.3895C125.409 39.7091 125.947 39.8698 126.492 39.8456C126.929 39.8645 127.361 39.7642 127.745 39.5556C127.905 39.4565 128.034 39.3151 128.119 39.1467C128.205 38.9784 128.241 38.7899 128.227 38.6017C128.238 38.3759 128.165 38.154 128.02 37.9798C127.84 37.7926 127.625 37.6423 127.387 37.5374C127.031 37.3719 126.663 37.2333 126.286 37.1227C125.836 36.9844 125.299 36.8139 124.675 36.6114C124.124 36.4454 123.601 36.2657 123.106 36.0723C122.64 35.8956 122.201 35.6586 121.797 35.3672C121.422 35.0918 121.115 34.7321 120.903 34.3167C120.666 33.8166 120.552 33.2665 120.572 32.7131C120.572 31.3309 121.1 30.3081 122.156 29.6447C123.211 28.9812 124.638 28.6492 126.437 28.6486C127.29 28.6343 128.14 28.7509 128.957 28.9943C129.612 29.187 130.221 29.5114 130.747 29.9479C131.204 30.3398 131.567 30.8316 131.807 31.3857C132.047 31.9443 132.169 32.5466 132.165 33.1549H128.007C128.036 32.687 127.883 32.2261 127.58 31.8694C127.405 31.7062 127.199 31.5814 126.974 31.5028C126.749 31.4244 126.509 31.3938 126.272 31.4132C125.885 31.4038 125.503 31.5044 125.171 31.7036C125.019 31.7963 124.895 31.929 124.812 32.0874C124.729 32.2457 124.691 32.4236 124.703 32.6021C124.695 32.8216 124.774 33.0353 124.923 33.1964C125.109 33.3799 125.329 33.5255 125.57 33.6251C125.915 33.7764 126.269 33.9056 126.63 34.012C127.052 34.1419 127.538 34.2989 128.089 34.4828Z" fill="white"/>
</g>
</g>
<defs>
<clipPath id="clip0_13581_216418">
<rect width="99.9718" height="21.2329" fill="white" transform="translate(33.0283 22.2803)"/>
</clipPath>
</defs>
</svg>
