<svg width="166" height="66" viewBox="0 0 166 66" fill="none" xmlns="http://www.w3.org/2000/svg">
<g clip-path="url(#clip0_13581_216678)">
<path d="M64.5802 43.9397L62.8881 48.8465H61.4339L59.7419 43.9397H60.9787L62.1611 47.6443L63.3503 43.9397H64.5802H64.5802ZM72.3438 44.8973V45.8899H73.8998V46.8125H72.3438V47.8889H74.1036V48.8465H71.1816V43.9397H74.1036V44.8973H72.3438ZM84.1405 45.4914C84.0579 45.3317 83.9271 45.2021 83.7667 45.1209C83.6082 45.0323 83.4202 44.9881 83.2028 44.9881C82.8268 44.9881 82.5256 45.1163 82.2991 45.3726C82.0725 45.6241 81.9592 45.9621 81.9592 46.3861C81.9592 46.838 82.0771 47.1921 82.3127 47.4484C82.5527 47.7001 82.8812 47.826 83.298 47.826C83.5834 47.826 83.8235 47.7514 84.0183 47.6023C84.2177 47.4533 84.3626 47.2388 84.4532 46.9593H82.9786V46.0785H85.5065V47.1898C85.4205 47.4882 85.2733 47.7654 85.0649 48.0218C84.8609 48.2779 84.6004 48.4854 84.2834 48.6437C83.9663 48.802 83.6083 48.8814 83.2095 48.8814C82.7384 48.8814 82.317 48.7767 81.9456 48.5668C81.5787 48.3526 81.291 48.0565 81.0826 47.6792C80.8789 47.3016 80.7769 46.8707 80.7769 46.3861C80.7769 45.9016 80.8789 45.4704 81.0826 45.0929C81.291 44.7109 81.5787 44.415 81.9456 44.2052C82.3126 43.991 82.7317 43.8838 83.2028 43.8838C83.7737 43.8838 84.2538 44.0257 84.6435 44.3101C85.0376 44.5943 85.2981 44.9882 85.4248 45.4914H84.1406H84.1405ZM95.2356 47.9797H93.4552L93.1698 48.8464H91.9534L93.6793 43.9397H95.0249L96.7508 48.8464H95.5209L95.2356 47.9797ZM94.9366 47.0571L94.3454 45.2608L93.7609 47.0571H94.9366ZM105.118 48.8954C104.769 48.8954 104.457 48.8372 104.18 48.7205C103.904 48.6039 103.682 48.4318 103.514 48.2033C103.351 47.975 103.265 47.7001 103.256 47.3787H104.493C104.511 47.5602 104.572 47.7001 104.676 47.7979C104.781 47.8911 104.916 47.9378 105.084 47.9378C105.256 47.9378 105.392 47.8982 105.492 47.819C105.591 47.7351 105.641 47.621 105.641 47.4764C105.641 47.3552 105.601 47.2551 105.519 47.1759C105.442 47.0966 105.345 47.0315 105.227 46.9801C105.114 46.9288 104.95 46.8706 104.738 46.8053C104.429 46.7075 104.178 46.6097 103.983 46.5119C103.788 46.4142 103.621 46.2694 103.48 46.0784C103.34 45.8875 103.27 45.6381 103.27 45.3305C103.27 44.874 103.431 44.5174 103.752 44.261C104.074 44.0001 104.493 43.8697 105.009 43.8697C105.535 43.8697 105.959 44.0001 106.28 44.261C106.602 44.5174 106.774 44.8763 106.797 45.3376H105.54C105.53 45.179 105.474 45.0555 105.369 44.9671C105.265 44.8739 105.132 44.8272 104.969 44.8272C104.828 44.8272 104.715 44.8668 104.629 44.946C104.543 45.0207 104.5 45.13 104.5 45.2745C104.5 45.433 104.572 45.5566 104.717 45.645C104.862 45.7333 105.089 45.829 105.397 45.9317C105.705 46.0389 105.954 46.1413 106.144 46.2393C106.339 46.3371 106.507 46.4793 106.647 46.6656C106.788 46.852 106.858 47.092 106.858 47.3855C106.858 47.6651 106.788 47.9191 106.647 48.1474C106.511 48.3758 106.312 48.5576 106.049 48.6926C105.786 48.8277 105.476 48.8953 105.118 48.8953L105.118 48.8954ZM71.7004 18.7413C71.729 18.7413 71.7572 18.7479 71.7828 18.7605C71.8085 18.7731 71.8309 18.7914 71.8483 18.814C71.8657 18.8367 71.8778 18.863 71.8834 18.891C71.8891 18.919 71.8883 18.9479 71.881 18.9755L67.1039 37.0301C67.0823 37.1119 67.0082 37.1689 66.9235 37.1689C65.5417 37.1686 64.496 37.1647 63.6667 37.0653C62.8046 36.9619 62.181 36.7557 61.6601 36.3461L61.6448 36.334L61.6444 36.3338C61.1255 35.9216 60.7809 35.3626 60.481 34.5478C60.1807 33.732 59.9267 32.6637 59.5871 31.2351L58.2015 25.4056C58.1919 25.3653 58.1559 25.3368 58.1144 25.3366C58.073 25.3364 58.0368 25.3647 58.0268 25.405L55.1703 37.0269C55.1498 37.1103 55.075 37.1689 54.9891 37.1689C53.5788 37.1689 52.5204 37.1676 51.6845 37.0685C50.8396 36.9684 50.2263 36.7686 49.7101 36.3719C49.1939 35.9751 48.8432 35.4339 48.529 34.6432C48.2144 33.8516 47.9379 32.8137 47.5682 31.4256L44.2523 18.9758C44.245 18.9482 44.2441 18.9192 44.2498 18.8912C44.2554 18.8632 44.2674 18.8368 44.2848 18.8142C44.3023 18.7915 44.3247 18.7732 44.3503 18.7605C44.3759 18.7479 44.4042 18.7413 44.4327 18.7413C45.4012 18.7418 46.1457 18.7466 46.7509 18.8014C47.414 18.8614 47.9053 18.9812 48.3367 19.2187C48.7567 19.4501 49.1297 19.7579 49.4366 20.1263C49.7517 20.5046 49.9626 20.9642 50.1475 21.6038C50.3326 22.244 50.4909 23.0615 50.7026 24.1548L52.1684 31.7265C52.172 31.7453 52.182 31.7624 52.1967 31.7747C52.2114 31.787 52.2299 31.794 52.2491 31.7943C52.2683 31.7946 52.287 31.7883 52.3021 31.7765C52.3172 31.7647 52.3278 31.748 52.3321 31.7293L54.6707 21.5769C54.8585 20.7616 54.9511 20.3613 55.131 20.0418C55.4571 19.4625 55.9964 19.0331 56.6343 18.8452C56.9862 18.7416 57.3972 18.7413 58.2336 18.7413C59.0674 18.7413 59.477 18.7416 59.828 18.8448C60.4644 19.0317 61.0029 19.4589 61.3298 20.0358C61.5101 20.354 61.6037 20.7527 61.7937 21.5647L64.1565 31.6634C64.1656 31.702 64.2003 31.729 64.24 31.7282C64.2796 31.7274 64.3132 31.699 64.3207 31.6601L65.8234 23.8379C66.0037 22.8998 66.1383 22.1983 66.2901 21.6445C66.4417 21.0913 66.6096 20.6883 66.8547 20.3466C67.2427 19.8057 67.7643 19.3746 68.3686 19.0956C68.7506 18.9193 69.178 18.8304 69.7499 18.7859C70.2631 18.7459 70.8896 18.7418 71.7004 18.7413ZM121.957 18.7413C121.986 18.7413 122.014 18.7479 122.04 18.7605C122.065 18.7731 122.088 18.7914 122.105 18.814C122.123 18.8366 122.135 18.863 122.14 18.891C122.146 18.919 122.145 18.9479 122.138 18.9755L117.361 37.03C117.339 37.1118 117.265 37.1688 117.18 37.1688C115.799 37.1686 114.753 37.1647 113.924 37.0652C113.061 36.9618 112.438 36.7556 111.917 36.346L111.902 36.334L111.901 36.3337C111.382 35.9215 111.038 35.3626 110.738 34.5477C110.438 33.732 110.184 32.6637 109.844 31.235L108.459 25.4056C108.449 25.3652 108.413 25.3367 108.371 25.3365C108.33 25.3364 108.294 25.3647 108.284 25.4049L105.427 37.0269C105.417 37.0673 105.394 37.1033 105.361 37.1291C105.328 37.1548 105.288 37.1688 105.246 37.1688C103.836 37.1688 102.777 37.1676 101.941 37.0685C101.097 36.9683 100.483 36.7685 99.967 36.3718C99.4508 35.9751 99.1001 35.4339 98.786 34.6432C98.4712 33.8515 98.1948 32.8136 97.825 31.4255L94.5091 18.9758C94.4777 18.8574 94.5671 18.7413 94.6896 18.7413C95.6581 18.7417 96.4025 18.7466 97.0077 18.8014C97.6709 18.8614 98.1621 18.9811 98.5935 19.2187C99.0135 19.45 99.3866 19.7578 99.6935 20.1262C100.009 20.5045 100.22 20.9641 100.404 21.6037C100.59 22.2439 100.748 23.0615 100.96 24.1548L102.425 31.7264C102.433 31.7652 102.466 31.7935 102.506 31.7942C102.546 31.7949 102.58 31.7679 102.589 31.7293L104.928 21.5769C105.115 20.7615 105.208 20.3612 105.388 20.0417C105.714 19.4624 106.253 19.0331 106.891 18.8452C107.243 18.7415 107.654 18.7412 108.491 18.7412C109.324 18.7412 109.734 18.7415 110.085 18.8447C110.721 19.0315 111.26 19.4587 111.587 20.0357C111.767 20.354 111.861 20.7526 112.051 21.5646L114.413 31.6634C114.422 31.7019 114.457 31.7289 114.497 31.7281C114.537 31.7273 114.57 31.699 114.578 31.6601L116.08 23.8378C116.261 22.8997 116.395 22.1982 116.547 21.6445C116.699 21.0912 116.867 20.6882 117.112 20.3465C117.5 19.8056 118.021 19.3745 118.625 19.0955C119.007 18.9192 119.435 18.8304 120.007 18.7858C120.52 18.7458 121.147 18.7417 121.957 18.7412V18.7413Z" fill="white"/>
<path d="M83.7778 17.0664C77.7206 17.1727 72.3066 21.8802 72.3066 27.9523C72.3066 34.1625 77.4582 38.8444 83.2658 38.8444C89.8384 38.8444 94.4284 33.2641 94.0643 27.9381C93.7023 22.6403 89.3521 18.4782 84.8497 18.7298C80.3289 18.9824 78.2652 23.1601 79.1872 26.4644C79.5545 27.7806 80.2914 28.7178 81.0763 29.2428C81.8469 29.7585 82.7188 29.9046 83.3043 29.5123C83.4079 29.4428 83.4276 29.2994 83.3468 29.2049C82.2223 27.893 82.1425 26.4707 82.6635 25.3817C83.1881 24.2857 84.3285 23.5095 85.689 23.5095C88.4288 23.5095 89.9112 25.844 89.8335 27.8789C89.795 28.8875 89.2815 30.2843 88.2398 31.4282C87.2034 32.566 85.6492 33.4486 83.5257 33.4486C81.4134 33.4486 79.7929 32.4357 78.6673 31.01C77.5386 29.5799 76.9148 27.7408 76.8097 26.1227C76.6026 22.9324 78.7381 18.2874 83.8059 17.5086C83.9221 17.4908 84.0083 17.3884 84.0006 17.2719C83.9929 17.1554 83.8953 17.0645 83.7778 17.0666V17.0664Z" fill="white"/>
</g>
<defs>
<clipPath id="clip0_13581_216678">
<rect width="78.7692" height="32" fill="white" transform="translate(44 17)"/>
</clipPath>
</defs>
</svg>
