<svg width="166" height="66" viewBox="0 0 166 66" fill="none" xmlns="http://www.w3.org/2000/svg">
<g clip-path="url(#clip0_13581_216615)">
<path d="M50.5642 47.8977C45.7225 47.8977 41.2226 44.9927 39.1721 40.6068C38.8303 39.8663 39.1721 39.0119 39.9126 38.6131C40.653 38.2714 41.5074 38.6131 41.9062 39.3536C43.4441 42.7143 46.8617 44.9358 50.6211 44.9358C55.9185 44.9358 60.1905 40.6068 60.1905 35.3664C60.1905 33.8285 59.6209 32.1766 58.7095 31.1513C58.1969 30.5247 58.2539 29.6134 58.8804 29.0438C59.507 28.4742 60.4184 28.5881 60.988 29.2146C62.355 30.8095 63.1525 33.088 63.1525 35.3664C63.0955 42.3156 57.4564 47.8977 50.5642 47.8977Z" fill="white"/>
<path d="M50.5041 42.2589C48.5105 42.2589 46.6877 41.4614 45.0359 39.8665C44.4093 39.2969 44.4093 38.3855 44.9789 37.759C45.5485 37.1324 46.4599 37.1324 47.0865 37.702C48.2826 38.8982 49.4788 39.3539 50.7889 39.24C51.8142 39.183 52.7825 38.6704 53.4661 37.8729C54.1496 37.0755 54.4913 36.1071 54.4344 35.0249C54.3774 33.6578 53.2382 32.5756 51.0168 31.4364C50.2763 31.0946 49.9915 30.1832 50.3332 29.4427C50.675 28.7023 51.5864 28.4174 52.3268 28.7592C53.58 29.3288 57.1685 31.0946 57.4533 34.797C57.6242 38.6134 54.7192 41.9171 50.9598 42.2019C50.7889 42.2589 50.618 42.2589 50.5041 42.2589Z" fill="white"/>
<path d="M42.4176 36.8443C42.0759 36.8443 41.6771 36.7304 41.4493 36.5026C40.0253 35.1925 39 32.5723 39 30.2369C39 23.3447 44.6391 17.7056 51.5313 17.7056C56.4299 17.7056 60.9298 20.6106 62.9804 24.9965C63.3222 25.737 62.9804 26.5914 62.2399 26.9901C61.4994 27.3319 60.645 26.9901 60.2463 26.2497C58.7084 22.889 55.2907 20.6675 51.5313 20.6675C46.234 20.6675 41.9619 24.9396 41.9619 30.2369C41.9619 31.7179 42.6455 33.4836 43.4429 34.2811C44.0695 34.8507 44.0695 35.7621 43.4999 36.3886C43.2151 36.7304 42.8733 36.8443 42.4176 36.8443Z" fill="white"/>
<path d="M50.5053 37.0122C50.3344 37.0122 50.0496 36.9552 49.8787 36.8983C45.6636 34.8477 44.6953 32.2275 44.6953 30.3478C44.6953 28.5251 45.3788 26.7593 46.6889 25.5061C47.999 24.1961 49.7078 23.4556 51.5306 23.4556C53.6381 23.4556 55.3469 24.1961 56.9988 25.7909C57.5684 26.3606 57.6254 27.2719 56.9988 27.8985C56.4292 28.4681 55.5178 28.5251 54.8913 27.8985C53.809 26.8162 52.8407 26.3036 51.5306 26.3036C50.5053 26.3036 49.48 26.7593 48.7395 27.4998C47.999 28.2403 47.5433 29.2086 47.5433 30.2908C47.5433 31.8288 48.7395 33.1389 50.961 34.2211C51.7015 34.5629 51.9863 35.4742 51.6445 36.2147C51.5875 36.7274 51.0749 37.0122 50.5053 37.0122Z" fill="white"/>
<path d="M125.924 24.7681C125.183 24.7681 124.557 25.3946 124.557 26.1351V36.2171H124.443L117.038 25.4516C116.753 24.9959 116.24 24.7681 115.728 24.7681C114.873 24.7681 114.133 25.5086 114.133 26.363V39.5778C114.133 40.3183 114.759 40.9449 115.5 40.9449C116.24 40.9449 116.867 40.3183 116.867 39.5778V29.4958H116.981L124.443 40.2044C124.727 40.6601 125.24 40.8879 125.753 40.8879C126.607 40.8879 127.348 40.1474 127.348 39.293V26.1351C127.234 25.3946 126.664 24.7681 125.924 24.7681Z" fill="white"/>
<path d="M95.5065 27.4475C96.247 27.4475 96.8736 26.8209 96.8736 26.0804C96.8736 25.3399 96.247 24.7134 95.5065 24.7134H88.3864H87.0194C86.2789 24.7134 85.6523 25.3399 85.6523 26.0804V27.4475V31.3778V33.998V38.213V39.5801C85.6523 40.3206 86.2789 40.9471 87.0194 40.9471H88.3864H95.5635C96.304 40.9471 96.9305 40.3206 96.9305 39.5801C96.9305 38.8396 96.304 38.213 95.5635 38.213H88.3864V33.998H94.3673C95.1078 33.998 95.7344 33.3714 95.7344 32.6309C95.7344 31.8904 95.1078 31.2638 94.3673 31.2638H88.3864V27.3336H95.5065V27.4475Z" fill="white"/>
<path d="M81.491 29.2123C80.9214 29.2123 80.5227 28.9275 80.2379 28.4148C80.067 28.13 79.8961 27.7883 79.4974 27.6174C78.9278 27.2756 78.1873 27.0478 77.3329 27.0478C76.7064 27.0478 76.1367 27.1617 75.738 27.3326C75.2823 27.5035 74.9406 27.7883 74.7127 28.0731C74.4849 28.3579 74.371 28.7566 74.371 29.1553C74.371 29.4971 74.4279 29.8388 74.5988 30.0667C74.7697 30.2945 74.9406 30.5793 75.2823 30.6932C75.5102 30.8641 75.8519 30.978 76.1937 31.1489C76.4785 31.2629 76.8772 31.3768 77.162 31.4337L78.7 31.7755C79.3265 31.8894 79.8961 32.0603 80.4088 32.3451C80.9784 32.5729 81.4341 32.9147 81.9467 33.2565C82.4024 33.5982 82.7442 34.0539 82.972 34.6235C83.1999 35.1362 83.4277 35.7058 83.4277 36.4463C83.4277 37.3576 83.1999 38.212 82.6872 38.8956C82.1746 39.6361 81.491 40.2057 80.5797 40.5474C79.6683 41.0031 78.5291 41.174 77.276 41.174C76.0228 41.174 74.9406 41.0031 74.0292 40.6044C73.1178 40.2626 72.3773 39.693 71.8647 38.9525C71.6938 38.7247 71.5229 38.3829 71.3521 38.0981C71.0103 37.2437 71.6369 36.2754 72.6052 36.2754H72.7191C73.2887 36.2754 73.7444 36.6171 73.9722 37.1298C74.0292 37.3007 74.1431 37.4716 74.257 37.6994C74.5419 38.0412 74.9975 38.3829 75.5102 38.5538C76.0228 38.7816 76.5924 38.8386 77.162 38.8386C77.8456 38.8386 78.4152 38.7247 78.8709 38.5538C79.3835 38.3829 79.7253 38.0412 80.067 37.7564C80.3518 37.4146 80.5227 37.0159 80.5227 36.5032C80.5227 36.0475 80.4088 35.7058 80.1809 35.4779C79.9531 35.1931 79.5544 34.9653 79.1557 34.7944C78.7 34.6235 78.2443 34.4526 77.6177 34.2818L75.795 33.7691C74.4279 33.4274 73.4026 32.9147 72.6621 32.2312C71.9217 31.5477 71.6938 30.4084 71.6938 29.2692C71.6938 28.3579 71.9217 27.5035 72.4343 26.8199C72.947 26.0794 73.6874 25.5098 74.5419 25.1681C75.3963 24.8263 76.4215 24.5415 77.5608 24.5415C78.643 24.5415 79.7253 24.7124 80.5797 25.1681C81.4341 25.5098 82.1176 26.0794 82.6302 26.8199C82.7442 26.9338 82.8011 27.1047 82.9151 27.3326C83.3707 28.187 82.7442 29.2123 81.7189 29.2123H81.605H81.491Z" fill="white"/>
<path d="M104.848 27.1594C105.759 27.1594 106.557 27.3303 107.297 27.786C107.981 28.2417 108.55 28.7543 108.949 29.5518C109.405 30.4062 109.576 31.5454 109.576 32.7985C109.576 34.1086 109.405 35.1909 108.949 36.0453C108.493 36.8427 107.981 37.4693 107.297 37.811C106.614 38.2667 105.816 38.4376 104.848 38.4376C103.937 38.4376 103.139 38.2667 102.399 37.811C101.715 37.3554 101.145 36.8427 100.747 36.0453C100.291 35.1909 100.12 34.0516 100.12 32.7985C100.12 31.4884 100.291 30.4062 100.747 29.5518C101.202 28.7543 101.658 28.1277 102.399 27.786C103.139 27.3303 103.937 27.1594 104.848 27.1594ZM104.848 24.5962C103.424 24.5962 102.228 24.881 101.089 25.5645C100.006 26.248 99.0949 27.1594 98.4683 28.4125C97.8418 29.6657 97.5 31.0897 97.5 32.9124C97.5 34.6213 97.7848 36.1022 98.4683 37.3554C99.0949 38.6085 100.006 39.5768 101.089 40.2034C102.171 40.8869 103.424 41.1717 104.848 41.1717C106.272 41.1717 107.468 40.8869 108.607 40.2034C109.69 39.5199 110.601 38.6085 111.228 37.3554C111.854 36.1022 112.196 34.6782 112.196 32.8555C112.196 31.1467 111.911 29.6657 111.228 28.3556C110.601 27.1025 109.69 26.1341 108.607 25.5076C107.582 24.881 106.272 24.5962 104.848 24.5962Z" fill="white"/>
</g>
<defs>
<clipPath id="clip0_13581_216615">
<rect width="88.2889" height="30.1891" fill="white" transform="translate(39 17.7095)"/>
</clipPath>
</defs>
</svg>
