<svg width="40" height="40" viewBox="0 0 40 40" fill="none" xmlns="http://www.w3.org/2000/svg">
<path d="M0 19.6923C0 8.81654 8.81654 0 19.6923 0C30.5681 0 39.3846 8.81654 39.3846 19.6923C39.3846 30.5681 30.5681 39.3846 19.6923 39.3846C8.81654 39.3846 0 30.5681 0 19.6923Z" fill="#F6F8FA"/>
<g clip-path="url(#clip0_1178_40974)">
<path d="M24.0752 9.85313C24.0752 9.85313 23.7811 9.93024 23.298 10.0652C23.214 9.81458 23.088 9.52542 22.9199 9.21699C22.3738 8.25313 21.5546 7.73265 20.5884 7.73265C20.5254 7.73265 20.4624 7.73265 20.3784 7.75193C20.3574 7.71337 20.3154 7.6941 20.2944 7.65554C19.8743 7.23145 19.3281 7.03868 18.677 7.05795C17.4167 7.09651 16.1565 7.92542 15.1482 9.40976C14.4341 10.4507 13.888 11.7616 13.7409 12.7833C12.2916 13.1881 11.2834 13.4772 11.2624 13.4965C10.5272 13.7086 10.5062 13.7278 10.4222 14.364C10.2962 14.8459 8.38477 28.4363 8.38477 28.4363L24.2642 30.9616V9.81458C24.1802 9.83386 24.1172 9.83386 24.0752 9.85313ZM20.3994 10.8941C19.5592 11.1254 18.635 11.3953 17.7318 11.6459C17.9839 10.7399 18.488 9.83386 19.0761 9.23627C19.3071 9.02422 19.6222 8.77362 19.9793 8.6194C20.3364 9.31337 20.4204 10.258 20.3994 10.8941ZM18.698 7.82904C18.9921 7.82904 19.2441 7.88687 19.4542 8.00253C19.1181 8.15675 18.782 8.40735 18.467 8.69651C17.6688 9.48687 17.0597 10.7206 16.8076 11.8965C16.0514 12.1086 15.2953 12.3206 14.6021 12.5134C15.0432 10.682 16.7446 7.88687 18.698 7.82904ZM16.2405 18.4314C16.3245 19.6652 19.8743 19.9351 20.0843 22.8459C20.2313 25.1399 18.761 26.7013 16.6396 26.817C14.077 26.9712 12.6697 25.5833 12.6697 25.5833L13.2158 23.4628C13.2158 23.4628 14.6231 24.4459 15.7574 24.3688C16.4925 24.3302 16.7656 23.7712 16.7446 23.3857C16.6396 21.7664 13.7409 21.8628 13.5519 19.2025C13.3839 16.9857 14.9802 14.7302 18.509 14.5182C19.8743 14.4411 20.5674 14.7495 20.5674 14.7495L19.7692 17.5254C19.7692 17.5254 18.866 17.1399 17.7948 17.217C16.2405 17.3134 16.2195 18.2194 16.2405 18.4314ZM21.2396 10.6628C21.2396 10.0845 21.1555 9.25554 20.8615 8.56157C21.8277 8.73506 22.2898 9.71819 22.4998 10.3158C22.1217 10.4122 21.7017 10.5278 21.2396 10.6628Z" fill="#95BF46"/>
<path d="M24.7891 30.8844L31.3845 29.3808C31.3845 29.3808 28.5489 11.7808 28.5279 11.6652C28.5069 11.5495 28.4018 11.4724 28.2968 11.4724C28.1918 11.4724 26.3434 11.4338 26.3434 11.4338C26.3434 11.4338 25.2092 10.4314 24.7891 10.0459V30.8844Z" fill="#95BF46"/>
</g>
<defs>
<clipPath id="clip0_1178_40974">
<rect width="23" height="24" fill="white" transform="translate(8.38477 7)"/>
</clipPath>
</defs>
</svg>
