<svg width="30" height="30" viewBox="0 0 30 30" fill="none" xmlns="http://www.w3.org/2000/svg">
<circle cx="15" cy="15" r="15" fill="#F1F1F1"/>
<path d="M18.0713 7.59841C18.0713 7.59841 17.8548 7.66079 17.4989 7.76996C17.4371 7.56721 17.3442 7.33327 17.2205 7.08374C16.8182 6.30395 16.2149 5.88286 15.5033 5.88286C15.4568 5.88286 15.4104 5.88286 15.3486 5.89845C15.3331 5.86726 15.3021 5.85166 15.2867 5.82047C14.9773 5.47736 14.575 5.3214 14.0955 5.337C13.1672 5.36819 12.239 6.03882 11.4964 7.2397C10.9704 8.08188 10.5682 9.1424 10.4599 9.96898C9.39245 10.2965 8.64987 10.5304 8.6344 10.546C8.09294 10.7176 8.07747 10.7332 8.01559 11.2478C7.96917 11.6377 6.5459 22.6173 6.5459 22.6173L18.2415 24.6603V7.58281C18.1487 7.58281 18.1023 7.59841 18.0713 7.59841ZM15.364 8.44058C14.7452 8.62773 14.0645 8.84608 13.3993 9.04882C13.5849 8.31582 13.9562 7.58281 14.3894 7.09934C14.5596 6.92778 14.7916 6.72503 15.0546 6.60027C15.3176 7.16172 15.3795 7.92592 15.364 8.44058ZM14.0955 5.97643C14.312 5.97643 14.4977 6.02322 14.6524 6.11679C14.4049 6.24156 14.1573 6.44431 13.9253 6.67825C13.3374 7.31768 12.8888 8.31582 12.7031 9.26717C12.1462 9.43872 11.5892 9.61028 11.0787 9.76624C11.4191 8.26903 12.6722 6.00762 14.0955 5.97643ZM12.3009 14.5542C12.3628 15.5523 14.9773 15.7707 15.132 18.1256C15.2403 19.9816 14.1573 21.2448 12.5948 21.3384C10.7074 21.4632 9.67092 20.3403 9.67092 20.3403L10.0731 18.6247C10.0731 18.6247 11.1097 19.4201 11.9451 19.3577C12.4865 19.3265 12.6876 18.8742 12.6722 18.5623C12.5948 17.2523 10.4599 17.3302 10.3207 15.178C10.1969 13.3689 11.3727 11.5442 13.9717 11.3726C14.9773 11.3102 15.4878 11.5598 15.4878 11.5598L14.8999 13.8056C14.8999 13.8056 14.2347 13.4937 13.4457 13.556C12.3009 13.634 12.2854 14.367 12.3009 14.5542ZM15.9828 8.25343C15.9828 7.78556 15.921 7.11493 15.7044 6.55348C16.416 6.69384 16.7564 7.48923 16.9111 7.97271C16.6326 8.05069 16.3232 8.14426 15.9828 8.25343Z" fill="black"/>
<path d="M18.5972 24.6326L23.4549 23.4161C23.4549 23.4161 21.3664 9.17707 21.3509 9.08349C21.3354 8.98992 21.2581 8.92753 21.1807 8.92753C21.1034 8.92753 19.742 8.89634 19.742 8.89634C19.742 8.89634 18.9066 8.08536 18.5972 7.77344V24.6326Z" fill="black"/>
</svg>
