<svg width="30" height="30" viewBox="0 0 30 30" fill="none" xmlns="http://www.w3.org/2000/svg">
<circle cx="15" cy="15" r="15" fill="#F1F1F1"/>
<path d="M18.5544 18.6865C19.2112 19.7952 19.8607 20.8913 20.5097 21.9862C17.6358 24.1263 13.1645 24.385 9.85451 21.9204C6.04541 19.082 5.41935 14.2388 7.45869 10.7524C9.80421 6.7424 14.1935 5.85556 17.0195 6.50585C16.9431 6.66735 15.2505 10.0829 15.2505 10.0829C15.2505 10.0829 15.1167 10.0915 15.041 10.0929C14.2057 10.1273 13.5835 10.3164 12.9167 10.6517C12.1851 11.0231 11.5581 11.5631 11.0906 12.2245C10.623 12.8859 10.3292 13.6487 10.2347 14.4461C10.1361 15.2548 10.2511 16.0746 10.5687 16.8281C10.8373 17.465 11.2172 18.0308 11.7266 18.5084C12.5079 19.2418 13.4378 19.6959 14.5155 19.8463C15.5362 19.9888 16.5178 19.8477 17.4376 19.3981C17.7826 19.2297 18.0761 19.0437 18.4191 18.7887C18.4628 18.7611 18.5017 18.7262 18.5544 18.6865Z" fill="black"/>
<path d="M18.5609 8.96364C18.3941 8.80404 18.2396 8.65678 18.0857 8.50858C17.9939 8.42023 17.9055 8.32831 17.8115 8.2421C17.7778 8.21099 17.7383 8.16847 17.7383 8.16847C17.7383 8.16847 17.7703 8.10245 17.7839 8.07537C17.9639 7.7241 18.2459 7.46736 18.5804 7.2631C18.9503 7.03552 19.3813 6.91973 19.8189 6.93036C20.3788 6.94105 20.8993 7.07666 21.3386 7.44194C21.6629 7.71151 21.8292 8.05352 21.8585 8.46179C21.9073 9.15056 21.6143 9.67806 21.0324 10.0462C20.6906 10.2628 20.3219 10.4302 19.9522 10.6286C19.7483 10.738 19.574 10.8342 19.3747 11.0323C19.1994 11.2311 19.1909 11.4185 19.1909 11.4185L21.8394 11.4152V12.5626H17.7512C17.7512 12.5626 17.7512 12.4842 17.7512 12.4516C17.7356 11.8878 17.8032 11.3572 18.0686 10.8452C18.3128 10.3754 18.6923 10.0315 19.1481 9.76664C19.4993 9.56263 19.8689 9.38901 20.2208 9.18594C20.4379 9.06078 20.5912 8.87719 20.59 8.61094C20.59 8.38247 20.4191 8.1794 20.1749 8.11598C19.5991 7.96493 19.0131 8.206 18.7084 8.71853C18.6639 8.79335 18.6185 8.86769 18.5609 8.96364Z" fill="black"/>
<path d="M23.6838 17.468L21.4518 13.7188H17.035L14.7886 17.5067H19.2379L21.4335 21.2382L23.6838 17.468Z" fill="black"/>
</svg>
