<svg width="455" height="234" viewBox="0 0 455 234" fill="none" xmlns="http://www.w3.org/2000/svg">
<mask id="mask0_1019_16174" style="mask-type:luminance" maskUnits="userSpaceOnUse" x="0" y="0" width="455" height="234">
<path d="M454.706 0H0.292969V234H454.706V0Z" fill="white"/>
</mask>
<g mask="url(#mask0_1019_16174)">
<path d="M64.9046 143.825L69.4336 109.656" stroke="#8B8B8B" stroke-width="1.50968" stroke-dasharray="3.02 3.02"/>
<path d="M411.135 94.4738L432.27 112.44" stroke="#8B8B8B" stroke-width="1.50968" stroke-dasharray="3.02 3.02"/>
<path d="M96.5299 105.135C104.219 97.6007 108.989 87.0994 108.989 75.4839C108.989 52.5549 90.4021 33.9678 67.4732 33.9678C44.5442 33.9678 25.957 52.5549 25.957 75.4839C25.957 87.0994 30.7276 97.6007 38.4164 105.135C39.0927 105.797 39.7917 106.438 40.5118 107.054C41.8313 108.184 43.2232 109.231 44.6785 110.188C51.2215 114.495 59.0552 117 67.4732 117C75.8911 117 83.7248 114.495 90.2678 110.188C91.7231 109.231 93.115 108.184 94.4345 107.054C95.1546 106.438 95.8536 105.798 96.5299 105.135Z" fill="#8B8B8B"/>
<path d="M96.5299 105.135C104.219 97.6007 108.989 87.0994 108.989 75.4839C108.989 52.5549 90.4021 33.9678 67.4732 33.9678C44.5442 33.9678 25.957 52.5549 25.957 75.4839C25.957 87.0994 30.7276 97.6007 38.4164 105.135C39.0927 105.797 39.7917 106.438 40.5118 107.054C41.8313 108.184 43.2232 109.231 44.6785 110.188C51.2215 114.495 59.0552 117 67.4732 117C75.8911 117 83.7248 114.495 90.2678 110.188C91.7231 109.231 93.115 108.184 94.4345 107.054C95.1546 106.438 95.8536 105.798 96.5299 105.135Z" stroke="#646464" stroke-width="1.50968"/>
<mask id="mask1_1019_16174" style="mask-type:alpha" maskUnits="userSpaceOnUse" x="25" y="33" width="85" height="85">
<path d="M96.5299 105.135C104.219 97.6007 108.989 87.0994 108.989 75.4839C108.989 52.5549 90.4021 33.9678 67.4732 33.9678C44.5442 33.9678 25.957 52.5549 25.957 75.4839C25.957 87.0994 30.7276 97.6007 38.4164 105.135C39.0927 105.797 39.7917 106.438 40.5118 107.054C41.8313 108.184 43.2232 109.231 44.6785 110.188C51.2215 114.495 59.0552 117 67.4732 117C75.8911 117 83.7248 114.495 90.2678 110.188C91.7231 109.231 93.115 108.184 94.4345 107.054C95.1546 106.438 95.8536 105.798 96.5299 105.135Z" fill="#8B8B8B"/>
<path d="M96.5299 105.135C104.219 97.6007 108.989 87.0994 108.989 75.4839C108.989 52.5549 90.4021 33.9678 67.4732 33.9678C44.5442 33.9678 25.957 52.5549 25.957 75.4839C25.957 87.0994 30.7276 97.6007 38.4164 105.135C39.0927 105.797 39.7917 106.438 40.5118 107.054C41.8313 108.184 43.2232 109.231 44.6785 110.188C51.2215 114.495 59.0552 117 67.4732 117C75.8911 117 83.7248 114.495 90.2678 110.188C91.7231 109.231 93.115 108.184 94.4345 107.054C95.1546 106.438 95.8536 105.798 96.5299 105.135Z" stroke="#646464" stroke-width="1.50968"/>
</mask>
<g mask="url(#mask1_1019_16174)">
<path d="M49.4448 56.2975C49.0191 57.2123 48.7639 58.2057 48.4439 59.1206L48.4303 59.1342C48.5873 59.4814 48.9209 59.8573 48.85 60.1275C48.2597 62.383 48.3578 66.0606 48.8304 68.3115C49.0855 69.5087 49.1504 70.9293 48.7247 72.0208C48.2476 73.2376 48.2069 74.5012 48.5028 75.4885C49.3663 78.3901 50.257 81.3823 51.7893 83.9548C53.3745 86.6193 54.2652 89.5406 55.7386 92.1855C56.4059 93.3887 56.498 94.5406 56.1312 95.5264C55.4835 97.2837 55.562 99.1844 54.6713 101.014C53.6689 102.672 51.7304 103.434 49.9822 104.257C49.1308 104.658 48.1027 104.974 47.1471 105.297C44.0492 106.336 40.9317 107.388 37.6451 107.625C35.5633 107.776 33.4407 107.376 31.614 108.928C31.0509 109.408 30.0756 109.612 29.3027 109.586C27.5545 109.533 26.5656 110.619 25.5043 111.71C24.3781 112.868 23.7501 114.336 23.5991 115.836C23.3757 118 23.4678 120.217 23.5659 122.402C23.664 124.506 23.0028 126.703 24.2015 128.703C23.7169 131.414 24.9548 133.96 24.8884 136.65C24.7782 141.36 24.8567 146.078 24.8567 150.788V153.637H107.954C108.203 152.616 108.603 151.637 108.648 150.637C108.996 143.388 108.328 136.137 109.211 128.868C109.821 123.914 109.329 118.828 109.329 114.237C108.099 111.369 106.18 110.119 103.594 109.349C100.698 108.487 97.9296 107.29 94.8121 107.639C94.2882 107.697 93.7115 107.704 93.2149 107.553C89.8287 106.514 86.45 105.454 83.0834 104.349C79.9931 103.336 78.0094 101.428 77.3149 98.816C77.1247 98.1125 77.3542 97.2309 77.0266 96.6391C76.0181 94.829 76.6477 93.1517 77.3014 91.5198C77.7543 90.3951 78.8926 89.4409 79.0375 88.3238C79.3062 86.2314 80.523 84.9089 81.7353 83.7374C82.9853 79.8635 84.184 76.192 85.4159 72.3891C84.7078 71.8758 84.184 71.4954 83.7326 71.1663C83.9877 69.9691 83.6541 68.9757 84.2625 67.8767C84.7727 66.9483 84.4859 65.5412 84.427 64.3501C84.3802 63.3235 84.6686 62.3105 83.9092 61.2643C83.2797 60.4038 84.341 58.8896 83.1498 57.9823C83.7915 57.0538 81.9844 56.2054 83.0245 55.3117C82.3829 54.1266 81.7474 52.9626 81.0997 51.7594C78.408 51.936 77.1776 49.8512 75.7041 48.5423C72.6727 47.878 69.8828 46.9239 66.9102 47.0945C66.6415 47.1081 66.3668 46.8318 66.0784 46.7593C65.5802 46.628 64.8344 46.2853 64.605 46.4951C63.6614 47.3375 62.5745 46.936 61.566 47.1337C60.1786 47.404 58.764 47.7255 57.4597 48.266C53.7142 49.824 51.1341 52.6395 49.4448 56.2975Z" fill="#1F1F1F"/>
</g>
<path d="M406.014 105.135C413.703 97.6007 418.474 87.0994 418.474 75.4839C418.474 52.5549 399.887 33.9678 376.958 33.9678C354.029 33.9678 335.441 52.5549 335.441 75.4839C335.441 87.0994 340.212 97.6007 347.901 105.135C348.577 105.797 349.276 106.438 349.996 107.054C351.316 108.184 352.708 109.231 354.163 110.188C360.706 114.495 368.54 117 376.958 117C385.375 117 393.209 114.495 399.752 110.188C401.207 109.231 402.599 108.184 403.919 107.054C404.639 106.438 405.338 105.798 406.014 105.135Z" fill="#8B8B8B"/>
<path d="M406.014 105.135C413.703 97.6007 418.474 87.0994 418.474 75.4839C418.474 52.5549 399.887 33.9678 376.958 33.9678C354.029 33.9678 335.441 52.5549 335.441 75.4839C335.441 87.0994 340.212 97.6007 347.901 105.135C348.577 105.797 349.276 106.438 349.996 107.054C351.316 108.184 352.708 109.231 354.163 110.188C360.706 114.495 368.54 117 376.958 117C385.375 117 393.209 114.495 399.752 110.188C401.207 109.231 402.599 108.184 403.919 107.054C404.639 106.438 405.338 105.798 406.014 105.135Z" stroke="#646464" stroke-width="1.50968"/>
<mask id="mask2_1019_16174" style="mask-type:alpha" maskUnits="userSpaceOnUse" x="334" y="33" width="86" height="85">
<path d="M406.014 105.135C413.703 97.6007 418.474 87.0994 418.474 75.4839C418.474 52.5549 399.887 33.9678 376.958 33.9678C354.029 33.9678 335.441 52.5549 335.441 75.4839C335.441 87.0994 340.212 97.6007 347.901 105.135C348.577 105.797 349.276 106.438 349.996 107.054C351.316 108.184 352.708 109.231 354.163 110.188C360.706 114.495 368.54 117 376.958 117C385.375 117 393.209 114.495 399.752 110.188C401.207 109.231 402.599 108.184 403.919 107.054C404.639 106.438 405.338 105.798 406.014 105.135Z" fill="#8B8B8B"/>
<path d="M406.014 105.135C413.703 97.6007 418.474 87.0994 418.474 75.4839C418.474 52.5549 399.887 33.9678 376.958 33.9678C354.029 33.9678 335.441 52.5549 335.441 75.4839C335.441 87.0994 340.212 97.6007 347.901 105.135C348.577 105.797 349.276 106.438 349.996 107.054C351.316 108.184 352.708 109.231 354.163 110.188C360.706 114.495 368.54 117 376.958 117C385.375 117 393.209 114.495 399.752 110.188C401.207 109.231 402.599 108.184 403.919 107.054C404.639 106.438 405.338 105.798 406.014 105.135Z" stroke="#646464" stroke-width="1.50968"/>
</mask>
<g mask="url(#mask2_1019_16174)">
<path d="M356.593 84.6451C355.979 86.511 355.411 88.383 355.662 90.4302V90.4256C354.238 91.493 352.543 91.8855 350.943 92.4531C348.88 93.1853 346.257 95.4166 345.656 97.3445C344.738 100.276 345.103 103.32 345.059 106.321C345.896 107.168 345.401 108.235 345.546 109.195C345.689 110.154 346.059 111.128 345.983 112.068C345.795 114.404 346.765 116.588 346.501 118.885H408.492C408.492 118.219 408.261 117.472 408.534 117.017C409.246 115.837 408.828 114.603 408.972 113.406C409.126 112.13 409.308 110.859 409.447 109.582C409.572 108.462 409.126 107.262 409.933 106.236C409.678 103.708 410.255 101.175 409.505 98.6172C408.553 95.3457 407.631 94.2632 404.497 92.8924C402.263 91.9142 399.903 91.2424 397.741 90.1041C397.024 89.7251 396.308 89.3387 395.626 88.9748C395.43 88.0237 395.122 87.0832 395.064 86.1291C394.987 84.8429 394.473 83.6759 394.246 82.4425C393.839 80.2398 392.958 78.1021 393.117 75.8105C393.242 74.0607 393.04 72.3367 393.517 70.5492C394.18 68.0628 392.993 65.5205 393.112 62.9676C392.128 62.2973 392.824 61.2375 392.498 60.3815C391.796 58.5382 391.407 56.5726 390.686 54.7384C389.21 50.9944 387.797 47.1855 384.482 44.5058C382.281 42.7274 379.758 41.5362 376.947 41.9907C375.389 42.2458 373.866 42.3922 372.327 42.3364C370.747 42.2745 369.569 43.0218 368.367 43.8008C368.041 44.0136 367.839 44.4303 367.502 44.6145C364.946 46.0185 363.692 48.3192 362.812 50.943C362.514 51.8322 361.876 52.6022 361.429 53.4476C360.919 54.4168 360.438 55.4057 359.958 56.393C359.67 56.9833 359.406 57.5841 358.997 58.4627C358.997 58.7707 359.256 59.6207 358.944 59.9709C358.2 60.8073 358.9 61.852 358.348 62.5796C357.729 63.3979 358.387 64.3475 357.993 65.0374C357.483 65.9266 357.593 66.8007 357.555 67.7035C357.546 68.016 357.617 68.3617 357.507 68.6304C356.767 70.4073 356.556 72.2612 356.589 74.1649C356.617 75.8995 356.252 77.7202 356.685 79.3416C357.181 81.203 357.17 82.8863 356.593 84.6451Z" fill="#1F1F1F"/>
</g>
<mask id="mask3_1019_16174" style="mask-type:luminance" maskUnits="userSpaceOnUse" x="424" y="93" width="60" height="60">
<path d="M424.801 93.1348H483.678V152.012H424.801V93.1348Z" fill="white"/>
</mask>
<g mask="url(#mask3_1019_16174)">
<path d="M484.259 122.863C484.259 139.271 470.938 152.592 454.53 152.592C438.122 152.592 424.801 139.271 424.801 122.863C424.801 106.455 438.122 93.1338 454.53 93.1338C470.938 93.1338 484.259 106.455 484.259 122.863Z" fill="white"/>
<path d="M446.7 122.915C446.7 126.115 443.772 128.746 440.564 128.731H437.805C434.559 128.746 431.887 126.117 431.887 122.915C431.887 119.415 434.559 116.994 437.805 116.995H440.564C443.772 116.994 446.7 119.414 446.7 122.915Z" fill="#0078BE"/>
<path d="M439.035 119.672V126.029C440.312 125.537 441.22 124.301 441.221 122.85C441.22 121.399 440.312 120.163 439.035 119.672ZM436.597 119.672C435.321 120.164 434.415 121.401 434.412 122.85C434.415 124.301 435.321 125.536 436.597 126.028V119.672ZM432.445 122.85C432.447 119.883 434.85 117.479 437.817 117.479C440.783 117.479 443.187 119.883 443.188 122.85C443.187 125.816 440.783 128.221 437.817 128.221C434.85 128.221 432.447 125.816 432.445 122.85Z" fill="white"/>
<path d="M449.825 122.945C449.523 122.945 449.183 122.889 449.183 122.415V119.057C449.295 119.05 449.411 119.032 449.665 119.032C450.856 119.032 451.596 119.865 451.596 121.018C451.596 121.939 451.159 122.945 449.825 122.945ZM448.012 118.994C448.289 119 448.578 118.964 448.578 119.519V122.513C448.561 122.933 448.382 122.945 448.012 122.983V123.143C448.289 123.137 448.561 123.131 448.838 123.131C449.129 123.131 449.419 123.143 449.733 123.143C451.917 123.143 452.275 121.606 452.275 120.994C452.275 119.901 451.405 118.834 449.807 118.834C449.351 118.834 448.999 118.846 448.739 118.846C448.498 118.846 448.252 118.846 448.012 118.834V118.994Z" fill="#201D1F"/>
<path d="M452.854 119.06C452.854 119.22 452.996 119.368 453.156 119.368C453.322 119.368 453.458 119.228 453.458 119.06C453.458 118.894 453.316 118.763 453.156 118.763C453.002 118.763 452.854 118.906 452.854 119.06ZM452.612 122.979H452.496V123.141C452.724 123.133 452.946 123.127 453.168 123.127C453.39 123.127 453.606 123.141 453.816 123.141V122.979H453.711C453.538 122.979 453.402 122.979 453.402 122.775V120.405C453.402 120.357 453.39 120.319 453.36 120.319C453.328 120.319 453.292 120.325 453.248 120.351C453.224 120.369 452.878 120.485 452.588 120.573V120.671C452.816 120.795 452.908 120.832 452.908 121.103V122.775C452.908 122.979 452.784 122.979 452.612 122.979Z" fill="#201D1F"/>
<path d="M454.042 120.735C454.332 120.853 454.4 120.913 454.4 121.141V122.778C454.4 122.981 454.276 122.981 454.104 122.981H453.992V123.141C454.214 123.135 454.436 123.129 454.658 123.129C454.88 123.129 455.097 123.141 455.313 123.141V122.981H455.201C455.029 122.981 454.892 122.981 454.892 122.778V120.951C455.097 120.815 455.411 120.655 455.609 120.655C455.961 120.655 456.177 120.827 456.177 121.179V122.778C456.177 122.981 456.053 122.981 455.881 122.981H455.769V123.141C455.991 123.135 456.214 123.129 456.436 123.129C456.658 123.129 456.874 123.141 457.09 123.141V122.981H456.98C456.806 122.981 456.67 122.981 456.67 122.778V121.185C456.67 120.703 456.485 120.321 455.961 120.321C455.547 120.321 455.245 120.531 454.892 120.783V120.383C454.892 120.333 454.874 120.321 454.856 120.321C454.56 120.451 454.306 120.531 454.042 120.617V120.735Z" fill="#201D1F"/>
<path d="M448.055 126.732H448.008V126.833C448.139 126.833 448.337 126.821 448.501 126.821C448.669 126.821 448.871 126.833 449.031 126.833V126.732H448.985C448.864 126.732 448.737 126.717 448.737 126.542V124.782C448.737 124.606 448.864 124.59 448.985 124.59H449.031V124.49C448.874 124.49 448.672 124.502 448.504 124.502C448.34 124.502 448.139 124.49 448.008 124.49V124.59H448.055C448.175 124.59 448.302 124.606 448.302 124.782V126.542C448.302 126.717 448.175 126.732 448.055 126.732Z" fill="#201D1F"/>
<path d="M449.013 126.746V126.817C448.855 126.817 448.66 126.804 448.497 126.804C448.337 126.804 448.148 126.816 448.017 126.817V126.746H448.05C448.169 126.746 448.313 126.725 448.313 126.539V124.779C448.313 124.595 448.169 124.574 448.05 124.574H448.017V124.501C448.148 124.503 448.34 124.515 448.5 124.515C448.663 124.515 448.858 124.501 449.013 124.501V124.574H448.98C448.859 124.574 448.717 124.595 448.716 124.779V126.539C448.717 126.725 448.861 126.746 448.98 126.746H449.013ZM448.497 126.832C448.663 126.832 448.865 126.846 449.027 126.846H449.042V126.731V126.716H448.98C448.858 126.713 448.746 126.704 448.746 126.539V124.779C448.746 124.616 448.858 124.606 448.98 124.602H449.027H449.042V124.488V124.473H449.027C448.868 124.473 448.668 124.486 448.5 124.486C448.336 124.486 448.135 124.473 448.003 124.473H447.988V124.589V124.602H448.05C448.171 124.604 448.283 124.616 448.284 124.779V126.539C448.283 126.704 448.171 126.713 448.05 126.716H448.003H447.988V126.731V126.832V126.846H448.003C448.135 126.846 448.332 126.832 448.497 126.832Z" fill="#201D1F"/>
<path d="M451.342 126.166L451.335 126.172L449.84 124.49C449.74 124.49 449.642 124.504 449.541 124.504C449.414 124.504 449.283 124.49 449.156 124.49V124.591H449.2C449.349 124.591 449.505 124.705 449.505 124.893V126.308C449.505 126.577 449.434 126.734 449.203 126.734H449.156V126.835C449.307 126.835 449.461 126.821 449.612 126.821C449.757 126.821 449.901 126.835 450.045 126.835V126.734H449.988C449.73 126.734 449.673 126.632 449.673 126.341V124.957L451.401 126.885H451.529C451.513 126.78 451.51 126.663 451.51 126.546V125.017C451.51 124.617 451.667 124.591 451.809 124.591H451.859V124.49C451.721 124.49 451.584 124.504 451.446 124.504C451.288 124.504 451.134 124.49 450.975 124.49V124.591H451.049C451.151 124.591 451.342 124.631 451.342 124.907V126.166Z" fill="#201D1F"/>
<path d="M451.346 126.159L451.336 126.168ZM451.327 126.16V126.162L451.325 126.157L451.327 126.16ZM451.512 126.865H451.402L449.658 124.915V126.337C449.658 126.628 449.723 126.743 449.988 126.744H450.03V126.815C449.892 126.814 449.752 126.802 449.612 126.802C449.465 126.802 449.316 126.814 449.171 126.815V126.743L449.203 126.744C449.444 126.743 449.518 126.571 449.518 126.303V124.889C449.518 124.693 449.357 124.572 449.2 124.572H449.169L449.171 124.501C449.292 124.501 449.418 124.513 449.541 124.513C449.643 124.513 449.74 124.501 449.84 124.501L451.334 126.189L451.345 126.178L451.352 126.172L451.357 124.902C451.357 124.617 451.153 124.572 451.049 124.572H450.99V124.501C451.142 124.501 451.292 124.513 451.446 124.513C451.579 124.513 451.712 124.501 451.844 124.501V124.572H451.808C451.663 124.572 451.496 124.61 451.496 125.013V126.54C451.496 126.652 451.497 126.764 451.512 126.865ZM451.392 126.889L451.529 126.895H451.547L451.544 126.877C451.527 126.776 451.524 126.658 451.524 126.54V125.013C451.527 124.617 451.669 124.605 451.808 124.601H451.858H451.873V124.486V124.471H451.858C451.719 124.471 451.582 124.484 451.446 124.484C451.289 124.484 451.133 124.471 450.975 124.471H450.96V124.585V124.601H451.049C451.147 124.604 451.325 124.635 451.327 124.902V126.137L449.852 124.477C449.738 124.471 449.64 124.484 449.541 124.484C449.415 124.484 449.284 124.471 449.156 124.471H449.141V124.585V124.601H449.2C449.343 124.601 449.489 124.709 449.491 124.889V126.303C449.488 126.571 449.424 126.713 449.203 126.714H449.156H449.141V126.83V126.844H449.156C449.308 126.844 449.462 126.83 449.612 126.83C449.755 126.83 449.9 126.844 450.045 126.844H450.06V126.729V126.714H449.988C449.735 126.711 449.69 126.628 449.687 126.337V124.99L451.392 126.889Z" fill="#201D1F"/>
<path d="M452.054 124.962C452.104 124.716 452.113 124.656 452.365 124.656H452.916V126.449C452.916 126.715 452.823 126.731 452.639 126.731H452.574V126.832C452.705 126.832 452.94 126.819 453.143 126.819C453.322 126.819 453.558 126.832 453.689 126.832V126.731H453.626C453.464 126.731 453.347 126.701 453.347 126.443V124.656H453.898C454.123 124.656 454.139 124.855 454.147 124.979L454.248 124.941C454.248 124.85 454.248 124.76 454.254 124.669C454.263 124.579 454.277 124.488 454.29 124.397L454.21 124.384C454.203 124.485 454.12 124.488 454.029 124.488H452.296C452.205 124.488 452.121 124.491 452.094 124.391H452.014C452.014 124.488 452.007 124.582 451.994 124.675C451.983 124.773 451.967 124.867 451.953 124.962H452.054Z" fill="#201D1F"/>
<path d="M453.136 126.832C453.316 126.832 453.551 126.846 453.682 126.846H453.698V126.731V126.716H453.619C453.459 126.713 453.358 126.697 453.355 126.443V124.671H453.891C454.104 124.671 454.116 124.853 454.125 124.979L454.126 124.998L454.246 124.956L454.255 124.951V124.941C454.255 124.85 454.255 124.76 454.261 124.671C454.271 124.58 454.285 124.489 454.298 124.399L454.3 124.385L454.205 124.37L454.19 124.367L454.188 124.382C454.182 124.47 454.114 124.471 454.021 124.473H452.289H452.272C452.186 124.471 452.124 124.471 452.102 124.387L452.099 124.376H452.007H451.993V124.391C451.993 124.486 451.986 124.58 451.972 124.674C451.961 124.772 451.945 124.865 451.931 124.959L451.93 124.976H452.047H452.06L452.061 124.965C452.117 124.716 452.111 124.675 452.36 124.671V124.656V124.64C452.109 124.637 452.079 124.713 452.035 124.947H451.963C451.976 124.858 451.992 124.77 452.001 124.678C452.014 124.588 452.02 124.499 452.022 124.405H452.076C452.106 124.499 452.192 124.503 452.272 124.503H452.289H454.021C454.105 124.503 454.2 124.499 454.215 124.4L454.267 124.409C454.255 124.496 454.243 124.582 454.232 124.668C454.226 124.755 454.226 124.844 454.226 124.932L454.153 124.957C454.146 124.834 454.116 124.642 453.891 124.64H453.326V126.443C453.326 126.706 453.456 126.746 453.619 126.746H453.667V126.817C453.534 126.816 453.311 126.804 453.136 126.804C452.941 126.804 452.715 126.816 452.582 126.817V126.746H452.632C452.816 126.746 452.925 126.719 452.925 126.449V124.64H452.36V124.656V124.671H452.896V126.449C452.891 126.71 452.816 126.712 452.632 126.716H452.567H452.553V126.832V126.846H452.567C452.7 126.846 452.934 126.832 453.136 126.832Z" fill="#201D1F"/>
<path d="M454.443 126.732H454.395V126.833C454.586 126.833 454.986 126.821 455.288 126.821C455.59 126.821 455.977 126.833 456.191 126.833C456.221 126.655 456.262 126.478 456.306 126.299L456.211 126.276C456.111 126.658 455.933 126.687 455.53 126.687C455.314 126.687 455.121 126.687 455.121 126.468V125.686H455.524C455.755 125.686 455.765 125.816 455.785 126.018L455.886 125.997C455.879 125.87 455.876 125.743 455.876 125.615C455.876 125.484 455.879 125.352 455.886 125.221H455.785C455.765 125.404 455.722 125.517 455.519 125.517H455.121V124.638H455.587C455.94 124.638 455.98 124.812 455.996 125.031L456.097 125.004C456.087 124.856 456.084 124.634 456.09 124.49C455.862 124.49 455.513 124.502 455.231 124.502C454.949 124.502 454.6 124.49 454.395 124.49V124.59H454.443C454.562 124.59 454.69 124.606 454.69 124.782V126.542C454.69 126.717 454.562 126.732 454.443 126.732Z" fill="#201D1F"/>
<path d="M456.29 126.308C456.249 126.478 456.21 126.647 456.181 126.817C455.965 126.816 455.586 126.804 455.29 126.804C454.996 126.804 454.608 126.816 454.411 126.817V126.746H454.443C454.564 126.745 454.706 126.724 454.707 126.539V124.779C454.706 124.593 454.564 124.574 454.443 124.574H454.411V124.501C454.617 124.503 454.956 124.515 455.233 124.515C455.509 124.515 455.849 124.503 456.077 124.501C456.075 124.55 456.074 124.604 456.074 124.661C456.074 124.773 456.078 124.895 456.084 124.989L456.012 125.009C455.997 124.799 455.938 124.618 455.589 124.621H455.107V125.529H455.521C455.726 125.531 455.781 125.409 455.8 125.234H455.873C455.865 125.36 455.862 125.486 455.862 125.612C455.862 125.735 455.865 125.86 455.873 125.984L455.8 125.999C455.784 125.807 455.76 125.665 455.524 125.668H455.107V126.465C455.109 126.698 455.32 126.698 455.532 126.698C455.929 126.701 456.123 126.668 456.223 126.292L456.29 126.308ZM455.29 126.832C455.592 126.832 455.977 126.846 456.193 126.846H456.205L456.208 126.834C456.238 126.656 456.277 126.479 456.321 126.301L456.324 126.287L456.217 126.259L456.202 126.257L456.199 126.269C456.098 126.647 455.936 126.666 455.532 126.669C455.313 126.668 455.136 126.669 455.136 126.465V125.697H455.524C455.748 125.7 455.749 125.812 455.773 126.017V126.032L455.891 126.01L455.903 126.006L455.902 125.994C455.896 125.866 455.891 125.739 455.891 125.612C455.891 125.481 455.896 125.351 455.902 125.22L455.903 125.205H455.787H455.773V125.218C455.749 125.398 455.714 125.498 455.521 125.499H455.136V124.649H455.589C455.935 124.652 455.963 124.811 455.983 125.028L455.985 125.046L456.102 125.015L456.113 125.012V125C456.107 124.904 456.104 124.778 456.104 124.661C456.104 124.598 456.104 124.538 456.107 124.488V124.473H456.092C455.864 124.473 455.515 124.486 455.233 124.486C454.95 124.486 454.602 124.473 454.396 124.473H454.383V124.587V124.602H454.443C454.565 124.604 454.676 124.616 454.677 124.779V126.539C454.676 126.704 454.565 126.715 454.443 126.716H454.396H454.383V126.73V126.832V126.846H454.396C454.588 126.846 454.988 126.832 455.29 126.832Z" fill="#201D1F"/>
<path d="M446.7 122.915C446.7 126.115 443.772 128.746 440.564 128.731H437.805C434.559 128.746 431.887 126.117 431.887 122.915C431.887 119.415 434.559 116.994 437.805 116.995H440.564C443.772 116.994 446.7 119.414 446.7 122.915Z" fill="#0078BE"/>
<path d="M439.035 119.672V126.029C440.312 125.537 441.22 124.301 441.221 122.85C441.22 121.399 440.312 120.163 439.035 119.672ZM436.597 119.672C435.321 120.164 434.415 121.401 434.412 122.85C434.415 124.301 435.321 125.536 436.597 126.028V119.672ZM432.445 122.85C432.447 119.883 434.85 117.479 437.817 117.479C440.783 117.479 443.187 119.883 443.188 122.85C443.187 125.816 440.783 128.221 437.817 128.221C434.85 128.221 432.447 125.816 432.445 122.85Z" fill="white"/>
<path d="M449.825 122.945C449.523 122.945 449.183 122.889 449.183 122.415V119.057C449.295 119.05 449.411 119.032 449.665 119.032C450.856 119.032 451.596 119.865 451.596 121.018C451.596 121.939 451.159 122.945 449.825 122.945ZM448.012 118.994C448.289 119 448.578 118.964 448.578 119.519V122.513C448.561 122.933 448.382 122.945 448.012 122.983V123.143C448.289 123.137 448.561 123.131 448.838 123.131C449.129 123.131 449.419 123.143 449.733 123.143C451.917 123.143 452.275 121.606 452.275 120.994C452.275 119.901 451.405 118.834 449.807 118.834C449.351 118.834 448.999 118.846 448.739 118.846C448.498 118.846 448.252 118.846 448.012 118.834V118.994Z" fill="#201D1F"/>
<path d="M452.854 119.06C452.854 119.22 452.996 119.368 453.156 119.368C453.322 119.368 453.458 119.228 453.458 119.06C453.458 118.894 453.316 118.763 453.156 118.763C453.002 118.763 452.854 118.906 452.854 119.06ZM452.612 122.979H452.496V123.141C452.724 123.133 452.946 123.127 453.168 123.127C453.39 123.127 453.606 123.141 453.816 123.141V122.979H453.711C453.538 122.979 453.402 122.979 453.402 122.775V120.405C453.402 120.357 453.39 120.319 453.36 120.319C453.328 120.319 453.292 120.325 453.248 120.351C453.224 120.369 452.878 120.485 452.588 120.573V120.671C452.816 120.795 452.908 120.832 452.908 121.103V122.775C452.908 122.979 452.784 122.979 452.612 122.979Z" fill="#201D1F"/>
<path d="M454.042 120.735C454.332 120.853 454.4 120.913 454.4 121.141V122.778C454.4 122.981 454.276 122.981 454.104 122.981H453.992V123.141C454.214 123.135 454.436 123.129 454.658 123.129C454.88 123.129 455.097 123.141 455.313 123.141V122.981H455.201C455.029 122.981 454.892 122.981 454.892 122.778V120.951C455.097 120.815 455.411 120.655 455.609 120.655C455.961 120.655 456.177 120.827 456.177 121.179V122.778C456.177 122.981 456.053 122.981 455.881 122.981H455.769V123.141C455.991 123.135 456.214 123.129 456.436 123.129C456.658 123.129 456.874 123.141 457.09 123.141V122.981H456.98C456.806 122.981 456.67 122.981 456.67 122.778V121.185C456.67 120.703 456.485 120.321 455.961 120.321C455.547 120.321 455.245 120.531 454.892 120.783V120.383C454.892 120.333 454.874 120.321 454.856 120.321C454.56 120.451 454.306 120.531 454.042 120.617V120.735Z" fill="#201D1F"/>
<path d="M448.055 126.732H448.008V126.833C448.139 126.833 448.337 126.821 448.501 126.821C448.669 126.821 448.871 126.833 449.031 126.833V126.732H448.985C448.864 126.732 448.737 126.717 448.737 126.542V124.782C448.737 124.606 448.864 124.59 448.985 124.59H449.031V124.49C448.874 124.49 448.672 124.502 448.504 124.502C448.34 124.502 448.139 124.49 448.008 124.49V124.59H448.055C448.175 124.59 448.302 124.606 448.302 124.782V126.542C448.302 126.717 448.175 126.732 448.055 126.732Z" fill="#201D1F"/>
<path d="M449.013 126.746V126.817C448.855 126.817 448.66 126.804 448.497 126.804C448.337 126.804 448.148 126.816 448.017 126.817V126.746H448.05C448.169 126.746 448.313 126.725 448.313 126.539V124.779C448.313 124.595 448.169 124.574 448.05 124.574H448.017V124.501C448.148 124.503 448.34 124.515 448.5 124.515C448.663 124.515 448.858 124.501 449.013 124.501V124.574H448.98C448.859 124.574 448.717 124.595 448.716 124.779V126.539C448.717 126.725 448.861 126.746 448.98 126.746H449.013ZM448.497 126.832C448.663 126.832 448.865 126.846 449.027 126.846H449.042V126.731V126.716H448.98C448.858 126.713 448.746 126.704 448.746 126.539V124.779C448.746 124.616 448.858 124.606 448.98 124.602H449.027H449.042V124.488V124.473H449.027C448.868 124.473 448.668 124.486 448.5 124.486C448.336 124.486 448.135 124.473 448.003 124.473H447.988V124.589V124.602H448.05C448.171 124.604 448.283 124.616 448.284 124.779V126.539C448.283 126.704 448.171 126.713 448.05 126.716H448.003H447.988V126.731V126.832V126.846H448.003C448.135 126.846 448.332 126.832 448.497 126.832Z" fill="#201D1F"/>
<path d="M451.342 126.166L451.335 126.172L449.84 124.49C449.74 124.49 449.642 124.504 449.541 124.504C449.414 124.504 449.283 124.49 449.156 124.49V124.591H449.2C449.349 124.591 449.505 124.705 449.505 124.893V126.308C449.505 126.577 449.434 126.734 449.203 126.734H449.156V126.835C449.307 126.835 449.461 126.821 449.612 126.821C449.757 126.821 449.901 126.835 450.045 126.835V126.734H449.988C449.73 126.734 449.673 126.632 449.673 126.341V124.957L451.401 126.885H451.529C451.513 126.78 451.51 126.663 451.51 126.546V125.017C451.51 124.617 451.667 124.591 451.809 124.591H451.859V124.49C451.721 124.49 451.584 124.504 451.446 124.504C451.288 124.504 451.134 124.49 450.975 124.49V124.591H451.049C451.151 124.591 451.342 124.631 451.342 124.907V126.166Z" fill="#201D1F"/>
<path d="M451.346 126.159L451.336 126.168ZM451.327 126.16V126.162L451.325 126.157L451.327 126.16ZM451.512 126.865H451.402L449.658 124.915V126.337C449.658 126.628 449.723 126.743 449.988 126.744H450.03V126.815C449.892 126.814 449.752 126.802 449.612 126.802C449.465 126.802 449.316 126.814 449.171 126.815V126.743L449.203 126.744C449.444 126.743 449.518 126.571 449.518 126.303V124.889C449.518 124.693 449.357 124.572 449.2 124.572H449.169L449.171 124.501C449.292 124.501 449.418 124.513 449.541 124.513C449.643 124.513 449.74 124.501 449.84 124.501L451.334 126.189L451.345 126.178L451.352 126.172L451.357 124.902C451.357 124.617 451.153 124.572 451.049 124.572H450.99V124.501C451.142 124.501 451.292 124.513 451.446 124.513C451.579 124.513 451.712 124.501 451.844 124.501V124.572H451.808C451.663 124.572 451.496 124.61 451.496 125.013V126.54C451.496 126.652 451.497 126.764 451.512 126.865ZM451.392 126.889L451.529 126.895H451.547L451.544 126.877C451.527 126.776 451.524 126.658 451.524 126.54V125.013C451.527 124.617 451.669 124.605 451.808 124.601H451.858H451.873V124.486V124.471H451.858C451.719 124.471 451.582 124.484 451.446 124.484C451.289 124.484 451.133 124.471 450.975 124.471H450.96V124.585V124.601H451.049C451.147 124.604 451.325 124.635 451.327 124.902V126.137L449.852 124.477C449.738 124.471 449.64 124.484 449.541 124.484C449.415 124.484 449.284 124.471 449.156 124.471H449.141V124.585V124.601H449.2C449.343 124.601 449.489 124.709 449.491 124.889V126.303C449.488 126.571 449.424 126.713 449.203 126.714H449.156H449.141V126.83V126.844H449.156C449.308 126.844 449.462 126.83 449.612 126.83C449.755 126.83 449.9 126.844 450.045 126.844H450.06V126.729V126.714H449.988C449.735 126.711 449.69 126.628 449.687 126.337V124.99L451.392 126.889Z" fill="#201D1F"/>
<path d="M452.054 124.962C452.104 124.716 452.113 124.656 452.365 124.656H452.916V126.449C452.916 126.715 452.823 126.731 452.639 126.731H452.574V126.832C452.705 126.832 452.94 126.819 453.143 126.819C453.322 126.819 453.558 126.832 453.689 126.832V126.731H453.626C453.464 126.731 453.347 126.701 453.347 126.443V124.656H453.898C454.123 124.656 454.139 124.855 454.147 124.979L454.248 124.941C454.248 124.85 454.248 124.76 454.254 124.669C454.263 124.579 454.277 124.488 454.29 124.397L454.21 124.384C454.203 124.485 454.12 124.488 454.029 124.488H452.296C452.205 124.488 452.121 124.491 452.094 124.391H452.014C452.014 124.488 452.007 124.582 451.994 124.675C451.983 124.773 451.967 124.867 451.953 124.962H452.054Z" fill="#201D1F"/>
<path d="M453.136 126.832C453.316 126.832 453.551 126.846 453.682 126.846H453.698V126.731V126.716H453.619C453.459 126.713 453.358 126.697 453.355 126.443V124.671H453.891C454.104 124.671 454.116 124.853 454.125 124.979L454.126 124.998L454.246 124.956L454.255 124.951V124.941C454.255 124.85 454.255 124.76 454.261 124.671C454.271 124.58 454.285 124.489 454.298 124.399L454.3 124.385L454.205 124.37L454.19 124.367L454.188 124.382C454.182 124.47 454.114 124.471 454.021 124.473H452.289H452.272C452.186 124.471 452.124 124.471 452.102 124.387L452.099 124.376H452.007H451.993V124.391C451.993 124.486 451.986 124.58 451.972 124.674C451.961 124.772 451.945 124.865 451.931 124.959L451.93 124.976H452.047H452.06L452.061 124.965C452.117 124.716 452.111 124.675 452.36 124.671V124.656V124.64C452.109 124.637 452.079 124.713 452.035 124.947H451.963C451.976 124.858 451.992 124.77 452.001 124.678C452.014 124.588 452.02 124.499 452.022 124.405H452.076C452.106 124.499 452.192 124.503 452.272 124.503H452.289H454.021C454.105 124.503 454.2 124.499 454.215 124.4L454.267 124.409C454.255 124.496 454.243 124.582 454.232 124.668C454.226 124.755 454.226 124.844 454.226 124.932L454.153 124.957C454.146 124.834 454.116 124.642 453.891 124.64H453.326V126.443C453.326 126.706 453.456 126.746 453.619 126.746H453.667V126.817C453.534 126.816 453.311 126.804 453.136 126.804C452.941 126.804 452.715 126.816 452.582 126.817V126.746H452.632C452.816 126.746 452.925 126.719 452.925 126.449V124.64H452.36V124.656V124.671H452.896V126.449C452.891 126.71 452.816 126.712 452.632 126.716H452.567H452.553V126.832V126.846H452.567C452.7 126.846 452.934 126.832 453.136 126.832Z" fill="#201D1F"/>
<path d="M454.443 126.732H454.395V126.833C454.586 126.833 454.986 126.821 455.288 126.821C455.59 126.821 455.977 126.833 456.191 126.833C456.221 126.655 456.262 126.478 456.306 126.299L456.211 126.276C456.111 126.658 455.933 126.687 455.53 126.687C455.314 126.687 455.121 126.687 455.121 126.468V125.686H455.524C455.755 125.686 455.765 125.816 455.785 126.018L455.886 125.997C455.879 125.87 455.876 125.743 455.876 125.615C455.876 125.484 455.879 125.352 455.886 125.221H455.785C455.765 125.404 455.722 125.517 455.519 125.517H455.121V124.638H455.587C455.94 124.638 455.98 124.812 455.996 125.031L456.097 125.004C456.087 124.856 456.084 124.634 456.09 124.49C455.862 124.49 455.513 124.502 455.231 124.502C454.949 124.502 454.6 124.49 454.395 124.49V124.59H454.443C454.562 124.59 454.69 124.606 454.69 124.782V126.542C454.69 126.717 454.562 126.732 454.443 126.732Z" fill="#201D1F"/>
<path d="M456.29 126.308C456.249 126.478 456.21 126.647 456.181 126.817C455.965 126.816 455.586 126.804 455.29 126.804C454.996 126.804 454.608 126.816 454.411 126.817V126.746H454.443C454.564 126.745 454.706 126.724 454.707 126.539V124.779C454.706 124.593 454.564 124.574 454.443 124.574H454.411V124.501C454.617 124.503 454.956 124.515 455.233 124.515C455.509 124.515 455.849 124.503 456.077 124.501C456.075 124.55 456.074 124.604 456.074 124.661C456.074 124.773 456.078 124.895 456.084 124.989L456.012 125.009C455.997 124.799 455.938 124.618 455.589 124.621H455.107V125.529H455.521C455.726 125.531 455.781 125.409 455.8 125.234H455.873C455.865 125.36 455.862 125.486 455.862 125.612C455.862 125.735 455.865 125.86 455.873 125.984L455.8 125.999C455.784 125.807 455.76 125.665 455.524 125.668H455.107V126.465C455.109 126.698 455.32 126.698 455.532 126.698C455.929 126.701 456.123 126.668 456.223 126.292L456.29 126.308ZM455.29 126.832C455.592 126.832 455.977 126.846 456.193 126.846H456.205L456.208 126.834C456.238 126.656 456.277 126.479 456.321 126.301L456.324 126.287L456.217 126.259L456.202 126.257L456.199 126.269C456.098 126.647 455.936 126.666 455.532 126.669C455.313 126.668 455.136 126.669 455.136 126.465V125.697H455.524C455.748 125.7 455.749 125.812 455.773 126.017V126.032L455.891 126.01L455.903 126.006L455.902 125.994C455.896 125.866 455.891 125.739 455.891 125.612C455.891 125.481 455.896 125.351 455.902 125.22L455.903 125.205H455.787H455.773V125.218C455.749 125.398 455.714 125.498 455.521 125.499H455.136V124.649H455.589C455.935 124.652 455.963 124.811 455.983 125.028L455.985 125.046L456.102 125.015L456.113 125.012V125C456.107 124.904 456.104 124.778 456.104 124.661C456.104 124.598 456.104 124.538 456.107 124.488V124.473H456.092C455.864 124.473 455.515 124.486 455.233 124.486C454.95 124.486 454.602 124.473 454.396 124.473H454.383V124.587V124.602H454.443C454.565 124.604 454.676 124.616 454.677 124.779V126.539C454.676 126.704 454.565 126.715 454.443 126.716H454.396H454.383V126.73V126.832V126.846H454.396C454.588 126.846 454.988 126.832 455.29 126.832Z" fill="#201D1F"/>
</g>
<mask id="mask4_1019_16174" style="mask-type:luminance" maskUnits="userSpaceOnUse" x="349" y="146" width="66" height="65">
<path d="M349.594 146.331H414.232V210.969H349.594V146.331Z" fill="white"/>
</mask>
<g mask="url(#mask4_1019_16174)">
<path d="M411.931 178.94C411.931 195.348 398.61 208.67 382.202 208.67C365.794 208.67 352.473 195.348 352.473 178.94C352.473 162.533 365.794 149.211 382.202 149.211C398.61 149.211 411.931 162.533 411.931 178.94Z" fill="white"/>
<path d="M388.011 169.444H376.387V188.433H388.011V169.444Z" fill="#FF5E00"/>
<path d="M378.799 173.658C378.001 175.302 377.586 177.108 377.587 178.936C377.586 180.764 377.999 182.57 378.799 184.215C379.598 185.861 380.761 187.303 382.199 188.432C380.418 189.831 378.279 190.703 376.026 190.944C373.774 191.186 371.499 190.789 369.461 189.798C367.423 188.808 365.705 187.265 364.503 185.343C363.301 183.423 362.664 181.204 362.664 178.938C362.664 176.672 363.301 174.452 364.503 172.532C365.705 170.61 367.423 169.067 369.461 168.077C371.499 167.087 373.774 166.69 376.026 166.931C378.279 167.173 380.418 168.044 382.199 169.443C380.762 170.572 379.6 172.014 378.799 173.658Z" fill="#EB001B"/>
<path d="M401.357 185.951V186.422H401.274V186.066L401.143 186.371H401.052L400.921 186.066V186.422H400.835V185.951H400.955L401.096 186.288L401.236 185.951H401.357ZM400.583 186.033V186.422H400.509V186.033H400.352V185.951H400.75V186.033H400.583Z" fill="#F69D1B"/>
<path d="M399.897 185.348C401.1 183.427 401.737 181.207 401.737 178.941V178.938C401.737 176.672 401.1 174.451 399.897 172.531C398.695 170.61 396.977 169.067 394.939 168.077C392.901 167.087 390.626 166.69 388.372 166.931C386.12 167.174 383.981 168.045 382.199 169.445C383.636 170.576 384.799 172.017 385.599 173.661C386.398 175.305 386.813 177.111 386.813 178.939C386.813 180.767 386.398 182.573 385.599 184.217C384.799 185.861 383.636 187.303 382.199 188.433C383.981 189.833 386.12 190.704 388.372 190.947C390.626 191.189 392.901 190.792 394.939 189.801C396.977 188.811 398.695 187.268 399.897 185.348Z" fill="#F69D1B"/>
</g>
<path d="M193.528 95.1121L171.539 42.7373" stroke="#8B8B8B" stroke-width="1.50968" stroke-dasharray="3.02 3.02"/>
<path d="M281.091 125.997L344.367 101.98" stroke="#8B8B8B" stroke-width="1.50968" stroke-dasharray="3.02 3.02"/>
<mask id="mask5_1019_16174" style="mask-type:luminance" maskUnits="userSpaceOnUse" x="241" y="13" width="65" height="65">
<path d="M241.141 13.6396H305.021V77.52H241.141V13.6396Z" fill="white"/>
</mask>
<g mask="url(#mask5_1019_16174)">
<path d="M303.099 45.8699C303.099 62.2776 289.778 75.5993 273.37 75.5993C256.962 75.5993 243.641 62.2776 243.641 45.8699C243.641 29.4623 256.962 16.1406 273.37 16.1406C289.778 16.1406 303.099 29.4623 303.099 45.8699Z" fill="white"/>
<path d="M267.125 52.5066H270.549L272.69 39.2637H269.266L267.125 52.5066Z" fill="#00579E"/>
<path d="M279.893 39.0225C281.217 39.0225 282.288 39.3184 282.963 39.5871L282.498 42.4464L282.187 42.306C281.568 42.0373 280.75 41.7701 279.637 41.7988C278.285 41.7988 277.679 42.3755 277.664 42.9386C277.664 43.559 278.398 43.9682 279.595 44.5735C281.568 45.5171 282.483 46.6735 282.47 48.1802C282.442 50.9278 280.104 52.7032 276.511 52.7032C274.974 52.6881 273.495 52.3635 272.691 51.9981L273.17 49.0256L273.621 49.2369C274.734 49.7306 275.468 49.942 276.834 49.942C277.82 49.942 278.877 49.5328 278.89 48.6451C278.89 48.0669 278.44 47.6442 277.116 46.9966C275.819 46.3625 274.086 45.3057 274.115 43.4035C274.129 40.8265 276.511 39.0225 279.893 39.0225Z" fill="#00579E"/>
<path d="M289.098 39.2637H291.747L294.508 52.5066H291.338C291.338 52.5066 291.029 50.9848 290.93 50.5198C290.423 50.5198 286.928 50.5198 286.534 50.5198C286.406 50.8716 285.814 52.5066 285.814 52.5066H282.223L287.309 40.3627C287.661 39.5037 288.281 39.2637 289.098 39.2637ZM288.886 44.1097C288.886 44.1097 287.802 47.0551 287.52 47.8145C288.196 47.8145 289.831 47.8145 290.366 47.8145C290.225 47.1532 289.576 43.9829 289.576 43.9829L289.338 42.8416C289.169 43.3353 288.873 44.1384 288.886 44.1097Z" fill="#00579E"/>
<path d="M260.912 48.294L264.267 39.2646H267.887L262.505 52.4924H258.883L255.812 40.9117C257.982 42.053 259.926 44.3492 260.547 46.4628L260.912 48.294Z" fill="#00579E"/>
<path d="M252.29 39.2646H257.799C258.546 39.2918 259.152 39.5319 259.349 40.3773L260.547 46.4628C259.378 43.2789 256.531 40.6309 252.234 39.5319L252.29 39.2646Z" fill="#FAA61A"/>
</g>
<mask id="mask6_1019_16174" style="mask-type:luminance" maskUnits="userSpaceOnUse" x="130" y="-16" width="60" height="60">
<path d="M130.414 -15.5615H189.291V43.3159H130.414V-15.5615Z" fill="white"/>
</mask>
<g mask="url(#mask6_1019_16174)">
<path d="M189.873 14.1668C189.873 30.5744 176.551 43.8961 160.143 43.8961C143.736 43.8961 130.414 30.5744 130.414 14.1668C130.414 -2.24079 143.736 -15.5625 160.143 -15.5625C176.551 -15.5625 189.873 -2.24079 189.873 14.1668Z" fill="white"/>
<path d="M138.342 16.6169C139.289 16.6169 139.885 16.4357 140.338 16.0206C140.844 15.5662 141.143 14.8536 141.143 14.141C141.143 13.4149 140.844 12.728 140.338 12.2751C139.859 11.8342 139.289 11.6651 138.342 11.6651H137.953V16.6169H138.342ZM136.488 10.3955H138.627C140.999 10.3955 142.645 11.9369 142.66 14.141C142.66 15.2431 142.154 16.3044 141.298 17.0185C140.586 17.6148 139.755 17.8865 138.627 17.8865H136.488V10.3955Z" fill="#231F20"/>
<path d="M144.785 10.3955H143.32V17.8865H144.785V10.3955Z" fill="#231F20"/>
<path d="M147.222 12.327C147.222 12.7285 147.468 12.9489 148.35 13.2735C150.022 13.8819 150.514 14.4148 150.513 15.5939C150.513 17.0447 149.452 18.0562 147.934 18.0562C146.82 18.0562 146.017 17.6154 145.344 16.6295L146.289 15.7222C146.625 16.3699 147.184 16.7201 147.883 16.7201C148.531 16.7201 149.011 16.2793 149.011 15.6709C149.011 15.3599 148.867 15.0866 148.57 14.8934C148.427 14.8028 148.129 14.6715 147.558 14.4647C146.185 13.9725 145.718 13.4547 145.718 12.4175C145.718 11.1992 146.73 10.2783 148.051 10.2783C148.881 10.2783 149.633 10.5636 150.255 11.1086L149.489 12.1065C149.101 11.6793 148.751 11.4981 148.31 11.4981C147.676 11.4981 147.222 11.8605 147.222 12.327Z" fill="#231F20"/>
<path d="M154.921 18.044C152.693 18.044 150.969 16.3456 150.969 14.143C150.969 11.9646 152.743 10.2284 154.947 10.2148C155.582 10.2148 156.114 10.3447 156.748 10.6693V12.3933C156.139 11.797 155.62 11.5509 154.921 11.5509C153.547 11.5509 152.471 12.6771 152.471 14.1158C152.471 15.6331 153.522 16.6959 154.986 16.6959C155.647 16.6959 156.165 16.4619 156.748 15.8792V17.6032C156.087 17.9142 155.543 18.044 154.921 18.044Z" fill="#231F20"/>
<path d="M166.325 10.3975L168.32 15.4262L170.356 10.3975H171.938L168.696 18.0817H167.919L164.73 10.3975H166.325Z" fill="#231F20"/>
<path d="M176.735 17.8865H172.602V10.3955H176.735V11.6651H174.052V13.3243H176.632V14.5954H174.052V16.6169H176.735V17.8865Z" fill="#231F20"/>
<path d="M179.157 13.8421H179.584C180.517 13.8421 181.009 13.4405 181.009 12.6887C181.009 11.9505 180.517 11.5746 179.61 11.5746H179.157V13.8421ZM179.868 10.3955C181.554 10.3955 182.513 11.2122 182.513 12.6117C182.513 13.7515 181.905 14.5048 180.827 14.7373L183.186 17.8865H181.384L179.362 14.8808H179.168V17.8865H177.703V10.3955H179.868Z" fill="#231F20"/>
<path d="M161.205 18.1445C163.401 18.1445 165.183 16.3631 165.183 14.1665C165.183 11.9699 163.401 10.1885 161.205 10.1885C159.008 10.1885 157.227 11.9699 157.227 14.1665C157.227 16.3631 159.008 18.1445 161.205 18.1445Z" fill="url(#paint0_linear_1019_16174)"/>
<g opacity="0.65">
<path d="M161.205 18.1445C163.401 18.1445 165.183 16.3631 165.183 14.1665C165.183 11.9699 163.401 10.1885 161.205 10.1885C159.008 10.1885 157.227 11.9699 157.227 14.1665C157.227 16.3631 159.008 18.1445 161.205 18.1445Z" fill="url(#paint1_linear_1019_16174)"/>
</g>
<path d="M183.149 10.7701H183.175C183.252 10.7701 183.291 10.7444 183.291 10.6931C183.291 10.6282 183.252 10.6025 183.175 10.6025H183.149V10.7701ZM183.199 10.4727C183.356 10.4727 183.447 10.5512 183.447 10.6795C183.447 10.7701 183.395 10.835 183.303 10.8606L183.524 11.1339H183.329L183.148 10.8742V11.1339H182.992V10.4727H183.199Z" fill="#231F20"/>
<path d="M182.772 10.8108C182.772 11.0705 182.981 11.2773 183.227 11.2773C183.473 11.2773 183.681 11.069 183.681 10.8108C183.681 10.5632 183.473 10.3428 183.227 10.3428C182.981 10.3428 182.772 10.5511 182.772 10.8108ZM182.656 10.7972C182.656 10.4862 182.902 10.2266 183.227 10.2266C183.538 10.2266 183.798 10.4862 183.798 10.7972C183.798 11.1082 183.538 11.3679 183.227 11.3679C182.916 11.3679 182.656 11.1218 182.656 10.7972Z" fill="#231F20"/>
</g>
<mask id="mask7_1019_16174" style="mask-type:luminance" maskUnits="userSpaceOnUse" x="35" y="130" width="66" height="66">
<path d="M35.2578 130.828H100.271V195.841H35.2578V130.828Z" fill="white"/>
</mask>
<g mask="url(#mask7_1019_16174)">
<path d="M97.7829 163.625C97.7829 180.032 84.4612 193.354 68.0535 193.354C51.6459 193.354 38.3242 180.032 38.3242 163.625C38.3242 147.217 51.6459 133.896 68.0535 133.896C84.4612 133.896 97.7829 147.217 97.7829 163.625Z" fill="white"/>
<path d="M85.3594 146.311H50.2383V161.114L51.3237 162.309L50.2383 163.559V181.432H85.3594V170.403L83.6218 167.986L85.3594 165.271V146.311Z" fill="#006FD0"/>
<path d="M51.5547 158.028L50.2383 161.097V163.542H51.8642L52.2114 162.672H53.1444L53.4947 163.542H66.7255V162.672L67.432 163.542H70.9903V162.93C70.9903 162.93 71.5942 163.542 72.5392 163.542H74.8989L75.2431 162.672H76.1791L76.5293 163.542H80.0091V162.563L80.6341 163.542H83.0239V158.028H80.6341V159.002L79.9819 158.028H77.6133V159.739L76.878 158.042L72.7566 158.028C71.6591 158.028 70.9903 158.653 70.9903 158.653V158.028H58.2849L57.8531 159.271L57.4092 158.028H54.5786V159.748L53.8313 158.028H51.5547ZM57.056 165.254V170.767H62.8577L63.4932 169.934L64.1183 170.767H67.6222V169.491H68.4103C69.0942 169.491 69.4097 169.283 69.4097 169.283V170.767H71.724V169.899L72.4305 170.767H84.1653C84.8054 170.762 85.3594 170.387 85.3594 170.387V165.254H64.1681L63.5204 166.07L62.8939 165.254H57.056Z" fill="white"/>
<path d="M81.9064 169.176V170.071H84.106C85.0149 170.071 85.4527 169.479 85.4527 168.758C85.4527 168.086 85.0601 167.573 84.1558 167.573H83.1776C82.9239 167.573 82.7971 167.384 82.7971 167.213C82.7971 167.046 82.8998 166.872 83.2319 166.872H84.9711L85.4059 165.942H83.395C82.1887 165.942 81.7751 166.581 81.7751 167.243C81.7751 167.985 82.228 168.48 83.0387 168.48H83.9717C84.2781 168.48 84.411 168.655 84.411 168.829C84.411 169.01 84.2781 169.176 83.9717 169.176H81.9064ZM78.1186 169.176V170.071H80.3182C81.2271 170.071 81.6649 169.479 81.6649 168.758C81.6649 168.086 81.2724 167.573 80.3666 167.573H79.3898C79.1362 167.573 79.0094 167.384 79.0094 167.213C79.0094 167.046 79.112 166.872 79.4441 166.872H81.1818L81.6166 165.942H79.6072C78.401 165.942 77.9873 166.581 77.9873 167.243C77.9873 167.985 78.4387 168.48 79.2509 168.48H80.1839C80.4903 168.48 80.6217 168.655 80.6217 168.829C80.6217 169.01 80.4888 169.176 80.1839 169.176H78.1186ZM72.3109 166.866H71.1319V167.736H72.3275C72.5343 167.736 72.8001 167.576 72.8001 167.301C72.8001 167.088 72.5947 166.866 72.3109 166.866ZM70.0992 170.071V165.942H72.397C73.1578 165.942 73.8402 166.413 73.8402 167.283C73.8402 168.025 73.265 168.504 72.708 168.551L74.0652 170.071H72.8046L71.5666 168.605H71.1319V170.071H70.0992ZM68.0929 166.877H66.9485V167.828H68.0899C68.3903 167.828 68.6016 167.628 68.6016 167.352C68.6016 167.059 68.3903 166.877 68.0929 166.877ZM65.8887 170.073V165.944H68.1699C69.1044 165.944 69.6509 166.546 69.6509 167.333C69.6509 168.281 68.9549 168.768 68.0355 168.768H66.9485V170.073H65.8887ZM62.9056 168.033L61.2661 170.071H62.5478L63.4959 168.8L64.4666 170.071H65.7665L64.1239 168.007L65.7801 165.942H64.5315L63.5276 167.234L62.5282 165.942H61.2269L62.9056 168.033ZM74.272 165.942V170.071H77.6401V169.176H75.3152V168.442H77.5752V167.573H75.3152V166.866H77.6401V165.942H74.272ZM57.7667 165.942V170.071H61.1363V169.176H58.8099V168.442H61.0819V167.573H58.8099V166.866H61.1363V165.942H57.7667ZM78.3028 158.717V162.846H79.3354V160.184L81.0535 162.846H82.3231V158.717H81.2905V161.312L79.6147 158.717H78.3028ZM76.2995 161.123L75.7183 159.678L75.137 161.123H76.2995ZM73.2862 162.847L75.0616 158.718H76.4082L78.1821 162.847H77L76.6754 162.02H74.7702L74.4426 162.847H73.2862ZM72.5887 162.846H72.8151L73.2499 161.944H72.9782C72.3215 161.944 71.8656 161.608 71.8656 160.809C71.8656 160.136 72.2641 159.695 72.8287 159.695H74.0108V158.717H72.8695C71.4806 158.717 70.8194 159.589 70.8194 160.799C70.8194 161.979 71.4881 162.846 72.5887 162.846ZM69.2629 162.846H70.3166V158.717H69.2629V162.846ZM67.3139 159.641H66.1333V160.51H67.329C67.5358 160.51 67.803 160.35 67.803 160.076C67.803 159.863 67.5962 159.641 67.3139 159.641ZM65.1022 162.847V158.718H67.3984C68.1593 158.718 68.8417 159.188 68.8417 160.057C68.8417 160.8 68.2665 161.279 67.7094 161.326L69.0666 162.847H67.806L66.5681 161.38H66.1333V162.847H65.1022ZM61.1363 158.717V162.846H64.5044V161.949H62.178V161.217H64.45V160.347H62.178V159.641H64.5044V158.717H61.1363ZM55.2682 158.717V162.846H56.3008V159.804L57.3983 162.846H58.3026L59.3971 159.804V162.846H60.4298V158.717H58.7993L57.8663 161.386L56.9107 158.723L55.2682 158.717ZM53.2633 161.123L52.6821 159.678L52.1009 161.123H53.2633ZM50.25 162.847L52.0254 158.718H53.372L55.1459 162.847H53.9638L53.6392 162.02H51.734L51.4064 162.847H50.25Z" fill="#006FD0"/>
</g>
<path d="M266.201 195.094C277.736 183.79 284.895 168.033 284.895 150.606C284.895 116.203 257.008 88.3164 222.606 88.3164C188.203 88.3164 160.316 116.203 160.316 150.606C160.316 168.033 167.475 183.788 179.011 195.094C180.025 196.088 181.074 197.048 182.155 197.972C182.586 198.34 183.02 198.704 183.461 199.057C185.046 200.344 186.697 201.551 188.405 202.674C198.223 209.137 209.976 212.895 222.606 212.895C235.236 212.895 246.988 209.137 256.806 202.674C258.515 201.551 260.165 200.342 261.75 199.057C262.191 198.704 262.626 198.34 263.056 197.972C264.137 197.048 265.186 196.088 266.201 195.094Z" fill="#8B8B8B"/>
<path d="M266.201 195.094C277.736 183.79 284.895 168.033 284.895 150.606C284.895 116.203 257.008 88.3164 222.606 88.3164C188.203 88.3164 160.316 116.203 160.316 150.606C160.316 168.033 167.475 183.788 179.011 195.094C180.025 196.088 181.074 197.048 182.155 197.972C182.586 198.34 183.02 198.704 183.461 199.057C185.046 200.344 186.697 201.551 188.405 202.674C198.223 209.137 209.976 212.895 222.606 212.895C235.236 212.895 246.988 209.137 256.806 202.674C258.515 201.551 260.165 200.342 261.75 199.057C262.191 198.704 262.626 198.34 263.056 197.972C264.137 197.048 265.186 196.088 266.201 195.094Z" stroke="#646464" stroke-width="1.50968"/>
<mask id="mask8_1019_16174" style="mask-type:alpha" maskUnits="userSpaceOnUse" x="159" y="87" width="127" height="127">
<path d="M266.201 195.094C277.736 183.79 284.895 168.033 284.895 150.606C284.895 116.203 257.008 88.3164 222.606 88.3164C188.203 88.3164 160.316 116.203 160.316 150.606C160.316 168.033 167.475 183.788 179.011 195.094C180.025 196.088 181.074 197.048 182.155 197.972C182.586 198.34 183.02 198.704 183.461 199.057C185.046 200.344 186.697 201.551 188.405 202.674C198.223 209.137 209.976 212.895 222.606 212.895C235.236 212.895 246.988 209.137 256.806 202.674C258.515 201.551 260.165 200.342 261.75 199.057C262.191 198.704 262.626 198.34 263.056 197.972C264.137 197.048 265.186 196.088 266.201 195.094Z" fill="#8B8B8B"/>
<path d="M266.201 195.094C277.736 183.79 284.895 168.033 284.895 150.606C284.895 116.203 257.008 88.3164 222.606 88.3164C188.203 88.3164 160.316 116.203 160.316 150.606C160.316 168.033 167.475 183.788 179.011 195.094C180.025 196.088 181.074 197.048 182.155 197.972C182.586 198.34 183.02 198.704 183.461 199.057C185.046 200.344 186.697 201.551 188.405 202.674C198.223 209.137 209.976 212.895 222.606 212.895C235.236 212.895 246.988 209.137 256.806 202.674C258.515 201.551 260.165 200.342 261.75 199.057C262.191 198.704 262.626 198.34 263.056 197.972C264.137 197.048 265.186 196.088 266.201 195.094Z" stroke="#646464" stroke-width="1.50968"/>
</mask>
<g mask="url(#mask8_1019_16174)">
<path d="M175.989 223.825C176.586 227.905 175.743 232.149 177.378 236.642V236.625H268.298C268.698 234.4 269.157 232.611 269.296 230.798C269.459 228.754 269.337 226.686 269.337 224.625C269.337 224.353 269.246 223.974 269.385 223.834C270.981 222.193 269.811 220.182 270.139 218.378C270.465 216.58 270.857 214.767 270.931 212.954C271.063 209.797 271.022 206.64 270.955 203.483C270.891 200.286 271.029 197.138 270.253 193.915C269.141 189.317 267.236 185.689 262.664 183.859C259.63 182.648 256.629 181.321 253.636 179.994C248.19 177.571 243.046 174.572 237.903 171.563C237.444 171.291 236.945 171.084 236.471 170.846C239.291 169.824 241.45 167.475 244.281 168.242C247.029 166.098 248.108 163.081 249.752 160.444C251.469 157.692 252.352 154.814 252.189 151.567C252.098 149.656 252.229 147.727 252.155 145.806C252.098 144.248 251.967 142.749 251.518 141.158C250.856 138.818 250.185 136.328 250.48 133.715C250.757 131.276 250.545 128.786 250.537 126.315C250.528 124.419 248.517 118.558 247.462 116.893C245.04 113.078 241.68 110.11 238.401 107.16C237.223 106.088 235.701 105.049 233.789 104.523C231.548 103.913 229.43 102.998 227.042 103.113C226.518 103.138 225.807 103.229 225.496 102.948C224.359 101.918 223.543 102.198 222.339 102.998C221.31 103.689 219.797 102.717 218.512 103.608C217.246 104.489 215.757 104.811 214.106 104.844C211.104 104.901 208.355 106.229 206.074 108.058C200.84 112.261 197.692 117.907 195.746 124.302C194.911 127.047 193.939 129.743 194.119 132.686C194.217 134.235 193.521 135.488 192.458 136.51C191.592 137.35 190.618 138.084 189.711 138.85C190.251 139.814 190.553 140.367 190.872 140.944C190.275 142.172 189.67 143.424 189.074 144.66C190.013 145.205 190.79 145.658 191.477 146.054C191.927 149.325 192.573 152.351 194.936 154.691C195.124 156.077 194.863 157.428 195.623 158.919C196.285 160.213 195.763 162.126 195.763 163.732C196.719 165.035 197.642 166.288 198.257 167.129C201.699 168.151 204.619 169.016 207.538 169.881C207.881 169.618 208.225 169.362 208.764 168.959V171.134C206.507 172.287 204.219 173.162 202.28 174.538C200.064 176.104 197.627 177.118 195.222 178.272C192.834 179.418 190.651 180.885 187.978 181.56C185.582 182.162 183.39 183.604 181.124 184.717C178.761 185.872 176.945 187.882 176.267 190.206C175.367 193.289 174.173 196.388 174.467 199.783C174.958 205.42 173.814 211.107 175.236 216.753C175.808 219.004 175.637 221.452 175.989 223.825Z" fill="#1F1F1F"/>
</g>
</g>
<defs>
<linearGradient id="paint0_linear_1019_16174" x1="163.244" y1="17.3594" x2="160.486" y2="13.0418" gradientUnits="userSpaceOnUse">
<stop stop-color="#F89F20"/>
<stop offset="0.13" stop-color="#F79C20"/>
<stop offset="0.25" stop-color="#F79A20"/>
<stop offset="0.39" stop-color="#F69320"/>
<stop offset="0.53" stop-color="#F68D20"/>
<stop offset="0.58" stop-color="#F58A20"/>
<stop offset="0.62" stop-color="#F58720"/>
<stop offset="0.67" stop-color="#F58420"/>
<stop offset="0.72" stop-color="#F48120"/>
<stop offset="0.86" stop-color="#F47B21"/>
<stop offset="1" stop-color="#F37521"/>
</linearGradient>
<linearGradient id="paint1_linear_1019_16174" x1="162.808" y1="17.3006" x2="158.779" y2="9.42307" gradientUnits="userSpaceOnUse">
<stop stop-color="#F58720"/>
<stop offset="0.18" stop-color="#EB7B24"/>
<stop offset="0.36" stop-color="#E16F27"/>
<stop offset="0.53" stop-color="#DB682A"/>
<stop offset="0.7" stop-color="#D4602C"/>
<stop offset="0.84" stop-color="#D25E2D"/>
<stop offset="0.98" stop-color="#D05B2E"/>
</linearGradient>
</defs>
</svg>
