<svg width="148" height="39" viewBox="0 0 148 39" fill="none" xmlns="http://www.w3.org/2000/svg">
<g clip-path="url(#clip0_18457_290)">
<path fill-rule="evenodd" clip-rule="evenodd" d="M62.2297 0C58.7725 0 56.5213 1.13301 54.5113 4.93667L45.3457 22.3364V6.87897C45.3457 2.26601 43.1749 0 39.1549 0C35.1349 0 33.4465 1.37579 31.4365 5.26039L22.7532 22.3364V7.04083C22.7532 2.10416 20.7432 0 15.8388 0H5.86921C2.0904 0 0 1.78044 0 5.0176C0 8.25477 2.01 10.1971 5.70841 10.1971H9.80882V29.701C9.80882 35.2041 13.5072 38.4413 18.8136 38.4413C24.12 38.4413 26.532 36.3372 29.1852 31.4005L34.9741 20.4751V29.701C34.9741 35.1232 38.5117 38.4413 43.8985 38.4413C49.2853 38.4413 51.2953 36.5799 54.3505 31.4005L67.6969 8.74034C70.5913 3.80367 68.5813 0 62.1493 0C62.1493 0 62.1493 0 62.2297 0Z" fill="#873EFF"/>
<path fill-rule="evenodd" clip-rule="evenodd" d="M87.3139 0C76.3792 0 68.0978 8.17403 68.0978 19.2616C68.0978 30.3491 76.4596 38.4422 87.3139 38.4422C98.1681 38.4422 106.45 30.2682 106.53 19.2616C106.53 8.17403 98.1681 0 87.3139 0ZM87.3139 26.6263C83.2134 26.6263 80.3993 23.5509 80.3993 19.2616C80.3993 14.9722 83.2134 11.8159 87.3139 11.8159C91.4144 11.8159 94.2284 14.9722 94.2284 19.2616C94.2284 23.5509 91.4948 26.6263 87.3139 26.6263Z" fill="#873EFF"/>
<path fill-rule="evenodd" clip-rule="evenodd" d="M128.398 0C117.543 0 109.182 8.17403 109.182 19.2616C109.182 30.3491 117.543 38.4422 128.398 38.4422C139.252 38.4422 147.614 30.2682 147.614 19.2616C147.614 8.25496 139.252 0 128.398 0ZM128.398 26.6263C124.217 26.6263 121.564 23.5509 121.564 19.2616C121.564 14.9722 124.297 11.8159 128.398 11.8159C132.498 11.8159 135.312 14.9722 135.312 19.2616C135.312 23.5509 132.579 26.6263 128.398 26.6263Z" fill="#873EFF"/>
</g>
<defs>
<clipPath id="clip0_18457_290">
<rect width="147.615" height="38.4413" fill="white"/>
</clipPath>
</defs>
</svg>
