<svg width="175" height="48" viewBox="0 0 175 48" fill="none" xmlns="http://www.w3.org/2000/svg">
<path d="M40.9563 32.3896L40.9318 32.3116L56.4411 18.1132V11.2721H31.559V18.1132H46.4212L46.4457 18.1787L31.0879 32.3896V39.2306H56.691V32.3896H40.9563ZM71.9665 10.6208C69.0965 10.6208 66.7575 11.0535 64.9495 11.9194C63.2653 12.6737 61.8468 13.917 60.8776 15.4874C59.9505 17.0681 59.3684 18.8272 59.1695 20.649L66.7192 21.71C66.9924 20.1013 67.5385 18.9612 68.3578 18.2893C69.196 17.6569 70.2096 17.3062 71.2534 17.2817L71.6022 17.2857C73.1346 17.2857 74.2462 17.6953 74.9365 18.5146C75.6212 19.334 75.9693 20.4688 75.9693 21.9639V22.7095H68.7102C65.015 22.7095 62.3605 23.5288 60.7466 25.1673C59.1325 26.806 58.3268 28.969 58.3296 31.6562C58.3296 34.4091 59.1353 36.4574 60.7466 37.801C62.3579 39.1445 64.3843 39.8124 66.8257 39.8042C69.8544 39.8042 72.1844 38.7623 73.8144 36.6785C74.7776 35.398 75.4652 33.9322 75.8339 32.373H76.1082L77.1488 39.2143H83.9897V21.8902C83.9897 18.3099 83.0467 15.5366 81.1595 13.5701C79.2722 11.6039 76.2078 10.6208 71.9665 10.6208ZM74.3594 31.9757C73.2736 32.8811 71.852 33.3317 70.0824 33.3317C68.6241 33.3317 67.6109 33.0763 67.0429 32.5657C66.766 32.324 66.5459 32.0244 66.398 31.6881C66.2499 31.3519 66.1779 30.987 66.1867 30.6198C66.1705 30.2734 66.2251 29.9273 66.3468 29.6027C66.4687 29.278 66.6554 28.9816 66.8953 28.7313C67.1549 28.4878 67.4613 28.2995 67.7957 28.1777C68.0466 28.0865 68.3094 28.0338 68.5749 28.0215L75.9814 28.0226V28.4938C75.9957 29.1596 75.8569 29.82 75.5761 30.4237C75.2946 31.0275 74.8786 31.5584 74.3594 31.9757ZM125.356 11.2721H117.274V39.2347H125.356V11.2721ZM173.076 11.2721C170.793 11.2721 168.993 12.0776 167.677 13.6891C166.732 14.847 166.014 16.558 165.523 18.8219H165.285L164.228 11.2721H157.325V39.2306H165.408V24.8929C165.408 23.0851 165.831 21.6991 166.678 20.7349C167.524 19.7709 169.087 19.2889 171.364 19.2889H174.432V11.2721H173.076ZM149.304 12.1856C147.418 11.0631 145.037 10.5033 142.164 10.5061C137.642 10.5061 134.102 11.7937 131.546 14.369C128.99 16.9443 127.712 20.4947 127.712 25.02C127.647 27.7558 128.244 30.4669 129.453 32.9221C130.559 35.11 132.283 36.9257 134.41 38.1451C136.55 39.3822 139.097 40.0022 142.05 40.0048C144.603 40.0048 146.736 39.6116 148.448 38.8252C150.058 38.1187 151.46 37.0116 152.52 35.6093C153.53 34.2328 154.279 32.6837 154.732 31.0377L147.769 29.0878C147.475 30.1579 146.911 31.1344 146.13 31.9225C145.343 32.7091 144.025 33.1023 142.177 33.1023C139.978 33.1023 138.339 32.4729 137.261 31.2138C136.478 30.3043 135.987 29.0058 135.77 27.3221H154.839C154.917 26.5357 154.958 25.876 154.958 25.3436V23.6026C155.004 21.2635 154.521 18.9445 153.545 16.8187C152.631 14.8821 151.152 13.2671 149.304 12.1856ZM141.931 17.1711C145.208 17.1711 147.066 18.7836 147.506 22.009H135.913C136.097 20.9329 136.543 19.9186 137.211 19.0555C138.274 17.7964 139.847 17.1683 141.931 17.1711ZM121.403 0.00264507C120.795 -0.0181384 120.189 0.0837403 119.621 0.301781C119.053 0.520007 118.535 0.850133 118.097 1.27248C117.666 1.69891 117.327 2.21052 117.104 2.77464C116.925 3.22612 116.823 3.70321 116.8 4.18643L116.799 4.54977C116.777 5.16009 116.881 5.76838 117.105 6.33658C117.329 6.90497 117.668 7.42103 118.099 7.85266C118.531 8.28429 119.048 8.62221 119.616 8.84544C120.071 9.02414 120.551 9.1262 121.037 9.14847L121.403 9.15014C122.01 9.17297 122.614 9.06942 123.179 8.84582C123.743 8.62221 124.254 8.28355 124.68 7.85155C125.104 7.41491 125.433 6.89737 125.651 6.32991C125.825 5.87601 125.924 5.39762 125.945 4.91366L125.947 4.54977C125.974 3.94612 125.876 3.34321 125.658 2.77965C125.439 2.21608 125.107 1.7041 124.68 1.27656C124.252 0.8492 123.741 0.515366 123.177 0.296769C122.614 0.0779863 122.007 -0.0248188 121.403 0.00264507ZM104.706 10.5061C101.953 10.5061 99.7408 11.3704 98.0699 13.0992C96.8324 14.38 95.9242 16.2917 95.3456 18.8343H95.0877L94.0307 11.2843H87.1282V47.2679H95.2102V32.4469H95.5052C95.7516 33.435 96.0975 34.3959 96.5373 35.3144C97.2213 36.8107 98.3427 38.0647 99.7536 38.9111C101.216 39.7094 102.864 40.1065 104.53 40.0622C107.914 40.0622 110.49 38.7446 112.26 36.1092C114.029 33.4738 114.915 29.7964 114.915 25.0773C114.915 20.5192 114.058 16.9512 112.346 14.3731C110.634 11.795 108.087 10.5061 104.706 10.5061ZM105.525 30.7673C104.646 32.0418 103.303 32.7213 101.495 32.8063L101.101 32.8154C100.274 32.8537 99.4485 32.6942 98.6951 32.3502C97.941 32.006 97.28 31.4873 96.7673 30.8369C95.7208 29.5233 95.1994 27.725 95.2024 25.4418V24.9094C95.2024 22.5907 95.7236 20.8156 96.7673 19.5838C97.81 18.3522 99.2551 17.7432 101.101 17.7567C103.144 17.7567 104.628 18.4055 105.554 19.7026C106.48 20.9999 106.943 22.8091 106.943 25.1306C106.948 27.5311 106.479 29.4099 105.533 30.7673H105.525Z" fill="white"/>
<path d="M27.9633 32.3906H0V39.24H27.9633V32.3906Z" fill="#FF4F00"/>
</svg>
