<svg width="375" height="251" viewBox="0 0 375 251" fill="none" xmlns="http://www.w3.org/2000/svg">
<g clip-path="url(#clip0_18495_143)">
<rect width="375" height="251" fill="url(#paint0_linear_18495_143)"/>
<path d="M740.076 94.8906C740.076 124.292 492.903 148.126 188.001 148.126C-116.902 148.126 -364.075 124.292 -364.075 94.8906" stroke="url(#paint1_linear_18495_143)" stroke-width="0.328616" stroke-dasharray="1.31 1.31"/>
<path d="M740.076 206.953C740.076 177.552 492.903 153.717 188.001 153.717C-116.902 153.717 -364.075 177.552 -364.075 206.953" stroke="url(#paint2_linear_18495_143)" stroke-width="0.328616" stroke-dasharray="1.31 1.31"/>
<path d="M529.762 87.6641C529.762 117.065 376.751 140.9 188.001 140.9C-0.747956 140.9 -153.76 117.065 -153.76 87.6641" stroke="url(#paint3_linear_18495_143)" stroke-width="0.328616" stroke-dasharray="1.31 1.31"/>
<path d="M529.762 213.523C529.762 184.122 376.751 160.288 188.001 160.288C-0.747956 160.288 -153.76 184.122 -153.76 213.523" stroke="url(#paint4_linear_18495_143)" stroke-width="0.328616" stroke-dasharray="1.31 1.31"/>
<path d="M457.466 77.4766C457.466 108.693 336.823 133.999 188.001 133.999C39.1794 133.999 -81.4644 108.693 -81.4644 77.4766" stroke="url(#paint5_linear_18495_143)" stroke-width="0.328616" stroke-dasharray="1.31 1.31"/>
<path d="M424.604 70.9062C424.604 102.122 318.673 127.428 188 127.428C57.3276 127.428 -48.6035 102.122 -48.6035 70.9062" stroke="url(#paint6_linear_18495_143)" stroke-width="0.328616" stroke-dasharray="1.31 1.31"/>
<path d="M457.466 220.422C457.466 191.021 336.823 167.186 188.001 167.186C39.1794 167.186 -81.4644 191.021 -81.4644 220.422" stroke="url(#paint7_linear_18495_143)" stroke-width="0.328616" stroke-dasharray="1.31 1.31"/>
<path d="M424.604 226.992C424.604 197.591 318.673 173.756 188 173.756C57.3276 173.756 -48.6035 197.591 -48.6035 226.992" stroke="url(#paint8_linear_18495_143)" stroke-width="0.328616" stroke-dasharray="1.31 1.31"/>
<circle cx="187.91" cy="153.629" r="49.0897" fill="#D4D9FF"/>
<circle cx="187.912" cy="153.622" r="36.8173" fill="#B2B9FC"/>
<circle cx="187.91" cy="153.624" r="26.9993" fill="#3448FF"/>
<rect x="-1.34961" y="106.562" width="19.5944" height="19.5944" rx="9.7972" transform="rotate(9.46538 -1.34961 106.562)" fill="#323232"/>
<g clip-path="url(#clip1_18495_143)">
<path d="M2.8993 118.164L6.13411 115.913C6.34891 115.766 6.53125 115.579 6.67051 115.361C6.80976 115.144 6.90315 114.902 6.94524 114.648C7.02968 114.142 6.90709 113.623 6.60389 113.202L3.36903 115.452C3.15422 115.6 2.97188 115.787 2.83262 116.005C2.69337 116.222 2.59998 116.464 2.5579 116.718C2.46943 117.249 2.60783 117.76 2.8993 118.164ZM9.90186 117.701L6.66706 119.952C6.45225 120.099 6.26991 120.287 6.13066 120.504C5.9914 120.721 5.89801 120.964 5.85593 121.217C5.77149 121.723 5.89409 122.242 6.1973 122.663L9.43211 120.413C9.64691 120.266 9.82926 120.078 9.96852 119.861C10.1078 119.644 10.2012 119.401 10.2433 119.147C10.3317 118.617 10.1933 118.106 9.90186 117.701L9.90186 117.701ZM10.0718 116.576C10.2867 116.429 10.469 116.241 10.6083 116.024C10.7475 115.806 10.8409 115.564 10.883 115.31C10.9674 114.805 10.8448 114.285 10.5416 113.864L2.72839 119.295C2.30901 119.587 2.00569 120.03 1.9163 120.566C1.83187 121.072 1.95449 121.591 2.25771 122.012L10.0718 116.576V116.576Z" fill="white"/>
</g>
<rect x="-3.25537" y="149.023" width="17.98" height="17.98" rx="8.99" transform="rotate(-2.84926 -3.25537 149.023)" fill="#323232"/>
<g clip-path="url(#clip2_18495_143)">
<path d="M10.2085 154.835L10.4462 159.611L9.32461 160.349L9.08718 155.578L6.11349 154.014L3.30802 155.866L3.55282 160.638L2.36521 160.013L2.12769 155.241L6.05293 152.65L10.2085 154.835ZM7.01549 160.464L6.45666 160.836L5.86021 160.525L5.6226 155.751L4.50292 156.491L4.74226 161.263L6.52278 162.201L8.20503 161.091L7.96741 156.317L6.77797 155.691L7.01549 160.464V160.464Z" fill="white"/>
</g>
<rect x="22.3762" y="182.555" width="23.989" height="23.989" rx="11.9945" transform="rotate(-7.68112 22.3762 182.555)" fill="#323232"/>
<path d="M31.719 198.641L31.5195 197.162L32.8437 196.983L31.896 189.957L30.5718 190.136L30.3723 188.656L35.7406 187.932C38.21 187.599 39.8461 188.383 40.0747 190.078C40.2243 191.187 39.5684 191.997 38.6436 192.436C40.0851 192.586 41.1636 193.288 41.3216 194.459C41.5668 196.278 40.0577 197.517 37.3736 197.879L31.719 198.641ZM33.757 189.706L34.1228 192.418L36.1269 192.148C37.63 191.945 38.3509 191.346 38.2345 190.483C38.1139 189.589 37.2643 189.233 35.7611 189.436L33.757 189.706ZM34.7088 196.763L36.9993 196.454C38.7529 196.218 39.5811 195.604 39.4481 194.618C39.3193 193.662 38.3181 193.264 36.4571 193.515L34.3098 193.805L34.7088 196.763V196.763Z" fill="white"/>
<g clip-path="url(#clip3_18495_143)">
<rect x="105.591" y="125.781" width="10.0044" height="10.0044" rx="5.0022" transform="rotate(6.08073 105.591 125.781)" fill="#323232"/>
<path d="M112.446 134.651L112.091 134.613C112.061 134.61 112.031 134.598 112.007 134.578L111.24 133.898C111.216 133.877 111.186 133.865 111.156 133.862L107.751 133.499C107.371 133.455 107.097 133.111 107.137 132.729L107.556 128.798C107.597 128.413 107.938 128.134 108.318 128.175L111.256 128.488C111.637 128.528 111.911 128.872 111.87 129.258L111.832 129.613C111.823 129.696 111.885 129.774 111.967 129.782L112.421 129.831C112.802 129.871 113.076 130.215 113.035 130.601L112.618 134.514C112.605 134.597 112.528 134.66 112.446 134.651ZM107.819 132.944L111.393 133.325C111.423 133.328 111.452 133.34 111.476 133.36L111.988 133.813C112.044 133.864 112.135 133.829 112.144 133.75L112.484 130.551C112.493 130.468 112.432 130.39 112.349 130.382L111.904 130.334C111.822 130.325 111.745 130.388 111.736 130.471L111.517 132.527C111.508 132.61 111.431 132.673 111.349 132.664L108.632 132.375C108.55 132.366 108.488 132.288 108.497 132.205L108.775 129.597C108.784 129.514 108.861 129.451 108.943 129.46L111.119 129.692C111.201 129.701 111.278 129.638 111.287 129.555L111.324 129.209C111.332 129.125 111.271 129.048 111.188 129.039L108.268 128.728C108.186 128.719 108.109 128.782 108.1 128.865L107.684 132.774C107.675 132.862 107.732 132.935 107.819 132.944ZM109.159 131.868L110.941 132.058C110.985 132.062 111.019 132.03 111.023 131.991L111.199 130.334C111.204 130.291 111.173 130.256 111.134 130.252L109.351 130.062C109.308 130.058 109.274 130.089 109.27 130.129L109.093 131.785C109.089 131.829 109.12 131.864 109.159 131.868Z" fill="white"/>
</g>
<g clip-path="url(#clip4_18495_143)">
<rect x="346.013" y="180.008" width="20.0343" height="20.0343" rx="10.0172" transform="rotate(8.34151 346.013 180.008)" fill="#323232"/>
<path d="M358.62 194.62C358.508 194.516 358.343 194.498 358.206 194.566C358.068 194.633 357.992 194.79 358.016 194.942C358.041 195.094 358.157 195.219 358.307 195.248C358.457 195.276 358.607 195.211 358.687 195.081C358.776 194.932 358.751 194.733 358.62 194.62C358.768 194.756 358.479 194.485 358.62 194.62Z" fill="white"/>
<path d="M354.089 197.136C354.159 197.146 354.236 197.157 354.307 197.162C354.455 197.177 354.603 197.187 354.747 197.19C354.866 197.195 354.502 197.184 354.747 197.19C354.896 197.194 354.994 197.348 354.943 197.492C354.915 197.555 354.861 197.601 354.798 197.622C354.754 197.634 354.713 197.628 354.671 197.628C354.623 197.627 354.569 197.625 354.522 197.618C354.13 197.591 353.743 197.529 353.362 197.43C353.015 197.337 352.684 197.221 352.359 197.064C352.045 196.915 351.747 196.738 351.465 196.533C351.178 196.326 350.918 196.094 350.673 195.839C350.391 195.555 350.143 195.24 349.929 194.898C349.714 194.563 349.533 194.203 349.389 193.835C349.241 193.455 349.13 193.063 349.064 192.658C348.992 192.247 348.969 191.831 348.982 191.413C348.996 190.99 349.058 190.568 349.16 190.158C349.261 189.754 349.404 189.356 349.591 188.982C349.771 188.614 349.983 188.269 350.235 187.941C350.48 187.619 350.763 187.326 351.066 187.061C351.368 186.802 351.696 186.57 352.043 186.372C352.396 186.175 352.768 186.011 353.146 185.89C353.536 185.765 353.938 185.685 354.346 185.641C354.761 185.599 355.18 185.605 355.593 185.648C356.006 185.696 356.419 185.787 356.814 185.918C357.197 186.047 357.568 186.217 357.922 186.421C358.27 186.623 358.595 186.865 358.891 187.134C359.188 187.402 359.456 187.702 359.696 188.029C359.796 188.165 359.884 188.299 359.938 188.465C359.984 188.605 359.997 188.759 359.988 188.904C359.962 189.203 359.818 189.492 359.586 189.683C359.318 189.911 358.951 190.003 358.614 189.929C358.451 189.893 358.293 189.821 358.159 189.716C358.088 189.664 358.026 189.6 357.976 189.532C357.915 189.456 357.862 189.369 357.801 189.293C357.553 188.978 357.256 188.71 356.922 188.491C356.577 188.27 356.199 188.105 355.805 188.011C355.399 187.915 354.978 187.884 354.563 187.926C354.161 187.97 353.766 188.083 353.393 188.253C353.032 188.424 352.699 188.655 352.412 188.929C352.12 189.207 351.873 189.536 351.683 189.896C351.491 190.263 351.36 190.663 351.3 191.073C351.239 191.489 351.243 191.909 351.321 192.321C351.394 192.721 351.537 193.1 351.731 193.45C351.926 193.801 352.18 194.117 352.476 194.385C352.778 194.66 353.124 194.881 353.502 195.04C353.886 195.205 354.299 195.296 354.715 195.321C355.12 195.344 355.528 195.3 355.922 195.188C355.966 195.176 356.005 195.158 356.047 195.158C356.083 195.157 356.118 195.162 356.152 195.179C356.219 195.213 356.264 195.275 356.271 195.349C356.279 195.417 356.256 195.492 356.201 195.539C356.173 195.565 356.135 195.578 356.097 195.59C356.048 195.601 356.003 195.619 355.954 195.63C355.554 195.735 355.146 195.779 354.735 195.755C354.318 195.736 353.905 195.651 353.517 195.51C353.562 195.577 353.599 195.649 353.636 195.721C353.674 195.794 353.71 195.872 353.742 195.943C353.746 195.956 353.76 195.982 353.76 195.982C353.76 195.982 353.766 195.983 353.778 195.985C353.801 195.988 353.818 195.997 353.841 196C353.882 196.012 353.923 196.018 353.963 196.03C354.132 196.067 354.302 196.092 354.473 196.111C354.811 196.142 355.152 196.144 355.489 196.096C355.814 196.053 356.137 195.973 356.448 195.86C356.752 195.747 357.043 195.607 357.315 195.429C357.382 195.384 357.448 195.339 357.515 195.294C357.575 195.254 357.625 195.201 357.694 195.181C357.814 195.138 357.946 195.175 358.029 195.266C358.117 195.358 358.139 195.495 358.092 195.615C358.065 195.678 358.027 195.728 357.974 195.762C357.908 195.807 357.846 195.859 357.779 195.904C357.513 196.083 357.232 196.242 356.937 196.369C356.636 196.501 356.327 196.602 356.005 196.67C355.676 196.743 355.347 196.78 355.01 196.785C354.668 196.79 354.324 196.763 353.985 196.702C354.003 196.783 354.015 196.864 354.027 196.945C354.033 196.982 354.034 197.019 354.041 197.056C354.039 197.068 354.046 197.099 354.046 197.099L354.089 197.136Z" fill="white"/>
<path d="M357.395 196.647C357.029 196.852 356.638 197.016 356.238 197.13C356.037 197.187 355.833 197.23 355.623 197.267C355.519 197.283 355.415 197.298 355.311 197.308C355.268 197.314 355.22 197.313 355.176 197.331C355.138 197.344 355.11 197.371 355.087 197.404C355.034 197.476 355.033 197.568 355.076 197.642C355.123 197.729 355.21 197.754 355.3 197.749C355.507 197.73 355.716 197.699 355.92 197.656C356.329 197.574 356.732 197.442 357.117 197.271C357.213 197.23 357.31 197.182 357.401 197.134C357.447 197.11 357.498 197.087 357.544 197.063C357.584 197.038 357.628 197.02 357.664 196.982C357.721 196.923 357.735 196.826 357.704 196.748C357.674 196.67 357.598 196.615 357.52 196.61C357.471 196.615 357.428 196.627 357.395 196.647C357.499 196.589 356.722 197.016 357.395 196.647Z" fill="white"/>
<path d="M358.173 196.04C358.107 196.095 358.034 196.149 357.961 196.204C357.903 196.247 357.839 196.283 357.803 196.349C357.746 196.477 357.814 196.63 357.945 196.668C358.026 196.693 358.1 196.672 358.165 196.629C358.237 196.581 358.31 196.527 358.376 196.472C358.435 196.429 358.499 196.386 358.53 196.313C358.551 196.258 358.555 196.187 358.53 196.131C358.473 195.993 358.291 195.947 358.173 196.04C358.276 195.958 358.078 196.117 358.173 196.04Z" fill="white"/>
<path d="M357.306 194.44C357.14 194.582 356.97 194.709 356.789 194.822C356.741 194.849 356.686 194.883 356.638 194.91C356.597 194.932 356.56 194.968 356.534 195.013C356.483 195.102 356.491 195.221 356.555 195.3C356.63 195.394 356.742 195.403 356.845 195.342C356.942 195.287 357.038 195.232 357.129 195.176C357.213 195.119 357.298 195.055 357.383 194.992C357.432 194.957 357.476 194.915 357.526 194.874C357.569 194.839 357.612 194.804 357.645 194.753C357.698 194.65 357.68 194.516 357.596 194.441C357.511 194.373 357.392 194.37 357.306 194.44C357.406 194.358 357.053 194.659 357.306 194.44Z" fill="white"/>
<path d="M354.992 190.344C354.693 190.3 354.387 190.349 354.117 190.49C353.854 190.626 353.637 190.837 353.499 191.097C353.354 191.362 353.295 191.678 353.338 191.983C353.376 192.275 353.504 192.549 353.703 192.765C353.9 192.987 354.17 193.145 354.46 193.207C354.755 193.275 355.07 193.246 355.35 193.125C355.622 193.009 355.849 192.818 356.01 192.568C356.173 192.311 356.255 192.006 356.238 191.698C356.225 191.403 356.112 191.113 355.934 190.881C355.75 190.648 355.496 190.474 355.216 190.383C355.137 190.372 355.065 190.355 354.992 190.344Z" fill="white"/>
</g>
<g clip-path="url(#clip5_18495_143)">
<rect x="339.821" y="99.0938" width="20.0456" height="20.0456" rx="10.0228" transform="rotate(-15.9807 339.821 99.0938)" fill="#323232"/>
<path d="M354.16 106.515C355.316 105.85 356.251 104.464 355.768 102.777C355.176 100.71 353.471 100.132 351.211 100.779C349.214 101.351 348.335 102.618 348.534 104.309L347.542 104.593L349.991 105.691L351.607 103.429L350.483 103.751C350.483 103.751 350.162 102.583 351.633 102.162C352.888 101.802 353.581 102.594 353.799 103.354C354.115 104.459 353.77 105.47 352.359 105.874L349.226 106.771L350.767 112.152L352.741 111.587L351.577 107.525L351.589 107.521C352.02 107.398 352.494 107.429 353.533 108.301L356.097 110.613L358.298 109.983L355.653 107.617C354.964 107.017 354.466 106.633 354.16 106.515Z" fill="white"/>
</g>
<rect x="41.205" y="137.281" width="15.1669" height="15.1669" rx="7.58346" transform="rotate(4.09504 41.205 137.281)" fill="#323232"/>
<g clip-path="url(#clip6_18495_143)">
<path d="M46.9074 146.964C46.7292 147.124 46.7092 147.403 46.8628 147.587C47.0164 147.771 47.2853 147.791 47.4635 147.63L50.3662 145.021C50.7224 144.7 51.2602 144.739 51.5672 145.107C51.8741 145.474 51.8342 146.032 51.478 146.353L48.6312 148.912C48.9378 149.279 49.4752 149.318 49.8314 148.998L49.8321 148.998L52.0344 147.018C52.7471 146.377 52.8269 145.262 52.2128 144.526C51.5987 143.791 50.5232 143.714 49.8109 144.354L46.9074 146.964V146.964ZM51.2449 145.396C51.0913 145.212 50.8225 145.193 50.6444 145.353L47.7414 147.963C47.3855 148.283 46.848 148.245 46.541 147.878L46.5402 147.877C46.3868 147.693 46.1181 147.674 45.9399 147.834L45.9397 147.834C45.7615 147.994 45.7414 148.273 45.8948 148.457L45.8951 148.457C46.5091 149.192 47.5846 149.269 48.297 148.629L51.2001 146.019C51.3784 145.859 51.3983 145.58 51.2449 145.396V145.396ZM46.6296 146.631L49.5323 144.022C49.7104 143.861 49.7303 143.582 49.5769 143.399C49.4235 143.215 49.1548 143.196 48.9768 143.356L46.0735 145.965C45.7175 146.285 45.1797 146.247 44.8727 145.879L44.8726 145.879C44.5656 145.512 44.6052 144.954 44.9612 144.634L44.9618 144.633L47.8089 142.073C47.5021 141.706 46.9646 141.667 46.6082 141.987L46.6078 141.988L44.4059 143.967C43.6934 144.608 43.6135 145.724 44.2275 146.459C44.8418 147.195 45.9168 147.272 46.6296 146.631V146.631ZM45.1952 145.589C45.3486 145.773 45.6173 145.792 45.7953 145.632L48.6986 143.022C49.0547 142.702 49.5922 142.741 49.8992 143.108L49.8996 143.108C50.0531 143.292 50.322 143.312 50.5 143.151C50.6782 142.991 50.6982 142.712 50.5446 142.529C49.9305 141.793 48.8554 141.716 48.1427 142.357L45.2398 144.966C45.0616 145.126 45.0416 145.405 45.195 145.589L45.1952 145.589V145.589Z" fill="white"/>
</g>
<rect x="261.281" y="164.234" width="9.85849" height="9.85849" rx="4.92924" fill="#323232"/>
<g clip-path="url(#clip7_18495_143)">
<path d="M265.827 166.375H264.316L264.316 169.663C264.297 170.323 264.438 170.743 264.511 170.87C265.613 172.944 267.936 172.078 268.427 170.762C268.821 169.71 268.343 168.838 268.054 168.533C267.462 167.782 266.488 167.754 266.075 167.834V169.531C266.341 169.302 266.64 169.396 266.757 169.471C267.24 169.897 266.974 170.302 266.78 170.452C266.117 170.786 265.888 170.252 265.856 169.944L265.827 166.375Z" fill="white"/>
</g>
<rect x="244.193" y="135.047" width="10.3211" height="10.3211" rx="5.16056" transform="rotate(-5.82113 244.193 135.047)" fill="#323232"/>
<g clip-path="url(#clip8_18495_143)">
<path d="M250.989 142.781L252.59 142.383C252.59 142.383 251.901 137.721 251.897 137.689C251.892 137.657 251.864 137.639 251.841 137.637C251.818 137.635 251.367 137.628 251.367 137.628C251.367 137.628 251.092 137.361 250.989 137.26L250.989 142.781ZM250.814 137.207L250.625 137.266C250.602 137.189 250.571 137.114 250.534 137.043C250.4 136.787 250.203 136.651 249.966 136.651L249.965 136.651C249.948 136.651 249.932 136.652 249.916 136.654C249.909 136.645 249.901 136.637 249.894 136.629C249.791 136.518 249.658 136.464 249.499 136.469C249.192 136.478 248.886 136.699 248.639 137.093C248.464 137.37 248.332 137.718 248.294 137.987C247.942 138.097 247.695 138.173 247.69 138.175C247.512 138.23 247.506 138.236 247.483 138.404C247.466 138.53 247 142.129 247 142.129L250.861 142.796L250.861 137.199C250.842 137.2 250.825 137.204 250.814 137.207ZM249.923 137.483L249.272 137.685C249.335 137.444 249.454 137.204 249.601 137.047C249.655 136.988 249.731 136.923 249.822 136.886C249.907 137.063 249.925 137.313 249.923 137.483ZM249.505 136.673C249.577 136.672 249.638 136.687 249.689 136.722C249.606 136.765 249.526 136.826 249.451 136.907C249.256 137.116 249.107 137.441 249.047 137.754C248.861 137.812 248.68 137.868 248.512 137.92C248.618 137.427 249.031 136.687 249.505 136.673ZM248.908 139.481C248.929 139.81 249.793 139.882 249.841 140.651C249.879 141.256 249.52 141.67 249.003 141.703C248.381 141.742 248.039 141.375 248.039 141.375L248.171 140.815C248.171 140.815 248.515 141.075 248.791 141.058C248.971 141.046 249.035 140.9 249.029 140.796C249.001 140.368 248.298 140.393 248.253 139.689C248.216 139.097 248.605 138.497 249.463 138.442C249.794 138.421 249.964 138.506 249.964 138.506L249.767 139.24C249.767 139.24 249.548 139.141 249.289 139.157C248.908 139.181 248.904 139.421 248.908 139.481ZM250.127 137.42C250.125 137.265 250.106 137.048 250.034 136.862C250.267 136.906 250.381 137.169 250.43 137.326C250.34 137.354 250.238 137.385 250.127 137.42L250.127 137.42Z" fill="white"/>
</g>
<g clip-path="url(#clip9_18495_143)">
<rect x="330.291" y="138.273" width="15.1669" height="15.1669" rx="7.58346" fill="#323232"/>
<g clip-path="url(#clip10_18495_143)">
<path d="M342.56 143.914C341.586 143.914 340.95 144.545 340.95 145.587C340.95 146.882 341.924 147.251 342.623 147.251C343.503 147.251 344.006 146.692 344.006 146.692L343.557 146.268C343.317 146.47 343.041 146.592 342.631 146.592C342.089 146.592 341.724 146.293 341.724 145.881H344.144C344.14 145.877 344.562 143.914 342.56 143.914M341.724 145.318C341.724 144.763 342.169 144.498 342.645 144.498C343.121 144.498 343.552 144.772 343.552 145.318H341.724ZM333.65 145.263C333.339 145.225 332.444 145.259 332.444 144.872C332.444 144.645 332.818 144.519 333.165 144.519C333.717 144.519 334.086 144.73 334.188 144.797L334.655 144.355C334.517 144.255 334.006 143.914 333.165 143.914C332.4 143.914 331.71 144.292 331.71 144.898C331.71 145.827 332.898 145.827 333.392 145.873C333.694 145.902 333.966 145.919 333.966 146.196C333.966 146.457 333.548 146.6 333.223 146.6C332.694 146.6 332.378 146.436 332.066 146.171L331.568 146.646C332.026 147.067 332.609 147.251 333.183 147.251C334.073 147.251 334.718 146.882 334.718 146.138C334.718 145.642 334.366 145.347 333.65 145.263M336.203 143.914C335.434 143.914 334.931 144.284 334.842 144.36L335.309 144.801C335.403 144.73 335.719 144.524 336.212 144.524C336.804 144.524 336.982 144.746 336.982 144.999V145.314H335.928C335.536 145.314 334.771 145.406 334.771 146.217C334.771 146.814 335.131 147.251 335.994 147.251C336.426 147.251 336.755 147.117 336.982 146.865V147.188H337.747V145.049C337.743 144.301 337.258 143.914 336.203 143.914ZM336.986 146.02C336.986 146.638 336.519 146.604 336.106 146.604C335.683 146.604 335.416 146.499 335.416 146.222C335.416 145.965 335.634 145.877 336.088 145.877H336.986V146.02ZM340.105 143.981V144.339C339.847 144.057 339.535 143.914 339.108 143.914C338.383 143.914 338.01 144.297 337.885 144.708C337.836 144.86 337.823 145.15 337.823 145.579C337.823 145.982 337.827 146.352 337.974 146.634C338.183 147.029 338.686 147.251 339.108 147.251C339.518 147.251 339.865 147.1 340.105 146.844V147.046C340.105 147.281 340.02 147.436 339.86 147.558C339.7 147.68 339.5 147.756 339.22 147.756C338.966 147.756 338.726 147.626 338.588 147.533L338.072 148.021C338.405 148.277 338.806 148.449 339.233 148.454C339.687 148.458 340.056 148.328 340.376 148.088C340.683 147.861 340.879 147.428 340.879 146.974V143.981H340.105ZM340.105 145.579C340.105 145.827 340.1 146.012 340.078 146.104C340.029 146.31 339.78 146.583 339.326 146.583C339.211 146.583 338.632 146.52 338.566 146.045C338.552 145.948 338.543 145.822 338.543 145.574C338.543 145.204 338.561 145.087 338.579 144.99C338.619 144.805 338.877 144.528 339.326 144.528C339.873 144.528 340.051 144.881 340.078 145.02C340.1 145.12 340.105 145.331 340.105 145.579" fill="white"/>
</g>
</g>
<rect x="92.8301" y="150.18" width="10.2747" height="10.2747" rx="5.13733" transform="rotate(-3.45228 92.8301 150.18)" fill="#323232"/>
<g clip-path="url(#clip11_18495_143)">
<path d="M98.8097 154.05C98.8167 154.166 98.8443 154.341 98.5993 154.455C98.5235 154.49 98.4744 154.549 98.4744 154.549C98.4577 154.273 98.4902 154.17 98.5901 154.105C98.6669 154.055 98.8097 154.05 98.8097 154.05ZM97.8841 154.424L97.6761 155.623L97.3854 154.67C97.3054 154.388 97.1895 154.247 96.9642 154.261C96.7409 154.274 96.6412 154.425 96.5952 154.717L96.4212 155.699L96.0705 154.533C96.0109 154.298 95.7936 154.208 95.6006 154.246L96.2688 156.423C96.2688 156.423 96.4461 156.427 96.5315 156.372C96.6436 156.301 96.6958 156.247 96.7479 155.943C96.7943 155.671 96.9217 154.873 96.9347 154.816C96.9655 154.681 97.0178 154.688 97.0603 154.809C97.0798 154.864 97.3025 155.64 97.3813 155.904C97.4696 156.201 97.5278 156.247 97.6477 156.305C97.7389 156.349 97.9146 156.324 97.9146 156.324L98.3163 154.083C98.1154 154.067 97.9147 154.187 97.8841 154.424ZM98.8315 154.414C98.8315 154.414 98.8014 154.472 98.7279 154.523C98.6806 154.556 98.6348 154.579 98.5859 154.609C98.4663 154.681 98.4859 154.74 98.4973 154.929L98.579 156.284C98.579 156.284 98.7152 156.295 98.8005 156.24C98.9103 156.17 98.9327 156.107 98.9172 155.833L98.8364 154.493L98.8363 154.494L98.8315 154.414V154.414ZM100.21 155.082L100.822 153.939C100.822 153.939 100.533 153.903 100.399 154.052C100.297 154.167 100.216 154.328 99.9962 154.725C99.9928 154.732 99.9509 154.822 99.8896 154.731C99.6279 154.369 99.5243 154.214 99.4086 154.112C99.2582 153.98 98.975 154.05 98.975 154.05L99.7203 155.112L99.1097 156.252C99.1097 156.252 99.4106 156.275 99.5438 156.126C99.632 156.027 99.6763 155.935 99.9342 155.469C99.9841 155.372 100.036 155.456 100.041 155.463C100.303 155.826 100.392 155.961 100.512 156.067C100.663 156.2 100.953 156.141 100.953 156.141L100.21 155.082Z" fill="white"/>
</g>
<rect x="113.404" y="156.984" width="11.1224" height="11.1224" rx="5.56119" transform="rotate(-11.8558 113.404 156.984)" fill="#323232"/>
<g clip-path="url(#clip12_18495_143)">
<path d="M120.399 163.228L119.778 160.271L117.903 163.752L120.399 163.228Z" fill="white"/>
<path d="M119.372 160.153C119.557 159.874 119.624 159.535 119.555 159.21L117.06 159.734C117.128 160.059 117.325 160.343 117.607 160.523C117.889 160.704 118.234 160.766 118.565 160.697C118.895 160.627 119.186 160.432 119.372 160.153Z" fill="white"/>
<path d="M120.994 162.199C120.808 162.478 120.742 162.817 120.81 163.142L123.306 162.618C123.237 162.293 123.041 162.009 122.758 161.829C122.476 161.648 122.132 161.586 121.801 161.655C121.47 161.725 121.179 161.921 120.994 162.199Z" fill="white"/>
<path d="M119.966 159.124L120.587 162.081L122.463 158.6L119.966 159.124Z" fill="white"/>
</g>
<rect x="305.317" y="110.992" width="15.1669" height="15.1669" rx="7.58346" transform="rotate(-8.71188 305.317 110.992)" fill="#323232"/>
<g clip-path="url(#clip13_18495_143)">
<path d="M317.407 119.659C314.253 121.8 311.934 120.769 310.456 120.153C310.364 120.114 310.232 120.2 310.377 120.323C310.911 120.8 312.589 121.89 314.515 121.594C316.443 121.299 317.428 120.071 317.544 119.866C317.658 119.662 317.542 119.577 317.407 119.659L317.407 119.659ZM318.282 118.985C318.173 118.88 317.705 118.929 317.418 119.01C317.131 119.09 316.719 119.336 316.774 119.437C316.8 119.474 316.837 119.45 317.035 119.401C317.234 119.35 317.787 119.193 317.928 119.328C318.07 119.465 317.885 120.249 317.849 120.376C317.815 120.503 317.892 120.523 317.979 120.428C318.064 120.334 318.209 120.102 318.283 119.793C318.356 119.483 318.365 119.065 318.282 118.985L318.282 118.985Z" fill="white"/>
<path fill-rule="evenodd" clip-rule="evenodd" d="M314.613 116.708C314.678 117.133 314.743 117.486 314.586 117.896C314.46 118.229 314.214 118.46 313.907 118.507C313.489 118.571 313.196 118.29 313.124 117.819C312.981 116.889 313.788 116.593 314.577 116.472L314.613 116.708ZM316.12 119.198C316.058 119.273 315.954 119.294 315.866 119.263C315.458 119.018 315.373 118.889 315.129 118.632C314.625 119.334 314.229 119.582 313.453 119.701C312.536 119.841 311.734 119.385 311.561 118.251C311.425 117.366 311.813 116.69 312.45 116.291C313.002 115.939 313.822 115.767 314.443 115.598L314.421 115.457C314.381 115.197 314.354 114.888 314.168 114.687C314.004 114.506 313.737 114.463 313.513 114.497C313.097 114.561 312.759 114.831 312.736 115.286C312.732 115.387 312.675 115.495 312.578 115.515L311.502 115.563C311.41 115.557 311.301 115.5 311.304 115.36C311.352 114.04 312.45 113.476 313.487 113.317C314.018 113.236 314.733 113.271 315.213 113.608C315.82 114.022 315.871 114.691 315.981 115.411L316.241 117.11C316.32 117.621 316.566 117.813 316.807 118.058C316.893 118.145 316.926 118.261 316.849 118.348C316.655 118.568 316.312 118.974 316.124 119.201L316.12 119.198" fill="white"/>
<path d="M317.407 119.659C314.253 121.8 311.934 120.769 310.456 120.153C310.364 120.114 310.232 120.2 310.377 120.323C310.911 120.8 312.589 121.89 314.515 121.594C316.443 121.299 317.428 120.071 317.544 119.866C317.658 119.662 317.542 119.577 317.407 119.659L317.407 119.659ZM318.282 118.985C318.173 118.88 317.705 118.929 317.418 119.01C317.131 119.09 316.719 119.336 316.774 119.437C316.8 119.474 316.837 119.45 317.035 119.401C317.234 119.35 317.787 119.193 317.928 119.328C318.07 119.465 317.885 120.249 317.849 120.376C317.815 120.503 317.892 120.523 317.979 120.428C318.064 120.334 318.209 120.102 318.283 119.793C318.356 119.483 318.365 119.065 318.282 118.985L318.282 118.985Z" fill="white"/>
<path fill-rule="evenodd" clip-rule="evenodd" d="M314.613 116.708C314.678 117.133 314.743 117.486 314.587 117.896C314.46 118.229 314.215 118.46 313.908 118.507C313.489 118.571 313.196 118.29 313.124 117.819C312.982 116.889 313.789 116.593 314.577 116.472L314.613 116.708ZM316.12 119.198C316.058 119.273 315.955 119.294 315.867 119.263C315.459 119.018 315.373 118.889 315.13 118.632C314.625 119.334 314.229 119.582 313.453 119.701C312.536 119.841 311.735 119.385 311.561 118.251C311.425 117.366 311.813 116.69 312.45 116.291C313.003 115.939 313.822 115.767 314.443 115.598L314.422 115.457C314.382 115.197 314.355 114.888 314.169 114.687C314.004 114.506 313.737 114.463 313.513 114.497C313.097 114.561 312.759 114.831 312.736 115.286C312.733 115.387 312.675 115.495 312.578 115.515L311.502 115.563C311.41 115.557 311.301 115.5 311.305 115.36C311.352 114.04 312.451 113.476 313.488 113.317C314.018 113.236 314.733 113.271 315.214 113.608C315.82 114.022 315.871 114.691 315.981 115.411L316.242 117.11C316.32 117.621 316.566 117.813 316.808 118.058C316.893 118.145 316.927 118.261 316.849 118.348C316.655 118.568 316.312 118.974 316.124 119.201L316.12 119.198" fill="white"/>
</g>
<rect x="129.476" y="134.977" width="7.94065" height="7.94065" rx="3.97032" transform="rotate(2.02002 129.476 134.977)" fill="#323232"/>
<g clip-path="url(#clip14_18495_143)">
<path d="M134.641 138.181C134.697 137.878 134.659 137.673 134.504 137.48C134.335 137.263 134.016 137.166 133.603 137.151L132.414 137.109C132.33 137.107 132.259 137.167 132.241 137.252L131.629 140.435C131.62 140.497 131.664 140.554 131.725 140.556L132.461 140.582L132.396 140.908C132.386 140.962 132.423 141.01 132.484 141.013L133.105 141.034C133.182 141.037 133.245 140.985 133.255 140.915L133.414 140.092C133.425 140.022 133.495 139.969 133.564 139.972L133.656 139.975C134.254 139.996 134.738 139.763 134.902 139.05C134.966 138.755 134.952 138.497 134.805 138.319C134.761 138.263 134.708 138.222 134.641 138.181" fill="#636363"/>
<path d="M134.617 138.179C134.673 137.876 134.635 137.672 134.482 137.479C134.314 137.262 133.998 137.165 133.587 137.151L132.409 137.109C132.325 137.106 132.255 137.166 132.236 137.252L131.63 140.432C131.62 140.494 131.663 140.55 131.724 140.552L132.454 140.578L132.67 139.43C132.688 139.345 132.759 139.285 132.842 139.288L133.192 139.3C133.876 139.324 134.418 139.062 134.599 138.241C134.608 138.225 134.608 138.202 134.617 138.179Z" fill="white"/>
<path d="M132.924 138.127C132.934 138.073 133.005 138.005 133.074 138.007L134.003 138.04C134.11 138.044 134.217 138.055 134.308 138.074C134.391 138.093 134.542 138.137 134.616 138.187C134.673 137.884 134.634 137.68 134.481 137.487C134.321 137.263 134.004 137.166 133.592 137.151L132.411 137.109C132.327 137.106 132.256 137.166 132.238 137.252L131.63 140.432C131.62 140.494 131.664 140.55 131.724 140.552L132.456 140.578L132.924 138.127V138.127Z" fill="white"/>
</g>
<g clip-path="url(#clip15_18495_143)">
<rect x="308.002" y="175.445" width="11.7662" height="11.7662" rx="5.88311" transform="rotate(8.66332 308.002 175.445)" fill="#323232"/>
<g clip-path="url(#clip16_18495_143)">
<path d="M309.855 180.671C309.241 180.578 308.69 180.76 308.57 181.546C308.475 182.169 308.76 182.613 309.557 182.735C310.496 182.878 310.65 182.269 310.65 182.269L310.195 182.199C310.195 182.199 310.047 182.517 309.573 182.445C309.187 182.386 308.949 182.083 309.004 181.717L310.742 181.982L310.777 181.753C310.832 181.391 310.688 180.798 309.855 180.671V180.671ZM309.795 180.962C310.162 181.018 310.379 181.282 310.327 181.619L309.059 181.426C309.114 181.068 309.472 180.913 309.795 180.962V180.962Z" fill="white"/>
<path d="M311.033 180.072L310.663 182.499C310.642 182.637 310.603 182.829 310.603 182.829L311.037 182.895C311.037 182.895 311.073 182.758 311.093 182.631C311.093 182.631 311.256 182.999 311.839 183.088C312.452 183.181 312.934 182.819 313.027 182.208C313.113 181.641 312.8 181.126 312.154 181.027C311.548 180.935 311.31 181.233 311.31 181.233L311.477 180.139L311.033 180.072ZM311.996 181.31C312.413 181.374 312.63 181.723 312.567 182.138C312.499 182.583 312.149 182.828 311.776 182.771C311.332 182.703 311.145 182.32 311.203 181.935C311.258 181.576 311.53 181.239 311.996 181.31V181.31Z" fill="white"/>
<path d="M314.262 181.343C313.338 181.203 313.202 181.699 313.19 181.78L313.649 181.85C313.649 181.85 313.718 181.559 314.186 181.63C314.489 181.676 314.704 181.851 314.663 182.118L314.648 182.213L314.109 182.131C313.394 182.022 312.984 182.174 312.919 182.599C312.855 183.017 313.17 183.297 313.642 183.369C314.286 183.467 314.548 183.143 314.548 183.143C314.526 183.285 314.516 183.426 314.516 183.426L314.924 183.488C314.924 183.488 314.935 183.313 314.952 183.202L315.097 182.247C315.193 181.62 314.708 181.411 314.262 181.343V181.343ZM314.605 182.499L314.586 182.625C314.56 182.791 314.396 183.186 313.795 183.095C313.466 183.045 313.35 182.859 313.379 182.669C313.431 182.322 313.907 182.392 314.605 182.499Z" fill="white"/>
<path d="M314.953 181.531L315.471 181.61L315.986 183.21L316.953 181.836L317.422 181.907L315.67 184.349L315.178 184.274L315.68 183.596L314.953 181.531V181.531Z" fill="white"/>
</g>
</g>
<rect x="69.3984" y="116.25" width="15.1669" height="15.1669" rx="7.58346" transform="rotate(11.3563 69.3984 116.25)" fill="#323232"/>
<g clip-path="url(#clip17_18495_143)">
<path d="M78.6607 124.603C78.301 124.821 78.0658 125.347 78.1426 125.762C78.1986 126.066 78.4023 126.149 78.6574 125.969C78.9172 125.786 79.0515 125.522 79.1244 125.159C79.1377 125.029 79.1382 124.927 79.1074 124.786C79.054 124.541 78.8736 124.474 78.6607 124.603Z" fill="white"/>
<path d="M79.7256 123.129L72.09 121.595C71.5706 121.491 71.065 121.827 70.9606 122.347L70.3903 125.187C70.286 125.706 70.6224 126.212 71.1418 126.316L74.749 127.041L74.7638 127.044L76.2244 128.295L76.0638 127.305L78.7774 127.85C79.2968 127.954 79.8027 127.617 79.9071 127.098L80.4774 124.258C80.5818 123.739 80.245 123.233 79.7256 123.129ZM74.3998 126.016C74.3653 126.168 74.3106 126.305 74.1433 126.339C73.9658 126.376 73.8569 126.266 73.7695 126.129C73.4659 125.655 73.336 125.124 73.2643 124.574C73.2568 124.518 73.2512 124.461 73.2388 124.35C72.9885 124.675 72.7755 124.968 72.5433 125.246C72.3845 125.436 72.2135 125.623 72.0212 125.777C71.774 125.976 71.5649 125.9 71.5393 125.584C71.4839 124.898 71.4598 124.209 71.44 123.521C71.43 123.183 71.4544 122.844 71.4697 122.505C71.4801 122.275 71.6227 122.137 71.8293 122.144C72.0583 122.153 72.1681 122.285 72.1633 122.54C72.1508 123.179 72.1404 123.817 72.1296 124.456C72.1291 124.487 72.1349 124.518 72.1402 124.575C72.1884 124.528 72.2244 124.498 72.2533 124.462C72.5878 124.051 72.921 123.639 73.255 123.227C73.3683 123.087 73.4971 122.964 73.6945 123.03C73.8876 123.095 73.8985 123.266 73.905 123.44C73.9205 123.853 73.9441 124.265 74.005 124.676C74.1475 124.313 74.2733 123.941 74.4378 123.588C74.5633 123.317 74.7253 123.062 74.8935 122.815C75.028 122.618 75.2427 122.596 75.4096 122.729C75.5713 122.858 75.5893 123.052 75.4518 123.239C75.041 123.801 74.8277 124.452 74.621 125.104C74.527 125.401 74.4688 125.711 74.3998 126.016ZM77.422 124.844C77.3434 125.271 77.1441 125.636 76.8383 125.941C76.4907 126.288 76.053 126.38 75.6477 126.2C75.2395 126.019 75.019 125.641 75.0378 125.146C75.0579 124.614 75.2492 124.153 75.6154 123.766C76.0044 123.355 76.4554 123.249 76.8921 123.462C77.3157 123.669 77.5371 124.144 77.4557 124.675C77.4471 124.732 77.4333 124.788 77.422 124.844ZM79.8543 125.332C79.7757 125.76 79.576 126.124 79.2703 126.429C78.9227 126.776 78.4853 126.869 78.08 126.689C77.6718 126.508 77.4513 126.129 77.4698 125.634C77.4902 125.103 77.6816 124.641 78.0478 124.254C78.4367 123.844 78.8878 123.738 79.3244 123.951C79.7479 124.157 79.9694 124.633 79.888 125.164C79.8791 125.22 79.8656 125.276 79.8543 125.332Z" fill="white"/>
<path d="M76.2807 124.126C75.921 124.344 75.6858 124.871 75.7626 125.286C75.8186 125.589 76.0223 125.672 76.2774 125.492C76.5372 125.31 76.6717 125.045 76.7446 124.682C76.7576 124.552 76.7581 124.45 76.7274 124.31C76.674 124.065 76.4936 123.997 76.2807 124.126Z" fill="white"/>
</g>
<rect x="290.199" y="145.828" width="15.1669" height="15.1669" rx="7.58346" fill="#323232"/>
<g clip-path="url(#clip18_18495_143)">
<path d="M294.54 156.023H295.843V153.009L293.982 151.68V155.491C293.982 155.785 294.232 156.023 294.54 156.023Z" fill="#636363"/>
<path d="M299.98 156.023H301.283C301.592 156.023 301.842 155.785 301.842 155.491V151.68L299.98 153.009" fill="white"/>
<path d="M299.98 150.771V153.122L301.842 151.766V151.042C301.842 150.371 301.053 149.988 300.502 150.391" fill="white"/>
<path d="M295.843 153.166V150.844L298.015 152.451L300.187 150.844V153.166L298.015 154.773" fill="white"/>
<path d="M293.982 151.042V151.766L295.843 153.122V150.771L295.322 150.391C294.769 149.988 293.982 150.371 293.982 151.042" fill="white"/>
</g>
<rect x="264.896" y="117.055" width="12.3951" height="12.3951" rx="6.19755" transform="rotate(-9.84682 264.896 117.055)" fill="#323232"/>
<g clip-path="url(#clip19_18495_143)">
<path d="M272.306 122.502L273.09 122.366C273.313 122.327 273.433 122.18 273.399 121.983C273.366 121.797 273.202 121.688 272.979 121.727L272.195 121.863C272.169 121.867 272.15 121.893 272.154 121.916L272.25 122.466C272.258 122.491 272.28 122.507 272.306 122.502V122.502ZM272.526 123.771L273.336 123.63C273.585 123.587 273.712 123.435 273.673 123.211C273.64 123.018 273.471 122.886 273.215 122.931L272.405 123.071C272.379 123.076 272.36 123.102 272.364 123.124L272.469 123.731C272.478 123.76 272.5 123.775 272.526 123.771ZM274.563 118.478L272.645 121.194L273.024 121.129C273.615 121.026 274.029 121.337 274.1 121.743C274.155 122.063 273.98 122.334 273.768 122.478C273.733 122.5 273.742 122.552 273.786 122.56C274.071 122.617 274.309 122.864 274.366 123.191C274.446 123.652 274.202 124.074 273.603 124.177L271.96 124.463C271.935 124.467 271.908 124.449 271.904 124.426L271.6 122.675L269.495 125.653C269.467 125.692 269.5 125.748 269.548 125.739L275.67 124.677C275.68 124.675 275.69 124.669 275.696 124.66C275.703 124.651 275.705 124.64 275.703 124.629L274.64 118.5C274.644 118.457 274.588 118.443 274.563 118.478L274.563 118.478Z" fill="white"/>
</g>
<rect x="70.0264" y="163.906" width="15.1669" height="15.1669" rx="7.58346" fill="#323232"/>
<path d="M77.886 175.26C79.0806 175.145 79.7445 174.49 79.8688 173.243C79.9446 172.477 79.787 171.78 79.1564 171.304C78.929 171.128 78.6622 171.007 78.4105 170.866C78.2165 170.754 78.0013 170.678 77.8284 170.537C77.7345 170.46 77.6587 170.275 77.6768 170.157C77.692 170.058 77.8436 169.936 77.9527 169.904C78.1043 169.86 78.2802 169.872 78.4409 169.898C78.835 169.962 79.2261 170.042 79.6324 170.122C79.6324 169.617 79.6263 169.106 79.6354 168.594C79.6384 168.447 79.5869 168.387 79.4595 168.342C78.6622 168.074 77.8497 167.997 77.028 168.173C76.2549 168.336 75.6668 168.754 75.4424 169.601C75.3939 169.78 75.3727 169.965 75.3363 170.147V170.553C75.3484 170.604 75.3697 170.652 75.3757 170.703C75.4454 171.246 75.691 171.687 76.1124 172C76.3247 172.157 76.5702 172.275 76.8007 172.406C77.0008 172.518 77.21 172.617 77.404 172.745C77.5495 172.841 77.6223 173.017 77.5434 173.176C77.4858 173.291 77.3464 173.41 77.2312 173.429C77.0099 173.464 76.7764 173.454 76.5521 173.416C76.1913 173.358 75.8365 173.263 75.4576 173.179C75.4576 173.748 75.4515 174.301 75.4636 174.847C75.4667 174.902 75.5576 174.988 75.6213 175.004C76.3611 175.224 77.1129 175.333 77.886 175.26Z" fill="white"/>
<path d="M199.969 150.801C200.056 150.926 200.121 151.131 200.112 151.453C200.103 151.774 200.022 152.173 199.866 152.643C199.553 153.582 198.96 154.726 198.167 155.947C196.678 158.24 194.534 160.728 192.387 162.537L189.57 158.494C189.75 158.335 189.996 158.117 190.29 157.846C190.939 157.248 191.826 156.397 192.784 155.387C194.687 153.377 196.909 150.69 198.04 148.073L198.051 148.048L199.969 150.801ZM188.206 158.286C185.616 160.054 183.592 160.786 182.136 160.953C180.59 161.13 179.768 160.67 179.474 160.248L178.213 158.438C178.247 158.437 178.291 158.435 178.309 158.432C178.344 158.425 178.37 158.417 178.377 158.414C178.397 158.407 178.413 158.401 178.418 158.398C178.432 158.393 178.445 158.387 178.453 158.383C178.473 158.374 178.498 158.36 178.527 158.346C178.586 158.316 178.67 158.274 178.775 158.22C178.985 158.112 179.283 157.957 179.64 157.771C180.353 157.4 181.303 156.903 182.251 156.406C183.2 155.909 184.148 155.411 184.859 155.038C185.179 154.87 185.45 154.726 185.653 154.62L188.206 158.286ZM186.226 147.32C186.045 147.48 185.8 147.699 185.506 147.97C184.858 148.568 183.969 149.418 183.012 150.429C181.108 152.439 178.888 155.126 177.756 157.742L177.745 157.768L175.827 155.015C175.739 154.89 175.676 154.685 175.685 154.362C175.694 154.041 175.773 153.642 175.93 153.172C176.243 152.233 176.837 151.089 177.629 149.868C179.118 147.575 181.261 145.085 183.408 143.276L186.226 147.32ZM193.66 144.861C195.206 144.684 196.028 145.144 196.323 145.566L197.582 147.376C197.549 147.377 197.505 147.38 197.488 147.383C197.453 147.389 197.427 147.399 197.419 147.401C197.4 147.408 197.383 147.415 197.378 147.417C197.365 147.423 197.352 147.428 197.343 147.433C197.324 147.442 197.298 147.454 197.269 147.469C197.21 147.498 197.127 147.542 197.022 147.596C196.812 147.704 196.513 147.858 196.157 148.044C195.443 148.415 194.494 148.912 193.545 149.409C192.597 149.906 191.649 150.403 190.938 150.776C190.618 150.944 190.345 151.087 190.143 151.193L187.589 147.528C190.18 145.761 192.204 145.028 193.66 144.861Z" stroke="white"/>
<rect x="364.346" y="145.5" width="21.6887" height="21.6887" rx="10.8443" fill="#323232"/>
<path d="M379.35 157.04C379.349 157.136 379.311 157.228 379.242 157.295C379.174 157.363 379.082 157.401 378.986 157.401C378.89 157.401 378.797 157.363 378.729 157.295C378.661 157.228 378.622 157.136 378.621 157.04V153.759C378.622 153.663 378.661 153.571 378.729 153.504C378.797 153.436 378.89 153.398 378.986 153.398C379.082 153.398 379.174 153.436 379.242 153.504C379.311 153.571 379.349 153.663 379.35 153.759V157.04ZM379.223 159.323C379.167 159.371 377.816 160.505 375.338 160.505C372.861 160.505 371.509 159.371 371.453 159.323C371.38 159.26 371.334 159.17 371.327 159.074C371.319 158.978 371.351 158.882 371.413 158.809C371.476 158.735 371.566 158.69 371.662 158.682C371.758 158.675 371.853 158.706 371.927 158.768C371.948 158.786 373.155 159.776 375.338 159.776C377.549 159.776 378.736 158.779 378.748 158.769C378.901 158.638 379.132 158.656 379.263 158.809C379.326 158.882 379.357 158.978 379.349 159.074C379.342 159.17 379.297 159.26 379.223 159.323ZM371.326 153.759C371.327 153.663 371.366 153.571 371.434 153.504C371.502 153.436 371.594 153.398 371.69 153.398C371.786 153.398 371.879 153.436 371.947 153.504C372.015 153.571 372.054 153.663 372.055 153.759V157.04C372.054 157.136 372.015 157.228 371.947 157.295C371.879 157.363 371.786 157.401 371.69 157.401C371.594 157.401 371.502 157.363 371.434 157.295C371.366 157.228 371.327 157.136 371.326 157.04V153.759ZM373.149 153.03C373.151 152.934 373.19 152.843 373.258 152.775C373.327 152.708 373.418 152.67 373.514 152.67C373.61 152.67 373.702 152.708 373.77 152.775C373.838 152.843 373.878 152.934 373.879 153.03V157.903C373.878 157.998 373.838 158.09 373.77 158.157C373.702 158.224 373.61 158.262 373.514 158.262C373.418 158.262 373.327 158.224 373.258 158.157C373.19 158.09 373.151 157.998 373.149 157.903V153.03ZM374.973 152.845C374.973 152.797 374.983 152.75 375.001 152.705C375.019 152.661 375.046 152.621 375.08 152.587C375.114 152.553 375.154 152.526 375.198 152.508C375.243 152.49 375.29 152.48 375.338 152.48C375.386 152.48 375.433 152.49 375.478 152.508C375.522 152.526 375.562 152.553 375.596 152.587C375.63 152.621 375.657 152.661 375.675 152.705C375.693 152.75 375.703 152.797 375.703 152.845V158.134C375.702 158.23 375.663 158.322 375.595 158.39C375.526 158.457 375.434 158.495 375.338 158.495C375.242 158.495 375.15 158.457 375.082 158.39C375.013 158.322 374.974 158.23 374.973 158.134V152.845ZM376.797 153.03C376.799 152.934 376.838 152.843 376.906 152.775C376.974 152.708 377.066 152.67 377.162 152.67C377.258 152.67 377.35 152.708 377.418 152.775C377.486 152.843 377.525 152.934 377.527 153.03V157.903C377.525 157.998 377.486 158.09 377.418 158.157C377.35 158.224 377.258 158.262 377.162 158.262C377.066 158.262 376.974 158.224 376.906 158.157C376.838 158.09 376.799 157.998 376.797 157.903V153.03ZM379.442 151.023H371.234C370.479 151.023 369.867 151.636 369.867 152.391V160.598C369.867 161.354 370.479 161.966 371.234 161.966H379.442C380.197 161.966 380.809 161.354 380.809 160.598V152.391C380.809 151.636 380.197 151.023 379.442 151.023Z" fill="white"/>
</g>
<defs>
<linearGradient id="paint0_linear_18495_143" x1="375" y1="0" x2="171.79" y2="345.477" gradientUnits="userSpaceOnUse">
<stop stop-color="white"/>
<stop offset="1" stop-color="#F4F6F8"/>
</linearGradient>
<linearGradient id="paint1_linear_18495_143" x1="740.076" y1="121.509" x2="-364.075" y2="121.509" gradientUnits="userSpaceOnUse">
<stop stop-color="#97A3B6" stop-opacity="0"/>
<stop offset="0.25" stop-color="#97A3B6" stop-opacity="0.5"/>
<stop offset="0.5" stop-color="#97A3B6"/>
<stop offset="0.75" stop-color="#97A3B6" stop-opacity="0.5"/>
<stop offset="1" stop-color="#97A3B6" stop-opacity="0"/>
</linearGradient>
<linearGradient id="paint2_linear_18495_143" x1="740.076" y1="180.335" x2="-364.075" y2="180.335" gradientUnits="userSpaceOnUse">
<stop stop-color="#97A3B6" stop-opacity="0"/>
<stop offset="0.25" stop-color="#97A3B6" stop-opacity="0.5"/>
<stop offset="0.5" stop-color="#97A3B6"/>
<stop offset="0.75" stop-color="#97A3B6" stop-opacity="0.5"/>
<stop offset="1" stop-color="#97A3B6" stop-opacity="0"/>
</linearGradient>
<linearGradient id="paint3_linear_18495_143" x1="529.762" y1="114.282" x2="-153.76" y2="114.282" gradientUnits="userSpaceOnUse">
<stop stop-color="#97A3B6" stop-opacity="0"/>
<stop offset="0.25" stop-color="#97A3B6" stop-opacity="0.5"/>
<stop offset="0.5" stop-color="#97A3B6"/>
<stop offset="0.75" stop-color="#97A3B6" stop-opacity="0.5"/>
<stop offset="1" stop-color="#97A3B6" stop-opacity="0"/>
</linearGradient>
<linearGradient id="paint4_linear_18495_143" x1="529.762" y1="186.906" x2="-153.76" y2="186.906" gradientUnits="userSpaceOnUse">
<stop stop-color="#97A3B6" stop-opacity="0"/>
<stop offset="0.25" stop-color="#97A3B6" stop-opacity="0.5"/>
<stop offset="0.5" stop-color="#97A3B6"/>
<stop offset="0.75" stop-color="#97A3B6" stop-opacity="0.5"/>
<stop offset="1" stop-color="#97A3B6" stop-opacity="0"/>
</linearGradient>
<linearGradient id="paint5_linear_18495_143" x1="457.466" y1="105.738" x2="-81.4644" y2="105.738" gradientUnits="userSpaceOnUse">
<stop stop-color="#97A3B6" stop-opacity="0"/>
<stop offset="0.25" stop-color="#97A3B6" stop-opacity="0.5"/>
<stop offset="0.5" stop-color="#97A3B6"/>
<stop offset="0.75" stop-color="#97A3B6" stop-opacity="0.5"/>
<stop offset="1" stop-color="#97A3B6" stop-opacity="0"/>
</linearGradient>
<linearGradient id="paint6_linear_18495_143" x1="424.604" y1="99.1672" x2="-48.6035" y2="99.1672" gradientUnits="userSpaceOnUse">
<stop stop-color="#97A3B6" stop-opacity="0"/>
<stop offset="0.25" stop-color="#97A3B6" stop-opacity="0.5"/>
<stop offset="0.5" stop-color="#97A3B6"/>
<stop offset="0.75" stop-color="#97A3B6" stop-opacity="0.5"/>
<stop offset="1" stop-color="#97A3B6" stop-opacity="0"/>
</linearGradient>
<linearGradient id="paint7_linear_18495_143" x1="457.466" y1="193.804" x2="-81.4644" y2="193.804" gradientUnits="userSpaceOnUse">
<stop stop-color="#97A3B6" stop-opacity="0"/>
<stop offset="0.25" stop-color="#97A3B6" stop-opacity="0.5"/>
<stop offset="0.5" stop-color="#97A3B6"/>
<stop offset="0.75" stop-color="#97A3B6" stop-opacity="0.5"/>
<stop offset="1" stop-color="#97A3B6" stop-opacity="0"/>
</linearGradient>
<linearGradient id="paint8_linear_18495_143" x1="424.604" y1="200.374" x2="-48.6035" y2="200.374" gradientUnits="userSpaceOnUse">
<stop stop-color="#97A3B6" stop-opacity="0"/>
<stop offset="0.25" stop-color="#97A3B6" stop-opacity="0.5"/>
<stop offset="0.5" stop-color="#97A3B6"/>
<stop offset="0.75" stop-color="#97A3B6" stop-opacity="0.5"/>
<stop offset="1" stop-color="#97A3B6" stop-opacity="0"/>
</linearGradient>
<clipPath id="clip0_18495_143">
<rect width="375" height="251" fill="white"/>
</clipPath>
<clipPath id="clip1_18495_143">
<rect width="12.5404" height="12.5404" fill="white" transform="translate(1.55151 110.625) rotate(9.46538)"/>
</clipPath>
<clipPath id="clip2_18495_143">
<rect width="10.788" height="10.788" fill="white" transform="translate(0.514038 152.438) rotate(-2.84926)"/>
</clipPath>
<clipPath id="clip3_18495_143">
<rect x="105.591" y="125.781" width="10.0044" height="10.0044" rx="5.0022" transform="rotate(6.08073 105.591 125.781)" fill="white"/>
</clipPath>
<clipPath id="clip4_18495_143">
<rect x="346.013" y="180.008" width="20.0343" height="20.0343" rx="10.0172" transform="rotate(8.34151 346.013 180.008)" fill="white"/>
</clipPath>
<clipPath id="clip5_18495_143">
<rect x="339.821" y="99.0938" width="20.0456" height="20.0456" rx="10.0228" transform="rotate(-15.9807 339.821 99.0938)" fill="white"/>
</clipPath>
<clipPath id="clip6_18495_143">
<rect width="9.70683" height="9.70683" fill="white" transform="translate(43.7336 140.195) rotate(4.09504)"/>
</clipPath>
<clipPath id="clip7_18495_143">
<rect width="4.92924" height="5.96698" fill="white" transform="translate(263.875 166.289)"/>
</clipPath>
<clipPath id="clip8_18495_143">
<rect width="5.63166" height="6.39099" fill="white" transform="translate(246.98 136.438)"/>
</clipPath>
<clipPath id="clip9_18495_143">
<rect x="330.291" y="138.273" width="15.1669" height="15.1669" rx="7.58346" fill="white"/>
</clipPath>
<clipPath id="clip10_18495_143">
<rect width="13.8019" height="5.25786" fill="white" transform="translate(330.947 143.203)"/>
</clipPath>
<clipPath id="clip11_18495_143">
<rect width="5.75381" height="5.75381" fill="white" transform="translate(95.2236 152.297) rotate(-3.45228)"/>
</clipPath>
<clipPath id="clip12_18495_143">
<rect width="6.22854" height="6.22854" fill="white" transform="translate(116.301 158.875) rotate(-11.8558)"/>
</clipPath>
<clipPath id="clip13_18495_143">
<rect width="9.70683" height="9.70683" fill="white" transform="translate(308.429 113.273) rotate(-8.71188)"/>
</clipPath>
<clipPath id="clip14_18495_143">
<rect width="4.76439" height="4.76439" fill="white" transform="translate(131.005 136.625) rotate(2.02002)"/>
</clipPath>
<clipPath id="clip15_18495_143">
<rect x="308.002" y="175.445" width="11.7662" height="11.7662" rx="5.88311" transform="rotate(8.66332 308.002 175.445)" fill="white"/>
</clipPath>
<clipPath id="clip16_18495_143">
<rect width="8.80449" height="8.80449" fill="white" transform="translate(309.243 177.133) rotate(8.66332)"/>
</clipPath>
<clipPath id="clip17_18495_143">
<rect width="9.70682" height="9.70682" fill="white" transform="translate(71.5387 119.469) rotate(11.3563)"/>
</clipPath>
<clipPath id="clip18_18495_143">
<rect width="9.10015" height="9.10015" fill="white" transform="translate(293.157 148.781)"/>
</clipPath>
<clipPath id="clip19_18495_143">
<rect width="6.94126" height="6.94126" fill="white" transform="translate(268.05 119.273) rotate(-9.84682)"/>
</clipPath>
</defs>
</svg>
