<svg width="261" height="144" viewBox="0 0 261 144" fill="none" xmlns="http://www.w3.org/2000/svg">
<g clip-path="url(#clip0_18528_380)">
<circle cx="172.047" cy="86.732" r="86.232" stroke="url(#paint0_linear_18528_380)" stroke-width="1.35773"/>
<ellipse cx="172.038" cy="87.5833" rx="70.4722" ry="71.2552" stroke="#474747" stroke-width="0.630765" stroke-dasharray="1.26 1.26"/>
<ellipse cx="172.038" cy="87.5798" rx="114.264" ry="113.47" stroke="#474747" stroke-width="0.630765" stroke-dasharray="1.26 1.26"/>
<circle cx="171.956" cy="87.498" r="99.1372" transform="rotate(45 171.956 87.498)" stroke="url(#paint1_linear_18528_380)" stroke-width="1.35773"/>
<path d="M285.333 87.5H243.339M58.5629 87.5H100.557" stroke="#474747" stroke-width="0.630765" stroke-dasharray="1.26 1.26"/>
<path d="M228.639 185.686L207.642 149.317M115.254 -10.7031L136.251 25.6652" stroke="#474747" stroke-width="0.630765" stroke-dasharray="1.26 1.26"/>
<path d="M270.142 144.19L233.774 123.193M73.7536 30.8047L110.122 51.8019" stroke="#474747" stroke-width="0.630765" stroke-dasharray="1.26 1.26"/>
<path d="M171.948 200.88L171.948 158.885M171.948 -25.8906L171.948 16.1038" stroke="#474747" stroke-width="0.630765" stroke-dasharray="1.26 1.26"/>
<path d="M281.47 116.841L240.907 105.972M62.427 58.1484L102.991 69.0174" stroke="#474747" stroke-width="0.630765" stroke-dasharray="1.26 1.26"/>
<path d="M201.294 197.02L190.425 156.456M142.602 -22.0234L153.471 18.5401" stroke="#474747" stroke-width="0.630765" stroke-dasharray="1.26 1.26"/>
<path d="M252.124 167.671L222.43 137.976M91.7738 7.32031L121.468 37.0149" stroke="#474747" stroke-width="0.630765" stroke-dasharray="1.26 1.26"/>
<path d="M142.603 197.02L153.472 156.456M201.295 -22.0234L190.426 18.5401" stroke="#474747" stroke-width="0.630765" stroke-dasharray="1.26 1.26"/>
<path d="M115.254 185.686L136.252 149.317M228.639 -10.7031L207.642 25.6652" stroke="#474747" stroke-width="0.630765" stroke-dasharray="1.26 1.26"/>
<path d="M73.7563 144.19L110.125 123.193M270.145 30.8047L233.777 51.8019" stroke="#474747" stroke-width="0.630765" stroke-dasharray="1.26 1.26"/>
<path d="M91.7741 167.671L121.469 137.976M252.125 7.32031L222.43 37.0149" stroke="#474747" stroke-width="0.630765" stroke-dasharray="1.26 1.26"/>
<path d="M62.4275 116.841L102.991 105.972M281.471 58.1484L240.907 69.0174" stroke="#474747" stroke-width="0.630765" stroke-dasharray="1.26 1.26"/>
<g clip-path="url(#clip1_18528_380)">
<rect width="4.12309" height="4.12309" transform="translate(169.032 16.4922) rotate(-45)" fill="#474747"/>
</g>
<g clip-path="url(#clip2_18528_380)">
<rect width="3.78459" height="3.78459" transform="translate(98.8897 87.6484) rotate(-45)" fill="#474747"/>
</g>
<g clip-path="url(#clip3_18528_380)">
<rect width="4.12309" height="4.12309" transform="translate(239.294 87.6641) rotate(-45)" fill="#474747"/>
</g>
<g clip-path="url(#clip4_18528_380)">
<rect width="4.12309" height="4.12309" transform="translate(70.7414 145.648) rotate(-74.9403)" fill="#474747"/>
</g>
<rect x="138.907" y="66.3438" width="65.217" height="42.3029" rx="5.28787" stroke="#3448FF" stroke-width="1.76262" stroke-linecap="round"/>
<rect x="168.872" y="59.2891" width="5.28787" height="10.5757" rx="0.881311" fill="#101010" stroke="#3448FF" stroke-width="1.76262" stroke-linecap="round"/>
<rect x="183.327" y="61.75" width="5.28787" height="10.5757" rx="0.881311" transform="rotate(30 183.327 61.75)" fill="#101010" stroke="#2B3CD5" stroke-width="1.76262" stroke-linecap="round"/>
<rect x="194.616" y="71.1016" width="5.28787" height="10.5757" rx="0.881311" transform="rotate(60 194.616 71.1016)" fill="#101010" stroke="#2330AA" stroke-width="1.76262" stroke-linecap="round"/>
<rect x="199.718" y="84.8516" width="5.28787" height="10.5757" rx="0.881311" transform="rotate(90 199.718 84.8516)" fill="#101010" stroke="#1A2480" stroke-width="1.76262" stroke-linecap="round"/>
<rect x="197.26" y="99.3047" width="5.28787" height="10.5757" rx="0.881311" transform="rotate(120 197.26 99.3047)" fill="#101010" stroke="#0C1038" stroke-width="1.76262" stroke-linecap="round"/>
<rect x="187.906" y="110.594" width="5.28787" height="10.5757" rx="0.881311" transform="rotate(150 187.906 110.594)" fill="#101010" stroke="#3448FF" stroke-width="1.76262" stroke-linecap="round"/>
<rect x="168.872" y="105.117" width="5.28787" height="10.5757" rx="0.881311" fill="#101010" stroke="#3448FF" stroke-width="1.76262" stroke-linecap="round"/>
<rect x="160.413" y="101.438" width="5.28787" height="10.5757" rx="0.881311" transform="rotate(30 160.413 101.438)" fill="#101010" stroke="#2B3CD5" stroke-width="1.76262" stroke-linecap="round"/>
<rect x="154.929" y="94.0156" width="5.28787" height="10.5757" rx="0.881311" transform="rotate(60 154.929 94.0156)" fill="#101010" stroke="#2330AA" stroke-width="1.76262" stroke-linecap="round"/>
<rect x="153.89" y="84.8516" width="5.28787" height="10.5757" rx="0.881311" transform="rotate(90 153.89 84.8516)" fill="#101010" stroke="#1A2480" stroke-width="1.76262" stroke-linecap="round"/>
<rect x="157.573" y="76.3906" width="5.28787" height="10.5757" rx="0.881311" transform="rotate(120 157.573 76.3906)" fill="#101010" stroke="#0C1038" stroke-width="1.76262" stroke-linecap="round"/>
<rect x="164.992" y="70.9062" width="5.28787" height="10.5757" rx="0.881311" transform="rotate(150 164.992 70.9062)" fill="#101010" stroke="#3448FF" stroke-width="1.76262" stroke-linecap="round"/>
</g>
<defs>
<linearGradient id="paint0_linear_18528_380" x1="258.279" y1="86.732" x2="85.8147" y2="86.732" gradientUnits="userSpaceOnUse">
<stop stop-color="#3448FF" stop-opacity="0"/>
<stop offset="0.5" stop-color="#3448FF"/>
<stop offset="1" stop-color="#3448FF" stop-opacity="0"/>
</linearGradient>
<linearGradient id="paint1_linear_18528_380" x1="271.093" y1="87.498" x2="72.8191" y2="87.498" gradientUnits="userSpaceOnUse">
<stop stop-color="#3448FF" stop-opacity="0"/>
<stop offset="0.5" stop-color="#3448FF"/>
<stop offset="1" stop-color="#3448FF" stop-opacity="0"/>
</linearGradient>
<clipPath id="clip0_18528_380">
<rect width="260.088" height="260.088" fill="white" transform="translate(0 -42.5469)"/>
</clipPath>
<clipPath id="clip1_18528_380">
<rect width="4.12309" height="4.12309" fill="white" transform="translate(169.032 16.4922) rotate(-45)"/>
</clipPath>
<clipPath id="clip2_18528_380">
<rect width="3.78459" height="3.78459" fill="white" transform="translate(98.8897 87.6484) rotate(-45)"/>
</clipPath>
<clipPath id="clip3_18528_380">
<rect width="4.12309" height="4.12309" fill="white" transform="translate(239.294 87.6641) rotate(-45)"/>
</clipPath>
<clipPath id="clip4_18528_380">
<rect width="4.12309" height="4.12309" fill="white" transform="translate(70.7414 145.648) rotate(-74.9403)"/>
</clipPath>
</defs>
</svg>
