<svg width="260" height="144" viewBox="0 0 260 144" fill="none" xmlns="http://www.w3.org/2000/svg">
<g clip-path="url(#clip0_18528_494)">
<circle cx="171.995" cy="86.7292" r="86.2057" stroke="url(#paint0_linear_18528_494)" stroke-width="1.35732"/>
<ellipse cx="171.986" cy="87.5773" rx="70.4507" ry="71.2335" stroke="#474747" stroke-width="0.630573" stroke-dasharray="1.26 1.26"/>
<ellipse cx="171.986" cy="87.5765" rx="114.229" ry="113.436" stroke="#474747" stroke-width="0.630573" stroke-dasharray="1.26 1.26"/>
<circle cx="171.904" cy="87.4944" r="99.107" transform="rotate(45 171.904 87.4944)" stroke="url(#paint1_linear_18528_494)" stroke-width="1.35732"/>
<path d="M285.247 87.4922H243.265M58.546 87.4922H100.528" stroke="#474747" stroke-width="0.630573" stroke-dasharray="1.26 1.26"/>
<path d="M228.57 185.657L207.579 149.3M115.219 -10.6719L136.21 25.6853" stroke="#474747" stroke-width="0.630573" stroke-dasharray="1.26 1.26"/>
<path d="M270.061 144.171L233.704 123.18M73.7318 30.8203L110.089 51.8112" stroke="#474747" stroke-width="0.630573" stroke-dasharray="1.26 1.26"/>
<path d="M171.896 200.842L171.896 158.86M171.896 -25.8594L171.896 16.1223" stroke="#474747" stroke-width="0.630573" stroke-dasharray="1.26 1.26"/>
<path d="M281.385 116.831L240.834 105.965M62.4088 58.1562L102.96 69.0219" stroke="#474747" stroke-width="0.630573" stroke-dasharray="1.26 1.26"/>
<path d="M201.234 196.984L190.368 156.433M142.559 -21.9922L153.425 18.559" stroke="#474747" stroke-width="0.630573" stroke-dasharray="1.26 1.26"/>
<path d="M252.048 167.646L222.363 137.96M91.7465 7.34375L121.432 37.0293" stroke="#474747" stroke-width="0.630573" stroke-dasharray="1.26 1.26"/>
<path d="M142.56 196.984L153.426 156.433M201.235 -21.9922L190.369 18.559" stroke="#474747" stroke-width="0.630573" stroke-dasharray="1.26 1.26"/>
<path d="M115.22 185.657L136.211 149.3M228.571 -10.6719L207.58 25.6853" stroke="#474747" stroke-width="0.630573" stroke-dasharray="1.26 1.26"/>
<path d="M73.7349 144.171L110.092 123.18M270.064 30.8203L233.707 51.8112" stroke="#474747" stroke-width="0.630573" stroke-dasharray="1.26 1.26"/>
<path d="M91.7471 167.646L121.433 137.96M252.049 7.34375L222.363 37.0293" stroke="#474747" stroke-width="0.630573" stroke-dasharray="1.26 1.26"/>
<path d="M62.4093 116.831L102.96 105.965M281.386 58.1562L240.835 69.0219" stroke="#474747" stroke-width="0.630573" stroke-dasharray="1.26 1.26"/>
<g clip-path="url(#clip1_18528_494)">
<rect width="4.12124" height="4.12124" transform="translate(168.98 16.5156) rotate(-45)" fill="#474747"/>
</g>
<g clip-path="url(#clip2_18528_494)">
<rect width="3.78289" height="3.78289" transform="translate(98.8597 87.6484) rotate(-45)" fill="#474747"/>
</g>
<g clip-path="url(#clip3_18528_494)">
<rect width="4.12124" height="4.12124" transform="translate(239.222 87.6641) rotate(-45)" fill="#474747"/>
</g>
<g clip-path="url(#clip4_18528_494)">
<rect width="4.12124" height="4.12124" transform="translate(70.7204 145.625) rotate(-74.9403)" fill="#474747"/>
</g>
<path d="M180.044 78.053C179.788 77.3284 179.392 76.6696 178.89 76.1085C177.822 74.9151 176.27 74.1641 174.542 74.1641H170.027C167.151 74.1641 164.82 76.4953 164.82 79.3711C164.82 81.8181 166.524 83.935 168.914 84.4579L175.789 85.9617C178.467 86.5475 180.376 88.9207 180.376 91.662C180.376 94.8837 177.764 97.4975 174.542 97.4975H170.653C168.113 97.4975 165.953 95.8743 165.152 93.6086" stroke="#3448FF" stroke-width="1.77" stroke-linecap="round" stroke-linejoin="round"/>
<path d="M172.598 74.1693V68.3359" stroke="#3448FF" stroke-width="1.77" stroke-linecap="round" stroke-linejoin="round"/>
<path d="M172.598 103.333V97.5" stroke="#3448FF" stroke-width="1.77" stroke-linecap="round" stroke-linejoin="round"/>
<path d="M148.281 119.016V106.516H160.781" stroke="#2330AA" stroke-width="1.77" stroke-linecap="round" stroke-linejoin="round"/>
<path d="M205.229 80.5469C208.339 97.0866 198.218 113.484 181.692 117.912C169.045 121.301 156.14 116.742 148.28 107.297" stroke="#2330AA" stroke-width="1.77" stroke-linecap="round" stroke-linejoin="round"/>
<path d="M141.349 92.5038C138.238 75.9641 148.36 59.5668 164.885 55.1389C177.532 51.7502 190.436 56.308 198.296 65.7517" stroke="#2330AA" stroke-width="1.77" stroke-linecap="round" stroke-linejoin="round"/>
<path d="M198.296 54.0312V66.5313H185.796" stroke="#2330AA" stroke-width="1.77" stroke-linecap="round" stroke-linejoin="round"/>
</g>
<defs>
<linearGradient id="paint0_linear_18528_494" x1="258.201" y1="86.7292" x2="85.789" y2="86.7292" gradientUnits="userSpaceOnUse">
<stop stop-color="#3448FF" stop-opacity="0"/>
<stop offset="0.5" stop-color="#3448FF"/>
<stop offset="1" stop-color="#3448FF" stop-opacity="0"/>
</linearGradient>
<linearGradient id="paint1_linear_18528_494" x1="271.011" y1="87.4944" x2="72.7974" y2="87.4944" gradientUnits="userSpaceOnUse">
<stop stop-color="#3448FF" stop-opacity="0"/>
<stop offset="0.5" stop-color="#3448FF"/>
<stop offset="1" stop-color="#3448FF" stop-opacity="0"/>
</linearGradient>
<clipPath id="clip0_18528_494">
<rect width="260.009" height="260.009" fill="white" transform="translate(0 -42.5078)"/>
</clipPath>
<clipPath id="clip1_18528_494">
<rect width="4.12124" height="4.12124" fill="white" transform="translate(168.98 16.5156) rotate(-45)"/>
</clipPath>
<clipPath id="clip2_18528_494">
<rect width="3.78289" height="3.78289" fill="white" transform="translate(98.8597 87.6484) rotate(-45)"/>
</clipPath>
<clipPath id="clip3_18528_494">
<rect width="4.12124" height="4.12124" fill="white" transform="translate(239.222 87.6641) rotate(-45)"/>
</clipPath>
<clipPath id="clip4_18528_494">
<rect width="4.12124" height="4.12124" fill="white" transform="translate(70.7204 145.625) rotate(-74.9403)"/>
</clipPath>
</defs>
</svg>
