<svg width="261" height="144" viewBox="0 0 261 144" fill="none" xmlns="http://www.w3.org/2000/svg">
<g style="mix-blend-mode:luminosity">
<g clip-path="url(#clip0_18528_859)">
<circle cx="172" cy="86.7316" r="86.2082" stroke="url(#paint0_linear_18528_859)" stroke-width="1.35736"/>
<ellipse cx="171.99" cy="87.5871" rx="70.4527" ry="71.2355" stroke="#BABABA" stroke-width="0.630591" stroke-dasharray="1.26 1.26"/>
<ellipse cx="171.991" cy="87.5797" rx="114.232" ry="113.439" stroke="#BABABA" stroke-width="0.630591" stroke-dasharray="1.26 1.26"/>
<circle cx="171.909" cy="87.4984" r="99.1098" transform="rotate(45 171.909 87.4984)" stroke="url(#paint1_linear_18528_859)" stroke-width="1.35736"/>
<path d="M285.255 87.5H243.272M58.5472 87.5H100.53" stroke="#BABABA" stroke-width="0.630591" stroke-dasharray="1.26 1.26"/>
<path d="M228.576 185.663L207.585 149.304M115.222 -10.6719L136.214 25.6864" stroke="#BABABA" stroke-width="0.630591" stroke-dasharray="1.26 1.26"/>
<path d="M270.068 144.174L233.71 123.183M73.7335 30.8203L110.092 51.8118" stroke="#BABABA" stroke-width="0.630591" stroke-dasharray="1.26 1.26"/>
<path d="M171.901 200.848L171.901 158.865M171.901 -25.8594L171.901 16.1235" stroke="#BABABA" stroke-width="0.630591" stroke-dasharray="1.26 1.26"/>
<path d="M281.393 116.832L240.84 105.967M62.41 58.1562L102.962 69.0222" stroke="#BABABA" stroke-width="0.630591" stroke-dasharray="1.26 1.26"/>
<path d="M201.239 196.99L190.373 156.438M142.563 -21.9922L153.429 18.5602" stroke="#BABABA" stroke-width="0.630591" stroke-dasharray="1.26 1.26"/>
<path d="M252.055 167.65L222.369 137.964M91.7488 7.34375L121.435 37.0301" stroke="#BABABA" stroke-width="0.630591" stroke-dasharray="1.26 1.26"/>
<path d="M142.564 196.99L153.43 156.438M201.24 -21.9922L190.374 18.5602" stroke="#BABABA" stroke-width="0.630591" stroke-dasharray="1.26 1.26"/>
<path d="M115.223 185.663L136.214 149.304M228.577 -10.6719L207.585 25.6864" stroke="#BABABA" stroke-width="0.630591" stroke-dasharray="1.26 1.26"/>
<path d="M73.7364 144.174L110.095 123.183M270.071 30.8203L233.713 51.8118" stroke="#BABABA" stroke-width="0.630591" stroke-dasharray="1.26 1.26"/>
<path d="M91.7492 167.65L121.436 137.964M252.056 7.34375L222.369 37.0301" stroke="#BABABA" stroke-width="0.630591" stroke-dasharray="1.26 1.26"/>
<path d="M62.4108 116.832L102.963 105.967M281.393 58.1562L240.841 69.0222" stroke="#BABABA" stroke-width="0.630591" stroke-dasharray="1.26 1.26"/>
<g clip-path="url(#clip1_18528_859)">
<rect width="4.12114" height="4.12114" transform="translate(168.985 16.5156) rotate(-45)" fill="#BABABA"/>
</g>
<g clip-path="url(#clip2_18528_859)">
<rect width="3.78279" height="3.78279" transform="translate(98.8624 87.6562) rotate(-45)" fill="#BABABA"/>
</g>
<g clip-path="url(#clip3_18528_859)">
<rect width="4.12114" height="4.12114" transform="translate(239.228 87.6641) rotate(-45)" fill="#BABABA"/>
</g>
<g clip-path="url(#clip4_18528_859)">
<rect width="4.12114" height="4.12114" transform="translate(70.7224 145.633) rotate(-74.9403)" fill="#BABABA"/>
</g>
<g clip-path="url(#clip5_18528_859)">
<path d="M172.312 58.7402C174.734 58.7404 176.677 60.635 176.677 62.9609C176.677 65.2868 174.733 67.1815 172.312 67.1816C169.89 67.1816 167.946 65.2869 167.945 62.9609C167.945 60.6349 169.89 58.7402 172.312 58.7402ZM181.463 110.097C181.463 110.585 181.067 110.981 180.578 110.981H164.117C163.629 110.981 163.232 110.585 163.232 110.097V108.792C163.232 108.303 163.629 107.906 164.117 107.906C166.136 107.906 167.206 107.411 167.675 106.754C167.686 106.738 167.698 106.723 167.71 106.708C167.898 106.478 168.098 106.033 168.241 105.266C168.382 104.515 168.453 103.542 168.453 102.338V86.6738C168.453 85.5551 168.435 84.672 168.392 84.0127C168.346 83.3097 168.275 82.9841 168.235 82.8887C168.216 82.8454 168.201 82.8006 168.19 82.7549C168.126 82.4992 168.019 82.3696 167.904 82.291C167.776 82.2031 167.549 82.1201 167.162 82.1201C167.003 82.1202 166.697 82.1581 166.203 82.2568C165.726 82.3524 165.125 82.4936 164.404 82.6738C163.972 82.782 163.526 82.5512 163.364 82.1357L162.857 80.8311C162.685 80.391 162.89 79.8933 163.321 79.7012L173.257 75.2783L173.343 75.2451C173.431 75.2164 173.523 75.2012 173.616 75.2012H175.357C175.845 75.2012 176.242 75.5974 176.242 76.0859V102.338C176.242 104.827 176.5 106.143 177.064 106.873C177.566 107.523 178.49 107.906 180.578 107.906C181.067 107.906 181.463 108.303 181.463 108.792V110.097Z" stroke="#3448FF" stroke-width="1.77" stroke-linejoin="round"/>
<line x1="137.62" y1="87.2322" x2="151.752" y2="87.2322" stroke="#3448FF" stroke-width="1.77" stroke-linecap="round"/>
<line x1="192.508" y1="87.2322" x2="206.641" y2="87.2322" stroke="#3448FF" stroke-width="1.77" stroke-linecap="round"/>
<line x1="147.099" y1="111.897" x2="157.093" y2="101.904" stroke="#3448FF" stroke-width="1.77" stroke-linecap="round"/>
<line x1="185.91" y1="73.0844" x2="195.904" y2="63.0911" stroke="#3448FF" stroke-width="1.77" stroke-linecap="round"/>
<line x1="148.351" y1="63.0859" x2="158.344" y2="73.0792" stroke="#3448FF" stroke-width="1.77" stroke-linecap="round"/>
<line x1="187.162" y1="101.898" x2="197.155" y2="111.892" stroke="#3448FF" stroke-width="1.77" stroke-linecap="round"/>
<path d="M154.88 76.9982L148.861 73.5234" stroke="#B2B9FC" stroke-width="1.77" stroke-linecap="round"/>
<path d="M190.377 97.5L196.396 100.975" stroke="#B2B9FC" stroke-width="1.77" stroke-linecap="round"/>
<path d="M152.833 81.9471L146.12 80.1484" stroke="#8E99FF" stroke-width="1.77" stroke-linecap="round"/>
<path d="M192.424 92.5547L199.137 94.3534" stroke="#8E99FF" stroke-width="1.77" stroke-linecap="round"/>
<path d="M152.833 92.5529L146.12 94.3516" stroke="#8E99FF" stroke-width="1.77" stroke-linecap="round"/>
<path d="M192.424 81.9453L199.137 80.1466" stroke="#8E99FF" stroke-width="1.77" stroke-linecap="round"/>
<path d="M154.88 97.4939L148.861 100.969" stroke="#B2B9FC" stroke-width="1.77" stroke-linecap="round"/>
<path d="M190.377 77L196.396 73.5252" stroke="#B2B9FC" stroke-width="1.77" stroke-linecap="round"/>
</g>
</g>
</g>
<defs>
<linearGradient id="paint0_linear_18528_859" x1="258.208" y1="86.7316" x2="85.7914" y2="86.7316" gradientUnits="userSpaceOnUse">
<stop stop-color="#3448FF" stop-opacity="0"/>
<stop offset="0.5" stop-color="#3448FF"/>
<stop offset="1" stop-color="#3448FF" stop-opacity="0"/>
</linearGradient>
<linearGradient id="paint1_linear_18528_859" x1="271.019" y1="87.4984" x2="72.7997" y2="87.4984" gradientUnits="userSpaceOnUse">
<stop stop-color="#3448FF" stop-opacity="0"/>
<stop offset="0.5" stop-color="#3448FF"/>
<stop offset="1" stop-color="#3448FF" stop-opacity="0"/>
</linearGradient>
<clipPath id="clip0_18528_859">
<rect width="260.016" height="260.016" fill="white" transform="translate(0 -42.5078)"/>
</clipPath>
<clipPath id="clip1_18528_859">
<rect width="4.12114" height="4.12114" fill="white" transform="translate(168.985 16.5156) rotate(-45)"/>
</clipPath>
<clipPath id="clip2_18528_859">
<rect width="3.78279" height="3.78279" fill="white" transform="translate(98.8624 87.6562) rotate(-45)"/>
</clipPath>
<clipPath id="clip3_18528_859">
<rect width="4.12114" height="4.12114" fill="white" transform="translate(239.228 87.6641) rotate(-45)"/>
</clipPath>
<clipPath id="clip4_18528_859">
<rect width="4.12114" height="4.12114" fill="white" transform="translate(70.7224 145.633) rotate(-74.9403)"/>
</clipPath>
<clipPath id="clip5_18528_859">
<rect width="70.7911" height="70.7911" fill="white" transform="translate(136.735 52.1016)"/>
</clipPath>
</defs>
</svg>
