<svg width="166" height="66" viewBox="0 0 166 66" fill="none" xmlns="http://www.w3.org/2000/svg">
<g clip-path="url(#clip0_18745_1260)">
<path d="M118.286 27.125H115.253V37.6145H122.461L123.058 34.9796H118.286V27.125Z" fill="white"/>
<path d="M130.861 32.7426C130.861 34.4825 130.016 35.1288 128.922 35.1288C127.828 35.1288 126.983 34.5322 126.983 32.7426V27.125H123.951V33.0408C123.951 36.2722 125.69 37.9127 128.922 37.9127C132.054 37.9127 133.893 36.1728 133.893 32.9911V27.125H130.861V32.7426Z" fill="white"/>
<path d="M54.2015 34.6786C54.2015 33.386 53.4061 32.4912 51.9644 32.1929C53.0083 31.8946 53.6546 30.9998 53.6546 29.9558C53.6546 28.2159 52.4118 27.1719 49.777 27.1719H45.3525V37.6614H49.9261C52.9089 37.6117 54.2015 36.5677 54.2015 34.6786ZM48.385 29.3593H49.6776C50.5227 29.3593 50.8707 29.7073 50.8707 30.3038C50.8707 30.8507 50.5227 31.1986 49.6776 31.1986H48.385V29.3593ZM49.8267 35.2751H48.385V33.2369H49.8267C50.7712 33.2369 51.2187 33.5849 51.2187 34.2312C51.2684 34.9271 50.821 35.2751 49.8267 35.2751Z" fill="white"/>
<path d="M91.8364 27.125H88.0083V37.6145H91.8364C95.167 37.6145 97.603 35.5762 97.603 32.3449C97.5532 29.1135 95.2666 27.125 91.8364 27.125ZM91.8862 34.9299H91.041V29.8095H91.9355C93.5264 29.8095 94.6201 30.6049 94.6201 32.3449C94.5708 34.1842 93.4771 34.9299 91.8862 34.9299Z" fill="white"/>
<path d="M72.3941 27.125H68.765L64.9868 37.6145H68.5662L69.0631 35.7253H72.046L72.5431 37.6145H76.1227L72.3941 27.125ZM69.6598 33.4883L70.5548 30.0581L71.4493 33.4883H69.6598Z" fill="white"/>
<path d="M63.7434 29.6604L63.3954 27.125H55.839V37.6145H63.1469L64.0914 35.0791H58.8715V33.538H62.5006V31.1021H58.8715V29.6604H63.7434Z" fill="white"/>
<path d="M86.918 37.6173L84.1338 33.4414C85.2275 32.9443 85.8735 31.95 85.8735 30.6078C85.8735 28.2712 84.4819 27.0781 81.6479 27.0781H77.4722V37.5676H80.5547V33.9385H81.1509L83.3882 37.5676L86.918 37.6173ZM81.5488 31.7015H80.604V29.5141H81.5488C82.4434 29.5141 82.9409 29.8621 82.9409 30.6078C82.9409 31.3535 82.4434 31.7015 81.5488 31.7015Z" fill="white"/>
<path d="M109.087 29.7165C110.429 29.7165 111.225 31.009 111.225 31.009L113.661 29.4679C112.667 27.7279 110.926 26.8828 108.938 26.8828C105.806 26.8828 103.469 29.1199 103.469 32.401C103.469 35.682 105.806 37.9191 108.938 37.9191C110.926 37.9191 112.667 37.074 113.661 35.334L111.225 33.7929C111.225 33.7929 110.479 35.0855 109.087 35.0855C107.745 35.0855 106.651 33.9918 106.651 32.401C106.601 30.7604 107.695 29.7165 109.087 29.7165Z" fill="white"/>
<path d="M142.548 32.146C143.592 31.8478 144.238 30.9529 144.238 29.9089C144.238 28.1689 142.995 27.125 140.36 27.125H136.085V37.6145H140.559C143.492 37.6145 144.785 36.5705 144.785 34.6317C144.735 33.3391 143.94 32.494 142.548 32.146ZM139.068 29.3621H140.211C141.056 29.3621 141.404 29.7101 141.404 30.3066C141.404 30.8535 141.056 31.2015 140.211 31.2015H139.068V29.3621ZM140.36 35.2779H139.068V33.2397H140.36C141.305 33.2397 141.752 33.5877 141.752 34.234C141.802 34.9299 141.354 35.2779 140.36 35.2779Z" fill="white"/>
<path d="M35.5602 28.8715C36.4053 27.927 37.2504 26.4356 37.2504 24.4968C37.2504 20.8677 34.7151 17.9844 30.4895 17.9844H22.3365C22.1377 17.9844 21.9388 18.1335 21.9388 18.3821V31.8046C21.9388 32.0532 22.2371 32.2023 22.3862 32.0532C23.1816 31.4566 25.0708 30.3629 28.1032 30.3629C32.5774 30.3629 36.3059 33.3458 36.3059 37.7702C36.3059 41.3993 33.522 45.0283 29.2963 45.0283C26.2639 45.0283 24.0268 43.0895 24.0268 40.3056C24.0268 37.969 25.4187 35.8811 28.153 35.8811C29.2963 35.8811 30.2906 36.6765 30.7877 37.4222C30.8872 37.5713 31.1357 37.621 31.3346 37.5216L34.0688 35.8314C34.218 35.732 34.3174 35.5331 34.218 35.3343C33.2734 33.3458 30.9866 31.9538 28.153 31.9538C23.6788 31.9538 20 34.9863 20 40.3056C20 44.6803 23.1816 48.6574 29.2963 48.6574C36.1568 48.6574 40.3327 43.0398 40.3327 37.7702C40.3824 32.9978 37.7476 30.3132 35.5602 28.8715ZM30.4895 27.1316H25.9656V22.0111H30.5392C32.3289 22.0111 33.174 23.254 33.174 24.5962C33.2237 26.0379 32.13 27.1316 30.4895 27.1316Z" fill="white"/>
</g>
<defs>
<clipPath id="clip0_18745_1260">
<rect width="125" height="30.7617" fill="white" transform="translate(20 17.9844)"/>
</clipPath>
</defs>
</svg>
