<svg width="262" height="57" viewBox="0 0 262 57" fill="none" xmlns="http://www.w3.org/2000/svg">
<path d="M250.998 0.521973H11.0026C5.21459 0.521973 0.522461 5.19612 0.522461 10.962V45.414C0.522461 51.1798 5.21459 55.854 11.0026 55.854H250.998C256.786 55.854 261.478 51.1798 261.478 45.414V10.962C261.478 5.19612 256.786 0.521973 250.998 0.521973Z" fill="#1A1A1A" stroke="#221D21" stroke-width="1.044"/>
<path d="M59.1307 18.0523H57.6947V20.4839H56.2908V13.7213H59.2362C59.9152 13.7213 60.4566 13.8957 60.8603 14.2444C61.2641 14.593 61.4659 15.1329 61.4659 15.8639C61.4659 16.6622 61.2641 17.2265 60.8603 17.5568C60.4566 17.8871 59.8801 18.0523 59.1307 18.0523ZM59.7914 16.6438C59.9749 16.4817 60.0666 16.2248 60.0666 15.8731C60.0666 15.5213 59.9733 15.2705 59.7868 15.1206C59.6033 14.9708 59.3448 14.8958 59.0114 14.8958H57.6947V16.887H59.0114C59.3448 16.887 59.6048 16.8059 59.7914 16.6438ZM65.3978 17.8321H63.9388V20.4839H62.5579V13.7213H65.8749C66.349 13.7305 66.713 13.7886 66.9668 13.8957C67.2237 14.0027 67.4409 14.1602 67.6183 14.3682C67.7651 14.5395 67.8813 14.7291 67.967 14.9371C68.0526 15.1451 68.0954 15.3822 68.0954 15.6483C68.0954 15.9694 68.0144 16.286 67.8523 16.5979C67.6902 16.9069 67.4225 17.1256 67.0494 17.254C67.3614 17.3794 67.5816 17.5583 67.7101 17.7908C67.8416 18.0202 67.9073 18.3719 67.9073 18.846V19.3002C67.9073 19.6091 67.9196 19.8186 67.944 19.9288C67.9807 20.1031 68.0664 20.2316 68.201 20.3141V20.4839H66.6457C66.6028 20.334 66.5723 20.2132 66.5539 20.1214C66.5172 19.9318 66.4973 19.7376 66.4943 19.5388L66.4851 18.9102C66.479 18.479 66.3994 18.1915 66.2465 18.0477C66.0966 17.904 65.8137 17.8321 65.3978 17.8321ZM66.2557 16.6025C66.5371 16.4741 66.6778 16.2202 66.6778 15.8409C66.6778 15.4311 66.5417 15.1558 66.2695 15.0151C66.1165 14.9356 65.8871 14.8958 65.5813 14.8958H63.9388V16.7126H65.54C65.8581 16.7126 66.0966 16.6759 66.2557 16.6025ZM72.3071 20.672C71.3406 20.672 70.602 20.409 70.0912 19.8829C69.406 19.2375 69.0635 18.3077 69.0635 17.0934C69.0635 15.8547 69.406 14.9249 70.0912 14.304C70.602 13.7779 71.3406 13.5149 72.3071 13.5149C73.2736 13.5149 74.0123 13.7779 74.5231 14.304C75.2051 14.9249 75.5462 15.8547 75.5462 17.0934C75.5462 18.3077 75.2051 19.2375 74.5231 19.8829C74.0123 20.409 73.2736 20.672 72.3071 20.672ZM73.6422 18.8552C73.9695 18.4423 74.1331 17.855 74.1331 17.0934C74.1331 16.3349 73.9679 15.7492 73.6376 15.3363C73.3103 14.9203 72.8668 14.7123 72.3071 14.7123C71.7474 14.7123 71.3008 14.9188 70.9675 15.3317C70.6341 15.7446 70.4674 16.3318 70.4674 17.0934C70.4674 17.855 70.6341 18.4423 70.9675 18.8552C71.3008 19.2681 71.7474 19.4746 72.3071 19.4746C72.8668 19.4746 73.3119 19.2681 73.6422 18.8552ZM79.5422 20.4839H76.6289V13.7213H79.5422C79.9613 13.7275 80.3099 13.7764 80.5883 13.8681C81.0623 14.0241 81.4462 14.3101 81.7398 14.7261C81.9753 15.0625 82.1359 15.4265 82.2216 15.818C82.3072 16.2095 82.35 16.5827 82.35 16.9374C82.35 17.8367 82.1696 18.5983 81.8086 19.2222C81.3193 20.0633 80.5638 20.4839 79.5422 20.4839ZM80.5929 15.4464C80.3757 15.0794 79.946 14.8958 79.3037 14.8958H78.0007V19.3094H79.3037C79.9704 19.3094 80.4353 18.9806 80.6984 18.323C80.8421 17.9621 80.914 17.5323 80.914 17.0338C80.914 16.3456 80.807 15.8165 80.5929 15.4464ZM87.4196 17.878V13.7213H88.8556V17.878C88.8556 18.5967 88.744 19.1565 88.5207 19.5571C88.1048 20.2912 87.3111 20.6582 86.1396 20.6582C84.9682 20.6582 84.1729 20.2912 83.7539 19.5571C83.5306 19.1565 83.419 18.5967 83.419 17.878V13.7213H84.855V17.878C84.855 18.3429 84.9101 18.6824 85.0202 18.8965C85.1914 19.2757 85.5646 19.4654 86.1396 19.4654C86.7116 19.4654 87.0832 19.2757 87.2545 18.8965C87.3646 18.6824 87.4196 18.3429 87.4196 17.878ZM94.9805 19.9792C94.4758 20.4411 93.8304 20.672 93.0444 20.672C92.0718 20.672 91.3071 20.36 90.7504 19.7361C90.1938 19.109 89.9154 18.2496 89.9154 17.1577C89.9154 15.977 90.232 15.0671 90.8651 14.4279C91.4157 13.8712 92.1161 13.5929 92.9664 13.5929C94.1042 13.5929 94.9361 13.966 95.4622 14.7123C95.7528 15.1313 95.9088 15.5519 95.9302 15.974H94.5171C94.4253 15.6498 94.3076 15.4051 94.1638 15.2399C93.9069 14.9463 93.5261 14.7995 93.0214 14.7995C92.5076 14.7995 92.1023 15.0075 91.8057 15.4234C91.509 15.8364 91.3606 16.4221 91.3606 17.1806C91.3606 17.9391 91.5166 18.508 91.8286 18.8873C92.1436 19.2635 92.5428 19.4516 93.026 19.4516C93.5215 19.4516 93.8993 19.2895 94.1592 18.9653C94.303 18.791 94.4223 18.5294 94.5171 18.1808H95.9164C95.7941 18.9179 95.4821 19.5174 94.9805 19.9792ZM101.913 13.7213V14.9188H99.8895V20.4839H98.4673V14.9188H96.4348V13.7213H101.913ZM109.391 20.4839V17.4651H106.748V20.4839H105.349V13.7213H106.748V16.2997H109.391V13.7213H110.795V20.4839H109.391ZM116.149 17.878V13.7213H117.585V17.878C117.585 18.5967 117.473 19.1565 117.25 19.5571C116.834 20.2912 116.04 20.6582 114.869 20.6582C113.698 20.6582 112.902 20.2912 112.483 19.5571C112.26 19.1565 112.148 18.5967 112.148 17.878V13.7213H113.584V17.878C113.584 18.3429 113.639 18.6824 113.75 18.8965C113.921 19.2757 114.294 19.4654 114.869 19.4654C115.441 19.4654 115.813 19.2757 115.984 18.8965C116.094 18.6824 116.149 18.3429 116.149 17.878ZM124.407 20.4839H122.994L120.232 15.6804V20.4839H118.916V13.7213H120.397L123.09 18.4423V13.7213H124.407V20.4839ZM130.642 13.7213V14.9188H128.619V20.4839H127.197V14.9188H125.164V13.7213H130.642Z" fill="#EEF2FF"/>
<path d="M57.1622 33.0418H55.4983L55.8654 31.6715H57.5292L58.4183 28.3846H60.0414L59.1523 31.6715H60.5063L61.3708 28.3846H62.9939L62.1294 31.6715H63.7688L63.4017 33.0418H61.7623L61.1017 35.4234H62.7656L62.3985 36.7937H60.7346L59.8619 40.0562H58.2388L59.1116 36.7937H57.7739L56.8849 40.0562H55.2618L56.1508 36.7937H54.4951L54.8621 35.4234H56.5179L57.1622 33.0418ZM59.4786 35.4234L60.1392 33.0418H58.7853L58.1491 35.4234H59.4786ZM70.1143 40.0562H67.7327V31.8999H64.9514V30.3176C65.6855 30.285 66.1993 30.236 66.493 30.1708C66.9606 30.0675 67.3412 29.8608 67.6348 29.5509C67.836 29.3388 67.9883 29.0561 68.0916 28.7027C68.1514 28.4906 68.1813 28.3329 68.1813 28.2296H70.1143V40.0562ZM84.1186 35.7333H81.5657V40.0562H79.0699V28.0338H84.3062C85.5133 28.0338 86.4758 28.3438 87.1935 28.9637C87.9113 29.5835 88.2701 30.5432 88.2701 31.8428C88.2701 33.262 87.9113 34.2652 87.1935 34.8525C86.4758 35.4397 85.4508 35.7333 84.1186 35.7333ZM85.2931 33.2294C85.6194 32.9412 85.7825 32.4844 85.7825 31.8591C85.7825 31.2338 85.6166 30.7879 85.285 30.5215C84.9587 30.2551 84.4992 30.1218 83.9066 30.1218H81.5657V33.6617H83.9066C84.4992 33.6617 84.9614 33.5176 85.2931 33.2294ZM94.4363 33.3109C93.501 33.3109 92.873 33.6154 92.5522 34.2244C92.3727 34.567 92.283 35.0944 92.283 35.8067V40.0562H89.9422V31.1658H92.1607V32.7155C92.5196 32.1228 92.8322 31.7177 93.0986 31.5002C93.5336 31.1359 94.0991 30.9538 94.7951 30.9538C94.8386 30.9538 94.874 30.9565 94.9012 30.9619C94.9338 30.9619 95.0018 30.9647 95.1051 30.9701V33.3517C94.9583 33.3354 94.8278 33.3245 94.7136 33.3191C94.5994 33.3137 94.507 33.3109 94.4363 33.3109ZM103.889 32.2914C104.64 33.2321 105.015 34.3441 105.015 35.6273C105.015 36.9323 104.64 38.0497 103.889 38.9795C103.139 39.9039 102 40.3661 100.472 40.3661C98.944 40.3661 97.8048 39.9039 97.0544 38.9795C96.3041 38.0497 95.9289 36.9323 95.9289 35.6273C95.9289 34.3441 96.3041 33.2321 97.0544 32.2914C97.8048 31.3507 98.944 30.8804 100.472 30.8804C102 30.8804 103.139 31.3507 103.889 32.2914ZM100.464 32.846C99.7841 32.846 99.2593 33.088 98.8896 33.5719C98.5253 34.0504 98.3431 34.7356 98.3431 35.6273C98.3431 36.5191 98.5253 37.2069 98.8896 37.6908C99.2593 38.1748 99.7841 38.4167 100.464 38.4167C101.143 38.4167 101.665 38.1748 102.03 37.6908C102.394 37.2069 102.576 36.5191 102.576 35.6273C102.576 34.7356 102.394 34.0504 102.03 33.5719C101.665 33.088 101.143 32.846 100.464 32.846ZM114.778 28.0502V40.0562H112.519V38.8246C112.187 39.352 111.809 39.7353 111.385 39.9746C110.961 40.2138 110.433 40.3335 109.803 40.3335C108.764 40.3335 107.889 39.9148 107.176 39.0774C106.469 38.2346 106.116 37.1552 106.116 35.8394C106.116 34.3223 106.464 33.1288 107.16 32.2588C107.861 31.3888 108.797 30.9538 109.966 30.9538C110.504 30.9538 110.983 31.0734 111.401 31.3127C111.82 31.5465 112.16 31.8727 112.421 32.2914V28.0502H114.778ZM108.514 35.6681C108.514 36.4892 108.677 37.1444 109.003 37.6337C109.324 38.1286 109.814 38.376 110.471 38.376C111.129 38.376 111.63 38.1313 111.972 37.6419C112.315 37.1525 112.486 36.5191 112.486 35.7415C112.486 34.654 112.211 33.8764 111.662 33.4088C111.325 33.1261 110.934 32.9847 110.488 32.9847C109.808 32.9847 109.308 33.243 108.987 33.7595C108.672 34.2707 108.514 34.9068 108.514 35.6681ZM122.6 38.8001C122.578 38.8273 122.524 38.9088 122.437 39.0448C122.35 39.1807 122.246 39.3003 122.127 39.4037C121.762 39.7299 121.409 39.9528 121.066 40.0725C120.729 40.1921 120.332 40.2519 119.876 40.2519C118.56 40.2519 117.673 39.7788 117.217 38.8327C116.961 38.3107 116.833 37.5413 116.833 36.5245V31.1658H119.215V36.5245C119.215 37.0302 119.275 37.4108 119.394 37.6664C119.606 38.1177 120.022 38.3433 120.642 38.3433C121.436 38.3433 121.98 38.0225 122.274 37.3809C122.426 37.0329 122.502 36.5734 122.502 36.0025V31.1658H124.859V40.0562H122.6V38.8001ZM134.802 34.3549H132.42C132.376 34.0232 132.265 33.7242 132.086 33.4577C131.825 33.0989 131.419 32.9194 130.87 32.9194C130.087 32.9194 129.552 33.3082 129.263 34.0858C129.111 34.499 129.035 35.0482 129.035 35.7333C129.035 36.3858 129.111 36.9106 129.263 37.3075C129.541 38.047 130.063 38.4167 130.829 38.4167C131.373 38.4167 131.759 38.2699 131.988 37.9763C132.216 37.6827 132.355 37.3021 132.404 36.8344H134.777C134.723 37.5413 134.467 38.2101 134.01 38.8409C133.282 39.8577 132.202 40.3661 130.772 40.3661C129.342 40.3661 128.29 39.942 127.616 39.0937C126.942 38.2455 126.605 37.1444 126.605 35.7904C126.605 34.2625 126.977 33.0744 127.722 32.2262C128.467 31.3779 129.495 30.9538 130.805 30.9538C131.92 30.9538 132.83 31.2039 133.537 31.7042C134.25 32.2044 134.671 33.088 134.802 34.3549ZM140.478 38.4004V40.1377L139.377 40.1785C138.279 40.2166 137.528 40.0262 137.126 39.6076C136.865 39.3411 136.735 38.9306 136.735 38.376V32.9031H135.495V31.2474H136.735V28.7679H139.035V31.2474H140.478V32.9031H139.035V37.6011C139.035 37.9654 139.081 38.1938 139.173 38.2862C139.266 38.3732 139.548 38.4167 140.022 38.4167C140.092 38.4167 140.166 38.4167 140.242 38.4167C140.323 38.4113 140.402 38.4059 140.478 38.4004ZM154.034 32.2914C154.784 33.2321 155.16 34.3441 155.16 35.6273C155.16 36.9323 154.784 38.0497 154.034 38.9795C153.284 39.9039 152.144 40.3661 150.617 40.3661C149.089 40.3661 147.949 39.9039 147.199 38.9795C146.449 38.0497 146.073 36.9323 146.073 35.6273C146.073 34.3441 146.449 33.2321 147.199 32.2914C147.949 31.3507 149.089 30.8804 150.617 30.8804C152.144 30.8804 153.284 31.3507 154.034 32.2914ZM150.608 32.846C149.929 32.846 149.404 33.088 149.034 33.5719C148.67 34.0504 148.488 34.7356 148.488 35.6273C148.488 36.5191 148.67 37.2069 149.034 37.6908C149.404 38.1748 149.929 38.4167 150.608 38.4167C151.288 38.4167 151.81 38.1748 152.174 37.6908C152.539 37.2069 152.721 36.5191 152.721 35.6273C152.721 34.7356 152.539 34.0504 152.174 33.5719C151.81 33.088 151.288 32.846 150.608 32.846ZM160.999 27.9604V29.8527C160.869 29.8364 160.649 29.8255 160.339 29.8201C160.034 29.8092 159.822 29.8772 159.703 30.024C159.588 30.1653 159.531 30.323 159.531 30.497V31.2474H161.057V32.8868H159.531V40.0562H157.215V32.8868H155.918V31.2474H157.19V30.6765C157.19 29.7249 157.351 29.0697 157.672 28.7108C158.009 28.1779 158.822 27.9115 160.11 27.9115C160.257 27.9115 160.39 27.9169 160.51 27.9278C160.63 27.9332 160.793 27.9441 160.999 27.9604ZM171.113 38.4004V40.1377L170.012 40.1785C168.914 40.2166 168.163 40.0262 167.761 39.6076C167.5 39.3411 167.369 38.9306 167.369 38.376V32.9031H166.13V31.2474H167.369V28.7679H169.67V31.2474H171.113V32.9031H169.67V37.6011C169.67 37.9654 169.716 38.1938 169.808 38.2862C169.901 38.3732 170.183 38.4167 170.656 38.4167C170.727 38.4167 170.801 38.4167 170.877 38.4167C170.958 38.4113 171.037 38.4059 171.113 38.4004ZM180.64 34.8362V40.0562H178.266V34.6486C178.266 34.1701 178.185 33.784 178.022 33.4904C177.809 33.0771 177.407 32.8705 176.814 32.8705C176.2 32.8705 175.732 33.0771 175.412 33.4904C175.096 33.8982 174.938 34.4827 174.938 35.244V40.0562H172.622V28.0746H174.938V32.324C175.276 31.8075 175.664 31.4486 176.105 31.2474C176.551 31.0408 177.018 30.9375 177.508 30.9375C178.057 30.9375 178.554 31.0326 179 31.2229C179.452 31.4132 179.821 31.7042 180.11 32.0957C180.354 32.4273 180.504 32.7699 180.558 33.1233C180.612 33.4713 180.64 34.0423 180.64 34.8362ZM190.427 37.4462C190.367 37.9736 190.093 38.5092 189.603 39.0529C188.842 39.9175 187.776 40.3498 186.406 40.3498C185.275 40.3498 184.277 39.9855 183.413 39.2568C182.548 38.5282 182.116 37.3428 182.116 35.7007C182.116 34.1619 182.505 32.982 183.282 32.1609C184.065 31.3398 185.079 30.9293 186.325 30.9293C187.064 30.9293 187.73 31.068 188.323 31.3453C188.916 31.6226 189.405 32.0603 189.791 32.6584C190.139 33.1859 190.365 33.7976 190.468 34.4936C190.528 34.9014 190.552 35.4887 190.541 36.2553H184.457C184.489 37.1471 184.769 37.7724 185.297 38.1313C185.618 38.3542 186.004 38.4657 186.455 38.4657C186.934 38.4657 187.322 38.3297 187.621 38.0579C187.785 37.9111 187.929 37.7072 188.054 37.4462H190.427ZM188.127 34.722C188.089 34.1075 187.901 33.6426 187.564 33.3272C187.233 33.0064 186.819 32.846 186.325 32.846C185.786 32.846 185.368 33.0146 185.069 33.3517C184.775 33.6888 184.59 34.1456 184.514 34.722H188.127ZM202.131 40.0562H196.952V28.0338H202.131C202.876 28.0447 203.496 28.1317 203.991 28.2948C204.834 28.5722 205.516 29.0806 206.038 29.8201C206.457 30.4182 206.742 31.0652 206.895 31.7612C207.047 32.4572 207.123 33.1206 207.123 33.7514C207.123 35.35 206.802 36.7039 206.161 37.8132C205.291 39.3085 203.948 40.0562 202.131 40.0562ZM203.999 31.1006C203.613 30.4481 202.849 30.1218 201.707 30.1218H199.391V37.9682H201.707C202.893 37.9682 203.719 37.3836 204.187 36.2146C204.442 35.5729 204.57 34.809 204.57 33.9227C204.57 32.6992 204.38 31.7585 203.999 31.1006ZM209.17 32.1283C209.785 31.3453 210.84 30.9538 212.335 30.9538C213.308 30.9538 214.173 31.1468 214.929 31.5329C215.684 31.9189 216.062 32.6476 216.062 33.7187V37.7969C216.062 38.0796 216.068 38.4222 216.079 38.8246C216.095 39.1291 216.141 39.3357 216.217 39.4444C216.293 39.5532 216.408 39.6429 216.56 39.7136V40.0562H214.031C213.961 39.8767 213.912 39.7082 213.885 39.5505C213.857 39.3928 213.836 39.2133 213.819 39.0122C213.498 39.3602 213.129 39.6565 212.71 39.9012C212.21 40.1894 211.644 40.3335 211.014 40.3335C210.209 40.3335 209.543 40.1051 209.015 39.6483C208.493 39.1862 208.232 38.5337 208.232 37.6908C208.232 36.5979 208.654 35.8067 209.496 35.3174C209.959 35.0509 210.638 34.8606 211.536 34.7464L212.327 34.6486C212.756 34.5942 213.063 34.5262 213.248 34.4447C213.58 34.3033 213.746 34.0831 213.746 33.784C213.746 33.4197 213.618 33.1696 213.363 33.0336C213.112 32.8922 212.743 32.8216 212.253 32.8216C211.704 32.8216 211.315 32.9575 211.087 33.2294C210.924 33.4306 210.815 33.7024 210.761 34.045H208.518C208.567 33.2674 208.784 32.6285 209.17 32.1283ZM210.899 38.376C211.117 38.5554 211.383 38.6451 211.699 38.6451C212.199 38.6451 212.658 38.4983 213.077 38.2047C213.501 37.9111 213.721 37.3755 213.738 36.5979V35.7333C213.591 35.8258 213.441 35.9019 213.289 35.9617C213.142 36.0161 212.938 36.0677 212.677 36.1167L212.155 36.2146C211.666 36.3016 211.315 36.4076 211.103 36.5327C210.744 36.7447 210.565 37.0737 210.565 37.5196C210.565 37.9165 210.676 38.202 210.899 38.376ZM221.747 37.7235L223.582 31.1658H226.054L223.003 39.9093C222.416 41.595 221.951 42.639 221.609 43.0413C221.266 43.4492 220.581 43.6531 219.553 43.6531C219.347 43.6531 219.181 43.6503 219.056 43.6449C218.931 43.6449 218.743 43.6367 218.493 43.6204V41.7608L218.786 41.7771C219.015 41.788 219.232 41.7798 219.439 41.7527C219.646 41.7255 219.82 41.6629 219.961 41.5651C220.097 41.4726 220.222 41.2796 220.336 40.986C220.456 40.6923 220.505 40.5129 220.483 40.4477L217.22 31.1658H219.806L221.747 37.7235Z" fill="#EEF2FF"/>
<path d="M22.3526 30.6562L18.1578 39.5679C18.0264 39.8372 18.1655 40.0065 18.6058 39.9219L22.0204 39.1831C22.088 39.1594 22.1624 39.1651 22.2256 39.1988C22.2887 39.2324 22.3348 39.291 22.3526 39.3601L23.8899 42.4999C24.0367 42.8385 24.2067 42.9078 24.338 42.6384L28.8032 33.3113L22.3526 30.6562Z" fill="#DE7818"/>
<path d="M35.2846 30.6562L39.4795 39.5679C39.6185 39.8372 39.4717 40.0065 39.0314 39.9219L35.6168 39.1831C35.5492 39.1603 35.4752 39.1664 35.4122 39.1999C35.3493 39.2335 35.3031 39.2914 35.2846 39.3601L33.7473 42.4999C33.6005 42.8385 33.4383 42.9078 33.2992 42.6385L28.834 33.3113L35.2846 30.6562Z" fill="#DE7818"/>
<path d="M27.5582 35.9048C27.5582 35.9125 27.5428 35.9048 27.5273 35.9048C25.1866 35.6463 22.992 34.6423 21.2698 33.042C21.2621 33.0343 21.2389 33.0266 21.2467 33.0189L21.4398 32.611C21.4475 32.5956 21.463 32.6341 21.4707 32.6418C23.1239 34.1732 25.4183 35.1352 27.7668 35.42C27.7746 35.42 27.79 35.42 27.79 35.4276L27.5582 35.9048Z" fill="#B35454"/>
<path d="M28.8183 35.474C34.8896 35.474 39.8114 30.5711 39.8114 24.523C39.8114 18.4749 34.8896 13.572 28.8183 13.572C22.747 13.572 17.8252 18.4749 17.8252 24.523C17.8252 30.5711 22.747 35.474 28.8183 35.474Z" fill="#F0CD0A"/>
<path d="M28.8188 33.9656C34.0539 33.9656 38.2977 29.738 38.2977 24.5229C38.2977 19.3079 34.0539 15.0803 28.8188 15.0803C23.5837 15.0803 19.3398 19.3079 19.3398 24.5229C19.3398 29.738 23.5837 33.9656 28.8188 33.9656Z" fill="#D2B309"/>
<path d="M29.0801 33.9298C34.1445 33.9298 38.25 29.84 38.25 24.795C38.25 19.7499 34.1445 15.6602 29.0801 15.6602C24.0157 15.6602 19.9102 19.7499 19.9102 24.795C19.9102 29.84 24.0157 33.9298 29.0801 33.9298Z" fill="#E3C101"/>
<path fill-rule="evenodd" clip-rule="evenodd" d="M28.7663 28.9763H31.02V20.1492H28.7663L26.5127 21.6785V23.6115L28.6497 22.174H28.7663V28.9763Z" fill="#FFF2B5"/>
<path d="M31.4062 16.7964C34.9242 17.6331 37.4353 20.7249 37.5224 24.3268C37.6094 27.9287 35.2505 31.1373 31.7771 32.1416C33.9092 30.5178 35.323 27.7474 35.323 24.5998C35.323 21.2753 33.747 18.374 31.4062 16.7964Z" fill="white" fill-opacity="0.2"/>
<path d="M30.0775 35.905C30.0852 35.9127 30.1006 35.905 30.1084 35.905C32.5109 35.6049 34.7204 34.6429 36.3813 33.0576C36.389 33.0499 36.4122 33.0422 36.4045 33.0345L36.2114 32.6266C36.2036 32.6113 36.1882 32.6497 36.1805 32.6574C34.5272 34.1889 32.2251 35.1354 29.8689 35.4202C29.8612 35.4202 29.8457 35.4202 29.8457 35.4279L30.0775 35.905Z" fill="#B35454"/>
</svg>
