<svg width="13" height="13" viewBox="0 0 13 13" fill="none" xmlns="http://www.w3.org/2000/svg">
<mask id="mask0_18945_155" style="mask-type:luminance" maskUnits="userSpaceOnUse" x="0" y="0" width="13" height="13">
<path d="M6.46891 0C3.56304 0 0.920778 1.97853 0.191278 4.93827C-0.668057 8.42235 1.44896 11.9453 4.91909 12.807C8.38987 13.6694 11.8987 11.5444 12.7577 8.06028C13.6164 4.57621 11.5003 1.05329 8.02955 0.191567C7.50693 0.0622098 6.98431 0 6.46924 0H6.46891Z" fill="white"/>
</mask>
<g mask="url(#mask0_18945_155)">
<path d="M13.6167 0H-0.667725V13.6697H13.6167V0Z" fill="url(#paint0_radial_18945_155)"/>
</g>
<path d="M0.191278 4.93836C1.04996 1.45362 4.55943 -0.670401 8.02955 0.191978C11.5003 1.0537 13.6164 4.57662 12.7577 8.06069C11.8987 11.5448 8.38987 13.6698 4.91909 12.8074C1.44896 11.9457 -0.668057 8.42243 0.191278 4.93868" fill="#223C72"/>
<path d="M11.0664 1.91784L8.46348 3.65972V0.31586C8.32152 0.270108 8.17693 0.228306 8.02972 0.19177C6.80842 -0.111709 5.58253 -0.0448909 4.46877 0.320797V3.66038L1.87601 1.92542C1.28225 2.52579 0.799958 3.24861 0.472093 4.06721L1.15864 4.52671H0.307832C0.26521 4.66166 0.225868 4.79892 0.191442 4.93848C-0.113145 6.17313 -0.0436364 7.41271 0.327507 8.5371H1.17569L0.496355 8.99166C0.825859 9.78623 1.31012 10.5107 1.92126 11.119L4.46877 9.41429V12.6775C4.61631 12.7256 4.76647 12.769 4.91958 12.8069C6.13465 13.109 7.35431 13.0442 8.46348 12.6834V9.41396L11.0212 11.1252C11.6218 10.5314 12.1126 9.81421 12.4497 9.00022L11.7562 8.53611H12.6211C12.6723 8.38042 12.7179 8.22144 12.7579 8.0595C13.0562 6.84855 12.9949 5.63266 12.6428 4.52572H11.7736L12.4736 4.05734C12.1507 3.25947 11.6726 2.5304 11.0664 1.91686" fill="#EFEBE7"/>
<path d="M3.47295 4.52665L1.06937 2.9217C0.909371 3.16527 0.764785 3.42102 0.637245 3.68862L1.89199 4.52665H3.47295ZM11.8699 2.90919C11.7086 2.6643 11.5302 2.4306 11.3368 2.20908L8.46372 4.12738V4.52697H9.44764L11.8699 2.90952V2.90919ZM1.0874 10.1015C1.24937 10.3457 1.42806 10.5791 1.62183 10.8L4.46868 8.89911V8.53671H3.43098L1.0874 10.1015ZM12.8489 5.36171H7.6316V0.106129C6.84079 -0.0386977 6.05325 -0.0324438 5.3008 0.107446V5.36171H0.102167C-0.0394713 6.15562 -0.0299616 6.94592 0.112004 7.70066H5.3008V12.8894C6.09161 13.0366 6.87915 13.0323 7.6316 12.8944V7.70066H12.8358C12.9853 6.90741 12.983 6.11711 12.8489 5.36171ZM9.50305 8.53704L11.8584 10.1097C12.0197 9.86714 12.1656 9.61205 12.2948 9.34544L11.084 8.53704H9.50305Z" fill="#EF3827"/>
<path d="M8.46326 0.992517V1.41383C8.48883 1.33385 8.50194 1.25814 8.50227 1.18705C8.50227 1.11727 8.48981 1.05209 8.46326 0.992188" fill="#303F66"/>
<defs>
<radialGradient id="paint0_radial_18945_155" cx="0" cy="0" r="1" gradientUnits="userSpaceOnUse" gradientTransform="translate(6.14117 6.44105) scale(6.47436 6.49977)">
<stop stop-color="white"/>
<stop offset="0.78" stop-color="white"/>
<stop offset="0.82" stop-color="#F9F8F7"/>
<stop offset="0.88" stop-color="#E9E5E3"/>
<stop offset="0.94" stop-color="#CFC8C1"/>
<stop offset="1" stop-color="#B6ABA1"/>
</radialGradient>
</defs>
</svg>
