<svg width="24" height="24" viewBox="0 0 24 24" fill="none" xmlns="http://www.w3.org/2000/svg">
<path fill-rule="evenodd" clip-rule="evenodd" d="M21 21H17.3016V14.7007C17.3016 12.9736 16.6453 12.0085 15.2783 12.0085C13.7912 12.0085 13.0143 13.0129 13.0143 14.7007V21H9.45V9H13.0143V10.6164C13.0143 10.6164 14.0859 8.63338 16.6324 8.63338C19.1777 8.63338 21 10.1877 21 13.4023V21ZM5.19785 7.4287C3.98379 7.4287 3 6.43719 3 5.21435C3 3.99151 3.98379 3 5.19785 3C6.41191 3 7.39512 3.99151 7.39512 5.21435C7.39512 6.43719 6.41191 7.4287 5.19785 7.4287ZM3.35742 21H7.07402V9H3.35742V21Z" fill="white"/>
</svg>
