<svg width="24" height="24" viewBox="0 0 24 24" fill="none" xmlns="http://www.w3.org/2000/svg">
<path d="M23.4982 6.64076C23.2222 5.60126 22.4093 4.783 21.3765 4.50475C19.5045 4 12 4 12 4C12 4 4.49475 4 2.6235 4.50475C1.59075 4.78225 0.77775 5.60126 0.50175 6.64076C0 8.52476 0 12.4548 0 12.4548C0 12.4548 0 16.3855 0.50175 18.2688C0.77775 19.3083 1.59075 20.1265 2.6235 20.404C4.4955 20.9088 12 20.9088 12 20.9088C12 20.9088 19.5053 20.9088 21.3765 20.404C22.4093 20.1265 23.2222 19.3075 23.4982 18.2688C24 16.3848 24 12.4548 24 12.4548C24 12.4548 24 8.52476 23.4982 6.64076ZM9.54525 16.0233V8.88626L15.8182 12.4548L9.54525 16.0233Z" fill="white"/>
</svg>
