<svg width="24" height="24" viewBox="0 0 24 24" fill="none" xmlns="http://www.w3.org/2000/svg">
<rect width="24" height="24" rx="12" fill="#F1F1F1"/>
<g clip-path="url(#clip0_19350_2215)">
<mask id="mask0_19350_2215" style="mask-type:luminance" maskUnits="userSpaceOnUse" x="3" y="3" width="18" height="18">
<path d="M20.9002 3.09766H3.2002V20.7977H20.9002V3.09766Z" fill="white"/>
</mask>
<g mask="url(#mask0_19350_2215)">
<path d="M6.67669 14.8648L10.1558 12.9126L10.214 12.7425L10.1558 12.6484H9.98565L9.40356 12.6126L7.4155 12.5588L5.69162 12.4872L4.02147 12.3977L3.60057 12.3081L3.20654 11.7887L3.24684 11.529L3.60057 11.2917L4.10654 11.3365L5.22595 11.4126L6.90505 11.529L8.12296 11.6007L9.92744 11.7887H10.214L10.2543 11.6723L10.1558 11.6007L10.0797 11.529L8.34237 10.3514L6.46176 9.10661L5.47669 8.39019L4.94386 8.0275L4.6752 7.68721L4.55878 6.94393L5.04236 6.41109L5.69162 6.45586L5.85729 6.50064L6.5155 7.00661L7.92147 8.09467L9.75729 9.44691L10.0259 9.67079L10.1334 9.59467L10.1468 9.54094L10.0259 9.33945L9.02744 7.53497L7.96176 5.69915L7.48714 4.93795L7.36176 4.48124C7.31699 4.29318 7.28565 4.13646 7.28565 3.94392L7.8364 3.19616L8.14087 3.09766L8.8752 3.19616L9.18416 3.46482L9.64088 4.5081L10.3797 6.15139L11.5259 8.38572L11.8618 9.0484L12.0408 9.66183L12.108 9.8499H12.2245V9.74244L12.3185 8.48422L12.4931 6.93945L12.6632 4.95138L12.7215 4.39169L12.9991 3.72004L13.5498 3.35736L13.9797 3.56333L14.3334 4.0693L14.2842 4.39617L14.0737 5.76184L13.6618 7.90214L13.3931 9.33497H13.5498L13.7289 9.15587L14.4543 8.19318L15.6722 6.67079L16.2095 6.06632L16.8364 5.39915L17.2394 5.08124H18.0006L18.5603 5.91407L18.3095 6.77378L17.5259 7.76781L16.8767 8.6096L15.9453 9.86333L15.3633 10.8663L15.417 10.9469L15.5558 10.9334L17.6603 10.4857L18.7976 10.2797L20.1543 10.0469L20.7678 10.3335L20.8349 10.6245L20.5931 11.22L19.1424 11.5782L17.4409 11.9185L14.9066 12.5186L14.8752 12.541L14.9111 12.5857L16.0528 12.6932L16.5409 12.72H17.7364L19.9617 12.8857L20.5439 13.2708L20.8931 13.741L20.8349 14.0992L19.9394 14.5559L18.7304 14.2693L15.9096 13.5977L14.9424 13.3558H14.808V13.4364L15.614 14.2245L17.0916 15.5588L18.9409 17.2782L19.0349 17.7036L18.7976 18.0395L18.5469 18.0036L16.9215 16.7812L16.2946 16.2305L14.8752 15.035H14.7812V15.1604L15.108 15.6394L16.8364 18.2365L16.926 19.0335L16.8006 19.2932L16.3528 19.4499L15.8603 19.3603L14.8484 17.941L13.805 16.3424L12.9632 14.9096L12.8603 14.9678L12.3633 20.3186L12.1305 20.5917L11.5931 20.7977L11.1454 20.4574L10.908 19.9066L11.1454 18.8186L11.4319 17.3992L11.6647 16.2708L11.8752 14.8693L12.0006 14.4036L11.9916 14.3723L11.8886 14.3857L10.8319 15.8365L9.22445 18.0081L7.95281 19.3693L7.64833 19.4902L7.11997 19.217L7.16923 18.729L7.46475 18.2947L9.22445 16.0559L10.2856 14.6678L10.9707 13.8663L10.9662 13.7499H10.926L6.25132 16.7857L5.41848 16.8932L5.06028 16.5573L5.10505 16.0066L5.2752 15.8275L6.68117 14.8603L6.67669 14.8648Z" fill="black"/>
</g>
</g>
<defs>
<clipPath id="clip0_19350_2215">
<rect width="17.7" height="17.7" fill="white" transform="translate(3.2002 3.09766)"/>
</clipPath>
</defs>
</svg>
