<svg xmlns="http://www.w3.org/2000/svg" fill="none" viewBox="0 0 92 106"><path fill="#fff" d="M0 83.334 46 106l46-22.666V0H0v83.334Z"/><path fill="#fff" d="M0 83.334 46 106l46-22.666V0H0v83.334Z"/><path fill="#000" d="M12.83 13.33q-.37 0-.69-.09-.32-.09-.57-.25-.26-.17-.42-.37-.16-.2-.21-.43l.93-.28q.09.24.33.41.23.17.58.18.37.01.6-.16.24-.17.24-.43 0-.23-.19-.39-.18-.16-.51-.24l-.63-.17q-.36-.09-.63-.28-.28-.18-.43-.46-.15-.27-.15-.63 0-.7.45-1.09.46-.38 1.3-.38.47 0 .83.13.35.14.59.39t.36.6l-.93.28q-.08-.24-.31-.4-.22-.17-.57-.17t-.54.16q-.2.16-.2.46 0 .23.15.36.16.13.43.2l.65.16q.63.16.98.56t.35.89q0 .43-.21.75-.21.33-.61.51t-.97.18Zm3.31-.08v-4.9h1.82q.51 0 .91.21.4.2.63.57.22.37.22.85t-.22.85q-.21.37-.59.58-.38.22-.88.22h-.93v1.62Zm.96-2.51h.91q.32 0 .53-.21.21-.21.21-.55 0-.33-.23-.55-.23-.2-.58-.2h-.84Zm3.96 2.51v-4.9h1.82q.52 0 .91.2.4.21.63.56.22.35.22.82 0 .46-.23.82-.24.36-.64.56-.41.2-.93.2h-.82v1.74Zm2.69 0-1.13-1.97.73-.52 1.49 2.49Zm-1.73-2.61h.86q.22 0 .39-.09t.28-.25q.1-.16.1-.37 0-.31-.23-.51-.23-.19-.58-.19h-.82Zm4.25 2.61v-4.9h.96v4.9Zm2.73 0v-4.9h1l2.39 3.29V8.35h.95v4.9h-.95L29.95 9.9v3.35Zm8.38.08q-.75 0-1.32-.32-.58-.33-.91-.9-.33-.57-.33-1.31 0-.74.33-1.31.33-.57.91-.9.57-.32 1.32-.32.45 0 .83.13.38.13.67.37.29.23.48.53l-.78.49q-.12-.19-.31-.33-.2-.15-.43-.23-.23-.09-.46-.09-.46 0-.82.21-.35.22-.56.59-.2.37-.2.86 0 .48.2.86t.56.59q.37.22.84.22.37 0 .66-.15.29-.15.46-.41.17-.27.17-.62l.91-.14q0 .69-.28 1.18-.29.49-.79.75-.5.25-1.15.25Zm.16-1.96v-.74h2.06v.59l-.52.15Zm5.66 1.88v-.71q0-.2.12-.44.13-.25.35-.49.23-.25.53-.46l.74-.53q.16-.11.29-.24.14-.13.23-.29.08-.16.08-.3 0-.19-.08-.33-.09-.15-.26-.23-.17-.09-.41-.09-.21 0-.38.09-.16.08-.27.22-.1.14-.14.3l-.99-.17q.07-.35.3-.65.23-.3.61-.49.37-.18.85-.18.54 0 .93.2.4.19.61.53.21.34.21.79t-.24.81q-.25.35-.69.66l-.66.48q-.21.14-.35.31-.15.17-.23.37h2.24v.84Zm6.66.08q-.59 0-1.05-.32-.45-.33-.71-.9-.26-.57-.26-1.31 0-.74.26-1.31.26-.57.71-.9.45-.32 1.05-.32.59 0 1.05.32.46.33.72.9.26.57.26 1.31 0 .74-.26 1.31-.26.57-.72.9-.45.32-1.05.32Zm0-.86q.32 0 .57-.22.24-.21.38-.59.14-.37.14-.86t-.14-.87q-.14-.38-.38-.59-.25-.21-.57-.21-.32 0-.56.21-.25.21-.39.59-.13.38-.13.87t.13.86q.14.38.39.59.25.22.56.22Zm3.33.78v-.71q0-.2.12-.44.13-.25.35-.49.23-.25.53-.46l.74-.53q.15-.11.29-.24.14-.13.23-.29.08-.16.08-.3 0-.19-.08-.33-.09-.15-.26-.23-.17-.09-.41-.09-.21 0-.38.09-.16.08-.27.22-.1.14-.14.3L53 9.58q.07-.35.3-.65.23-.3.61-.49.37-.18.85-.18.54 0 .93.2.4.19.61.53.21.34.21.79t-.25.81q-.24.35-.68.66l-.66.48q-.21.14-.35.31-.15.17-.23.37h2.24v.84Zm6.49.08q-.5 0-.85-.17-.34-.18-.56-.5-.22-.31-.33-.73-.1-.42-.1-.9 0-.56.12-1.06t.36-.88q.24-.39.62-.61.38-.21.91-.21.39 0 .75.11.37.11.67.32l-.48.7q-.22-.15-.47-.22-.24-.07-.45-.07-.54 0-.85.47-.31.48-.3 1.51l-.18-.14q.16-.38.49-.61.34-.23.8-.23.47 0 .83.21.36.22.57.6.2.37.2.83 0 .46-.21.82-.22.36-.62.56-.39.2-.92.2Zm0-.81q.23 0 .41-.1.18-.11.29-.29.1-.18.1-.42t-.1-.42q-.11-.19-.29-.3-.18-.11-.41-.11-.23 0-.42.11-.18.11-.29.3-.11.18-.11.42t.11.42q.11.18.29.29.19.1.42.1Z" style="white-space:pre"/><g fill="#000" style="white-space:pre"><path d="M24.11 46.5v-9.8h6.38v2.07h-4.13v1.79h3.46v2.01h-3.46v1.86h4.2v2.07Zm12.13 0-.05-1.51v-1.98q0-.56-.1-.98-.1-.42-.35-.65-.25-.24-.76-.24-.39 0-.68.18-.3.18-.51.5l-1.9-.63q.24-.51.65-.93.41-.42 1.02-.68.6-.25 1.4-.25 1.09 0 1.84.41.76.4 1.14 1.13.38.73.38 1.72l-.03 3.91Zm-1.9.17q-1.25 0-1.93-.56-.69-.56-.69-1.58 0-1.11.72-1.66.71-.54 2-.54h1.92v1.4h-1.1q-.7 0-1 .19-.31.2-.31.55 0 .25.23.4.23.15.64.15.4 0 .71-.18.31-.17.48-.47.18-.29.18-.64h.54q0 1.4-.58 2.17-.59.77-1.81.77Zm7.94 0q-.69 0-1.28-.2-.6-.21-1.03-.58-.44-.37-.65-.9l1.8-.76q.18.37.5.54.32.18.66.18.35 0 .55-.12.19-.12.19-.33 0-.23-.2-.35-.21-.13-.58-.23l-.61-.15q-.98-.25-1.5-.83-.53-.58-.53-1.35 0-1.08.75-1.67.74-.59 2.05-.59.75 0 1.31.2.57.19.96.55.38.36.55.83l-1.74.72q-.1-.28-.4-.43-.3-.15-.66-.15-.31 0-.48.14-.17.13-.17.35 0 .17.21.29.2.12.59.22l.74.18q.66.17 1.11.51.45.34.67.8.23.45.23.97 0 .66-.39 1.14-.38.49-1.07.75-.69.27-1.58.27Zm4.2-.17v-7h2.18v7Zm1.09-7.9q-.49 0-.86-.37t-.37-.86q0-.52.37-.87.37-.36.86-.36.51 0 .87.36.36.35.36.87 0 .49-.36.86t-.87.37Zm6.01 8.07q-1.09 0-1.93-.47-.84-.47-1.32-1.3-.48-.82-.48-1.9 0-1.09.49-1.92.48-.82 1.32-1.29.84-.46 1.95-.46.99 0 1.79.48.8.47 1.26 1.41.47.94.47 2.34h-5.26l.24-.27q0 .48.19.84.2.37.55.56.35.19.78.19.52 0 .88-.23.36-.24.5-.59l1.93.66q-.28.66-.79 1.09-.51.44-1.17.65-.66.21-1.4.21Zm-1.42-4.29-.22-.28h3.14l-.2.28q0-.51-.21-.82-.21-.31-.52-.44-.31-.14-.61-.14-.31 0-.63.14-.31.13-.53.44-.22.31-.22.82Zm8.53 4.29q-.69 0-1.28-.2-.6-.21-1.03-.58-.43-.37-.64-.9l1.79-.76q.18.37.5.54.32.18.66.18.35 0 .55-.12.19-.12.19-.33 0-.23-.2-.35-.2-.13-.58-.23l-.6-.15q-.98-.25-1.51-.83-.52-.58-.52-1.35 0-1.08.74-1.67.74-.59 2.06-.59.74 0 1.3.2.57.19.96.55.38.36.55.83l-1.74.72q-.09-.28-.4-.43-.3-.15-.66-.15-.31 0-.48.14-.16.13-.16.35 0 .17.2.29.2.12.59.22l.75.18q.65.17 1.1.51.45.34.67.8.23.45.23.97 0 .66-.39 1.14-.38.49-1.07.75-.68.27-1.58.27Zm7.08 0q-1.24 0-1.85-.6-.61-.59-.61-1.7v-7.05h2.18v6.51q0 .42.16.61.15.2.47.2.13 0 .3-.06.17-.07.31-.17l.75 1.6q-.33.28-.8.47-.47.19-.91.19Zm-3.55-5.34V39.5h4.87v1.83ZM32.91 60.5l-3.67-9.8h2.24l3.81 9.8Zm-7.64 0 3.81-9.8h2.24l-3.67 9.8Zm1.79-1.86v-1.99h6.45v1.99Zm13.76 1.86-.1-1.3v-8.5h2.19v9.8Zm-2.08.17q-.98 0-1.69-.44t-1.09-1.27q-.39-.83-.39-1.96 0-1.15.39-1.97.38-.82 1.09-1.26.71-.44 1.69-.44.86 0 1.46.44.59.44.89 1.26.29.82.29 1.97 0 1.13-.29 1.96-.3.83-.89 1.27-.6.44-1.46.44Zm.57-2.02q.41 0 .73-.21t.5-.58q.18-.37.18-.86t-.18-.86q-.18-.37-.5-.58-.32-.21-.74-.21t-.75.21q-.32.21-.51.58t-.2.86q.01.49.2.86t.52.58q.33.21.75.21Zm5.03 1.85v-7h2.06l.08.88q.34-.52.83-.78.5-.27 1.1-.27.87 0 1.44.36.56.36.83 1.08.32-.7.88-1.07.56-.37 1.26-.37 1.26 0 1.9.77.64.77.62 2.4v4h-2.18v-3.58q0-.56-.12-.89-.12-.33-.34-.49-.23-.15-.54-.16-.6-.02-.91.34-.32.36-.32 1.08v3.7h-2.18v-3.58q0-.56-.12-.89-.12-.33-.34-.49-.23-.15-.54-.16-.6-.02-.91.34-.32.36-.32 1.08v3.7Zm12.46 0v-7h2.18v7Zm1.09-7.9q-.49 0-.86-.37t-.37-.86q0-.52.37-.87.37-.36.86-.36.5 0 .87.36.36.35.36.87 0 .49-.36.86-.37.37-.87.37Zm2.65 7.9v-7h2.05l.13 1.29v5.71Zm4.5 0v-3.58h2.19v3.58Zm0-3.58q0-.56-.12-.89-.13-.33-.36-.49-.23-.15-.57-.16-.63-.02-.95.34-.32.36-.32 1.08h-.66q0-1.1.34-1.88.33-.78.91-1.18.59-.41 1.36-.41.84 0 1.41.35.57.34.86 1.04.29.7.29 1.79v.41Z"/></g><path fill="#000" d="M26.82 72.38v-3.85h.82l1.12 1.66 1.12-1.66h.82v3.85h-.75V69.7l-1.19 1.75-1.19-1.74v2.67Zm5.26 0v-3.85h.76v3.85Zm2.14 0v-3.85h1.23q.59 0 1.05.24.45.25.71.68.25.43.25 1 0 .56-.25 1-.26.43-.71.68-.46.25-1.05.25Zm.75-.71h.48q.27 0 .49-.09.23-.1.4-.26.16-.17.26-.39.09-.22.09-.48t-.09-.48q-.1-.22-.26-.39-.17-.16-.4-.26-.22-.09-.49-.09h-.48Zm3.53-.62v-.62h1.65v.62Zm2.92 1.33v-3.85h.81l1.13 1.66 1.12-1.66h.81v3.85h-.75V69.7l-1.18 1.75-1.19-1.74v2.67Zm7.93 0-1.48-3.85h.76l1.51 3.85Zm-3.05 0 1.52-3.85h.76l-1.48 3.85Zm.72-.85v-.67h2.41v.67Zm4.14.85v-3.85h1.43q.4 0 .72.15.31.16.49.44.17.28.17.65 0 .36-.18.64-.19.29-.51.44-.31.16-.72.16h-.65v1.37Zm2.11 0-.89-1.55.58-.41 1.17 1.96Zm-1.36-2.06h.68q.17 0 .31-.07.13-.07.21-.2.08-.12.08-.28 0-.25-.18-.4-.18-.16-.46-.16h-.64Zm3.79 1.08-.08-.94 1.8-1.93h.97Zm-.45.98v-3.85H56v3.85Zm2.27 0-1.53-1.96.54-.45 1.92 2.41Zm1.95 0v-3.85h2.43v.68h-1.68v.88h1.45v.67h-1.45v.93h1.7v.69Zm4.6 0v-3.17h-1.16v-.68h3.06v.68h-1.15v3.17Z" style="white-space:pre"/><path fill="#FF492C" d="M71 0h21v21H71z"/><path fill="#fff" fill-rule="evenodd" d="M86.05 8.041h-1.794c.049-.28.222-.438.575-.616l.33-.168c.592-.303.906-.644.906-1.2a.972.972 0 0 0-.407-.828c-.265-.2-.59-.298-.965-.298-.298 0-.569.076-.818.233a1.383 1.383 0 0 0-.542.59l.52.519c.2-.406.493-.606.878-.606.326 0 .526.168.526.4 0 .195-.097.357-.472.546l-.21.103c-.462.233-.782.498-.966.8-.184.298-.276.682-.276 1.142v.124h2.716v-.74ZM85.806 9.641h-2.967l-1.483 2.57h2.967l1.483 2.57 1.483-2.57-1.483-2.57Z" clip-rule="evenodd"/><path fill="#fff" fill-rule="evenodd" d="M81.608 13.928a3.433 3.433 0 0 1-3.43-3.428 3.433 3.433 0 0 1 3.43-3.427l1.175-2.456a6 6 0 0 0-7.177 5.883 6 6 0 0 0 6.002 5.998 5.978 5.978 0 0 0 3.535-1.15l-1.3-2.25c-.6.516-1.382.83-2.235.83Z" clip-rule="evenodd"/><path fill="#FFC800" d="M0 83.223v-6.204l46 23.043 46-23.043v6.272L46 106 0 83.223Z"/><path fill="#FFF" d="M0 77.566v-6.5l46 23.042 46-23.042v6.5l-46 22.48-46-22.48Z"/><path fill="#FFF" d="M0 71.631v-6.5l46 23.043L92 65.13v6.5l-46 22.48-46-22.48Z"/><path stroke="#000" d="M91.5.5v82.522L46 105.441.5 83.022V.5h91ZM91.53 20.533H.625M71.262.909v19.624"/></svg>
