<svg width="24" height="24" viewBox="0 0 24 24" fill="none" xmlns="http://www.w3.org/2000/svg">
<path d="M9 8.99984C9.26522 8.99984 9.51957 9.1052 9.70711 9.29274C9.89464 9.48027 10 9.73463 10 9.99984C10 10.2651 9.89464 10.5194 9.70711 10.707C9.51957 10.8945 9.26522 10.9998 9 10.9998C8.73478 10.9998 8.48043 10.8945 8.29289 10.707C8.10536 10.5194 8 10.2651 8 9.99984C8 9.73463 8.10536 9.48027 8.29289 9.29274C8.48043 9.1052 8.73478 8.99984 9 8.99984ZM5 1.99984C7 2.99984 20 10.2498 20 10.2498C20 10.2498 21.458 11.0628 21.25 12.2498C21.087 13.1758 19.5 13.9998 19.5 13.9998L10.5 18.9998C10.5 18.9998 8 19.9998 8 17.9998V12.9998C8 12.9998 8 11.9998 9 11.9998C10 11.9998 10 12.9998 10 12.9998V16.4998L16.5 12.9998C16.5 12.9998 17.313 12.6458 17.313 12.1458C17.313 11.6458 16 10.9998 16 10.9998L6 4.99984C6 4.99984 4.5 3.99984 4.5 5.99984V17.9998C4.5 17.9998 4.53 19.4158 5.458 18.9378C6.792 18.2498 7.105 18.4258 7.438 19.1038C7.958 20.1668 6.958 20.7078 6.958 20.7078L4 22.2498C4 22.2498 2 22.9998 2 20.9998V3.99984C2 0.999844 5 1.99984 5 1.99984Z" fill="#59C7F9"/>
</svg>
