<svg width="126" height="14" viewBox="0 0 126 14" fill="none" xmlns="http://www.w3.org/2000/svg">
<g id="Group">
<g id="Group_2">
<g id="Group_3">
<g id="Group_4">
<path id="Vector" d="M10.3683 5.86398C10.5429 5.80556 10.4845 5.54325 10.3098 5.57189C8.55958 5.80556 6.54702 5.63031 8.26806 2.97572C8.35512 2.83025 8.15123 2.655 8.03439 2.80104C5.9342 4.93044 5.96341 6.9722 10.3683 5.86398Z" fill="white"/>
</g>
</g>
<g id="Group_5">
<g id="Group_6">
<path id="Vector_2" d="M5.05791 7.23572C3.77443 5.80677 6.04988 3.32687 7.62488 1.92655C7.77093 1.78108 7.59624 1.54798 7.42099 1.66425C5.05791 3.06456 0.915945 6.01123 3.33687 8.57761C3.92048 9.21906 4.76639 9.42353 5.61231 9.30726C6.89522 9.16122 8.4708 8.51919 9.60824 7.87774C10.2795 7.4986 10.8625 7.11945 11.3877 6.68189C11.563 6.56505 11.3877 6.30275 11.213 6.3898C10.3082 6.91776 9.34978 7.348 8.35396 7.67328C7.39178 7.93616 5.787 8.05242 5.05791 7.23572Z" fill="white"/>
</g>
</g>
<g id="Group_7">
<g id="Group_8">
<path id="Vector_3" d="M31.1962 3.52803C31.043 3.02263 30.7846 2.55536 30.4379 2.15693C30.0914 1.75626 29.6764 1.42038 29.2123 1.16497C23.2336 -2.42258 17.0785 3.09047 12.7029 6.70781C12.5866 6.79486 12.499 6.88249 12.3821 6.97011C12.0322 7.2622 11.653 7.55372 11.2739 7.84524C10.0483 8.77878 8.79399 9.59549 7.45209 10.0915C5.73104 10.7621 3.33933 11.025 1.76433 9.82859C0.451639 8.8372 0.772367 7.05774 1.41382 5.74505C1.6767 5.19066 2.05585 4.69468 2.46421 4.1987C2.87256 3.73192 3.31012 3.26515 3.80611 2.8568C4.30209 2.44845 4.79807 2.0693 5.35247 1.74858C5.87709 1.39864 6.4607 1.07792 7.01453 0.786398C7.13136 0.727408 7.04374 0.552726 6.92747 0.611144C6.31465 0.873453 5.73104 1.13576 5.14801 1.42785C3.98079 2.04067 2.90177 2.79895 1.96822 3.76113C1.73512 3.99481 1.53066 4.25711 1.32677 4.51999L1.06389 4.95756L0.801576 5.39512C0.443928 5.98714 0.196703 6.63916 0.0719209 7.31948C-0.307798 9.27419 0.859422 11.2867 2.55126 12.2495C5.11823 13.7369 8.38507 13.3577 10.9818 12.2203C11.8219 11.8468 12.6314 11.4079 13.4027 10.9076C14.9193 9.94485 16.2612 8.83663 17.5447 7.78625C18.8282 6.73587 19.9948 5.74448 21.2789 4.92777C21.895 4.53313 22.5381 4.18215 23.2033 3.8774C24.9249 3.11911 27.4042 2.56471 29.1545 3.58531C29.8835 4.02344 30.3503 4.75252 30.4379 5.56923C30.584 6.73587 29.9128 7.84467 29.2421 8.71922C28.3372 9.91621 27.2295 10.8784 25.9747 11.6951C25.4501 12.045 24.8665 12.3658 24.3121 12.6573H24.2834C24.1666 12.7163 24.2536 12.8909 24.3705 12.8325H24.3997C25.0008 12.5779 25.5942 12.3056 26.1791 12.0158C27.3458 11.403 28.4254 10.6447 29.3589 9.68254C29.592 9.44887 29.7965 9.18656 30.0004 8.92368C30.2115 8.65348 30.4063 8.37101 30.584 8.07776C31.3131 6.79486 31.663 5.0154 31.1968 3.52746" fill="white"/>
</g>
</g>
<g id="Group_9">
<g id="Group_10">
<path id="Vector_4" d="M21.2211 7.81429C21.0464 7.87271 21.134 8.13501 21.3087 8.10638C23.0298 7.75587 25.0715 7.78508 23.555 10.5565C23.4673 10.7312 23.6718 10.8772 23.7886 10.7312C25.6844 8.4271 25.5383 6.38477 21.2211 7.81429Z" fill="white"/>
</g>
</g>
<g id="Group_11">
<g id="Group_12">
<path id="Vector_5" d="M26.4136 6.06134C27.7847 7.40324 25.6845 10.0286 24.2258 11.5452C24.0803 11.6912 24.2842 11.9243 24.4302 11.8081C26.6765 10.2617 30.5853 6.99488 28.0184 4.63182C27.3769 4.04878 26.5304 3.90274 25.6845 4.04878C24.4016 4.28188 22.8839 5.04017 21.8048 5.74061C21.1634 6.17818 20.609 6.58653 20.113 7.0533C19.967 7.19877 20.1422 7.43244 20.3175 7.31561C21.1926 6.732 22.1256 6.20739 23.0883 5.82824C24.0505 5.50752 25.6261 5.27384 26.4136 6.06134Z" fill="white"/>
</g>
</g>
<g id="Group_13">
<path id="Vector_6" d="M42.6326 0.757812C44.2368 0.757812 45.3742 1.25379 46.4538 2.21654C46.5999 2.33338 46.5999 2.53727 46.4825 2.65411L45.5203 3.64607C45.4034 3.76233 45.258 3.76233 45.1119 3.64607C44.4413 3.06246 43.5656 2.71252 42.6618 2.71252C40.6486 2.71252 39.1321 4.40435 39.1321 6.3877C39.1321 8.37162 40.6487 10.0342 42.691 10.0342C43.6532 10.0342 44.4413 9.68431 45.1119 9.12934C45.2288 9.01307 45.404 9.04228 45.5203 9.12934L46.5122 10.1511C46.6285 10.2673 46.5999 10.4718 46.483 10.5886C45.4034 11.6384 44.0323 12.1344 42.6326 12.1344C39.4528 12.1344 36.915 9.62589 36.915 6.44612C36.915 3.32477 39.4528 0.757812 42.6326 0.757812Z" fill="white"/>
</g>
<g id="Group_14">
<path id="Vector_7" d="M50.2746 5.97988V2.82989H52.8416C53.6875 2.82989 54.4166 3.52976 54.4166 4.37567C54.4166 5.2508 53.6875 5.97988 52.8416 5.97988H50.2746ZM48.1744 1.22511V11.7266C48.1744 11.8726 48.2912 12.0187 48.4665 12.0187H49.9247C50.0707 12.0187 50.2167 11.8726 50.2167 11.7266V7.70092H51.9664L54.0666 11.9019C54.0958 11.9597 54.1835 12.0473 54.3295 12.0473H55.9921C56.2544 12.0473 56.3713 11.785 56.2544 11.5806L54.0958 7.55544C55.4669 7.00105 56.4297 5.8052 56.4297 4.34646C56.4297 2.45074 54.8833 0.933594 52.9876 0.933594H48.4659C48.3885 0.933594 48.3142 0.964367 48.2594 1.01914C48.2046 1.07392 48.1738 1.14822 48.1738 1.22568L48.1744 1.22511Z" fill="white"/>
</g>
<g id="Group_15">
<path id="Vector_8" d="M59.6399 6.50454C59.6399 4.52119 61.2733 2.858 63.2567 2.858C65.2693 2.858 66.9027 4.52119 66.9027 6.50454C66.9027 8.48788 65.24 10.1219 63.2567 10.1219C62.7816 10.122 62.3112 10.0286 61.8722 9.84682C61.4333 9.66509 61.0344 9.39864 60.6985 9.06271C60.3626 8.72678 60.0961 8.32795 59.9144 7.88901C59.7327 7.45007 59.6398 6.97961 59.6399 6.50454ZM57.5684 6.4759C57.5684 9.65453 60.0769 12.1631 63.2567 12.1631C66.4067 12.1631 68.945 9.65453 68.945 6.4759C68.945 3.29556 66.4365 0.757812 63.2567 0.757812C60.0769 0.757812 57.5684 3.32477 57.5684 6.47533V6.4759Z" fill="white"/>
</g>
<g id="Group_16">
<path id="Vector_9" d="M70.0228 10.4699L70.6064 9.47798C70.7232 9.24488 71.0148 9.24488 71.1316 9.36114C71.2186 9.41956 72.5021 10.3531 73.5233 10.3531C74.34 10.3531 74.9528 9.82791 74.9528 9.12747C74.9528 8.31134 74.2816 7.75694 72.9397 7.23175C71.4523 6.61894 69.9644 5.68539 69.9644 3.81888C69.9644 2.41857 71.0148 0.785156 73.5233 0.785156C75.1275 0.785156 76.3818 1.60186 76.7031 1.83553C76.8486 1.92316 76.907 2.18547 76.7901 2.36072L76.1773 3.26506C76.0611 3.46895 75.828 3.58578 75.6235 3.46895C75.5067 3.38132 74.2816 2.59382 73.4357 2.59382C72.5313 2.59382 72.0359 3.20664 72.0359 3.70262C72.0359 4.46091 72.619 4.95689 73.903 5.4815C75.4488 6.09432 77.1985 7.02786 77.1985 9.06963C77.1985 10.703 75.7987 12.191 73.5525 12.191C71.5692 12.191 70.3727 11.2574 70.0818 10.9653C69.9352 10.7907 69.8773 10.703 70.0228 10.4699Z" fill="white"/>
</g>
<g id="Group_17">
<path id="Vector_10" d="M78.5977 10.4699L79.1813 9.47798C79.2982 9.24488 79.5897 9.24488 79.7065 9.36114C79.7936 9.41956 81.077 10.3531 82.0982 10.3531C82.9149 10.3531 83.5277 9.82791 83.5277 9.12747C83.5277 8.31134 82.8565 7.75694 81.5146 7.23175C80.0272 6.61894 78.5393 5.68539 78.5393 3.81888C78.5393 2.41857 79.5897 0.785156 82.0982 0.785156C83.7024 0.785156 84.9573 1.60186 85.278 1.83553C85.4235 1.92316 85.4819 2.18547 85.3656 2.36072L84.7528 3.26506C84.636 3.46895 84.4029 3.58578 84.1984 3.46895C84.0822 3.38132 82.8565 2.59382 82.0106 2.59382C81.1063 2.59382 80.6108 3.20664 80.6108 3.70262C80.6108 4.46091 81.1939 4.95689 82.4779 5.4815C84.0237 6.09432 85.774 7.02786 85.774 9.06963C85.774 10.703 84.3737 12.191 82.1274 12.191C80.1441 12.191 78.9476 11.2574 78.6567 10.9653C78.5393 10.7907 78.4522 10.703 78.5977 10.4699Z" fill="white"/>
</g>
<g id="Group_18">
<path id="Vector_11" d="M89.5384 5.97988V2.82989H92.1053C92.9512 2.82989 93.6803 3.52976 93.6803 4.37567C93.6803 5.2508 92.9512 5.97988 92.1053 5.97988H89.5384ZM87.4966 1.22511V11.6974C87.4966 11.8434 87.6128 11.9895 87.7881 11.9895H89.2468C89.3923 11.9895 89.5384 11.8434 89.5384 11.6974V7.67171H91.2886L93.3596 11.9019C93.386 11.9476 93.4244 11.9853 93.4706 12.0109C93.5168 12.0365 93.5691 12.0491 93.6219 12.0473H95.2851C95.5474 12.0473 95.6642 11.785 95.5474 11.5806L93.3882 7.55544C94.7599 7.00105 95.7221 5.80519 95.7221 4.34646C95.7221 2.45074 94.1763 0.933594 92.28 0.933594H87.7589C87.6814 0.933594 87.6071 0.964367 87.5523 1.01914C87.4976 1.07392 87.4668 1.14822 87.4668 1.22568L87.4966 1.22511Z" fill="white"/>
</g>
<g id="Group_19">
<path id="Vector_12" d="M98.9304 6.50454C98.9304 4.52119 100.564 2.858 102.548 2.858C104.56 2.858 106.194 4.52119 106.194 6.50454C106.194 8.48788 104.531 10.1219 102.548 10.1219C100.535 10.1219 98.9011 8.48788 98.9304 6.50454ZM96.8594 6.4759C96.8594 9.65453 99.3679 12.1631 102.548 12.1631C105.698 12.1631 108.235 9.65453 108.235 6.4759C108.235 3.29556 105.727 0.757812 102.548 0.757812C99.3679 0.757812 96.8594 3.32477 96.8594 6.47533V6.4759Z" fill="white"/>
</g>
<g id="Group_20">
<path id="Vector_13" d="M111.997 6.0675V2.88773H113.835C114.71 2.88773 115.469 3.55897 115.469 4.43409C115.469 4.64875 115.427 4.86137 115.345 5.05975C115.263 5.25813 115.143 5.43837 114.991 5.59013C114.839 5.74189 114.659 5.86218 114.46 5.9441C114.262 6.02602 114.049 6.06796 113.835 6.0675H111.997ZM109.956 11.726C109.956 11.8726 110.072 12.0181 110.247 12.0181H111.706C111.851 12.0181 111.997 11.8726 111.997 11.726V7.99301H114.01C115.936 7.99301 117.54 6.38823 117.54 4.43409C117.54 2.50859 115.936 0.933594 113.981 0.933594H110.247C110.169 0.933745 110.095 0.964586 110.04 1.01935C109.986 1.07411 109.955 1.14832 109.955 1.22568L109.956 11.726Z" fill="white"/>
</g>
<g id="Group_21">
<path id="Vector_14" d="M118.94 1.22511C118.941 1.14784 118.971 1.07378 119.026 1.01914C119.081 0.964507 119.155 0.933745 119.232 0.933594H125.708C125.746 0.933594 125.784 0.941149 125.82 0.955828C125.855 0.970507 125.887 0.992022 125.914 1.01914C125.941 1.04627 125.963 1.07847 125.978 1.11391C125.992 1.14934 126 1.18733 126 1.22568V2.5378C126 2.61526 125.969 2.68956 125.914 2.74434C125.86 2.79911 125.785 2.82989 125.708 2.82989H121.011V5.42548H124.92C125.066 5.42548 125.212 5.57095 125.212 5.717V7.02968C125.212 7.10715 125.182 7.18144 125.127 7.23622C125.072 7.291 124.998 7.32177 124.92 7.32177H121.011V10.0926H125.708C125.785 10.0926 125.859 10.1233 125.914 10.178C125.969 10.2326 126 10.3068 126 10.3841V11.6968C126 11.7352 125.992 11.7732 125.978 11.8086C125.963 11.844 125.941 11.8762 125.914 11.9034C125.887 11.9305 125.855 11.952 125.82 11.9667C125.784 11.9814 125.746 11.9889 125.708 11.9889H119.261C119.223 11.9889 119.185 11.9814 119.149 11.9667C119.114 11.952 119.082 11.9305 119.055 11.9034C119.027 11.8762 119.006 11.844 118.991 11.8086C118.977 11.7732 118.969 11.7352 118.969 11.6968V1.22511H118.94Z" fill="white"/>
</g>
</g>
</g>
</svg>
