<svg width="121" height="12" viewBox="0 0 121 12" fill="none" xmlns="http://www.w3.org/2000/svg">
<g id="Vector">
<path d="M1.1246 2.13732C1.06693 1.98662 0.951585 1.86888 0.778569 1.7841C0.615166 1.68991 0.446957 1.64282 0.273941 1.64282H0V1.20482H3.95052V1.64282H3.67658C3.49395 1.64282 3.33535 1.68049 3.20079 1.75585C3.06622 1.8312 2.99893 1.9301 2.99893 2.05255C2.99893 2.09965 3.00374 2.13732 3.01335 2.16558L5.57975 9.37125L8.17498 2.2221C8.1942 2.16558 8.20381 2.12319 8.20381 2.09494C8.20381 1.95365 8.12211 1.84533 7.95871 1.76998C7.80492 1.6852 7.64632 1.64282 7.48292 1.64282H7.22339V1.20482H10.4819V1.64282H10.2512C10.0493 1.64282 9.84746 1.68991 9.64561 1.7841C9.45337 1.8783 9.32841 2.00545 9.27074 2.16558L5.88252 11.1373H4.58491L1.1246 2.13732Z" fill="white"/>
<path d="M19.1192 8.49527L18.8597 11.095H10.8433V10.657H11.2614C11.5402 10.657 11.7468 10.6193 11.8814 10.5439C12.0256 10.4592 12.0977 10.3273 12.0977 10.1483V2.16558C12.0977 1.81707 11.8189 1.64282 11.2614 1.64282H10.8433V1.20482H18.8741V3.73387H18.4272C18.331 2.48112 17.8841 1.85475 17.0863 1.85475H13.8278V5.58474H16.2212C16.5096 5.58474 16.697 5.47642 16.7835 5.25978C16.8796 5.03372 16.9469 4.69463 16.9854 4.24251H17.3746V7.5769H16.9854C16.9469 7.12478 16.8796 6.7904 16.7835 6.57376C16.697 6.3477 16.5096 6.23467 16.2212 6.23467H13.8278V10.445H17.3458C18.0763 10.445 18.5185 9.79511 18.6723 8.49527H19.1192Z" fill="white"/>
<path d="M19.9125 10.657H20.3307C20.6094 10.657 20.8161 10.6193 20.9506 10.5439C21.0948 10.4592 21.1669 10.3273 21.1669 10.1483V2.16558C21.1669 1.81707 20.8882 1.64282 20.3307 1.64282H19.9125V1.20482H22.998L28.3038 8.96152V2.16558C28.3038 1.81707 28.025 1.64282 27.4676 1.64282H27.0494V1.20482H30.3656V1.64282H29.933C29.3851 1.64282 29.1112 1.81707 29.1112 2.16558V11.095H28.1308L21.9743 2.20797V10.1483C21.9743 10.4874 22.2483 10.657 22.7961 10.657H23.2287V11.095H19.9125V10.657Z" fill="white"/>
<path d="M36.1998 11.2362C34.8829 11.2362 33.8737 10.9913 33.172 10.5016C32.4799 10.0118 32.1339 9.22525 32.1339 8.14205V2.16558C32.1339 1.99604 32.0618 1.86888 31.9176 1.7841C31.7831 1.68991 31.5956 1.64282 31.3553 1.64282H31.0093V1.20482H35.0031V1.64282H34.6426C34.4023 1.64282 34.2101 1.68991 34.0659 1.7841C33.9313 1.86888 33.8641 1.99604 33.8641 2.16558V8.26921C33.8641 9.11693 34.1092 9.71505 34.5994 10.0636C35.0992 10.4027 35.7672 10.5722 36.6035 10.5722C37.3628 10.5722 38.002 10.3979 38.521 10.0494C39.0401 9.6915 39.2996 9.09809 39.2996 8.26921V2.16558C39.2996 1.99604 39.2275 1.86888 39.0834 1.7841C38.9488 1.68991 38.7613 1.64282 38.521 1.64282H38.175V1.20482H41.246V1.64282H40.8856C40.6453 1.64282 40.4531 1.68991 40.3089 1.7841C40.1743 1.86888 40.107 1.99604 40.107 2.16558V8.14205C40.107 10.2048 38.8046 11.2362 36.1998 11.2362Z" fill="white"/>
<path d="M76.5882 1.20482V3.73387H76.1412C76.0451 2.48112 75.6029 1.85475 74.8148 1.85475H71.5419V6.00861H73.7767C74.065 6.00861 74.2525 5.90028 74.339 5.68364C74.4351 5.45758 74.5024 5.11849 74.5408 4.66637H74.9301V8.00076H74.5408C74.5024 7.54864 74.4351 7.21426 74.339 6.99762C74.2525 6.77156 74.065 6.65853 73.7767 6.65853H71.5419V10.1483C71.5419 10.3273 71.6092 10.4592 71.7437 10.5439C71.8879 10.6193 72.0994 10.657 72.3781 10.657H72.7962V11.095H68.5574V10.657H68.9899C69.5378 10.657 69.8117 10.4874 69.8117 10.1483V2.16558C69.8117 1.81707 69.5378 1.64282 68.9899 1.64282H68.5574V1.20482H76.5882Z" fill="white"/>
<path d="M77.3319 10.657H77.75C78.0288 10.657 78.2355 10.6193 78.37 10.5439C78.5142 10.4592 78.5863 10.3273 78.5863 10.1483V2.16558C78.5863 1.81707 78.3075 1.64282 77.75 1.64282H77.3319V1.20482H81.5708V1.64282H81.1383C80.5904 1.64282 80.3164 1.81707 80.3164 2.16558V9.8375C80.3164 10.2425 80.6048 10.445 81.1815 10.445H83.8488C84.2525 10.445 84.5601 10.2143 84.7716 9.75273C84.9927 9.29119 85.132 8.82965 85.1897 8.36811H85.6655L85.406 11.095H77.3319V10.657Z" fill="white"/>
<path d="M94.4474 8.49527L94.1879 11.095H86.1715V10.657H86.5896C86.8683 10.657 87.075 10.6193 87.2096 10.5439C87.3538 10.4592 87.4258 10.3273 87.4258 10.1483V2.16558C87.4258 1.81707 87.1471 1.64282 86.5896 1.64282H86.1715V1.20482H94.2023V3.73387H93.7553C93.6592 2.48112 93.2122 1.85475 92.4145 1.85475H89.156V5.58474H91.5494C91.8377 5.58474 92.0252 5.47642 92.1117 5.25978C92.2078 5.03372 92.2751 4.69463 92.3135 4.24251H92.7028V7.5769H92.3135C92.2751 7.12478 92.2078 6.7904 92.1117 6.57376C92.0252 6.3477 91.8377 6.23467 91.5494 6.23467H89.156V10.445H92.674C93.4045 10.445 93.8466 9.79511 94.0004 8.49527H94.4474Z" fill="white"/>
<path d="M100.503 11.2362C99.1864 11.2362 98.1772 10.9913 97.4755 10.5016C96.7834 10.0118 96.4374 9.22525 96.4374 8.14205V2.16558C96.4374 1.99604 96.3653 1.86888 96.2211 1.7841C96.0866 1.68991 95.8991 1.64282 95.6588 1.64282H95.3128V1.20482H99.3066V1.64282H98.9461C98.7058 1.64282 98.5136 1.68991 98.3694 1.7841C98.2348 1.86888 98.1676 1.99604 98.1676 2.16558V8.26921C98.1676 9.11693 98.4127 9.71505 98.9029 10.0636C99.4027 10.4027 100.071 10.5722 100.907 10.5722C101.666 10.5722 102.306 10.3979 102.825 10.0494C103.344 9.6915 103.603 9.09809 103.603 8.26921V2.16558C103.603 1.99604 103.531 1.86888 103.387 1.7841C103.252 1.68991 103.065 1.64282 102.825 1.64282H102.479V1.20482H105.55V1.64282H105.189C104.949 1.64282 104.757 1.68991 104.612 1.7841C104.478 1.86888 104.411 1.99604 104.411 2.16558V8.14205C104.411 10.2048 103.108 11.2362 100.503 11.2362Z" fill="white"/>
<path d="M113.692 8.6083C113.817 9.051 113.937 9.40893 114.053 9.68208C114.168 9.94582 114.327 10.1719 114.529 10.3603C114.73 10.5486 114.995 10.6475 115.322 10.657V11.095H113.981C113.471 11.095 113.082 10.9772 112.813 10.7417C112.544 10.5063 112.332 10.1436 112.178 9.65383C112.092 9.34299 112.025 9.07926 111.977 8.86262C111.871 8.38224 111.765 8.00076 111.659 7.71819C111.554 7.42619 111.39 7.19071 111.169 7.01175H109.179V10.1483C109.179 10.4874 109.453 10.657 110.001 10.657H110.434V11.095H106.195V10.657H106.613C106.892 10.657 107.099 10.6193 107.233 10.5439C107.377 10.4592 107.449 10.3273 107.449 10.1483V2.16558C107.449 1.81707 107.171 1.64282 106.613 1.64282H106.195V1.20482H111.285C112.428 1.20482 113.25 1.45443 113.75 1.95365C114.25 2.45287 114.5 3.16872 114.5 4.10122C114.5 4.83592 114.351 5.43875 114.053 5.9097C113.755 6.37124 113.269 6.6915 112.597 6.87046C112.904 7.03059 113.125 7.24723 113.26 7.52038C113.404 7.78412 113.548 8.14676 113.692 8.6083ZM109.179 6.36182H110.91C111.563 6.36182 112.039 6.17344 112.337 5.79667C112.645 5.41049 112.798 4.84534 112.798 4.10122C112.798 3.35711 112.645 2.79667 112.337 2.4199C112.039 2.04313 111.563 1.85475 110.91 1.85475H109.179V6.36182Z" fill="white"/>
<path d="M58.8252 7.61575L58.7051 8.74017H55.2027V8.52235H55.383C55.4991 8.52235 55.5832 8.50469 55.6353 8.46937C55.6913 8.43404 55.7194 8.37714 55.7194 8.29864V5.06669C55.7194 4.98819 55.6913 4.93129 55.6353 4.89597C55.5832 4.86064 55.4991 4.84298 55.383 4.84298H55.2027V4.61928H58.7111V5.73192H58.4828C58.4388 5.20601 58.2365 4.94306 57.8761 4.94306H56.6385V6.43247H57.5336C57.6538 6.43247 57.7339 6.38734 57.7739 6.29707C57.814 6.20288 57.842 6.06748 57.858 5.89087H58.0443V7.29786H57.858C57.842 7.12125 57.814 6.98781 57.7739 6.89754C57.7339 6.80335 57.6538 6.75625 57.5336 6.75625H56.6385V8.42227H58.0082C58.1965 8.42227 58.3326 8.3477 58.4167 8.19856C58.5048 8.04943 58.5649 7.85516 58.597 7.61575H58.8252Z" fill="white"/>
<path d="M60.1614 8.52235H60.3416C60.4578 8.52235 60.5439 8.50469 60.5999 8.46937C60.656 8.43012 60.684 8.37321 60.684 8.29864V4.94306H59.8851C59.7208 4.94306 59.6047 5.05688 59.5366 5.28451C59.4685 5.51214 59.4325 5.72799 59.4285 5.93207H59.2002V4.61928H63.087V5.93207H62.8527C62.8487 5.72799 62.8127 5.51214 62.7446 5.28451C62.6765 5.05688 62.5604 4.94306 62.3962 4.94306H61.6032V8.29864C61.6032 8.44778 61.7153 8.52235 61.9396 8.52235H62.1258V8.74017H60.1614V8.52235Z" fill="white"/>
<path d="M118.818 4.01385C118.534 4.01385 118.269 3.96201 118.021 3.85832C117.774 3.75463 117.556 3.6108 117.369 3.42683C117.181 3.24286 117.034 3.02962 116.928 2.78712C116.822 2.54462 116.77 2.28455 116.77 2.00693C116.77 1.7293 116.822 1.46924 116.928 1.22673C117.034 0.984231 117.181 0.770995 117.369 0.587026C117.556 0.403058 117.774 0.259228 118.021 0.155537C118.269 0.0518456 118.534 0 118.818 0C119.101 0 119.366 0.0518456 119.614 0.155537C119.861 0.259228 120.079 0.403058 120.267 0.587026C120.454 0.770995 120.601 0.984231 120.707 1.22673C120.813 1.46924 120.866 1.7293 120.866 2.00693C120.866 2.28455 120.813 2.54462 120.707 2.78712C120.601 3.02962 120.454 3.24286 120.267 3.42683C120.079 3.6108 119.861 3.75463 119.614 3.85832C119.366 3.96201 119.101 4.01385 118.818 4.01385ZM118.818 3.53219C119.104 3.53219 119.365 3.46362 119.601 3.32648C119.836 3.18934 120.024 3.00537 120.164 2.77458C120.304 2.54378 120.374 2.2879 120.374 2.00693C120.374 1.72596 120.304 1.47007 120.164 1.23928C120.024 1.00848 119.836 0.824512 119.601 0.687372C119.365 0.550232 119.104 0.481662 118.818 0.481662C118.531 0.481662 118.27 0.550232 118.034 0.687372C117.799 0.824512 117.611 1.00848 117.471 1.23928C117.331 1.47007 117.261 1.72596 117.261 2.00693C117.261 2.2879 117.331 2.54378 117.471 2.77458C117.611 3.00537 117.799 3.18934 118.034 3.32648C118.27 3.46362 118.531 3.53219 118.818 3.53219Z" fill="white"/>
<path d="M42.1654 11.1091H42.771L45.4056 11.2119L46.0294 11.2362C47.1156 11.2362 47.9999 10.9961 48.6823 10.5157C49.3648 10.0353 49.706 9.34299 49.706 8.43875C49.706 7.81709 49.5522 7.30374 49.2446 6.89872C48.937 6.49369 48.5622 6.17815 48.12 5.95209C47.6875 5.71661 47.1252 5.467 46.4331 5.20327C45.8949 4.99604 45.4719 4.81708 45.1644 4.66637C44.8568 4.51567 44.5972 4.32728 44.3858 4.10122C44.1839 3.87516 44.083 3.5973 44.083 3.26762C44.083 2.79667 44.2704 2.42461 44.6453 2.15145C45.0202 1.8783 45.5344 1.74172 46.188 1.74172C46.8705 1.74172 47.452 1.9301 47.9326 2.30687C48.4132 2.67422 48.6967 3.2064 48.7833 3.90342H49.2879V1.12005H48.6679L46.0985 1.06944L45.7987 1.06354C44.7414 1.06354 43.9004 1.27076 43.2756 1.6852C42.6508 2.09965 42.3384 2.70247 42.3384 3.49368C42.3384 4.03058 42.4778 4.4827 42.7566 4.85005C43.0449 5.21739 43.3909 5.5141 43.7946 5.74016C44.208 5.9568 44.7414 6.19699 45.395 6.46073C45.9814 6.69621 46.4379 6.90343 46.7647 7.08239C47.1012 7.25194 47.3799 7.47329 47.601 7.74644C47.8317 8.01018 47.947 8.33043 47.947 8.7072C47.947 9.31003 47.7307 9.77157 47.2982 10.0918C46.8657 10.4121 46.2938 10.5722 45.5825 10.5722C45.1307 10.5722 44.6934 10.4827 44.2704 10.3038C43.8475 10.1248 43.4871 9.86576 43.1891 9.52667C42.9007 9.18758 42.7277 8.79197 42.67 8.33985H42.1654V11.1091Z" fill="white"/>
<path fill-rule="evenodd" clip-rule="evenodd" d="M118.101 2.91004V1.05865H119.058C119.135 1.05865 119.219 1.0804 119.309 1.12388C119.4 1.16569 119.476 1.23092 119.54 1.31955C119.604 1.40652 119.637 1.5169 119.637 1.6507C119.637 1.78617 119.603 1.90156 119.537 1.99689C119.478 2.07971 119.408 2.14487 119.326 2.19237L119.714 2.91004H119.258L118.927 2.28288H118.516V2.91004H118.101ZM119.081 1.89905C119.016 1.95425 118.956 1.98184 118.899 1.98184H118.516V1.35969H118.91C118.959 1.35969 119.016 1.37976 119.081 1.4199C119.148 1.46004 119.181 1.53697 119.181 1.6507C119.181 1.76108 119.148 1.84386 119.081 1.89905Z" fill="white"/>
</g>
</svg>
