<svg width="63" height="23" viewBox="0 0 63 23" fill="none" xmlns="http://www.w3.org/2000/svg">
<g id="Group">
<path id="Vector" d="M56.4566 0.00390625H52.2109V22.4856H56.4566V0.00390625Z" fill="white"/>
<path id="Vector_2" d="M50.5559 11.8135C50.2728 10.6688 49.8156 9.63857 49.1842 8.72282C48.5528 7.82997 47.7472 7.09737 46.7674 6.57081C45.7877 6.04426 44.6337 5.76953 43.3273 5.76953C42.1516 5.76953 41.0847 5.99847 40.105 6.43345C39.147 6.86843 38.2978 7.48656 37.6011 8.24205C36.9044 8.99755 36.3601 9.9133 35.9899 10.9664C35.6198 12.0195 35.4238 13.1413 35.4238 14.3547C35.4238 15.6138 35.598 16.7585 35.9681 17.8116C36.3383 18.8647 36.8608 19.7576 37.5358 20.5131C38.2107 21.2686 39.0381 21.8409 40.0179 22.253C40.9977 22.6651 42.0863 22.8712 43.3056 22.8712C45.0692 22.8712 46.5497 22.4591 47.7908 21.612C49.0318 20.7649 49.9463 19.3684 50.5559 17.4224H46.811C46.6803 17.9261 46.2884 18.4069 45.6788 18.8647C45.0692 19.3226 44.3289 19.5516 43.458 19.5516C42.2605 19.5516 41.346 19.231 40.6928 18.5671C40.0614 17.9032 39.7131 16.873 39.6477 15.4078H50.8172C50.9478 14.1715 50.8389 12.9582 50.5559 11.8135ZM39.6913 12.5919C39.7131 12.2714 39.7784 11.9279 39.8872 11.5159C39.9961 11.1267 40.1921 10.7375 40.4533 10.3712C40.7146 10.0049 41.0847 9.70725 41.5202 9.47832C41.9774 9.22649 42.5435 9.11202 43.2185 9.11202C44.2636 9.11202 45.0256 9.40963 45.5482 9.98198C46.0489 10.5772 46.4191 11.4243 46.615 12.569L39.6913 12.5919Z" fill="white"/>
<path id="Vector_3" d="M30.0902 22.4845V20.218H30.0031C29.4588 21.1566 28.762 21.8435 27.9129 22.2555C27.0638 22.6676 26.1711 22.8966 25.2784 22.8966C24.1462 22.8966 23.21 22.7363 22.4697 22.4158C21.7512 22.0953 21.1633 21.6603 20.7497 21.088C20.336 20.5156 20.0312 19.8059 19.857 18.9817C19.6828 18.1576 19.5957 17.2418 19.5957 16.2345V6.20703H23.8414V15.4103C23.8414 16.761 24.0373 17.7455 24.451 18.4094C24.8429 19.0733 25.5614 19.3938 26.5848 19.3938C27.7387 19.3938 28.5878 19.0275 29.1104 18.3178C29.6329 17.5852 29.8942 16.3947 29.8942 14.7464V6.20703H34.1399V22.4845H30.0902Z" fill="white"/>
<path id="Vector_4" d="M4.70291 0V8.63094H13.3467V0H18.0496V22.4817H13.3467V12.7747H4.70291V22.4817H0V0H4.70291Z" fill="white"/>
<g id="Group_2">
<path id="Vector_5" d="M60.4164 1.78556C60.4382 1.83134 60.46 1.90002 60.46 1.9916C60.46 2.10607 60.4382 2.19764 60.4164 2.22054C60.3511 2.38079 60.0898 2.3579 60.0898 2.3579H59.785V1.64819H60.1334C60.1987 1.64819 60.3729 1.67109 60.4164 1.78556ZM61.1349 1.85424C61.1349 1.44215 60.9172 1.28189 60.6559 1.21321C60.4164 1.14453 60.1334 1.14453 60.1334 1.14453H59.785H59.4802H59.1318V3.86889H59.785V2.81577H59.9157C60.0463 2.83867 60.2422 2.86156 60.3293 2.99892C60.46 3.18207 60.7648 3.86889 60.7648 3.86889H61.4615C61.4615 3.86889 61.2438 3.36522 61.1349 3.13629C61.0261 2.90735 60.8954 2.65552 60.7212 2.60973C60.6995 2.60973 60.6777 2.60973 60.6559 2.60973C60.7212 2.58684 60.8083 2.51816 60.8954 2.49526C61.0261 2.40369 61.1349 2.26632 61.1349 1.85424Z" fill="white"/>
<path id="Vector_6" d="M62.2459 2.58699C62.2459 3.18223 62.05 3.68589 61.6581 4.12087C61.2662 4.53296 60.7872 4.7619 60.2211 4.7619C59.655 4.7619 59.176 4.55586 58.7841 4.14377C58.3922 3.73168 58.1962 3.20512 58.1962 2.60989C58.1962 2.03754 58.3922 1.53388 58.7841 1.0989C59.176 0.663919 59.655 0.457875 60.2211 0.457875C60.7872 0.457875 61.2662 0.663919 61.6581 1.0989C62.05 1.51099 62.2459 2.01465 62.2459 2.58699ZM62.6814 2.58699C62.6814 1.87729 62.4419 1.25916 61.9629 0.755494C61.4839 0.251831 60.896 0 60.2211 0C59.5679 0 59.0018 0.228937 58.5228 0.709706C58.0002 1.21337 57.7607 1.8315 57.7607 2.58699C57.7607 3.31959 58.0002 3.93772 58.4792 4.41849C58.9582 4.92216 59.5461 5.17399 60.2211 5.17399C60.896 5.17399 61.4621 4.92216 61.9411 4.44139C62.4419 3.93772 62.6814 3.31959 62.6814 2.58699Z" fill="white"/>
</g>
</g>
</svg>
