<svg width="81" height="80" viewBox="0 0 81 80" fill="none" xmlns="http://www.w3.org/2000/svg">
<path d="M37.423 47.2822C39.3922 46.4616 41.6076 46.4615 43.5769 47.2819L74.2846 60.0756C75.1051 60.4175 75.1051 61.5799 74.2846 61.9218L43.5768 74.7179C41.6076 75.5384 39.3922 75.5385 37.4229 74.718L6.71541 61.9244C5.89489 61.5825 5.89485 60.4201 6.71535 60.0782L37.423 47.2822Z" stroke="#435D16" stroke-width="2"/>
<path d="M37.423 33.2822C39.3922 32.4616 41.6076 32.4615 43.5769 33.2819L74.2846 46.0756C75.1051 46.4175 75.1051 47.5799 74.2846 47.9218L43.5768 60.7179C41.6076 61.5384 39.3922 61.5385 37.4229 60.718L6.71541 47.9244C5.89489 47.5825 5.89485 46.4201 6.71535 46.0782L37.423 33.2822Z" stroke="#83AB3F" stroke-width="2"/>
<path d="M37.423 19.2822C39.3922 18.4616 41.6076 18.4615 43.5769 19.2819L74.2846 32.0756C75.1051 32.4175 75.1051 33.5799 74.2846 33.9218L43.5768 46.7179C41.6076 47.5384 39.3922 47.5385 37.4229 46.718L6.71541 33.9244C5.89489 33.5825 5.89485 32.4201 6.71535 32.0782L37.423 19.2822Z" stroke="#A3D253" stroke-width="2"/>
<path d="M37.423 5.28215C39.3922 4.46158 41.6076 4.4615 43.5769 5.28195L74.2846 18.0756C75.1051 18.4175 75.1051 19.5799 74.2846 19.9218L43.5768 32.7179C41.6076 33.5384 39.3922 33.5385 37.4229 32.718L6.71541 19.9244C5.89489 19.5825 5.89485 18.4201 6.71535 18.0782L37.423 5.28215Z" stroke="#C3F967" stroke-width="2"/>
</svg>
