<svg width="81" height="80" viewBox="0 0 81 80" fill="none" xmlns="http://www.w3.org/2000/svg">
<path d="M10.5 18H36.5C37.6046 18 38.5 17.1046 38.5 16V11.737C38.5 10.1396 40.2803 9.18686 41.6094 10.0729L60.0039 22.3359C61.1913 23.1275 61.1913 24.8725 60.0038 25.6641L38.5 40" stroke="#C3F967" stroke-width="2" stroke-linecap="round"/>
<path d="M4.5 36H32.5" stroke="#435D16" stroke-width="2" stroke-linecap="round"/>
<path d="M8.5 24H36.5" stroke="#A3D253" stroke-width="2" stroke-linecap="round"/>
<path d="M6.5 30H34.5" stroke="#83AB3F" stroke-width="2" stroke-linecap="round"/>
<path d="M38.5 40L16.9961 54.3359C15.8087 55.1275 15.8087 56.8725 16.9962 57.6641L35.3906 69.9271C36.7197 70.8131 38.5 69.8604 38.5 68.263V64C38.5 62.8954 39.3954 62 40.5 62H66.5" stroke="#C3F967" stroke-width="2" stroke-linecap="round"/>
<path d="M44.5 44H72.5" stroke="#435D16" stroke-width="2" stroke-linecap="round"/>
<path d="M40.5 56H68.5" stroke="#A3D253" stroke-width="2" stroke-linecap="round"/>
<path d="M42.5 50H70.5" stroke="#83AB3F" stroke-width="2" stroke-linecap="round"/>
</svg>
