<svg width="68" height="29" viewBox="0 0 68 29" fill="none" xmlns="http://www.w3.org/2000/svg">
<g id="Group 34721">
<path id="Vector" d="M50.0216 0H50.1016C50.3725 0.0591979 50.5401 0.196412 50.6044 0.411641C50.644 0.544151 50.644 0.727037 50.6044 0.9603C50.5662 1.18494 50.4186 1.36077 50.2028 1.43192C50.0589 1.47936 49.9187 1.4674 49.7823 1.39605C49.5124 1.25433 49.453 1.00676 49.4512 0.717432C49.45 0.586491 49.4685 0.47378 49.5065 0.379298C49.5916 0.167989 49.7633 0.0415562 50.0216 0Z" fill="white"/>
<path id="Vector_2" d="M42.2718 6.03657C42.2491 6.04794 42.2287 6.06264 42.2107 6.08067C41.5209 6.75929 40.7047 7.22151 39.7814 7.43438C39.6724 7.45987 39.5615 7.48515 39.4486 7.51024C39.1869 7.56905 38.9429 7.56728 38.6824 7.59139C38.363 7.6208 38.0249 7.58963 37.7091 7.55729C37.0262 7.4875 36.4211 7.28325 35.8938 6.94453C35.4367 6.6505 35.0905 6.23592 34.8553 5.70078C34.7742 5.51555 34.7606 5.28326 34.7642 5.08509C34.7748 4.50408 35.2234 3.94837 35.6798 3.62494C36.1263 3.30817 36.6583 3.02727 37.2757 2.78225C37.8344 2.56074 38.3838 2.37649 38.924 2.22947C39.1722 2.16204 39.4164 2.09618 39.6568 2.03188C39.9104 1.96406 40.1521 1.90643 40.3818 1.85899C40.7068 1.79196 41.043 1.72511 41.3903 1.65847C41.5321 1.63142 41.675 1.63024 41.8143 1.59378C42.1672 1.50087 42.5529 1.60966 42.6546 1.99131C43.1643 3.90524 43.5256 5.8131 43.7384 7.71489C43.8525 8.73223 43.8852 9.80073 43.8366 10.9204C43.8311 11.047 43.8178 11.1733 43.7966 11.2991C43.7684 11.4649 43.7584 11.6314 43.7302 11.8037C43.6155 12.514 43.4373 13.1144 43.0633 13.7248C42.7513 14.2333 42.3073 14.5599 41.7314 14.7046C41.6056 14.7363 41.4636 14.7608 41.3057 14.7781C41.0475 14.8069 40.8193 14.7504 40.57 14.7222C40.156 14.6746 39.7238 14.5176 39.3598 14.3288C39.2004 14.2453 39.1258 14.0436 39.1293 13.8689C39.1348 13.5404 39.3192 13.3401 39.6826 13.2679C39.7434 13.2562 39.7999 13.2636 39.852 13.2903C40.1978 13.4694 40.5704 13.5727 40.9699 13.6002C41.3062 13.6229 41.5852 13.549 41.8067 13.3785C42.3747 12.941 42.5582 11.983 42.6276 11.2768C42.6629 10.9208 42.6831 10.6513 42.6882 10.4682C42.7035 9.88757 42.694 9.37694 42.6599 8.93628C42.6298 8.54385 42.6092 8.28844 42.5982 8.17004C42.5378 7.50122 42.4488 6.80006 42.3312 6.06656C42.3249 6.02931 42.3051 6.01932 42.2718 6.03657ZM41.6179 2.81224C41.6116 2.80871 41.6056 2.80734 41.5997 2.80812C40.5835 2.98042 39.605 3.2327 38.583 3.5579C37.7962 3.80841 37.1246 4.06304 36.4748 4.49056C36.269 4.62581 35.8309 4.96924 35.9585 5.26915C36.2061 5.84956 36.8712 6.19711 37.4739 6.3206C37.7789 6.38293 38.0467 6.41234 38.2772 6.40881C38.5747 6.40469 38.8605 6.41645 39.151 6.35647C40.3224 6.11537 41.4903 5.52848 41.9366 4.35236C41.9672 4.272 41.9766 4.19692 41.9649 4.12714C41.9351 3.94837 41.8349 3.51673 41.6644 2.83223C41.6632 2.82792 41.6608 2.82459 41.6573 2.82223C41.6499 2.81792 41.6418 2.81596 41.6332 2.81635C41.6277 2.81635 41.6226 2.81498 41.6179 2.81224Z" fill="white"/>
<path id="Vector_3" d="M56.9407 4.44558C56.8333 4.6416 56.7788 4.84605 56.7772 5.05893C56.7729 5.64385 57.0175 6.13213 57.5111 6.52378C57.7851 6.74136 58.0519 6.90602 58.3115 7.01775C59.014 7.3208 59.7277 7.45821 60.4525 7.42998C61.2064 7.40058 62.0009 7.1483 62.399 6.48144C62.5095 6.29561 62.5537 6.08685 62.6895 5.90985C62.873 5.67109 63.2176 5.64698 63.4551 5.82281C63.8056 6.08274 63.7239 6.45556 63.5598 6.79017C63.2311 7.46232 62.693 7.961 61.9856 8.27855C61.6829 8.41419 61.3221 8.50965 60.903 8.56493C59.7222 8.72057 58.5865 8.51338 57.4958 7.94335C57.1026 7.73832 56.7515 7.4784 56.4426 7.16359C55.9608 6.67275 55.6836 6.09881 55.6111 5.44175C55.5202 4.61337 55.7503 3.90692 56.3015 3.32239C57.0442 2.53439 58.3338 2.24212 59.4264 2.15509C60.3685 2.08021 61.3419 2.11628 62.3467 2.26329C62.5999 2.30014 62.7644 2.43422 62.84 2.66553C62.9012 2.85214 62.8749 3.02699 62.7612 3.19007C62.6477 3.35238 62.4319 3.45529 62.2296 3.42647C61.5651 3.3316 60.8887 3.2873 60.2003 3.29357C59.5119 3.30024 58.8881 3.37414 58.3291 3.51527C58.0515 3.58505 57.7702 3.69875 57.4852 3.85634C57.243 3.98983 57.0683 4.21153 56.9407 4.44558Z" fill="white"/>
<path id="Vector_4" d="M30.1987 7.48871C30.0451 7.65925 29.8653 7.81508 29.6595 7.95621C29.2165 8.25965 28.7394 8.48037 28.2282 8.61837C27.8067 8.73206 27.4086 8.80733 27.0338 8.84418C26.9178 8.85555 26.8 8.86614 26.6804 8.87594C26.5589 8.88613 26.4483 8.88849 26.3488 8.883C25.9554 8.86183 25.5484 8.84889 25.1591 8.79126C24.7377 8.72853 24.3131 8.61465 23.8854 8.4496C23.5345 8.31434 23.2052 8.12322 22.8975 7.87624C22.4858 7.54516 22.2071 7.06413 22.153 6.53252C22.1013 6.02052 22.1363 5.56987 22.2583 5.18058C22.4943 4.42668 22.9261 3.83568 23.5537 3.40758C23.8819 3.18353 24.2823 2.99652 24.6675 2.86656C25.2215 2.67956 25.8405 2.55136 26.5246 2.48197C27.162 2.41689 27.6927 2.39376 28.1164 2.41258C28.3991 2.42513 28.6967 2.44257 29.0091 2.46492C29.1702 2.47609 29.3243 2.51196 29.4854 2.5249C29.7218 2.54431 29.8877 2.73307 29.9617 2.94948C30.5012 4.52038 31.0685 6.1791 31.6636 7.92564C31.702 8.03815 31.7122 8.14302 31.6941 8.24025C31.6455 8.50997 31.4866 8.67482 31.2172 8.73481C30.9062 8.80478 30.6574 8.59308 30.5574 8.31611C30.4645 8.05932 30.3681 7.78823 30.2681 7.50282C30.2528 7.4593 30.2297 7.4546 30.1987 7.48871ZM26.3299 3.6922C25.7689 3.75924 25.1909 3.91566 24.7157 4.12501C24.0559 4.41492 23.4626 4.98299 23.3326 5.7016C23.2848 5.96779 23.2842 6.23712 23.3309 6.50959C23.3591 6.67425 23.4518 6.82244 23.609 6.95416C23.796 7.11098 23.9969 7.23584 24.2118 7.32876C24.6567 7.52164 25.1303 7.63533 25.6325 7.66983C26.1351 7.70472 26.5714 7.70786 26.9415 7.67924C27.2085 7.65846 27.5309 7.59809 27.9089 7.49812C28.3846 7.37286 28.8897 7.11176 29.2396 6.79068C29.465 6.58368 29.6279 6.32376 29.7283 6.01092C29.7394 5.97615 29.7389 5.93901 29.7271 5.90506L28.9691 3.70043C28.953 3.65417 28.9207 3.62947 28.8721 3.62634C28.0112 3.57106 27.1638 3.59301 26.3299 3.6922Z" fill="white"/>
<path id="Vector_5" d="M0 9.75429V9.61551C0.0360671 9.43046 0.0725263 9.27874 0.109378 9.16035C0.312059 8.508 0.504744 7.94895 0.687432 7.4832C0.806218 7.18016 0.976557 6.80694 1.19845 6.36354C1.72652 5.3068 2.30516 4.44764 3.16078 3.69375C3.77411 3.15274 4.60385 2.79167 5.40537 2.8246C5.79191 2.84067 6.14298 2.90673 6.45857 3.02278C6.79768 3.14745 7.11287 3.30603 7.40415 3.49852C7.90988 3.83214 8.36111 4.21066 8.75785 4.63406C9.28317 5.19468 9.7593 5.78234 10.1862 6.39706C10.2003 6.41745 10.2111 6.41568 10.2186 6.39177C10.4114 5.78528 10.6751 5.21741 11.0095 4.68816C11.2488 4.30945 11.497 3.91251 11.8098 3.59849C12.3579 3.04865 13.0377 2.62643 13.8227 2.58291C14.3622 2.55311 14.8824 2.66249 15.3834 2.91105C15.9001 3.16744 16.389 3.50812 16.85 3.93309C17.942 4.94044 18.8459 6.21535 19.6497 7.54848C19.6768 7.59317 19.7062 7.6802 19.7085 7.74313C19.7172 7.98149 19.6356 8.15732 19.4639 8.27062C19.1358 8.48585 18.7782 8.35765 18.583 8.03186C17.9997 7.05725 17.3495 6.16203 16.6324 5.3462C16.26 4.9228 15.8425 4.54997 15.3799 4.22771C14.9871 3.95426 14.5266 3.74668 14.0503 3.73198C13.5428 3.71669 13.0106 4.01542 12.6731 4.37002C12.3665 4.69188 12.0927 5.07863 11.8516 5.53026C11.4556 6.27161 11.1596 7.06 10.9636 7.89543C10.9374 8.00756 10.8823 8.10361 10.7984 8.18358C10.609 8.36392 10.3899 8.40156 10.1409 8.29649C10.0357 8.25239 9.89396 8.07597 9.81693 7.956C9.39667 7.29542 8.97915 6.69952 8.56438 6.1683C8.4256 5.99071 8.1843 5.71981 7.84049 5.35561C7.51196 5.00787 7.13385 4.69855 6.70614 4.42765C6.28156 4.15891 5.70233 3.93956 5.20543 3.99602C4.88357 4.03287 4.59758 4.12362 4.34746 4.26829C4.05461 4.43804 3.80548 4.63112 3.60005 4.84752C3.1249 5.34855 2.73287 5.90427 2.42395 6.51467C2.24165 6.87574 2.04348 7.23622 1.8847 7.61963C1.58597 8.34138 1.34115 9.0545 1.15023 9.75899C1.12475 9.85348 1.08476 9.93914 1.03027 10.016C0.980086 10.0865 0.909127 10.1404 0.817391 10.1777C0.439862 10.3318 0.167399 10.1906 0 9.75429Z" fill="white"/>
<path id="Vector_6" d="M50.0609 3.11824L50.0351 3.11819C49.7174 3.11764 49.4595 3.37468 49.459 3.69231L49.451 8.22859C49.4505 8.54622 49.7075 8.80416 50.0251 8.80471L50.051 8.80476C50.3687 8.80531 50.6266 8.54827 50.6271 8.23064L50.6351 3.69436C50.6356 3.37673 50.3786 3.11879 50.0609 3.11824Z" fill="white"/>
<path id="Vector_7" d="M65.6293 26.691C64.9236 27.3712 64.1266 27.8034 63.2382 27.9877C62.4224 28.157 61.6307 28.1604 60.8631 27.9977C60.7388 27.9714 60.5062 27.8955 60.1651 27.7701C59.7856 27.6309 59.4298 27.4059 59.0978 27.095C58.7547 26.7735 58.5181 26.4005 58.388 25.9759C58.2992 25.686 58.3304 25.3355 58.4662 25.0515C58.6089 24.7532 58.7828 24.5138 58.9878 24.3335C59.401 23.9701 59.894 23.6645 60.4668 23.4167C61.9016 22.7957 63.3882 22.4164 64.9454 22.1353C64.956 22.1335 64.9662 22.1294 64.9753 22.1234C64.9843 22.1174 64.992 22.1096 64.9979 22.1005C65.0037 22.0914 65.0076 22.0811 65.0093 22.0704C65.011 22.0597 65.0104 22.0488 65.0077 22.0383C64.9924 21.9803 64.9822 21.9209 64.9771 21.8601C64.9587 21.6488 64.9359 21.4279 64.9089 21.1974C64.6784 19.2219 64.4581 17.293 64.2479 15.4109C64.232 15.2685 64.2762 15.0798 64.3714 14.9628C64.5749 14.7142 64.8248 14.6685 65.1212 14.8257C65.2382 14.8875 65.3658 15.0257 65.3934 15.1633C65.4142 15.268 65.4305 15.3734 65.4423 15.4797C65.541 16.3719 65.6459 17.3032 65.7569 18.2735C65.8968 19.4947 66.0368 20.7161 66.1767 21.9377C66.221 22.3258 66.2741 22.714 66.3361 23.1021C66.5674 24.5499 66.7973 25.9981 67.0259 27.4467C67.0569 27.6423 67.0112 27.813 66.8889 27.9589C66.6877 28.1976 66.3296 28.1841 66.0973 28.0112C65.9474 27.9001 65.9009 27.7748 65.8692 27.5943C65.8221 27.3234 65.7753 27.0336 65.7286 26.7251C65.7177 26.6494 65.6845 26.6381 65.6293 26.691ZM65.1165 23.3085C64.0145 23.4908 62.9183 23.7901 61.8328 24.1329C61.3114 24.298 60.7555 24.5471 60.1651 24.8804C59.9949 24.9764 59.8366 25.1029 59.6899 25.2597C59.4988 25.4637 59.4665 25.6725 59.6235 25.913C60.158 26.7339 61.1618 26.918 62.071 26.9462C62.255 26.9515 62.4203 26.8915 62.602 26.8792C62.7905 26.8662 62.9924 26.8261 63.2077 26.7586C64.1785 26.4552 64.9812 25.9189 65.364 24.9645C65.4311 24.7969 65.3934 24.6063 65.3635 24.4329C65.3015 24.0694 65.2453 23.7139 65.1947 23.3661C65.1934 23.3571 65.1903 23.3485 65.1857 23.3407C65.181 23.3329 65.1749 23.3261 65.1676 23.3207C65.1603 23.3154 65.152 23.3115 65.1432 23.3094C65.1345 23.3073 65.1254 23.307 65.1165 23.3085Z" fill="white"/>
<path id="Vector_8" d="M37.2433 19.9375C37.2017 19.716 37.1941 19.4625 37.2203 19.1771C37.2662 18.6802 37.8507 18.4362 38.2118 18.7978C38.3208 18.9068 38.381 19.0464 38.3923 19.2165C38.4049 19.4028 38.4049 19.587 38.3923 19.7693C38.3565 20.2809 37.8425 20.5308 37.4267 20.218C37.355 20.1639 37.2603 20.0269 37.2433 19.9375Z" fill="white"/>
<path id="Vector_9" d="M13.6809 28.4008H13.5997C13.3077 28.3345 13.1387 28.1787 13.0928 27.9333C13.0693 27.8063 13.0783 27.6806 13.1199 27.5563C13.5382 26.3057 14.0076 25.1892 14.5283 24.2068C14.8341 23.6293 15.1877 23.0667 15.5891 22.519C16.047 21.8949 16.5663 21.3776 17.1469 20.9671C17.644 20.6159 18.203 20.4053 18.824 20.3356C19.6273 20.245 20.5129 20.5678 21.1544 21.0401C21.6031 21.3711 21.9842 21.711 22.3464 22.1491C22.7874 22.6819 23.1444 23.1673 23.4172 23.6052C23.6419 23.9655 23.8548 24.3257 24.0559 24.686C24.057 24.6878 24.0585 24.6894 24.0604 24.6904C24.0622 24.6915 24.0643 24.692 24.0665 24.692C24.0686 24.692 24.0707 24.6915 24.0725 24.6904C24.0744 24.6894 24.0759 24.6878 24.077 24.686C24.3154 24.2701 24.5879 23.8557 24.8944 23.4429C25.3419 22.8407 25.9394 22.2544 26.5439 21.8569C26.8521 21.6542 27.2153 21.4913 27.6336 21.3682C27.9543 21.2741 28.3077 21.2351 28.6938 21.2512C30.1587 21.3123 31.3595 22.3473 32.2568 23.3794C32.6744 23.8596 33.0844 24.4177 33.487 25.0536C33.8885 25.6867 34.2572 26.3326 34.5932 26.9912C34.6673 27.1367 34.6794 27.286 34.6296 27.4393C34.5449 27.7012 34.3713 27.8372 34.1086 27.8474C33.8573 27.8572 33.6654 27.7345 33.5329 27.4793C33.1291 26.7015 32.7012 25.9764 32.2492 25.3041C31.8383 24.6921 31.4218 24.1664 30.9996 23.7269C30.7267 23.4427 30.3929 23.1635 29.9981 22.8895C29.9268 22.8401 29.796 22.7666 29.6059 22.669C29.4699 22.5996 29.3321 22.5443 29.1925 22.5031C28.6664 22.3479 28.1507 22.3775 27.6453 22.5919C27.3348 22.7237 26.9273 22.983 26.6556 23.2347C25.95 23.8892 25.3955 24.7219 24.935 25.5869C24.8378 25.77 24.7464 25.9617 24.661 26.162C24.5992 26.3085 24.4516 26.4784 24.2929 26.5243C23.9581 26.6196 23.7121 26.509 23.5549 26.1926C23.1859 25.4501 22.7916 24.7468 22.3717 24.0827C22.2862 23.9478 22.0585 23.6416 21.6884 23.1641C21.3289 22.7007 20.9472 22.3216 20.5434 22.0268C20.1318 21.7263 19.6408 21.4911 19.1486 21.4882C18.2742 21.4829 17.5238 22.0592 16.961 22.7007C15.849 23.9674 15.1304 25.5269 14.5142 27.1153C14.4148 27.3723 14.3383 27.6481 14.2536 27.9162C14.1654 28.1954 13.9745 28.3569 13.6809 28.4008Z" fill="white"/>
<path id="Vector_10" d="M45.1323 23.376C45.7458 22.6563 46.513 22.1315 47.4339 21.8018C48.3575 21.4709 49.3268 21.3106 50.3418 21.3208C50.7825 21.3251 51.1749 21.3753 51.5191 21.4713C52.5 21.7453 53.2689 22.2785 53.826 23.0708C54.5552 24.1082 54.8434 25.4683 54.7922 26.7609C54.7793 27.0832 54.4658 27.3348 54.1512 27.2813C53.7902 27.2196 53.6314 26.9503 53.6361 26.5992C53.6596 24.9626 53.0433 23.0855 51.2692 22.6457C50.8246 22.5355 50.3898 22.4908 49.9649 22.5116C49.5195 22.5339 49.0797 22.5933 48.6453 22.6898C48.187 22.7917 47.7297 22.9573 47.2734 23.1867C46.0708 23.79 45.3081 24.9279 45.1082 26.2634C45.0723 26.5016 45.0746 26.7409 45.0846 26.9773C45.0917 27.1439 45.0721 27.2774 45.0258 27.3778C44.9498 27.542 44.8369 27.6448 44.6871 27.6859C44.2749 27.8 43.898 27.5671 43.895 27.1255C43.884 25.3797 43.8854 23.8624 43.8991 22.5733C43.9009 22.404 43.9897 22.2258 44.1355 22.1329C44.5189 21.8882 45.0294 22.0988 45.0588 22.5751C45.0737 22.8142 45.0754 23.0722 45.0641 23.349C45.0609 23.4239 45.0837 23.4329 45.1323 23.376Z" fill="white"/>
<path id="Vector_11" d="M37.8156 22.0156H37.7898C37.4728 22.0156 37.2158 22.2726 37.2158 22.5896V27.14C37.2158 27.457 37.4728 27.7139 37.7898 27.7139H37.8156C38.1326 27.7139 38.3896 27.457 38.3896 27.14V22.5896C38.3896 22.2726 38.1326 22.0156 37.8156 22.0156Z" fill="white"/>
</g>
</svg>
