<svg width="730" height="632" viewBox="0 0 730 632" fill="none" xmlns="http://www.w3.org/2000/svg">
<g opacity="0.9" clip-path="url(#clip0_417_21215)">
<mask id="mask0_417_21215" style="mask-type:alpha" maskUnits="userSpaceOnUse" x="0" y="0" width="755" height="755">
<circle cx="377.5" cy="377.5" r="377" fill="white" stroke="black"/>
</mask>
<g mask="url(#mask0_417_21215)">
<path d="M138.059 81.5504C109.294 112.046 97.0812 144.715 110.133 164.925C128.48 193.334 189.803 186.366 247.102 149.361C304.402 112.356 335.979 59.3278 317.632 30.9188C305.385 11.9555 273.989 8.75515 237.424 19.7293" stroke="url(#paint0_linear_417_21215)" stroke-opacity="0.7"/>
<path d="M143.289 78.3041C117.593 105.546 106.683 134.729 118.342 152.782C134.732 178.16 189.512 171.935 240.697 138.879C291.882 105.823 320.09 58.4527 303.701 33.0749C292.761 16.135 264.715 13.2762 232.051 23.0794" stroke="url(#paint1_linear_417_21215)" stroke-opacity="0.7"/>
<path d="M145.893 78.9442C121.162 105.164 110.662 133.251 121.883 150.627C137.657 175.052 190.381 169.061 239.645 137.246C288.91 105.43 316.059 59.8379 300.284 35.4126C289.755 19.1085 262.762 16.357 231.324 25.7923" stroke="url(#paint2_linear_417_21215)" stroke-opacity="0.7"/>
<path d="M153.981 72.3163C130.588 97.1169 115.632 130.261 126.246 146.696C141.167 169.799 191.038 164.133 237.636 134.039C284.234 103.945 309.914 60.8203 294.993 37.7169C285.033 22.2952 259.501 19.6926 229.765 28.6172" stroke="url(#paint3_linear_417_21215)" stroke-opacity="0.7"/>
<path d="M155.083 69.3905C133.924 91.8232 120.396 121.803 129.996 136.669C143.492 157.567 188.602 152.441 230.751 125.22C272.9 97.9996 296.128 58.9921 282.632 38.0944C273.624 24.1451 250.529 21.7909 223.631 29.8635" stroke="url(#paint4_linear_417_21215)" stroke-opacity="0.7"/>
<path d="M156.872 63.3715C138.433 82.9198 126.645 109.045 135.011 121.999C146.772 140.21 186.081 135.743 222.811 112.023C259.54 88.302 279.782 54.3101 268.021 36.0995C260.171 23.9438 240.046 21.8923 216.606 28.9269" stroke="url(#paint5_linear_417_21215)" stroke-opacity="0.7"/>
<path d="M162.931 63.3546C147.63 79.5765 137.847 101.256 144.79 112.006C154.549 127.118 187.17 123.411 217.649 103.727C248.129 84.0429 264.926 55.8351 255.167 40.7232C248.652 30.6359 231.952 28.9336 212.501 34.7711" stroke="url(#paint6_linear_417_21215)" stroke-opacity="0.7"/>
<path d="M135.355 83.5753C104.264 116.538 91.0629 151.849 105.17 173.693C125.001 204.4 191.285 196.868 253.218 156.87C315.152 116.873 349.283 59.5552 329.452 28.8484C316.215 8.35124 282.28 4.89205 242.757 16.7539" stroke="url(#paint7_linear_417_21215)" stroke-opacity="0.7"/>
<path d="M163.829 62.9305C151.403 76.8095 146.574 92.0994 152.985 102.026C161.997 115.979 189.804 114.05 215.094 97.7174C240.385 81.3843 253.582 56.8321 244.57 42.8786C238.555 33.5644 224.165 31.327 207.739 35.7266" stroke="url(#paint8_linear_417_21215)" stroke-opacity="0.7"/>
<path d="M167.611 61.7507C157.062 73.5335 152.963 86.5142 158.405 94.9413C166.055 106.787 189.663 105.15 211.134 91.2836C232.605 77.4174 243.808 56.5734 236.158 44.7272C231.051 36.8198 218.835 34.9204 204.889 38.6555" stroke="url(#paint9_linear_417_21215)" stroke-opacity="0.7"/>
<path d="M170.91 59.6485C162.258 69.3125 158.896 79.9589 163.36 86.8707C169.634 96.5867 188.997 95.2436 206.607 83.8707C224.217 72.4979 233.406 55.4021 227.131 45.6861C222.943 39.2007 212.923 37.6427 201.485 40.7062" stroke="url(#paint10_linear_417_21215)" stroke-opacity="0.7"/>
<path d="M203.249 51.36C204.07 52.7842 203.673 54.8994 202.045 57.2844C200.439 59.6368 197.726 62.0995 194.276 64.0887C190.826 66.0779 187.336 67.1923 184.495 67.4039C181.615 67.6183 179.586 66.9022 178.765 65.4781C177.943 64.0539 178.34 61.9387 179.969 59.5537C181.575 57.2013 184.288 54.7385 187.737 52.7494C191.187 50.7602 194.678 49.6457 197.518 49.4342C200.398 49.2198 202.427 49.9358 203.249 51.36Z" stroke="url(#paint11_linear_417_21215)" stroke-opacity="0.7"/>
<path d="M174.357 57.5918C167.653 65.0788 165.049 73.3269 168.507 78.6817C173.368 86.209 188.369 85.1684 202.012 76.3575C215.655 67.5467 222.774 54.302 217.913 46.7747C214.668 41.7502 206.905 40.5432 198.044 42.9166" stroke="url(#paint12_linear_417_21215)" stroke-opacity="0.7"/>
<path d="M176.422 55.1169C171.187 60.9644 169.153 67.4062 171.853 71.5884C175.65 77.4672 187.366 76.6546 198.021 69.7732C208.676 62.8918 214.237 52.5476 210.44 46.6687C207.906 42.7445 201.843 41.8018 194.922 43.6555" stroke="url(#paint13_linear_417_21215)" stroke-opacity="0.7"/>
<path d="M118.513 96.5473C74.8962 142.789 56.3772 192.325 76.1679 222.97C103.988 266.047 196.974 255.481 283.859 199.37C370.743 143.259 418.624 62.8506 390.804 19.7732C372.234 -8.98135 324.628 -13.8341 269.182 2.80634" stroke="url(#paint14_linear_417_21215)" stroke-opacity="0.7"/>
<path d="M122.675 92.8717C81.2961 136.565 65.4156 188.756 83.9987 217.53C110.121 257.979 198.008 247.687 280.299 194.542C362.59 141.397 408.124 65.5245 382.001 25.0758C364.564 -1.92417 319.607 -6.31555 267.164 9.55547" stroke="url(#paint15_linear_417_21215)" stroke-opacity="0.7"/>
<path d="M128.021 88.9933C89.8719 129.277 75.2308 177.394 92.3636 203.924C116.448 241.216 197.475 231.727 273.345 182.729C349.214 133.732 391.194 63.7803 367.11 26.4881C351.034 1.59523 309.585 -2.45345 261.235 12.179" stroke="url(#paint16_linear_417_21215)" stroke-opacity="0.7"/>
<path d="M133.272 86.3232C97.6207 123.969 83.9383 168.936 99.9492 193.728C122.456 228.578 198.178 219.71 269.079 173.921C339.981 128.132 379.212 62.7611 356.705 27.9108C341.682 4.64797 302.947 0.864403 257.763 14.5387" stroke="url(#paint17_linear_417_21215)" stroke-opacity="0.7"/>
<path d="M94.4155 116.61C39.0305 175.328 19.0172 239.963 44.1473 278.875C79.4731 333.574 197.547 320.158 307.872 248.908C418.198 177.658 478.997 75.556 443.671 20.8565C420.091 -15.6559 359.641 -21.8179 289.236 -0.68793" stroke="url(#paint18_linear_417_21215)" stroke-opacity="0.7"/>
<path d="M104.307 105.558C53.2569 159.68 31.582 217.658 54.7453 253.525C87.3063 303.943 196.139 291.577 297.83 225.903C399.52 160.23 455.561 66.1191 423 15.7007C401.265 -17.9541 345.546 -23.6338 280.652 -4.15758" stroke="url(#paint19_linear_417_21215)" stroke-opacity="0.7"/>
<path d="M109.187 103.535C60.7516 154.885 40.1868 209.894 62.1638 243.924C93.0572 291.76 196.316 280.027 292.799 217.717C389.281 155.407 442.452 66.116 411.558 18.2797C390.937 -13.6514 338.072 -19.0403 276.501 -0.561516" stroke="#333333"/>
<path d="M109.127 106.26C63.2872 154.859 49.7999 204.032 70.5992 236.238C99.837 281.511 197.562 270.406 288.874 211.435C380.187 152.465 430.508 67.9583 401.27 22.6856C381.754 -7.53439 331.721 -12.6345 273.45 4.85405" stroke="url(#paint20_linear_417_21215)" stroke-opacity="0.7"/>
<path d="M429.754 -4.10658C466.02 -1.05552 494.353 12.0587 509.706 35.8314C552.74 102.466 477.494 227.608 341.641 315.344C205.788 403.08 60.771 420.187 17.7375 353.552C1.15968 327.883 2.13469 293.53 17.3656 255.979" stroke="url(#paint21_linear_417_21215)" stroke-opacity="0.7"/>
<path d="M414.031 -9.52736C450.286 -6.47728 478.61 6.63274 493.958 30.3979C536.978 97.0113 469.521 213.883 333.71 301.592C197.9 389.3 63.9425 403.804 20.9226 337.191C4.35003 311.529 5.32474 277.188 20.5508 239.648" stroke="url(#paint22_linear_417_21215)" stroke-opacity="0.7"/>
<path d="M412.346 -7.05714C446.57 -4.17792 473.307 8.19767 487.795 30.6314C528.405 93.5129 457.398 211.607 329.196 294.401C200.994 377.196 64.1452 393.339 23.5354 330.458C7.89128 306.234 8.81138 273.816 23.1844 238.38" stroke="url(#paint23_linear_417_21215)" stroke-opacity="0.7"/>
<path d="M400.779 -8.28497C433.59 -5.52458 459.224 6.34028 473.114 27.8482C512.048 88.1346 443.971 201.355 321.06 280.733C198.149 360.11 66.948 375.587 28.0142 315.301C13.0157 292.077 13.8978 260.997 27.6777 227.023" stroke="url(#paint24_linear_417_21215)" stroke-opacity="0.7"/>
<path d="M409.127 -5.53307C442.714 -2.70739 468.955 9.43807 483.173 31.4547C523.028 93.167 453.341 209.065 327.523 290.32C201.704 371.576 67.4001 387.418 27.5453 325.706C12.1921 301.933 9.61605 268.475 23.7218 233.697" stroke="url(#paint25_linear_417_21215)" stroke-opacity="0.7"/>
<path d="M487.245 2.568C527.877 6.34896 559.562 21.2798 576.834 48.0238C626.322 124.652 538.735 269.245 381.205 370.98C223.674 472.716 55.8527 493.069 6.36503 416.441C-6.54299 396.454 -17.2124 375.778 -12.6603 348.509" stroke="url(#paint26_linear_417_21215)" stroke-opacity="0.7"/>
<path d="M590.45 59.9911C603.923 67.8747 614.975 78.0954 623.12 90.7083C676.603 173.523 584.554 328.105 417.522 435.977C250.489 543.849 71.7266 564.162 18.2435 481.347C11.486 470.883 7.0518 459.274 4.79855 446.758" stroke="url(#paint27_linear_417_21215)" stroke-opacity="0.7"/>
<path d="M601.98 67.7749C615.693 75.7986 626.942 86.2011 635.232 99.0381C689.666 183.325 595.98 340.656 425.978 450.445C255.976 560.235 74.0348 580.909 19.6009 496.622C12.7232 485.972 8.21017 474.157 5.91686 461.418" stroke="url(#paint28_linear_417_21215)" stroke-opacity="0.7"/>
<path d="M622.419 86.1736C636.466 94.3929 647.989 105.049 656.481 118.199C712.242 204.541 616.272 365.706 442.126 478.172C267.98 590.638 81.6039 611.816 25.843 525.474C18.7977 514.565 14.1746 502.462 11.8254 489.413" stroke="url(#paint29_linear_417_21215)" stroke-opacity="0.7"/>
<path d="M614.535 81.3771C628.408 89.4946 639.787 100.018 648.175 113.005C703.244 198.277 608.464 357.445 436.477 468.517C264.49 579.588 80.4238 600.504 25.3542 515.232C18.3962 504.458 13.8305 492.505 11.5104 479.618" stroke="url(#paint30_linear_417_21215)" stroke-opacity="0.7"/>
<path d="M622.791 79.6762C636.255 87.3596 633.495 93.941 641.539 106.397C697.484 197.994 603.181 354.764 433.769 464.172C264.357 573.581 72.7852 593.241 19.4582 500.76C12.7848 490.427 0.671458 496.47 -1.44389 484.039" stroke="url(#paint31_linear_417_21215)" stroke-opacity="0.7"/>
<path d="M667.344 117.842C724.553 206.427 626.091 371.778 447.422 487.165C268.754 602.552 77.5371 624.28 20.3281 535.695" stroke="url(#paint32_linear_417_21215)" stroke-opacity="0.7"/>
<path d="M706.97 165.627C764.179 254.211 661.82 424.019 481.71 540.337C301.6 656.655 109.215 679.137 52.0056 590.553" stroke="url(#paint33_linear_417_21215)" stroke-opacity="0.7"/>
<path d="M671.484 122.814C727.925 210.209 629.632 374.085 451.939 488.841C274.247 603.597 84.4449 625.778 28.0039 538.383" stroke="url(#paint34_linear_417_21215)" stroke-opacity="0.7"/>
<path d="M685.455 136.749C742.664 225.333 643.033 391.439 462.923 507.757C282.813 624.074 90.4278 646.557 33.2188 557.973" stroke="url(#paint35_linear_417_21215)" stroke-opacity="0.7"/>
<path d="M722.349 193.983C779.558 282.567 679.927 448.673 499.817 564.991C319.707 681.309 127.322 703.791 70.1133 615.207" stroke="url(#paint36_linear_417_21215)" stroke-opacity="0.7"/>
<path d="M728.317 214.255C783.539 304.092 680.232 467.937 497.576 580.213C314.919 692.489 122.081 710.68 66.8594 620.844" stroke="url(#paint37_linear_417_21215)" stroke-opacity="0.7"/>
<path d="M731.564 223.251C786.785 313.088 683.478 476.933 500.822 589.209C318.165 701.486 125.327 719.677 70.1055 629.84" stroke="url(#paint38_linear_417_21215)" stroke-opacity="0.7"/>
<path d="M749.301 274.197C770.493 363.617 678.418 506.766 521.345 608.206C361.906 711.174 197.072 741.524 126.432 684.08" stroke="url(#paint39_linear_417_21215)" stroke-opacity="0.7"/>
<path d="M743.247 268.197C797.712 352.531 700.528 512.174 526.182 624.77C351.835 737.365 166.347 760.276 111.883 675.941" stroke="url(#paint40_linear_417_21215)" stroke-opacity="0.7"/>
<path d="M749.376 287.824C802.105 373.253 701.678 530.877 525.067 639.885C348.455 748.894 162.538 768.008 109.809 682.578" stroke="url(#paint41_linear_417_21215)" stroke-opacity="0.7"/>
<path d="M750.479 300.846C804.944 385.18 711.205 542.599 541.108 652.45C371.011 762.301 188.968 782.987 134.504 698.652" stroke="url(#paint42_linear_417_21215)" stroke-opacity="0.7"/>
<path d="M757.347 322.368C809.824 407.953 712.428 563.136 539.808 668.978C367.188 774.82 184.711 791.242 132.234 705.656" stroke="url(#paint43_linear_417_21215)" stroke-opacity="0.7"/>
<path d="M770.624 335.741C825.088 420.075 731.35 577.493 561.253 687.345C391.156 797.196 209.113 817.881 154.648 733.547" stroke="url(#paint44_linear_417_21215)" stroke-opacity="0.7"/>
<path d="M771.241 354.92C825.705 439.255 731.967 596.673 561.87 706.524C391.773 816.375 209.73 837.061 155.266 752.727" stroke="url(#paint45_linear_417_21215)" stroke-opacity="0.7"/>
<path d="M771.046 348.717C825.51 433.052 731.771 590.47 561.674 700.321C391.578 810.172 209.535 830.858 155.07 746.523" stroke="url(#paint46_linear_417_21215)" stroke-opacity="0.7"/>
<path d="M769.87 312.53C824.334 396.864 730.596 554.282 560.499 664.134C390.402 773.985 208.359 794.67 153.895 710.336" stroke="url(#paint47_linear_417_21215)" stroke-opacity="0.7"/>
<path d="M770.073 318.729C824.537 403.063 730.799 560.482 560.702 670.333C390.605 780.184 208.562 800.869 154.098 716.535" stroke="url(#paint48_linear_417_21215)" stroke-opacity="0.7"/>
<path d="M770.171 321.834C824.635 406.169 730.896 563.587 560.799 673.438C390.703 783.289 208.66 803.975 154.195 719.641" stroke="url(#paint49_linear_417_21215)" stroke-opacity="0.7"/>
<path d="M770.304 325.967C824.768 410.301 731.029 567.72 560.932 677.571C390.835 787.422 208.793 808.108 154.328 723.773" stroke="url(#paint50_linear_417_21215)" stroke-opacity="0.7"/>
<path d="M770.843 342.514C825.307 426.848 731.568 584.267 561.471 694.118C391.374 803.969 209.332 824.655 154.867 740.32" stroke="url(#paint51_linear_417_21215)" stroke-opacity="0.7"/>
<path d="M502.964 19.4508C543.595 23.2318 575.281 38.1626 592.553 64.9066C642.04 141.535 554.454 286.127 396.924 387.863C239.393 489.599 71.5715 509.952 22.0838 433.324C9.17576 413.337 -1.49362 392.661 3.05842 365.392" stroke="url(#paint52_linear_417_21215)"/>
</g>
</g>
<defs>
<linearGradient id="paint0_linear_417_21215" x1="111.854" y1="167.59" x2="319.353" y2="33.5842" gradientUnits="userSpaceOnUse">
<stop stop-color="#333333"/>
<stop offset="0.5" stop-color="#8B8B8B"/>
<stop offset="1" stop-color="#333333"/>
</linearGradient>
<linearGradient id="paint1_linear_417_21215" x1="119.88" y1="155.163" x2="305.238" y2="35.4559" gradientUnits="userSpaceOnUse">
<stop stop-color="#333333"/>
<stop offset="0.5" stop-color="#8B8B8B"/>
<stop offset="1" stop-color="#333333"/>
</linearGradient>
<linearGradient id="paint2_linear_417_21215" x1="123.363" y1="152.919" x2="301.764" y2="37.7042" gradientUnits="userSpaceOnUse">
<stop stop-color="#333333"/>
<stop offset="0.5" stop-color="#8B8B8B"/>
<stop offset="1" stop-color="#333333"/>
</linearGradient>
<linearGradient id="paint3_linear_417_21215" x1="126.887" y1="147.688" x2="295.634" y2="38.7089" gradientUnits="userSpaceOnUse">
<stop stop-color="#333333"/>
<stop offset="0.5" stop-color="#8B8B8B"/>
<stop offset="1" stop-color="#333333"/>
</linearGradient>
<linearGradient id="paint4_linear_417_21215" x1="130.576" y1="137.566" x2="283.212" y2="38.9917" gradientUnits="userSpaceOnUse">
<stop stop-color="#333333"/>
<stop offset="0.5" stop-color="#8B8B8B"/>
<stop offset="1" stop-color="#333333"/>
</linearGradient>
<linearGradient id="paint5_linear_417_21215" x1="135.516" y1="122.781" x2="268.526" y2="36.8814" gradientUnits="userSpaceOnUse">
<stop stop-color="#333333"/>
<stop offset="0.5" stop-color="#8B8B8B"/>
<stop offset="1" stop-color="#333333"/>
</linearGradient>
<linearGradient id="paint6_linear_417_21215" x1="145.209" y1="112.655" x2="255.586" y2="41.3721" gradientUnits="userSpaceOnUse">
<stop stop-color="#333333"/>
<stop offset="0.5" stop-color="#8B8B8B"/>
<stop offset="1" stop-color="#333333"/>
</linearGradient>
<linearGradient id="paint7_linear_417_21215" x1="107.031" y1="176.574" x2="331.313" y2="31.7294" gradientUnits="userSpaceOnUse">
<stop stop-color="#333333"/>
<stop offset="0.5" stop-color="#8B8B8B"/>
<stop offset="1" stop-color="#333333"/>
</linearGradient>
<linearGradient id="paint8_linear_417_21215" x1="153.831" y1="103.335" x2="245.416" y2="44.1877" gradientUnits="userSpaceOnUse">
<stop stop-color="#333333"/>
<stop offset="0.5" stop-color="#8B8B8B"/>
<stop offset="1" stop-color="#333333"/>
</linearGradient>
<linearGradient id="paint9_linear_417_21215" x1="159.123" y1="96.0527" x2="236.876" y2="45.8387" gradientUnits="userSpaceOnUse">
<stop stop-color="#333333"/>
<stop offset="0.5" stop-color="#8B8B8B"/>
<stop offset="1" stop-color="#333333"/>
</linearGradient>
<linearGradient id="paint10_linear_417_21215" x1="163.948" y1="87.7823" x2="227.72" y2="46.5977" gradientUnits="userSpaceOnUse">
<stop stop-color="#333333"/>
<stop offset="0.5" stop-color="#8B8B8B"/>
<stop offset="1" stop-color="#333333"/>
</linearGradient>
<linearGradient id="paint11_linear_417_21215" x1="178.332" y1="65.7278" x2="203.682" y2="51.1102" gradientUnits="userSpaceOnUse">
<stop stop-color="#333333"/>
<stop offset="0.5" stop-color="#8B8B8B"/>
<stop offset="1" stop-color="#333333"/>
</linearGradient>
<linearGradient id="paint12_linear_417_21215" x1="168.963" y1="79.3879" x2="218.369" y2="47.4809" gradientUnits="userSpaceOnUse">
<stop stop-color="#333333"/>
<stop offset="0.5" stop-color="#8B8B8B"/>
<stop offset="1" stop-color="#333333"/>
</linearGradient>
<linearGradient id="paint13_linear_417_21215" x1="172.21" y1="72.1399" x2="210.796" y2="47.2203" gradientUnits="userSpaceOnUse">
<stop stop-color="#333333"/>
<stop offset="0.5" stop-color="#8B8B8B"/>
<stop offset="1" stop-color="#333333"/>
</linearGradient>
<linearGradient id="paint14_linear_417_21215" x1="78.7781" y1="227.012" x2="393.414" y2="23.8149" gradientUnits="userSpaceOnUse">
<stop stop-color="#333333"/>
<stop offset="0.5" stop-color="#8B8B8B"/>
<stop offset="1" stop-color="#333333"/>
</linearGradient>
<linearGradient id="paint15_linear_417_21215" x1="84.9339" y1="218.978" x2="382.936" y2="26.5239" gradientUnits="userSpaceOnUse">
<stop stop-color="#333333"/>
<stop offset="0.5" stop-color="#8B8B8B"/>
<stop offset="1" stop-color="#333333"/>
</linearGradient>
<linearGradient id="paint16_linear_417_21215" x1="93.2259" y1="205.259" x2="367.972" y2="27.8232" gradientUnits="userSpaceOnUse">
<stop stop-color="#333333"/>
<stop offset="0.5" stop-color="#8B8B8B"/>
<stop offset="1" stop-color="#333333"/>
</linearGradient>
<linearGradient id="paint17_linear_417_21215" x1="100.755" y1="194.975" x2="357.511" y2="29.1585" gradientUnits="userSpaceOnUse">
<stop stop-color="#333333"/>
<stop offset="0.5" stop-color="#8B8B8B"/>
<stop offset="1" stop-color="#333333"/>
</linearGradient>
<linearGradient id="paint18_linear_417_21215" x1="46.5512" y1="282.597" x2="446.075" y2="24.5788" gradientUnits="userSpaceOnUse">
<stop stop-color="#333333"/>
<stop offset="0.5" stop-color="#8B8B8B"/>
<stop offset="1" stop-color="#333333"/>
</linearGradient>
<linearGradient id="paint19_linear_417_21215" x1="57.8003" y1="258.255" x2="426.055" y2="20.4311" gradientUnits="userSpaceOnUse">
<stop stop-color="#333333"/>
<stop offset="0.5" stop-color="#8B8B8B"/>
<stop offset="1" stop-color="#333333"/>
</linearGradient>
<linearGradient id="paint20_linear_417_21215" x1="73.121" y1="240.143" x2="403.792" y2="26.5905" gradientUnits="userSpaceOnUse">
<stop stop-color="#333333"/>
<stop offset="0.5" stop-color="#8B8B8B"/>
<stop offset="1" stop-color="#333333"/>
</linearGradient>
<linearGradient id="paint21_linear_417_21215" x1="34.4084" y1="379.366" x2="526.377" y2="61.6451" gradientUnits="userSpaceOnUse">
<stop stop-color="#333333"/>
<stop offset="0.5" stop-color="#8B8B8B"/>
<stop offset="1" stop-color="#333333"/>
</linearGradient>
<linearGradient id="paint22_linear_417_21215" x1="36.5593" y1="361.403" x2="510.187" y2="55.5272" gradientUnits="userSpaceOnUse">
<stop stop-color="#333333"/>
<stop offset="0.5" stop-color="#8B8B8B"/>
<stop offset="1" stop-color="#333333"/>
</linearGradient>
<linearGradient id="paint23_linear_417_21215" x1="39.2673" y1="354.817" x2="503.527" y2="54.9913" gradientUnits="userSpaceOnUse">
<stop stop-color="#333333"/>
<stop offset="0.5" stop-color="#8B8B8B"/>
<stop offset="1" stop-color="#333333"/>
</linearGradient>
<linearGradient id="paint24_linear_417_21215" x1="43.0969" y1="338.655" x2="488.197" y2="51.2027" gradientUnits="userSpaceOnUse">
<stop stop-color="#333333"/>
<stop offset="0.5" stop-color="#8B8B8B"/>
<stop offset="1" stop-color="#333333"/>
</linearGradient>
<linearGradient id="paint25_linear_417_21215" x1="42.0985" y1="348.241" x2="497.726" y2="53.9892" gradientUnits="userSpaceOnUse">
<stop stop-color="#333333"/>
<stop offset="0.5" stop-color="#8B8B8B"/>
<stop offset="1" stop-color="#333333"/>
</linearGradient>
<linearGradient id="paint26_linear_417_21215" x1="27.6258" y1="449.362" x2="598.095" y2="80.9446" gradientUnits="userSpaceOnUse">
<stop stop-color="#333333"/>
<stop offset="0.5" stop-color="#8B8B8B"/>
<stop offset="1" stop-color="#333333"/>
</linearGradient>
<linearGradient id="paint27_linear_417_21215" x1="54.856" y1="538.039" x2="659.733" y2="147.4" gradientUnits="userSpaceOnUse">
<stop stop-color="#333333"/>
<stop offset="0.5" stop-color="#8B8B8B"/>
<stop offset="1" stop-color="#333333"/>
</linearGradient>
<linearGradient id="paint28_linear_417_21215" x1="56.8643" y1="554.322" x2="672.495" y2="156.738" gradientUnits="userSpaceOnUse">
<stop stop-color="#333333"/>
<stop offset="0.5" stop-color="#8B8B8B"/>
<stop offset="1" stop-color="#333333"/>
</linearGradient>
<linearGradient id="paint29_linear_417_21215" x1="64.0148" y1="584.581" x2="694.653" y2="177.305" gradientUnits="userSpaceOnUse">
<stop stop-color="#333333"/>
<stop offset="0.5" stop-color="#8B8B8B"/>
<stop offset="1" stop-color="#333333"/>
</linearGradient>
<linearGradient id="paint30_linear_417_21215" x1="63.0528" y1="573.606" x2="685.873" y2="171.379" gradientUnits="userSpaceOnUse">
<stop stop-color="#333333"/>
<stop offset="0.5" stop-color="#8B8B8B"/>
<stop offset="1" stop-color="#333333"/>
</linearGradient>
<linearGradient id="paint31_linear_417_21215" x1="56.8723" y1="576.367" x2="685.558" y2="170.352" gradientUnits="userSpaceOnUse">
<stop stop-color="#333333"/>
<stop offset="0.5" stop-color="#8B8B8B"/>
<stop offset="1" stop-color="#333333"/>
</linearGradient>
<linearGradient id="paint32_linear_417_21215" x1="72.1212" y1="615.893" x2="719.138" y2="198.04" gradientUnits="userSpaceOnUse">
<stop stop-color="#333333"/>
<stop offset="0.5" stop-color="#8B8B8B"/>
<stop offset="1" stop-color="#333333"/>
</linearGradient>
<linearGradient id="paint33_linear_417_21215" x1="103.356" y1="670.066" x2="759.205" y2="246.509" gradientUnits="userSpaceOnUse">
<stop stop-color="#333333"/>
<stop offset="0.5" stop-color="#8B8B8B"/>
<stop offset="1" stop-color="#333333"/>
</linearGradient>
<linearGradient id="paint34_linear_417_21215" x1="79.1017" y1="617.504" x2="722.582" y2="201.935" gradientUnits="userSpaceOnUse">
<stop stop-color="#333333"/>
<stop offset="0.5" stop-color="#8B8B8B"/>
<stop offset="1" stop-color="#333333"/>
</linearGradient>
<linearGradient id="paint35_linear_417_21215" x1="85.0118" y1="638.171" x2="737.248" y2="216.947" gradientUnits="userSpaceOnUse">
<stop stop-color="#333333"/>
<stop offset="0.5" stop-color="#8B8B8B"/>
<stop offset="1" stop-color="#333333"/>
</linearGradient>
<linearGradient id="paint36_linear_417_21215" x1="121.906" y1="695.405" x2="774.142" y2="274.181" gradientUnits="userSpaceOnUse">
<stop stop-color="#333333"/>
<stop offset="0.5" stop-color="#8B8B8B"/>
<stop offset="1" stop-color="#333333"/>
</linearGradient>
<linearGradient id="paint37_linear_417_21215" x1="116.853" y1="702.176" x2="778.311" y2="295.587" gradientUnits="userSpaceOnUse">
<stop stop-color="#333333"/>
<stop offset="0.5" stop-color="#8B8B8B"/>
<stop offset="1" stop-color="#333333"/>
</linearGradient>
<linearGradient id="paint38_linear_417_21215" x1="120.099" y1="711.172" x2="781.557" y2="304.583" gradientUnits="userSpaceOnUse">
<stop stop-color="#333333"/>
<stop offset="0.5" stop-color="#8B8B8B"/>
<stop offset="1" stop-color="#333333"/>
</linearGradient>
<linearGradient id="paint39_linear_417_21215" x1="165.521" y1="744.607" x2="791.865" y2="340.104" gradientUnits="userSpaceOnUse">
<stop stop-color="#333333"/>
<stop offset="0.5" stop-color="#8B8B8B"/>
<stop offset="1" stop-color="#333333"/>
</linearGradient>
<linearGradient id="paint40_linear_417_21215" x1="161.191" y1="752.292" x2="792.556" y2="344.547" gradientUnits="userSpaceOnUse">
<stop stop-color="#333333"/>
<stop offset="0.5" stop-color="#8B8B8B"/>
<stop offset="1" stop-color="#333333"/>
</linearGradient>
<linearGradient id="paint41_linear_417_21215" x1="157.546" y1="759.92" x2="797.113" y2="365.166" gradientUnits="userSpaceOnUse">
<stop stop-color="#333333"/>
<stop offset="0.5" stop-color="#8B8B8B"/>
<stop offset="1" stop-color="#333333"/>
</linearGradient>
<linearGradient id="paint42_linear_417_21215" x1="183.812" y1="775.003" x2="799.788" y2="377.196" gradientUnits="userSpaceOnUse">
<stop stop-color="#333333"/>
<stop offset="0.5" stop-color="#8B8B8B"/>
<stop offset="1" stop-color="#333333"/>
</linearGradient>
<linearGradient id="paint43_linear_417_21215" x1="179.743" y1="783.139" x2="804.856" y2="399.851" gradientUnits="userSpaceOnUse">
<stop stop-color="#333333"/>
<stop offset="0.5" stop-color="#8B8B8B"/>
<stop offset="1" stop-color="#333333"/>
</linearGradient>
<linearGradient id="paint44_linear_417_21215" x1="203.957" y1="809.897" x2="819.932" y2="412.091" gradientUnits="userSpaceOnUse">
<stop stop-color="#333333"/>
<stop offset="0.5" stop-color="#8B8B8B"/>
<stop offset="1" stop-color="#333333"/>
</linearGradient>
<linearGradient id="paint45_linear_417_21215" x1="204.574" y1="829.077" x2="820.549" y2="431.271" gradientUnits="userSpaceOnUse">
<stop stop-color="#333333"/>
<stop offset="0.5" stop-color="#8B8B8B"/>
<stop offset="1" stop-color="#333333"/>
</linearGradient>
<linearGradient id="paint46_linear_417_21215" x1="204.379" y1="822.874" x2="820.354" y2="425.068" gradientUnits="userSpaceOnUse">
<stop stop-color="#333333"/>
<stop offset="0.5" stop-color="#8B8B8B"/>
<stop offset="1" stop-color="#333333"/>
</linearGradient>
<linearGradient id="paint47_linear_417_21215" x1="203.203" y1="786.686" x2="819.178" y2="388.88" gradientUnits="userSpaceOnUse">
<stop stop-color="#333333"/>
<stop offset="0.5" stop-color="#8B8B8B"/>
<stop offset="1" stop-color="#333333"/>
</linearGradient>
<linearGradient id="paint48_linear_417_21215" x1="203.406" y1="792.886" x2="819.381" y2="395.079" gradientUnits="userSpaceOnUse">
<stop stop-color="#333333"/>
<stop offset="0.5" stop-color="#8B8B8B"/>
<stop offset="1" stop-color="#333333"/>
</linearGradient>
<linearGradient id="paint49_linear_417_21215" x1="203.504" y1="795.991" x2="819.479" y2="398.185" gradientUnits="userSpaceOnUse">
<stop stop-color="#333333"/>
<stop offset="0.5" stop-color="#8B8B8B"/>
<stop offset="1" stop-color="#333333"/>
</linearGradient>
<linearGradient id="paint50_linear_417_21215" x1="203.636" y1="800.124" x2="819.612" y2="402.318" gradientUnits="userSpaceOnUse">
<stop stop-color="#333333"/>
<stop offset="0.5" stop-color="#8B8B8B"/>
<stop offset="1" stop-color="#333333"/>
</linearGradient>
<linearGradient id="paint51_linear_417_21215" x1="204.175" y1="816.671" x2="820.151" y2="418.864" gradientUnits="userSpaceOnUse">
<stop stop-color="#333333"/>
<stop offset="0.5" stop-color="#8B8B8B"/>
<stop offset="1" stop-color="#333333"/>
</linearGradient>
<linearGradient id="paint52_linear_417_21215" x1="613.04" y1="98.3507" x2="647.95" y2="156.855" gradientUnits="userSpaceOnUse">
<stop stop-color="#A1B6FF"/>
<stop offset="0.233619" stop-color="#0B41FC"/>
<stop offset="1" stop-color="#0B41FC" stop-opacity="0.6"/>
</linearGradient>
<clipPath id="clip0_417_21215">
<rect width="827" height="632" fill="white"/>
</clipPath>
</defs>
</svg>
