<svg width="556" height="264" viewBox="0 0 556 264" fill="none" xmlns="http://www.w3.org/2000/svg">
<g clip-path="url(#clip0_417_20615)">
<path d="M0 10C0 4.47716 4.47715 0 10 0H546C551.523 0 556 4.47715 556 10V254C556 259.523 551.523 264 546 264H9.99998C4.47714 264 0 259.523 0 254V10Z" fill="url(#paint0_linear_417_20615)"/>
<ellipse cx="279" cy="131.5" rx="113" ry="112.5" fill="#101010"/>
<circle opacity="0.6" cx="277.6" cy="97.0004" r="149.6" stroke="#364153" stroke-dasharray="2 2"/>
<path opacity="0.6" d="M517 97C517 -34.996 409.772 -142 277.5 -142C145.228 -142 38 -34.996 38 97C38 228.996 145.228 336 277.5 336" stroke="#364153" stroke-dasharray="2 2"/>
<circle opacity="0.7" cx="278.4" cy="132.2" r="114.4" stroke="#364153" stroke-dasharray="2 2"/>
<path d="M64.5 210L62.2726 207.727L60 205.5L62.2726 203.273L64.5 201L66.7274 203.273L69 205.5L66.7274 207.727L64.5 210Z" fill="#3448FF"/>
<path d="M516.5 105L514.273 102.727L512 100.5L514.273 98.2726L516.5 96L518.727 98.2726L521 100.5L518.727 102.727L516.5 105Z" fill="#3448FF"/>
<path d="M163.5 134L162.263 132.737L161 131.5L162.263 130.263L163.5 129L164.737 130.263L166 131.5L164.737 132.737L163.5 134Z" fill="#3448FF"/>
<path d="M415.5 42L414.263 40.7374L413 39.5L414.263 38.2626L415.5 37L416.737 38.2626L418 39.5L416.737 40.7374L415.5 42Z" fill="#3448FF"/>
<ellipse cx="96" cy="95.5" rx="96" ry="95.5" transform="matrix(1 0 0 -1 182 227)" stroke="#C3F967" stroke-width="2" stroke-dasharray="3 3"/>
<ellipse cx="278" cy="132.5" rx="77" ry="76.5" fill="#1A1A1A"/>
<path fill-rule="evenodd" clip-rule="evenodd" d="M290.289 161.714L280.538 147.72C280.538 147.72 299.231 131.949 305.544 117.353C305.499 117.304 283.654 128.786 283.654 128.786L274.742 115.995C291.042 104.45 300.557 106.229 303.1 109.879L313.609 124.962C317.503 130.551 303.708 150.962 290.287 161.714H290.289ZM264.991 102L274.742 115.995C274.742 115.995 256.049 131.765 249.736 146.362C249.781 146.411 271.625 134.929 271.625 134.929L280.538 147.72C264.237 159.265 254.722 157.485 252.18 153.835L241.669 138.753C237.775 133.163 251.572 112.752 264.991 102Z" fill="#474747"/>
<path d="M278 231L276.02 228.98L274 227L276.02 225.02L278 223L279.98 225.02L282 227L279.98 228.98L278 231Z" fill="#C3F967"/>
<path d="M390.5 111L389.263 109.737L388 108.5L389.263 107.263L390.5 106L391.737 107.263L393 108.5L391.737 109.737L390.5 111Z" fill="#3448FF"/>
</g>
<defs>
<linearGradient id="paint0_linear_417_20615" x1="556" y1="0" x2="382.183" y2="416.561" gradientUnits="userSpaceOnUse">
<stop stop-color="#161616"/>
<stop offset="1" stop-color="#0B0B0B"/>
</linearGradient>
<clipPath id="clip0_417_20615">
<path d="M0 10C0 4.47716 4.47715 0 10 0H546C551.523 0 556 4.47715 556 10V254C556 259.523 551.523 264 546 264H9.99998C4.47714 264 0 259.523 0 254V10Z" fill="white"/>
</clipPath>
</defs>
</svg>
