<svg width="556" height="264" viewBox="0 0 556 264" fill="none" xmlns="http://www.w3.org/2000/svg">
<g clip-path="url(#clip0_417_20557)">
<path d="M0 10C0 4.47716 4.47715 0 10 0H546C551.523 0 556 4.47715 556 10V254C556 259.523 551.523 264 546 264H9.99998C4.47714 264 0 259.523 0 254V10Z" fill="url(#paint0_linear_417_20557)"/>
<path d="M277.653 59.3102L277.355 59.6595L277.736 59.9837L276.42 61.5292L276.039 61.205L274.723 62.7505L275.104 63.0747L273.787 64.6202L273.407 64.296L272.09 65.8415L272.471 66.1657L271.155 67.7112L270.774 67.387L269.458 68.9325L269.839 69.2566L268.522 70.8021L268.142 70.478L266.826 72.0234L267.206 72.3476L265.89 73.8931L265.509 73.5689L264.193 75.1144L264.574 75.4386L263.258 76.9841L262.877 76.6599L261.561 78.2054L261.941 78.5296L260.625 80.0751L260.245 79.7509L258.928 81.2964L259.309 81.6206L257.993 83.1661L257.612 82.8419L256.296 84.3874L256.677 84.7116L255.36 86.2571L254.98 85.9329L253.664 87.4784L254.044 87.8026L252.728 89.348L252.347 89.0239L251.031 90.5693L251.412 90.8935L250.096 92.439L249.715 92.1148L248.399 93.6603L248.779 93.9845L247.463 95.53L247.082 95.2058L245.766 96.7513L246.147 97.0755L244.831 98.621L244.45 98.2968L243.134 99.8423L243.514 100.166L242.198 101.712L241.818 101.388L240.501 102.933L240.882 103.257L239.566 104.803L239.185 104.479L237.869 106.024L238.25 106.348L236.933 107.894L236.553 107.57L235.237 109.115L235.617 109.439L234.301 110.985L233.92 110.661L232.604 112.206L232.985 112.53L231.669 114.076L231.288 113.752L229.972 115.297L230.352 115.621L229.036 117.167L228.655 116.843L227.339 118.388L227.72 118.712L226.404 120.258L226.023 119.934L224.707 121.479L225.088 121.803L223.771 123.349L223.391 123.025L222.074 124.57L222.381 124.832C223.02 124.818 223.653 124.806 224.281 124.796L224.273 124.296C225.032 124.283 225.783 124.273 226.527 124.266L226.532 124.766C227.29 124.758 228.04 124.753 228.783 124.75L228.781 124.25C229.155 124.249 229.528 124.248 229.898 124.248C230.244 124.235 230.588 124.222 230.93 124.21L230.948 124.71C231.648 124.685 232.341 124.662 233.028 124.641L233.013 124.142C233.714 124.12 234.408 124.102 235.096 124.085L235.108 124.585C235.809 124.568 236.502 124.553 237.189 124.541L237.18 124.041C237.882 124.029 238.577 124.019 239.264 124.011L239.27 124.511C239.971 124.503 240.664 124.498 241.35 124.496L241.349 123.996C241.694 123.994 242.038 123.994 242.38 123.994C242.677 123.981 242.971 123.969 243.263 123.958L243.282 124.458C243.888 124.434 244.482 124.412 245.065 124.392L245.048 123.892C245.656 123.871 246.251 123.853 246.834 123.836L246.848 124.336C247.456 124.319 248.051 124.304 248.631 124.291L248.62 123.791C249.231 123.778 249.827 123.767 250.408 123.759L250.415 124.259C251.026 124.25 251.621 124.244 252.198 124.241L252.196 123.741C252.499 123.74 252.797 123.739 253.09 123.739H254.066V124.239H256.017V123.739H257.967V124.239H259.918V123.739H261.869V124.239H263.82V123.739H265.771V124.239H267.722V123.739H269.673V124.239H271.623V123.739H273.574V124.239H275.525V123.739H277.476V124.239H277.811V122.377H278.311V120.361H277.811V118.346H278.311V116.33H277.811V114.315H278.311V112.299H277.811V110.284H278.311V108.268H277.811V106.253H278.311V104.237H277.811V102.222H278.311V100.206H277.811V98.1906H278.311V96.1751H277.811V94.1596H278.311V92.144H277.811V90.1285H278.311V88.113H277.811V86.0974H278.311V84.0819H277.811V82.0664H278.311V80.0508H277.811V78.0353H278.311V76.0198H277.811V74.0042H278.311V71.9887H277.811V69.9732H278.311V67.9576H277.811V65.9421H278.311V63.9266H277.811V61.911H278.311V59.8955H277.811V59.3587L277.653 59.3102ZM277.842 148.95H275.827V149.45H273.811V148.95H271.796V149.45H269.78V148.95H267.765V149.45H265.749V148.95H263.734V149.45H261.718V148.95H259.703V149.45H257.687V148.95H255.672V149.45H253.656V148.95H251.64V149.45H249.625V148.95H247.609V149.45H245.594V148.95H243.578V149.45H241.563V148.95H239.547V149.45H237.532V148.95H235.516V149.45H233.501V148.95H231.485V149.45H229.47V148.95H227.454V149.45H225.439V148.95H223.423V149.45H221.408V148.95H219.392V149.45H217.377V148.95H215.361V149.45H213.345V148.95H211.33V149.45H209.314V148.95H207.299V149.45H205.283V148.95H203.268V149.45H201.252V148.95H199.237V149.45H197.221V148.95H195.206V149.45H193.19V148.95H191.175V149.45H190.167H189.667V148.95V147.92H190.167V145.861H189.667V143.802H190.167V141.743H189.667V139.683H190.167V137.624H189.667V135.565H190.167V133.506H189.667V131.446H190.167V129.387H189.667V127.328H190.167V125.269H189.667V124.239V124.051L189.791 123.909L190.451 123.157L190.826 123.487L192.145 121.983L191.77 121.654L193.088 120.15L193.464 120.479L194.783 118.975L194.407 118.646L195.726 117.142L196.102 117.472L197.421 115.968L197.045 115.638L198.364 114.134L198.74 114.464L200.059 112.96L199.683 112.63L201.002 111.127L201.378 111.456L202.697 109.952L202.321 109.623L203.64 108.119L204.016 108.449L205.335 106.945L204.959 106.615L206.278 105.111L206.654 105.441L207.973 103.937L207.597 103.607L208.916 102.103L209.292 102.433L210.611 100.929L210.235 100.6L211.554 99.0957L211.93 99.4254L213.249 97.9215L212.873 97.5918L214.192 96.088L214.568 96.4177L215.887 94.9138L215.511 94.5841L216.83 93.0803L217.205 93.41L218.524 91.9061L218.148 91.5764L219.467 90.0726L219.843 90.4023L221.162 88.8984L220.786 88.5687L222.105 87.0649L222.481 87.3945L223.8 85.8907L223.424 85.561L224.743 84.0571L225.119 84.3868L226.438 82.883L226.062 82.5533L227.381 81.0494L227.757 81.3791L229.076 79.8753L228.7 79.5456L230.019 78.0417L230.395 78.3714L231.714 76.8676L231.338 76.5379L232.657 75.034L233.033 75.3637L234.352 73.8599L233.976 73.5302L235.295 72.0263L235.671 72.356L236.99 70.8521L236.614 70.5224L237.933 69.0186L238.309 69.3483L239.628 67.8444L239.252 67.5147L240.571 66.0109L240.947 66.3406L242.266 64.8367L241.89 64.507L243.209 63.0032L243.584 63.3328L244.903 61.829L244.528 61.4993L245.846 59.9954L246.222 60.3251L247.541 58.8213L247.165 58.4916L248.484 56.9877L248.86 57.3174L250.179 55.8136L249.803 55.4839L251.122 53.98L251.498 54.3097L252.817 52.8058L252.441 52.4762L253.76 50.9723L254.136 51.302L255.455 49.7981L255.079 49.4684L256.398 47.9646L256.774 48.2943L258.093 46.7904L257.717 46.4607L259.036 44.9569L259.412 45.2866L260.731 43.7827L260.355 43.453L261.674 41.9492L262.05 42.2788L263.369 40.775L262.993 40.4453L264.312 38.9414L264.688 39.2711L266.007 37.7673L265.631 37.4376L266.95 35.9337L267.326 36.2634L268.645 34.7596L268.269 34.4299L269.588 32.926L269.963 33.2557L271.282 31.7518L270.907 31.4222L271.566 30.6703L271.715 30.5H271.942H272.89V31H274.787V30.5H276.683V31H278.579V30.5H280.476V31H282.372V30.5H284.269V31H286.165V30.5H288.062V31H289.958V30.5H291.855V31H293.751V30.5H295.648V31H297.544V30.5H299.441V31H301.337V30.5H303.234V31H305.13V30.5H306.078H306.578V31V32.0056H306.078V34.0168H306.578V36.028H306.078V38.0392H306.578V40.0504H306.078V42.0616H306.578V44.0728H306.078V46.084H306.578V48.0952H306.078V50.1063H306.578V52.1175H306.078V54.1287H306.578V56.1399H306.078V58.1511H306.578V60.1623H306.078V62.1735H306.578V64.1847H306.078V66.1959H306.578V68.2071H306.078V70.2183H306.578V72.2295H306.078V74.2407H306.578V76.2519H306.078V78.2631H306.578V80.2743H306.078V82.2855H306.578V84.2967H306.078V86.3079H306.578V88.3191H306.078V90.3303H306.578V92.3415H306.078V94.3526H306.578V96.3638H306.078V98.375H306.578V100.386H306.078V102.397H306.578V104.409H306.078V106.42H306.578V108.431H306.078V110.442H306.578V112.453H306.078V114.465H306.578V116.476H306.078V118.487H306.578V120.498H306.078V122.509H306.578V124.239H306.739V123.739H308.69V124.239H310.64V123.739H312.591V124.239H314.542V123.739H316.493V124.239H318.444V123.739H320.395V124.239H322.346V123.739H324.296V124.239H326.247V123.739H327.223H327.723V124.239V125.269H327.223V127.328H327.723V129.387H327.223V131.446H327.723V133.506H327.223V135.565H327.723V137.624H327.223V139.683H327.723V141.743H327.223V143.802H327.723V145.861H327.223V147.92H327.723V148.95V149.45H327.223H326.215V148.95H324.199V149.45H322.184V148.95H320.168V149.45H318.153V148.95H316.137V149.45H314.122V148.95H312.106V149.45H310.091V148.95H308.075V149.45H306.078V150.666H306.578V152.677H306.078V154.688H306.578V156.7H306.078V158.711H306.578V160.722H306.078V162.733H306.578V164.744H306.078V166.756H306.578V168.767H306.078V170.778H306.578V172.789H306.078V174.8H306.578V176.812H306.078V178.823H306.578V180.834H306.078V182.845H306.578V183.851V184.351H306.078H305.087V183.851H303.103V184.351H301.12V183.851H299.136V184.351H297.153V183.851H295.17V184.351H293.186V183.851H291.203V184.351H289.219V183.851H287.236V184.351H285.253V183.851H283.269V184.351H281.286V183.851H279.302V184.351H278.311H277.811V183.851V182.843H278.311V180.827H277.811V178.812H278.311V176.796H277.811V174.781H278.311V172.765H277.811V170.75H278.311V168.734H277.811V166.719H278.311V164.703H277.811V162.688H278.311V160.672H277.811V158.657H278.311V156.641H277.811V154.626H278.311V152.61H277.811V150.594H278.311V149.45H277.842V148.95Z" stroke="white" stroke-opacity="0.05" stroke-dasharray="2 2"/>
<path d="M260.597 59.3102L260.3 59.6595L260.68 59.9837L259.364 61.5292L258.983 61.205L257.667 62.7505L258.048 63.0747L256.732 64.6202L256.351 64.296L255.035 65.8415L255.415 66.1657L254.099 67.7112L253.719 67.387L252.402 68.9325L252.783 69.2566L251.467 70.8021L251.086 70.478L249.77 72.0234L250.151 72.3476L248.834 73.8931L248.454 73.5689L247.138 75.1144L247.518 75.4386L246.202 76.9841L245.821 76.6599L244.505 78.2054L244.886 78.5296L243.57 80.0751L243.189 79.7509L241.873 81.2964L242.253 81.6206L240.937 83.1661L240.556 82.8419L239.24 84.3874L239.621 84.7116L238.305 86.2571L237.924 85.9329L236.608 87.4784L236.988 87.8026L235.672 89.348L235.292 89.0239L233.975 90.5693L234.356 90.8935L233.04 92.439L232.659 92.1148L231.343 93.6603L231.724 93.9845L230.407 95.53L230.027 95.2058L228.711 96.7513L229.091 97.0755L227.775 98.621L227.394 98.2968L226.078 99.8423L226.459 100.166L225.143 101.712L224.762 101.388L223.446 102.933L223.826 103.257L222.51 104.803L222.13 104.479L220.813 106.024L221.194 106.348L219.878 107.894L219.497 107.57L218.181 109.115L218.562 109.439L217.245 110.985L216.865 110.661L215.548 112.206L215.929 112.53L214.613 114.076L214.232 113.752L212.916 115.297L213.297 115.621L211.98 117.167L211.6 116.843L210.284 118.388L210.664 118.712L209.348 120.258L208.967 119.934L207.651 121.479L208.032 121.803L206.716 123.349L206.335 123.025L205.019 124.57L205.326 124.832C205.964 124.818 206.597 124.806 207.226 124.796L207.218 124.296C207.976 124.283 208.727 124.273 209.471 124.266L209.476 124.766C210.234 124.758 210.984 124.753 211.727 124.75L211.725 124.25C212.1 124.249 212.472 124.248 212.843 124.248C213.188 124.235 213.532 124.222 213.874 124.21L213.892 124.71C214.592 124.685 215.285 124.662 215.972 124.641L215.957 124.142C216.658 124.12 217.353 124.102 218.04 124.085L218.052 124.585C218.753 124.568 219.447 124.553 220.133 124.541L220.124 124.041C220.826 124.029 221.521 124.019 222.208 124.011L222.214 124.511C222.915 124.503 223.609 124.498 224.295 124.496L224.293 123.996C224.639 123.994 224.983 123.994 225.325 123.994C225.622 123.981 225.916 123.969 226.207 123.958L226.227 124.458C226.833 124.434 227.427 124.412 228.009 124.392L227.992 123.892C228.6 123.871 229.195 123.853 229.778 123.836L229.792 124.336C230.401 124.319 230.995 124.304 231.576 124.291L231.565 123.791C232.176 123.778 232.771 123.767 233.352 123.759L233.359 124.259C233.971 124.25 234.565 124.244 235.143 124.241L235.14 123.741C235.443 123.74 235.741 123.739 236.035 123.739H237.01V124.239H238.961V123.739H240.912V124.239H242.863V123.739H244.813V124.239H246.764V123.739H248.715V124.239H250.666V123.739H252.617V124.239H254.568V123.739H256.519V124.239H258.469V123.739H260.42V124.239H260.755V122.377H261.255V120.361H260.755V118.346H261.255V116.33H260.755V114.315H261.255V112.299H260.755V110.284H261.255V108.268H260.755V106.253H261.255V104.237H260.755V102.222H261.255V100.206H260.755V98.1906H261.255V96.1751H260.755V94.1596H261.255V92.144H260.755V90.1285H261.255V88.113H260.755V86.0974H261.255V84.0819H260.755V82.0664H261.255V80.0508H260.755V78.0353H261.255V76.0198H260.755V74.0042H261.255V71.9887H260.755V69.9732H261.255V67.9576H260.755V65.9421H261.255V63.9266H260.755V61.911H261.255V59.8955H260.755V59.3587L260.597 59.3102ZM260.787 148.95H258.771V149.45H256.756V148.95H254.74V149.45H252.725V148.95H250.709V149.45H248.693V148.95H246.678V149.45H244.662V148.95H242.647V149.45H240.631V148.95H238.616V149.45H236.6V148.95H234.585V149.45H232.569V148.95H230.554V149.45H228.538V148.95H226.523V149.45H224.507V148.95H222.492V149.45H220.476V148.95H218.461V149.45H216.445V148.95H214.43V149.45H212.414V148.95H210.398V149.45H208.383V148.95H206.367V149.45H204.352V148.95H202.336V149.45H200.321V148.95H198.305V149.45H196.29V148.95H194.274V149.45H192.259V148.95H190.243V149.45H188.228V148.95H186.212V149.45H184.197V148.95H182.181V149.45H180.166V148.95H178.15V149.45H176.135V148.95H174.119V149.45H173.111H172.611V148.95V147.92H173.111V145.861H172.611V143.802H173.111V141.743H172.611V139.683H173.111V137.624H172.611V135.565H173.111V133.506H172.611V131.446H173.111V129.387H172.611V127.328H173.111V125.269H172.611V124.239V124.051L172.735 123.909L173.395 123.157L173.771 123.487L175.09 121.983L174.714 121.654L176.033 120.15L176.409 120.479L177.728 118.975L177.352 118.646L178.671 117.142L179.047 117.472L180.366 115.968L179.99 115.638L181.309 114.134L181.684 114.464L183.003 112.96L182.628 112.63L183.946 111.127L184.322 111.456L185.641 109.952L185.265 109.623L186.584 108.119L186.96 108.449L188.279 106.945L187.903 106.615L189.222 105.111L189.598 105.441L190.917 103.937L190.541 103.607L191.86 102.103L192.236 102.433L193.555 100.929L193.179 100.6L194.498 99.0957L194.874 99.4254L196.193 97.9215L195.817 97.5918L197.136 96.088L197.512 96.4177L198.831 94.9138L198.455 94.5841L199.774 93.0803L200.15 93.41L201.469 91.9061L201.093 91.5764L202.412 90.0726L202.788 90.4023L204.107 88.8984L203.731 88.5687L205.05 87.0649L205.426 87.3945L206.745 85.8907L206.369 85.561L207.688 84.0571L208.063 84.3868L209.382 82.883L209.007 82.5533L210.325 81.0494L210.701 81.3791L212.02 79.8753L211.644 79.5456L212.963 78.0417L213.339 78.3714L214.658 76.8676L214.282 76.5379L215.601 75.034L215.977 75.3637L217.296 73.8599L216.92 73.5302L218.239 72.0263L218.615 72.356L219.934 70.8521L219.558 70.5224L220.877 69.0186L221.253 69.3483L222.572 67.8444L222.196 67.5147L223.515 66.0109L223.891 66.3406L225.21 64.8367L224.834 64.507L226.153 63.0032L226.529 63.3328L227.848 61.829L227.472 61.4993L228.791 59.9954L229.167 60.3251L230.486 58.8213L230.11 58.4916L231.429 56.9877L231.805 57.3174L233.124 55.8136L232.748 55.4839L234.067 53.98L234.442 54.3097L235.761 52.8058L235.386 52.4762L236.704 50.9723L237.08 51.302L238.399 49.7981L238.023 49.4684L239.342 47.9646L239.718 48.2943L241.037 46.7904L240.661 46.4607L241.98 44.9569L242.356 45.2866L243.675 43.7827L243.299 43.453L244.618 41.9492L244.994 42.2788L246.313 40.775L245.937 40.4453L247.256 38.9414L247.632 39.2711L248.951 37.7673L248.575 37.4376L249.894 35.9337L250.27 36.2634L251.589 34.7596L251.213 34.4299L252.532 32.926L252.908 33.2557L254.227 31.7518L253.851 31.4222L254.51 30.6703L254.66 30.5H254.886H255.834V31H257.731V30.5H259.627V31H261.524V30.5H263.42V31H265.317V30.5H267.213V31H269.11V30.5H271.006V31H272.903V30.5H274.799V31H276.696V30.5H278.592V31H280.489V30.5H282.385V31H284.282V30.5H286.178V31H288.074V30.5H289.023H289.523V31V32.0056H289.023V34.0168H289.523V36.028H289.023V38.0392H289.523V40.0504H289.023V42.0616H289.523V44.0728H289.023V46.084H289.523V48.0952H289.023V50.1063H289.523V52.1175H289.023V54.1287H289.523V56.1399H289.023V58.1511H289.523V60.1623H289.023V62.1735H289.523V64.1847H289.023V66.1959H289.523V68.2071H289.023V70.2183H289.523V72.2295H289.023V74.2407H289.523V76.2519H289.023V78.2631H289.523V80.2743H289.023V82.2855H289.523V84.2967H289.023V86.3079H289.523V88.3191H289.023V90.3303H289.523V92.3415H289.023V94.3526H289.523V96.3638H289.023V98.375H289.523V100.386H289.023V102.397H289.523V104.409H289.023V106.42H289.523V108.431H289.023V110.442H289.523V112.453H289.023V114.465H289.523V116.476H289.023V118.487H289.523V120.498H289.023V122.509H289.523V124.239H289.683V123.739H291.634V124.239H293.585V123.739H295.536V124.239H297.486V123.739H299.437V124.239H301.388V123.739H303.339V124.239H305.29V123.739H307.241V124.239H309.192V123.739H310.167H310.667V124.239V125.269H310.167V127.328H310.667V129.387H310.167V131.446H310.667V133.506H310.167V135.565H310.667V137.624H310.167V139.683H310.667V141.743H310.167V143.802H310.667V145.861H310.167V147.92H310.667V148.95V149.45H310.167H309.159V148.95H307.144V149.45H305.128V148.95H303.113V149.45H301.097V148.95H299.082V149.45H297.066V148.95H295.051V149.45H293.035V148.95H291.02V149.45H289.023V150.666H289.523V152.677H289.023V154.688H289.523V156.7H289.023V158.711H289.523V160.722H289.023V162.733H289.523V164.744H289.023V166.756H289.523V168.767H289.023V170.778H289.523V172.789H289.023V174.8H289.523V176.812H289.023V178.823H289.523V180.834H289.023V182.845H289.523V183.851V184.351H289.023H288.031V183.851H286.048V184.351H284.064V183.851H282.081V184.351H280.097V183.851H278.114V184.351H276.131V183.851H274.147V184.351H272.164V183.851H270.18V184.351H268.197V183.851H266.213V184.351H264.23V183.851H262.247V184.351H261.255H260.755V183.851V182.843H261.255V180.827H260.755V178.812H261.255V176.796H260.755V174.781H261.255V172.765H260.755V170.75H261.255V168.734H260.755V166.719H261.255V164.703H260.755V162.688H261.255V160.672H260.755V158.657H261.255V156.641H260.755V154.626H261.255V152.61H260.755V150.594H261.255V149.45H260.787V148.95Z" stroke="white" stroke-opacity="0.1" stroke-dasharray="2 2"/>
<path d="M243.541 59.3102L243.244 59.6595L243.625 59.9837L242.308 61.5292L241.928 61.205L240.612 62.7505L240.992 63.0747L239.676 64.6202L239.295 64.296L237.979 65.8415L238.36 66.1657L237.044 67.7112L236.663 67.387L235.347 68.9325L235.727 69.2566L234.411 70.8021L234.03 70.478L232.714 72.0234L233.095 72.3476L231.779 73.8931L231.398 73.5689L230.082 75.1144L230.463 75.4386L229.146 76.9841L228.766 76.6599L227.449 78.2054L227.83 78.5296L226.514 80.0751L226.133 79.7509L224.817 81.2964L225.198 81.6206L223.881 83.1661L223.501 82.8419L222.185 84.3874L222.565 84.7116L221.249 86.2571L220.868 85.9329L219.552 87.4784L219.933 87.8026L218.617 89.348L218.236 89.0239L216.92 90.5693L217.3 90.8935L215.984 92.439L215.604 92.1148L214.287 93.6603L214.668 93.9845L213.352 95.53L212.971 95.2058L211.655 96.7513L212.036 97.0755L210.719 98.621L210.339 98.2968L209.022 99.8423L209.403 100.166L208.087 101.712L207.706 101.388L206.39 102.933L206.771 103.257L205.455 104.803L205.074 104.479L203.758 106.024L204.138 106.348L202.822 107.894L202.441 107.57L201.125 109.115L201.506 109.439L200.19 110.985L199.809 110.661L198.493 112.206L198.873 112.53L197.557 114.076L197.177 113.752L195.86 115.297L196.241 115.621L194.925 117.167L194.544 116.843L193.228 118.388L193.609 118.712L192.292 120.258L191.912 119.934L190.596 121.479L190.976 121.803L189.66 123.349L189.279 123.025L187.963 124.57L188.27 124.832C188.908 124.818 189.542 124.806 190.17 124.796L190.162 124.296C190.92 124.283 191.672 124.273 192.416 124.266L192.421 124.766C193.179 124.758 193.929 124.753 194.671 124.75L194.67 124.25C195.044 124.249 195.417 124.248 195.787 124.248C196.133 124.235 196.476 124.222 196.819 124.21L196.837 124.71C197.536 124.685 198.23 124.662 198.917 124.641L198.902 124.142C199.603 124.12 200.297 124.102 200.985 124.085L200.997 124.585C201.697 124.568 202.391 124.553 203.077 124.541L203.068 124.041C203.771 124.029 204.465 124.019 205.153 124.011L205.158 124.511C205.859 124.503 206.553 124.498 207.239 124.496L207.237 123.996C207.583 123.994 207.927 123.994 208.269 123.994C208.566 123.981 208.86 123.969 209.151 123.958L209.171 124.458C209.777 124.434 210.371 124.412 210.954 124.392L210.937 123.892C211.544 123.871 212.14 123.853 212.722 123.836L212.737 124.336C213.345 124.319 213.939 124.304 214.52 124.291L214.509 123.791C215.12 123.778 215.716 123.767 216.296 123.759L216.303 124.259C216.915 124.25 217.51 124.244 218.087 124.241L218.085 123.741C218.387 123.74 218.685 123.739 218.979 123.739H219.954V124.239H221.905V123.739H223.856V124.239H225.807V123.739H227.758V124.239H229.709V123.739H231.66V124.239H233.61V123.739H235.561V124.239H237.512V123.739H239.463V124.239H241.414V123.739H243.365V124.239H243.699V122.377H244.199V120.361H243.699V118.346H244.199V116.33H243.699V114.315H244.199V112.299H243.699V110.284H244.199V108.268H243.699V106.253H244.199V104.237H243.699V102.222H244.199V100.206H243.699V98.1906H244.199V96.1751H243.699V94.1596H244.199V92.144H243.699V90.1285H244.199V88.113H243.699V86.0974H244.199V84.0819H243.699V82.0664H244.199V80.0508H243.699V78.0353H244.199V76.0198H243.699V74.0042H244.199V71.9887H243.699V69.9732H244.199V67.9576H243.699V65.9421H244.199V63.9266H243.699V61.911H244.199V59.8955H243.699V59.3587L243.541 59.3102ZM243.731 148.95H241.715V149.45H239.7V148.95H237.684V149.45H235.669V148.95H233.653V149.45H231.638V148.95H229.622V149.45H227.607V148.95H225.591V149.45H223.576V148.95H221.56V149.45H219.545V148.95H217.529V149.45H215.514V148.95H213.498V149.45H211.483V148.95H209.467V149.45H207.452V148.95H205.436V149.45H203.42V148.95H201.405V149.45H199.389V148.95H197.374V149.45H195.358V148.95H193.343V149.45H191.327V148.95H189.312V149.45H187.296V148.95H185.281V149.45H183.265V148.95H181.25V149.45H179.234V148.95H177.219V149.45H175.203V148.95H173.188V149.45H171.172V148.95H169.157V149.45H167.141V148.95H165.125V149.45H163.11V148.95H161.094V149.45H159.079V148.95H157.063V149.45H156.056H155.556V148.95V147.92H156.056V145.861H155.556V143.802H156.056V141.743H155.556V139.683H156.056V137.624H155.556V135.565H156.056V133.506H155.556V131.446H156.056V129.387H155.556V127.328H156.056V125.269H155.556V124.239V124.051L155.68 123.909L156.339 123.157L156.715 123.487L158.034 121.983L157.658 121.654L158.977 120.15L159.353 120.479L160.672 118.975L160.296 118.646L161.615 117.142L161.991 117.472L163.31 115.968L162.934 115.638L164.253 114.134L164.629 114.464L165.948 112.96L165.572 112.63L166.891 111.127L167.267 111.456L168.586 109.952L168.21 109.623L169.529 108.119L169.905 108.449L171.224 106.945L170.848 106.615L172.167 105.111L172.543 105.441L173.861 103.937L173.486 103.607L174.805 102.103L175.18 102.433L176.499 100.929L176.123 100.6L177.442 99.0957L177.818 99.4254L179.137 97.9215L178.761 97.5918L180.08 96.088L180.456 96.4177L181.775 94.9138L181.399 94.5841L182.718 93.0803L183.094 93.41L184.413 91.9061L184.037 91.5764L185.356 90.0726L185.732 90.4023L187.051 88.8984L186.675 88.5687L187.994 87.0649L188.37 87.3945L189.689 85.8907L189.313 85.561L190.632 84.0571L191.008 84.3868L192.327 82.883L191.951 82.5533L193.27 81.0494L193.646 81.3791L194.965 79.8753L194.589 79.5456L195.908 78.0417L196.284 78.3714L197.603 76.8676L197.227 76.5379L198.546 75.034L198.922 75.3637L200.24 73.8599L199.865 73.5302L201.184 72.0263L201.559 72.356L202.878 70.8521L202.502 70.5224L203.821 69.0186L204.197 69.3483L205.516 67.8444L205.14 67.5147L206.459 66.0109L206.835 66.3406L208.154 64.8367L207.778 64.507L209.097 63.0032L209.473 63.3328L210.792 61.829L210.416 61.4993L211.735 59.9954L212.111 60.3251L213.43 58.8213L213.054 58.4916L214.373 56.9877L214.749 57.3174L216.068 55.8136L215.692 55.4839L217.011 53.98L217.387 54.3097L218.706 52.8058L218.33 52.4762L219.649 50.9723L220.025 51.302L221.344 49.7981L220.968 49.4684L222.287 47.9646L222.663 48.2943L223.982 46.7904L223.606 46.4607L224.925 44.9569L225.301 45.2866L226.619 43.7827L226.244 43.453L227.563 41.9492L227.938 42.2788L229.257 40.775L228.881 40.4453L230.2 38.9414L230.576 39.2711L231.895 37.7673L231.519 37.4376L232.838 35.9337L233.214 36.2634L234.533 34.7596L234.157 34.4299L235.476 32.926L235.852 33.2557L237.171 31.7518L236.795 31.4222L237.455 30.6703L237.604 30.5H237.831H238.779V31H240.675V30.5H242.572V31H244.468V30.5H246.365V31H248.261V30.5H250.158V31H252.054V30.5H253.951V31H255.847V30.5H257.743V31H259.64V30.5H261.536V31H263.433V30.5H265.329V31H267.226V30.5H269.122V31H271.019V30.5H271.967H272.467V31V32.0056H271.967V34.0168H272.467V36.028H271.967V38.0392H272.467V40.0504H271.967V42.0616H272.467V44.0728H271.967V46.084H272.467V48.0952H271.967V50.1063H272.467V52.1175H271.967V54.1287H272.467V56.1399H271.967V58.1511H272.467V60.1623H271.967V62.1735H272.467V64.1847H271.967V66.1959H272.467V68.2071H271.967V70.2183H272.467V72.2295H271.967V74.2407H272.467V76.2519H271.967V78.2631H272.467V80.2743H271.967V82.2855H272.467V84.2967H271.967V86.3079H272.467V88.3191H271.967V90.3303H272.467V92.3415H271.967V94.3526H272.467V96.3638H271.967V98.375H272.467V100.386H271.967V102.397H272.467V104.409H271.967V106.42H272.467V108.431H271.967V110.442H272.467V112.453H271.967V114.465H272.467V116.476H271.967V118.487H272.467V120.498H271.967V122.509H272.467V124.239H272.627V123.739H274.578V124.239H276.529V123.739H278.48V124.239H280.431V123.739H282.382V124.239H284.333V123.739H286.283V124.239H288.234V123.739H290.185V124.239H292.136V123.739H293.111H293.611V124.239V125.269H293.111V127.328H293.611V129.387H293.111V131.446H293.611V133.506H293.111V135.565H293.611V137.624H293.111V139.683H293.611V141.743H293.111V143.802H293.611V145.861H293.111V147.92H293.611V148.95V149.45H293.111H292.104V148.95H290.088V149.45H288.073V148.95H286.057V149.45H284.041V148.95H282.026V149.45H280.01V148.95H277.995V149.45H275.979V148.95H273.964V149.45H271.967V150.666H272.467V152.677H271.967V154.688H272.467V156.7H271.967V158.711H272.467V160.722H271.967V162.733H272.467V164.744H271.967V166.756H272.467V168.767H271.967V170.778H272.467V172.789H271.967V174.8H272.467V176.812H271.967V178.823H272.467V180.834H271.967V182.845H272.467V183.851V184.351H271.967H270.975V183.851H268.992V184.351H267.009V183.851H265.025V184.351H263.042V183.851H261.058V184.351H259.075V183.851H257.091V184.351H255.108V183.851H253.125V184.351H251.141V183.851H249.158V184.351H247.174V183.851H245.191V184.351H244.199H243.699V183.851V182.843H244.199V180.827H243.699V178.812H244.199V176.796H243.699V174.781H244.199V172.765H243.699V170.75H244.199V168.734H243.699V166.719H244.199V164.703H243.699V162.688H244.199V160.672H243.699V158.657H244.199V156.641H243.699V154.626H244.199V152.61H243.699V150.594H244.199V149.45H243.731V148.95Z" stroke="white" stroke-opacity="0.2" stroke-dasharray="2 2"/>
<path d="M233.003 61.3154L219.756 57.2394L236.06 48.0683L157.087 140.798L166.513 118.38L174.41 131.372L151.483 125.767C156.068 125.428 160.654 125.173 165.239 125.003C169.995 124.833 174.495 124.748 178.741 124.748C183.157 124.579 187.318 124.494 191.224 124.494C195.3 124.324 198.866 124.239 201.923 124.239H276.056V148.95H139V124.239L220.775 31H254.911V183.851H227.144V46.7946L233.003 61.3154Z" fill="#C3F967"/>
<path d="M370.083 30.7354L369.937 30.5H369.659H368.648V31H366.626V30.5H364.604V31H362.582V30.5H360.56V31H358.538V30.5H356.516V31H354.494V30.5H352.471V31H350.449V30.5H348.427V31H346.405V30.5H344.383V31H342.361V30.5H340.339V31H338.317V30.5H337.306H336.806V31V31.1274H337.306V31.3821H336.806V31.5095V31.6611L336.89 31.7871L337.45 32.6257L337.866 32.3481L338.986 34.0252L338.57 34.3028L339.69 35.9799L340.105 35.7023L341.225 37.3794L340.81 37.657L341.929 39.3342L342.345 39.0565L343.465 40.7336L343.049 41.0113L344.169 42.6884L344.585 42.4107L345.705 44.0878L345.289 44.3655L346.409 46.0426L346.825 45.765L347.944 47.4421L347.529 47.7197L348.648 49.3968L349.064 49.1192L350.184 50.7963L349.768 51.0739L350.888 52.7511L351.304 52.4734L352.424 54.1505L352.008 54.4282L353.128 56.1053L353.544 55.8276L354.663 57.5048L354.248 57.7824L355.367 59.4595L355.783 59.1819L356.903 60.859L356.487 61.1366L357.607 62.8137L358.023 62.5361L359.143 64.2132L358.727 64.4909L359.847 66.168L360.263 65.8903L361.382 67.5674L360.967 67.8451L362.086 69.5222L362.502 69.2445L363.622 70.9216L363.206 71.1993L364.326 72.8764L364.742 72.5988L365.862 74.2759L365.446 74.5535L366.566 76.2306L366.982 75.953L368.101 77.6301L367.686 77.9077L368.805 79.5849L369.221 79.3072L370.341 80.9843L369.925 81.262L371.045 82.9391L371.461 82.6614L372.581 84.3385L372.165 84.6162L373.285 86.2933L373.701 86.0157L374.821 87.6928L374.405 87.9704L375.525 89.6475L375.94 89.3699L377.06 91.047L376.644 91.3246L377.764 93.0018L378.18 92.7241L379.3 94.4012L378.884 94.6789L380.004 96.356L380.42 96.0783L381.54 97.7554L381.124 98.0331L382.244 99.7102L382.659 99.4325L383.779 101.11L383.363 101.387L384.483 103.064L384.899 102.787L386.019 104.464L385.603 104.742L386.438 105.992L385.543 107.387L385.122 107.117L384.027 108.824L384.447 109.094L383.352 110.801L382.931 110.531L381.836 112.238L382.257 112.508L381.161 114.215L380.74 113.944L379.645 115.651L380.066 115.921L378.97 117.628L378.55 117.358L377.454 119.065L377.875 119.335L376.779 121.042L376.359 120.772L375.263 122.479L375.684 122.749L374.589 124.456L374.168 124.185L373.072 125.892L373.493 126.162L372.398 127.869L371.977 127.599L370.882 129.306L371.302 129.576L370.207 131.283L369.786 131.013L368.691 132.72L369.111 132.99L368.016 134.697L367.595 134.426L366.5 136.133L366.921 136.403L365.825 138.11L365.404 137.84L364.309 139.547L364.73 139.817L363.634 141.524L363.214 141.254L362.118 142.961L362.539 143.231L361.443 144.938L361.023 144.667L359.927 146.374L360.348 146.644L359.253 148.351L358.832 148.081L357.736 149.788L358.157 150.058L357.062 151.765L356.641 151.495L355.546 153.202L355.966 153.472L354.871 155.179L354.45 154.908L353.355 156.615L353.775 156.885L352.68 158.592L352.259 158.322L351.164 160.029L351.585 160.299L350.489 162.006L350.068 161.736L348.973 163.443L349.394 163.713L348.298 165.42L347.878 165.15L346.782 166.856L347.203 167.126L346.107 168.833L345.687 168.563L344.591 170.27L345.012 170.54L343.917 172.247L343.496 171.977L342.4 173.684L342.821 173.954L341.726 175.661L341.305 175.391L340.21 177.097L340.63 177.367L339.535 179.074L339.114 178.804L338.019 180.511L338.439 180.781L337.344 182.488L336.923 182.218L336.376 183.071L336.296 183.195V183.341V183.469H336.796V183.723H336.296V183.851V184.351H336.796H337.752V183.851H339.662V184.351H341.573V183.851H343.484V184.351H345.394V183.851H347.305V184.351H349.215V183.851H351.126V184.351H353.037V183.851H354.947V184.351H356.858V183.851H358.769V184.351H360.679V183.851H362.59V184.351H364.5V183.851H366.411V184.351H367.366H367.649L367.795 184.109L368.301 183.27L367.873 183.011L368.886 181.332L369.314 181.591L370.328 179.912L369.899 179.653L370.913 177.974L371.341 178.232L372.354 176.553L371.926 176.295L372.939 174.616L373.367 174.874L374.38 173.195L373.952 172.937L374.966 171.258L375.394 171.516L376.407 169.837L375.979 169.579L376.992 167.9L377.42 168.158L378.433 166.479L378.005 166.221L379.018 164.542L379.446 164.8L380.46 163.121L380.032 162.863L381.045 161.184L381.473 161.442L382.486 159.763L382.058 159.505L383.071 157.826L383.499 158.084L384.513 156.405L384.084 156.147L385.098 154.468L385.526 154.726L386.539 153.047L386.111 152.788L387.124 151.109L387.552 151.368L388.565 149.689L388.137 149.43L389.15 147.751L389.579 148.01L390.592 146.331L390.164 146.072L391.177 144.393L391.605 144.652L392.618 142.973L392.19 142.714L393.203 141.035L393.631 141.294L394.645 139.614L394.217 139.356L395.23 137.677L395.658 137.935L396.671 136.256L396.243 135.998L397.256 134.319L397.684 134.577L398.697 132.898L398.269 132.64L399.283 130.961L399.711 131.219L400.724 129.54L400.296 129.282L401.309 127.603L401.737 127.861L402.75 126.182L402.322 125.924L403.335 124.245L403.764 124.503L404.538 123.22H404.904V123.72H406.967V123.69L407.681 124.839L407.256 125.103L408.317 126.814L408.742 126.55L409.804 128.26L409.379 128.524L410.44 130.235L410.865 129.971L411.926 131.681L411.502 131.945L412.563 133.655L412.988 133.392L414.049 135.102L413.625 135.366L414.686 137.076L415.111 136.813L416.172 138.523L415.747 138.787L416.809 140.497L417.234 140.234L418.295 141.944L417.87 142.208L418.932 143.918L419.357 143.655L420.418 145.365L419.993 145.629L421.055 147.339L421.48 147.076L422.541 148.786L422.116 149.05L423.178 150.76L423.603 150.497L424.664 152.207L424.239 152.471L425.301 154.181L425.725 153.918L426.787 155.628L426.362 155.892L427.424 157.602L427.848 157.338L428.91 159.049L428.485 159.313L429.546 161.023L429.971 160.759L431.033 162.47L430.608 162.734L431.669 164.444L432.094 164.18L433.156 165.891L432.731 166.154L433.792 167.865L434.217 167.601L435.279 169.312L434.854 169.575L435.915 171.286L436.34 171.022L437.402 172.733L436.977 172.996L438.038 174.707L438.463 174.443L439.524 176.154L439.1 176.417L440.161 178.128L440.586 177.864L441.647 179.575L441.223 179.838L442.284 181.549L442.709 181.285L443.77 182.996L443.345 183.259L443.876 184.114L444.023 184.351H444.301H445.312V183.851H447.334V184.351H449.356V183.851H451.378V184.351H453.4V183.851H455.422V184.351H457.445V183.851H459.467V184.351H461.489V183.851H463.511V184.351H465.533V183.851H467.555V184.351H469.577V183.851H471.599V184.351H473.621V183.851H475.643V184.351H476.654H477.154V183.851V183.723H476.654V183.469H477.154V183.341V183.189L477.069 183.062L476.521 182.249L476.107 182.529L475.011 180.903L475.426 180.624L474.33 178.999L473.916 179.278L472.82 177.653L473.235 177.373L472.139 175.748L471.725 176.027L470.629 174.402L471.044 174.123L469.949 172.497L469.534 172.777L468.439 171.151L468.853 170.872L467.758 169.247L467.343 169.526L466.248 167.901L466.662 167.621L465.567 165.996L465.152 166.275L464.057 164.65L464.472 164.371L463.376 162.745L462.961 163.025L461.866 161.4L462.281 161.12L461.185 159.495L460.771 159.774L459.675 158.149L460.09 157.869L458.994 156.244L458.58 156.524L457.484 154.898L457.899 154.619L456.804 152.994L456.389 153.273L455.293 151.648L455.708 151.368L454.613 149.743L454.198 150.022L453.103 148.397L453.517 148.118L452.422 146.492L452.007 146.772L450.912 145.146L451.326 144.867L450.231 143.242L449.816 143.521L448.721 141.896L449.136 141.616L448.04 139.991L447.626 140.27L446.53 138.645L446.945 138.366L445.849 136.74L445.435 137.02L444.339 135.395L444.754 135.115L443.658 133.49L443.244 133.769L442.148 132.144L442.563 131.864L441.468 130.239L441.053 130.519L439.958 128.893L440.372 128.614L439.277 126.989L438.862 127.268L437.767 125.643L438.181 125.363L437.086 123.738L436.671 124.017L435.576 122.392L435.99 122.113L434.895 120.487L434.48 120.767L433.385 119.141L433.8 118.862L432.704 117.237L432.29 117.516L431.194 115.891L431.609 115.611L430.513 113.986L430.099 114.265L429.003 112.64L429.418 112.361L428.322 110.735L427.908 111.015L426.812 109.39L427.227 109.11L426.597 108.175L427.342 107.01L427.763 107.28L428.849 105.583L428.428 105.314L429.513 103.617L429.934 103.886L431.019 102.19L430.598 101.92L431.683 100.224L432.104 100.493L433.19 98.7963L432.768 98.5269L433.854 96.8303L434.275 97.0997L435.36 95.4031L434.939 95.1336L436.024 93.437L436.445 93.7064L437.531 92.0098L437.109 91.7403L438.195 90.0437L438.616 90.3131L439.701 88.6165L439.28 88.347L440.365 86.6504L440.786 86.9198L441.872 85.2232L441.45 84.9538L442.536 83.2571L442.957 83.5265L444.042 81.8299L443.621 81.5605L444.706 79.8638L445.127 80.1333L446.213 78.4366L445.791 78.1672L446.877 76.4705L447.298 76.74L448.383 75.0433L447.962 74.7739L449.047 73.0773L449.468 73.3467L450.553 71.65L450.132 71.3806L451.217 69.684L451.639 69.9534L452.724 68.2567L452.303 67.9873L453.388 66.2907L453.809 66.5601L454.894 64.8635L454.473 64.594L455.558 62.8974L455.98 63.1668L457.065 61.4702L456.644 61.2008L457.729 59.5041L458.15 59.7735L459.235 58.0769L458.814 57.8075L459.899 56.1108L460.321 56.3802L461.406 54.6836L460.985 54.4142L462.07 52.7175L462.491 52.987L463.576 51.2903L463.155 51.0209L464.24 49.3243L464.662 49.5937L465.747 47.897L465.326 47.6276L466.411 45.931L466.832 46.2004L467.917 44.5037L467.496 44.2343L468.581 42.5377L469.002 42.8071L470.088 41.1105L469.666 40.841L470.752 39.1444L471.173 39.4138L472.258 37.7172L471.837 37.4477L472.922 35.7511L473.343 36.0205L474.429 34.3239L474.007 34.0545L475.093 32.3578L475.514 32.6272L476.056 31.7789L476.135 31.6557V31.5095V31.3821H475.635V31.1274H476.135V31V30.5H475.635H474.672V31H472.745V30.5H470.819V31H468.892V30.5H466.966V31H465.039V30.5H463.113V31H461.186V30.5H459.26V31H457.333V30.5H455.407V31H453.48V30.5H451.553V31H449.627V30.5H447.7V31H445.774V30.5H444.811H444.526L444.381 30.7447L443.862 31.6182L444.292 31.8734L443.255 33.6203L442.825 33.365L441.788 35.1119L442.218 35.3672L441.18 37.114L440.75 36.8588L439.713 38.6056L440.143 38.8609L439.106 40.6078L438.676 40.3525L437.639 42.0994L438.069 42.3546L437.032 44.1015L436.602 43.8462L435.564 45.5931L435.994 45.8484L434.957 47.5952L434.527 47.34L433.49 49.0868L433.92 49.3421L432.883 51.089L432.453 50.8337L431.416 52.5806L431.846 52.8358L430.808 54.5827L430.378 54.3274L429.341 56.0743L429.771 56.3296L428.734 58.0764L428.304 57.8212L427.267 59.568L427.697 59.8233L426.66 61.5702L426.23 61.3149L425.192 63.0618L425.622 63.317L424.585 65.0639L424.155 64.8086L423.118 66.5555L423.548 66.8108L422.511 68.5576L422.081 68.3024L421.044 70.0492L421.474 70.3045L420.436 72.0514L420.006 71.7961L418.969 73.543L419.399 73.7982L418.362 75.5451L417.932 75.2898L416.895 77.0367L417.325 77.292L416.288 79.0388L415.858 78.7836L414.82 80.5304L415.25 80.7857L414.213 82.5326L413.783 82.2773L412.746 84.0242L413.176 84.2794L412.139 86.0263L411.709 85.771L410.672 87.5179L411.102 87.7732L410.064 89.52L409.634 89.2647L409.434 89.6023H409.031V90.1023H406.967V89.6023H406.207L406.07 89.3835L406.495 89.119L405.439 87.4267L405.015 87.6913L403.959 85.999L404.384 85.7344L403.328 84.0421L402.904 84.3067L401.849 82.6144L402.273 82.3498L401.218 80.6576L400.793 80.9222L399.738 79.2299L400.162 78.9653L399.107 77.273L398.683 77.5376L397.627 75.8453L398.051 75.5807L396.996 73.8885L396.572 74.1531L395.516 72.4608L395.941 72.1962L394.885 70.5039L394.461 70.7685L393.406 69.0762L393.83 68.8116L392.774 67.1194L392.35 67.3839L391.295 65.6917L391.719 65.4271L390.664 63.7348L390.239 63.9994L389.184 62.3071L389.608 62.0425L388.553 60.3502L388.129 60.6148L387.073 58.9226L387.497 58.658L386.442 56.9657L386.018 57.2303L384.962 55.538L385.387 55.2734L384.331 53.5811L383.907 53.8457L382.852 52.1534L383.276 51.8889L382.22 50.1966L381.796 50.4612L380.741 48.7689L381.165 48.5043L380.11 46.812L379.685 47.0766L378.63 45.3843L379.054 45.1198L377.999 43.4275L377.575 43.6921L376.519 41.9998L376.943 41.7352L375.888 40.0429L375.464 40.3075L374.408 38.6152L374.833 38.3506L373.777 36.6584L373.353 36.9229L372.298 35.2307L372.722 34.9661L371.667 33.2738L371.242 33.5384L370.187 31.8461L370.611 31.5815L370.083 30.7354Z" stroke="white" stroke-opacity="0.05" stroke-dasharray="2 2"/>
<path d="M350.226 30.7354L350.079 30.5H349.801H348.79V31H346.768V30.5H344.746V31H342.724V30.5H340.702V31H338.68V30.5H336.658V31H334.636V30.5H332.614V31H330.591V30.5H328.569V31H326.547V30.5H324.525V31H322.503V30.5H320.481V31H318.459V30.5H317.448H316.948V31V31.1274H317.448V31.3821H316.948V31.5095V31.6611L317.032 31.7871L317.592 32.6257L318.008 32.3481L319.128 34.0252L318.712 34.3028L319.832 35.9799L320.248 35.7023L321.367 37.3794L320.952 37.657L322.071 39.3342L322.487 39.0565L323.607 40.7336L323.191 41.0113L324.311 42.6884L324.727 42.4107L325.847 44.0878L325.431 44.3655L326.551 46.0426L326.967 45.765L328.086 47.4421L327.671 47.7197L328.79 49.3968L329.206 49.1192L330.326 50.7963L329.91 51.0739L331.03 52.7511L331.446 52.4734L332.566 54.1505L332.15 54.4282L333.27 56.1053L333.686 55.8276L334.805 57.5048L334.39 57.7824L335.51 59.4595L335.925 59.1819L337.045 60.859L336.629 61.1366L337.749 62.8137L338.165 62.5361L339.285 64.2132L338.869 64.4909L339.989 66.168L340.405 65.8903L341.525 67.5674L341.109 67.8451L342.229 69.5222L342.644 69.2445L343.764 70.9216L343.348 71.1993L344.468 72.8764L344.884 72.5988L346.004 74.2759L345.588 74.5535L346.708 76.2306L347.124 75.953L348.244 77.6301L347.828 77.9077L348.948 79.5849L349.363 79.3072L350.483 80.9843L350.067 81.262L351.187 82.9391L351.603 82.6614L352.723 84.3385L352.307 84.6162L353.427 86.2933L353.843 86.0157L354.963 87.6928L354.547 87.9704L355.667 89.6475L356.082 89.3699L357.202 91.047L356.786 91.3246L357.906 93.0018L358.322 92.7241L359.442 94.4012L359.026 94.6789L360.146 96.356L360.562 96.0783L361.682 97.7554L361.266 98.0331L362.386 99.7102L362.801 99.4325L363.921 101.11L363.505 101.387L364.625 103.064L365.041 102.787L366.161 104.464L365.745 104.742L366.58 105.992L365.685 107.387L365.264 107.117L364.169 108.824L364.59 109.094L363.494 110.801L363.073 110.531L361.978 112.238L362.399 112.508L361.303 114.215L360.882 113.944L359.787 115.651L360.208 115.921L359.112 117.628L358.692 117.358L357.596 119.065L358.017 119.335L356.922 121.042L356.501 120.772L355.405 122.479L355.826 122.749L354.731 124.456L354.31 124.185L353.214 125.892L353.635 126.162L352.54 127.869L352.119 127.599L351.024 129.306L351.444 129.576L350.349 131.283L349.928 131.013L348.833 132.72L349.254 132.99L348.158 134.697L347.737 134.426L346.642 136.133L347.063 136.403L345.967 138.11L345.546 137.84L344.451 139.547L344.872 139.817L343.776 141.524L343.356 141.254L342.26 142.961L342.681 143.231L341.586 144.938L341.165 144.667L340.069 146.374L340.49 146.644L339.395 148.351L338.974 148.081L337.878 149.788L338.299 150.058L337.204 151.765L336.783 151.495L335.688 153.202L336.108 153.472L335.013 155.179L334.592 154.908L333.497 156.615L333.918 156.885L332.822 158.592L332.401 158.322L331.306 160.029L331.727 160.299L330.631 162.006L330.21 161.736L329.115 163.443L329.536 163.713L328.44 165.42L328.02 165.15L326.924 166.856L327.345 167.126L326.25 168.833L325.829 168.563L324.733 170.27L325.154 170.54L324.059 172.247L323.638 171.977L322.542 173.684L322.963 173.954L321.868 175.661L321.447 175.391L320.352 177.097L320.772 177.367L319.677 179.074L319.256 178.804L318.161 180.511L318.582 180.781L317.486 182.488L317.065 182.218L316.518 183.071L316.438 183.195V183.341V183.469H316.938V183.723H316.438V183.851V184.351H316.938H317.894V183.851H319.804V184.351H321.715V183.851H323.626V184.351H325.536V183.851H327.447V184.351H329.358V183.851H331.268V184.351H333.179V183.851H335.089V184.351H337V183.851H338.911V184.351H340.821V183.851H342.732V184.351H344.643V183.851H346.553V184.351H347.509H347.791L347.937 184.109L348.443 183.27L348.015 183.011L349.028 181.332L349.456 181.591L350.47 179.912L350.042 179.653L351.055 177.974L351.483 178.232L352.496 176.553L352.068 176.295L353.081 174.616L353.509 174.874L354.522 173.195L354.094 172.937L355.108 171.258L355.536 171.516L356.549 169.837L356.121 169.579L357.134 167.9L357.562 168.158L358.575 166.479L358.147 166.221L359.16 164.542L359.589 164.8L360.602 163.121L360.174 162.863L361.187 161.184L361.615 161.442L362.628 159.763L362.2 159.505L363.213 157.826L363.641 158.084L364.655 156.405L364.226 156.147L365.24 154.468L365.668 154.726L366.681 153.047L366.253 152.788L367.266 151.109L367.694 151.368L368.707 149.689L368.279 149.43L369.293 147.751L369.721 148.01L370.734 146.331L370.306 146.072L371.319 144.393L371.747 144.652L372.76 142.973L372.332 142.714L373.345 141.035L373.773 141.294L374.787 139.614L374.359 139.356L375.372 137.677L375.8 137.935L376.813 136.256L376.385 135.998L377.398 134.319L377.826 134.577L378.84 132.898L378.411 132.64L379.425 130.961L379.853 131.219L380.866 129.54L380.438 129.282L381.451 127.603L381.879 127.861L382.892 126.182L382.464 125.924L383.478 124.245L383.906 124.503L384.68 123.22H385.046V123.72H387.109V123.69L387.823 124.839L387.398 125.103L388.459 126.814L388.884 126.55L389.946 128.26L389.521 128.524L390.582 130.235L391.007 129.971L392.069 131.681L391.644 131.945L392.705 133.655L393.13 133.392L394.192 135.102L393.767 135.366L394.828 137.076L395.253 136.813L396.314 138.523L395.89 138.787L396.951 140.497L397.376 140.234L398.437 141.944L398.013 142.208L399.074 143.918L399.499 143.655L400.56 145.365L400.135 145.629L401.197 147.339L401.622 147.076L402.683 148.786L402.258 149.05L403.32 150.76L403.745 150.497L404.806 152.207L404.381 152.471L405.443 154.181L405.868 153.918L406.929 155.628L406.504 155.892L407.566 157.602L407.99 157.338L409.052 159.049L408.627 159.313L409.689 161.023L410.113 160.759L411.175 162.47L410.75 162.734L411.811 164.444L412.236 164.18L413.298 165.891L412.873 166.154L413.934 167.865L414.359 167.601L415.421 169.312L414.996 169.575L416.057 171.286L416.482 171.022L417.544 172.733L417.119 172.996L418.18 174.707L418.605 174.443L419.667 176.154L419.242 176.417L420.303 178.128L420.728 177.864L421.789 179.575L421.365 179.838L422.426 181.549L422.851 181.285L423.912 182.996L423.488 183.259L424.018 184.114L424.165 184.351H424.443H425.454V183.851H427.476V184.351H429.498V183.851H431.52V184.351H433.542V183.851H435.565V184.351H437.587V183.851H439.609V184.351H441.631V183.851H443.653V184.351H445.675V183.851H447.697V184.351H449.719V183.851H451.741V184.351H453.763V183.851H455.785V184.351H456.796H457.296V183.851V183.723H456.796V183.469H457.296V183.341V183.189L457.211 183.062L456.663 182.249L456.249 182.529L455.153 180.903L455.568 180.624L454.472 178.999L454.058 179.278L452.962 177.653L453.377 177.373L452.282 175.748L451.867 176.027L450.772 174.402L451.186 174.123L450.091 172.497L449.676 172.777L448.581 171.151L448.995 170.872L447.9 169.247L447.485 169.526L446.39 167.901L446.804 167.621L445.709 165.996L445.294 166.275L444.199 164.65L444.614 164.371L443.518 162.745L443.104 163.025L442.008 161.4L442.423 161.12L441.327 159.495L440.913 159.774L439.817 158.149L440.232 157.869L439.136 156.244L438.722 156.524L437.626 154.898L438.041 154.619L436.946 152.994L436.531 153.273L435.436 151.648L435.85 151.368L434.755 149.743L434.34 150.022L433.245 148.397L433.659 148.118L432.564 146.492L432.149 146.772L431.054 145.146L431.468 144.867L430.373 143.242L429.958 143.521L428.863 141.896L429.278 141.616L428.182 139.991L427.768 140.27L426.672 138.645L427.087 138.366L425.991 136.74L425.577 137.02L424.481 135.395L424.896 135.115L423.801 133.49L423.386 133.769L422.29 132.144L422.705 131.864L421.61 130.239L421.195 130.519L420.1 128.893L420.514 128.614L419.419 126.989L419.004 127.268L417.909 125.643L418.323 125.363L417.228 123.738L416.813 124.017L415.718 122.392L416.133 122.113L415.037 120.487L414.622 120.767L413.527 119.141L413.942 118.862L412.846 117.237L412.432 117.516L411.336 115.891L411.751 115.611L410.655 113.986L410.241 114.265L409.145 112.64L409.56 112.361L408.465 110.735L408.05 111.015L406.955 109.39L407.369 109.11L406.739 108.175L407.484 107.01L407.906 107.28L408.991 105.583L408.57 105.314L409.655 103.617L410.076 103.886L411.161 102.19L410.74 101.92L411.825 100.224L412.247 100.493L413.332 98.7963L412.911 98.5269L413.996 96.8303L414.417 97.0997L415.502 95.4031L415.081 95.1336L416.166 93.437L416.587 93.7064L417.673 92.0098L417.251 91.7403L418.337 90.0437L418.758 90.3131L419.843 88.6165L419.422 88.347L420.507 86.6504L420.928 86.9198L422.014 85.2232L421.592 84.9538L422.678 83.2571L423.099 83.5265L424.184 81.8299L423.763 81.5605L424.848 79.8638L425.269 80.1333L426.355 78.4366L425.933 78.1672L427.019 76.4705L427.44 76.74L428.525 75.0433L428.104 74.7739L429.189 73.0773L429.61 73.3467L430.696 71.65L430.274 71.3806L431.36 69.684L431.781 69.9534L432.866 68.2567L432.445 67.9873L433.53 66.2907L433.951 66.5601L435.036 64.8635L434.615 64.594L435.701 62.8974L436.122 63.1668L437.207 61.4702L436.786 61.2008L437.871 59.5041L438.292 59.7735L439.377 58.0769L438.956 57.8075L440.041 56.1108L440.463 56.3802L441.548 54.6836L441.127 54.4142L442.212 52.7175L442.633 52.987L443.718 51.2903L443.297 51.0209L444.382 49.3243L444.804 49.5937L445.889 47.897L445.468 47.6276L446.553 45.931L446.974 46.2004L448.059 44.5037L447.638 44.2343L448.723 42.5377L449.145 42.8071L450.23 41.1105L449.809 40.841L450.894 39.1444L451.315 39.4138L452.4 37.7172L451.979 37.4477L453.064 35.7511L453.485 36.0205L454.571 34.3239L454.15 34.0545L455.235 32.3578L455.656 32.6272L456.199 31.7789L456.277 31.6557V31.5095V31.3821H455.777V31.1274H456.277V31V30.5H455.777H454.814V31H452.888V30.5H450.961V31H449.034V30.5H447.108V31H445.181V30.5H443.255V31H441.328V30.5H439.402V31H437.475V30.5H435.549V31H433.622V30.5H431.696V31H429.769V30.5H427.842V31H425.916V30.5H424.953H424.668L424.523 30.7447L424.004 31.6182L424.434 31.8734L423.397 33.6203L422.967 33.365L421.93 35.1119L422.36 35.3672L421.322 37.114L420.892 36.8588L419.855 38.6056L420.285 38.8609L419.248 40.6078L418.818 40.3525L417.781 42.0994L418.211 42.3546L417.174 44.1015L416.744 43.8462L415.706 45.5931L416.136 45.8484L415.099 47.5952L414.669 47.34L413.632 49.0868L414.062 49.3421L413.025 51.089L412.595 50.8337L411.558 52.5806L411.988 52.8358L410.95 54.5827L410.521 54.3274L409.483 56.0743L409.913 56.3296L408.876 58.0764L408.446 57.8212L407.409 59.568L407.839 59.8233L406.802 61.5702L406.372 61.3149L405.335 63.0618L405.764 63.317L404.727 65.0639L404.297 64.8086L403.26 66.5555L403.69 66.8108L402.653 68.5576L402.223 68.3024L401.186 70.0492L401.616 70.3045L400.578 72.0514L400.149 71.7961L399.111 73.543L399.541 73.7982L398.504 75.5451L398.074 75.2898L397.037 77.0367L397.467 77.292L396.43 79.0388L396 78.7836L394.963 80.5304L395.392 80.7857L394.355 82.5326L393.925 82.2773L392.888 84.0242L393.318 84.2794L392.281 86.0263L391.851 85.771L390.814 87.5179L391.244 87.7732L390.206 89.52L389.777 89.2647L389.576 89.6023H389.173V90.1023H387.109V89.6023H386.349L386.212 89.3835L386.637 89.119L385.581 87.4267L385.157 87.6913L384.102 85.999L384.526 85.7344L383.47 84.0421L383.046 84.3067L381.991 82.6144L382.415 82.3498L381.36 80.6576L380.935 80.9222L379.88 79.2299L380.304 78.9653L379.249 77.273L378.825 77.5376L377.769 75.8453L378.193 75.5807L377.138 73.8885L376.714 74.1531L375.658 72.4608L376.083 72.1962L375.027 70.5039L374.603 70.7685L373.548 69.0762L373.972 68.8116L372.916 67.1194L372.492 67.3839L371.437 65.6917L371.861 65.4271L370.806 63.7348L370.381 63.9994L369.326 62.3071L369.75 62.0425L368.695 60.3502L368.271 60.6148L367.215 58.9226L367.64 58.658L366.584 56.9657L366.16 57.2303L365.104 55.538L365.529 55.2734L364.473 53.5811L364.049 53.8457L362.994 52.1534L363.418 51.8889L362.363 50.1966L361.938 50.4612L360.883 48.7689L361.307 48.5043L360.252 46.812L359.827 47.0766L358.772 45.3843L359.196 45.1198L358.141 43.4275L357.717 43.6921L356.661 41.9998L357.086 41.7352L356.03 40.0429L355.606 40.3075L354.551 38.6152L354.975 38.3506L353.919 36.6584L353.495 36.9229L352.44 35.2307L352.864 34.9661L351.809 33.2738L351.384 33.5384L350.329 31.8461L350.753 31.5815L350.226 30.7354Z" stroke="white" stroke-opacity="0.1" stroke-dasharray="2 2"/>
<path d="M330.368 30.7354L330.221 30.5H329.943H328.932V31H326.91V30.5H324.888V31H322.866V30.5H320.844V31H318.822V30.5H316.8V31H314.778V30.5H312.756V31H310.734V30.5H308.712V31H306.689V30.5H304.667V31H302.645V30.5H300.623V31H298.601V30.5H297.59H297.09V31V31.1274H297.59V31.3821H297.09V31.5095V31.6611L297.174 31.7871L297.734 32.6257L298.15 32.3481L299.27 34.0252L298.854 34.3028L299.974 35.9799L300.39 35.7023L301.51 37.3794L301.094 37.657L302.214 39.3342L302.629 39.0565L303.749 40.7336L303.333 41.0113L304.453 42.6884L304.869 42.4107L305.989 44.0878L305.573 44.3655L306.693 46.0426L307.109 45.765L308.229 47.4421L307.813 47.7197L308.933 49.3968L309.348 49.1192L310.468 50.7963L310.052 51.0739L311.172 52.7511L311.588 52.4734L312.708 54.1505L312.292 54.4282L313.412 56.1053L313.828 55.8276L314.948 57.5048L314.532 57.7824L315.652 59.4595L316.067 59.1819L317.187 60.859L316.771 61.1366L317.891 62.8137L318.307 62.5361L319.427 64.2132L319.011 64.4909L320.131 66.168L320.547 65.8903L321.667 67.5674L321.251 67.8451L322.371 69.5222L322.786 69.2445L323.906 70.9216L323.49 71.1993L324.61 72.8764L325.026 72.5988L326.146 74.2759L325.73 74.5535L326.85 76.2306L327.266 75.953L328.386 77.6301L327.97 77.9077L329.09 79.5849L329.505 79.3072L330.625 80.9843L330.21 81.262L331.329 82.9391L331.745 82.6614L332.865 84.3385L332.449 84.6162L333.569 86.2933L333.985 86.0157L335.105 87.6928L334.689 87.9704L335.809 89.6475L336.225 89.3699L337.344 91.047L336.929 91.3246L338.048 93.0018L338.464 92.7241L339.584 94.4012L339.168 94.6789L340.288 96.356L340.704 96.0783L341.824 97.7554L341.408 98.0331L342.528 99.7102L342.944 99.4325L344.063 101.11L343.648 101.387L344.767 103.064L345.183 102.787L346.303 104.464L345.887 104.742L346.722 105.992L345.827 107.387L345.406 107.117L344.311 108.824L344.732 109.094L343.636 110.801L343.215 110.531L342.12 112.238L342.541 112.508L341.445 114.215L341.025 113.944L339.929 115.651L340.35 115.921L339.254 117.628L338.834 117.358L337.738 119.065L338.159 119.335L337.064 121.042L336.643 120.772L335.547 122.479L335.968 122.749L334.873 124.456L334.452 124.185L333.357 125.892L333.777 126.162L332.682 127.869L332.261 127.599L331.166 129.306L331.586 129.576L330.491 131.283L330.07 131.013L328.975 132.72L329.396 132.99L328.3 134.697L327.879 134.426L326.784 136.133L327.205 136.403L326.109 138.11L325.689 137.84L324.593 139.547L325.014 139.817L323.919 141.524L323.498 141.254L322.402 142.961L322.823 143.231L321.728 144.938L321.307 144.667L320.211 146.374L320.632 146.644L319.537 148.351L319.116 148.081L318.021 149.788L318.441 150.058L317.346 151.765L316.925 151.495L315.83 153.202L316.251 153.472L315.155 155.179L314.734 154.908L313.639 156.615L314.06 156.885L312.964 158.592L312.543 158.322L311.448 160.029L311.869 160.299L310.773 162.006L310.353 161.736L309.257 163.443L309.678 163.713L308.583 165.42L308.162 165.15L307.066 166.856L307.487 167.126L306.392 168.833L305.971 168.563L304.875 170.27L305.296 170.54L304.201 172.247L303.78 171.977L302.685 173.684L303.105 173.954L302.01 175.661L301.589 175.391L300.494 177.097L300.915 177.367L299.819 179.074L299.398 178.804L298.303 180.511L298.724 180.781L297.628 182.488L297.207 182.218L296.66 183.071L296.581 183.195V183.341V183.469H297.081V183.723H296.581V183.851V184.351H297.081H298.036V183.851H299.947V184.351H301.857V183.851H303.768V184.351H305.678V183.851H307.589V184.351H309.5V183.851H311.41V184.351H313.321V183.851H315.232V184.351H317.142V183.851H319.053V184.351H320.963V183.851H322.874V184.351H324.785V183.851H326.695V184.351H327.651H327.933L328.079 184.109L328.585 183.27L328.157 183.011L329.17 181.332L329.599 181.591L330.612 179.912L330.184 179.653L331.197 177.974L331.625 178.232L332.638 176.553L332.21 176.295L333.223 174.616L333.651 174.874L334.665 173.195L334.236 172.937L335.25 171.258L335.678 171.516L336.691 169.837L336.263 169.579L337.276 167.9L337.704 168.158L338.717 166.479L338.289 166.221L339.303 164.542L339.731 164.8L340.744 163.121L340.316 162.863L341.329 161.184L341.757 161.442L342.77 159.763L342.342 159.505L343.355 157.826L343.783 158.084L344.797 156.405L344.369 156.147L345.382 154.468L345.81 154.726L346.823 153.047L346.395 152.788L347.408 151.109L347.836 151.368L348.85 149.689L348.421 149.43L349.435 147.751L349.863 148.01L350.876 146.331L350.448 146.072L351.461 144.393L351.889 144.652L352.902 142.973L352.474 142.714L353.487 141.035L353.916 141.294L354.929 139.614L354.501 139.356L355.514 137.677L355.942 137.935L356.955 136.256L356.527 135.998L357.54 134.319L357.968 134.577L358.982 132.898L358.554 132.64L359.567 130.961L359.995 131.219L361.008 129.54L360.58 129.282L361.593 127.603L362.021 127.861L363.034 126.182L362.606 125.924L363.62 124.245L364.048 124.503L364.822 123.22H365.188V123.72H367.252V123.69L367.965 124.839L367.54 125.103L368.601 126.814L369.026 126.55L370.088 128.26L369.663 128.524L370.724 130.235L371.149 129.971L372.211 131.681L371.786 131.945L372.847 133.655L373.272 133.392L374.334 135.102L373.909 135.366L374.97 137.076L375.395 136.813L376.457 138.523L376.032 138.787L377.093 140.497L377.518 140.234L378.579 141.944L378.155 142.208L379.216 143.918L379.641 143.655L380.702 145.365L380.278 145.629L381.339 147.339L381.764 147.076L382.825 148.786L382.4 149.05L383.462 150.76L383.887 150.497L384.948 152.207L384.523 152.471L385.585 154.181L386.01 153.918L387.071 155.628L386.646 155.892L387.708 157.602L388.133 157.338L389.194 159.049L388.769 159.313L389.831 161.023L390.256 160.759L391.317 162.47L390.892 162.734L391.954 164.444L392.378 164.18L393.44 165.891L393.015 166.154L394.076 167.865L394.501 167.601L395.563 169.312L395.138 169.575L396.199 171.286L396.624 171.022L397.686 172.733L397.261 172.996L398.322 174.707L398.747 174.443L399.809 176.154L399.384 176.417L400.445 178.128L400.87 177.864L401.932 179.575L401.507 179.838L402.568 181.549L402.993 181.285L404.054 182.996L403.63 183.259L404.16 184.114L404.307 184.351H404.585H405.596V183.851H407.618V184.351H409.64V183.851H411.662V184.351H413.685V183.851H415.707V184.351H417.729V183.851H419.751V184.351H421.773V183.851H423.795V184.351H425.817V183.851H427.839V184.351H429.861V183.851H431.883V184.351H433.905V183.851H435.927V184.351H436.938H437.438V183.851V183.723H436.938V183.469H437.438V183.341V183.189L437.353 183.062L436.805 182.249L436.391 182.529L435.295 180.903L435.71 180.624L434.615 178.999L434.2 179.278L433.104 177.653L433.519 177.373L432.424 175.748L432.009 176.027L430.914 174.402L431.328 174.123L430.233 172.497L429.818 172.777L428.723 171.151L429.137 170.872L428.042 169.247L427.627 169.526L426.532 167.901L426.947 167.621L425.851 165.996L425.437 166.275L424.341 164.65L424.756 164.371L423.66 162.745L423.246 163.025L422.15 161.4L422.565 161.12L421.469 159.495L421.055 159.774L419.959 158.149L420.374 157.869L419.279 156.244L418.864 156.524L417.769 154.898L418.183 154.619L417.088 152.994L416.673 153.273L415.578 151.648L415.992 151.368L414.897 149.743L414.482 150.022L413.387 148.397L413.801 148.118L412.706 146.492L412.291 146.772L411.196 145.146L411.611 144.867L410.515 143.242L410.101 143.521L409.005 141.896L409.42 141.616L408.324 139.991L407.91 140.27L406.814 138.645L407.229 138.366L406.133 136.74L405.719 137.02L404.623 135.395L405.038 135.115L403.943 133.49L403.528 133.769L402.433 132.144L402.847 131.864L401.752 130.239L401.337 130.519L400.242 128.893L400.656 128.614L399.561 126.989L399.146 127.268L398.051 125.643L398.465 125.363L397.37 123.738L396.955 124.017L395.86 122.392L396.275 122.113L395.179 120.487L394.765 120.767L393.669 119.141L394.084 118.862L392.988 117.237L392.574 117.516L391.478 115.891L391.893 115.611L390.797 113.986L390.383 114.265L389.287 112.64L389.702 112.361L388.607 110.735L388.192 111.015L387.097 109.39L387.511 109.11L386.881 108.175L387.626 107.01L388.048 107.28L389.133 105.583L388.712 105.314L389.797 103.617L390.218 103.886L391.303 102.19L390.882 101.92L391.967 100.224L392.389 100.493L393.474 98.7963L393.053 98.5269L394.138 96.8303L394.559 97.0997L395.644 95.4031L395.223 95.1336L396.308 93.437L396.73 93.7064L397.815 92.0098L397.394 91.7403L398.479 90.0437L398.9 90.3131L399.985 88.6165L399.564 88.347L400.649 86.6504L401.071 86.9198L402.156 85.2232L401.735 84.9538L402.82 83.2571L403.241 83.5265L404.326 81.8299L403.905 81.5605L404.99 79.8638L405.411 80.1333L406.497 78.4366L406.075 78.1672L407.161 76.4705L407.582 76.74L408.667 75.0433L408.246 74.7739L409.331 73.0773L409.752 73.3467L410.838 71.65L410.416 71.3806L411.502 69.684L411.923 69.9534L413.008 68.2567L412.587 67.9873L413.672 66.2907L414.093 66.5601L415.179 64.8635L414.757 64.594L415.843 62.8974L416.264 63.1668L417.349 61.4702L416.928 61.2008L418.013 59.5041L418.434 59.7735L419.52 58.0769L419.098 57.8075L420.184 56.1108L420.605 56.3802L421.69 54.6836L421.269 54.4142L422.354 52.7175L422.775 52.987L423.86 51.2903L423.439 51.0209L424.524 49.3243L424.946 49.5937L426.031 47.897L425.61 47.6276L426.695 45.931L427.116 46.2004L428.201 44.5037L427.78 44.2343L428.865 42.5377L429.287 42.8071L430.372 41.1105L429.951 40.841L431.036 39.1444L431.457 39.4138L432.542 37.7172L432.121 37.4477L433.206 35.7511L433.628 36.0205L434.713 34.3239L434.292 34.0545L435.377 32.3578L435.798 32.6272L436.341 31.7789L436.419 31.6557V31.5095V31.3821H435.919V31.1274H436.419V31V30.5H435.919H434.956V31H433.03V30.5H431.103V31H429.177V30.5H427.25V31H425.323V30.5H423.397V31H421.47V30.5H419.544V31H417.617V30.5H415.691V31H413.764V30.5H411.838V31H409.911V30.5H407.985V31H406.058V30.5H405.095H404.81L404.665 30.7447L404.146 31.6182L404.576 31.8734L403.539 33.6203L403.109 33.365L402.072 35.1119L402.502 35.3672L401.464 37.114L401.035 36.8588L399.997 38.6056L400.427 38.8609L399.39 40.6078L398.96 40.3525L397.923 42.0994L398.353 42.3546L397.316 44.1015L396.886 43.8462L395.849 45.5931L396.279 45.8484L395.241 47.5952L394.811 47.34L393.774 49.0868L394.204 49.3421L393.167 51.089L392.737 50.8337L391.7 52.5806L392.13 52.8358L391.093 54.5827L390.663 54.3274L389.625 56.0743L390.055 56.3296L389.018 58.0764L388.588 57.8212L387.551 59.568L387.981 59.8233L386.944 61.5702L386.514 61.3149L385.477 63.0618L385.907 63.317L384.869 65.0639L384.439 64.8086L383.402 66.5555L383.832 66.8108L382.795 68.5576L382.365 68.3024L381.328 70.0492L381.758 70.3045L380.721 72.0514L380.291 71.7961L379.253 73.543L379.683 73.7982L378.646 75.5451L378.216 75.2898L377.179 77.0367L377.609 77.292L376.572 79.0388L376.142 78.7836L375.105 80.5304L375.535 80.7857L374.497 82.5326L374.067 82.2773L373.03 84.0242L373.46 84.2794L372.423 86.0263L371.993 85.771L370.956 87.5179L371.386 87.7732L370.349 89.52L369.919 89.2647L369.718 89.6023H369.315V90.1023H367.252V89.6023H366.491L366.354 89.3835L366.779 89.119L365.723 87.4267L365.299 87.6913L364.244 85.999L364.668 85.7344L363.613 84.0421L363.188 84.3067L362.133 82.6144L362.557 82.3498L361.502 80.6576L361.077 80.9222L360.022 79.2299L360.446 78.9653L359.391 77.273L358.967 77.5376L357.911 75.8453L358.336 75.5807L357.28 73.8885L356.856 74.1531L355.801 72.4608L356.225 72.1962L355.169 70.5039L354.745 70.7685L353.69 69.0762L354.114 68.8116L353.059 67.1194L352.634 67.3839L351.579 65.6917L352.003 65.4271L350.948 63.7348L350.524 63.9994L349.468 62.3071L349.892 62.0425L348.837 60.3502L348.413 60.6148L347.357 58.9226L347.782 58.658L346.726 56.9657L346.302 57.2303L345.247 55.538L345.671 55.2734L344.615 53.5811L344.191 53.8457L343.136 52.1534L343.56 51.8889L342.505 50.1966L342.08 50.4612L341.025 48.7689L341.449 48.5043L340.394 46.812L339.97 47.0766L338.914 45.3843L339.338 45.1198L338.283 43.4275L337.859 43.6921L336.803 41.9998L337.228 41.7352L336.172 40.0429L335.748 40.3075L334.693 38.6152L335.117 38.3506L334.061 36.6584L333.637 36.9229L332.582 35.2307L333.006 34.9661L331.951 33.2738L331.526 33.5384L330.471 31.8461L330.895 31.5815L330.368 30.7354Z" stroke="white" stroke-opacity="0.2" stroke-dasharray="2 2"/>
<path d="M310.085 31L354.412 102.076H362.309L417.081 183.341V183.851H384.727L340.146 112.011H331.484L277.732 31.5095V31H310.085ZM361.8 116.342L341.674 104.368L385.237 31H416.062V31.5095L361.8 116.342ZM331.994 97.9996L352.374 109.973L307.793 183.851H277.223V183.341L331.994 97.9996ZM338.108 123.22V90.1023H358.743V123.22H338.108Z" fill="#C3F967"/>
<rect x="85" y="99" width="387" height="87" fill="url(#paint1_linear_417_20557)"/>
<line x1="566.664" y1="163.5" x2="-12.3359" y2="163.5" stroke="url(#paint2_linear_417_20557)" stroke-dasharray="2 2"/>
<line x1="566.664" y1="107.5" x2="-12.3359" y2="107.5" stroke="url(#paint3_linear_417_20557)" stroke-dasharray="2 2"/>
<line x1="566.664" y1="51.5" x2="-12.3359" y2="51.5" stroke="url(#paint4_linear_417_20557)" stroke-dasharray="2 2"/>
<path d="M20.5 56L18.2726 53.7274L16 51.5L18.2726 49.2726L20.5 47L22.7274 49.2726L25 51.5L22.7274 53.7274L20.5 56Z" fill="#3448FF"/>
<path d="M101.5 167L99.2726 164.727L97 162.5L99.2726 160.273L101.5 158L103.727 160.273L106 162.5L103.727 164.727L101.5 167Z" fill="#3448FF"/>
<path d="M520.5 112L518.273 109.727L516 107.5L518.273 105.273L520.5 103L522.727 105.273L525 107.5L522.727 109.727L520.5 112Z" fill="#3448FF"/>
<path d="M-6 243H-0.833117C4.65079 243 10.0298 241.497 14.7192 238.654L36.5798 225.401C40.2066 223.203 44.2582 221.798 48.4676 221.28L114.891 213.105C118.483 212.663 122.126 212.874 125.643 213.729L168.005 224.03C173.957 225.477 180.21 225.067 185.922 222.856L235.74 203.573C239.194 202.236 242.865 201.55 246.569 201.55H293.626C296.675 201.55 299.706 201.085 302.615 200.172L346.002 186.546C349.669 185.395 353.523 184.958 357.354 185.261L379.332 186.997C388.558 187.726 397.603 184.156 403.844 177.324L418.341 161.455C422.387 157.025 427.669 153.911 433.504 152.513L505.394 135.298C508.592 134.533 511.642 133.246 514.422 131.491L520.457 127.681C526.279 124.006 533.187 122.445 540.023 123.259L557 125.283" stroke="url(#paint5_linear_417_20557)" stroke-width="2" stroke-dasharray="3 3"/>
<path d="M2.40356 243.762H-5.38119C-11.2458 243.762 -16 248.517 -16 254.381C-16 260.246 -11.2458 265 -5.38118 265H543C559.569 265 573 251.569 573 235V147.047C573 134.61 562.918 124.528 550.481 124.528L540.585 123.311C533.689 122.463 526.713 124.035 520.847 127.759L514.879 131.547C512.092 133.316 509.033 134.613 505.824 135.385L433.899 152.702C428.051 154.11 422.762 157.244 418.717 161.695L404.203 177.671C397.957 184.545 388.881 188.139 379.623 187.403L357.697 185.662C353.846 185.356 349.972 185.796 346.288 186.96L302.903 200.659C299.98 201.582 296.934 202.051 293.869 202.051H246.816C243.094 202.051 239.404 202.744 235.935 204.094L186.128 223.478C180.39 225.712 174.104 226.125 168.123 224.663L125.786 214.313C122.251 213.449 118.589 213.235 114.978 213.682L48.5437 221.903C44.3171 222.426 40.2503 223.843 36.6138 226.059L11.9821 241.073C9.09669 242.832 5.78275 243.762 2.40356 243.762Z" fill="url(#paint6_linear_417_20557)"/>
</g>
<defs>
<linearGradient id="paint0_linear_417_20557" x1="556" y1="0" x2="382.183" y2="416.561" gradientUnits="userSpaceOnUse">
<stop stop-color="#161616"/>
<stop offset="1" stop-color="#0B0B0B"/>
</linearGradient>
<linearGradient id="paint1_linear_417_20557" x1="278.5" y1="186" x2="278.5" y2="99" gradientUnits="userSpaceOnUse">
<stop stop-color="#0D0D0D"/>
<stop offset="1" stop-color="#0D0D0D" stop-opacity="0"/>
</linearGradient>
<linearGradient id="paint2_linear_417_20557" x1="-12.3359" y1="162.5" x2="566.664" y2="162.5" gradientUnits="userSpaceOnUse">
<stop stop-color="#364153" stop-opacity="0"/>
<stop offset="0.0990445" stop-color="#364153"/>
<stop offset="0.403813" stop-color="#364153" stop-opacity="0"/>
<stop offset="0.834609" stop-color="#364153" stop-opacity="0"/>
<stop offset="0.95472" stop-color="#364153"/>
<stop offset="1" stop-color="#364153" stop-opacity="0"/>
</linearGradient>
<linearGradient id="paint3_linear_417_20557" x1="-12.3359" y1="106.5" x2="566.664" y2="106.5" gradientUnits="userSpaceOnUse">
<stop stop-color="#364153" stop-opacity="0"/>
<stop offset="0.0630475" stop-color="#364153"/>
<stop offset="0.273237" stop-color="#364153" stop-opacity="0"/>
<stop offset="0.772234" stop-color="#364153" stop-opacity="0"/>
<stop offset="0.923718" stop-color="#364153"/>
<stop offset="1" stop-color="#364153" stop-opacity="0"/>
</linearGradient>
<linearGradient id="paint4_linear_417_20557" x1="-12.3359" y1="50.5" x2="566.664" y2="50.5" gradientUnits="userSpaceOnUse">
<stop stop-color="#364153" stop-opacity="0"/>
<stop offset="0.0940535" stop-color="#364153"/>
<stop offset="0.367327" stop-color="#364153" stop-opacity="0"/>
<stop offset="0.815579" stop-color="#364153" stop-opacity="0"/>
<stop offset="0.926036" stop-color="#364153"/>
<stop offset="1" stop-color="#364153" stop-opacity="0"/>
</linearGradient>
<linearGradient id="paint5_linear_417_20557" x1="-6" y1="182.5" x2="550" y2="182.5" gradientUnits="userSpaceOnUse">
<stop stop-color="#97A3B6" stop-opacity="0"/>
<stop offset="0.35054" stop-color="#97A3B6" stop-opacity="0.1"/>
<stop offset="1" stop-color="#97A3B6"/>
</linearGradient>
<linearGradient id="paint6_linear_417_20557" x1="278.5" y1="122" x2="278.5" y2="265" gradientUnits="userSpaceOnUse">
<stop stop-color="#111111" stop-opacity="0.6"/>
<stop offset="1" stop-color="#0D0D0D"/>
</linearGradient>
<clipPath id="clip0_417_20557">
<path d="M0 10C0 4.47716 4.47715 0 10 0H546C551.523 0 556 4.47715 556 10V254C556 259.523 551.523 264 546 264H9.99998C4.47714 264 0 259.523 0 254V10Z" fill="white"/>
</clipPath>
</defs>
</svg>
