<svg width="35" height="40" viewBox="0 0 35 40" fill="none" xmlns="http://www.w3.org/2000/svg">
<path d="M25.5118 20.0318V10.2521C25.5118 9.99284 25.3049 9.78075 25.0521 9.78075C24.7993 9.78075 24.5925 9.99284 24.5925 10.2521V15.79C24.5925 18.1348 22.7423 20.0318 20.4554 20.0318C18.1685 20.0318 16.3184 18.1348 16.3184 15.79V10.2521C16.3184 9.99284 16.1115 9.78075 15.8587 9.78075C15.6059 9.78075 15.399 9.99284 15.399 10.2521V20.0318H11.7216V10.2521C11.7216 7.90727 13.5718 6.01023 15.8587 6.01023C18.1456 6.01023 19.9957 7.90727 19.9957 10.2521V15.79C19.9957 16.0492 20.2026 16.2613 20.4554 16.2613C20.7082 16.2613 20.9151 16.0492 20.9151 15.79V10.2521C20.9151 7.90727 22.7653 6.01023 25.0521 6.01023C27.339 6.01023 29.1892 7.90727 29.1892 10.2521V20.0318H25.5118ZM9.71057 8.07223C9.71057 6.94108 8.80272 6.01023 7.69951 6.01023C6.59629 6.01023 5.68844 6.94108 5.68844 8.07223C5.68844 9.20339 6.59629 10.1342 7.69951 10.1342C8.80272 10.1342 9.71057 9.20339 9.71057 8.07223ZM9.5382 20.0318V11.3125H5.86082V20.0318H9.5382ZM35.05 33.3465V7.89549C35.05 3.54762 31.591 0.000976562 27.3505 0.000976562H7.69951C3.45903 0.000976562 0 3.54762 0 7.89549V33.3465C0 37.6943 3.45903 41.241 7.69951 41.241H18.7316V37.4705H7.69951C5.48159 37.4705 3.67738 35.6206 3.67738 33.3465V7.89549C3.67738 5.6214 5.48159 3.77149 7.69951 3.77149H27.3505C29.5684 3.77149 31.3726 5.6214 31.3726 7.89549V33.3465C31.3726 35.6206 29.5684 37.4705 27.3505 37.4705C25.1326 37.4705 23.3284 35.6206 23.3284 33.3465V25.4519C23.3284 23.1072 21.4782 21.2101 19.1913 21.2101C16.9044 21.2101 15.0543 23.1072 15.0543 25.4519V30.9899C15.0543 31.2491 14.8474 31.4612 14.5946 31.4612C14.3418 31.4612 14.1349 31.2491 14.1349 30.9899V25.4519C14.1349 23.1072 12.2847 21.2101 9.99787 21.2101C7.711 21.2101 5.86082 23.1072 5.86082 25.4519V35.2317H9.5382V25.4519C9.5382 25.1927 9.74505 24.9806 9.99787 24.9806C10.2507 24.9806 10.4575 25.1927 10.4575 25.4519V30.9899C10.4575 33.3347 12.3077 35.2317 14.5946 35.2317C16.8815 35.2317 18.7316 33.3347 18.7316 30.9899V25.4519C18.7316 25.1927 18.9385 24.9806 19.1913 24.9806C19.4441 24.9806 19.651 25.1927 19.651 25.4519V33.3465C19.651 37.6943 23.11 41.241 27.3505 41.241C31.591 41.241 35.05 37.6943 35.05 33.3465ZM29.3616 23.2721C29.3616 22.141 28.4537 21.2101 27.3505 21.2101C26.2473 21.2101 25.3394 22.141 25.3394 23.2721C25.3394 24.4033 26.2473 25.3341 27.3505 25.3341C28.4537 25.3341 29.3616 24.4033 29.3616 23.2721ZM29.1892 35.2317V26.5124H25.5118V35.2317H29.1892Z" fill="white"/>
</svg>
