<svg width="80" height="80" viewBox="0 0 80 80" fill="none" xmlns="http://www.w3.org/2000/svg">
<path d="M46 49V44.737C46 43.1396 47.7803 42.1869 49.1094 43.0729L67.5039 55.3359C68.6913 56.1275 68.6913 57.8725 67.5038 58.6641L49.1094 70.9271C47.7803 71.8131 46 70.8604 46 69.263V65" stroke="#3448FF" stroke-width="2" stroke-linecap="round"/>
<path d="M46 15V10.737C46 9.13964 47.7803 8.18686 49.1094 9.07293L67.5039 21.3359C68.6913 22.1275 68.6913 23.8725 67.5038 24.6641L49.1094 36.9271C47.7803 37.8131 46 36.8604 46 35.263V31" stroke="#8E99FF" stroke-width="2" stroke-linecap="round"/>
<path d="M24 49V44.737C24 43.1396 25.7803 42.1869 27.1094 43.0729L45.5039 55.3359C46.6913 56.1275 46.6913 57.8725 45.5038 58.6641L27.1094 70.9271C25.7803 71.8131 24 70.8604 24 69.263V65" stroke="#8E99FF" stroke-width="2" stroke-linecap="round"/>
<path d="M24 15V10.737C24 9.13964 25.7803 8.18686 27.1094 9.07293L45.5039 21.3359C46.6913 22.1275 46.6913 23.8725 45.5038 24.6641L27.1094 36.9271C25.7803 37.8131 24 36.8604 24 35.263V31" stroke="#B2B9FC" stroke-width="2" stroke-linecap="round"/>
<path d="M2 49V44.737C2 43.1396 3.78029 42.1869 5.1094 43.0729L23.5039 55.3359C24.6913 56.1275 24.6913 57.8725 23.5038 58.6641L5.1094 70.9271C3.78029 71.8131 2 70.8604 2 69.263V65" stroke="#B2B9FC" stroke-width="2" stroke-linecap="round"/>
<path d="M2 15V10.737C2 9.13964 3.78029 8.18686 5.1094 9.07293L23.5039 21.3359C24.6913 22.1275 24.6913 23.8725 23.5038 24.6641L5.1094 36.9271C3.78029 37.8131 2 36.8604 2 35.263V31" stroke="#D4D9FF" stroke-width="2" stroke-linecap="round"/>
</svg>
