<svg width="183" height="251" viewBox="0 0 183 251" fill="none" xmlns="http://www.w3.org/2000/svg">
<g clip-path="url(#clip0_4157_58602)">
<circle opacity="0.7" cx="91.8619" cy="170.246" r="104.754" transform="rotate(180 91.8619 170.246)" stroke="#BABABA" stroke-width="0.8" stroke-dasharray="2.16 2.16"/>
<circle opacity="0.7" cx="91.9951" cy="170" r="72" transform="rotate(180 91.9951 170)" stroke="#BABABA" stroke-width="0.8" stroke-dasharray="2.16 2.16"/>
<path opacity="0.7" d="M91.862 65.4915C105.618 65.4915 119.24 68.201 131.95 73.4654C144.659 78.7298 156.207 86.446 165.934 96.1733C175.662 105.901 183.378 117.449 188.642 130.158C193.907 142.867 196.616 156.489 196.616 170.246" stroke="#3448FF" stroke-width="0.8" stroke-dasharray="2.16 2.16"/>
<path opacity="0.7" d="M91.9951 71L91.9951 104" stroke="#BABABA" stroke-width="0.8" stroke-dasharray="2.16 2.16"/>
<path opacity="0.7" d="M188.55 150.336L181.804 152.143" stroke="#3448FF" stroke-width="0.8"/>
<path opacity="0.7" d="M178.55 126.195L172.502 129.687" stroke="#3448FF" stroke-width="0.8"/>
<path opacity="0.7" d="M157.704 242.086L162.642 247.024" stroke="#3448FF" stroke-width="0.8"/>
<path opacity="0.7" d="M162.641 105.463L157.702 110.401" stroke="#3448FF" stroke-width="0.8"/>
<path opacity="0.7" d="M172.501 222.803L178.549 226.295" stroke="#3448FF" stroke-width="0.8"/>
<path opacity="0.7" d="M141.911 89.5566L138.419 95.6046" stroke="#3448FF" stroke-width="0.8"/>
<path opacity="0.7" d="M181.804 200.346L188.549 202.153" stroke="#3448FF" stroke-width="0.8"/>
<path opacity="0.7" d="M117.769 79.5566L115.961 86.3023" stroke="#3448FF" stroke-width="0.8"/>
<path d="M91.989 69L93.469 67.49L94.979 66.01L93.469 64.53L91.989 63.02L90.509 64.53L88.999 66.01L90.509 67.49L91.989 69Z" fill="#3448FF"/>
<path d="M66.0331 158.28C63.7744 158.28 62.0291 157.832 60.7971 156.936C59.5651 156.04 58.8371 154.621 58.6131 152.68L62.5331 152.26C62.6264 152.839 62.7851 153.343 63.0091 153.772C63.2517 154.183 63.6157 154.5 64.1011 154.724C64.5864 154.948 65.2491 155.06 66.0891 155.06C67.0784 155.06 67.8064 154.873 68.2731 154.5C68.7584 154.127 69.0011 153.613 69.0011 152.96C69.0011 152.531 68.9171 152.167 68.7491 151.868C68.5811 151.569 68.3011 151.355 67.9091 151.224C67.5171 151.075 66.9571 151 66.2291 151H63.4291V148.2H66.2291C66.7331 148.2 67.1624 148.144 67.5171 148.032C67.8717 147.901 68.1331 147.696 68.3011 147.416C68.4877 147.117 68.5811 146.735 68.5811 146.268C68.5811 145.521 68.3664 144.989 67.9371 144.672C67.5264 144.336 66.8731 144.168 65.9771 144.168C64.8757 144.168 64.1197 144.401 63.7091 144.868C63.2984 145.335 63.0371 145.988 62.9251 146.828L59.1731 146.492C59.3224 145.335 59.6491 144.345 60.1531 143.524C60.6571 142.703 61.3851 142.068 62.3371 141.62C63.3077 141.153 64.5117 140.92 65.9491 140.92C68.1704 140.92 69.7851 141.303 70.7931 142.068C71.8011 142.815 72.3051 143.935 72.3051 145.428C72.3051 146.884 71.7544 147.939 70.6531 148.592C69.5704 149.245 68.0211 149.6 66.0051 149.656L68.5811 148.844V150.188L66.0051 149.544C67.7971 149.544 69.1971 149.675 70.2051 149.936C71.2317 150.197 71.9504 150.617 72.3611 151.196C72.7717 151.756 72.9771 152.512 72.9771 153.464C72.9771 154.416 72.7344 155.256 72.2491 155.984C71.7824 156.693 71.0357 157.253 70.0091 157.664C69.0011 158.075 67.6757 158.28 66.0331 158.28ZM81.901 144.196C80.837 144.196 80.025 144.513 79.465 145.148C78.905 145.783 78.569 146.725 78.457 147.976L74.677 147.584C74.8076 146.203 75.1436 145.008 75.685 144C76.2263 142.992 77.001 142.217 78.009 141.676C79.0356 141.116 80.3423 140.836 81.929 140.836C83.3476 140.836 84.5516 141.041 85.541 141.452C86.5303 141.844 87.277 142.451 87.781 143.272C88.3036 144.093 88.565 145.139 88.565 146.408C88.565 147.491 88.285 148.405 87.725 149.152C87.1836 149.899 86.3996 150.515 85.373 151C84.3463 151.485 83.1423 151.868 81.761 152.148C80.9583 152.335 80.2956 152.521 79.773 152.708C79.2503 152.876 78.8396 153.081 78.541 153.324C78.2423 153.548 78.0276 153.828 77.897 154.164C77.785 154.481 77.729 154.873 77.729 155.34L76.301 154.92C76.637 154.883 77.0476 154.845 77.533 154.808C78.0183 154.752 78.5316 154.705 79.073 154.668C79.633 154.631 80.1743 154.603 80.697 154.584C81.2196 154.565 81.6863 154.556 82.097 154.556H88.621V158H74.229C74.2103 157.664 74.1916 157.328 74.173 156.992C74.173 156.656 74.173 156.311 74.173 155.956C74.173 154.649 74.369 153.585 74.761 152.764C75.153 151.924 75.7783 151.252 76.637 150.748C77.4956 150.225 78.5876 149.796 79.913 149.46C80.9023 149.199 81.705 148.956 82.321 148.732C82.937 148.508 83.4036 148.275 83.721 148.032C84.0383 147.789 84.253 147.528 84.365 147.248C84.4956 146.968 84.561 146.651 84.561 146.296C84.561 145.885 84.4676 145.521 84.281 145.204C84.0943 144.887 83.805 144.644 83.413 144.476C83.021 144.289 82.517 144.196 81.901 144.196ZM97.1203 158.336C95.403 158.336 94.003 158.14 92.9203 157.748C91.8563 157.356 91.0816 156.796 90.5963 156.068C90.111 155.34 89.8683 154.509 89.8683 153.576C89.8683 152.717 90.0923 151.999 90.5403 151.42C90.9883 150.841 91.6603 150.384 92.5563 150.048C93.471 149.712 94.6283 149.497 96.0283 149.404L94.1523 150.048V148.872L96.0283 149.684C94.871 149.553 93.8816 149.339 93.0603 149.04C92.239 148.723 91.6136 148.275 91.1843 147.696C90.7736 147.117 90.5683 146.361 90.5683 145.428C90.5683 144.009 91.0816 142.899 92.1083 142.096C93.135 141.275 94.8056 140.864 97.1203 140.864C99.4536 140.864 101.134 141.275 102.16 142.096C103.187 142.899 103.7 144.009 103.7 145.428C103.7 146.361 103.486 147.117 103.056 147.696C102.627 148.275 102.002 148.723 101.18 149.04C100.378 149.339 99.3976 149.553 98.2403 149.684L100.116 148.872V150.048L98.2403 149.404C99.6403 149.497 100.788 149.712 101.684 150.048C102.599 150.384 103.271 150.841 103.7 151.42C104.148 151.999 104.372 152.717 104.372 153.576C104.372 154.509 104.13 155.34 103.644 156.068C103.159 156.796 102.384 157.356 101.32 157.748C100.275 158.14 98.875 158.336 97.1203 158.336ZM97.1203 144.196C96.1496 144.196 95.4403 144.364 94.9923 144.7C94.563 145.036 94.3483 145.54 94.3483 146.212C94.3483 146.697 94.451 147.099 94.6563 147.416C94.8803 147.715 95.1976 147.939 95.6083 148.088C96.0376 148.237 96.5416 148.312 97.1203 148.312C97.7176 148.312 98.2216 148.237 98.6323 148.088C99.043 147.939 99.351 147.715 99.5563 147.416C99.7803 147.099 99.8923 146.697 99.8923 146.212C99.8923 145.54 99.6776 145.036 99.2483 144.7C98.819 144.364 98.1096 144.196 97.1203 144.196ZM97.1203 150.916C96.2803 150.916 95.6176 151.009 95.1323 151.196C94.6656 151.383 94.339 151.635 94.1523 151.952C93.9656 152.251 93.8723 152.605 93.8723 153.016C93.8723 153.651 94.1336 154.155 94.6563 154.528C95.1976 154.883 96.019 155.06 97.1203 155.06C98.2403 155.06 99.0616 154.883 99.5843 154.528C100.107 154.155 100.368 153.651 100.368 153.016C100.368 152.605 100.275 152.251 100.088 151.952C99.9016 151.635 99.575 151.383 99.1083 151.196C98.6603 151.009 97.9976 150.916 97.1203 150.916Z" fill="#97A3B6"/>
<path d="M112.255 149.865C112.255 149.665 112.22 149.497 112.152 149.362C112.085 149.226 111.987 149.124 111.857 149.057C111.727 148.989 111.566 148.955 111.375 148.955C111.195 148.955 111.025 148.997 110.865 149.08C110.706 149.163 110.576 149.292 110.475 149.467C110.375 149.641 110.325 149.857 110.325 150.118H109.892V148.875H110.162C110.262 148.64 110.396 148.436 110.565 148.262C110.733 148.089 110.93 147.956 111.157 147.862C111.385 147.767 111.636 147.72 111.91 147.72C112.281 147.72 112.6 147.791 112.865 147.932C113.131 148.074 113.336 148.289 113.48 148.577C113.625 148.866 113.697 149.224 113.697 149.652V153H112.255V149.865ZM108.882 153V145.88H110.325V153H108.882ZM114.354 153V147.84H115.756V149.18H115.796V153H114.354ZM115.569 149.785C115.569 149.415 115.629 149.077 115.751 148.772C115.874 148.466 116.064 148.221 116.319 148.037C116.575 147.852 116.895 147.76 117.279 147.76C117.335 147.76 117.389 147.762 117.441 147.765C117.494 147.768 117.547 147.774 117.599 147.782V149.1C117.539 149.1 117.479 149.1 117.421 149.1C117.364 149.1 117.309 149.1 117.256 149.1C116.946 149.1 116.683 149.152 116.466 149.257C116.249 149.361 116.084 149.52 115.969 149.735C115.854 149.95 115.796 150.219 115.796 150.542H115.569V149.785ZM119.935 153.143C119.43 153.143 119.002 153.077 118.652 152.945C118.304 152.813 118.035 152.615 117.845 152.35C117.655 152.085 117.546 151.752 117.517 151.35H118.917C118.939 151.542 118.988 151.696 119.065 151.812C119.143 151.927 119.256 152.012 119.402 152.065C119.549 152.117 119.739 152.142 119.972 152.142C120.184 152.142 120.359 152.122 120.497 152.08C120.636 152.037 120.738 151.975 120.805 151.895C120.872 151.813 120.905 151.713 120.905 151.595C120.905 151.485 120.879 151.394 120.827 151.322C120.776 151.251 120.69 151.191 120.57 151.142C120.452 151.092 120.288 151.05 120.08 151.015L119.345 150.902C118.975 150.844 118.662 150.748 118.407 150.615C118.154 150.482 117.96 150.307 117.825 150.092C117.692 149.877 117.625 149.619 117.625 149.317C117.625 148.981 117.712 148.693 117.885 148.455C118.058 148.215 118.312 148.032 118.645 147.907C118.978 147.782 119.38 147.72 119.85 147.72C120.383 147.72 120.821 147.792 121.162 147.937C121.506 148.081 121.758 148.282 121.92 148.54C122.083 148.797 122.172 149.102 122.187 149.457H120.852C120.841 149.267 120.796 149.117 120.717 149.007C120.639 148.897 120.529 148.82 120.387 148.775C120.247 148.728 120.068 148.705 119.85 148.705C119.667 148.705 119.513 148.725 119.39 148.765C119.267 148.803 119.173 148.862 119.11 148.94C119.048 149.017 119.017 149.11 119.017 149.22C119.017 149.332 119.046 149.424 119.102 149.497C119.161 149.571 119.249 149.631 119.367 149.677C119.487 149.722 119.647 149.761 119.845 149.792L120.495 149.89C120.915 149.955 121.258 150.054 121.525 150.188C121.793 150.321 121.992 150.492 122.122 150.702C122.254 150.912 122.32 151.167 122.32 151.465C122.32 151.822 122.225 152.126 122.035 152.377C121.847 152.627 121.574 152.817 121.217 152.947C120.861 153.078 120.433 153.143 119.935 153.143ZM122.548 153V151.495H124.193V153H122.548Z" fill="#97A3B6"/>
<path d="M47.3405 172C47.1405 172 46.9738 171.967 46.8405 171.9C46.7071 171.832 46.6071 171.731 46.5405 171.597C46.4738 171.462 46.4405 171.297 46.4405 171.1L46.3005 171.02V169.17V168.88V168.26C46.3005 168.078 46.2588 167.929 46.1755 167.812C46.0938 167.694 45.9671 167.606 45.7955 167.547C45.6255 167.489 45.4071 167.46 45.1405 167.46C44.8871 167.46 44.6788 167.489 44.5155 167.547C44.3521 167.606 44.2255 167.702 44.1355 167.837C44.0471 167.971 43.9921 168.152 43.9705 168.38H43.0605C43.0888 168.003 43.188 167.691 43.358 167.442C43.5296 167.192 43.7696 167.007 44.078 166.885C44.388 166.762 44.7655 166.7 45.2105 166.7C45.6421 166.7 46.008 166.76 46.308 166.88C46.608 166.998 46.8363 167.18 46.993 167.425C47.1513 167.67 47.2305 167.978 47.2305 168.35V170.87C47.2305 170.985 47.2446 171.075 47.273 171.14C47.3013 171.203 47.3471 171.249 47.4105 171.277C47.4755 171.306 47.5655 171.32 47.6805 171.32C47.7055 171.32 47.7305 171.32 47.7555 171.32C47.7805 171.32 47.8055 171.32 47.8305 171.32V172C47.7488 172 47.6671 172 47.5855 172C47.5038 172 47.4221 172 47.3405 172ZM44.5805 172.13C44.2305 172.13 43.9255 172.071 43.6655 171.952C43.4055 171.834 43.2046 171.662 43.063 171.437C42.9213 171.211 42.8505 170.942 42.8505 170.63C42.8505 170.34 42.9113 170.084 43.033 169.862C43.1563 169.641 43.348 169.458 43.608 169.315C43.8696 169.17 44.2038 169.072 44.6105 169.02L45.9305 168.85C46.0155 168.838 46.0846 168.817 46.138 168.787C46.193 168.756 46.2338 168.713 46.2605 168.66C46.2871 168.607 46.3005 168.54 46.3005 168.46L46.6705 168.99C46.6705 169.087 46.658 169.168 46.633 169.235C46.608 169.302 46.5688 169.354 46.5155 169.392C46.4621 169.431 46.3938 169.457 46.3105 169.47L44.7605 169.7C44.5255 169.735 44.3338 169.793 44.1855 169.875C44.0388 169.955 43.9313 170.055 43.863 170.175C43.7946 170.293 43.7605 170.432 43.7605 170.59C43.7605 170.763 43.8005 170.912 43.8805 171.037C43.9621 171.162 44.0771 171.257 44.2255 171.322C44.3755 171.387 44.5505 171.42 44.7505 171.42C45.0221 171.42 45.2771 171.363 45.5155 171.25C45.7538 171.137 45.9438 170.986 46.0855 170.797C46.2288 170.609 46.3005 170.407 46.3005 170.19H46.5905V170.95C46.5088 171.168 46.3746 171.367 46.188 171.547C46.0013 171.726 45.7705 171.867 45.4955 171.972C45.2205 172.078 44.9155 172.13 44.5805 172.13ZM48.5336 172V166.84H49.3936V167.84H49.4536V172H48.5336ZM51.9536 168.6C51.9536 168.362 51.9161 168.162 51.8411 168C51.7661 167.838 51.6519 167.717 51.4986 167.635C51.3469 167.552 51.1553 167.51 50.9236 167.51C50.6653 167.51 50.4253 167.562 50.2036 167.667C49.9836 167.772 49.8036 167.946 49.6636 168.187C49.5236 168.429 49.4536 168.743 49.4536 169.13H49.1436V167.75H49.2936C49.4036 167.53 49.5478 167.342 49.7261 167.187C49.9061 167.032 50.1144 166.914 50.3511 166.832C50.5878 166.751 50.8453 166.71 51.1236 166.71C51.4836 166.71 51.7944 166.777 52.0561 166.912C52.3194 167.046 52.5211 167.241 52.6611 167.497C52.8028 167.752 52.8736 168.06 52.8736 168.42V172H51.9536V168.6ZM56.2211 172.11C55.7444 172.11 55.3286 171.992 54.9736 171.755C54.6186 171.518 54.3461 171.19 54.1561 170.77C53.9661 170.35 53.8711 169.873 53.8711 169.34C53.8711 168.827 53.9694 168.372 54.1661 167.977C54.3644 167.582 54.6394 167.276 54.9911 167.057C55.3444 166.839 55.7478 166.73 56.2011 166.73C56.5394 166.73 56.8469 166.79 57.1236 166.91C57.4019 167.028 57.6303 167.195 57.8086 167.41C57.9869 167.625 58.1011 167.872 58.1511 168.15V170.76C58.0878 171.012 57.9653 171.24 57.7836 171.445C57.6019 171.65 57.3753 171.812 57.1036 171.932C56.8336 172.051 56.5394 172.11 56.2211 172.11ZM56.3111 171.32C56.6178 171.32 56.8919 171.241 57.1336 171.082C57.3769 170.922 57.5669 170.694 57.7036 170.397C57.8419 170.101 57.9111 169.755 57.9111 169.36C57.9111 168.963 57.8436 168.627 57.7086 168.352C57.5736 168.076 57.3869 167.868 57.1486 167.73C56.9119 167.59 56.6394 167.52 56.3311 167.52C56.0144 167.52 55.7403 167.59 55.5086 167.73C55.2786 167.87 55.1011 168.077 54.9761 168.35C54.8528 168.622 54.7911 168.952 54.7911 169.34C54.7911 169.738 54.8519 170.087 54.9736 170.385C55.0953 170.683 55.2703 170.914 55.4986 171.077C55.7269 171.239 55.9978 171.32 56.3111 171.32ZM57.9811 172V170.55H57.9611V167.91H57.8611V164.88H58.7811V172H57.9811ZM65.4573 172V170.15V169.67V165.81L65.6673 165.89L62.9273 169.83V169.51H65.9173H67.5373V170.32H65.9173H62.2173V169.45L65.3973 164.88H66.3873V172H65.4573ZM70.9638 172.12C70.4188 172.12 69.9647 171.987 69.6013 171.72C69.2397 171.453 68.968 171.048 68.7863 170.505C68.6047 169.96 68.5138 169.272 68.5138 168.44C68.5138 167.598 68.6055 166.906 68.7888 166.362C68.9738 165.819 69.2488 165.417 69.6138 165.155C69.9788 164.892 70.4355 164.76 70.9838 164.76C71.5322 164.76 71.9872 164.891 72.3488 165.152C72.7105 165.414 72.9813 165.817 73.1613 166.36C73.343 166.903 73.4338 167.597 73.4338 168.44C73.4338 169.27 73.3413 169.957 73.1563 170.502C72.9713 171.046 72.6963 171.452 72.3313 171.72C71.9663 171.987 71.5105 172.12 70.9638 172.12ZM70.9838 171.31C71.3405 171.31 71.628 171.212 71.8463 171.015C72.0647 170.818 72.2255 170.511 72.3288 170.092C72.4322 169.672 72.4838 169.122 72.4838 168.44C72.4838 167.763 72.4313 167.215 72.3263 166.795C72.2213 166.375 72.058 166.066 71.8363 165.867C71.6163 165.669 71.3288 165.57 70.9738 165.57C70.6188 165.57 70.3305 165.669 70.1088 165.867C69.8888 166.066 69.7263 166.375 69.6213 166.795C69.5163 167.215 69.4638 167.763 69.4638 168.44C69.4638 169.12 69.5163 169.67 69.6213 170.09C69.728 170.508 69.8922 170.817 70.1138 171.015C70.3372 171.212 70.6272 171.31 70.9838 171.31ZM77.0656 172V166.84H77.9256V167.84H77.9856V172H77.0656ZM80.3056 168.47C80.3056 168.27 80.2673 168.098 80.1906 167.955C80.1156 167.812 80.0056 167.702 79.8606 167.625C79.7156 167.548 79.5406 167.51 79.3356 167.51C79.1023 167.51 78.884 167.563 78.6806 167.67C78.4773 167.775 78.3106 167.95 78.1806 168.195C78.0506 168.438 77.9856 168.757 77.9856 169.15H77.6756V167.75H77.8256C77.9406 167.527 78.0806 167.338 78.2456 167.185C78.4123 167.03 78.6056 166.912 78.8256 166.832C79.0456 166.751 79.2923 166.71 79.5656 166.71C79.9173 166.71 80.2165 166.779 80.4631 166.918C80.7115 167.054 80.9006 167.258 81.0306 167.53C81.1606 167.8 81.2256 168.133 81.2256 168.53V172H80.3056V168.47ZM83.5456 168.47C83.5456 168.27 83.5073 168.098 83.4306 167.955C83.3556 167.812 83.2456 167.702 83.1006 167.625C82.9556 167.548 82.7806 167.51 82.5756 167.51C82.3373 167.51 82.1173 167.559 81.9156 167.657C81.714 167.754 81.5481 167.921 81.4181 168.157C81.2898 168.394 81.2256 168.708 81.2256 169.1H80.9156V167.69H81.0356C81.149 167.472 81.2906 167.29 81.4606 167.145C81.6306 166.998 81.8273 166.889 82.0506 166.817C82.2756 166.746 82.5273 166.71 82.8056 166.71C83.1623 166.71 83.464 166.773 83.7106 166.9C83.9573 167.025 84.1448 167.217 84.2731 167.477C84.4015 167.737 84.4656 168.065 84.4656 168.46V172H83.5456V168.47ZM85.7695 172V166.84H86.6895V172H85.7695ZM85.7695 165.87V164.88H86.6895V165.87H85.7695ZM87.9891 172V166.84H88.8491V167.84H88.9091V172H87.9891ZM91.4091 168.6C91.4091 168.362 91.3716 168.162 91.2966 168C91.2216 167.838 91.1074 167.717 90.9541 167.635C90.8024 167.552 90.6107 167.51 90.3791 167.51C90.1207 167.51 89.8807 167.562 89.6591 167.667C89.4391 167.772 89.2591 167.946 89.1191 168.187C88.9791 168.429 88.9091 168.743 88.9091 169.13H88.5991V167.75H88.7491C88.8591 167.53 89.0032 167.342 89.1816 167.187C89.3616 167.032 89.5699 166.914 89.8066 166.832C90.0432 166.751 90.3007 166.71 90.5791 166.71C90.9391 166.71 91.2499 166.777 91.5116 166.912C91.7749 167.046 91.9766 167.241 92.1166 167.497C92.2582 167.752 92.3291 168.06 92.3291 168.42V172H91.4091V168.6ZM95.3766 172.13C95.0166 172.13 94.7049 172.063 94.4416 171.93C94.1799 171.795 93.9782 171.6 93.8366 171.345C93.6966 171.088 93.6266 170.78 93.6266 170.42V166.84H94.5466V170.24C94.5466 170.478 94.5841 170.678 94.6591 170.84C94.7341 171.002 94.8474 171.124 94.9991 171.207C95.1524 171.289 95.3449 171.33 95.5766 171.33C95.8349 171.33 96.0741 171.277 96.2941 171.172C96.5157 171.067 96.6966 170.894 96.8366 170.652C96.9766 170.411 97.0466 170.097 97.0466 169.71H97.3566V171.09H97.2066C97.0966 171.31 96.9516 171.497 96.7716 171.652C96.5932 171.807 96.3857 171.926 96.1491 172.008C95.9124 172.089 95.6549 172.13 95.3766 172.13ZM97.1066 172V171H97.0466V166.84H97.9666V172H97.1066ZM100.654 172C100.386 172 100.167 171.96 99.9991 171.88C99.8307 171.798 99.7057 171.673 99.6241 171.505C99.5441 171.337 99.5041 171.118 99.5041 170.85V167.95V167.17V166.45V165.26H100.424V166.45V167.17V167.95V170.73C100.424 170.858 100.439 170.958 100.469 171.03C100.501 171.102 100.552 171.153 100.624 171.185C100.696 171.215 100.796 171.23 100.924 171.23C101.017 171.23 101.111 171.23 101.204 171.23C101.299 171.23 101.394 171.23 101.489 171.23H101.594V172C101.577 172 101.562 172 101.547 172C101.532 172 101.516 172 101.499 172C101.359 172 101.218 172 101.077 172C100.935 172 100.794 172 100.654 172ZM98.6641 167.55V166.84L99.9641 166.89L101.604 166.84V167.55L99.9641 167.5L98.6641 167.55ZM104.532 172.12C104.029 172.12 103.592 172.005 103.222 171.775C102.854 171.545 102.571 171.225 102.375 170.815C102.18 170.403 102.082 169.932 102.082 169.4C102.082 168.872 102.178 168.406 102.37 168.002C102.563 167.597 102.842 167.282 103.207 167.057C103.574 166.832 104.009 166.72 104.512 166.72C104.994 166.72 105.411 166.823 105.765 167.03C106.12 167.237 106.393 167.534 106.585 167.922C106.776 168.309 106.872 168.768 106.872 169.3C106.872 169.357 106.872 169.413 106.872 169.47C106.872 169.527 106.872 169.583 106.872 169.64H102.842V168.98H106.412L106.032 169.42C106.032 169.003 105.973 168.649 105.855 168.357C105.736 168.066 105.565 167.845 105.34 167.695C105.115 167.545 104.842 167.47 104.522 167.47C104.22 167.47 103.955 167.537 103.727 167.67C103.499 167.803 103.32 168.002 103.192 168.267C103.065 168.532 103.002 168.857 103.002 169.24V169.55C103.002 169.95 103.065 170.286 103.192 170.557C103.319 170.829 103.499 171.032 103.732 171.167C103.965 171.302 104.242 171.37 104.562 171.37C104.799 171.37 105.007 171.334 105.187 171.262C105.369 171.189 105.523 171.082 105.65 170.942C105.776 170.802 105.879 170.631 105.957 170.427L106.802 170.527C106.692 170.864 106.529 171.152 106.312 171.39C106.097 171.628 105.838 171.81 105.535 171.935C105.233 172.058 104.899 172.12 104.532 172.12ZM109.613 172.13C109.181 172.13 108.814 172.067 108.511 171.94C108.207 171.813 107.968 171.622 107.793 171.367C107.62 171.112 107.513 170.793 107.473 170.41L108.343 170.37C108.373 170.608 108.441 170.802 108.546 170.952C108.652 171.102 108.796 171.213 108.978 171.285C109.161 171.355 109.386 171.39 109.653 171.39C109.928 171.39 110.158 171.357 110.343 171.292C110.528 171.226 110.666 171.132 110.756 171.012C110.847 170.891 110.893 170.747 110.893 170.58C110.893 170.425 110.855 170.297 110.778 170.197C110.703 170.096 110.581 170.01 110.411 169.94C110.242 169.87 110.01 169.807 109.713 169.75L109.193 169.65C108.843 169.583 108.551 169.49 108.318 169.37C108.085 169.25 107.907 169.095 107.786 168.905C107.664 168.713 107.603 168.482 107.603 168.21C107.603 167.907 107.676 167.643 107.821 167.42C107.966 167.197 108.181 167.024 108.468 166.902C108.756 166.781 109.108 166.72 109.523 166.72C109.913 166.72 110.256 166.778 110.551 166.893C110.847 167.007 111.087 167.182 111.271 167.417C111.454 167.652 111.57 167.947 111.618 168.3L110.716 168.342C110.681 168.142 110.613 167.977 110.513 167.845C110.415 167.713 110.281 167.615 110.111 167.55C109.942 167.483 109.736 167.45 109.493 167.45C109.275 167.45 109.088 167.475 108.933 167.525C108.778 167.575 108.659 167.651 108.576 167.752C108.494 167.852 108.453 167.978 108.453 168.13C108.453 168.282 108.493 168.405 108.573 168.5C108.653 168.593 108.766 168.668 108.913 168.725C109.06 168.78 109.253 168.832 109.493 168.88L109.993 168.98C110.366 169.055 110.681 169.15 110.938 169.265C111.195 169.378 111.398 169.536 111.548 169.737C111.698 169.937 111.773 170.192 111.773 170.5C111.773 170.835 111.687 171.125 111.516 171.37C111.346 171.615 111.098 171.803 110.773 171.935C110.45 172.065 110.063 172.13 109.613 172.13ZM116.757 172.13C116.326 172.13 115.958 172.067 115.655 171.94C115.351 171.813 115.112 171.622 114.937 171.367C114.764 171.112 114.657 170.793 114.617 170.41L115.487 170.37C115.517 170.608 115.585 170.802 115.69 170.952C115.796 171.102 115.941 171.213 116.122 171.285C116.306 171.355 116.531 171.39 116.797 171.39C117.072 171.39 117.302 171.357 117.487 171.292C117.672 171.226 117.81 171.132 117.9 171.012C117.991 170.891 118.037 170.747 118.037 170.58C118.037 170.425 117.999 170.297 117.922 170.197C117.847 170.096 117.725 170.01 117.555 169.94C117.386 169.87 117.154 169.807 116.857 169.75L116.337 169.65C115.987 169.583 115.696 169.49 115.462 169.37C115.229 169.25 115.051 169.095 114.93 168.905C114.808 168.713 114.747 168.482 114.747 168.21C114.747 167.907 114.82 167.643 114.965 167.42C115.11 167.197 115.326 167.024 115.612 166.902C115.901 166.781 116.252 166.72 116.667 166.72C117.057 166.72 117.4 166.778 117.695 166.893C117.991 167.007 118.231 167.182 118.415 167.417C118.598 167.652 118.714 167.947 118.762 168.3L117.86 168.342C117.825 168.142 117.757 167.977 117.657 167.845C117.559 167.713 117.425 167.615 117.255 167.55C117.086 167.483 116.881 167.45 116.637 167.45C116.419 167.45 116.232 167.475 116.077 167.525C115.922 167.575 115.803 167.651 115.72 167.752C115.638 167.852 115.597 167.978 115.597 168.13C115.597 168.282 115.637 168.405 115.717 168.5C115.797 168.593 115.911 168.668 116.057 168.725C116.204 168.78 116.397 168.832 116.637 168.88L117.137 168.98C117.511 169.055 117.826 169.15 118.082 169.265C118.339 169.378 118.542 169.536 118.692 169.737C118.842 169.937 118.917 170.192 118.917 170.5C118.917 170.835 118.831 171.125 118.66 171.37C118.49 171.615 118.242 171.803 117.917 171.935C117.594 172.065 117.207 172.13 116.757 172.13ZM123.976 172C123.776 172 123.609 171.967 123.476 171.9C123.343 171.832 123.243 171.731 123.176 171.597C123.109 171.462 123.076 171.297 123.076 171.1L122.936 171.02V169.17V168.88V168.26C122.936 168.078 122.894 167.929 122.811 167.812C122.729 167.694 122.603 167.606 122.431 167.547C122.261 167.489 122.043 167.46 121.776 167.46C121.523 167.46 121.314 167.489 121.151 167.547C120.988 167.606 120.861 167.702 120.771 167.837C120.683 167.971 120.628 168.152 120.606 168.38H119.696C119.724 168.003 119.824 167.691 119.994 167.442C120.165 167.192 120.405 167.007 120.714 166.885C121.024 166.762 121.401 166.7 121.846 166.7C122.278 166.7 122.644 166.76 122.944 166.88C123.244 166.998 123.472 167.18 123.629 167.425C123.787 167.67 123.866 167.978 123.866 168.35V170.87C123.866 170.985 123.88 171.075 123.909 171.14C123.937 171.203 123.983 171.249 124.046 171.277C124.111 171.306 124.201 171.32 124.316 171.32C124.341 171.32 124.366 171.32 124.391 171.32C124.416 171.32 124.441 171.32 124.466 171.32V172C124.384 172 124.303 172 124.221 172C124.139 172 124.058 172 123.976 172ZM121.216 172.13C120.866 172.13 120.561 172.071 120.301 171.952C120.041 171.834 119.84 171.662 119.699 171.437C119.557 171.211 119.486 170.942 119.486 170.63C119.486 170.34 119.547 170.084 119.669 169.862C119.792 169.641 119.984 169.458 120.244 169.315C120.505 169.17 120.839 169.072 121.246 169.02L122.566 168.85C122.651 168.838 122.72 168.817 122.774 168.787C122.829 168.756 122.869 168.713 122.896 168.66C122.923 168.607 122.936 168.54 122.936 168.46L123.306 168.99C123.306 169.087 123.294 169.168 123.269 169.235C123.244 169.302 123.204 169.354 123.151 169.392C123.098 169.431 123.029 169.457 122.946 169.47L121.396 169.7C121.161 169.735 120.969 169.793 120.821 169.875C120.674 169.955 120.567 170.055 120.499 170.175C120.43 170.293 120.396 170.432 120.396 170.59C120.396 170.763 120.436 170.912 120.516 171.037C120.598 171.162 120.713 171.257 120.861 171.322C121.011 171.387 121.186 171.42 121.386 171.42C121.658 171.42 121.913 171.363 122.151 171.25C122.389 171.137 122.579 170.986 122.721 170.797C122.864 170.609 122.936 170.407 122.936 170.19H123.226V170.95C123.144 171.168 123.01 171.367 122.824 171.547C122.637 171.726 122.406 171.867 122.131 171.972C121.856 172.078 121.551 172.13 121.216 172.13ZM126.404 172L124.424 166.84H125.414L126.484 169.94C126.559 170.177 126.633 170.416 126.706 170.657C126.78 170.899 126.845 171.123 126.904 171.33H126.834C126.9 171.103 126.97 170.872 127.041 170.635C127.115 170.397 127.189 170.155 127.264 169.91L128.274 166.84H129.204L127.314 172H126.404ZM131.912 172.12C131.408 172.12 130.972 172.005 130.602 171.775C130.233 171.545 129.951 171.225 129.754 170.815C129.559 170.403 129.462 169.932 129.462 169.4C129.462 168.872 129.558 168.406 129.749 168.002C129.943 167.597 130.222 167.282 130.587 167.057C130.953 166.832 131.388 166.72 131.892 166.72C132.373 166.72 132.791 166.823 133.144 167.03C133.499 167.237 133.773 167.534 133.964 167.922C134.156 168.309 134.252 168.768 134.252 169.3C134.252 169.357 134.252 169.413 134.252 169.47C134.252 169.527 134.252 169.583 134.252 169.64H130.222V168.98H133.792L133.412 169.42C133.412 169.003 133.353 168.649 133.234 168.357C133.116 168.066 132.944 167.845 132.719 167.695C132.494 167.545 132.222 167.47 131.902 167.47C131.6 167.47 131.335 167.537 131.107 167.67C130.878 167.803 130.7 168.002 130.572 168.267C130.445 168.532 130.382 168.857 130.382 169.24V169.55C130.382 169.95 130.445 170.286 130.572 170.557C130.698 170.829 130.878 171.032 131.112 171.167C131.345 171.302 131.622 171.37 131.942 171.37C132.178 171.37 132.387 171.334 132.567 171.262C132.748 171.189 132.903 171.082 133.029 170.942C133.156 170.802 133.258 170.631 133.337 170.427L134.182 170.527C134.072 170.864 133.908 171.152 133.692 171.39C133.477 171.628 133.218 171.81 132.914 171.935C132.613 172.058 132.278 172.12 131.912 172.12ZM137.303 172.11C136.826 172.11 136.41 171.992 136.055 171.755C135.7 171.518 135.428 171.19 135.238 170.77C135.048 170.35 134.953 169.873 134.953 169.34C134.953 168.827 135.051 168.372 135.248 167.977C135.446 167.582 135.721 167.276 136.073 167.057C136.426 166.839 136.829 166.73 137.283 166.73C137.621 166.73 137.929 166.79 138.205 166.91C138.484 167.028 138.712 167.195 138.89 167.41C139.069 167.625 139.183 167.872 139.233 168.15V170.76C139.169 171.012 139.047 171.24 138.865 171.445C138.684 171.65 138.457 171.812 138.185 171.932C137.915 172.051 137.621 172.11 137.303 172.11ZM137.393 171.32C137.699 171.32 137.974 171.241 138.215 171.082C138.459 170.922 138.649 170.694 138.785 170.397C138.924 170.101 138.993 169.755 138.993 169.36C138.993 168.963 138.925 168.627 138.79 168.352C138.655 168.076 138.469 167.868 138.23 167.73C137.994 167.59 137.721 167.52 137.413 167.52C137.096 167.52 136.822 167.59 136.59 167.73C136.36 167.87 136.183 168.077 136.058 168.35C135.934 168.622 135.873 168.952 135.873 169.34C135.873 169.738 135.934 170.087 136.055 170.385C136.177 170.683 136.352 170.914 136.58 171.077C136.809 171.239 137.079 171.32 137.393 171.32ZM139.063 172V170.55H139.043V167.91H138.943V164.88H139.863V172H139.063Z" fill="#97A3B6"/>
</g>
<defs>
<clipPath id="clip0_4157_58602">
<path d="M0.49707 14C0.49707 6.26801 6.76508 0 14.4971 0H168.33C176.062 0 182.33 6.26801 182.33 14V237C182.33 244.732 176.062 251 168.33 251H14.4971C6.76508 251 0.49707 244.732 0.49707 237V14Z" fill="white"/>
</clipPath>
</defs>
</svg>
