<svg width="44" height="18" viewBox="0 0 44 18" fill="none" xmlns="http://www.w3.org/2000/svg">
<g clip-path="url(#clip0_1963_93108)">
<path d="M12.825 12.2509C12.774 12.4715 12.7268 12.6929 12.6712 12.9123C12.5972 13.204 12.5531 13.497 12.6021 13.7977C12.7972 14.9937 13.9462 15.3627 14.7517 15.1301C14.9597 15.07 15.1478 14.9412 15.3516 14.8408C15.5764 15.1471 15.8659 15.4228 16.2178 15.6247C17.2249 16.2026 18.2942 16.2833 19.3923 15.9651C20.4404 15.6615 21.2312 14.9894 21.8606 14.1195C22.6184 13.0721 22.9208 11.8798 22.944 10.604C22.9547 10.0133 22.8641 9.43888 22.6686 8.88018C22.5827 8.63487 22.5341 8.37458 22.4302 8.13794C22.2121 7.64131 21.8962 7.20777 21.4856 6.85035C20.5366 6.02429 19.4321 5.70259 18.1872 5.85225C18.0287 5.87132 17.8721 5.9061 17.7141 5.93368C17.7127 5.92024 17.7099 5.91243 17.7115 5.9056C17.8721 5.19919 18.0352 4.49332 18.1931 3.78629C18.2635 3.47097 18.3591 3.1617 18.3265 2.82769C18.2564 2.10969 17.8414 1.57738 17.1559 1.37015C16.6224 1.20884 16.1227 1.27565 15.6803 1.62968C15.3175 1.91996 15.11 2.30795 15.007 2.75579C14.7171 4.01719 14.4278 5.27872 14.1378 6.54009C13.7016 8.43756 13.2652 10.3349 12.825 12.2509ZM4.23917 15.3849C4.48037 15.5175 4.71312 15.6694 4.96436 15.7789C5.77804 16.1337 6.63092 16.2098 7.50626 16.1017C8.46473 15.9834 9.3154 15.6194 10.0199 14.9574C10.7354 14.2851 11.2753 13.5011 11.4547 12.508C11.5144 12.1779 11.6204 11.855 11.6641 11.5234C11.7245 11.0649 11.692 10.6033 11.6247 10.145C11.4108 8.68732 10.6944 7.52171 9.53514 6.6351C8.38181 5.75303 7.07197 5.56148 5.67774 5.87175C4.78902 6.06952 4.04635 6.52942 3.42764 7.19519C2.92503 7.73605 2.5365 8.34674 2.28471 9.04171C1.92379 10.0379 1.87944 11.0581 2.08465 12.0894C2.35895 13.4679 3.07763 14.5632 4.23917 15.3849ZM27.5029 9.62542C27.4312 9.30884 27.3601 8.99213 27.2879 8.67572C27.1449 8.05017 27.0112 7.42231 26.855 6.80013C26.7353 6.32445 26.4747 5.94522 26.0043 5.74758C25.7128 5.6251 25.406 5.59 25.0932 5.63102C24.5376 5.70392 24.0854 5.94837 23.8141 6.45642C23.6159 6.82756 23.5843 7.23376 23.6672 7.63754C23.7458 8.02109 23.86 8.39789 23.9696 8.7745C24.4629 10.4706 24.9586 12.166 25.4571 13.8606C25.5656 14.2295 25.6655 14.604 25.8118 14.9585C26.3264 16.2066 27.7801 16.2351 28.461 15.7192C28.7584 15.4938 28.9691 15.2044 29.1319 14.876C29.7437 13.6411 30.3538 12.4053 30.9638 11.1694C31.3836 10.3192 31.8056 9.47026 32.2191 8.61707C32.383 8.27923 32.459 7.91972 32.422 7.54021C32.37 7.00521 32.0924 6.6146 31.6429 6.34507C31.2265 6.09528 30.7667 6.0395 30.297 6.13415C29.7601 6.24231 29.4509 6.61737 29.2554 7.10031C28.829 8.15331 28.4065 9.20783 27.984 10.2624C27.912 10.4425 27.848 10.6259 27.7751 10.8223C27.6834 10.4169 27.596 10.0303 27.5029 9.62542ZM37.4574 13.3601C37.4358 12.964 37.4133 12.568 37.3925 12.172C37.3664 11.6777 37.343 11.1833 37.3155 10.6891C37.2742 9.94238 37.231 9.19571 37.1877 8.44907C37.1661 8.07587 37.1613 7.70045 37.1157 7.33011C37.0108 6.47935 36.3166 5.76652 35.3458 5.85236C34.4726 5.92955 33.8147 6.62034 33.8256 7.49637C33.8335 8.11926 33.8805 8.74169 33.9111 9.36426C33.9491 10.1302 33.9877 10.8962 34.0269 11.6621C34.0644 12.3941 34.1014 13.1261 34.1429 13.8578C34.1582 14.1288 34.1575 14.4051 34.2122 14.669C34.5039 16.0755 35.9163 16.3283 36.7915 15.7336C37.2646 15.4123 37.4799 14.9287 37.4974 14.3668C37.5073 14.0392 37.4737 13.7103 37.4574 13.3601ZM35.5229 2.17106C35.4967 2.16716 35.4706 2.16108 35.4445 2.15968C34.8211 2.12657 34.3057 2.34929 33.9 2.82127C33.6228 3.14377 33.4591 3.51347 33.4618 3.94635C33.4646 4.39111 33.6199 4.77863 33.8996 5.1209C34.5897 5.96551 35.6473 5.95268 36.2998 5.48865C36.8882 5.07032 37.1593 4.4858 37.0987 3.75476C37.0349 2.98307 36.3077 2.23972 35.5229 2.17106ZM39.0904 15.313C39.4096 15.766 39.8251 16.0544 40.3893 16.1302C41.3751 16.2625 42.3073 15.4795 42.3667 14.4757C42.4337 13.3443 41.4141 12.3922 40.2301 12.6327C39.0966 12.863 38.4187 14.1863 39.0904 15.313Z" fill="white"/>
<path d="M40.9308 17.4361C40.7183 17.4361 40.506 17.4361 40.279 17.4275C39.3854 17.3363 38.6968 16.9118 38.1612 16.2545C37.9732 16.4236 37.7959 16.6012 37.6004 16.7557C37.1318 17.1261 36.5829 17.2903 35.9951 17.3182C35.7501 17.3298 35.5004 17.3086 35.2565 17.2741C34.7098 17.1966 34.2412 16.9479 33.8378 16.5744C33.6233 16.3758 33.4426 16.1488 33.2954 15.896C33.0462 15.4672 32.9122 15.0022 32.8718 14.5097C32.852 14.2673 32.8393 14.0244 32.8262 13.7815C32.8094 13.4669 32.7962 13.1522 32.7801 12.8376C32.766 12.5683 32.7478 12.2992 32.7356 12.0299C32.7183 11.6547 32.7051 11.2795 32.689 10.9043C32.6861 10.8379 32.6763 10.7718 32.6697 10.7055C32.3773 11.2501 32.1105 11.7983 31.8415 12.3453C31.5246 12.9892 31.207 13.6327 30.8875 14.2753C30.6734 14.7062 30.4582 15.1366 30.2387 15.5648C30.0262 15.9793 29.7474 16.3405 29.3884 16.643C28.9142 17.0426 28.3684 17.267 27.7572 17.3177C27.4148 17.3461 27.0677 17.3358 26.7287 17.254C26.2692 17.1431 25.8494 16.9569 25.4821 16.6492C25.1377 16.3609 24.863 16.0194 24.6804 15.6156C24.5372 15.2988 24.4364 14.9618 24.3308 14.6293C24.2171 14.272 24.1208 13.9091 24.0148 13.5493C23.9662 13.385 23.9122 13.2223 23.8536 13.0367C23.6411 13.6883 23.3455 14.2703 22.9701 14.8112C22.631 15.2996 22.2324 15.7367 21.7776 16.1179C21.3252 16.497 20.8277 16.8081 20.2792 17.0337C19.8401 17.2143 19.388 17.3415 18.9149 17.3916C18.8214 17.4015 18.729 17.421 18.6361 17.4361C18.3557 17.4361 18.0752 17.4361 17.7797 17.4273C17.5297 17.3867 17.2928 17.3644 17.0598 17.3213C16.3711 17.1939 15.746 16.9177 15.1863 16.4953C15.1082 16.4363 15.0364 16.4034 14.924 16.4308C14.7415 16.4754 14.5498 16.5006 14.3618 16.5014C14.0162 16.5027 13.6764 16.4535 13.3425 16.3503C12.9288 16.2226 12.554 16.0296 12.245 15.7279C12.0414 15.5292 11.8628 15.3047 11.6682 15.0864C11.5901 15.1775 11.5053 15.2909 11.406 15.3897C11.1217 15.6725 10.8469 15.9678 10.5395 16.2236C10.1906 16.5138 9.7992 16.7493 9.37606 16.9211C9.10323 17.0319 8.82866 17.145 8.54521 17.2211C8.25036 17.3003 7.94396 17.3364 7.64251 17.3908C7.5536 17.4068 7.46438 17.4211 7.37531 17.4361C7.01158 17.4361 6.64785 17.4361 6.26923 17.4274C6.00431 17.3853 5.75039 17.3694 5.50504 17.3149C4.97889 17.1982 4.47531 17.0178 3.99799 16.7593C3.53117 16.5065 3.10977 16.195 2.72475 15.8345C2.53246 15.6544 2.3609 15.4516 2.18618 15.2536C1.90601 14.9361 1.67498 14.5835 1.47342 14.2122C1.25478 13.8094 1.08191 13.387 0.951865 12.9472C0.804419 12.4487 0.707278 11.9379 0.684842 11.4211C0.664846 10.9604 0.655604 10.497 0.71899 10.0347C0.773349 9.63827 0.851918 9.24922 0.968493 8.86754C1.11666 8.38241 1.32695 7.92496 1.58554 7.48845C1.85551 7.03268 2.17617 6.61569 2.54135 6.23398C2.70158 6.0665 2.88159 5.91777 3.05461 5.76273C3.37088 5.4793 3.7266 5.25043 4.10658 5.06767C4.41714 4.91832 4.74157 4.79191 5.06995 4.68698C5.5299 4.54004 6.00571 4.46076 6.49034 4.45057C6.69887 4.44616 6.90803 4.44096 7.11608 4.45209C7.36884 4.4656 7.62434 4.47652 7.87226 4.52286C8.50191 4.64053 9.10396 4.84209 9.66455 5.16059C10.119 5.41882 10.5321 5.73165 10.9086 6.09138C11.0898 6.26454 11.2527 6.45726 11.4199 6.64479C11.779 7.04789 12.0655 7.49971 12.3061 7.98168C12.3401 8.04988 12.3722 8.1191 12.4064 8.19041C12.4204 8.17772 12.4298 8.17345 12.4311 8.16746C12.5043 7.81721 12.5725 7.46584 12.6508 7.11675C12.7182 6.81618 12.8001 6.51893 12.8701 6.2189C13.0241 5.55906 13.174 4.89825 13.3266 4.23811C13.461 3.657 13.5959 3.076 13.7325 2.49538C13.8984 1.79006 14.2119 1.17153 14.7738 0.692323C15.0646 0.444296 15.381 0.247445 15.7472 0.136964C15.9211 0.0845032 16.0989 0.0452415 16.275 2.09144e-10C16.5176 -4.51974e-08 16.7603 -4.73627e-08 17.0174 0.00850471C17.0657 0.0191988 17.1005 0.0170148 17.1332 0.0242521C17.4685 0.098448 17.7956 0.19178 18.1017 0.356569C18.611 0.63077 19.0002 1.02054 19.2723 1.52803C19.4664 1.89001 19.5785 2.27437 19.618 2.68661C19.6462 2.98119 19.635 3.26961 19.5802 3.55572C19.5179 3.88065 19.4347 4.20156 19.3566 4.54149C20.5885 4.70196 21.6624 5.1901 22.5544 6.05832C22.5672 6.03217 22.5774 6.01237 22.5867 5.99223C22.8628 5.39698 23.2975 4.95124 23.8797 4.6566C24.4169 4.38484 24.9865 4.27053 25.5922 4.33274C25.8851 4.3628 26.1693 4.41515 26.4438 4.51909C26.9385 4.70641 27.3292 5.02807 27.641 5.45121C27.8609 5.74979 28.0056 6.08436 28.1125 6.44444C28.3221 6.0417 28.5672 5.68061 28.9162 5.3925C29.3932 4.99892 29.9444 4.81866 30.5506 4.79407C30.7545 4.78578 30.9604 4.81723 31.165 4.83632C31.5069 4.86824 31.8274 4.9749 32.133 5.12847C32.2422 5.18329 32.3476 5.24539 32.4738 5.31459C32.4575 5.27106 32.4504 5.24716 32.44 5.22484C32.2897 4.90418 32.1964 4.56486 32.1716 4.21452C32.141 3.7776 32.1841 3.34776 32.3446 2.92993C32.6273 2.19472 33.1143 1.63915 33.789 1.24954C34.4317 0.878362 35.1278 0.789724 35.8564 0.906751C36.4244 0.998004 36.9146 1.25174 37.3416 1.62535C37.6799 1.92149 37.956 2.2684 38.1426 2.68609C38.3851 3.22813 38.462 3.79188 38.3837 4.37338C38.3199 4.84526 38.1651 5.29011 37.8922 5.68819C37.874 5.7146 37.8785 5.77292 37.8953 5.80405C37.9671 5.93688 38.0559 6.06087 38.1233 6.19575C38.3521 6.65483 38.4248 7.15124 38.4559 7.65613C38.4722 7.92149 38.4868 8.18694 38.5013 8.45238C38.5244 8.87886 38.5467 9.30539 38.5696 9.73187C38.5844 10.0011 38.6016 10.2702 38.6146 10.5395C38.6314 10.8956 38.6441 11.2519 38.6611 11.6081C38.6666 11.7181 38.6806 11.8277 38.6911 11.9421C38.7086 11.9364 38.7204 11.9356 38.7279 11.9295C39.1808 11.5622 39.7066 11.3646 40.2794 11.312C40.6172 11.281 40.9598 11.2945 41.2967 11.3728C41.7896 11.4874 42.2267 11.7121 42.604 12.0427C42.8735 12.2789 43.1057 12.5492 43.2835 12.869C43.4903 13.241 43.615 13.6352 43.6499 14.0533C43.6708 14.3027 43.664 14.5601 43.6261 14.8073C43.5857 15.0705 43.5198 15.3365 43.4193 15.5825C43.2277 16.0508 42.9198 16.4403 42.5259 16.763C42.1854 17.042 41.8021 17.2314 41.3796 17.344C41.2323 17.3833 41.0806 17.4059 40.9308 17.4361ZM12.825 12.2509C12.774 12.4715 12.7268 12.6929 12.6712 12.9123C12.5972 13.204 12.5531 13.497 12.6021 13.7977C12.7972 14.9937 13.9462 15.3627 14.7517 15.1301C14.9597 15.07 15.1478 14.9412 15.3516 14.8408C15.5764 15.1471 15.8659 15.4228 16.2178 15.6247C17.2249 16.2026 18.2942 16.2833 19.3923 15.9651C20.4404 15.6615 21.2312 14.9894 21.8606 14.1195C22.6184 13.0721 22.9208 11.8798 22.944 10.604C22.9547 10.0133 22.8641 9.43889 22.6686 8.88018C22.5827 8.63487 22.5341 8.37458 22.4302 8.13794C22.2121 7.64131 21.8962 7.20777 21.4856 6.85035C20.5366 6.02429 19.4321 5.70259 18.1872 5.85225C18.0287 5.87132 17.8721 5.9061 17.7141 5.93368C17.7127 5.92024 17.7099 5.91243 17.7115 5.9056C17.8721 5.19919 18.0352 4.49332 18.1931 3.78629C18.2635 3.47097 18.3591 3.1617 18.3265 2.82769C18.2564 2.10969 17.8414 1.57738 17.1559 1.37015C16.6224 1.20884 16.1227 1.27565 15.6803 1.62968C15.3175 1.91996 15.11 2.30795 15.007 2.75579C14.7171 4.01719 14.4278 5.27872 14.1378 6.54009C13.7016 8.43756 13.2652 10.3349 12.825 12.2509ZM4.23917 15.3849C4.48037 15.5175 4.71312 15.6694 4.96436 15.7789C5.77804 16.1337 6.63092 16.2098 7.50626 16.1017C8.46473 15.9834 9.3154 15.6194 10.0199 14.9574C10.7354 14.2851 11.2753 13.5011 11.4547 12.508C11.5144 12.1779 11.6204 11.855 11.6641 11.5234C11.7245 11.0649 11.692 10.6033 11.6247 10.145C11.4108 8.68732 10.6944 7.52171 9.53514 6.6351C8.38181 5.75303 7.07197 5.56148 5.67774 5.87175C4.78902 6.06952 4.04635 6.52942 3.42764 7.19519C2.92503 7.73605 2.5365 8.34675 2.28471 9.04171C1.92379 10.0379 1.87944 11.0581 2.08465 12.0894C2.35895 13.4679 3.07763 14.5632 4.23917 15.3849ZM27.5029 9.62542C27.4312 9.30884 27.3601 8.99213 27.2879 8.67572C27.1449 8.05017 27.0112 7.42231 26.855 6.80013C26.7353 6.32445 26.4747 5.94522 26.0043 5.74758C25.7128 5.6251 25.406 5.59 25.0932 5.63102C24.5376 5.70392 24.0854 5.94837 23.8141 6.45642C23.6159 6.82756 23.5843 7.23376 23.6672 7.63754C23.7458 8.02109 23.86 8.39789 23.9696 8.7745C24.4629 10.4706 24.9586 12.166 25.4571 13.8606C25.5656 14.2295 25.6655 14.604 25.8118 14.9585C26.3264 16.2066 27.7801 16.2351 28.461 15.7192C28.7584 15.4938 28.9691 15.2044 29.1319 14.876C29.7437 13.6411 30.3538 12.4052 30.9638 11.1694C31.3836 10.3192 31.8056 9.47026 32.2191 8.61707C32.383 8.27923 32.459 7.91972 32.422 7.54021C32.37 7.00521 32.0924 6.6146 31.6429 6.34507C31.2265 6.09528 30.7667 6.0395 30.297 6.13415C29.7601 6.24231 29.4509 6.61737 29.2554 7.10031C28.829 8.15331 28.4065 9.20783 27.984 10.2624C27.912 10.4425 27.848 10.6259 27.7751 10.8223C27.6834 10.4169 27.596 10.0303 27.5029 9.62542ZM37.4574 13.3601C37.4358 12.964 37.4133 12.568 37.3925 12.172C37.3664 11.6777 37.343 11.1833 37.3155 10.6891C37.2742 9.94238 37.231 9.19571 37.1877 8.44907C37.1661 8.07587 37.1613 7.70045 37.1157 7.33011C37.0108 6.47936 36.3166 5.76652 35.3458 5.85236C34.4726 5.92955 33.8147 6.62034 33.8256 7.49637C33.8335 8.11926 33.8805 8.74169 33.9111 9.36426C33.9491 10.1302 33.9877 10.8962 34.0269 11.6621C34.0644 12.3941 34.1014 13.1261 34.1429 13.8578C34.1582 14.1288 34.1575 14.4051 34.2122 14.669C34.5039 16.0755 35.9163 16.3283 36.7915 15.7336C37.2646 15.4123 37.4799 14.9287 37.4974 14.3668C37.5073 14.0392 37.4737 13.7103 37.4574 13.3601ZM35.5229 2.17106C35.4967 2.16716 35.4706 2.16108 35.4445 2.15968C34.8211 2.12657 34.3057 2.34929 33.9 2.82127C33.6228 3.14377 33.4591 3.51347 33.4618 3.94635C33.4646 4.39111 33.6199 4.77863 33.8996 5.1209C34.5897 5.96551 35.6473 5.95268 36.2998 5.48865C36.8882 5.07032 37.1593 4.4858 37.0987 3.75476C37.0349 2.98307 36.3077 2.23972 35.5229 2.17106ZM39.0904 15.313C39.4096 15.766 39.8251 16.0544 40.3893 16.1302C41.3751 16.2625 42.3073 15.4795 42.3667 14.4757C42.4337 13.3443 41.4141 12.3921 40.2301 12.6327C39.0966 12.863 38.4187 14.1863 39.0904 15.313Z" fill="black"/>
<path d="M41.3851 3.01719C41.3847 3.00428 41.3842 3.00053 41.3838 2.99676C41.3767 3.00271 41.3656 3.00727 41.3629 3.01483C41.2823 3.23469 41.2026 3.45484 41.1227 3.6747C41.0673 3.6747 41.0148 3.6747 40.9558 3.6747C40.8773 3.45932 40.7989 3.24457 40.7208 3.02982C40.7143 3.03159 40.7077 3.03338 40.7011 3.03517C40.7011 3.24582 40.7011 3.45646 40.7011 3.67248C40.6362 3.67248 40.5769 3.67248 40.5088 3.67248C40.5088 3.34135 40.5088 3.00723 40.5088 2.6568C40.581 2.6568 40.6595 2.64915 40.7354 2.66059C40.7653 2.66511 40.8019 2.7075 40.8135 2.74042C40.8891 2.95113 40.9583 3.16399 41.0389 3.40351C41.0743 3.31188 41.1034 3.24218 41.1284 3.17105C41.1624 3.07395 41.194 2.97592 41.2258 2.878C41.3023 2.64207 41.302 2.642 41.56 2.6632C41.56 2.99674 41.56 3.33095 41.56 3.67159C41.5052 3.67159 41.451 3.67159 41.3854 3.67159C41.3854 3.45509 41.3854 3.24071 41.3851 3.01719Z" fill="black"/>
<path d="M40.292 2.65625C40.3358 2.65795 40.3688 2.65968 40.4049 2.66154C40.4049 2.71253 40.4049 2.75673 40.4049 2.81159C40.3041 2.81159 40.2039 2.81159 40.0936 2.81159C40.0936 3.10305 40.0936 3.38421 40.0936 3.67154C40.0214 3.67154 39.9597 3.67154 39.8872 3.67154C39.8872 3.38807 39.8872 3.10686 39.8872 2.8151C39.7773 2.8151 39.6772 2.8151 39.5732 2.8151C39.5732 2.76016 39.5732 2.71596 39.5732 2.65625C39.8082 2.65625 40.0446 2.65625 40.292 2.65625Z" fill="black"/>
<path d="M16.6409 11.8478C16.5055 11.2735 16.5704 10.7214 16.747 10.1767C16.879 9.76956 17.0904 9.41289 17.4227 9.13602C18.0967 8.57448 19.2693 8.82124 19.5147 9.79287C19.7806 10.846 19.5688 11.7966 18.7926 12.5818C18.3718 13.0075 17.6796 13.0607 17.2078 12.7325C16.9013 12.5192 16.7377 12.209 16.6409 11.8478Z" fill="black"/>
<path d="M7.85078 12.5768C7.25986 13.2201 6.28273 13.1421 5.76712 12.4206C5.47901 12.0174 5.34561 11.5633 5.31334 11.0759C5.27906 10.5575 5.35662 10.063 5.6051 9.59597C6.08923 8.686 7.36431 8.60206 7.93755 9.53301C8.28441 10.0964 8.3912 10.7095 8.33638 11.3583C8.303 11.753 8.18399 12.1195 7.9533 12.4454C7.92279 12.4885 7.88821 12.5287 7.85078 12.5768Z" fill="black"/>
</g>
<defs>
<clipPath id="clip0_1963_93108">
<rect width="43" height="17.4361" fill="white" transform="translate(0.669922)"/>
</clipPath>
</defs>
</svg>
