<svg width="166" height="66" viewBox="0 0 166 66" fill="none" xmlns="http://www.w3.org/2000/svg">
<g clip-path="url(#clip0_13581_215759)">
<path fill-rule="evenodd" clip-rule="evenodd" d="M85.7008 24.3013V23.9995H89.8202V24.3013H85.7008ZM83.3971 29.2131C83.3971 26.5103 83.3103 25.5361 82.0662 25.5361V25.3989H92.4239V27.2511H92.2791V27.1962C92.2791 26.277 90.3697 25.5361 87.0425 25.5361H84.6412V31.4357C85.0751 31.0378 85.6538 30.8046 86.3192 30.8046C87.0564 30.8046 87.6249 31.0299 88.1766 31.2487C88.6969 31.4549 89.2022 31.6552 89.82 31.6552C90.3697 31.6552 90.8903 31.3534 90.8903 30.8732H91.0351C91.0351 31.6826 90.3263 32.3824 89.1835 32.3824C88.172 32.3824 87.498 31.9948 86.9134 31.6588C86.478 31.4085 86.0923 31.1867 85.6538 31.175C85.2343 31.1613 84.8726 31.3671 84.6412 31.6552V38.9816H86.4928C87.8671 38.9816 92.2791 38.8307 92.2791 36.855H92.4239V39.1188H82.0662V38.9816C83.3103 38.9816 83.3971 38.0075 83.3971 35.3047V29.2131ZM58 25.4365V25.5735C59.2417 25.5735 59.3284 26.5461 59.3284 29.2448V35.3272C59.3284 38.0259 59.2417 38.9985 58 38.9985V39.1355H59.7326C60.5162 39.1355 61.1627 39.2022 61.8178 39.2698C62.4906 39.3392 63.1724 39.4095 64.0209 39.4095C67.0964 39.4095 68.8146 37.8204 68.8146 35.4505C68.8146 33.3682 67.0097 32.0257 64.8006 32.0257C63.9663 32.0257 63.268 32.3285 62.7121 32.5695C62.3443 32.7289 62.0388 32.8614 61.7974 32.8614C61.6241 32.8614 61.3786 32.8203 61.3786 32.5052C61.3786 31.905 62.3955 31.5844 63.6264 31.1963C65.514 30.6011 67.9049 29.8473 67.9049 27.6831C67.9049 25.7653 66.0424 25.1625 64.0065 25.1625C63.3712 25.1625 62.6059 25.231 61.8407 25.2995C61.0754 25.368 60.3102 25.4365 59.6749 25.4365H58ZM60.5556 25.7379C61.3931 25.4913 62.2305 25.3543 63.169 25.3543C64.9306 25.3543 66.6632 26.0119 66.6632 27.7105C66.6632 29.2433 64.9974 30.007 63.5113 30.6882C62.3145 31.2369 61.2343 31.7321 61.2343 32.5326C61.2343 32.8614 61.4797 32.9984 61.7396 32.9984C62.128 32.9984 62.5435 32.8275 62.9955 32.6416C63.5349 32.4197 64.1263 32.1764 64.7862 32.1764C66.591 32.1764 67.5729 33.9025 67.5729 35.5464C67.5729 37.8204 65.8835 39.2177 63.1979 39.2177C62.1295 39.2177 61.4364 39.0807 60.5556 38.7794V25.7379ZM73.3093 39.1188H69.4238V38.9819C70.666 38.9819 70.7527 38.0105 70.7527 35.315V29.2399C70.7527 26.5445 70.666 25.573 69.4238 25.573V25.4362H71.1571C71.941 25.4362 72.5877 25.3696 73.2431 25.3021C73.9161 25.2328 74.5981 25.1625 75.447 25.1625C78.5235 25.1625 80.2424 26.7771 80.2424 29.0073C80.2424 30.8818 78.6246 32.5785 76.1114 32.5785C75.2976 32.5785 74.6395 32.2639 74.1122 32.0119C73.7597 31.8434 73.4657 31.7028 73.2226 31.7028C73.0493 31.7028 72.8037 31.7438 72.8037 32.0586C72.8037 32.4658 73.4428 32.7268 74.248 33.0555C75.2012 33.4447 76.3871 33.9289 77.0214 34.8635C77.1729 35.087 77.328 35.3237 77.4869 35.5663C78.5245 37.1503 79.7244 38.9819 81.1523 38.9819V39.1188H78.9424C78.4246 39.1188 78.0647 38.5952 76.8506 36.8288C76.507 36.3289 76.0948 35.7294 75.5914 35.014C74.8705 33.9861 74.1152 33.4726 73.5518 33.0896C73.0201 32.7282 72.6593 32.4829 72.6593 32.0312C72.6593 31.7028 72.9048 31.566 73.1648 31.566C73.5427 31.566 73.8836 31.7193 74.2631 31.89C74.7396 32.1042 75.277 32.3459 76.0247 32.3459C77.8302 32.3459 79.0002 30.6629 79.0002 29.021C79.0002 26.7497 77.3103 25.3541 74.6237 25.3541C73.5548 25.3541 72.8615 25.4909 71.9804 25.7919V35.315C71.9804 38.0105 72.0671 38.9819 73.3093 38.9819V39.1188ZM103.611 36.8639V39.1187H93.49L102.515 25.5899H98.4061C95.9267 25.5899 94.1388 26.3278 94.1388 27.2434V27.2981H93.9947V25.4532H104L94.9749 38.9821H97.0365C98.4061 38.9821 103.466 38.8318 103.466 36.8639H103.611Z" fill="white"/>
</g>
<defs>
<clipPath id="clip0_13581_215759">
<rect width="50" height="17.9577" fill="white" transform="translate(58 24)"/>
</clipPath>
</defs>
</svg>
