<svg width="166" height="66" viewBox="0 0 166 66" fill="none" xmlns="http://www.w3.org/2000/svg">
<g clip-path="url(#clip0_13581_216463)">
<path d="M88.0193 21.2334C81.5365 21.2334 76.2628 26.6161 76.2628 33.2323C76.2628 39.8486 81.5345 45.2313 88.0193 45.2313C94.5041 45.2313 99.7778 39.8465 99.7778 33.2323C99.7778 26.6182 94.5041 21.2334 88.0193 21.2334ZM88.0193 42.3918C83.0672 42.3918 79.035 38.2807 79.035 33.226C79.035 28.1712 83.0651 24.058 88.0193 24.058C92.9734 24.058 97.0035 28.1755 97.0035 33.2323C97.0035 38.2892 92.9734 42.3982 88.0193 42.3982V42.3918ZM70.5678 21.2334H67.6979V45.2292H70.5678V21.2334ZM50.8244 21.2334H53.6964V45.2292H50.8407L50.8244 21.2334ZM56.5704 31.7639H64.8178V34.6944H56.5805L56.5704 31.7639ZM134.394 21.2376H137.266V45.2313H134.394V21.2355V21.2376ZM140.136 21.2376H143.979C148.401 21.2376 152 24.9065 152 29.4196C152 33.9327 148.401 37.6016 143.979 37.6016H140.138V34.7536H143.981C144.663 34.7678 145.342 34.6402 145.976 34.3784C146.611 34.1167 147.189 33.726 147.676 33.2291C148.164 32.7323 148.551 32.1394 148.815 31.4851C149.08 30.8308 149.216 30.1282 149.216 29.4185C149.216 28.7088 149.08 28.0063 148.815 27.352C148.551 26.6976 148.164 26.1047 147.676 25.6079C147.189 25.1111 146.611 24.7204 145.976 24.4586C145.342 24.1969 144.663 24.0693 143.981 24.0834H140.138L140.136 21.2376ZM104.822 33.2323C104.822 26.614 110.093 21.2334 116.578 21.2334C123.063 21.2334 128.336 26.6161 128.336 33.2323C128.336 39.8486 123.063 45.2292 116.584 45.2292C110.105 45.2292 104.822 39.8465 104.822 33.2323ZM107.594 33.2323C107.594 38.2871 111.622 42.3982 116.578 42.3982C121.534 42.3982 125.56 38.2871 125.56 33.2323C125.56 28.1776 121.53 24.0644 116.584 24.0644C111.638 24.0644 107.594 28.1755 107.594 33.2323ZM35.4673 45.2313H38.2579L45.4123 21.2334H42.6218L36.8616 40.5532L33.8085 30.3019H31.018L35.4694 45.2313H35.4673ZM14 21.2334L18.4514 36.1607H21.2379L16.7905 21.2334H14ZM21.1544 45.2313L28.3109 21.2334H31.0973L23.945 45.2313H21.1544Z" fill="white"/>
</g>
<defs>
<clipPath id="clip0_13581_216463">
<rect width="138" height="24" fill="white" transform="translate(14 21.2334)"/>
</clipPath>
</defs>
</svg>
