<svg width="166" height="66" viewBox="0 0 166 66" fill="none" xmlns="http://www.w3.org/2000/svg">
<g clip-path="url(#clip0_13581_216451)">
<mask id="mask0_13581_216451" style="mask-type:luminance" maskUnits="userSpaceOnUse" x="29" y="13" width="108" height="40">
<path d="M137 13H29V53H137V13Z" fill="white"/>
</mask>
<g mask="url(#mask0_13581_216451)">
<path d="M110.787 33.395V42.1934H114.354V33.9361C114.354 30.2555 119.313 30.2555 119.313 30.2555V26.6787C119.313 26.6787 117.929 26.7438 116.834 26.9934C113.731 27.6958 110.787 29.2462 110.787 33.4027V33.395Z" fill="white"/>
<path d="M83.8695 26.493C85.2613 26.493 86.9973 27.2837 87.9406 28.6807C88.9161 27.414 90.5323 26.5489 92.5233 26.5178C95.0505 26.4853 98.1783 28.076 98.1783 32.8388V42.1706H94.6111V32.8388C94.6111 31.2481 93.4758 30.1101 91.772 30.1101C90.0683 30.1101 88.9315 31.2481 88.9315 32.8388V42.1706H85.3643V32.8388C85.3643 31.2481 84.2289 30.1101 82.5252 30.1101C80.8215 30.1101 79.6539 31.2481 79.6539 32.8388V42.1706H75.9023V26.9535H79.6539V28.4791C80.6694 27.2434 82.1488 26.4775 83.8848 26.4775L83.8695 26.493Z" fill="white"/>
<path d="M106.396 27.1548V42.1858H102.765V27.1548H106.396Z" fill="white"/>
<path d="M104.571 24.766C105.691 24.766 106.594 23.8543 106.594 22.7319C106.594 21.6094 105.691 20.6978 104.571 20.6978C103.451 20.6978 102.548 21.6094 102.548 22.7319C102.548 23.8543 103.451 24.766 104.571 24.766Z" fill="white"/>
<path d="M129.008 26.4619C124.608 26.4619 121.049 30.0387 121.049 34.4542C121.049 38.8697 124.616 42.4464 129.008 42.4464C133.4 42.4464 136.968 38.8697 136.968 34.4542C136.968 30.0387 133.4 26.4619 129.008 26.4619ZM129.008 38.8526C126.521 38.8526 124.505 36.8263 124.505 34.324C124.505 31.8216 126.521 29.7953 129.008 29.7953C131.495 29.7953 133.513 31.8216 133.513 34.324C133.513 36.8263 131.497 38.8526 129.008 38.8526Z" fill="white"/>
<path d="M58.6412 13.1084C64.0811 13.1084 68.4964 17.5643 68.4964 23.0542V42.9441C68.4964 48.434 64.0811 52.8898 58.6412 52.8898H38.9307C33.4924 52.8914 29.0772 48.434 29.0771 42.9456V23.0542C29.0771 17.5658 33.4924 13.1084 38.9307 13.1084H58.6412ZM40.9801 28.9239L37.4053 45.3751H40.9801L47.835 27.7534L44.5551 45.3751H48.13L54.6899 26.5735L51.7065 45.3751H55.2814L61.8412 24.8138L55.2814 20.7053V20.6976H51.7065L54.6899 25.9843L48.13 20.6976H44.5551L47.835 27.1549L40.9801 20.6976H37.4053L40.9801 28.9239Z" fill="white"/>
</g>
</g>
<defs>
<clipPath id="clip0_13581_216451">
<rect width="108" height="40" fill="white" transform="translate(29 13)"/>
</clipPath>
</defs>
</svg>
