<svg width="166" height="66" viewBox="0 0 166 66" fill="none" xmlns="http://www.w3.org/2000/svg">
<g clip-path="url(#clip0_13581_216589)">
<path d="M24.4069 28.6085L17.5506 28.3003C17.3585 28.8006 17.2066 29.3232 17.0994 29.8592H24.4069V28.6085ZM37.052 31.8737C37.052 26.3082 32.5407 21.7969 26.9752 21.7969C23.1875 21.7969 19.8866 23.8917 18.167 26.9827L24.4114 27.2641V26.6253C24.4114 26.2546 24.7106 25.9509 25.0858 25.9509C25.461 25.9509 25.7603 26.2501 25.7603 26.6253V27.3266L27.0422 27.3847V26.6253C27.0422 26.2546 27.3415 25.9509 27.7122 25.9509C28.083 25.9509 28.3867 26.2501 28.3867 26.6253V27.4427L29.7267 27.5053V26.6253C29.7267 26.2546 30.026 25.9509 30.3967 25.9509C30.7674 25.9509 31.0712 26.2501 31.0712 26.6253V27.5633L32.9516 27.6482C33.3224 27.6661 33.6082 27.9787 33.5948 28.3495C33.577 28.7113 33.2822 28.9927 32.9248 28.9927C32.9159 28.9927 32.9025 28.9927 32.8936 28.9927L31.0712 28.9123V29.8637H32.9338C33.3045 29.8637 33.6082 30.1629 33.6082 30.5381C33.6082 30.9133 33.309 31.2126 32.9338 31.2126H31.0712V38.2878C31.0712 38.6585 30.7719 38.9623 30.3967 38.9623C30.0215 38.9623 29.7267 38.663 29.7267 38.2878V31.2126H28.3867V38.2878C28.3867 38.6585 28.0874 38.9623 27.7122 38.9623C27.337 38.9623 27.0422 38.663 27.0422 38.2878V31.2126H25.7603V38.2878C25.7603 38.6585 25.461 38.9623 25.0858 38.9623C24.7106 38.9623 24.4114 38.663 24.4114 38.2878V31.2126H16.9252C16.9118 31.4359 16.8984 31.6593 16.8984 31.8826C16.8984 37.4481 21.4098 41.9594 26.9752 41.9594C32.5407 41.9594 37.052 37.4481 37.052 31.8826M27.0333 28.7381L25.7514 28.68V29.8681H27.0333V28.7381ZM29.7178 28.8587L28.3778 28.8006V29.8726H29.7178V28.8631V28.8587Z" fill="white"/>
<path d="M145.217 37.4382C146.356 37.4382 147.37 36.7905 147.767 35.9954H147.798C147.798 36.317 147.83 36.8396 147.861 37.2238H149.782C149.75 36.7012 149.737 35.9776 149.737 35.5309V29.1793H147.709V33.436C147.709 34.852 146.954 35.7587 145.847 35.7587C144.587 35.7587 144.265 34.7894 144.265 33.5745V29.1793H142.237V34.1462C142.237 35.8972 143.113 37.4382 145.221 37.4382M134.398 37.2238V32.9492C134.398 31.5332 135.167 30.6265 136.243 30.6265C137.521 30.6265 137.856 31.5958 137.856 32.7928V37.2193H139.87V32.239C139.87 30.5014 139.008 28.9649 136.886 28.9649C135.765 28.9649 134.751 29.5947 134.349 30.4121H134.305C134.305 30.0905 134.273 29.5679 134.242 29.1838H132.321C132.353 29.7064 132.366 30.4121 132.366 30.8454V37.2238H134.394H134.398ZM124.174 32.4132C124.268 31.3367 125.175 30.4166 126.434 30.4166C127.694 30.4166 128.418 31.292 128.449 32.4132H124.174ZM126.497 37.4694C128.02 37.4694 129.235 36.9022 130.061 35.7632L128.645 34.7805C128.23 35.379 127.506 35.8704 126.524 35.8704C125.278 35.8704 124.232 34.9458 124.188 33.7487H130.352C130.37 33.5656 130.37 33.3646 130.37 33.1636C130.37 30.6131 128.833 28.9336 126.417 28.9336C124 28.9336 122.191 30.6712 122.191 33.2082C122.191 35.7453 124.08 37.465 126.497 37.465M117.26 28.9649C116.107 28.9649 115.107 29.5322 114.598 30.5014C114.106 29.425 113.2 28.9649 112.137 28.9649C110.94 28.9649 110.033 29.626 109.631 30.4121H109.586C109.586 30.0905 109.555 29.5679 109.524 29.1838H107.603C107.634 29.7198 107.648 30.4434 107.648 30.9034V37.2238H109.675V32.9492C109.675 31.5198 110.444 30.6265 111.444 30.6265C112.534 30.6265 112.905 31.4126 112.905 32.5472V37.2193H114.919V32.9C114.919 31.761 115.442 30.6265 116.67 30.6265C117.899 30.6265 118.207 31.5958 118.207 32.7928V37.2193H120.235V32.239C120.235 30.5461 119.359 28.9649 117.251 28.9649M97.7093 35.7587C96.1549 35.7587 95.3419 34.5304 95.3419 33.177C95.3419 31.8236 96.1549 30.6086 97.7093 30.6086C99.1699 30.6086 100.139 31.837 100.139 33.1904C100.139 34.5438 99.1699 35.7587 97.7093 35.7587ZM97.3073 37.4337C98.3971 37.4337 99.5227 36.9424 100.103 36.0356H100.135V37.2193H102.024V24.6769H100.027V30.2558H99.9828C99.4423 29.5322 98.4775 28.9649 97.2939 28.9649C94.8819 28.9649 93.3275 30.8722 93.3275 33.177C93.3275 35.4818 94.8327 37.4337 97.3073 37.4337ZM85.8994 37.2193V32.9447C85.8994 31.5288 86.6677 30.622 87.7441 30.622C89.0216 30.622 89.3566 31.5913 89.3566 32.7884V37.2148H91.3711V32.2345C91.3711 30.497 90.509 28.9604 88.3873 28.9604C87.2662 28.9604 86.2523 29.5902 85.8503 30.4076H85.8056C85.8056 30.086 85.7743 29.5634 85.7431 29.1793H83.8224C83.8537 29.7019 83.8671 30.4076 83.8671 30.8409V37.2193H85.8949H85.8994ZM77.444 35.7587C75.9387 35.7587 75.0633 34.5304 75.0633 33.177C75.0633 31.8236 75.9387 30.6086 77.444 30.6086C78.9493 30.6086 79.8292 31.837 79.8292 33.177C79.8292 34.517 78.985 35.7587 77.444 35.7587ZM77.444 37.465C79.9051 37.465 81.8392 35.7274 81.8392 33.177C81.8392 30.6265 79.9007 28.9336 77.444 28.9336C74.9873 28.9336 73.0622 30.6399 73.0622 33.177C73.0622 35.714 75.0007 37.465 77.444 37.465ZM68.064 35.0351H68.0327L65.8173 29.1793H63.575L66.9875 37.1434L66.5721 38.2332C66.2639 39.0149 65.9245 39.4794 65.1249 39.4794C64.848 39.4794 64.5398 39.4035 64.2807 39.3276L64.0663 41.0651C64.4371 41.141 64.8971 41.2036 65.3259 41.2036C67.0635 41.2036 67.8317 40.2968 68.4169 38.8228L72.2001 29.1838H70.0472L68.064 35.0396V35.0351ZM56.5355 32.4042C56.6293 31.3278 57.5361 30.4076 58.7957 30.4076C60.0553 30.4076 60.7789 31.2831 60.8101 32.4042H56.5355ZM58.8582 37.4605C60.3813 37.4605 61.5963 36.8932 62.4271 35.7542L61.0111 34.7716C60.5957 35.3701 59.8721 35.8614 58.8895 35.8614C57.6433 35.8614 56.5981 34.9368 56.5534 33.7398H62.7174C62.7308 33.5566 62.7308 33.3556 62.7308 33.1546C62.7308 30.6042 61.1943 28.9247 58.7778 28.9247C56.3613 28.9247 54.5479 30.6622 54.5479 33.1993C54.5479 35.7364 56.4373 37.456 58.8537 37.456M48.6161 35.7498C47.1689 35.7498 46.2041 34.5527 46.2041 33.1814C46.2041 31.8102 47.1734 30.5997 48.6161 30.5997C50.1705 30.5997 50.9969 31.828 50.9969 33.168C50.9969 34.508 50.1661 35.7498 48.6161 35.7498ZM49.0315 37.4248C51.4927 37.4248 52.9979 35.4728 52.9979 33.168C52.9979 30.8632 51.4435 28.956 49.0628 28.956C47.8657 28.956 46.8786 29.5232 46.356 30.2468H46.3113V24.668H44.2969V37.2148H46.2041V36.0312H46.2354C46.8205 36.9379 47.9283 37.4292 49.0315 37.4292" fill="white"/>
</g>
<defs>
<clipPath id="clip0_13581_216589">
<rect width="134" height="40.2" fill="white" transform="translate(16 13)"/>
</clipPath>
</defs>
</svg>
