<svg width="166" height="66" viewBox="0 0 166 66" fill="none" xmlns="http://www.w3.org/2000/svg">
<g clip-path="url(#clip0_13581_216666)">
<path d="M92.4042 14C88.9936 14 85.6431 14.61 82.7049 15.7526C79.7668 14.6014 76.4163 14 73.0056 14C62.2238 14 53.4609 19.988 53.4609 27.3591C53.4609 34.7302 62.2324 40.7182 73.0056 40.7182C76.4163 40.7182 79.7668 40.1082 82.7049 38.9656C85.6431 40.1168 88.9936 40.7182 92.4042 40.7182C103.186 40.7182 111.949 34.7302 111.949 27.3591C111.949 19.988 103.177 14 92.4042 14ZM104.75 26.8351C104.681 24.9708 104.243 23.1924 103.435 21.543H108.289C109.646 23.1151 110.445 24.9794 110.557 26.8265H104.75V26.8351ZM107.413 34.0601C105.222 36.1821 101.975 37.823 98.3321 38.6735C99.3372 38.0893 100.265 37.3677 101.081 36.5258C101.794 35.7869 102.421 34.9622 102.945 34.0773H107.413V34.0601ZM97.2754 34.0773C97.0348 34.7646 96.7599 35.3918 96.4592 35.9588C95.3338 38.0034 94.1139 39.0773 92.6362 39.3351V34.0773H97.284H97.2754ZM102.92 20.5808C101.803 18.6907 100.196 17.0928 98.3149 16.0017C102.121 16.9038 105.033 18.3729 107.378 20.5722H102.92V20.5808ZM98.5812 33.1065C99.0279 31.457 99.2685 29.6701 99.3029 27.8058H103.787C103.719 29.6529 103.229 31.4828 102.378 33.0979H98.5812V33.1065ZM98.3407 26.8522H92.6104L92.6018 21.5687H97.5589C98.0228 23.1838 98.2891 25.0052 98.3321 26.8522H98.3407ZM102.361 21.543C103.22 23.1581 103.71 24.9794 103.787 26.8351H99.3115C99.2685 24.9794 99.0194 23.201 98.5726 21.5515H102.361V21.543ZM98.2805 20.5893C97.997 19.7474 97.662 18.957 97.284 18.2526C96.7341 17.2388 96.1328 16.4313 95.4712 15.8041C98.0314 16.5945 100.291 18.2955 101.786 20.5808H98.2805V20.5893ZM98.3407 27.8144C98.3063 29.6701 98.04 31.4914 97.5846 33.1151H92.619L92.6104 27.823H98.3407V27.8144ZM101.803 34.0687C100.308 36.354 98.0486 38.0722 95.497 38.8625C96.6396 37.7801 97.6534 36.0447 98.2891 34.0687H101.803ZM92.5932 15.3488C94.9128 15.8213 96.1328 17.7543 97.2238 20.4948C97.2324 20.5292 97.2496 20.555 97.2582 20.5893H92.6018L92.5932 15.3488ZM110.566 27.7973C110.463 29.6357 109.672 31.5086 108.323 33.0979H103.461C104.26 31.4485 104.689 29.6701 104.758 27.8058H110.566V27.7973ZM81.3218 38.1581C80.6946 38.3643 80.0503 38.5361 79.406 38.6907C79.8183 38.4502 80.2221 38.1838 80.6001 37.9003L80.6688 37.8488C80.875 37.9519 81.0898 38.055 81.3218 38.1581ZM79.7066 37.3591C78.7273 38.0378 77.6791 38.5533 76.5623 38.9055C77.2152 38.2869 77.808 37.488 78.3321 36.5172C78.7616 36.8093 79.2255 37.0928 79.7152 37.3591H79.7066ZM75.5228 34.1117L75.6774 34.2749C76.2273 34.8591 76.8544 35.4261 77.5331 35.9416C76.4334 37.9777 75.1791 39.1031 73.6929 39.3608V34.1031H75.5228V34.1117ZM85.9352 27.8402L91.6396 27.823C91.6396 29.0601 91.6396 31.0533 91.6396 32.488V33.1237H86.6998C86.2358 31.5086 85.9695 29.6873 85.9266 27.8316L85.9352 27.8402ZM88.7101 26.8608C87.4644 26.8608 86.2273 26.8608 85.8149 26.8608C85.7462 25.0223 85.2994 23.201 84.5005 21.5687H85.2307C86.5623 21.5687 88.2633 21.5687 89.3544 21.5687C90.7118 23.1495 91.5108 25.0137 91.6224 26.8608C91.1929 26.8608 89.9472 26.8608 88.7101 26.8608ZM84.973 27.8402C85.0159 29.6787 85.2651 31.5 85.7118 33.1323H81.9145C81.0554 31.5258 80.5657 29.7045 80.4884 27.8488H84.973V27.8402ZM83.4266 21.5773C84.2857 23.1924 84.7754 25.0223 84.8527 26.8694H80.3767C80.3424 25.0137 80.0932 23.2354 79.6379 21.5773H83.4266ZM85.9523 34.0945C86.2273 34.9192 86.5451 35.6667 86.9489 36.4313C87.4987 37.445 88.1001 38.2526 88.7616 38.8797C86.2015 38.0893 83.9334 36.3797 82.4386 34.1031C83.4523 34.1031 84.973 34.1031 85.9438 34.1031L85.9523 34.0945ZM90.5915 21.5601H91.631V23.2698C91.3475 22.677 90.9953 22.11 90.5829 21.5601H90.5915ZM89.8011 20.5979C89.2084 19.945 88.5297 19.3265 87.7822 18.7595L87.7994 18.7165C88.9249 16.6718 90.1448 15.5979 91.6224 15.3402V20.5979H89.7926H89.8011ZM83.985 20.6065C83.2462 19.3694 82.3355 18.2869 81.2788 17.3763C81.0554 17.1873 80.8149 16.9983 80.5657 16.8093C80.1791 16.5258 79.7754 16.2595 79.363 16.0189C80.0245 16.1735 80.6774 16.354 81.3046 16.5515L81.4077 16.5859C84.2255 17.4966 86.5967 18.8454 88.4352 20.5979C87.095 20.5979 85.2393 20.5979 83.9764 20.5979L83.985 20.6065ZM79.3372 20.6151C79.0623 19.799 78.753 19.0687 78.3578 18.3127L78.3407 18.2784C77.7908 17.2646 77.1895 16.457 76.5279 15.8299C77.6706 16.1821 78.753 16.7148 79.7582 17.4107C80.9695 18.2612 82.0348 19.3608 82.851 20.6065H79.3458L79.3372 20.6151ZM73.6671 20.6237V15.366C75.1706 15.6237 76.4764 16.7921 77.5417 18.8282C77.8252 19.3694 78.0829 19.9708 78.3149 20.6151H73.6671V20.6237ZM75.9609 33.1409C74.6035 31.5601 73.8046 29.6959 73.6929 27.8488H79.5262C79.595 29.6787 80.0417 31.5 80.8407 33.1323C79.9558 33.1323 78.7444 33.1323 77.6362 33.1323H75.9609V33.1409ZM81.3389 34.1031C81.6912 34.6701 82.3011 35.4777 82.5675 35.8385C82.9283 36.268 83.3235 36.6804 83.7444 37.067H83.7273L84.0365 37.3333C84.6379 37.8488 85.2822 38.3041 85.9609 38.6907C85.3166 38.5447 84.6809 38.3643 84.0537 38.1667L83.6671 38.0378C83.3578 37.9347 83.04 37.823 82.7393 37.7027L82.6791 37.6856C80.3682 36.7835 78.418 35.5808 76.8716 34.1117C78.1345 34.1117 80.2221 34.1117 81.3389 34.1117V34.1031ZM91.6654 39.3351C89.7238 38.9828 88.1602 37.2131 87.009 34.0859H91.6568V39.3351H91.6654ZM88.7616 15.8127C88.1173 16.4227 87.5331 17.2131 86.9919 18.1924C86.5623 17.9003 86.0984 17.6168 85.6087 17.3505C86.5795 16.6718 87.6362 16.1564 88.753 15.8127H88.7616ZM85.9094 16.0189C85.4712 16.268 85.0503 16.5515 84.6551 16.8522C84.4403 16.7491 84.2255 16.646 84.0108 16.543C84.6293 16.3454 85.2651 16.1649 85.918 16.0103L85.9094 16.0189ZM78.6242 21.5859C79.0881 23.201 79.363 25.0309 79.406 26.878H73.6757V24.3265V21.5945H78.6328L78.6242 21.5859ZM74.2857 32.5052C74.4231 32.7199 74.5778 32.9347 74.7324 33.1495H73.6843V31.4399C73.8647 31.8093 74.0623 32.1615 74.2857 32.5052ZM61.8802 33.1667H57.0262C55.6688 31.5945 54.8699 29.7302 54.7582 27.8832H60.5657C60.6345 29.7388 61.0726 31.5172 61.8802 33.1667ZM68.0915 34.1976C68.0915 34.1976 68.0743 34.146 68.0657 34.1203H72.7221V39.3608C70.4025 38.8883 69.1912 36.9553 68.0915 34.2148V34.1976ZM54.7582 26.9124C54.8527 25.0739 55.6517 23.201 57.0005 21.6117H61.863C61.064 23.2612 60.6259 25.0395 60.5657 26.9038H54.7582V26.9124ZM66.9833 26.8952C67.0176 25.0481 67.284 23.2182 67.7393 21.5945H72.7049V26.8866H66.9747L66.9833 26.8952ZM57.9111 20.6495C60.1018 18.5275 63.3578 16.8866 66.9919 16.0361C65.9781 16.6203 65.0589 17.3419 64.2341 18.1924C63.5297 18.9227 62.9025 19.7474 62.3699 20.6409H57.9025L57.9111 20.6495ZM67.1723 20.2113C67.1207 20.3488 67.0778 20.4948 67.0348 20.6323H63.5211C65.0159 18.3471 67.2754 16.6375 69.8269 15.8385C68.753 16.8522 67.8596 18.3213 67.1723 20.2113ZM66.7427 21.6031C66.296 23.2526 66.0554 25.0309 66.0211 26.9038H61.5365C61.6053 25.0567 62.095 23.2268 62.9455 21.6117H66.7427V21.6031ZM68.0486 20.6323C68.2891 19.945 68.564 19.3093 68.8647 18.7509C69.9901 16.7062 71.2101 15.6323 72.6877 15.3746V20.6323H68.04H68.0486ZM67.0434 34.1203C67.3269 34.9622 67.662 35.7526 68.04 36.457C68.5898 37.4708 69.1912 38.2784 69.8527 38.9055C67.2926 38.1151 65.0331 36.4055 63.5383 34.1289H67.0434V34.1203ZM66.0125 27.866C66.0554 29.7302 66.3046 31.5086 66.7513 33.1581H62.9627C62.1035 31.5515 61.6139 29.7216 61.5365 27.8746H66.0125V27.866ZM67.0005 38.7079C63.1946 37.8058 60.2908 36.3368 57.9455 34.1375H62.4042C63.5211 36.0275 65.1276 37.6168 67.009 38.7079H67.0005ZM67.7565 33.1581C67.2926 31.543 67.0262 29.7216 66.9833 27.866H72.7135L72.7221 33.1495H67.7651L67.7565 33.1581Z" fill="white"/>
<path d="M55.5911 47.6513C56.0206 47.4366 56.3213 47.1015 56.6134 46.5173L57.6443 44.4727H56.3471L55.3677 46.3971C55.0155 47.0843 54.8522 47.1703 53.7784 47.1703H53.2113V44.4727H52V50.9245H53.2027V48.2613H53.7698C54.9553 48.2613 55.1615 48.3558 55.5052 49.0087L56.4759 50.8988V50.9245H57.8333L56.7766 48.8627C56.4416 48.2098 56.1581 47.8318 55.5911 47.6513Z" fill="white"/>
<path d="M59.8863 44.4727H58.6836V50.9245H59.8863V44.4727Z" fill="white"/>
<path d="M61.0977 47.7037C61.0977 49.8085 62.1028 50.9253 64.0186 50.9253H66.5272V49.7226H64.0186C62.8159 49.7226 62.3004 49.1212 62.3004 47.7037C62.3004 46.2861 62.8159 45.6676 64.0186 45.6676H66.5272V44.4648H64.0186C62.1114 44.4648 61.0977 45.5817 61.0977 47.6951V47.7037Z" fill="white"/>
<path d="M71.3559 47.6513C71.7855 47.4366 72.0862 47.1015 72.3782 46.5173L73.4092 44.4727H72.1119L71.1325 46.3971C70.7803 47.0843 70.6171 47.1703 69.5432 47.1703H68.9762V44.4727H67.7734V50.9245H68.9762V48.2613H69.5432C70.7288 48.2613 70.9349 48.3558 71.2786 49.0087L72.2494 50.8988V50.9245H73.6068L72.5501 48.8627C72.215 48.2098 71.9315 47.8318 71.3645 47.6513H71.3559Z" fill="white"/>
<path d="M77.7387 47.0937H76.2525C75.6511 47.0937 75.3504 46.8532 75.3504 46.3807C75.3504 45.9081 75.6339 45.6676 76.1408 45.6676H79.4483V44.4648H76.1837C74.8779 44.4648 74.1562 45.1264 74.1562 46.3377C74.1562 47.1968 74.5257 48.2191 76.2954 48.2191H77.7731C78.4088 48.2191 78.7267 48.4683 78.7267 48.9666C78.7267 49.4648 78.426 49.714 77.8934 49.714H74.2679V50.9167H77.859C79.1906 50.9167 79.9294 50.238 79.9294 49.0095C79.9294 48.1332 79.5514 47.0937 77.7473 47.0937H77.7387Z" fill="white"/>
<path d="M83.3594 47.7037C83.3594 49.8085 84.3645 50.9253 86.2803 50.9253H88.7889V49.7226H86.2803C85.0776 49.7226 84.5621 49.1212 84.5621 47.7037C84.5621 46.2861 85.0776 45.6676 86.2803 45.6676H88.7889V44.4648H86.2803C84.3731 44.4648 83.3594 45.5817 83.3594 47.6951V47.7037Z" fill="white"/>
<path d="M95.5998 46.4228C95.5998 44.9881 94.5173 44.4727 93.5122 44.4727H90.0156V45.6754H93.5466C94.1651 45.6754 94.3885 46.0878 94.3885 46.4744C94.3885 46.8782 94.1651 47.3163 93.5466 47.3163H91.0637C90.3335 47.3163 90.0242 47.6342 90.0242 48.3644V50.9245H91.227V48.5792C91.227 48.4933 91.2613 48.4589 91.3472 48.4589H92.9795L94.4228 50.8988V50.916H95.7716L94.2768 48.3558C95.1101 48.0981 95.5998 47.3764 95.5998 46.4142V46.4228Z" fill="white"/>
<path d="M97.7566 48.9658C97.7566 48.4761 98.0573 48.2355 98.6845 48.2355H101.889V47.1445H98.7188C98.0831 47.1445 97.791 46.9211 97.791 46.4314C97.791 45.9417 98.1003 45.6754 98.7103 45.6754H101.94V44.4727H98.7103C97.3099 44.4727 96.5367 45.0998 96.5367 46.251C96.5367 46.9297 96.8202 47.4194 97.37 47.6857C96.8116 47.952 96.5195 48.4589 96.5195 49.1462C96.5195 49.8335 96.803 50.9245 98.6845 50.9245H101.949V49.7218H98.6845C98.0831 49.7218 97.7652 49.4555 97.7652 48.9658H97.7566Z" fill="white"/>
<path d="M112.137 44.475L110.23 49.6296C110.17 49.7842 110.058 49.8702 109.912 49.8702C109.74 49.8702 109.637 49.7499 109.637 49.5523V45.7894C109.637 44.8959 109.096 44.3633 108.177 44.3633C107.395 44.3633 106.922 44.7327 106.639 45.566L105.092 49.6296C105.032 49.7842 104.921 49.8702 104.783 49.8702C104.611 49.8702 104.5 49.7499 104.5 49.5523V44.475H103.297V49.6038C103.297 50.5145 103.83 51.0385 104.757 51.0385C105.548 51.0385 106.02 50.6691 106.287 49.8358L107.833 45.7722C107.867 45.6777 107.962 45.5231 108.151 45.5231C108.323 45.5231 108.434 45.6519 108.434 45.8495V49.6038C108.434 50.5145 108.958 51.0385 109.886 51.0385C110.668 51.0385 111.141 50.6691 111.433 49.8358L113.4 44.5351L113.417 44.475H112.128H112.137Z" fill="white"/>
</g>
<defs>
<clipPath id="clip0_13581_216666">
<rect width="61.4261" height="37.0361" fill="white" transform="translate(52 14)"/>
</clipPath>
</defs>
</svg>
