<svg width="166" height="66" viewBox="0 0 166 66" fill="none" xmlns="http://www.w3.org/2000/svg">
<path fill-rule="evenodd" clip-rule="evenodd" d="M51.3623 19.4454L54.0202 19.2671C54.1385 19.2603 54.1942 19.4043 54.1176 19.4797L51.7172 21.4819L51.1745 24.2042C51.1466 24.3138 50.9866 24.3344 50.9449 24.2247L49.9986 21.9482L47.7164 21.7699C47.6051 21.7631 47.5633 21.6191 47.6538 21.5574L49.8594 19.9871L50.2699 16.9084C50.2839 16.7849 50.4579 16.7712 50.4996 16.8878L51.3623 19.4454ZM51.8476 28.2528C51.8336 28.7396 51.8127 29.2196 51.7849 29.6996C51.7432 30.3578 51.6736 31.0161 51.5901 31.6675C51.4161 32.9772 51.1587 34.28 50.79 35.5554C50.6021 36.1931 50.3934 36.8239 50.1429 37.4479C50.0176 37.7565 49.8854 38.065 49.7463 38.3736L49.6993 38.4706C49.5687 38.7411 49.4362 39.0154 49.287 39.2787C48.96 39.8753 48.5843 40.4513 48.139 40.9998C47.9163 41.2741 47.6728 41.5346 47.4085 41.7883C47.1441 42.0352 46.8518 42.2752 46.5178 42.4741C46.1908 42.6797 45.822 42.8512 45.4185 42.9677C45.0149 43.0774 44.5627 43.1186 44.1174 43.0569L43.9504 43.0294C43.8948 43.0157 43.8391 43.002 43.7904 42.9883C43.7162 42.97 43.6482 42.9456 43.5802 42.9213C43.5462 42.9091 43.5121 42.8969 43.4773 42.8855C43.2755 42.8032 43.0807 42.7072 42.8998 42.5906C42.5449 42.3643 42.2527 42.0832 42.0022 41.7952C41.9669 41.7526 41.9337 41.71 41.9015 41.6687C41.8768 41.6368 41.8524 41.6056 41.8283 41.5758L41.7378 41.4455L41.7239 41.4592C41.223 41.9461 40.6524 42.3712 40.0123 42.7003C39.9357 42.7415 39.8522 42.7826 39.7688 42.8169C39.727 42.834 39.6853 42.8529 39.6435 42.8717C39.6018 42.8906 39.56 42.9095 39.5183 42.9266C39.3513 42.9951 39.1843 43.0569 39.0104 43.1117C38.8364 43.1666 38.6555 43.2146 38.4607 43.2489C38.2728 43.2832 38.0641 43.3037 37.8484 43.3037C37.6327 43.3037 37.4031 43.2694 37.1735 43.194C36.9439 43.1186 36.7213 42.9951 36.5334 42.8306C36.3455 42.6729 36.2064 42.4809 36.102 42.2889C35.9976 42.0969 35.9211 41.9049 35.8654 41.7198C35.7541 41.3495 35.7123 40.9861 35.6845 40.6432C35.6636 40.2935 35.6636 39.9575 35.6776 39.6215C35.7054 38.9565 35.7819 38.3119 35.8654 37.6742C35.8958 37.4417 35.9281 37.2102 35.9603 36.9799C36.0162 36.5784 36.0717 36.1807 36.1159 35.7885L36.1437 35.5554C36.148 35.5059 36.1521 35.4639 36.1563 35.4219C36.1591 35.394 36.1618 35.366 36.1646 35.336L36.1716 35.2263V35.1234C36.1716 35.1008 36.1723 35.0775 36.1731 35.0538C36.1746 35.0059 36.1762 34.9568 36.1716 34.9108C36.1716 34.6366 36.1299 34.3692 36.0533 34.1703C36.0116 34.0811 35.9698 34.0057 35.9281 33.9715C35.8863 33.9372 35.8654 33.9235 35.8098 33.9166C35.7541 33.9098 35.6706 33.9235 35.5662 33.9509C35.551 33.9573 35.5351 33.9631 35.5187 33.969C35.4827 33.9821 35.4445 33.9959 35.4062 34.0194L35.3227 34.0606L35.2392 34.1086C35.0166 34.2457 34.7939 34.4309 34.5921 34.6434C34.3834 34.8491 34.1816 35.0823 33.9938 35.3154C33.6111 35.7954 33.2632 36.3165 32.9153 36.8513C32.8527 36.9542 32.7135 36.9817 32.6092 36.9199C32.5257 36.865 32.4909 36.7622 32.5187 36.6731C32.6161 36.3645 32.7274 36.0559 32.8596 35.7542C32.9849 35.4526 33.138 35.1577 33.305 34.8628C33.4719 34.5748 33.6668 34.2937 33.8825 34.0194C34.1051 33.752 34.3486 33.4915 34.6617 33.272L34.78 33.1898C34.8088 33.1708 34.8377 33.1551 34.8688 33.1382C34.8827 33.1307 34.8971 33.1228 34.9122 33.1143C34.9957 33.0595 35.093 33.0184 35.1904 32.9773C35.3922 32.9018 35.6289 32.8401 35.9002 32.8606C35.9698 32.8675 36.0325 32.8743 36.102 32.8881C36.1368 32.8983 36.1698 32.9086 36.2029 32.9189C36.2359 32.9292 36.269 32.9395 36.3038 32.9497C36.3664 32.9772 36.429 33.0115 36.4916 33.0457C36.5288 33.0686 36.5659 33.0976 36.6029 33.1265C36.6215 33.141 36.6401 33.1555 36.6586 33.1692C36.8604 33.3474 36.9856 33.5532 37.0761 33.752C37.2431 34.1497 37.2849 34.52 37.3057 34.8834C37.3127 34.9725 37.3127 35.0617 37.3127 35.1508V35.2811L37.3057 35.4114C37.3023 35.4518 37.3005 35.4955 37.2988 35.5384C37.2971 35.5829 37.2953 35.6267 37.2918 35.6651L37.2709 35.9051C37.2385 36.2391 37.2004 36.5695 37.1626 36.898C37.1274 37.2034 37.0924 37.5074 37.0622 37.8113C36.9926 38.4353 36.9369 39.0593 36.923 39.6627C36.9161 39.9644 36.9161 40.2661 36.9439 40.5541C36.9648 40.8421 37.0135 41.1163 37.09 41.3564C37.1248 41.4729 37.1735 41.5826 37.2222 41.6718C37.2709 41.7609 37.3336 41.8226 37.3892 41.8775C37.4448 41.9255 37.5075 41.9598 37.5841 41.9804C37.6606 42.0009 37.758 42.0146 37.8623 42.0146C38.3007 42.0146 38.8921 41.7952 39.3861 41.5346C39.887 41.2672 40.3532 40.9175 40.7706 40.5061C40.8008 40.4741 40.8318 40.4429 40.8627 40.4116C40.9245 40.3492 40.9864 40.2866 41.042 40.2181C41.0212 40.1736 41.0003 40.1273 40.9794 40.081C40.9586 40.0348 40.9376 39.9884 40.9168 39.9438C40.6454 39.2993 40.4506 38.6342 40.3253 37.9553C40.2001 37.2765 40.1514 36.584 40.1723 35.8983C40.1932 35.2125 40.2767 34.5268 40.4367 33.8549C40.5967 33.1829 40.8193 32.5246 41.1603 31.8869C41.3342 31.5715 41.536 31.2561 41.8074 30.9544C41.9465 30.8036 42.0996 30.6595 42.2944 30.5224C42.4893 30.3921 42.7328 30.2618 43.0459 30.2138C43.199 30.1864 43.3729 30.1933 43.5329 30.2207C43.6999 30.255 43.853 30.3098 43.9921 30.3853L44.18 30.5087C44.2357 30.5498 44.2913 30.5978 44.3331 30.6458L44.4027 30.7144C44.4131 30.7281 44.4235 30.7401 44.434 30.7521C44.4444 30.7641 44.4548 30.7761 44.4652 30.7898C44.507 30.8379 44.5418 30.8858 44.5766 30.9407C44.7088 31.1395 44.7993 31.3384 44.8688 31.5304C44.9384 31.7224 44.9871 31.9144 45.0219 32.0926C45.0915 32.4629 45.1193 32.8195 45.1193 33.1692C45.1263 33.5189 45.1054 33.8617 45.0706 34.2046C45.001 34.8834 44.8618 35.5417 44.6879 36.1931C44.507 36.8376 44.2844 37.4753 44.0061 38.0856C43.7347 38.7027 43.4147 39.2993 43.032 39.8684C42.9827 39.9461 42.93 40.0204 42.8762 40.096C42.854 40.1272 42.8316 40.1586 42.8093 40.1907L42.8719 40.3004L42.9832 40.4718L43.1016 40.6364L43.2268 40.7872C43.3938 40.9792 43.5816 41.1438 43.7695 41.2604C43.86 41.3221 43.9574 41.3632 44.0548 41.3975C44.071 41.4021 44.0873 41.4074 44.1035 41.4127C44.136 41.4234 44.1684 41.4341 44.2009 41.4386L44.2175 41.4429C44.2374 41.4481 44.254 41.4523 44.2705 41.4523L44.347 41.466C44.4444 41.4798 44.5418 41.4798 44.6462 41.4729C44.7506 41.466 44.8549 41.4386 44.9593 41.4112C45.175 41.3495 45.3907 41.2398 45.6064 41.1026C46.0377 40.8215 46.4413 40.417 46.7892 39.9712C46.9631 39.745 47.1301 39.505 47.2901 39.2581C47.4502 39.0113 47.5893 38.7507 47.7285 38.4833C48.2781 37.4274 48.6817 36.2685 48.974 35.0892C49.5654 32.7235 49.7184 30.2413 49.5584 27.7934V27.7865V27.7522C49.5445 27.5465 49.4888 26.8265 49.3567 26.1271C47.3876 24.8449 45.0219 24.0906 42.4823 24.0906C35.5871 24.0906 30 29.5967 30 36.3919C30 43.1872 35.5871 48.6933 42.4823 48.6933C49.3775 48.6933 54.9646 43.1872 54.9646 36.3919C54.9716 33.2652 53.7888 30.4196 51.8476 28.2528ZM42.8993 31.9349C42.7393 32.1132 42.5932 32.3395 42.4679 32.5795C42.2105 33.0732 42.0226 33.6285 41.8974 34.1977C41.64 35.336 41.6191 36.5428 41.8418 37.6879C41.9114 38.0444 42.0018 38.3873 42.12 38.7301C42.3427 38.353 42.5375 37.9553 42.7115 37.5507C42.9481 36.9953 43.1498 36.4262 43.3029 35.8433C43.456 35.2605 43.5673 34.6708 43.623 34.0811C43.6508 33.7863 43.6647 33.4914 43.6578 33.2103C43.6508 32.9223 43.6299 32.6412 43.5742 32.3875C43.5464 32.2572 43.5117 32.1406 43.4768 32.0309C43.4351 31.9212 43.3934 31.8321 43.3446 31.7635C43.3388 31.7577 43.3343 31.7508 43.3299 31.7442C43.3237 31.735 43.3179 31.7263 43.3098 31.7223C43.3064 31.7189 43.3046 31.7154 43.3029 31.712C43.3012 31.7086 43.2994 31.7052 43.2959 31.7017L43.282 31.688C43.2776 31.6794 43.2705 31.6762 43.2641 31.6733C43.2603 31.6716 43.2568 31.67 43.2542 31.6675C43.2542 31.6675 43.2472 31.6675 43.2472 31.6606C43.2464 31.661 43.2455 31.6614 43.2444 31.6619C43.2422 31.6629 43.2393 31.6642 43.236 31.6656C43.2134 31.6755 43.1677 31.6954 43.122 31.7292C43.0524 31.7703 42.9759 31.8458 42.8993 31.9349Z" fill="white"/>
<path fill-rule="evenodd" clip-rule="evenodd" d="M100.506 28.5615H98.1789V34.0237C97.5935 33.1766 96.4749 32.8115 95.5113 32.8115C93.3776 32.8115 91.436 34.4764 91.436 37.1052C91.436 39.7341 93.3776 41.4136 95.5113 41.4136C96.4379 41.4136 97.5935 41.0266 98.1789 40.1868V41.2018H100.506V28.5615ZM95.9561 34.9437C97.0377 34.9437 98.1048 35.8346 98.1048 37.098C98.1048 38.3394 97.0897 39.274 95.9561 39.274C94.7854 39.274 93.8074 38.2882 93.8074 37.098C93.8074 35.8931 94.7854 34.9437 95.9561 34.9437ZM78.9263 32.8107C76.5626 32.8107 74.4656 34.5267 74.4656 37.119C74.4656 39.6967 76.5626 41.4128 78.9263 41.4128C81.29 41.4128 83.387 39.6967 83.387 37.119C83.387 34.5267 81.29 32.8107 78.9263 32.8107ZM78.9337 34.9429C80.0896 34.9429 81.0307 35.8411 81.0307 37.119C81.0307 38.3823 80.0896 39.2805 78.9337 39.2732C77.7778 39.2732 76.8368 38.3823 76.8368 37.119C76.8368 35.8338 77.7778 34.9429 78.9337 34.9429ZM74.195 33.0199H71.6683L70.1122 38.0147L68.5266 33.0199H66.5704L64.9847 38.0147L63.4212 33.0199H60.8945L63.9177 41.2058H65.9109L67.5633 35.897L69.2676 41.2058H71.2608L74.195 33.0199ZM91.045 33.0736L90.5117 35.2642C90.0154 35.0013 89.6077 34.9648 89.3185 34.9648C88.1258 34.9648 87.3106 36.0675 87.3106 38.397V41.201H84.9839V33.0224H87.2958V34.775C87.7551 33.4095 88.7036 32.8107 89.7338 32.8107C90.178 32.8107 90.6748 32.8764 91.045 33.0736ZM107.379 33.0183V34.8074H105.616V41.2041H103.29V34.8074H101.778V33.0183H103.29V30.0389H105.616V33.0183H107.379ZM116.604 33.0199H114.278V37.3501C114.278 38.8252 113.248 39.2779 112.41 39.2779C111.61 39.2779 110.825 38.6792 110.825 37.4013V33.0199H108.498V37.5254C108.483 39.979 109.617 41.4175 111.788 41.4175C112.603 41.4175 113.922 40.9429 114.278 39.8767V41.2058H116.604V33.0199ZM126.789 36.7101V41.1937H124.463V36.827C124.463 35.5491 123.677 34.9722 122.877 34.9722C122.039 34.9722 121.01 35.4103 121.01 36.9V41.1937H118.683V33.0151H121.01V34.4026C121.365 33.2999 122.684 32.8107 123.499 32.8107C125.67 32.8034 126.812 34.2565 126.789 36.7101ZM130.712 37.8493H136.951C136.988 37.4841 137.01 37.1994 136.995 36.9803C136.995 34.4756 135.061 32.8107 132.675 32.8107C130.311 32.8107 128.266 34.4756 128.266 37.119C128.266 39.6457 130.133 41.4128 132.697 41.4128C134.157 41.4128 135.594 40.7994 136.38 39.7625L135.032 38.4115C134.52 38.9884 133.698 39.3754 132.845 39.3754C131.741 39.3754 130.963 38.8132 130.712 37.8493ZM132.742 34.7823C133.786 34.7823 134.587 35.3957 134.661 36.3596H130.712C130.963 35.2569 131.778 34.7823 132.742 34.7823Z" fill="white"/>
</svg>
