<svg width="166" height="66" viewBox="0 0 166 66" fill="none" xmlns="http://www.w3.org/2000/svg">
<g clip-path="url(#clip0_13581_215934)">
<path d="M147.587 24.6813H144.49V38.9469H147.587V28.7375C148.438 27.5 149.833 26.7438 151.364 26.7438C153.508 26.7438 154.937 28.05 154.937 30.2156V38.9469H158.034V29.5969C158.034 26.5719 155.856 24.4062 152.521 24.4062C150.446 24.4062 148.71 25.2656 147.621 26.7781L147.587 24.6813ZM135.235 26.6406C137.412 26.6406 138.944 27.9469 139.386 30.25H131.151C131.593 27.9469 133.125 26.6406 135.235 26.6406ZM135.303 39.2563C138.74 39.2563 141.258 37.4344 142.176 34.375H139.148C138.569 35.9906 137.038 37.0562 135.337 36.9875C132.887 36.9875 131.185 35.2688 131.049 32.3469H142.585V31.7625C142.551 27.0531 139.352 24.4062 135.303 24.4062C131.049 24.4062 127.918 27.2594 127.918 31.8313C127.918 36.3687 130.981 39.2563 135.303 39.2563ZM118.765 26.6406C120.942 26.6406 122.474 27.9469 122.916 30.25H114.681C115.123 27.9469 116.621 26.6406 118.765 26.6406ZM118.799 39.2563C122.235 39.2563 124.754 37.4344 125.638 34.375H122.61C122.031 35.9906 120.5 37.0562 118.799 36.9875C116.348 36.9875 114.647 35.2688 114.511 32.3469H126.047V31.7625C126.047 27.0531 122.848 24.4062 118.799 24.4062C114.545 24.4062 111.414 27.2594 111.414 31.8313C111.414 36.3687 114.477 39.2563 118.799 39.2563ZM106.14 24.6813H103.043V38.9469H106.14V29.1844C107.059 27.5687 108.998 26.95 110.938 27.2594V24.4062C108.76 24.3031 107.127 25.2312 106.14 27.0531V24.6813ZM93.3108 34.5125C90.9628 34.5125 89.2273 33.1375 89.2273 30.6625C89.2273 28.0844 90.9288 26.675 93.3108 26.675C95.6928 26.675 97.3943 28.0844 97.3943 30.6625C97.3943 33.1375 95.6588 34.5125 93.3108 34.5125ZM89.5336 38.9469H86.573C87.3217 42.3844 90.1801 44 94.0594 44C97.9387 44 100.525 42.2125 100.525 39.4625C100.525 37.3313 98.9936 36.3344 96.6116 35.6812C98.9256 35.0969 100.491 32.9656 100.389 30.5938C100.389 29.2188 99.9124 28.0156 99.0957 27.0188C99.7763 26.8469 100.491 26.8469 101.172 26.95V24.3031C99.8444 24.2 98.5513 24.7156 97.7005 25.7469C96.3734 24.8875 94.8421 24.4406 93.2768 24.4406C89.1593 24.4406 86.2327 26.9844 86.2327 30.5938C86.2327 35.3375 90.1461 36.4375 93.9233 37.3312C96.8838 38.0187 97.4964 38.7062 97.4964 39.7031C97.4964 40.8375 96.6456 41.8 93.9574 41.8C91.7114 41.7656 90.1121 40.9406 89.5336 38.9469ZM80.9583 34.925V26.9844H85.4161V24.6813H80.9923V22H77.9297V24.6813H74.3226V27.0188H77.8956V35.5094C77.8956 37.8812 79.1547 39.0844 82.2854 39.0844C83.2382 39.0844 84.225 38.9813 85.382 38.6719V36.4031C84.3612 36.6781 83.5785 36.7469 82.9319 36.7469C81.1965 36.7125 80.9242 36.0594 80.9583 34.925ZM66.6661 26.6406C68.8439 26.6406 70.3412 27.9469 70.8176 30.25H62.5826C63.025 27.9469 64.5563 26.6406 66.6661 26.6406ZM66.7341 39.2563C70.1711 39.2563 72.6892 37.4344 73.574 34.375H70.5454C69.9669 35.9906 68.4356 37.0562 66.7341 36.9875C64.284 36.9875 62.5826 35.2688 62.4465 32.3469H73.9823V31.7625C73.9823 27.0531 70.7836 24.4062 66.7341 24.4062C62.4465 24.4062 59.3498 27.2594 59.3498 31.8313C59.3498 36.3687 62.4124 39.2563 66.7341 39.2563ZM50.196 26.6406C52.3739 26.6406 53.8711 27.9469 54.3475 30.25H46.1125C46.5549 27.9469 48.0522 26.6406 50.196 26.6406ZM50.23 39.2563C53.667 39.2563 56.1851 37.4344 57.1039 34.375H54.0753C53.4968 35.9906 51.9655 37.0562 50.2641 36.9875C47.814 36.9875 46.1125 35.2688 45.9764 32.3469H57.5122V31.7625C57.5122 27.0531 54.3135 24.4062 50.2641 24.4062C46.0104 24.4062 42.8798 27.2594 42.8798 31.8313C42.8457 36.3687 45.9083 39.2563 50.23 39.2563ZM35.2913 38.9469H38.422L42.3693 24.6813H39.5109L36.8226 35.2687L33.76 24.6813H31.0377L28.0431 35.0969L25.3548 24.6813H22.3262L26.3076 38.9469H29.4383L32.3308 28.6344L35.2913 38.9469ZM15.3162 39.2219C19.0594 39.2219 21.6797 37.3656 21.6797 34.7531C21.6797 29.1156 11.1987 31.5562 11.1987 28.325C11.1987 27.2937 12.2877 26.5375 14.3634 26.5375C16.6093 26.5375 18.0386 27.4313 18.583 29.3906H21.4755C20.8289 26.1594 18.2427 24.3375 14.3634 24.3375C10.5522 24.3375 8.20417 26.0562 8.20417 28.6344C8.20417 34.1344 18.6851 31.5906 18.6851 35.0281C18.6851 36.1625 17.6642 37.0219 15.2822 37.0219C12.9342 37.0219 11.4369 35.9906 10.9265 33.8594H8C8.64655 37.4688 11.3348 39.2219 15.3162 39.2219Z" fill="white"/>
</g>
<defs>
<clipPath id="clip0_13581_215934">
<rect width="150" height="22" fill="white" transform="translate(8 22)"/>
</clipPath>
</defs>
</svg>
