<svg width="166" height="66" viewBox="0 0 166 66" fill="none" xmlns="http://www.w3.org/2000/svg">
<path d="M125.03 28.3931H126.769V32.5647H131.041V28.3931H132.987V38.2359H131.041V34.2785H126.769V38.2359H125.03V28.3931Z" fill="white"/>
<path d="M65.8799 28.416H72.9249V30.0001H67.7697V32.7343H71.4376V34.3184H67.7697V36.6917H73.0032V38.2363H65.8799V28.416Z" fill="white"/>
<path d="M136.168 28.416H143.213V30.0001H138.058V32.7343H141.726V34.3184H138.058V36.6917H143.291V38.2363H136.168V28.416Z" fill="white"/>
<path d="M54.6523 28.3931H56.7211L59.1477 35.6822H59.2819L61.6638 28.3931H63.755L60.171 38.2359H58.186L54.6523 28.3931Z" fill="white"/>
<path d="M44.6719 28.3931H46.8916L49.3127 32.7451L51.7784 28.3931H53.8696L50.2688 34.4025V38.2359H48.3621V34.4025L44.6719 28.3931Z" fill="white"/>
<path d="M74.8643 35.2144H76.9274C77.0057 35.7443 77.235 36.1389 77.6096 36.3982C77.9842 36.6519 78.5321 36.7816 79.2422 36.7816C79.8517 36.7816 80.3046 36.6745 80.6177 36.4715C80.9252 36.2686 81.0762 35.9585 81.0762 35.5583C81.0762 34.9663 80.1928 34.4815 78.4203 34.0926L78.3588 34.0813C78.3141 34.07 78.2414 34.0587 78.1463 34.0362C77.2014 33.8389 76.5193 33.6134 76.1223 33.371C75.7589 33.1511 75.4849 32.8523 75.3004 32.4859C75.1103 32.1138 75.0152 31.6741 75.0152 31.1724C75.0152 30.2253 75.3507 29.5037 76.0217 29.002C76.6926 28.5003 77.6655 28.2466 78.9347 28.2466C80.1201 28.2466 81.0482 28.5115 81.7136 29.0471C82.3846 29.5883 82.7368 30.3381 82.7759 31.3133H80.7687C80.7295 30.8454 80.5394 30.4903 80.2039 30.2422C79.8573 29.9998 79.3764 29.8758 78.7446 29.8758C78.1967 29.8758 77.7773 29.9773 77.481 30.1802C77.1846 30.3832 77.0337 30.6763 77.0337 31.054C77.0337 31.567 77.6096 31.9503 78.767 32.204C79.0801 32.2717 79.3261 32.3281 79.4994 32.3675C80.2375 32.5479 80.7631 32.6888 81.0706 32.7903C81.3837 32.8918 81.6521 33.0045 81.8869 33.1286C82.2951 33.3484 82.6082 33.6359 82.8151 33.9967C83.022 34.3575 83.1282 34.7916 83.1282 35.299C83.1282 36.308 82.7704 37.0916 82.0547 37.6441C81.3446 38.2022 80.3437 38.4784 79.041 38.4784C77.7661 38.4784 76.7653 38.1966 76.0384 37.6328C75.3116 37.0635 74.9202 36.2573 74.8643 35.2144Z" fill="white"/>
<path d="M92.0745 32.8804H93.8749C94.8702 32.8804 95.4908 32.841 95.7424 32.7564C96.4246 32.5365 96.6259 31.939 96.6259 31.2794C96.6259 30.9468 96.4413 30.6818 96.2568 30.4789C96.0723 30.276 95.8095 30.1407 95.4741 30.0899C95.3063 30.0674 94.7975 30.0617 93.9588 30.0617H92.0745V32.8804ZM90.2686 38.2359V28.3931H94.4229C95.5188 28.3931 96.3183 28.4833 96.816 28.658C97.3136 28.8328 97.7162 29.1485 98.0069 29.5995C98.3088 30.0561 98.5045 30.5916 98.5269 31.1723C98.5549 31.8093 98.2026 32.7282 97.8112 33.2299C97.4534 33.6922 97.0843 33.9064 96.5532 34.1319L98.7673 38.2359H96.6091L94.6186 34.3631L92.0745 34.3461V38.2359H90.2686Z" fill="white"/>
<path d="M147.876 32.8804H149.677C150.672 32.8804 151.293 32.841 151.544 32.7564C152.226 32.5365 152.428 31.939 152.428 31.2794C152.428 30.9468 152.238 30.6818 152.059 30.4789C151.874 30.276 151.611 30.1407 151.276 30.0899C151.108 30.0674 150.599 30.0617 149.761 30.0617H147.876V32.8804ZM146.07 38.2416V28.3931H150.225C151.321 28.3931 152.12 28.4833 152.618 28.658C153.115 28.8328 153.518 29.1485 153.814 29.5995C154.111 30.0561 154.306 30.5916 154.329 31.1723C154.357 31.8093 154.004 32.7282 153.613 33.2356C153.255 33.6922 152.886 33.9064 152.355 34.1319L154.569 38.2416H152.405L150.42 34.3631L147.876 34.3461V38.2416H146.07Z" fill="white"/>
<path fill-rule="evenodd" clip-rule="evenodd" d="M105.595 28.0552C108.474 28.0552 110.806 30.4116 110.806 33.3149C110.806 36.2181 108.474 38.5745 105.595 38.5745C102.715 38.5745 100.378 36.2181 100.378 33.3149C100.378 30.4116 102.715 28.0552 105.595 28.0552ZM105.595 30.0621C107.378 30.0621 108.821 31.5165 108.821 33.3149C108.821 35.1076 107.378 36.5676 105.595 36.5676C103.811 36.5676 102.368 35.1076 102.368 33.3149C102.368 31.5165 103.811 30.0621 105.595 30.0621Z" fill="white"/>
<path fill-rule="evenodd" clip-rule="evenodd" d="M120.758 31.5166H122.754C122.011 29.504 120.316 28.1962 118.013 28.106C115.346 27.9989 112.925 29.8479 112.656 33.0838C112.405 36.1562 114.608 38.2871 117.543 38.4844C120.193 38.6592 122.24 37.1032 122.81 34.9329H120.786C118.762 38.0842 114.552 36.7876 114.652 33.0556C114.714 31.0543 116.145 29.9325 117.806 29.8705C118.986 29.8254 119.886 30.5357 120.758 31.5166Z" fill="white"/>
<mask id="mask0_13581_215958" style="mask-type:luminance" maskUnits="userSpaceOnUse" x="11" y="19" width="30" height="29">
<path d="M11.4316 19.21H40.0591V47.3236H11.4316V19.21Z" fill="white"/>
</mask>
<g mask="url(#mask0_13581_215958)">
<path fill-rule="evenodd" clip-rule="evenodd" d="M25.3763 21.1716C32.002 21.1716 37.3697 26.5834 37.3697 33.2637C37.3697 39.9441 32.002 45.3559 25.3763 45.3559C18.7507 45.3559 13.383 39.9441 13.383 33.2637C13.383 26.5834 18.7507 21.1716 25.3763 21.1716ZM25.3763 19.2041C33.0812 19.2041 39.321 25.4954 39.321 33.2637C39.321 41.0264 33.0812 47.3234 25.3763 47.3234C17.6771 47.3234 11.4316 41.0264 11.4316 33.2637C11.4316 25.4954 17.6771 19.2041 25.3763 19.2041Z" fill="white"/>
</g>
<path fill-rule="evenodd" clip-rule="evenodd" d="M15.4569 31.1558C14.8027 37.3062 17.6598 41.3708 22.5969 42.9436C22.5075 40.9254 22.6976 38.6423 22.1552 36.4606C21.6129 34.279 18.7949 31.0882 15.4569 31.1558Z" fill="white"/>
<path fill-rule="evenodd" clip-rule="evenodd" d="M32.6951 40.1583C30.4418 42.6049 27.7076 43.5915 24.5653 43.3491L24.543 34.3405C25.1356 30.6198 27.0479 28.8215 29.4242 27.7109C29.8938 30.8622 28.0711 33.3878 24.6995 35.4229C26.7012 38.4051 29.262 40.0061 32.6951 40.1583Z" fill="white"/>
<path fill-rule="evenodd" clip-rule="evenodd" d="M31.2139 25.1064C31.9464 30.5183 30.6548 34.0755 27.4678 35.902C29.1899 37.706 31.4432 38.4107 34.127 38.1965C36.576 33.3878 35.2956 28.2972 31.2139 25.1064Z" fill="white"/>
<path fill-rule="evenodd" clip-rule="evenodd" d="M22.7935 33.2751C20.8925 30.6593 18.6671 29.4924 16.2461 29.1936C19.3716 22.7952 26.2992 21.5719 31.1022 25.0107C25.8408 26.8879 23.3023 29.3007 22.7935 33.2751Z" fill="white"/>
</svg>
