<svg width="166" height="66" viewBox="0 0 166 66" fill="none" xmlns="http://www.w3.org/2000/svg">
<path d="M131.415 47.7275H34.5859V18.2725H131.415V47.7275ZM78.9043 23.2188V42.8701H82.1836V33.4111L84.252 39.5576H86.623L88.7354 33.4111V42.8701H92.0088V23.2188H88.7354L85.4561 32.8525L82.1836 23.2188H78.9043ZM106.796 23.2188V42.8701H110.068V35.3848H111.708L113.348 42.8701H116.621L114.723 34.3105C115.889 33.4496 116.621 32.0355 116.621 30.4834V28.1201C116.621 25.4116 114.426 23.2188 111.708 23.2188H106.796ZM55.7109 23.1748C53.0372 23.3005 51.0127 25.5815 51.0127 28.2461V37.7539C51.0127 40.4185 53.0372 42.6932 55.7109 42.8252C58.5171 42.9571 60.8437 40.7203 60.8438 37.9238V28.1201C60.8437 25.3236 58.5171 23.0869 55.7109 23.1748ZM39.5039 23.1738V42.8252H42.7773V35.3848H44.417C47.1347 35.3847 49.3289 33.1918 49.3291 30.4834V28.1201C49.3291 25.4116 47.1348 23.1739 44.417 23.1738H39.5039ZM62.4775 23.1738V42.8252H65.7568V35.3916H67.3955C70.107 35.3916 72.3084 33.1981 72.3086 30.4834V28.1201C72.3086 25.4115 70.1071 23.1738 67.3955 23.1738H62.4775ZM96.9268 23.1738L93.6475 42.8252H96.9268L97.4824 39.5576H101.322L101.84 42.8252H105.156L101.84 23.1738H96.9268ZM117.479 23.2119V26.4863H120.366V42.8252H123.646V26.4863H126.489V23.2119H117.479ZM55.7549 26.4863C56.7449 26.3983 57.5644 27.1272 57.5645 28.1201V37.9238C57.5644 38.8665 56.7449 39.6456 55.7549 39.5576C54.8911 39.4696 54.292 38.6968 54.292 37.8359V28.2021C54.292 27.3035 54.891 26.5304 55.7549 26.4863ZM100.799 36.29H98.0869L99.4238 28.1201L100.799 36.29ZM67.3955 26.4863C68.2973 26.4863 69.0351 27.2152 69.0352 28.1201V30.4834C69.035 31.3882 68.2972 32.123 67.3955 32.123H65.7568V26.4863H67.3955ZM44.417 26.4863C45.325 26.4864 46.0566 27.2152 46.0566 28.1201V30.4834C46.0565 31.3881 45.3249 32.1171 44.417 32.1172H42.7773V26.4863H44.417ZM111.708 26.4863C112.61 26.4863 113.348 27.2152 113.348 28.1201V30.4834C113.347 31.3882 112.61 32.1172 111.708 32.1172H110.068V26.4863H111.708Z" fill="white"/>
</svg>
