<svg width="166" height="66" viewBox="0 0 166 66" fill="none" xmlns="http://www.w3.org/2000/svg">
<g clip-path="url(#clip0_13581_215813)">
<path d="M23 37.9827V34.8982C23.4326 35.2351 23.9613 35.4087 24.5 35.3909C25.5815 35.3909 26.2539 34.8095 26.2539 33.6664V28.3498H30.895V34.5385C30.895 37.5343 28.9671 38.8203 26.1928 38.8203C24.6129 38.84 23.4702 38.3867 23 37.9827ZM39.0862 28C34.7038 28 32.0799 30.1976 32.0799 33.3264C32.0799 36.3468 34.7038 38.84 39.0721 38.84C43.4404 38.84 46.069 36.3764 46.069 33.3461C46.069 30.1976 43.4404 28 39.0862 28ZM39.0862 35.3909C38.8249 35.4132 38.562 35.3765 38.3154 35.2833C38.0687 35.1901 37.844 35.0426 37.6564 34.8506C37.4688 34.6587 37.3226 34.4269 37.2278 34.1707C37.1329 33.9146 37.0916 33.6401 37.1066 33.3658C37.1066 32.198 37.8589 31.4491 39.0721 31.4491C40.2853 31.4491 41.0564 32.1882 41.0564 33.3559C41.0729 33.6315 41.0325 33.9075 40.938 34.1652C40.8435 34.423 40.6971 34.6563 40.5088 34.8494C40.3205 35.0425 40.0947 35.1909 39.8468 35.2843C39.5989 35.3777 39.3346 35.4141 39.0721 35.3909H39.0862ZM72.5799 37.4062V34.4794C74.0247 35.3717 75.6709 35.8429 77.348 35.8442C78.2602 35.8442 78.6458 35.6964 78.6458 35.3515C78.6458 35.0066 78.4201 34.8883 77.7053 34.7849L76.337 34.5828C73.7508 34.2084 72.4671 33.2081 72.4671 31.4589C72.4671 29.488 74.2492 28.0099 78.3025 28.0099C80.8041 28.0099 82.2712 28.5863 83.0423 28.9953V31.863C81.7893 31.2623 80.4231 30.9658 79.0455 30.9958C77.8041 30.9958 77.4749 31.183 77.4749 31.4885C77.4749 31.7201 77.6207 31.863 78.4765 31.9517L79.9483 32.1241C82.3464 32.4001 83.71 33.2229 83.71 35.0805C83.71 37.3667 81.3589 38.7661 78.0016 38.7661C76.1153 38.8124 74.2516 38.3292 72.6034 37.3667M94.9765 33.3806C95.8605 33.3806 96.3495 32.9913 96.3495 32.2966C96.3495 31.6018 95.8793 31.2865 95.0188 31.2865H93.4765V33.3806H94.9765ZM95.9169 38.4754L93.4906 34.4794V38.4754H88.8307V28.3498H97.0596C99.5705 28.3498 101.141 29.6802 101.141 31.8334C101.171 32.5686 100.943 33.2899 100.502 33.8622C100.06 34.4344 99.4351 34.8185 98.743 34.9425L101.183 38.4754H95.9169ZM109.074 28C104.691 28 102.063 30.1976 102.063 33.3264C102.063 36.3468 104.691 38.84 109.05 38.84C113.409 38.84 116.047 36.3764 116.047 33.3461C116.052 30.1976 113.423 28 109.074 28ZM109.074 35.3909C108.814 35.4137 108.553 35.3781 108.308 35.2866C108.063 35.1952 107.839 35.0499 107.651 34.8605C107.464 34.6712 107.317 34.4421 107.221 34.1886C107.125 33.935 107.082 33.6629 107.094 33.3904C107.075 32.198 107.842 31.4491 109.05 31.4491C110.259 31.4491 111.034 32.1882 111.034 33.3559C111.051 33.6315 111.011 33.9075 110.916 34.1652C110.822 34.423 110.675 34.6563 110.487 34.8494C110.299 35.0425 110.073 35.1909 109.825 35.2843C109.577 35.3777 109.313 35.4141 109.05 35.3909H109.074ZM123.655 34.6567L122.644 31.0401L121.614 34.6567H123.655ZM124.299 36.943H120.975L120.547 38.4754H116.005L119.296 28.3449H126.161L129.415 38.4754H124.746L124.299 36.943ZM136.375 28.3449H130.21V38.4754H135.947C140.926 38.4754 143 35.9871 143 33.3412C143.014 30.4883 140.842 28.3449 136.375 28.3449ZM135.876 35.4944H134.861V31.3259H136.045C137.456 31.3259 138.016 32.2128 138.016 33.3264C138.016 34.6124 137.301 35.4944 135.876 35.4944ZM59.5737 28.3449V38.4754H53.9828L51.2132 32.8879V38.4754H47.2727V28.3449H52.9671L55.652 33.8881V28.3449H59.5737ZM71.2868 35.4796V38.4754H61.3511V28.3449H71.2586V31.3407H65.9922V32.2375H71.0282V34.4941H65.9922V35.4796H71.2868Z" fill="white"/>
</g>
<defs>
<clipPath id="clip0_13581_215813">
<rect width="120" height="10.84" fill="white" transform="translate(23 28)"/>
</clipPath>
</defs>
</svg>
