<svg width="455" height="206" viewBox="0 0 455 206" fill="none" xmlns="http://www.w3.org/2000/svg">
<g clip-path="url(#clip0_1020_18012)">
<mask id="mask0_1020_18012" style="mask-type:luminance" maskUnits="userSpaceOnUse" x="0" y="0" width="455" height="206">
<path d="M455 0.134766H0V205.864H455V0.134766Z" fill="white"/>
</mask>
<g mask="url(#mask0_1020_18012)">
<path d="M455 0.134766V68.7113H0V0.134766H455Z" fill="#1F1F1F"/>
<path d="M455 0.134766V68.7113H0V0.134766H455Z" stroke="#464646" stroke-width="1.08852" stroke-dasharray="2.18 2.18"/>
<path d="M43.2961 13.4277C54.8834 13.4277 64.2914 22.8357 64.2914 34.423C64.2914 46.0104 54.8834 55.4184 43.2961 55.4184C31.7088 55.4184 22.3008 46.0104 22.3008 34.423C22.3008 22.8357 31.7088 13.4277 43.2961 13.4277Z" fill="white"/>
<path d="M122.458 38.9045C120.683 38.9045 119.719 38.1589 119.719 36.7558C119.719 35.3962 120.42 34.3872 122.612 34.3872C124.651 34.3872 125.681 35.3962 125.681 36.6459C125.681 37.8302 124.651 38.9045 122.458 38.9045ZM125.945 37.3915C125.945 37.8302 125.945 38.1371 125.945 38.4223C125.945 41.9959 125.002 43.6396 122.678 43.6396C120.792 43.6396 119.872 42.8069 119.477 41.0533L117.109 41.4908C117.613 44.3417 119.235 45.8765 122.678 45.8765C126.712 45.8765 128.334 42.8286 128.334 38.9481C128.334 33.9714 126.032 32.1514 122.568 32.1514C119.082 32.1514 117.285 33.9714 117.285 36.6894C117.285 39.4738 119.192 40.5264 121.647 40.5264C123.95 40.5264 125.396 39.6055 125.857 37.3697L125.945 37.3915Z" fill="#C2F966"/>
<path d="M113.324 42.8936V45.5909H116.065V42.8936H113.324Z" fill="#C2F966"/>
<path d="M107.001 38.9045C105.226 38.9045 104.262 38.1589 104.262 36.7558C104.262 35.3962 104.963 34.3872 107.155 34.3872C109.194 34.3872 110.224 35.3962 110.224 36.6459C110.224 37.8302 109.194 38.9045 107.001 38.9045ZM110.488 37.3915C110.488 37.8302 110.488 38.1371 110.488 38.4223C110.488 41.9959 109.545 43.6396 107.221 43.6396C105.335 43.6396 104.415 42.8069 104.02 41.0533L101.652 41.4908C102.156 44.3417 103.778 45.8765 107.221 45.8765C111.255 45.8765 112.877 42.8286 112.877 38.9481C112.877 33.9714 110.575 32.1514 107.111 32.1514C103.625 32.1514 101.828 33.9714 101.828 36.6894C101.828 39.4738 103.735 40.5264 106.19 40.5264C108.493 40.5264 109.939 39.6055 110.4 37.3697L110.488 37.3915Z" fill="#C2F966"/>
<path d="M95.1146 38.9045C93.3392 38.9045 92.3748 38.1589 92.3748 36.7558C92.3748 35.3962 93.0758 34.3872 95.2681 34.3872C97.3069 34.3872 98.3377 35.3962 98.3377 36.6459C98.3377 37.8302 97.3069 38.9045 95.1146 38.9045ZM98.6011 37.3915C98.6011 37.8302 98.6011 38.1371 98.6011 38.4223C98.6011 41.9959 97.6585 43.6396 95.3345 43.6396C93.4481 43.6396 92.5283 42.8069 92.1331 41.0533L89.7656 41.4908C90.2696 44.3417 91.8915 45.8765 95.3345 45.8765C99.3685 45.8765 100.99 42.8286 100.99 38.9481C100.99 33.9714 98.6882 32.1514 95.2245 32.1514C91.738 32.1514 89.9409 33.9714 89.9409 36.6894C89.9409 39.4738 91.848 40.5264 94.3037 40.5264C96.6059 40.5264 98.0525 39.6055 98.5129 37.3697L98.6011 37.3915Z" fill="#C2F966"/>
<path d="M84.6538 48.309L84.5874 45.6128C87.6571 45.4158 89.0384 43.9463 89.0384 41.8639C89.0384 40.0222 88.0522 38.5091 84.3469 37.917C81.4525 37.4348 80.9703 36.8426 80.9703 35.9663C80.9703 35.0008 81.7812 34.3869 83.2507 34.3869C85.1143 34.3869 85.8817 35.2643 86.2757 36.9308L88.7314 36.4268C88.3156 34.4098 87.1748 32.8303 84.6103 32.4581L84.6538 30.1123H82.6368L82.6804 32.3927C79.9177 32.5898 78.4493 33.9711 78.4493 36.0317C78.4493 37.9834 79.6107 39.43 83.2507 40.0004C85.7282 40.3727 86.5174 40.8995 86.5174 41.951C86.5174 42.9601 85.6183 43.5958 83.93 43.5958C81.913 43.5958 80.6198 42.5432 80.2911 40.746L77.8789 41.2282C78.1423 43.4205 79.479 45.2405 82.6804 45.591L82.6368 48.309H84.6538Z" fill="#C2F966"/>
<g opacity="0.5">
<path d="M202.563 34.9619V29.7664H204.142C205.939 29.7664 206.795 30.7199 206.795 32.3309C206.795 33.9539 206.016 34.9619 204.218 34.9619H202.563ZM201.773 35.6531H204.296C206.389 35.6531 207.584 34.2935 207.584 32.3309C207.584 30.3694 206.443 29.0752 204.24 29.0752H201.773V35.6531Z" fill="#D3DBE3"/>
<path d="M200.645 35.6531V29.0752H199.855V35.6531H200.645Z" fill="#D3DBE3"/>
<path d="M193.231 32.715C193.352 31.6515 194.01 31.104 194.997 31.104C196.048 31.104 196.586 31.6951 196.641 32.715H193.231ZM195.041 35.7737C196.301 35.7737 197.058 35.1381 197.321 34.1072L196.641 33.9102C196.455 34.5677 196.048 35.0934 195.041 35.0934C193.955 35.0934 193.287 34.4468 193.21 33.3398H197.332C197.354 33.1319 197.354 32.9338 197.354 32.8032C197.354 31.3881 196.52 30.4346 195.019 30.4346C193.517 30.4346 192.453 31.4327 192.453 33.121C192.453 34.7756 193.451 35.7737 195.041 35.7737Z" fill="#D3DBE3"/>
<path d="M188.871 30.5552V31.2235H189.694V34.1614C189.694 35.1041 190.154 35.7735 191.173 35.7735C191.601 35.7735 191.886 35.718 192.226 35.6092L192.116 34.918C191.82 35.0061 191.59 35.0497 191.305 35.0497C190.691 35.0497 190.449 34.7318 190.449 34.0961V31.2235H192.171V30.5552H190.449V29.0977H189.694V30.5552H188.871Z" fill="#D3DBE3"/>
<path d="M187.496 34.2936V35.6532H188.242V30.5557H187.496V33.5926C187.496 34.5353 186.893 35.0828 185.929 35.0828C184.887 35.0828 184.569 34.3481 184.569 33.5926V30.5557H183.812V33.7679C183.812 34.8531 184.262 35.774 185.665 35.774C186.586 35.774 187.265 35.2809 187.474 34.2936H187.496Z" fill="#D3DBE3"/>
<path d="M178.94 33.1319V33.0655C178.94 31.8159 179.62 31.1258 180.694 31.1258C181.824 31.1258 182.36 31.8377 182.36 33.0982C182.36 34.3598 181.791 35.0934 180.694 35.0934C179.62 35.0934 178.94 34.3151 178.94 33.1319ZM183.117 33.0982C183.117 31.4654 182.36 30.4346 180.924 30.4346C179.785 30.4346 179.171 31.104 178.962 32.1011H178.94V30.5554H178.184V37.1768H178.94V34.0855H178.951C179.148 35.0934 179.751 35.7846 180.957 35.7737C182.306 35.7846 183.117 34.7538 183.117 33.0982Z" fill="#D3DBE3"/>
<path d="M175.489 35.7846C176.815 35.7846 177.451 35.1816 177.451 34.2716C177.451 33.4715 176.903 32.9893 175.533 32.7694C174.47 32.6051 174.152 32.309 174.152 31.8377C174.152 31.3555 174.536 31.0485 175.259 31.0485C175.993 31.0485 176.378 31.3772 176.586 32.2219L177.309 32.0467C177.057 31.0267 176.508 30.4346 175.248 30.4346C174.031 30.4346 173.406 31.0376 173.406 31.8823C173.406 32.6715 173.9 33.1428 175.204 33.3725C176.366 33.5586 176.706 33.8003 176.706 34.2825C176.696 34.8082 176.3 35.1489 175.5 35.1489C174.415 35.1489 174.042 34.5677 173.845 33.822L173.133 33.9646C173.373 35.0608 173.955 35.7846 175.489 35.7846Z" fill="#D3DBE3"/>
<path d="M172.401 29.6781V28.9336H171.48V29.6781H172.401ZM172.325 35.653V30.5555H171.569V35.653H172.325Z" fill="#D3DBE3"/>
<path d="M165.672 34.9619V29.7664H167.251C169.049 29.7664 169.904 30.7199 169.904 32.3309C169.904 33.9539 169.126 34.9619 167.328 34.9619H165.672ZM164.883 35.6531H167.405C169.498 35.6531 170.693 34.2935 170.693 32.3309C170.693 30.3694 169.553 29.0752 167.349 29.0752H164.883V35.6531Z" fill="#D3DBE3"/>
</g>
<path d="M301.519 31.1579V37.689C301.519 38.2897 301.031 38.7775 300.431 38.7775H228.589C227.988 38.7775 227.5 38.2897 227.5 37.689V31.1579C227.5 30.5571 227.988 30.0693 228.589 30.0693H300.431C301.031 30.0693 301.519 30.5571 301.519 31.1579Z" fill="white" fill-opacity="0.05"/>
<path d="M421.515 21.3609V47.4853C421.515 49.8883 419.563 51.8394 417.16 51.8394H376.885C374.482 51.8394 372.531 49.8883 372.531 47.4853V21.3609C372.531 18.9579 374.482 17.0068 376.885 17.0068H417.16C419.563 17.0068 421.515 18.9579 421.515 21.3609Z" fill="#C2F966"/>
<path d="M407.957 37.1918H409.41V32.718C409.41 32.1976 409.315 31.7557 409.128 31.3921C408.939 31.0286 408.669 30.7543 408.318 30.5703C407.965 30.3864 407.546 30.2949 407.059 30.2949C406.673 30.2949 406.322 30.3679 406.004 30.5148C405.686 30.6618 405.415 30.8631 405.19 31.1189C404.964 31.3747 404.789 31.6675 404.665 31.9963H404.263V33.4037H404.988C404.988 32.9966 405.067 32.6548 405.226 32.3794C405.382 32.104 405.585 31.8994 405.831 31.7655C406.077 31.6316 406.336 31.5652 406.608 31.5652C406.9 31.5652 407.146 31.6142 407.345 31.7122C407.544 31.8101 407.695 31.9593 407.8 32.1596C407.904 32.3598 407.957 32.6102 407.957 32.9106V37.1918ZM404.988 37.1918V32.0518L404.939 32.0551V30.4517H403.535V37.1918H404.988Z" fill="black"/>
<path d="M398.034 35.8623C397.748 35.6838 397.527 35.4215 397.371 35.0764C397.214 34.7314 397.136 34.3145 397.136 33.8246C397.136 33.3348 397.214 32.9168 397.371 32.5707C397.527 32.2245 397.748 31.9622 398.036 31.7837C398.321 31.6052 398.656 31.5159 399.039 31.5159C399.423 31.5159 399.756 31.6052 400.039 31.7837C400.322 31.9622 400.542 32.2245 400.7 32.5718C400.857 32.919 400.937 33.337 400.937 33.8246C400.937 34.3123 400.858 34.7292 400.702 35.0764C400.545 35.4237 400.324 35.686 400.039 35.8634C399.753 36.0409 399.42 36.1301 399.039 36.1301C398.654 36.1301 398.319 36.0409 398.034 35.8623ZM400.802 36.9139C401.314 36.6243 401.714 36.2129 402.001 35.6806C402.289 35.1483 402.432 34.53 402.432 33.8246C402.432 33.1193 402.289 32.4999 402.001 31.9665C401.714 31.4332 401.314 31.0217 400.802 30.7322C400.289 30.4426 399.701 30.2979 399.039 30.2979C398.375 30.2979 397.787 30.4426 397.273 30.7333C396.759 31.0239 396.357 31.4354 396.069 31.9676C395.78 32.4999 395.637 33.1193 395.637 33.8246C395.637 34.53 395.78 35.1483 396.068 35.6806C396.355 36.2129 396.757 36.6243 397.273 36.9139C397.789 37.2034 398.378 37.3482 399.039 37.3482C399.701 37.3482 400.289 37.2034 400.802 36.9139Z" fill="black"/>
<path d="M387.814 37.1919L389.343 31.4739C389.447 31.0777 389.547 30.6717 389.642 30.2559C389.737 29.84 389.834 29.3731 389.934 28.8549L389.529 28.9888C389.627 29.4395 389.724 29.8716 389.822 30.2863C389.917 30.7011 390.013 31.1016 390.107 31.487L391.625 37.1919H393.336L395.936 27.8916H394.329L392.928 33.2504C392.822 33.7075 392.717 34.1625 392.615 34.6165C392.512 35.0704 392.395 35.6114 392.262 36.2383H392.608C392.493 35.6701 392.383 35.1498 392.281 34.6785C392.176 34.2072 392.067 33.7315 391.952 33.2504L390.535 27.8916H388.908L387.498 33.2406C387.413 33.578 387.318 33.9884 387.214 34.4728C387.109 34.9572 386.984 35.5461 386.838 36.2383H387.191C387.062 35.6375 386.943 35.0878 386.832 34.5903C386.72 34.0929 386.618 33.652 386.525 33.2667L385.094 27.8916H383.504L386.1 37.1919H387.814Z" fill="black"/>
<path d="M50.8672 23.6075C51.8969 24.807 52.1919 26.1067 51.8969 28.0551C52.3389 28.3055 52.6828 28.5548 52.9767 28.9042C53.9586 30.0047 54.1055 31.6538 53.7616 33.5522C52.8788 38.1501 49.8364 39.7491 46.0091 39.7491H45.4203C44.9794 39.7491 44.5375 40.0985 44.4885 40.5491L43.6547 45.8459C43.6057 46.2954 43.2127 46.6459 42.7218 46.6459H38.7476C38.3558 46.6459 38.1098 46.3455 38.1588 45.9961L38.5027 43.8963H33.7916C33.3998 43.8963 33.1048 43.5469 33.1538 43.1474L36.3431 22.6583C36.4422 22.1086 36.883 21.708 37.4229 21.708H45.0284C47.6778 21.708 49.7384 22.2577 50.8672 23.6075Z" fill="#333333"/>
<path d="M50.7214 23.6053C51.7435 24.8037 52.0363 26.1013 51.7435 28.0486C51.6956 28.1988 51.6956 28.348 51.6466 28.4481C50.6735 33.7394 47.2664 35.5376 42.8873 35.5376H40.6483C40.1127 35.5376 39.6751 35.936 39.5772 36.4857L38.4582 43.8746H33.7862C33.3966 43.8746 33.1048 43.5251 33.1538 43.1257L36.317 22.6572C36.4139 22.1075 36.8526 21.708 37.3881 21.708H44.9305C47.5582 21.708 49.6024 22.2577 50.7214 23.6053Z" fill="black"/>
<path d="M41.8391 27.2997C41.3993 27.2997 40.9606 27.7493 40.9117 28.0987L38.4723 43.8746H33.7884C33.3976 43.8746 33.1048 43.5251 33.1538 43.1257L36.3257 22.6572C36.4226 22.1075 36.8624 21.708 37.399 21.708H44.9609C47.5962 21.708 49.6459 22.2577 50.7192 23.6554C51.7435 24.8538 52.0363 26.1513 51.7435 28.0987C51.2558 27.7993 50.2794 27.549 49.7428 27.4499C49.1572 27.3498 48.4747 27.2997 47.7911 27.2997H41.8391Z" fill="black"/>
<path d="M455 68.7109V137.287H0V68.7109H455Z" fill="#1F1F1F"/>
<path d="M455 68.7109V137.287H0V68.7109H455Z" stroke="#464646" stroke-width="1.08852" stroke-dasharray="2.18 2.18"/>
<path d="M43.2961 82.0039C54.8834 82.0039 64.2914 91.4119 64.2914 102.999C64.2914 114.587 54.8834 123.995 43.2961 123.995C31.7088 123.995 22.3008 114.587 22.3008 102.999C22.3008 91.4119 31.7088 82.0039 43.2961 82.0039Z" fill="white"/>
<path d="M33.7343 92.8291H49.212C51.4227 92.8291 53.1916 94.5979 53.1916 96.8087V112.618H37.382C35.1712 112.618 33.4023 110.849 33.4023 108.639V104.216C33.4023 102.005 35.1712 100.236 37.382 100.236H41.6936V106.538C41.6936 107.091 42.1366 107.644 42.7995 107.644H45.0103V98.9096C45.0103 98.3566 44.5683 97.8036 43.9054 97.8036H33.7343V92.8291Z" fill="black"/>
<path d="M116.235 92.981H117.437V88.1741C117.437 87.6581 117.33 87.2075 117.119 86.8232C116.907 86.439 116.604 86.144 116.214 85.9372C115.823 85.7304 115.369 85.627 114.851 85.627C114.45 85.627 114.093 85.6912 113.782 85.8196C113.468 85.9481 113.194 86.1342 112.956 86.378C112.719 86.6219 112.506 86.9245 112.316 87.2859H112.199V88.2394H112.656C112.785 87.9063 112.945 87.62 113.136 87.3806C113.328 87.1411 113.552 86.956 113.809 86.8265C114.066 86.697 114.352 86.6327 114.668 86.6327C114.996 86.6327 115.278 86.7024 115.513 86.8417C115.749 86.9811 115.927 87.1824 116.05 87.447C116.173 87.7115 116.235 88.0282 116.235 88.3961V92.981ZM112.682 92.981V87.1683H112.656L112.578 85.8229H111.48V92.981H112.682Z" fill="#F5F7FA"/>
<path d="M107.885 92.9357C108.311 92.767 108.676 92.5308 108.981 92.226C109.286 91.9212 109.522 91.5642 109.69 91.1549L108.645 90.9655C108.503 91.2442 108.337 91.4739 108.145 91.6545C107.954 91.8352 107.726 91.9702 107.463 92.0606C107.199 92.1509 106.893 92.1966 106.545 92.1966C106.044 92.1966 105.62 92.1008 105.273 91.9093C104.925 91.7177 104.659 91.4162 104.473 91.0047C104.286 90.5932 104.194 90.0631 104.194 89.4144V89.1662C104.207 88.6089 104.304 88.1343 104.485 87.7435C104.665 87.3527 104.921 87.0567 105.252 86.8553C105.583 86.6539 105.979 86.5538 106.441 86.5538C106.978 86.5538 107.41 86.6637 107.737 86.8836C108.064 87.1035 108.3 87.4028 108.446 87.7827C108.592 88.1626 108.676 88.6154 108.7 89.1401L109.236 88.8527H103.972V89.7801H109.85C109.85 89.717 109.85 89.6539 109.85 89.5907C109.85 89.5276 109.85 89.4645 109.85 89.4013C109.85 88.6546 109.725 87.996 109.475 87.4267C109.226 86.8575 108.848 86.4133 108.342 86.0933C107.836 85.7733 107.211 85.6133 106.467 85.6133C105.713 85.6133 105.077 85.7766 104.556 86.1042C104.036 86.4318 103.645 86.8825 103.384 87.4551C103.123 88.0276 102.992 88.6807 102.992 89.4144C102.992 90.1437 103.125 90.7924 103.391 91.3617C103.656 91.931 104.05 92.3784 104.574 92.7028C105.097 93.0272 105.733 93.1894 106.48 93.1894C106.991 93.1894 107.459 93.1045 107.885 92.9357Z" fill="#F5F7FA"/>
<path d="M96.5774 95.645C96.7102 95.645 96.843 95.645 96.9758 95.645C97.1086 95.645 97.2414 95.645 97.3742 95.645C97.7378 95.645 98.0556 95.5895 98.3278 95.4785C98.5999 95.3675 98.8339 95.1955 99.0309 94.9636C99.228 94.7318 99.3945 94.4324 99.5295 94.0645L102.534 85.8223H101.293L99.843 90.2504C99.7363 90.6204 99.6351 90.9895 99.5393 91.3585C99.4435 91.7275 99.3531 92.0899 99.2682 92.4448H99.438C99.3575 92.1182 99.2693 91.7873 99.1746 91.4521C99.0799 91.1168 98.9656 90.7162 98.8307 90.2504L97.2567 85.8223H95.9766L99.1376 94.1298L98.9809 92.4971L98.5498 93.6988C98.4649 93.9361 98.3713 94.1222 98.2701 94.2583C98.1688 94.3943 98.0491 94.4923 97.9098 94.5511C97.7704 94.6099 97.5963 94.6393 97.3873 94.6393C97.2523 94.6393 97.1173 94.6393 96.9824 94.6393C96.8474 94.6393 96.7124 94.6393 96.5774 94.6393V95.645Z" fill="#F5F7FA"/>
<path d="M94.6698 92.9808V83.4062H93.4681V87.2857V87.4163V91.2828V91.4134L93.5987 92.9808H94.6698ZM90.0958 91.8738C89.7769 91.6409 89.5363 91.3121 89.3741 90.8876C89.212 90.4631 89.1314 89.9678 89.1314 89.4018C89.1314 88.8227 89.212 88.3209 89.3741 87.8964C89.5363 87.4719 89.7769 87.1442 90.0958 86.9135C90.4148 86.6827 90.8034 86.5673 91.2605 86.5673C91.6872 86.5673 92.0769 86.6696 92.4296 86.8743C92.7823 87.0789 93.0686 87.3935 93.2885 87.818C93.5083 88.2425 93.6292 88.7705 93.6509 89.4018C93.6183 90.031 93.492 90.5567 93.2721 90.9791C93.0522 91.4014 92.7681 91.7138 92.4198 91.9174C92.0715 92.1209 91.6851 92.2232 91.2605 92.2232C90.8034 92.2232 90.4148 92.1068 90.0958 91.8738ZM92.7398 92.7163C93.1992 92.4094 93.5639 91.9772 93.8338 91.4199C94.1038 90.8626 94.2736 90.2117 94.3432 89.4671V89.3365C94.2779 88.605 94.1092 87.9584 93.8392 87.3978C93.5671 86.8373 93.2014 86.3997 92.7398 86.0851C92.2783 85.7705 91.7373 85.6138 91.1169 85.6138C90.4529 85.6138 89.8814 85.7662 89.4035 86.072C88.9257 86.3779 88.561 86.8155 88.3085 87.3837C88.056 87.9519 87.9297 88.6246 87.9297 89.4018C87.9297 90.1551 88.0625 90.8169 88.3292 91.3873C88.5959 91.9576 88.9703 92.3985 89.4525 92.7098C89.9347 93.0211 90.4899 93.1768 91.1169 93.1768C91.7395 93.1768 92.2805 93.0233 92.7398 92.7163Z" fill="#F5F7FA"/>
<path d="M85.278 90.486V89.454H79.9747V90.486H85.278ZM79.3477 92.9808L81.712 86.7632C81.8339 86.4432 81.9591 86.1101 82.0875 85.7651C82.216 85.42 82.339 85.0804 82.4587 84.7462C82.5763 84.412 82.6851 84.0964 82.7831 83.7981H82.5871C82.6873 84.1007 82.7961 84.4164 82.9137 84.7462C83.0313 85.076 83.1521 85.4091 83.2762 85.7444C83.4003 86.0796 83.5276 86.4193 83.6582 86.7632L86.0356 92.9808H87.3418L83.5407 83.4062H81.7904L78.0938 92.9808H79.3477Z" fill="#F5F7FA"/>
<path d="M131.891 102.964C133.558 102.964 134.325 103.798 134.325 104.894C134.325 106.144 133.558 106.823 130.752 107.547C127.442 108.402 126.016 109.717 126.016 112.809C126.016 113.291 126.016 113.729 126.038 114.168H136.978V111.954H131.278C130.467 111.954 129.392 111.976 128.471 111.998C128.581 110.573 129.283 110.046 131.716 109.388C135.005 108.643 136.825 107.393 136.825 104.916C136.825 102.175 135.049 100.75 131.913 100.75C128.428 100.75 126.63 102.921 126.345 106.561L128.691 106.758C128.91 104.127 130.006 102.964 131.891 102.964Z" fill="#C2F966"/>
<path d="M122.121 111.471V114.168H124.862V111.471H122.121Z" fill="#C2F966"/>
<path d="M116.346 112.238C114.417 112.238 113.43 111.252 112.926 109.739L110.492 110.266C111.238 113.204 113.168 114.387 116.324 114.387C119.459 114.387 121.565 113.006 121.565 110.024C121.565 107.657 120.073 106.1 116.982 106.1C115.645 106.1 114.571 106.363 113.782 106.758V103.249H120.819V101.014H111.413V107.986L113.628 108.753C114.197 108.293 115.228 107.942 116.39 107.942C118.276 107.942 119.065 108.731 119.065 110.003C119.065 111.494 118.166 112.238 116.346 112.238Z" fill="#C2F966"/>
<path d="M104.526 112.238C102.597 112.238 101.61 111.252 101.106 109.739L98.6719 110.266C99.4175 113.204 101.347 114.387 104.504 114.387C107.639 114.387 109.744 113.006 109.744 110.024C109.744 107.657 108.253 106.1 105.162 106.1C103.825 106.1 102.751 106.363 101.961 106.758V103.249H108.999V101.014H99.5928V107.986L101.808 108.753C102.377 108.293 103.408 107.942 104.569 107.942C106.456 107.942 107.245 108.731 107.245 110.003C107.245 111.494 106.346 112.238 104.526 112.238Z" fill="#C2F966"/>
<path d="M89.985 111.931V114.168H97.856V111.931H95.5321V101.014H94.129L89.6562 102.482L90.4454 104.499C91.4762 104.105 92.3307 103.776 93.1645 103.425V111.931H89.985Z" fill="#C2F966"/>
<path d="M84.6538 116.886L84.5874 114.19C87.6571 113.993 89.0384 112.523 89.0384 110.441C89.0384 108.599 88.0522 107.086 84.3469 106.494C81.4525 106.012 80.9703 105.42 80.9703 104.543C80.9703 103.578 81.7812 102.964 83.2507 102.964C85.1143 102.964 85.8817 103.841 86.2757 105.508L88.7314 105.004C88.3156 102.987 87.1748 101.407 84.6103 101.035L84.6538 98.6895H82.6368L82.6804 100.97C79.9177 101.167 78.4493 102.548 78.4493 104.609C78.4493 106.561 79.6107 108.007 83.2507 108.578C85.7282 108.95 86.5174 109.477 86.5174 110.528C86.5174 111.537 85.6183 112.173 83.93 112.173C81.913 112.173 80.6198 111.12 80.2911 109.323L77.8789 109.805C78.1423 111.998 79.479 113.818 82.6804 114.168L82.6368 116.886H84.6538Z" fill="#C2F966"/>
<g opacity="0.5">
<path d="M202.563 103.538V98.3426H204.142C205.939 98.3426 206.795 99.2961 206.795 100.907C206.795 102.53 206.016 103.538 204.218 103.538H202.563ZM201.773 104.229H204.296C206.389 104.229 207.584 102.87 207.584 100.907C207.584 98.9456 206.443 97.6514 204.24 97.6514H201.773V104.229Z" fill="#D3DBE3"/>
<path d="M200.645 104.229V97.6514H199.855V104.229H200.645Z" fill="#D3DBE3"/>
<path d="M193.231 101.291C193.352 100.228 194.01 99.6802 194.997 99.6802C196.048 99.6802 196.586 100.271 196.641 101.291H193.231ZM195.041 104.35C196.301 104.35 197.058 103.714 197.321 102.683L196.641 102.486C196.455 103.144 196.048 103.67 195.041 103.67C193.955 103.67 193.287 103.023 193.21 101.916H197.332C197.354 101.708 197.354 101.51 197.354 101.379C197.354 99.9643 196.52 99.0107 195.019 99.0107C193.517 99.0107 192.453 100.009 192.453 101.697C192.453 103.352 193.451 104.35 195.041 104.35Z" fill="#D3DBE3"/>
<path d="M188.871 99.1314V99.7997H189.694V102.738C189.694 103.68 190.154 104.35 191.173 104.35C191.601 104.35 191.886 104.294 192.226 104.185L192.116 103.494C191.82 103.582 191.59 103.626 191.305 103.626C190.691 103.626 190.449 103.308 190.449 102.672V99.7997H192.171V99.1314H190.449V97.6738H189.694V99.1314H188.871Z" fill="#D3DBE3"/>
<path d="M187.496 102.87V104.229H188.242V99.1318H187.496V102.169C187.496 103.111 186.893 103.659 185.929 103.659C184.887 103.659 184.569 102.924 184.569 102.169V99.1318H183.812V102.344C183.812 103.429 184.262 104.35 185.665 104.35C186.586 104.35 187.265 103.857 187.474 102.87H187.496Z" fill="#D3DBE3"/>
<path d="M178.94 101.708V101.642C178.94 100.392 179.62 99.702 180.694 99.702C181.824 99.702 182.36 100.414 182.36 101.674C182.36 102.936 181.791 103.67 180.694 103.67C179.62 103.67 178.94 102.891 178.94 101.708ZM183.117 101.674C183.117 100.042 182.36 99.0107 180.924 99.0107C179.785 99.0107 179.171 99.6802 178.962 100.677H178.94V99.1316H178.184V105.753H178.94V102.662H178.951C179.148 103.67 179.751 104.361 180.957 104.35C182.306 104.361 183.117 103.33 183.117 101.674Z" fill="#D3DBE3"/>
<path d="M175.489 104.361C176.815 104.361 177.451 103.758 177.451 102.848C177.451 102.048 176.903 101.565 175.533 101.346C174.47 101.181 174.152 100.885 174.152 100.414C174.152 99.9316 174.536 99.6247 175.259 99.6247C175.993 99.6247 176.378 99.9534 176.586 100.798L177.309 100.623C177.057 99.6029 176.508 99.0107 175.248 99.0107C174.031 99.0107 173.406 99.6138 173.406 100.458C173.406 101.248 173.9 101.719 175.204 101.949C176.366 102.135 176.706 102.376 176.706 102.859C176.696 103.384 176.3 103.725 175.5 103.725C174.415 103.725 174.042 103.144 173.845 102.398L173.133 102.541C173.373 103.637 173.955 104.361 175.489 104.361Z" fill="#D3DBE3"/>
<path d="M172.401 98.2543V97.5098H171.48V98.2543H172.401ZM172.325 104.229V99.1317H171.569V104.229H172.325Z" fill="#D3DBE3"/>
<path d="M165.672 103.538V98.3426H167.251C169.049 98.3426 169.904 99.2961 169.904 100.907C169.904 102.53 169.126 103.538 167.328 103.538H165.672ZM164.883 104.229H167.405C169.498 104.229 170.693 102.87 170.693 100.907C170.693 98.9456 169.553 97.6514 167.349 97.6514H164.883V104.229Z" fill="#D3DBE3"/>
</g>
<path d="M301.519 99.734V106.265C301.519 106.866 301.031 107.354 300.431 107.354H228.589C227.988 107.354 227.5 106.866 227.5 106.265V99.734C227.5 99.1333 227.988 98.6455 228.589 98.6455H300.431C301.031 98.6455 301.519 99.1333 301.519 99.734Z" fill="white" fill-opacity="0.05"/>
<path d="M421.515 89.9371V116.061C421.515 118.464 419.563 120.416 417.16 120.416H376.885C374.482 120.416 372.531 118.464 372.531 116.061V89.9371C372.531 87.5341 374.482 85.583 376.885 85.583H417.16C419.563 85.583 421.515 87.5341 421.515 89.9371Z" fill="#C2F966"/>
<path d="M407.957 105.769H409.41V101.295C409.41 100.775 409.315 100.333 409.128 99.9693C408.939 99.6057 408.669 99.3314 408.318 99.1475C407.965 98.9635 407.546 98.8721 407.059 98.8721C406.673 98.8721 406.322 98.945 406.004 99.092C405.686 99.2389 405.415 99.4403 405.19 99.6961C404.964 99.9519 404.789 100.245 404.665 100.573H404.263V101.981H404.988C404.988 101.574 405.067 101.232 405.226 100.957C405.382 100.681 405.585 100.477 405.831 100.343C406.077 100.209 406.336 100.142 406.608 100.142C406.9 100.142 407.146 100.191 407.345 100.289C407.544 100.387 407.695 100.536 407.8 100.737C407.904 100.937 407.957 101.187 407.957 101.488V105.769ZM404.988 105.769V100.629L404.939 100.632V99.0288H403.535V105.769H404.988Z" fill="black"/>
<path d="M398.034 104.439C397.748 104.261 397.527 103.999 397.371 103.654C397.214 103.309 397.136 102.892 397.136 102.402C397.136 101.912 397.214 101.494 397.371 101.148C397.527 100.802 397.748 100.539 398.036 100.361C398.321 100.182 398.656 100.093 399.039 100.093C399.423 100.093 399.756 100.182 400.039 100.361C400.322 100.539 400.542 100.802 400.7 101.149C400.857 101.496 400.937 101.914 400.937 102.402C400.937 102.889 400.858 103.306 400.702 103.654C400.545 104.001 400.324 104.263 400.039 104.441C399.753 104.618 399.42 104.707 399.039 104.707C398.654 104.707 398.319 104.618 398.034 104.439ZM400.802 105.491C401.314 105.201 401.714 104.79 402.001 104.258C402.289 103.725 402.432 103.107 402.432 102.402C402.432 101.696 402.289 101.077 402.001 100.544C401.714 100.01 401.314 99.5989 400.802 99.3093C400.289 99.0198 399.701 98.875 399.039 98.875C398.375 98.875 397.787 99.0198 397.273 99.3104C396.759 99.601 396.357 100.013 396.069 100.545C395.78 101.077 395.637 101.696 395.637 102.402C395.637 103.107 395.78 103.725 396.068 104.258C396.355 104.79 396.757 105.201 397.273 105.491C397.789 105.781 398.378 105.925 399.039 105.925C399.701 105.925 400.289 105.781 400.802 105.491Z" fill="black"/>
<path d="M387.814 105.769L389.343 100.051C389.447 99.6548 389.547 99.2488 389.642 98.833C389.737 98.4172 389.834 97.9502 389.934 97.4321L389.529 97.566C389.627 98.0166 389.724 98.4488 389.822 98.8635C389.917 99.2782 390.013 99.6788 390.107 100.064L391.625 105.769H393.336L395.936 96.4688H394.329L392.928 101.828C392.822 102.285 392.717 102.74 392.615 103.194C392.512 103.648 392.395 104.189 392.262 104.815H392.608C392.493 104.247 392.383 103.727 392.281 103.256C392.176 102.784 392.067 102.309 391.952 101.828L390.535 96.4688H388.908L387.498 101.818C387.413 102.155 387.318 102.566 387.214 103.05C387.109 103.534 386.984 104.123 386.838 104.815H387.191C387.062 104.215 386.943 103.665 386.832 103.167C386.72 102.67 386.618 102.229 386.525 101.844L385.094 96.4688H383.504L386.1 105.769H387.814Z" fill="black"/>
<path d="M455 137.288V205.865H0V137.288H455Z" fill="#1F1F1F"/>
<path d="M455 137.288V205.865H0V137.288H455Z" stroke="#464646" stroke-width="1.08852" stroke-dasharray="2.18 2.18"/>
<path d="M43.2961 150.581C54.8834 150.581 64.2914 159.989 64.2914 171.576C64.2914 183.164 54.8834 192.572 43.2961 192.572C31.7088 192.572 22.3008 183.164 22.3008 171.576C22.3008 159.989 31.7088 150.581 43.2961 150.581Z" fill="white"/>
<path d="M44.3588 160.166C44.6788 160.953 44.7702 161.892 44.7702 162.549C45.2731 162.395 45.7303 162.265 46.1418 162.155C45.9132 161.478 45.4103 160.363 44.3588 160.166ZM43.513 176.363C43.2844 173.063 39.4202 172.756 39.3287 171.357C39.3059 171.117 39.3287 170.09 41.0203 169.98C42.1872 169.893 43.1701 170.33 43.1701 170.33L44.0387 167.183C44.0387 167.183 43.2844 166.833 41.7975 166.92C37.9572 167.161 36.2188 169.718 36.4017 172.231C36.6074 175.249 39.763 175.139 39.8773 176.975C39.9002 177.413 39.603 178.046 38.803 178.09C37.5686 178.177 36.036 177.062 36.036 177.062L35.4416 179.467C35.4416 179.467 36.9743 181.041 39.763 180.865C42.0729 180.735 43.673 178.964 43.513 176.363ZM42.8272 159.533C42.5986 159.401 42.3243 159.336 42.0043 159.336C39.8773 159.401 38.0258 162.571 37.5457 164.647C38.3001 164.429 39.123 164.188 39.9459 163.948C40.2202 162.614 40.8831 161.215 41.7518 160.32C42.0957 159.991 42.4615 159.707 42.8272 159.533ZM40.9517 163.663C41.9357 163.379 42.9415 163.073 43.8559 162.811C43.8787 162.089 43.7873 161.018 43.3987 160.231C43.0101 160.407 42.6672 160.691 42.4158 160.931C41.7746 161.608 41.226 162.636 40.9517 163.663ZM47.0115 161.871C47.5372 161.718 47.8573 161.631 47.8573 161.631C47.903 161.608 47.9716 161.608 48.063 161.587V185.564L30.7773 182.702C30.7773 182.702 32.8586 167.291 32.9957 166.745C33.0872 166.024 33.11 166.003 33.9101 165.762C33.933 165.74 35.0302 165.412 36.6074 164.953C36.7675 163.794 37.3629 162.308 38.1401 161.128C39.2373 159.444 40.6088 158.505 41.9814 158.461C42.6901 158.44 43.2844 158.658 43.7416 159.138C43.7644 159.183 43.8102 159.205 43.833 159.248C43.9244 159.227 43.993 159.227 44.0616 159.227C45.1131 159.227 46.0046 159.817 46.5989 160.91C46.7818 161.259 46.919 161.587 47.0115 161.871Z" fill="black"/>
<path d="M55.8166 183.773L48.6367 185.478V161.851C49.0939 162.287 50.3294 163.423 50.3294 163.423C50.3294 163.423 52.3409 163.468 52.4552 163.468C52.5695 163.468 52.6838 163.555 52.7067 163.686C52.7295 163.818 55.8166 183.773 55.8166 183.773Z" fill="black"/>
<path d="M121.882 164.222C122.015 164.222 122.148 164.222 122.281 164.222C122.413 164.222 122.546 164.222 122.679 164.222C123.042 164.222 123.36 164.167 123.632 164.056C123.905 163.945 124.139 163.773 124.336 163.541C124.533 163.309 124.699 163.01 124.834 162.642L127.838 154.399H126.598L125.148 158.827C125.041 159.198 124.94 159.567 124.844 159.936C124.748 160.305 124.658 160.667 124.573 161.022H124.743C124.662 160.695 124.574 160.364 124.479 160.029C124.385 159.694 124.27 159.293 124.135 158.827L122.561 154.399H121.281L124.442 162.707L124.286 161.074L123.855 162.276C123.77 162.513 123.677 162.699 123.575 162.835C123.474 162.971 123.354 163.069 123.214 163.128C123.075 163.187 122.901 163.216 122.692 163.216C122.557 163.216 122.422 163.216 122.287 163.216C122.152 163.216 122.017 163.216 121.882 163.216V164.222Z" fill="#F5F7FA"/>
<path d="M117.781 155.248L120.889 155.379V154.399L117.781 154.53L115.547 154.399V155.379L117.781 155.248ZM118.381 161.557V156.75L118.251 154.895L117.99 153.733C117.99 153.552 118.016 153.396 118.07 153.266C118.122 153.135 118.21 153.025 118.331 152.937C118.452 152.849 118.612 152.784 118.812 152.74C118.984 152.76 119.157 152.778 119.331 152.797C119.504 152.815 119.677 152.834 119.851 152.851C120.025 152.868 120.199 152.886 120.372 152.904C120.545 152.923 120.717 152.942 120.889 152.962V151.982C120.87 151.982 120.85 151.982 120.831 151.982C120.811 151.982 120.791 151.982 120.772 151.982C120.478 151.982 120.184 151.982 119.89 151.982C119.596 151.982 119.302 151.982 119.008 151.982C118.636 151.982 118.312 152.051 118.037 152.188C117.761 152.325 117.55 152.521 117.402 152.777C117.254 153.033 117.18 153.334 117.18 153.681L117.31 154.895L117.18 156.75V161.557H118.381Z" fill="#F5F7FA"/>
<path d="M114.499 152.819V151.277H113.297V152.819H114.499ZM114.499 161.557V154.399H113.297V161.557H114.499Z" fill="#F5F7FA"/>
<path d="M107.176 160.494C106.827 160.29 106.543 159.978 106.323 159.556C106.104 159.133 105.977 158.608 105.945 157.978C105.966 157.347 106.087 156.819 106.307 156.395C106.527 155.97 106.813 155.656 107.166 155.451C107.519 155.246 107.908 155.144 108.335 155.144C108.792 155.144 109.18 155.259 109.5 155.49C109.818 155.721 110.058 156.049 110.22 156.473C110.383 156.898 110.464 157.399 110.464 157.978C110.464 158.544 110.383 159.04 110.22 159.464C110.058 159.889 109.818 160.218 109.5 160.45C109.18 160.683 108.792 160.8 108.335 160.8C107.91 160.8 107.524 160.698 107.176 160.494ZM106.128 164.222V160.121V159.99V156.098V155.967L106.049 154.399H104.926V164.222H106.128ZM110.142 161.286C110.624 160.975 110.999 160.534 111.265 159.964C111.532 159.394 111.666 158.732 111.666 157.978C111.666 157.201 111.54 156.529 111.287 155.96C111.035 155.392 110.669 154.955 110.191 154.649C109.713 154.343 109.143 154.19 108.479 154.19C107.858 154.19 107.317 154.347 106.856 154.662C106.394 154.976 106.027 155.414 105.756 155.975C105.485 156.535 105.318 157.182 105.252 157.913V158.044C105.322 158.788 105.492 159.439 105.762 159.997C106.032 160.554 106.396 160.986 106.856 161.293C107.315 161.6 107.856 161.753 108.479 161.753C109.106 161.753 109.66 161.598 110.142 161.286Z" fill="#F5F7FA"/>
<path d="M98.4008 160.398C98.0449 160.174 97.7793 159.855 97.603 159.443C97.4266 159.03 97.3384 158.542 97.3384 157.978C97.3384 157.415 97.4266 156.926 97.603 156.513C97.7793 156.101 98.0449 155.783 98.4008 155.559C98.7568 155.334 99.1955 155.222 99.7158 155.222C100.236 155.222 100.674 155.334 101.03 155.559C101.387 155.783 101.652 156.101 101.829 156.513C102.005 156.926 102.093 157.415 102.093 157.978C102.093 158.542 102.005 159.03 101.829 159.443C101.652 159.855 101.387 160.174 101.03 160.398C100.674 160.622 100.236 160.735 99.7158 160.735C99.1955 160.735 98.7568 160.622 98.4008 160.398ZM101.647 161.3C102.183 160.988 102.593 160.547 102.874 159.978C103.154 159.409 103.295 158.743 103.295 157.978C103.295 157.219 103.154 156.554 102.874 155.984C102.593 155.415 102.183 154.974 101.646 154.661C101.108 154.347 100.465 154.19 99.7158 154.19C98.9669 154.19 98.3235 154.347 97.7858 154.661C97.2481 154.974 96.8388 155.415 96.558 155.984C96.2771 156.554 96.1367 157.219 96.1367 157.978C96.1367 158.743 96.2771 159.409 96.558 159.978C96.8388 160.547 97.247 160.988 97.7836 161.3C98.3203 161.611 98.9647 161.767 99.7158 161.767C100.467 161.767 101.11 161.611 101.647 161.3Z" fill="#F5F7FA"/>
<path d="M89.7486 161.557V151.982H88.5469V161.557H89.7486ZM93.3015 161.557H94.5032V156.75C94.5032 156.234 94.3966 155.784 94.1843 155.399C93.972 155.015 93.6705 154.72 93.2808 154.513C92.889 154.306 92.4351 154.203 91.9169 154.203C91.5163 154.203 91.1593 154.267 90.8469 154.396C90.5345 154.524 90.2602 154.71 90.0229 154.954C89.7856 155.198 89.5723 155.501 89.3829 155.862H89.2653V156.815H89.7225C89.8509 156.482 90.0109 156.196 90.2025 155.957C90.3941 155.717 90.6183 155.532 90.8752 155.403C91.1321 155.273 91.4184 155.209 91.7341 155.209C92.0628 155.209 92.3447 155.278 92.5798 155.418C92.8149 155.557 92.9935 155.758 93.1165 156.023C93.2395 156.288 93.3015 156.604 93.3015 156.972V161.557Z" fill="#F5F7FA"/>
<path d="M85.0156 161.424C85.6317 161.197 86.1085 160.863 86.4459 160.421C86.7834 159.979 86.9521 159.443 86.9521 158.814C86.9521 158.379 86.853 157.994 86.6549 157.661C86.4568 157.328 86.1292 157.039 85.6742 156.793C85.217 156.547 84.6118 156.35 83.8563 156.202L82.5893 155.953C82.0189 155.842 81.5792 155.721 81.27 155.588C80.9609 155.455 80.7421 155.291 80.6137 155.095C80.4852 154.899 80.421 154.645 80.421 154.334C80.421 154.001 80.5157 153.717 80.7051 153.483C80.8945 153.249 81.171 153.071 81.5367 152.949C81.9003 152.827 82.3433 152.766 82.8636 152.766C83.434 152.766 83.9086 152.825 84.2874 152.943C84.6662 153.06 84.9612 153.24 85.1745 153.483C85.3868 153.725 85.525 154.038 85.5904 154.419L86.7888 154.298C86.7104 153.767 86.5265 153.311 86.2358 152.931C85.9452 152.551 85.5229 152.257 84.9699 152.048C84.4169 151.839 83.7236 151.734 82.8897 151.734C82.1169 151.734 81.4518 151.843 80.8967 152.061C80.3394 152.279 79.9148 152.591 79.6209 152.999C79.327 153.407 79.1801 153.892 79.1801 154.451C79.1801 154.956 79.2944 155.379 79.523 155.719C79.7516 156.06 80.0825 156.334 80.5157 156.542C80.9489 156.75 81.4964 156.92 82.1583 157.051L83.4253 157.299C83.9282 157.397 84.3418 157.509 84.6684 157.636C84.9928 157.764 85.2486 157.936 85.4336 158.152C85.6187 158.369 85.7112 158.646 85.7112 158.984C85.7112 159.35 85.6023 159.663 85.3868 159.925C85.1691 160.188 84.8502 160.388 84.4278 160.526C84.0055 160.665 83.4928 160.734 82.8897 160.734C82.2671 160.734 81.7457 160.656 81.3255 160.499C80.9054 160.342 80.5777 160.114 80.3448 159.814C80.1097 159.515 79.9551 159.147 79.8789 158.71L78.6445 158.83C78.7599 159.475 78.9939 160.015 79.3466 160.45C79.6993 160.886 80.1685 161.213 80.7541 161.434C81.3397 161.655 82.0385 161.766 82.8506 161.766C83.6778 161.766 84.3995 161.652 85.0156 161.424Z" fill="#F5F7FA"/>
<path d="M135.438 171.54C137.105 171.54 137.872 172.374 137.872 173.47C137.872 174.72 137.105 175.399 134.299 176.123C130.988 176.978 129.562 178.293 129.562 181.385C129.562 181.867 129.562 182.306 129.585 182.744H140.525V180.53H134.824C134.013 180.53 132.939 180.552 132.018 180.574C132.128 179.149 132.83 178.622 135.263 177.965C138.551 177.219 140.371 175.969 140.371 173.492C140.371 170.751 138.596 169.326 135.46 169.326C131.975 169.326 130.176 171.497 129.892 175.137L132.238 175.334C132.457 172.703 133.553 171.54 135.438 171.54Z" fill="#C2F966"/>
<path d="M124.959 172.046V177.614H122.81C122.087 177.614 121.144 177.636 120.114 177.658L124.915 172.024L124.959 172.046ZM124.959 179.74V182.745H127.349V179.74H129.191V177.614H127.349V169.59H124.433L117.395 177.614V179.74H124.959Z" fill="#C2F966"/>
<path d="M113.348 180.047V182.744H116.089V180.047H113.348Z" fill="#C2F966"/>
<path d="M107.025 176.058C105.249 176.058 104.285 175.312 104.285 173.909C104.285 172.55 104.986 171.541 107.178 171.541C109.217 171.541 110.248 172.55 110.248 173.799C110.248 174.983 109.217 176.058 107.025 176.058ZM110.511 174.545C110.511 174.983 110.511 175.29 110.511 175.576C110.511 179.149 109.569 180.793 107.245 180.793C105.358 180.793 104.438 179.96 104.043 178.207L101.676 178.644C102.18 181.495 103.802 183.03 107.245 183.03C111.279 183.03 112.901 179.982 112.901 176.101C112.901 171.125 110.598 169.305 107.135 169.305C103.648 169.305 101.851 171.125 101.851 173.843C101.851 176.627 103.758 177.68 106.214 177.68C108.516 177.68 109.963 176.759 110.423 174.523L110.511 174.545Z" fill="#C2F966"/>
<path d="M95.6866 176.298C97.5937 176.298 98.4047 177.044 98.4047 178.425C98.4047 179.785 97.7254 180.793 95.5114 180.793C93.428 180.793 92.4418 179.785 92.4418 178.535C92.4418 177.351 93.4062 176.298 95.6866 176.298ZM92.1784 177.877C92.1784 177.373 92.1784 177.066 92.1784 176.759C92.1784 173.185 93.121 171.541 95.5332 171.541C97.3967 171.541 98.0106 172.506 98.3611 174.325L100.752 174.106C100.423 171.015 99.1721 169.305 95.5332 169.305C91.411 169.305 89.7891 172.353 89.7891 176.233C89.7891 181.21 92.0913 183.03 95.4679 183.03C99.0415 183.03 100.839 181.21 100.839 178.491C100.839 175.706 98.9315 174.677 96.4758 174.677C94.2835 174.677 92.7052 175.531 92.2883 177.877H92.1784Z" fill="#C2F966"/>
<path d="M84.6538 185.462L84.5874 182.766C87.6571 182.569 89.0384 181.1 89.0384 179.017C89.0384 177.175 88.0522 175.662 84.3469 175.07C81.4525 174.588 80.9703 173.996 80.9703 173.12C80.9703 172.154 81.7812 171.54 83.2507 171.54C85.1143 171.54 85.8817 172.418 86.2757 174.084L88.7314 173.58C88.3156 171.563 87.1748 169.984 84.6103 169.611L84.6538 167.266H82.6368L82.6804 169.546C79.9177 169.743 78.4493 171.124 78.4493 173.185C78.4493 175.137 79.6107 176.583 83.2507 177.154C85.7282 177.526 86.5174 178.053 86.5174 179.104C86.5174 180.113 85.6183 180.749 83.93 180.749C81.913 180.749 80.6198 179.696 80.2911 177.899L77.8789 178.382C78.1423 180.574 79.479 182.394 82.6804 182.744L82.6368 185.462H84.6538Z" fill="#C2F966"/>
<g opacity="0.5">
<path d="M202.563 172.115V166.92H204.142C205.939 166.92 206.795 167.873 206.795 169.484C206.795 171.107 206.016 172.115 204.218 172.115H202.563ZM201.773 172.806H204.296C206.389 172.806 207.584 171.447 207.584 169.484C207.584 167.523 206.443 166.229 204.24 166.229H201.773V172.806Z" fill="#D3DBE3"/>
<path d="M200.645 172.806V166.229H199.855V172.806H200.645Z" fill="#D3DBE3"/>
<path d="M193.231 169.868C193.352 168.805 194.01 168.257 194.997 168.257C196.048 168.257 196.586 168.848 196.641 169.868H193.231ZM195.041 172.927C196.301 172.927 197.058 172.291 197.321 171.261L196.641 171.064C196.455 171.721 196.048 172.247 195.041 172.247C193.955 172.247 193.287 171.6 193.21 170.493H197.332C197.354 170.285 197.354 170.087 197.354 169.957C197.354 168.541 196.52 167.588 195.019 167.588C193.517 167.588 192.453 168.586 192.453 170.274C192.453 171.929 193.451 172.927 195.041 172.927Z" fill="#D3DBE3"/>
<path d="M188.871 167.709V168.377H189.694V171.315C189.694 172.257 190.154 172.927 191.173 172.927C191.601 172.927 191.886 172.871 192.226 172.762L192.116 172.071C191.82 172.159 191.59 172.203 191.305 172.203C190.691 172.203 190.449 171.885 190.449 171.249V168.377H192.171V167.709H190.449V166.251H189.694V167.709H188.871Z" fill="#D3DBE3"/>
<path d="M187.496 171.447V172.807H188.242V167.709H187.496V170.746C187.496 171.689 186.893 172.236 185.929 172.236C184.887 172.236 184.569 171.501 184.569 170.746V167.709H183.812V170.921C183.812 172.006 184.262 172.927 185.665 172.927C186.586 172.927 187.265 172.434 187.474 171.447H187.496Z" fill="#D3DBE3"/>
<path d="M178.94 170.285V170.219C178.94 168.969 179.62 168.279 180.694 168.279C181.824 168.279 182.36 168.991 182.36 170.251C182.36 171.513 181.791 172.247 180.694 172.247C179.62 172.247 178.94 171.468 178.94 170.285ZM183.117 170.251C183.117 168.619 182.36 167.588 180.924 167.588C179.785 167.588 179.171 168.257 178.962 169.254H178.94V167.709H178.184V174.33H178.94V171.239H178.951C179.148 172.247 179.751 172.938 180.957 172.927C182.306 172.938 183.117 171.907 183.117 170.251Z" fill="#D3DBE3"/>
<path d="M175.489 172.938C176.815 172.938 177.451 172.335 177.451 171.425C177.451 170.625 176.903 170.143 175.533 169.923C174.47 169.758 174.152 169.462 174.152 168.991C174.152 168.509 174.536 168.202 175.259 168.202C175.993 168.202 176.378 168.531 176.586 169.375L177.309 169.2C177.057 168.18 176.508 167.588 175.248 167.588C174.031 167.588 173.406 168.191 173.406 169.036C173.406 169.825 173.9 170.296 175.204 170.526C176.366 170.712 176.706 170.954 176.706 171.436C176.696 171.962 176.3 172.302 175.5 172.302C174.415 172.302 174.042 171.721 173.845 170.975L173.133 171.118C173.373 172.214 173.955 172.938 175.489 172.938Z" fill="#D3DBE3"/>
<path d="M172.401 166.831V166.087H171.48V166.831H172.401ZM172.325 172.806V167.709H171.569V172.806H172.325Z" fill="#D3DBE3"/>
<path d="M165.672 172.115V166.92H167.251C169.049 166.92 169.904 167.873 169.904 169.484C169.904 171.107 169.126 172.115 167.328 172.115H165.672ZM164.883 172.806H167.405C169.498 172.806 170.693 171.447 170.693 169.484C170.693 167.523 169.553 166.229 167.349 166.229H164.883V172.806Z" fill="#D3DBE3"/>
</g>
<path d="M301.519 168.31V174.841C301.519 175.442 301.031 175.93 300.431 175.93H228.589C227.988 175.93 227.5 175.442 227.5 174.841V168.31C227.5 167.709 227.988 167.222 228.589 167.222H300.431C301.031 167.222 301.519 167.709 301.519 168.31Z" fill="white" fill-opacity="0.05"/>
<path d="M421.515 158.514V184.639C421.515 187.042 419.563 188.993 417.16 188.993H376.885C374.482 188.993 372.531 187.042 372.531 184.639V158.514C372.531 156.111 374.482 154.16 376.885 154.16H417.16C419.563 154.16 421.515 156.111 421.515 158.514Z" fill="#C2F966"/>
<path d="M407.957 174.345H409.41V169.871C409.41 169.351 409.315 168.909 409.128 168.545C408.939 168.182 408.669 167.908 408.318 167.724C407.965 167.54 407.546 167.448 407.059 167.448C406.673 167.448 406.322 167.521 406.004 167.668C405.686 167.815 405.415 168.016 405.19 168.272C404.964 168.528 404.789 168.821 404.665 169.15H404.263V170.557H404.988C404.988 170.15 405.067 169.808 405.226 169.533C405.382 169.257 405.585 169.053 405.831 168.919C406.077 168.785 406.336 168.719 406.608 168.719C406.9 168.719 407.146 168.768 407.345 168.865C407.544 168.963 407.695 169.113 407.8 169.313C407.904 169.513 407.957 169.764 407.957 170.064V174.345ZM404.988 174.345V169.205L404.939 169.208V167.605H403.535V174.345H404.988Z" fill="black"/>
<path d="M398.034 173.016C397.748 172.837 397.527 172.575 397.371 172.23C397.214 171.885 397.136 171.468 397.136 170.978C397.136 170.488 397.214 170.07 397.371 169.724C397.527 169.378 397.748 169.116 398.036 168.937C398.321 168.758 398.656 168.669 399.039 168.669C399.423 168.669 399.756 168.758 400.039 168.937C400.322 169.116 400.542 169.378 400.7 169.725C400.857 170.072 400.937 170.49 400.937 170.978C400.937 171.466 400.858 171.883 400.702 172.23C400.545 172.577 400.324 172.839 400.039 173.017C399.753 173.194 399.42 173.283 399.039 173.283C398.654 173.283 398.319 173.194 398.034 173.016ZM400.802 174.067C401.314 173.778 401.714 173.366 402.001 172.834C402.289 172.302 402.432 171.683 402.432 170.978C402.432 170.273 402.289 169.653 402.001 169.12C401.714 168.586 401.314 168.175 400.802 167.885C400.289 167.596 399.701 167.451 399.039 167.451C398.375 167.451 397.787 167.596 397.273 167.887C396.759 168.177 396.357 168.589 396.069 169.121C395.78 169.653 395.637 170.273 395.637 170.978C395.637 171.683 395.78 172.302 396.068 172.834C396.355 173.366 396.757 173.778 397.273 174.067C397.789 174.357 398.378 174.501 399.039 174.501C399.701 174.501 400.289 174.357 400.802 174.067Z" fill="black"/>
<path d="M387.814 174.345L389.343 168.627C389.447 168.231 389.547 167.825 389.642 167.409C389.737 166.993 389.834 166.526 389.934 166.008L389.529 166.142C389.627 166.593 389.724 167.025 389.822 167.44C389.917 167.854 390.013 168.255 390.107 168.64L391.625 174.345H393.336L395.936 165.045H394.329L392.928 170.404C392.822 170.861 392.717 171.316 392.615 171.77C392.512 172.224 392.395 172.765 392.262 173.392H392.608C392.493 172.823 392.383 172.303 392.281 171.832C392.176 171.36 392.067 170.885 391.952 170.404L390.535 165.045H388.908L387.498 170.394C387.413 170.731 387.318 171.142 387.214 171.626C387.109 172.11 386.984 172.699 386.838 173.392H387.191C387.062 172.791 386.943 172.241 386.832 171.744C386.72 171.246 386.618 170.805 386.525 170.42L385.094 165.045H383.504L386.1 174.345H387.814Z" fill="black"/>
</g>
</g>
<defs>
<clipPath id="clip0_1020_18012">
<rect width="455" height="206" fill="white"/>
</clipPath>
</defs>
</svg>
