<svg width="73" height="83" viewBox="0 0 73 83" fill="none" xmlns="http://www.w3.org/2000/svg">
<g clip-path="url(#clip0_18457_215)">
<path d="M63.6156 15.7482C63.5492 15.3529 63.2175 15.0894 62.8859 15.0894C62.5542 15.0894 56.7165 14.9577 56.7165 14.9577C56.7165 14.9577 51.8075 10.2148 51.3432 9.75372C50.8788 9.29261 49.8838 9.42435 49.5521 9.5561C49.5521 9.5561 48.6233 9.81959 47.0976 10.2807C46.8322 9.42435 46.4342 8.43625 45.9035 7.38228C44.1787 4.08862 41.5916 2.31005 38.5401 2.31005C38.3411 2.31005 38.1421 2.31005 37.8767 2.37592C37.8104 2.24417 37.6777 2.1783 37.6114 2.04655C36.2846 0.597345 34.5598 -0.0613873 32.5034 0.0044859C28.5231 0.136232 24.5429 2.96878 21.3587 8.04102C19.1033 11.5982 17.3785 16.0775 16.8478 19.5688C12.2705 20.9522 9.08632 21.9403 9.01999 22.0061C6.69818 22.7307 6.63184 22.7966 6.3665 24.9704C6.16748 26.6173 0.0644544 73.0579 0.0644544 73.0579L50.7461 81.7531L72.7038 76.3515C72.6374 76.2857 63.6819 16.1434 63.6156 15.7482ZM44.5768 11.0712C43.3827 11.4005 42.056 11.8617 40.6629 12.2569C40.6629 10.2807 40.3975 7.44816 39.4688 5.07672C42.454 5.66958 43.9134 9.02911 44.5768 11.0712ZM37.943 13.1133C35.2896 13.9037 32.3707 14.826 29.4519 15.6823C30.2479 12.5863 31.84 9.49023 33.6975 7.44816C34.4272 6.72355 35.4222 5.8672 36.55 5.34022C37.744 7.64578 38.0094 10.8736 37.943 13.1133ZM32.5697 2.63941C33.4984 2.63941 34.2945 2.83703 34.9579 3.23227C33.8965 3.82513 32.8351 4.61561 31.84 5.66958C29.3192 8.37038 27.3954 12.5863 26.5994 16.6045C24.2112 17.3291 21.8231 18.0537 19.634 18.7125C21.027 12.3886 26.4004 2.83703 32.5697 2.63941Z" fill="#95BF47"/>
<path d="M62.8857 15.087C62.5541 15.087 56.7164 14.9552 56.7164 14.9552C56.7164 14.9552 51.8074 10.2124 51.3431 9.75124C51.144 9.55362 50.945 9.48775 50.6797 9.42188L50.6797 81.6848L72.6373 76.2832C72.6373 76.2832 63.6818 16.1409 63.6155 15.6798C63.5491 15.3505 63.2174 15.087 62.8857 15.087Z" fill="#5E8E3E"/>
<path d="M38.4765 26.2886L35.9557 35.7746C35.9557 35.7746 33.1031 34.4571 29.7198 34.7206C24.7444 35.05 24.7444 38.1461 24.7444 38.9366C25.0098 43.1526 36.221 44.0748 36.8844 54.0219C37.3488 61.861 32.7051 67.1968 26.0048 67.5921C17.9115 68.1191 13.4668 63.3761 13.4668 63.3761L15.1916 56.1299C15.1916 56.1299 19.6363 59.4895 23.2186 59.226C25.5405 59.0943 26.4029 57.1839 26.3365 55.8664C26.0048 50.3329 16.8501 50.6623 16.253 41.5716C15.7887 33.9301 20.8304 26.1569 31.9753 25.4981C36.2874 25.1688 38.4765 26.2886 38.4765 26.2886Z" fill="white"/>
</g>
<defs>
<clipPath id="clip0_18457_215">
<rect width="72.6393" height="82.0121" fill="white"/>
</clipPath>
</defs>
</svg>
