<svg width="162" height="77" viewBox="0 0 162 77" fill="none" xmlns="http://www.w3.org/2000/svg">
<path fill-rule="evenodd" clip-rule="evenodd" d="M142.823 39.1777C142.823 30.3316 138.545 23.3516 130.368 23.3516C122.157 23.3516 117.189 30.3316 117.189 39.1086C117.189 49.5095 123.054 54.7619 131.472 54.7619C135.578 54.7619 138.683 53.8289 141.029 52.5158V45.6049C138.683 46.7797 135.992 47.5054 132.576 47.5054C129.23 47.5054 126.263 46.3305 125.883 42.253H142.754C142.754 41.8038 142.823 40.007 142.823 39.1777ZM125.78 35.895C125.78 31.9903 128.16 30.3662 130.334 30.3662C132.438 30.3662 134.681 31.9903 134.681 35.895H125.78Z" fill="#635BFF"/>
<path fill-rule="evenodd" clip-rule="evenodd" d="M103.869 23.3516C100.488 23.3516 98.3142 24.9411 97.1067 26.0468L96.6582 23.9044H89.0684V64.1953L97.6932 62.3639L97.7277 52.5849C98.9697 53.4833 100.798 54.7619 103.834 54.7619C110.01 54.7619 115.633 49.786 115.633 38.8321C115.598 28.8112 109.906 23.3516 103.869 23.3516ZM101.799 47.1598C99.7632 47.1598 98.5557 46.4342 97.7277 45.5357L97.6932 32.7159C98.5902 31.7138 99.8322 31.0227 101.799 31.0227C104.938 31.0227 107.112 34.5473 107.112 39.074C107.112 43.7043 104.973 47.1598 101.799 47.1598Z" fill="#635BFF"/>
<path fill-rule="evenodd" clip-rule="evenodd" d="M77.2051 21.3109L85.865 19.4448V12.4297L77.2051 14.2612V21.3109Z" fill="#635BFF"/>
<path d="M85.8644 23.9375H77.2051V54.173H85.8644V23.9375Z" fill="#635BFF"/>
<path fill-rule="evenodd" clip-rule="evenodd" d="M67.9257 26.4845L67.3738 23.9275H59.9219V54.1629H68.5467V33.6719C70.5822 31.0112 74.0321 31.495 75.1016 31.8751V23.9275C73.9976 23.5128 69.9612 22.7526 67.9257 26.4845Z" fill="#635BFF"/>
<path fill-rule="evenodd" clip-rule="evenodd" d="M50.675 16.4375L42.2572 18.2343L42.2227 45.9127C42.2227 51.0269 46.0521 54.7933 51.158 54.7933C53.987 54.7933 56.0569 54.275 57.1954 53.653V46.6384C56.0914 47.0876 50.6405 48.6771 50.6405 43.563V31.2961H57.1954V23.9359H50.6405L50.675 16.4375Z" fill="#635BFF"/>
<path fill-rule="evenodd" clip-rule="evenodd" d="M27.3534 32.7159C27.3534 31.3683 28.4573 30.85 30.2858 30.85C32.9078 30.85 36.2197 31.6447 38.8417 33.0615V24.9411C35.9782 23.8008 33.1493 23.3516 30.2858 23.3516C23.2824 23.3516 18.625 27.0144 18.625 33.1306C18.625 42.6677 31.7348 41.1473 31.7348 45.2593C31.7348 46.8488 30.3548 47.3672 28.4228 47.3672C25.5594 47.3672 21.9024 46.1923 19.0045 44.6028V52.8268C22.2129 54.209 25.4559 54.7964 28.4228 54.7964C35.5987 54.7964 40.5321 51.2373 40.5321 45.052C40.4976 34.7546 27.3534 36.5861 27.3534 32.7159Z" fill="#635BFF"/>
</svg>
