<svg width="74" height="21" viewBox="0 0 74 21" fill="none" xmlns="http://www.w3.org/2000/svg">
<path d="M10.5 0.5H63.5C69.0228 0.5 73.5 4.97715 73.5 10.5C73.5 16.0228 69.0228 20.5 63.5 20.5H10.5C4.97715 20.5 0.5 16.0228 0.5 10.5C0.5 4.97715 4.97715 0.5 10.5 0.5Z" fill="#364153"/>
<path d="M10.5 0.5H63.5C69.0228 0.5 73.5 4.97715 73.5 10.5C73.5 16.0228 69.0228 20.5 63.5 20.5H10.5C4.97715 20.5 0.5 16.0228 0.5 10.5C0.5 4.97715 4.97715 0.5 10.5 0.5Z" stroke="#1A1A1A"/>
<path d="M10.31 14L8.3 6.88H9.28L10.46 11.3C10.53 11.6 10.6008 11.91 10.6725 12.23C10.7458 12.55 10.8117 12.85 10.87 13.13H10.8C10.875 12.825 10.9525 12.5117 11.0325 12.19C11.1125 11.8683 11.1883 11.5717 11.26 11.3L12.46 6.88H13.59L14.8 11.3C14.8717 11.6017 14.9425 11.9067 15.0125 12.215C15.0842 12.5233 15.1533 12.8283 15.22 13.13H15.14C15.1967 12.87 15.2658 12.5733 15.3475 12.24C15.4292 11.9067 15.5067 11.5933 15.58 11.3L16.8 6.88H17.75L15.74 14H14.64L13.39 9.43C13.305 9.08167 13.2158 8.72167 13.1225 8.35C13.0308 7.97667 12.94 7.61333 12.85 7.26L13.14 7.22C13.0567 7.58833 12.9683 7.97583 12.875 8.3825C12.7833 8.7875 12.7017 9.13667 12.63 9.43L11.41 14H10.31ZM20.2008 14.12C19.6974 14.12 19.2608 14.005 18.8908 13.775C18.5224 13.545 18.2399 13.225 18.0433 12.815C17.8483 12.4033 17.7508 11.9317 17.7508 11.4C17.7508 10.8717 17.8466 10.4058 18.0383 10.0025C18.2316 9.5975 18.5108 9.2825 18.8758 9.0575C19.2424 8.8325 19.6774 8.72 20.1808 8.72C20.6624 8.72 21.0799 8.82333 21.4333 9.03C21.7883 9.23667 22.0616 9.53417 22.2533 9.9225C22.4449 10.3092 22.5408 10.7683 22.5408 11.3C22.5408 11.3567 22.5408 11.4133 22.5408 11.47C22.5408 11.5267 22.5408 11.5833 22.5408 11.64H18.5108V10.98H22.0808L21.7008 11.42C21.7008 11.0033 21.6416 10.6492 21.5233 10.3575C21.4049 10.0658 21.2333 9.845 21.0083 9.695C20.7833 9.545 20.5108 9.47 20.1908 9.47C19.8891 9.47 19.6241 9.53667 19.3958 9.67C19.1674 9.80333 18.9891 10.0025 18.8608 10.2675C18.7341 10.5325 18.6708 10.8567 18.6708 11.24V11.55C18.6708 11.95 18.7341 12.2858 18.8608 12.5575C18.9874 12.8292 19.1674 13.0325 19.4008 13.1675C19.6341 13.3025 19.9108 13.37 20.2308 13.37C20.4674 13.37 20.6758 13.3342 20.8558 13.2625C21.0374 13.1892 21.1916 13.0825 21.3183 12.9425C21.4449 12.8025 21.5474 12.6308 21.6258 12.4275L22.4708 12.5275C22.3608 12.8642 22.1974 13.1517 21.9808 13.39C21.7658 13.6283 21.5066 13.81 21.2033 13.935C20.9016 14.0583 20.5674 14.12 20.2008 14.12ZM23.4065 9.54V9.04H23.5065C23.6098 9.04 23.6965 9.0225 23.7665 8.9875C23.8365 8.9525 23.889 8.9 23.924 8.83C23.959 8.76 23.9765 8.67333 23.9765 8.57V7.75L24.1065 7.88H23.3965V6.87H24.4965V8.46C24.4965 8.7 24.4598 8.9 24.3865 9.06C24.3132 9.22 24.2032 9.34 24.0565 9.42C23.9098 9.5 23.7265 9.54 23.5065 9.54H23.4065ZM25.8785 14V8.84H26.7385V10.14H26.7985V14H25.8785ZM26.5585 10.35C26.6518 10.0083 26.776 9.715 26.931 9.47C27.0877 9.225 27.2818 9.03583 27.5135 8.9025C27.7452 8.7675 28.0168 8.7 28.3285 8.7C28.3752 8.7 28.4227 8.70167 28.471 8.705C28.5193 8.70833 28.5652 8.7125 28.6085 8.7175V9.6125C28.5485 9.6075 28.4902 9.60417 28.4335 9.6025C28.3768 9.60083 28.3252 9.6 28.2785 9.6C28.0418 9.6 27.8118 9.66083 27.5885 9.7825C27.3668 9.90417 27.1827 10.0842 27.036 10.3225C26.891 10.5608 26.8118 10.8467 26.7985 11.18H26.5985L26.5585 10.35ZM31.4102 14.12C30.9068 14.12 30.4702 14.005 30.1002 13.775C29.7318 13.545 29.4493 13.225 29.2527 12.815C29.0577 12.4033 28.9602 11.9317 28.9602 11.4C28.9602 10.8717 29.056 10.4058 29.2477 10.0025C29.441 9.5975 29.7202 9.2825 30.0852 9.0575C30.4518 8.8325 30.8868 8.72 31.3902 8.72C31.8718 8.72 32.2893 8.82333 32.6427 9.03C32.9977 9.23667 33.271 9.53417 33.4627 9.9225C33.6543 10.3092 33.7502 10.7683 33.7502 11.3C33.7502 11.3567 33.7502 11.4133 33.7502 11.47C33.7502 11.5267 33.7502 11.5833 33.7502 11.64H29.7202V10.98H33.2902L32.9102 11.42C32.9102 11.0033 32.851 10.6492 32.7327 10.3575C32.6143 10.0658 32.4427 9.845 32.2177 9.695C31.9927 9.545 31.7202 9.47 31.4002 9.47C31.0985 9.47 30.8335 9.53667 30.6052 9.67C30.3768 9.80333 30.1985 10.0025 30.0702 10.2675C29.9435 10.5325 29.8802 10.8567 29.8802 11.24V11.55C29.8802 11.95 29.9435 12.2858 30.0702 12.5575C30.1968 12.8292 30.3768 13.0325 30.6102 13.1675C30.8435 13.3025 31.1202 13.37 31.4402 13.37C31.6768 13.37 31.8852 13.3342 32.0652 13.2625C32.2468 13.1892 32.401 13.0825 32.5277 12.9425C32.6543 12.8025 32.7568 12.6308 32.8352 12.4275L33.6802 12.5275C33.5702 12.8642 33.4068 13.1517 33.1902 13.39C32.9752 13.6283 32.716 13.81 32.4127 13.935C32.111 14.0583 31.7768 14.12 31.4102 14.12ZM41.8965 14V6.88H42.8265V14H41.8965ZM37.1965 14V6.88H38.1265V14H37.1965ZM37.6665 10.62V9.81H42.3665V10.62H37.6665ZM44.1805 14V8.84H45.1005V14H44.1805ZM44.1805 7.87V6.88H45.1005V7.87H44.1805ZM46.4 14V8.84H47.26V10.14H47.32V14H46.4ZM47.08 10.35C47.1733 10.0083 47.2975 9.715 47.4525 9.47C47.6092 9.225 47.8033 9.03583 48.035 8.9025C48.2667 8.7675 48.5383 8.7 48.85 8.7C48.8967 8.7 48.9442 8.70167 48.9925 8.705C49.0408 8.70833 49.0867 8.7125 49.13 8.7175V9.6125C49.07 9.6075 49.0117 9.60417 48.955 9.6025C48.8983 9.60083 48.8467 9.6 48.8 9.6C48.5633 9.6 48.3333 9.66083 48.11 9.7825C47.8883 9.90417 47.7042 10.0842 47.5575 10.3225C47.4125 10.5608 47.3333 10.8467 47.32 11.18H47.12L47.08 10.35ZM49.7816 14V8.84H50.7016V14H49.7816ZM49.7816 7.87V6.88H50.7016V7.87H49.7816ZM52.0012 14V8.84H52.8612V9.84H52.9212V14H52.0012ZM55.4212 10.6C55.4212 10.3617 55.3837 10.1617 55.3087 10C55.2337 9.83833 55.1195 9.71667 54.9662 9.635C54.8145 9.55167 54.6228 9.51 54.3912 9.51C54.1328 9.51 53.8928 9.5625 53.6712 9.6675C53.4512 9.7725 53.2712 9.94583 53.1312 10.1875C52.9912 10.4292 52.9212 10.7433 52.9212 11.13H52.6112V9.75H52.7612C52.8712 9.53 53.0153 9.3425 53.1937 9.1875C53.3737 9.0325 53.582 8.91417 53.8187 8.8325C54.0553 8.75083 54.3128 8.71 54.5912 8.71C54.9512 8.71 55.262 8.7775 55.5237 8.9125C55.787 9.04583 55.9887 9.24083 56.1287 9.4975C56.2703 9.7525 56.3412 10.06 56.3412 10.42V14H55.4212V10.6ZM59.6987 16.16C59.267 16.16 58.8953 16.1058 58.5837 15.9975C58.272 15.8908 58.0237 15.7225 57.8387 15.4925C57.6537 15.2642 57.542 14.97 57.5037 14.61H58.3987C58.4437 14.81 58.5228 14.97 58.6362 15.09C58.7512 15.21 58.8995 15.2967 59.0812 15.35C59.2645 15.4033 59.487 15.43 59.7487 15.43C60.1537 15.43 60.4737 15.37 60.7087 15.25C60.9437 15.1317 61.1103 14.9583 61.2087 14.73C61.3087 14.5017 61.3587 14.2117 61.3587 13.86V12.93H61.4587V10.29H61.3887V8.84H62.2487V13.77C62.2487 14.3233 62.1462 14.7775 61.9412 15.1325C61.7362 15.4875 61.4445 15.7475 61.0662 15.9125C60.6895 16.0775 60.2337 16.16 59.6987 16.16ZM59.6887 14.11C59.212 14.11 58.7962 13.9917 58.4412 13.755C58.0862 13.5183 57.8137 13.19 57.6237 12.77C57.4337 12.35 57.3387 11.8733 57.3387 11.34C57.3387 10.8267 57.437 10.3725 57.6337 9.9775C57.832 9.5825 58.107 9.27583 58.4587 9.0575C58.812 8.83917 59.2153 8.73 59.6687 8.73C60.007 8.73 60.3145 8.79 60.5912 8.91C60.8695 9.02833 61.0978 9.195 61.2762 9.41C61.4545 9.625 61.5687 9.87167 61.6187 10.15V12.76C61.5553 13.0117 61.4328 13.24 61.2512 13.445C61.0695 13.65 60.8428 13.8125 60.5712 13.9325C60.3012 14.0508 60.007 14.11 59.6887 14.11ZM59.7787 13.32C60.0853 13.32 60.3595 13.2408 60.6012 13.0825C60.8445 12.9225 61.0345 12.6942 61.1712 12.3975C61.3095 12.1008 61.3787 11.755 61.3787 11.36C61.3787 10.9633 61.3112 10.6275 61.1762 10.3525C61.0412 10.0758 60.8545 9.86833 60.6162 9.73C60.3795 9.59 60.107 9.52 59.7987 9.52C59.482 9.52 59.2078 9.59 58.9762 9.73C58.7462 9.87 58.5687 10.0767 58.4437 10.35C58.3203 10.6217 58.2587 10.9517 58.2587 11.34C58.2587 11.7383 58.3195 12.0867 58.4412 12.385C58.5628 12.6833 58.7378 12.9142 58.9662 13.0775C59.1945 13.2392 59.4653 13.32 59.7787 13.32ZM63.9296 12.11L63.6996 8.87V6.88H64.6296V8.87L64.3996 12.11H63.9296ZM63.5996 14V12.99H64.7296V14H63.5996Z" fill="white"/>
</svg>
