<svg width="114" height="31" viewBox="0 0 114 31" fill="none" xmlns="http://www.w3.org/2000/svg">
<path d="M26.6356 21.0643L26.6197 21.0136L36.706 11.7798V7.33072H20.5242V11.7798H30.1897L30.2056 11.8224L20.2178 21.0643V25.5133H36.8686V21.0643H26.6356ZM46.8028 6.90712C44.9364 6.90712 43.4152 7.18855 42.2394 7.75166C41.1441 8.24223 40.2216 9.05079 39.5913 10.0721C38.9883 11.1001 38.6098 12.2442 38.4804 13.4289L43.3903 14.1189C43.568 13.0728 43.9231 12.3313 44.4559 11.8943C45.0011 11.483 45.6602 11.2549 46.3391 11.239L46.5659 11.2416C47.5625 11.2416 48.2854 11.508 48.7344 12.0408C49.1797 12.5737 49.4061 13.3117 49.4061 14.284V14.7689H44.6851C42.282 14.7689 40.5556 15.3017 39.5061 16.3674C38.4564 17.4331 37.9324 18.8398 37.9342 20.5873C37.9342 22.3777 38.4582 23.7097 39.5061 24.5836C40.5539 25.4573 41.8718 25.8917 43.4596 25.8864C45.4292 25.8864 46.9445 25.2087 48.0046 23.8536C48.6311 23.0208 49.0782 22.0675 49.318 21.0535H49.4963L50.1731 25.5027H54.622V14.2361C54.622 11.9077 54.0087 10.1041 52.7814 8.82524C51.5541 7.54649 49.5611 6.90712 46.8028 6.90712ZM48.359 20.7952C47.6529 21.384 46.7284 21.677 45.5776 21.677C44.6291 21.677 43.9702 21.5109 43.6008 21.1788C43.4207 21.0217 43.2776 20.8268 43.1814 20.6081C43.0851 20.3894 43.0383 20.1522 43.044 19.9133C43.0335 19.688 43.069 19.463 43.1481 19.2519C43.2274 19.0407 43.3488 18.848 43.5049 18.6852C43.6737 18.5268 43.8729 18.4043 44.0904 18.3252C44.2536 18.2658 44.4245 18.2315 44.5971 18.2236L49.4139 18.2243V18.5307C49.4232 18.9637 49.3329 19.3932 49.1503 19.7858C48.9673 20.1785 48.6967 20.5237 48.359 20.7952ZM81.5245 7.33072H76.2685V25.516H81.5245V7.33072ZM112.559 7.33072C111.074 7.33072 109.904 7.85459 109.047 8.90259C108.433 9.65565 107.966 10.7683 107.646 12.2407H107.492L106.804 7.33072H102.315V25.5133H107.572V16.1889C107.572 15.0132 107.847 14.1118 108.398 13.4848C108.948 12.8578 109.964 12.5444 111.445 12.5444H113.44V7.33072H112.559ZM97.0987 7.92483C95.8719 7.19483 94.3238 6.83073 92.4555 6.83254C89.5142 6.83254 87.2125 7.66995 85.5501 9.34477C83.8873 11.0196 83.0564 13.3286 83.0564 16.2715C83.0141 18.0507 83.4026 19.8139 84.1887 21.4106C84.9083 22.8335 86.029 24.0143 87.4123 24.8073C88.8044 25.6119 90.4607 26.0151 92.381 26.0168C94.0415 26.0168 95.4285 25.7611 96.5421 25.2496C97.5892 24.7902 98.5007 24.0702 99.1905 23.1582C99.8467 22.263 100.334 21.2556 100.629 20.1851L96.1002 18.917C95.9092 19.613 95.5422 20.248 95.0344 20.7605C94.5226 21.2721 93.6656 21.5278 92.4635 21.5278C91.0336 21.5278 89.9679 21.1185 89.2665 20.2996C88.7574 19.7082 88.4379 18.8637 88.2968 17.7687H100.698C100.749 17.2573 100.776 16.8282 100.776 16.482V15.3498C100.805 13.8286 100.491 12.3204 99.8565 10.9379C99.2622 9.67846 98.3008 8.62816 97.0987 7.92483ZM92.3037 11.1671C94.435 11.1671 95.6432 12.2158 95.9292 14.3134H88.39C88.5096 13.6135 88.7998 12.9539 89.2344 12.3926C89.9255 11.5738 90.9483 11.1653 92.3037 11.1671ZM78.9535 0.0017202C78.5582 -0.0117961 78.1641 0.0544598 77.7947 0.196261C77.4254 0.338182 77.0886 0.552877 76.8036 0.827548C76.5232 1.10487 76.3029 1.43759 76.1576 1.80446C76.0413 2.09808 75.9748 2.40835 75.9602 2.72261L75.9592 2.9589C75.9452 3.35583 76.0127 3.75142 76.1585 4.12095C76.3038 4.49059 76.5242 4.82621 76.805 5.10692C77.0858 5.38762 77.4217 5.60738 77.7915 5.75256C78.0874 5.86878 78.3996 5.93515 78.7158 5.94963L78.9535 5.95072C79.348 5.96557 79.7412 5.89823 80.1082 5.75281C80.4752 5.60738 80.8078 5.38714 81.0849 5.10619C81.3601 4.82223 81.5744 4.48565 81.716 4.1166C81.8292 3.82142 81.8937 3.5103 81.9074 3.19556L81.9084 2.9589C81.9265 2.56633 81.8627 2.17423 81.7206 1.80772C81.5786 1.44121 81.3621 1.10825 81.0844 0.8302C80.8063 0.55227 80.4739 0.335164 80.1072 0.193001C79.7412 0.0507177 79.3462 -0.0161407 78.9535 0.0017202ZM68.0947 6.83254C66.3044 6.83254 64.8656 7.39468 63.779 8.51895C62.9742 9.35189 62.3836 10.5952 62.0073 12.2487H61.8395L61.1521 7.33868H56.6631V30.7403H61.9192V21.1016H62.1111C62.2713 21.7442 62.4963 22.3691 62.7823 22.9665C63.2271 23.9395 63.9564 24.7551 64.8739 25.3055C65.825 25.8247 66.8968 26.0829 67.9802 26.0541C70.1809 26.0541 71.8562 25.1973 73.0072 23.4833C74.1581 21.7694 74.7338 19.3779 74.7338 16.3088C74.7338 13.3445 74.1767 11.0241 73.0635 9.34743C71.9499 7.6708 70.2936 6.83254 68.0947 6.83254ZM68.6276 20.0093C68.0555 20.8381 67.182 21.2801 66.0065 21.3353L65.7501 21.3412C65.2121 21.3661 64.6755 21.2624 64.1856 21.0387C63.6951 20.8148 63.2653 20.4775 62.9318 20.0545C62.2513 19.2002 61.9122 18.0307 61.9141 16.5458V16.1996C61.9141 14.6917 62.2531 13.5373 62.9318 12.7362C63.6099 11.9352 64.5498 11.5391 65.7501 11.5479C67.0789 11.5479 68.044 11.9698 68.6462 12.8134C69.2484 13.6571 69.5494 14.8337 69.5494 16.3435C69.553 17.9046 69.2476 19.1265 68.6327 20.0093H68.6276Z" fill="black"/>
<path d="M18.1853 21.0625H0V25.5169H18.1853V21.0625Z" fill="#FF4F00"/>
</svg>
