<svg width="228" height="114" viewBox="0 0 228 114" fill="none" xmlns="http://www.w3.org/2000/svg">
<mask id="mask0_18528_1093" style="mask-type:alpha" maskUnits="userSpaceOnUse" x="-1" y="0" width="229" height="114">
<rect x="-0.464844" y="113.562" width="113.559" height="228.072" transform="rotate(-90 -0.464844 113.562)" fill="url(#paint0_linear_18528_1093)"/>
</mask>
<g mask="url(#mask0_18528_1093)">
<path opacity="0.9" d="M236.672 92.4531H74.4588" stroke="#BABABA" stroke-width="0.711461" stroke-dasharray="1.42 1.42"/>
<path opacity="0.9" d="M236.672 20.5938H74.459" stroke="#BABABA" stroke-width="0.711461" stroke-dasharray="1.42 1.42"/>
<path d="M155.208 82.1367C150.434 82.1366 146.157 79.2137 143.09 74.5801C140.021 69.9435 138.134 63.5588 138.134 56.5244C138.134 49.49 140.021 43.1053 143.09 38.4687C146.157 33.8351 150.434 30.9123 155.208 30.9121C159.982 30.9121 164.26 33.8349 167.327 38.4687C170.397 43.1053 172.283 49.49 172.283 56.5244C172.283 63.5588 170.397 69.9435 167.327 74.5801C164.26 79.2139 159.982 82.1367 155.208 82.1367Z" stroke="#3448FF" stroke-width="0.711461"/>
<path d="M155.208 82.1367C154.162 82.1365 153.276 81.2627 152.545 79.9717C151.798 78.6521 151.137 76.7663 150.586 74.4668C149.484 69.8619 148.806 63.5183 148.806 56.5244C148.806 49.5305 149.484 43.1869 150.586 38.582C151.137 36.2825 151.798 34.3967 152.545 33.0771C153.276 31.7861 154.162 30.9123 155.208 30.9121C156.254 30.9121 157.141 31.7859 157.872 33.0771C158.619 34.3967 159.28 36.2826 159.83 38.582C160.933 43.1869 161.612 49.5305 161.612 56.5244C161.612 63.5183 160.933 69.8619 159.83 74.4668C159.28 76.7662 158.619 78.6521 157.872 79.9717C157.141 81.2629 156.254 82.1367 155.208 82.1367Z" stroke="#3448FF" stroke-width="0.711461"/>
<path opacity="0.9" d="M236.676 56.1641L74.46 56.1641" stroke="#BABABA" stroke-width="0.711461" stroke-dasharray="1.42 1.42"/>
<path d="M217.463 92.4531L93.6689 20.5955" stroke="#3448FF" stroke-width="0.711461" stroke-dasharray="1.42 1.42"/>
<path d="M155.401 128.094L155.734 -15.044" stroke="#3448FF" stroke-width="0.711461" stroke-dasharray="1.42 1.42"/>
<path d="M217.464 20.5863L93.6702 92.4439" stroke="#3448FF" stroke-width="0.711461" stroke-dasharray="1.42 1.42"/>
<path d="M155.567 51.1875L153.102 53.7026L150.587 56.1677L153.102 58.6328L155.567 61.148L158.032 58.6328L160.547 56.1677L158.032 53.7026L155.567 51.1875Z" fill="#3448FF"/>
<circle cx="155.278" cy="56.6043" r="25.5795" transform="rotate(-180 155.278 56.6043)" stroke="#3448FF" stroke-width="0.711461"/>
<path d="M217.464 18.4531L216.407 19.531L215.329 20.5875L216.407 21.644L217.464 22.7219L218.52 21.644L219.598 20.5875L218.52 19.531L217.464 18.4531Z" fill="#3448FF"/>
<path d="M217.464 90.3125L216.407 91.3904L215.329 92.4469L216.407 93.5033L217.464 94.5813L218.52 93.5033L219.598 92.4469L218.52 91.3904L217.464 90.3125Z" fill="#3448FF"/>
<path d="M93.6686 18.4531L92.6121 19.531L91.5342 20.5875L92.6121 21.644L93.6686 22.7219L94.7251 21.644L95.803 20.5875L94.7251 19.531L93.6686 18.4531Z" fill="#3448FF"/>
<path d="M93.6686 90.3125L92.6121 91.3904L91.5342 92.4469L92.6121 93.5033L93.6686 94.5813L94.7251 93.5033L95.803 92.4469L94.7251 91.3904L93.6686 90.3125Z" fill="#3448FF"/>
</g>
<defs>
<linearGradient id="paint0_linear_18528_1093" x1="56.3145" y1="172.689" x2="56.3144" y2="341.635" gradientUnits="userSpaceOnUse">
<stop offset="0.129808" stop-opacity="0"/>
<stop offset="0.7" stop-color="white"/>
</linearGradient>
</defs>
</svg>
