<svg width="229" height="114" viewBox="0 0 229 114" fill="none" xmlns="http://www.w3.org/2000/svg">
<mask id="mask0_18528_1240" style="mask-type:alpha" maskUnits="userSpaceOnUse" x="0" y="-1" width="229" height="115">
<rect y="113.219" width="113.559" height="228.072" transform="rotate(-90 0 113.219)" fill="url(#paint0_linear_18528_1240)"/>
</mask>
<g mask="url(#mask0_18528_1240)">
<path opacity="0.9" d="M237.137 92.1094H74.9237" stroke="#474747" stroke-width="0.711461" stroke-dasharray="1.42 1.42"/>
<path opacity="0.9" d="M237.137 20.25H74.9238" stroke="#474747" stroke-width="0.711461" stroke-dasharray="1.42 1.42"/>
<path d="M155.673 81.793C150.899 81.7928 146.622 78.8699 143.555 74.2363C140.486 69.5998 138.599 63.2151 138.599 56.1807C138.599 49.1462 140.486 42.7616 143.555 38.125C146.622 33.4914 150.899 30.5685 155.673 30.5684C160.447 30.5684 164.725 33.4912 167.792 38.125C170.862 42.7616 172.748 49.1462 172.748 56.1807C172.748 63.2151 170.862 69.5998 167.792 74.2363C164.725 78.8701 160.447 81.793 155.673 81.793Z" stroke="#3448FF" stroke-width="0.711461"/>
<path d="M155.673 81.793C154.627 81.7927 153.741 80.919 153.01 79.6279C152.263 78.3083 151.602 76.4226 151.051 74.123C149.948 69.5182 149.271 63.1746 149.271 56.1807C149.271 49.1867 149.948 42.8432 151.051 38.2383C151.602 35.9387 152.263 34.053 153.01 32.7334C153.741 31.4423 154.627 30.5686 155.673 30.5684C156.719 30.5684 157.606 31.4422 158.337 32.7334C159.084 34.053 159.745 35.9388 160.295 38.2383C161.398 42.8432 162.076 49.1867 162.076 56.1807C162.076 63.1746 161.398 69.5182 160.295 74.123C159.745 76.4225 159.084 78.3084 158.337 79.6279C157.606 80.9192 156.719 81.793 155.673 81.793Z" stroke="#3448FF" stroke-width="0.711461"/>
<path opacity="0.9" d="M237.141 55.8203L74.9249 55.8203" stroke="#474747" stroke-width="0.711461" stroke-dasharray="1.42 1.42"/>
<path d="M217.928 92.1094L94.1337 20.2518" stroke="#3448FF" stroke-width="0.711461" stroke-dasharray="1.42 1.42"/>
<path d="M155.865 127.75L156.199 -15.3878" stroke="#3448FF" stroke-width="0.711461" stroke-dasharray="1.42 1.42"/>
<path d="M217.929 20.2426L94.135 92.1001" stroke="#3448FF" stroke-width="0.711461" stroke-dasharray="1.42 1.42"/>
<path d="M156.032 50.8437L153.567 53.3589L151.052 55.824L153.567 58.2891L156.032 60.8042L158.497 58.2891L161.012 55.824L158.497 53.3589L156.032 50.8437Z" fill="#3448FF"/>
<circle cx="155.743" cy="56.2606" r="25.5795" transform="rotate(-180 155.743 56.2606)" stroke="#3448FF" stroke-width="0.711461"/>
<path d="M217.928 18.1094L216.872 19.1873L215.794 20.2438L216.872 21.3002L217.928 22.3781L218.985 21.3002L220.063 20.2438L218.985 19.1873L217.928 18.1094Z" fill="#3448FF"/>
<path d="M217.928 89.9687L216.872 91.0467L215.794 92.1031L216.872 93.1596L217.928 94.2375L218.985 93.1596L220.063 92.1031L218.985 91.0467L217.928 89.9687Z" fill="#3448FF"/>
<path d="M94.1334 18.1094L93.077 19.1873L91.9991 20.2438L93.077 21.3002L94.1334 22.3781L95.1899 21.3002L96.2678 20.2438L95.1899 19.1873L94.1334 18.1094Z" fill="#3448FF"/>
<path d="M94.1334 89.9687L93.077 91.0467L91.9991 92.1031L93.077 93.1596L94.1334 94.2375L95.1899 93.1596L96.2678 92.1031L95.1899 91.0467L94.1334 89.9687Z" fill="#3448FF"/>
</g>
<defs>
<linearGradient id="paint0_linear_18528_1240" x1="56.7793" y1="172.346" x2="56.7793" y2="341.291" gradientUnits="userSpaceOnUse">
<stop offset="0.129808" stop-opacity="0"/>
<stop offset="0.701923" stop-color="white"/>
</linearGradient>
</defs>
</svg>
