<svg width="260" height="144" viewBox="0 0 260 144" fill="none" xmlns="http://www.w3.org/2000/svg">
<g clip-path="url(#clip0_18528_322)">
<circle cx="171.995" cy="86.7292" r="86.2057" stroke="url(#paint0_linear_18528_322)" stroke-width="1.35732"/>
<ellipse cx="171.986" cy="87.5773" rx="70.4507" ry="71.2335" stroke="#474747" stroke-width="0.630573" stroke-dasharray="1.26 1.26"/>
<ellipse cx="171.986" cy="87.5765" rx="114.229" ry="113.436" stroke="#474747" stroke-width="0.630573" stroke-dasharray="1.26 1.26"/>
<circle cx="171.904" cy="87.4944" r="99.107" transform="rotate(45 171.904 87.4944)" stroke="url(#paint1_linear_18528_322)" stroke-width="1.35732"/>
<path d="M285.247 87.4922H243.265M58.546 87.4922H100.528" stroke="#474747" stroke-width="0.630573" stroke-dasharray="1.26 1.26"/>
<path d="M228.57 185.657L207.579 149.3M115.219 -10.6719L136.21 25.6853" stroke="#474747" stroke-width="0.630573" stroke-dasharray="1.26 1.26"/>
<path d="M270.061 144.171L233.704 123.18M73.7318 30.8203L110.089 51.8112" stroke="#474747" stroke-width="0.630573" stroke-dasharray="1.26 1.26"/>
<path d="M171.896 200.842L171.896 158.86M171.896 -25.8594L171.896 16.1223" stroke="#474747" stroke-width="0.630573" stroke-dasharray="1.26 1.26"/>
<path d="M281.385 116.831L240.834 105.965M62.4088 58.1562L102.96 69.0219" stroke="#474747" stroke-width="0.630573" stroke-dasharray="1.26 1.26"/>
<path d="M201.234 196.984L190.368 156.433M142.559 -21.9922L153.425 18.559" stroke="#474747" stroke-width="0.630573" stroke-dasharray="1.26 1.26"/>
<path d="M252.048 167.646L222.363 137.96M91.7465 7.34375L121.432 37.0293" stroke="#474747" stroke-width="0.630573" stroke-dasharray="1.26 1.26"/>
<path d="M142.56 196.984L153.426 156.433M201.235 -21.9922L190.369 18.559" stroke="#474747" stroke-width="0.630573" stroke-dasharray="1.26 1.26"/>
<path d="M115.22 185.657L136.211 149.3M228.571 -10.6719L207.58 25.6853" stroke="#474747" stroke-width="0.630573" stroke-dasharray="1.26 1.26"/>
<path d="M73.7349 144.171L110.092 123.18M270.064 30.8203L233.707 51.8112" stroke="#474747" stroke-width="0.630573" stroke-dasharray="1.26 1.26"/>
<path d="M91.7471 167.646L121.433 137.96M252.049 7.34375L222.363 37.0293" stroke="#474747" stroke-width="0.630573" stroke-dasharray="1.26 1.26"/>
<path d="M62.4093 116.831L102.96 105.965M281.386 58.1562L240.835 69.0219" stroke="#474747" stroke-width="0.630573" stroke-dasharray="1.26 1.26"/>
<g clip-path="url(#clip1_18528_322)">
<rect width="4.12124" height="4.12124" transform="translate(168.98 16.5156) rotate(-45)" fill="#474747"/>
</g>
<g clip-path="url(#clip2_18528_322)">
<rect width="3.78289" height="3.78289" transform="translate(98.8597 87.6484) rotate(-45)" fill="#474747"/>
</g>
<g clip-path="url(#clip3_18528_322)">
<rect width="4.12124" height="4.12124" transform="translate(239.222 87.6641) rotate(-45)" fill="#474747"/>
</g>
<g clip-path="url(#clip4_18528_322)">
<rect width="4.12124" height="4.12124" transform="translate(70.7204 145.625) rotate(-74.9403)" fill="#474747"/>
</g>
<g clip-path="url(#clip5_18528_322)">
<line x1="171.903" y1="70.3302" x2="171.903" y2="84.2775" stroke="#3448FF" stroke-width="1.76973" stroke-linecap="round"/>
<line x1="185.488" y1="78.1896" x2="185.488" y2="92.1369" stroke="#3448FF" stroke-width="1.76973" stroke-linecap="round"/>
<line x1="199.073" y1="67.463" x2="199.073" y2="81.4103" stroke="#3448FF" stroke-width="1.76973" stroke-linecap="round"/>
<line x1="194.545" y1="73.1271" x2="194.545" y2="97.2051" stroke="#2330AA" stroke-width="1.76973" stroke-linecap="round"/>
<line x1="190.016" y1="70.3302" x2="190.016" y2="104.388" stroke="#1A2480" stroke-width="1.76973" stroke-linecap="round"/>
<line x1="167.374" y1="75.3224" x2="167.374" y2="99.4004" stroke="#2330AA" stroke-width="1.76973" stroke-linecap="round"/>
<line x1="180.959" y1="65.2677" x2="180.959" y2="89.3457" stroke="#2330AA" stroke-width="1.76973" stroke-linecap="round"/>
<line x1="162.846" y1="82.5411" x2="162.846" y2="104.389" stroke="#1A2480" stroke-width="1.76973" stroke-linecap="round"/>
<line x1="176.431" y1="59.0411" x2="176.431" y2="79.2902" stroke="#1A2480" stroke-width="1.76973" stroke-linecap="round"/>
<line x1="158.317" y1="75.3224" x2="158.317" y2="89.2697" stroke="#3448FF" stroke-width="1.76973" stroke-linecap="round"/>
<line x1="153.789" y1="64.0255" x2="153.789" y2="88.1035" stroke="#2330AA" stroke-width="1.76973" stroke-linecap="round"/>
<line x1="149.261" y1="59.0411" x2="149.261" y2="93.099" stroke="#1A2480" stroke-width="1.76973" stroke-linecap="round"/>
<line x1="144.732" y1="76.9552" x2="144.732" y2="90.9025" stroke="#3448FF" stroke-width="1.76973" stroke-linecap="round"/>
</g>
</g>
<defs>
<linearGradient id="paint0_linear_18528_322" x1="258.201" y1="86.7292" x2="85.789" y2="86.7292" gradientUnits="userSpaceOnUse">
<stop stop-color="#3448FF" stop-opacity="0"/>
<stop offset="0.5" stop-color="#3448FF"/>
<stop offset="1" stop-color="#3448FF" stop-opacity="0"/>
</linearGradient>
<linearGradient id="paint1_linear_18528_322" x1="271.011" y1="87.4944" x2="72.7974" y2="87.4944" gradientUnits="userSpaceOnUse">
<stop stop-color="#3448FF" stop-opacity="0"/>
<stop offset="0.5" stop-color="#3448FF"/>
<stop offset="1" stop-color="#3448FF" stop-opacity="0"/>
</linearGradient>
<clipPath id="clip0_18528_322">
<rect width="260.009" height="260.009" fill="white" transform="translate(0 -42.5078)"/>
</clipPath>
<clipPath id="clip1_18528_322">
<rect width="4.12124" height="4.12124" fill="white" transform="translate(168.98 16.5156) rotate(-45)"/>
</clipPath>
<clipPath id="clip2_18528_322">
<rect width="3.78289" height="3.78289" fill="white" transform="translate(98.8597 87.6484) rotate(-45)"/>
</clipPath>
<clipPath id="clip3_18528_322">
<rect width="4.12124" height="4.12124" fill="white" transform="translate(239.222 87.6641) rotate(-45)"/>
</clipPath>
<clipPath id="clip4_18528_322">
<rect width="4.12124" height="4.12124" fill="white" transform="translate(70.7204 145.625) rotate(-74.9403)"/>
</clipPath>
<clipPath id="clip5_18528_322">
<rect width="70.7891" height="70.7891" fill="white" transform="translate(136.907 52.1016)"/>
</clipPath>
</defs>
</svg>
