<svg width="229" height="114" viewBox="0 0 229 114" fill="none" xmlns="http://www.w3.org/2000/svg">
<mask id="mask0_18528_1220" style="mask-type:alpha" maskUnits="userSpaceOnUse" x="0" y="-1" width="229" height="115">
<rect y="113.164" width="113.5" height="228.689" transform="rotate(-90 0 113.164)" fill="url(#paint0_linear_18528_1220)"/>
</mask>
<g mask="url(#mask0_18528_1220)">
<path d="M234.536 -49.3594C242.505 -23.8567 235.369 -0.719724 233.357 11.914C229.314 77.7181 189.023 108.25 126.147 136.133C106.992 142.602 96.9689 148.326 82.0898 147.396" stroke="#474747" stroke-width="0.8" stroke-dasharray="2 2"/>
<path d="M116.279 159.695C108.31 134.193 100.941 113.858 102.953 101.225C106.996 35.4204 147.288 4.88846 210.164 -22.9946C229.319 -29.4634 239.342 -35.1872 254.221 -34.2573" stroke="#474747" stroke-width="0.8" stroke-dasharray="2 2"/>
<path d="M117.088 185C109.118 159.497 107.848 139.883 109.86 127.249C112.952 99.212 120.182 78.0602 149.369 46.1233C176.623 16.3016 208.293 10.5863 245.906 31.1611C266.401 42.3719 293.33 45.7797 308.209 46.7096" stroke="#474747" stroke-width="0.8" stroke-dasharray="2 2"/>
<path d="M220.009 -72.1016C227.978 -46.5989 229.248 -26.9841 227.236 -14.3504C224.144 13.6864 216.914 34.8382 187.727 66.7751C160.473 96.5968 128.803 102.312 91.1897 81.7373C70.695 70.5266 49.2317 54.032 33.9414 37.7219" stroke="#474747" stroke-width="0.8" stroke-dasharray="2 2"/>
<line x1="89.859" y1="-35.9274" x2="225.038" y2="153.824" stroke="#474747" stroke-width="0.8" stroke-dasharray="2 2"/>
<path d="M51.6625 114.932L260.376 10.2257" stroke="#474747" stroke-width="0.8" stroke-dasharray="2 2"/>
<line x1="114.449" y1="-35.9665" x2="249.628" y2="153.785" stroke="#474747" stroke-width="0.8" stroke-dasharray="2 2"/>
<line x1="149.988" y1="-56.5446" x2="285.167" y2="133.207" stroke="#474747" stroke-width="0.8" stroke-dasharray="2 2"/>
<line x1="53.9137" y1="-15.8727" x2="189.092" y2="173.879" stroke="#474747" stroke-width="0.8" stroke-dasharray="2 2"/>
<path d="M172.607 80.1398L187.599 100.985C208.233 84.9698 229.442 54.5666 223.454 46.2411L207.296 23.7749C203.387 18.3382 188.758 15.688 163.696 32.8844M172.607 80.1398C172.607 80.1398 201.348 56.6493 211.054 34.9075C210.985 34.8342 177.399 51.9369 177.399 51.9369L163.696 32.8844M172.607 80.1398L158.904 61.0873C158.904 61.0873 125.319 78.19 125.25 78.1167C134.956 56.3749 163.696 32.8844 163.696 32.8844M172.607 80.1398C147.545 97.3362 132.916 94.686 129.007 89.2493L112.847 66.7831C106.86 58.4576 128.072 28.0544 148.704 12.0391L163.696 32.8844" stroke="#474747" stroke-width="0.8"/>
<path d="M211.056 34.9058C201.35 56.6477 172.61 80.1381 172.61 80.1381L158.907 61.0857C158.907 61.0857 125.321 78.1884 125.252 78.1151C134.958 56.3733 163.698 32.8828 163.698 32.8828L177.401 51.9353C177.401 51.9353 210.987 34.8325 211.056 34.9058Z" stroke="#3448FF" stroke-width="0.8"/>
</g>
<defs>
<linearGradient id="paint0_linear_18528_1220" x1="56.75" y1="131.773" x2="56.75" y2="337.468" gradientUnits="userSpaceOnUse">
<stop offset="0.350962" stop-opacity="0"/>
<stop offset="0.701923" stop-color="white"/>
</linearGradient>
</defs>
</svg>
