<svg width="228" height="114" viewBox="0 0 228 114" fill="none" xmlns="http://www.w3.org/2000/svg">
<mask id="mask0_18528_1148" style="mask-type:alpha" maskUnits="userSpaceOnUse" x="-1" y="0" width="229" height="114">
<rect x="-0.464844" y="113.852" width="113.848" height="228.072" transform="rotate(-90 -0.464844 113.852)" fill="url(#paint0_linear_18528_1148)"/>
</mask>
<g mask="url(#mask0_18528_1148)">
<circle cx="150.263" cy="56.9312" r="34.2359" stroke="url(#paint1_linear_18528_1148)" stroke-width="0.866982"/>
<path d="M163.281 36.2969C173.863 36.2969 182.441 44.8752 182.441 55.457C182.441 66.039 173.863 74.6181 163.281 74.6182H157.146L150.026 82.6416L149.652 83.0635L149.278 82.6416L142.157 74.6182H136.842C126.26 74.618 117.682 66.0389 117.682 55.457C117.682 44.8752 126.26 36.297 136.842 36.2969H163.281Z" stroke="#D4D9FF"/>
<path d="M163.289 39.8516C171.898 39.8516 178.877 46.8306 178.877 55.4395C178.877 64.0482 171.898 71.0273 163.289 71.0273H156.518L150.063 78.2998L149.689 78.7207L149.315 78.2998L142.861 71.0273H136.834C128.225 71.0273 121.246 64.0482 121.246 55.4395C121.246 46.8306 128.225 39.8516 136.834 39.8516H163.289Z" stroke="#B2B9FC"/>
<path d="M163.111 43.7109C169.644 43.7109 174.939 49.0067 174.939 55.5391C174.939 62.0712 169.644 67.3662 163.111 67.3662H155.371L150.135 73.2666L149.761 73.6885L149.387 73.2666L144.15 67.3662H137.018C130.485 67.3662 125.19 62.0712 125.189 55.5391C125.189 49.0067 130.485 43.7109 137.018 43.7109H163.111Z" stroke="#8E99FF"/>
<path d="M162.494 47.4141C167.13 47.4142 170.887 51.1722 170.887 55.8076C170.887 60.4429 167.129 64.201 162.494 64.2012H153.591L150.238 67.9795L149.864 68.4004L149.49 67.9795L146.138 64.2012H137.63C132.994 64.2012 129.236 60.4431 129.236 55.8076C129.236 51.1721 132.994 47.4141 137.63 47.4141H162.494Z" stroke="#3448FF"/>
<path d="M149.864 51.8516L147.519 54.2434L145.128 56.5876L147.519 58.9318L149.864 61.3236L152.208 58.9318L154.6 56.5876L152.208 54.2434L149.864 51.8516Z" stroke="url(#paint2_linear_18528_1148)" stroke-width="0.789337"/>
<circle cx="150.263" cy="56.9346" r="41.083" stroke="#BABABA" stroke-width="0.7" stroke-dasharray="0.81 0.81"/>
<circle cx="150.263" cy="56.9344" r="66.4579" stroke="#BABABA" stroke-width="0.7" stroke-dasharray="0.81 0.81"/>
<circle cx="150.27" cy="56.9314" r="52.7635" transform="rotate(45 150.27 56.9314)" stroke="url(#paint3_linear_18528_1148)" stroke-width="0.866982"/>
<ellipse cx="150.271" cy="56.9375" rx="74.5134" ry="74.5134" transform="rotate(135 150.271 56.9375)" stroke="url(#paint4_linear_18528_1148)" stroke-width="0.866982"/>
<path d="M216.72 56.9375H192.106M83.8047 56.9375H108.419" stroke="#BABABA" stroke-width="0.7" stroke-dasharray="0.81 0.81"/>
<path d="M183.491 114.491L171.184 93.1748M117.033 -0.617188L129.34 20.6992" stroke="#BABABA" stroke-width="0.7" stroke-dasharray="0.81 0.81"/>
<path d="M207.817 90.1688L186.501 77.8618M92.709 23.7109L114.025 36.0179" stroke="#BABABA" stroke-width="0.7" stroke-dasharray="0.81 0.81"/>
<path d="M150.262 123.392L150.262 98.7783M150.262 -9.52344L150.262 15.0906" stroke="#BABABA" stroke-width="0.7" stroke-dasharray="0.81 0.81"/>
<path d="M214.457 74.1355L190.682 67.7649M86.0703 39.7344L109.846 46.105" stroke="#BABABA" stroke-width="0.7" stroke-dasharray="0.81 0.81"/>
<path d="M167.464 121.129L161.093 97.3536M133.062 -7.25781L139.433 16.5175" stroke="#BABABA" stroke-width="0.7" stroke-dasharray="0.81 0.81"/>
<path d="M197.257 103.931L179.852 86.5262M103.271 9.94531L120.676 27.3501" stroke="#BABABA" stroke-width="0.7" stroke-dasharray="0.81 0.81"/>
<path d="M133.062 121.129L139.432 97.3536M167.463 -7.25781L161.092 16.5175" stroke="#BABABA" stroke-width="0.7" stroke-dasharray="0.81 0.81"/>
<path d="M117.032 114.491L129.339 93.1748M183.49 -0.617188L171.183 20.6992" stroke="#BABABA" stroke-width="0.7" stroke-dasharray="0.81 0.81"/>
<path d="M92.71 90.1688L114.026 77.8618M207.818 23.7109L186.502 36.0179" stroke="#BABABA" stroke-width="0.7" stroke-dasharray="0.81 0.81"/>
<path d="M103.27 103.931L120.675 86.5262M197.256 9.94531L179.851 27.3501" stroke="#BABABA" stroke-width="0.7" stroke-dasharray="0.81 0.81"/>
<path d="M86.0703 74.1355L109.846 67.7649M214.457 39.7344L190.682 46.105" stroke="#BABABA" stroke-width="0.7" stroke-dasharray="0.81 0.81"/>
<g clip-path="url(#clip0_18528_1148)">
<rect width="2.41665" height="2.41665" transform="translate(148.654 15.9453) rotate(-45)" fill="#BABABA"/>
</g>
<g clip-path="url(#clip1_18528_1148)">
<rect width="2.41665" height="2.41665" transform="translate(107.57 57.0312) rotate(-45)" fill="#BABABA"/>
</g>
<g clip-path="url(#clip2_18528_1148)">
<rect width="2.41665" height="2.41665" transform="translate(189.736 57.0312) rotate(-45)" fill="#BABABA"/>
</g>
<g clip-path="url(#clip3_18528_1148)">
<rect width="2.41665" height="2.41665" transform="translate(206.25 24.0078) rotate(-45)" fill="#BABABA"/>
</g>
<g clip-path="url(#clip4_18528_1148)">
<rect width="2.41665" height="2.41665" transform="translate(91.0566 24.0078) rotate(-45)" fill="#BABABA"/>
</g>
<g clip-path="url(#clip5_18528_1148)">
<rect width="2.41665" height="2.41665" transform="translate(206.25 90.0625) rotate(-45)" fill="#BABABA"/>
</g>
<g clip-path="url(#clip6_18528_1148)">
<rect width="2.41665" height="2.41665" transform="translate(91.0566 90.0625) rotate(-45)" fill="#BABABA"/>
</g>
<g clip-path="url(#clip7_18528_1148)">
<rect width="2.41665" height="2.41665" transform="translate(148.654 98.1172) rotate(-45)" fill="#BABABA"/>
</g>
</g>
<defs>
<linearGradient id="paint0_linear_18528_1148" x1="56.459" y1="132.41" x2="56.459" y2="335.663" gradientUnits="userSpaceOnUse">
<stop offset="0.13" stop-opacity="0"/>
<stop offset="0.7" stop-color="white"/>
</linearGradient>
<linearGradient id="paint1_linear_18528_1148" x1="184.499" y1="56.9312" x2="116.027" y2="56.9312" gradientUnits="userSpaceOnUse">
<stop stop-color="#3448FF" stop-opacity="0"/>
<stop offset="0.5" stop-color="#3448FF"/>
<stop offset="1" stop-color="#3448FF" stop-opacity="0"/>
</linearGradient>
<linearGradient id="paint2_linear_18528_1148" x1="152.543" y1="66.3755" x2="145.836" y2="54.7681" gradientUnits="userSpaceOnUse">
<stop stop-color="#3448FF"/>
<stop offset="0.239816" stop-color="#2C3CD6"/>
<stop offset="0.309129" stop-color="#F0F1FF"/>
<stop offset="0.381185" stop-color="#2837C4"/>
<stop offset="0.695" stop-color="#1F2B99"/>
<stop offset="0.98" stop-color="#1F2B99" stop-opacity="0"/>
</linearGradient>
<linearGradient id="paint3_linear_18528_1148" x1="203.033" y1="56.9314" x2="97.506" y2="56.9314" gradientUnits="userSpaceOnUse">
<stop stop-color="#3448FF" stop-opacity="0"/>
<stop offset="0.5" stop-color="#3448FF"/>
<stop offset="1" stop-color="#3448FF" stop-opacity="0"/>
</linearGradient>
<linearGradient id="paint4_linear_18528_1148" x1="224.784" y1="56.9375" x2="75.7573" y2="56.9375" gradientUnits="userSpaceOnUse">
<stop stop-color="#3448FF" stop-opacity="0"/>
<stop offset="0.5" stop-color="#3448FF"/>
<stop offset="1" stop-color="#3448FF" stop-opacity="0"/>
</linearGradient>
<clipPath id="clip0_18528_1148">
<rect width="2.41665" height="2.41665" fill="white" transform="translate(148.654 15.9453) rotate(-45)"/>
</clipPath>
<clipPath id="clip1_18528_1148">
<rect width="2.41665" height="2.41665" fill="white" transform="translate(107.57 57.0312) rotate(-45)"/>
</clipPath>
<clipPath id="clip2_18528_1148">
<rect width="2.41665" height="2.41665" fill="white" transform="translate(189.736 57.0312) rotate(-45)"/>
</clipPath>
<clipPath id="clip3_18528_1148">
<rect width="2.41665" height="2.41665" fill="white" transform="translate(206.25 24.0078) rotate(-45)"/>
</clipPath>
<clipPath id="clip4_18528_1148">
<rect width="2.41665" height="2.41665" fill="white" transform="translate(91.0566 24.0078) rotate(-45)"/>
</clipPath>
<clipPath id="clip5_18528_1148">
<rect width="2.41665" height="2.41665" fill="white" transform="translate(206.25 90.0625) rotate(-45)"/>
</clipPath>
<clipPath id="clip6_18528_1148">
<rect width="2.41665" height="2.41665" fill="white" transform="translate(91.0566 90.0625) rotate(-45)"/>
</clipPath>
<clipPath id="clip7_18528_1148">
<rect width="2.41665" height="2.41665" fill="white" transform="translate(148.654 98.1172) rotate(-45)"/>
</clipPath>
</defs>
</svg>
