<svg width="182" height="251" viewBox="0 0 182 251" fill="none" xmlns="http://www.w3.org/2000/svg">
<g clip-path="url(#clip0_18748_1453)">
<path d="M91.0068 267.761C66.0597 267.761 41.9633 258.692 23.207 242.243C4.4508 225.794 -7.68606 203.088 -10.9423 178.354C-14.1986 153.621 -8.35211 128.547 5.50777 107.804C19.3676 87.061 40.2957 72.0642 64.3927 65.6074L91.0068 164.932L91.0068 267.761Z" fill="url(#paint0_linear_18748_1453)"/>
<circle opacity="0.7" cx="91.168" cy="165" r="70" stroke="#BABABA" stroke-width="0.8" stroke-dasharray="2.16 2.16"/>
<circle opacity="0.7" cx="91.168" cy="165" r="87" stroke="#BABABA" stroke-width="0.8" stroke-dasharray="2.16 2.16"/>
<circle opacity="0.7" cx="91.3415" cy="164.93" r="102.829" stroke="#BABABA" stroke-width="0.8" stroke-dasharray="2.16 2.16"/>
<path opacity="0.7" d="M-8.02071 191.356C-22.7192 136.501 9.83454 80.1157 64.6902 65.4172" stroke="#3448FF" stroke-width="0.8" stroke-dasharray="2.16 2.16"/>
<path d="M139.767 209.828L138.287 211.338L136.777 212.818L138.287 214.298L139.767 215.808L141.247 214.298L142.757 212.818L141.247 211.338L139.767 209.828Z" fill="#3448FF"/>
<path d="M14.5764 122.43L13.0964 123.94L11.5864 125.42L13.0964 126.9L14.5764 128.41L16.0564 126.9L17.5664 125.42L16.0564 123.94L14.5764 122.43Z" fill="#3448FF"/>
<path d="M174.158 187L172.678 188.51L171.168 189.99L172.678 191.47L174.158 192.98L175.638 191.47L177.148 189.99L175.638 188.51L174.158 187Z" fill="#3448FF"/>
<path d="M64.5295 62.4688L63.0496 63.9788L61.5395 65.4588L63.0496 66.9387L64.5295 68.4488L66.0095 66.9387L67.5195 65.4588L66.0095 63.9788L64.5295 62.4688Z" fill="#3448FF"/>
<path d="M57.316 155.9V151.224H52.864V147.78H57.316V143.132H61.124V147.78H65.576V151.224H61.124V155.9H57.316ZM75.6691 154.36H66.3731V150.972L74.6891 141.2H79.5051V150.972H81.6331V154.36H79.5051V158H75.6691V154.36ZM75.6691 144.98L75.6131 144.952L70.6851 151.028C71.8891 151 72.9531 150.972 73.7371 150.972H75.6691V144.98ZM89.7678 144.42C87.6678 144.42 86.5198 145.792 86.3238 148.536L82.5158 148.228C82.8238 143.72 85.1198 140.864 89.8238 140.864C94.0518 140.864 96.4318 142.684 96.4318 146.436C96.4318 149.628 94.1078 151.336 89.6558 152.176C87.1358 152.736 86.2958 153.212 86.1278 154.472C87.0798 154.444 88.1158 154.416 88.8718 154.416H96.5438V158H82.1518C82.0958 157.328 82.0958 156.684 82.0958 155.956C82.0958 151.924 83.9158 150.16 88.1718 149.208C91.6718 148.396 92.3438 147.696 92.3438 146.408C92.3438 145.288 91.5318 144.42 89.7678 144.42ZM97.5769 153.94H101.693V158H97.5769V153.94ZM109.909 158.28C105.345 158.28 102.853 156.32 102.545 152.148L106.493 151.84C106.745 153.66 107.417 154.78 110.021 154.78C111.841 154.78 112.793 154.052 112.793 152.848C112.793 151.644 112.205 151.056 110.077 151.056H107.389V148.088H110.077C111.561 148.088 112.429 147.612 112.429 146.324C112.429 144.98 111.561 144.42 109.825 144.42C107.641 144.42 107.025 145.4 106.801 147.08L102.993 146.772C103.385 143.188 105.457 140.92 109.797 140.92C114.221 140.92 116.153 142.516 116.153 145.428C116.153 147.584 115.005 148.844 112.849 149.404V149.46C115.845 149.852 116.825 151.056 116.825 153.352C116.825 156.208 114.809 158.28 109.909 158.28Z" fill="#97A3B6"/>
<path d="M122.125 153L125.925 145.88H126.877L123.077 153H122.125ZM121.897 149.9C121.504 149.9 121.176 149.82 120.912 149.66C120.649 149.5 120.451 149.267 120.32 148.962C120.19 148.657 120.125 148.287 120.125 147.85C120.125 147.41 120.19 147.037 120.32 146.73C120.451 146.423 120.649 146.19 120.912 146.03C121.176 145.87 121.504 145.79 121.897 145.79C122.291 145.79 122.618 145.87 122.88 146.03C123.143 146.19 123.34 146.423 123.47 146.73C123.601 147.037 123.667 147.41 123.667 147.85C123.667 148.287 123.601 148.657 123.47 148.962C123.34 149.267 123.143 149.5 122.88 149.66C122.618 149.82 122.291 149.9 121.897 149.9ZM121.902 149.027C122.052 149.027 122.177 148.989 122.277 148.912C122.377 148.836 122.453 148.712 122.505 148.54C122.556 148.367 122.582 148.137 122.582 147.85C122.582 147.558 122.556 147.326 122.505 147.152C122.453 146.977 122.377 146.852 122.277 146.777C122.177 146.701 122.052 146.662 121.902 146.662C121.747 146.662 121.62 146.701 121.52 146.777C121.42 146.852 121.343 146.977 121.29 147.152C121.238 147.327 121.212 147.56 121.212 147.85C121.212 148.137 121.238 148.367 121.29 148.54C121.343 148.712 121.42 148.836 121.52 148.912C121.621 148.989 121.749 149.027 121.902 149.027ZM127.105 153.09C126.71 153.09 126.381 153.01 126.117 152.85C125.856 152.69 125.659 152.457 125.527 152.152C125.397 151.847 125.332 151.477 125.332 151.04C125.332 150.6 125.397 150.227 125.527 149.92C125.659 149.612 125.856 149.378 126.117 149.22C126.381 149.06 126.71 148.98 127.105 148.98C127.496 148.98 127.824 149.06 128.087 149.22C128.351 149.38 128.547 149.613 128.677 149.92C128.809 150.227 128.875 150.6 128.875 151.04C128.875 151.477 128.809 151.847 128.677 152.152C128.547 152.457 128.351 152.69 128.087 152.85C127.824 153.01 127.496 153.09 127.105 153.09ZM127.11 152.217C127.261 152.217 127.386 152.179 127.485 152.102C127.585 152.026 127.661 151.902 127.712 151.73C127.764 151.557 127.79 151.327 127.79 151.04C127.79 150.748 127.764 150.516 127.712 150.342C127.661 150.167 127.585 150.042 127.485 149.967C127.386 149.891 127.261 149.852 127.11 149.852C126.955 149.852 126.827 149.891 126.727 149.967C126.627 150.042 126.551 150.167 126.497 150.342C126.446 150.517 126.42 150.75 126.42 151.04C126.42 151.327 126.446 151.557 126.497 151.73C126.551 151.902 126.627 152.026 126.727 152.102C126.829 152.179 126.956 152.217 127.11 152.217Z" fill="#97A3B6"/>
<path d="M53.9438 172V164.88H54.8738V172H53.9438ZM56.2207 172V166.84H57.0807V167.84H57.1407V172H56.2207ZM59.6407 168.6C59.6407 168.362 59.6032 168.162 59.5282 168C59.4532 167.838 59.339 167.717 59.1857 167.635C59.034 167.552 58.8424 167.51 58.6107 167.51C58.3524 167.51 58.1124 167.562 57.8907 167.667C57.6707 167.772 57.4907 167.946 57.3507 168.187C57.2107 168.429 57.1407 168.743 57.1407 169.13H56.8307V167.75H56.9807C57.0907 167.53 57.2349 167.342 57.4132 167.187C57.5932 167.032 57.8015 166.914 58.0382 166.832C58.2749 166.751 58.5324 166.71 58.8107 166.71C59.1707 166.71 59.4815 166.777 59.7432 166.912C60.0065 167.046 60.2082 167.241 60.3482 167.497C60.4899 167.752 60.5607 168.06 60.5607 168.42V172H59.6407V168.6ZM64.3035 172V164.88H67.6035C68.0518 164.88 68.4393 164.957 68.766 165.112C69.0943 165.266 69.346 165.484 69.521 165.767C69.696 166.051 69.7835 166.382 69.7835 166.76C69.7835 167.112 69.711 167.424 69.566 167.697C69.421 167.969 69.2218 168.183 68.9685 168.34C68.7152 168.497 68.4302 168.583 68.1135 168.6V168.5C68.3935 168.5 68.6393 168.547 68.851 168.642C69.0643 168.736 69.2352 168.875 69.3635 169.06C69.4935 169.243 69.5735 169.467 69.6035 169.73L69.7535 171.04C69.7668 171.16 69.7793 171.274 69.791 171.382C69.8043 171.489 69.8168 171.593 69.8285 171.695C69.8402 171.795 69.8527 171.897 69.866 172H68.926C68.9127 171.888 68.8985 171.768 68.8835 171.64C68.8685 171.51 68.8543 171.378 68.841 171.245C68.8377 171.218 68.8343 171.192 68.831 171.167C68.8277 171.141 68.8252 171.115 68.8235 171.09L68.7135 170.1C68.6818 169.817 68.6185 169.59 68.5235 169.42C68.4285 169.25 68.2927 169.126 68.116 169.047C67.9393 168.969 67.7118 168.93 67.4335 168.93H64.7835V168.12H67.2835C67.6068 168.12 67.8843 168.071 68.116 167.972C68.3477 167.872 68.5252 167.727 68.6485 167.537C68.7718 167.347 68.8335 167.118 68.8335 166.85C68.8335 166.6 68.7802 166.389 68.6735 166.217C68.5668 166.044 68.4093 165.913 68.201 165.825C67.9943 165.735 67.7418 165.69 67.4435 165.69H64.7835L65.2335 165.32V172H64.3035ZM73.2129 172.12C72.7096 172.12 72.2729 172.005 71.9029 171.775C71.5346 171.545 71.2521 171.225 71.0554 170.815C70.8604 170.403 70.7629 169.932 70.7629 169.4C70.7629 168.872 70.8587 168.406 71.0504 168.002C71.2437 167.597 71.5229 167.282 71.8879 167.057C72.2546 166.832 72.6896 166.72 73.1929 166.72C73.6746 166.72 74.0921 166.823 74.4454 167.03C74.8004 167.237 75.0737 167.534 75.2654 167.922C75.4571 168.309 75.5529 168.768 75.5529 169.3C75.5529 169.357 75.5529 169.413 75.5529 169.47C75.5529 169.527 75.5529 169.583 75.5529 169.64H71.5229V168.98H75.0929L74.7129 169.42C74.7129 169.003 74.6537 168.649 74.5354 168.357C74.4171 168.066 74.2454 167.845 74.0204 167.695C73.7954 167.545 73.5229 167.47 73.2029 167.47C72.9012 167.47 72.6362 167.537 72.4079 167.67C72.1796 167.803 72.0012 168.002 71.8729 168.267C71.7462 168.532 71.6829 168.857 71.6829 169.24V169.55C71.6829 169.95 71.7462 170.286 71.8729 170.557C71.9996 170.829 72.1796 171.032 72.4129 171.167C72.6462 171.302 72.9229 171.37 73.2429 171.37C73.4796 171.37 73.6879 171.334 73.8679 171.262C74.0496 171.189 74.2037 171.082 74.3304 170.942C74.4571 170.802 74.5596 170.631 74.6379 170.427L75.4829 170.527C75.3729 170.864 75.2096 171.152 74.9929 171.39C74.7779 171.628 74.5187 171.81 74.2154 171.935C73.9137 172.058 73.5796 172.12 73.2129 172.12ZM78.6439 172.13C78.1606 172.13 77.7397 172.027 77.3814 171.822C77.0231 171.617 76.7456 171.315 76.5489 170.915C76.3522 170.515 76.2539 170.03 76.2539 169.46C76.2539 168.887 76.3531 168.394 76.5514 167.982C76.7497 167.569 77.0322 167.254 77.3989 167.037C77.7656 166.819 78.1972 166.71 78.6939 166.71C79.0906 166.71 79.4414 166.78 79.7464 166.92C80.0531 167.058 80.3022 167.264 80.4939 167.537C80.6872 167.809 80.8131 168.14 80.8714 168.53H80.0089C79.9606 168.295 79.8797 168.1 79.7664 167.945C79.6531 167.79 79.5072 167.674 79.3289 167.597C79.1522 167.519 78.9439 167.48 78.7039 167.48C78.3622 167.48 78.0772 167.557 77.8489 167.71C77.6222 167.862 77.4531 168.082 77.3414 168.37C77.2297 168.658 77.1739 169.008 77.1739 169.42C77.1739 169.827 77.2322 170.175 77.3489 170.465C77.4672 170.755 77.6397 170.977 77.8664 171.13C78.0947 171.283 78.3706 171.36 78.6939 171.36C78.9439 171.36 79.1589 171.315 79.3389 171.225C79.5189 171.133 79.6639 171.002 79.7739 170.83C79.8856 170.658 79.9647 170.448 80.0114 170.2H80.8689C80.8106 170.607 80.6881 170.954 80.5014 171.242C80.3147 171.529 80.0656 171.749 79.7539 171.902C79.4422 172.054 79.0722 172.13 78.6439 172.13ZM84.0003 172.13C83.5103 172.13 83.077 172.016 82.7003 171.787C82.3253 171.557 82.0345 171.236 81.8278 170.822C81.6228 170.409 81.5203 169.935 81.5203 169.4C81.5203 168.87 81.627 168.402 81.8403 167.995C82.0536 167.587 82.3486 167.271 82.7253 167.047C83.102 166.822 83.527 166.71 84.0003 166.71C84.482 166.71 84.9111 166.821 85.2878 167.042C85.6645 167.262 85.9586 167.577 86.1703 167.985C86.3836 168.392 86.4903 168.863 86.4903 169.4C86.4903 169.938 86.3845 170.414 86.1728 170.827C85.9628 171.241 85.6686 171.562 85.2903 171.79C84.9136 172.017 84.4836 172.13 84.0003 172.13ZM84.0003 171.36C84.3303 171.36 84.6128 171.278 84.8478 171.115C85.0845 170.95 85.2636 170.72 85.3853 170.425C85.5086 170.13 85.5703 169.788 85.5703 169.4C85.5703 169.01 85.5078 168.671 85.3828 168.382C85.2595 168.094 85.0795 167.872 84.8428 167.715C84.6078 167.558 84.327 167.48 84.0003 167.48C83.677 167.48 83.3978 167.558 83.1628 167.715C82.9295 167.87 82.7503 168.092 82.6253 168.38C82.502 168.668 82.4403 169.008 82.4403 169.4C82.4403 169.79 82.502 170.133 82.6253 170.43C82.7486 170.725 82.927 170.954 83.1603 171.117C83.3953 171.279 83.6753 171.36 84.0003 171.36ZM88.7218 172L86.7418 166.84H87.7318L88.8018 169.94C88.8768 170.177 88.951 170.416 89.0243 170.657C89.0976 170.899 89.1635 171.123 89.2218 171.33H89.1518C89.2185 171.103 89.2876 170.872 89.3593 170.635C89.4326 170.397 89.5068 170.155 89.5818 169.91L90.5918 166.84H91.5218L89.6318 172H88.7218ZM94.2297 172.12C93.7264 172.12 93.2897 172.005 92.9197 171.775C92.5514 171.545 92.2689 171.225 92.0722 170.815C91.8772 170.403 91.7797 169.932 91.7797 169.4C91.7797 168.872 91.8755 168.406 92.0672 168.002C92.2605 167.597 92.5397 167.282 92.9047 167.057C93.2714 166.832 93.7064 166.72 94.2097 166.72C94.6914 166.72 95.1089 166.823 95.4622 167.03C95.8172 167.237 96.0905 167.534 96.2822 167.922C96.4739 168.309 96.5697 168.768 96.5697 169.3C96.5697 169.357 96.5697 169.413 96.5697 169.47C96.5697 169.527 96.5697 169.583 96.5697 169.64H92.5397V168.98H96.1097L95.7297 169.42C95.7297 169.003 95.6705 168.649 95.5522 168.357C95.4339 168.066 95.2622 167.845 95.0372 167.695C94.8122 167.545 94.5397 167.47 94.2197 167.47C93.918 167.47 93.653 167.537 93.4247 167.67C93.1964 167.803 93.018 168.002 92.8897 168.267C92.763 168.532 92.6997 168.857 92.6997 169.24V169.55C92.6997 169.95 92.763 170.286 92.8897 170.557C93.0164 170.829 93.1964 171.032 93.4297 171.167C93.663 171.302 93.9397 171.37 94.2597 171.37C94.4964 171.37 94.7047 171.334 94.8847 171.262C95.0664 171.189 95.2205 171.082 95.3472 170.942C95.4739 170.802 95.5764 170.631 95.6547 170.427L96.4997 170.527C96.3897 170.864 96.2264 171.152 96.0097 171.39C95.7947 171.628 95.5355 171.81 95.2322 171.935C94.9305 172.058 94.5964 172.12 94.2297 172.12ZM97.5707 172V166.84H98.4307V168.14H98.4907V172H97.5707ZM98.2507 168.35C98.344 168.008 98.4682 167.715 98.6232 167.47C98.7799 167.225 98.974 167.036 99.2057 166.902C99.4374 166.767 99.709 166.7 100.021 166.7C100.067 166.7 100.115 166.702 100.163 166.705C100.212 166.708 100.257 166.712 100.301 166.717V167.612C100.241 167.607 100.182 167.604 100.126 167.602C100.069 167.601 100.017 167.6 99.9707 167.6C99.734 167.6 99.504 167.661 99.2807 167.782C99.059 167.904 98.8749 168.084 98.7282 168.322C98.5832 168.561 98.504 168.847 98.4907 169.18H98.2907L98.2507 168.35ZM101 173.27C101.08 173.27 101.16 173.27 101.24 173.27C101.32 173.27 101.4 173.27 101.48 173.27C101.64 173.27 101.77 173.25 101.87 173.21C101.97 173.17 102.056 173.101 102.128 173.003C102.199 172.906 102.27 172.765 102.34 172.58L102.7 171.63L102.81 172.51L100.5 166.84H101.5L102.66 169.93C102.745 170.157 102.831 170.407 102.918 170.68C103.006 170.953 103.077 171.19 103.13 171.39H102.87C102.922 171.198 102.991 170.967 103.078 170.695C103.166 170.422 103.253 170.167 103.34 169.93L104.44 166.84H105.39L102.99 173.01C102.887 173.273 102.772 173.479 102.645 173.628C102.52 173.776 102.372 173.882 102.2 173.945C102.03 174.008 101.82 174.04 101.57 174.04C101.475 174.04 101.38 174.04 101.285 174.04C101.19 174.04 101.095 174.04 101 174.04V173.27ZM108.586 172V164.88H111.886C112.334 164.88 112.722 164.957 113.048 165.112C113.377 165.266 113.628 165.484 113.803 165.767C113.978 166.051 114.066 166.382 114.066 166.76C114.066 167.112 113.993 167.424 113.848 167.697C113.703 167.969 113.504 168.183 113.251 168.34C112.998 168.497 112.713 168.583 112.396 168.6V168.5C112.676 168.5 112.922 168.547 113.133 168.642C113.347 168.736 113.518 168.875 113.646 169.06C113.776 169.243 113.856 169.467 113.886 169.73L114.036 171.04C114.049 171.16 114.062 171.274 114.073 171.382C114.087 171.489 114.099 171.593 114.111 171.695C114.123 171.795 114.135 171.897 114.148 172H113.208C113.195 171.888 113.181 171.768 113.166 171.64C113.151 171.51 113.137 171.378 113.123 171.245C113.12 171.218 113.117 171.192 113.113 171.167C113.11 171.141 113.108 171.115 113.106 171.09L112.996 170.1C112.964 169.817 112.901 169.59 112.806 169.42C112.711 169.25 112.575 169.126 112.398 169.047C112.222 168.969 111.994 168.93 111.716 168.93H109.066V168.12H111.566C111.889 168.12 112.167 168.071 112.398 167.972C112.63 167.872 112.808 167.727 112.931 167.537C113.054 167.347 113.116 167.118 113.116 166.85C113.116 166.6 113.063 166.389 112.956 166.217C112.849 166.044 112.692 165.913 112.483 165.825C112.277 165.735 112.024 165.69 111.726 165.69H109.066L109.516 165.32V172H108.586ZM119.604 172C119.404 172 119.237 171.967 119.104 171.9C118.971 171.832 118.871 171.731 118.804 171.597C118.737 171.462 118.704 171.297 118.704 171.1L118.564 171.02V169.17V168.88V168.26C118.564 168.078 118.522 167.929 118.439 167.812C118.357 167.694 118.231 167.606 118.059 167.547C117.889 167.489 117.671 167.46 117.404 167.46C117.151 167.46 116.942 167.489 116.779 167.547C116.616 167.606 116.489 167.702 116.399 167.837C116.311 167.971 116.256 168.152 116.234 168.38H115.324C115.352 168.003 115.452 167.691 115.622 167.442C115.793 167.192 116.033 167.007 116.342 166.885C116.652 166.762 117.029 166.7 117.474 166.7C117.906 166.7 118.272 166.76 118.572 166.88C118.872 166.998 119.1 167.18 119.257 167.425C119.415 167.67 119.494 167.978 119.494 168.35V170.87C119.494 170.985 119.508 171.075 119.537 171.14C119.565 171.203 119.611 171.249 119.674 171.277C119.739 171.306 119.829 171.32 119.944 171.32C119.969 171.32 119.994 171.32 120.019 171.32C120.044 171.32 120.069 171.32 120.094 171.32V172C120.012 172 119.931 172 119.849 172C119.767 172 119.686 172 119.604 172ZM116.844 172.13C116.494 172.13 116.189 172.071 115.929 171.952C115.669 171.834 115.468 171.662 115.327 171.437C115.185 171.211 115.114 170.942 115.114 170.63C115.114 170.34 115.175 170.084 115.297 169.862C115.42 169.641 115.612 169.458 115.872 169.315C116.133 169.17 116.467 169.072 116.874 169.02L118.194 168.85C118.279 168.838 118.348 168.817 118.402 168.787C118.457 168.756 118.497 168.713 118.524 168.66C118.551 168.607 118.564 168.54 118.564 168.46L118.934 168.99C118.934 169.087 118.922 169.168 118.897 169.235C118.872 169.302 118.832 169.354 118.779 169.392C118.726 169.431 118.657 169.457 118.574 169.47L117.024 169.7C116.789 169.735 116.597 169.793 116.449 169.875C116.302 169.955 116.195 170.055 116.127 170.175C116.058 170.293 116.024 170.432 116.024 170.59C116.024 170.763 116.064 170.912 116.144 171.037C116.226 171.162 116.341 171.257 116.489 171.322C116.639 171.387 116.814 171.42 117.014 171.42C117.286 171.42 117.541 171.363 117.779 171.25C118.017 171.137 118.207 170.986 118.349 170.797C118.492 170.609 118.564 170.407 118.564 170.19H118.854V170.95C118.772 171.168 118.638 171.367 118.452 171.547C118.265 171.726 118.034 171.867 117.759 171.972C117.484 172.078 117.179 172.13 116.844 172.13ZM122.187 172C121.919 172 121.701 171.96 121.532 171.88C121.364 171.798 121.239 171.673 121.157 171.505C121.077 171.337 121.037 171.118 121.037 170.85V167.95V167.17V166.45V165.26H121.957V166.45V167.17V167.95V170.73C121.957 170.858 121.972 170.958 122.002 171.03C122.034 171.102 122.086 171.153 122.157 171.185C122.229 171.215 122.329 171.23 122.457 171.23C122.551 171.23 122.644 171.23 122.737 171.23C122.832 171.23 122.927 171.23 123.022 171.23H123.127V172C123.111 172 123.095 172 123.08 172C123.065 172 123.049 172 123.032 172C122.892 172 122.751 172 122.61 172C122.468 172 122.327 172 122.187 172ZM120.197 167.55V166.84L121.497 166.89L123.137 166.84V167.55L121.497 167.5L120.197 167.55ZM126.065 172.12C125.562 172.12 125.125 172.005 124.755 171.775C124.387 171.545 124.104 171.225 123.908 170.815C123.713 170.403 123.615 169.932 123.615 169.4C123.615 168.872 123.711 168.406 123.903 168.002C124.096 167.597 124.375 167.282 124.74 167.057C125.107 166.832 125.542 166.72 126.045 166.72C126.527 166.72 126.944 166.823 127.298 167.03C127.653 167.237 127.926 167.534 128.118 167.922C128.309 168.309 128.405 168.768 128.405 169.3C128.405 169.357 128.405 169.413 128.405 169.47C128.405 169.527 128.405 169.583 128.405 169.64H124.375V168.98H127.945L127.565 169.42C127.565 169.003 127.506 168.649 127.388 168.357C127.269 168.066 127.098 167.845 126.873 167.695C126.648 167.545 126.375 167.47 126.055 167.47C125.754 167.47 125.489 167.537 125.26 167.67C125.032 167.803 124.854 168.002 124.725 168.267C124.599 168.532 124.535 168.857 124.535 169.24V169.55C124.535 169.95 124.599 170.286 124.725 170.557C124.852 170.829 125.032 171.032 125.265 171.167C125.499 171.302 125.775 171.37 126.095 171.37C126.332 171.37 126.54 171.334 126.72 171.262C126.902 171.189 127.056 171.082 127.183 170.942C127.309 170.802 127.412 170.631 127.49 170.427L128.335 170.527C128.225 170.864 128.062 171.152 127.845 171.39C127.63 171.628 127.371 171.81 127.068 171.935C126.766 172.058 126.432 172.12 126.065 172.12Z" fill="#97A3B6"/>
</g>
<defs>
<linearGradient id="paint0_linear_18748_1453" x1="68.9214" y1="2.69154" x2="71.2608" y2="127.333" gradientUnits="userSpaceOnUse">
<stop stop-color="#3448FF"/>
<stop offset="1" stop-color="white" stop-opacity="0"/>
</linearGradient>
<clipPath id="clip0_18748_1453">
<path d="M0 14C0 6.26801 6.26801 0 14 0H167.832C175.564 0 181.832 6.26801 181.832 14V237C181.832 244.732 175.564 251 167.832 251H14C6.26801 251 0 244.732 0 237V14Z" fill="white"/>
</clipPath>
</defs>
</svg>
