<svg width="68" height="68" viewBox="0 0 68 68" fill="none" xmlns="http://www.w3.org/2000/svg">
<path d="M33.6251 66.6252C51.8505 66.6252 66.625 51.8506 66.625 33.6252C66.625 15.3999 51.8505 0.625244 33.6251 0.625244C15.3996 0.625244 0.625 15.3999 0.625 33.6252C0.625 51.8506 15.3996 66.6252 33.6251 66.6252Z" stroke="white" stroke-width="1.25058" stroke-miterlimit="10"/>
<mask id="mask0_19589_9035" style="mask-type:luminance" maskUnits="userSpaceOnUse" x="0" y="0" width="68" height="67">
<path d="M33.6251 66.6252C52.1267 66.6252 67.125 51.8506 67.125 33.6252C67.125 15.3999 52.1267 0.625244 33.6251 0.625244C15.1235 0.625244 0.125 15.3999 0.125 33.6252C0.125 51.8506 15.1235 66.6252 33.6251 66.6252Z" fill="white"/>
<path d="M33.625 0.997314C51.9266 0.997314 66.7529 15.6104 66.7529 33.6252C66.7529 51.6401 51.9266 66.2532 33.625 66.2532C15.3234 66.2531 0.497077 51.6401 0.49707 33.6252C0.49707 15.6104 15.3234 0.997355 33.625 0.997314Z" stroke="#ECF9FF" stroke-opacity="0.33" stroke-width="0.743267"/>
</mask>
<g mask="url(#mask0_19589_9035)">
<path d="M105.13 -3.35229L87.6836 33.6252L87.666 33.6614L87.6572 33.7014C86.2222 40.0537 83.504 43.4898 80.2949 45.134C77.0723 46.7852 73.272 46.6731 69.5918 45.7512C65.9159 44.8304 62.4082 43.1131 59.8125 41.6194C58.5165 40.8736 57.4512 40.1858 56.7109 39.6848C56.341 39.4345 56.0521 39.2307 55.8564 39.0901C55.7586 39.0198 55.6836 38.9647 55.6338 38.928C55.6091 38.9098 55.5904 38.8962 55.5781 38.887C55.5719 38.8824 55.5674 38.8785 55.5645 38.8762C55.563 38.8751 55.5612 38.8748 55.5605 38.8743V38.8733L54.9941 38.4456L54.9648 39.1545C54.8813 41.1853 53.9229 43.2339 52.959 44.7971C52.48 45.5739 52.0063 46.2209 51.6523 46.6731C51.5511 46.8025 51.4566 46.9133 51.3779 47.009C51.3483 46.9671 51.3185 46.9205 51.2842 46.8733C51.0351 46.5305 50.6623 46.0538 50.165 45.511C49.1711 44.426 47.6734 43.0719 45.6582 42.0012C41.6056 39.8481 35.5215 38.8734 27.3623 43.3782C23.3833 45.575 19.9918 46.3256 17.1494 46.2366C14.3076 46.1476 11.9893 45.2187 10.1572 44.0168C8.32256 42.8132 6.97526 41.3353 6.08594 40.1555C5.64193 39.5665 5.31332 39.0538 5.09668 38.6897C4.98845 38.5078 4.90819 38.3631 4.85547 38.2649C4.82914 38.2159 4.80951 38.1783 4.79688 38.1536C4.79061 38.1413 4.78611 38.132 4.7832 38.1262C4.78175 38.1233 4.78088 38.1206 4.78027 38.1194L4.7793 38.1184L4.57812 37.7053L4.21582 37.9895C2.08706 39.6636 0.169372 40.2263 -1.50098 40.1653C-3.17708 40.104 -4.65052 39.4128 -5.88184 38.4973C-7.114 37.5811 -8.08821 36.4516 -8.75586 35.5452C-9.08883 35.0931 -9.34355 34.699 -9.51465 34.4192C-9.60002 34.2796 -9.66433 34.1685 -9.70703 34.093C-9.72839 34.0553 -9.74451 34.0261 -9.75488 34.0071C-9.75997 33.9978 -9.7642 33.9911 -9.7666 33.9866C-9.76766 33.9846 -9.76804 33.9827 -9.76855 33.9817L-9.76953 33.9807L-10.1885 33.1858L-10.4531 34.0442C-11.2475 36.6197 -13.7917 37.5792 -16.3027 37.8645C-17.5428 38.0054 -18.7348 37.9762 -19.6191 37.9104C-20.0606 37.8776 -20.4241 37.8353 -20.6758 37.802C-20.6881 37.8004 -20.7001 37.7977 -20.7119 37.7961C-20.7005 37.7017 -20.6846 37.5902 -20.6719 37.4622C-20.6266 37.0061 -20.579 36.3413 -20.5654 35.4983C-20.5384 33.8119 -20.6501 31.411 -21.2051 28.5422C-22.3157 22.802 -25.1987 15.1924 -32.2744 7.68481C-39.1973 0.339367 -39.9227 -7.68077 -38.918 -13.8816C-38.415 -16.9858 -37.4778 -19.6322 -36.666 -21.5027C-36.2604 -22.4372 -35.8868 -23.1767 -35.6152 -23.6814C-35.4794 -23.9337 -35.3697 -24.1279 -35.2939 -24.2576C-35.2561 -24.3223 -35.2266 -24.3708 -35.207 -24.4031C-35.1973 -24.4192 -35.1894 -24.4315 -35.1846 -24.4392C-35.1824 -24.4427 -35.1808 -24.4453 -35.1797 -24.447L-35.1787 -24.449V-24.45L-35.0137 -24.7117L-35.2422 -24.9216C-39.3092 -28.639 -40.438 -32.8379 -39.8643 -37.0662C-39.287 -41.3203 -36.9816 -45.6259 -34.1309 -49.4949C-31.2841 -53.3584 -27.9167 -56.7551 -25.2568 -59.1882C-23.9277 -60.404 -22.7766 -61.3775 -21.959 -62.0466C-21.5502 -62.3811 -21.2248 -62.6398 -21.002 -62.8142C-20.9388 -62.8636 -20.8841 -62.9064 -20.8379 -62.9421L105.13 -3.35229Z" stroke="white" stroke-width="0.743267"/>
</g>
<path d="M32.957 56.1213V56.2151C32.957 56.2545 32.947 56.2936 32.9258 56.3293H32.9248L32.9229 56.3323L32.8369 56.4817L32.8359 56.4836C32.7205 56.6874 32.7897 56.9565 33.0088 57.0706V57.0715L33.0723 57.1038V57.1028C33.1126 57.124 33.1551 57.1364 33.1982 57.1438C33.1337 57.346 33.1035 57.5568 33.1035 57.7659V58.5803C33.1036 58.8212 33.1755 59.0544 33.3066 59.2532H32.3311L32.3711 59.1653C32.4619 58.9674 32.5098 58.753 32.5098 58.5354V57.0598C32.5097 56.7185 32.3931 56.3887 32.1807 56.1213H32.957ZM34.9697 55.9973C35.3043 55.9973 35.525 56.1065 35.6689 56.2786C35.8211 56.4604 35.9287 56.7613 35.9287 57.2122V58.6331C35.9287 58.852 35.9887 59.0653 36.0986 59.2522H35.1855L35.209 59.2004C35.2961 59.0056 35.3398 58.7953 35.3398 58.5842V57.262C35.3398 56.9726 35.2797 56.6896 35.1104 56.4709C34.9292 56.2372 34.665 56.1302 34.377 56.1301C34.34 56.1301 34.3039 56.1336 34.2686 56.137C34.4218 56.0556 34.6391 55.9973 34.9697 55.9973Z" fill="white" stroke="white" stroke-width="0.743267"/>
<path d="M38.2988 54.9973V55.1252C38.1468 55.1854 38.0324 55.3315 38.0322 55.5139V55.5842C38.0322 55.7726 38.1508 55.9138 38.2988 55.9729V58.2434C38.2988 58.5404 38.3553 58.8338 38.5371 59.0569C38.599 59.1328 38.6705 59.1919 38.7471 59.2395C38.6878 59.2475 38.6256 59.2532 38.5605 59.2532C38.21 59.2532 37.992 59.1561 37.8604 59.0217C37.7275 58.886 37.6299 58.6587 37.6299 58.2942V55.8137H37.4971C37.6281 55.7136 37.7262 55.5885 37.7949 55.4739C37.8963 55.3045 37.9595 55.1171 37.9971 54.9973H38.2988Z" fill="white" stroke="white" stroke-width="0.743267"/>
<path d="M28.6592 57.8479C28.5385 58.0305 28.4825 58.2458 28.4824 58.4592C28.4824 58.7089 28.5584 58.9493 28.7266 59.1301C28.7703 59.1771 28.8188 59.2174 28.8701 59.2522C28.8673 59.2522 28.8642 59.2532 28.8613 59.2532C28.5425 59.2531 28.3255 59.1709 28.1953 59.0637C28.0732 58.9632 27.9971 58.8167 27.9971 58.6047C27.9971 58.4209 28.0598 58.2614 28.1865 58.1282C28.2888 58.0207 28.4429 57.9218 28.6592 57.8479ZM29.9922 56.0569C30.2009 56.1074 30.3557 56.1862 30.4668 56.2825C30.651 56.4423 30.7704 56.6952 30.7705 57.0959V58.4387C30.7705 58.6366 30.8218 58.8475 30.9609 59.009C30.9992 59.0535 31.0423 59.0917 31.0889 59.1233C31.0295 59.1553 30.9424 59.1819 30.8145 59.1819C30.5634 59.1818 30.4224 59.071 30.3652 58.9514L30.25 58.7102C30.2584 58.6748 30.2685 58.6392 30.2734 58.6028L30.2773 58.5784V57.6809H30.2783V57.0549C30.2783 56.688 30.1994 56.3371 30.002 56.0686C29.9989 56.0645 29.9952 56.0609 29.9922 56.0569ZM28.3672 56.5696C28.369 56.5706 28.3728 56.5729 28.3779 56.5764C28.3894 56.5844 28.4023 56.5955 28.4141 56.6086C28.4358 56.6332 28.4492 56.6597 28.4492 56.6975C28.4492 56.7678 28.3862 56.844 28.2871 56.844C28.2266 56.844 28.1772 56.814 28.1494 56.7727C28.1139 56.7074 28.1048 56.667 28.1045 56.6448C28.1047 56.5901 28.1158 56.5349 28.1406 56.4807L28.3672 56.5696Z" fill="white" stroke="white" stroke-width="0.743267"/>
<path d="M40.6592 57.8479C40.5385 58.0305 40.4825 58.2458 40.4824 58.4592C40.4824 58.709 40.5584 58.9494 40.7266 59.1301C40.7703 59.1771 40.8188 59.2174 40.8701 59.2522C40.8673 59.2522 40.8642 59.2532 40.8613 59.2532C40.5425 59.2531 40.3255 59.1709 40.1953 59.0637C40.0732 58.9632 39.9971 58.8167 39.9971 58.6047C39.9971 58.4209 40.0598 58.2614 40.1865 58.1282C40.2888 58.0207 40.4429 57.9218 40.6592 57.8479ZM41.9922 56.0569C42.2009 56.1074 42.3557 56.1862 42.4668 56.2825C42.651 56.4423 42.7704 56.6952 42.7705 57.0959V58.4387C42.7705 58.6365 42.8218 58.8475 42.9609 59.009C42.9992 59.0535 43.0423 59.0917 43.0889 59.1233C43.0295 59.1553 42.9424 59.1819 42.8145 59.1819C42.5634 59.1818 42.4224 59.071 42.3652 58.9514L42.25 58.7102C42.2584 58.6748 42.2685 58.6392 42.2734 58.6028L42.2773 58.5784V57.6809H42.2783V57.0549C42.2783 56.688 42.1994 56.3371 42.002 56.0686C41.9989 56.0645 41.9952 56.0609 41.9922 56.0569ZM40.3672 56.5696C40.369 56.5706 40.3728 56.5729 40.3779 56.5764C40.3894 56.5844 40.4023 56.5955 40.4141 56.6086C40.4358 56.6332 40.4492 56.6597 40.4492 56.6975C40.4492 56.7678 40.3863 56.844 40.2871 56.844C40.2266 56.844 40.1772 56.8139 40.1494 56.7727C40.114 56.7075 40.1058 56.6671 40.1055 56.6448C40.1056 56.5901 40.1158 56.5349 40.1406 56.4807L40.3672 56.5696Z" fill="white" stroke="white" stroke-width="0.743267"/>
<path d="M24.1777 54.9983L24.166 55.0266C24.0757 55.2482 24.06 55.494 24.123 55.7249L24.1553 55.8235L25.1123 58.3713C25.0734 58.4235 25.0298 58.5055 25.0283 58.6135C25.0265 58.7581 25.1006 58.8679 25.1816 58.9329V58.9338L25.2422 58.9827L25.251 58.9895C25.358 59.0701 25.4742 59.0821 25.5762 59.0608L25.501 59.2532H24.9141L23.5605 55.6897L23.5586 55.6858C23.4602 55.4356 23.3222 55.2051 23.1533 54.9983H24.1777ZM27.1758 54.9983L27.1533 55.0549C27.1467 55.0357 27.1388 55.0171 27.1309 54.9983H27.1758Z" fill="white" stroke="white" stroke-width="0.743267"/>
<path d="M33.5527 4.99731H33.5557C42.0099 4.93771 50.2239 8.86288 55.4502 15.4211L55.9473 16.0647C56.9742 17.4334 57.8718 18.8926 58.624 20.4192V20.4202C59.9148 23.0614 60.7699 25.9022 61.123 28.7874C58.9329 17.6038 49.9519 8.55442 38.5186 6.58423H38.5176C26.7214 4.42945 14.6689 10.3005 9.04004 20.7893C7.63863 23.3512 6.65945 26.1412 6.1084 29.0276C7.63831 15.4442 19.6731 4.97506 33.5527 4.99731Z" fill="white" stroke="white" stroke-width="0.743267"/>
<mask id="path-11-inside-1_19589_9035" fill="white">
<path d="M18.625 52.4969H19.1495V50.987H19.8657C21.0161 50.987 21.439 50.4615 21.439 49.8033C21.439 49.1451 21.0161 48.6252 19.8769 48.6252H18.625V52.4969ZM19.1495 50.5666V49.0567H19.8713C20.6269 49.0567 20.8863 49.3775 20.8863 49.8144C20.8863 50.2513 20.6269 50.5666 19.8713 50.5666H19.1495ZM23.2803 52.5744C24.222 52.5744 24.786 51.9549 24.786 51.0478C24.786 50.1352 24.222 49.5157 23.2803 49.5157C22.3329 49.5157 21.769 50.1352 21.769 51.0478C21.769 51.9549 22.3329 52.5744 23.2803 52.5744ZM23.2803 52.1706C22.6769 52.1706 22.2878 51.7779 22.2878 51.0478C22.2878 50.3177 22.6769 49.9195 23.2803 49.9195C23.8837 49.9195 24.2672 50.3177 24.2672 51.0478C24.2672 51.7779 23.8837 52.1706 23.2803 52.1706ZM28.9542 49.5931L28.2549 51.9549L27.5556 49.5931H27.0425L26.3432 51.9273L25.6496 49.5931H25.1138L26.05 52.4969H26.58L27.268 50.185L27.9673 52.4969H28.4918L29.4335 49.5931H28.9542ZM31.1697 49.5157C30.3294 49.5157 29.7599 50.0965 29.7599 51.0312C29.7599 51.9383 30.29 52.5744 31.2035 52.5744C31.9648 52.5744 32.4103 52.1264 32.5175 51.5843L32.0551 51.5069C31.9423 51.9604 31.6378 52.1706 31.2035 52.1706C30.5494 52.1706 30.2674 51.7005 30.2561 51.1363H32.54C32.5964 50.1794 32.072 49.5157 31.1697 49.5157ZM30.2561 50.7713C30.2843 50.3675 30.572 49.914 31.1697 49.914C31.7788 49.914 32.0325 50.3841 32.0325 50.7713H30.2561ZM33.2339 52.4969H33.7301V50.9095C33.7301 50.2071 34.0515 49.9527 34.5196 49.9527C34.638 49.9527 34.7564 49.9692 34.8805 50.0024V49.571C34.7903 49.5379 34.6944 49.5157 34.5647 49.5157C34.2038 49.5157 33.8993 49.6872 33.7301 50.0743V49.5931H33.2339V52.4969ZM36.5226 49.5157C35.6823 49.5157 35.1127 50.0965 35.1127 51.0312C35.1127 51.9383 35.6429 52.5744 36.5564 52.5744C37.3177 52.5744 37.7632 52.1264 37.8704 51.5843L37.4079 51.5069C37.2951 51.9604 36.9906 52.1706 36.5564 52.1706C35.9023 52.1706 35.6203 51.7005 35.609 51.1363H37.8929C37.9493 50.1794 37.4248 49.5157 36.5226 49.5157ZM35.609 50.7713C35.6372 50.3675 35.9248 49.914 36.5226 49.914C37.1316 49.914 37.3854 50.3841 37.3854 50.7713H35.609ZM40.7296 48.6252V50.0965C40.5717 49.737 40.2164 49.5157 39.7371 49.5157C38.9533 49.5157 38.3893 50.1352 38.3893 51.0478C38.3893 51.9549 38.942 52.5744 39.7371 52.5744C40.2221 52.5744 40.5774 52.3421 40.7296 51.9659V52.4969H41.2146V48.6252H40.7296ZM39.833 52.1651C39.3255 52.1651 38.9138 51.8056 38.9138 51.0478C38.9138 50.279 39.3255 49.9195 39.833 49.9195C40.3405 49.9195 40.7578 50.279 40.7578 51.0478C40.7578 51.8056 40.3405 52.1651 39.833 52.1651ZM45.0442 49.5157C44.5648 49.5157 44.1701 49.7425 43.984 50.102V48.6252H43.499V52.4969H43.9276L43.984 52.0102C44.1927 52.3642 44.5536 52.5744 45.0329 52.5744C45.8562 52.5744 46.3356 51.9273 46.3356 51.0423C46.3356 50.1352 45.828 49.5157 45.0442 49.5157ZM44.8975 52.1651C44.39 52.1651 43.9727 51.8056 43.9727 51.0423C43.9727 50.279 44.3844 49.9195 44.8975 49.9195C45.4051 49.9195 45.8168 50.279 45.8168 51.0423C45.8168 51.8056 45.4051 52.1651 44.8975 52.1651ZM49.1231 49.5931L48.1306 51.8775L47.1211 49.5931H46.5685L47.8543 52.4306L47.7584 52.6076C47.5385 53.0335 47.437 53.1828 47.1211 53.1828C47.0027 53.1828 46.8392 53.144 46.6982 53.0888V53.5257C46.8448 53.5866 47.0196 53.6252 47.155 53.6252C47.6794 53.6252 47.9332 53.3653 48.2603 52.6352L49.625 49.5931H49.1231Z"/>
</mask>
<path d="M18.625 52.4969H19.1495V50.987H19.8657C21.0161 50.987 21.439 50.4615 21.439 49.8033C21.439 49.1451 21.0161 48.6252 19.8769 48.6252H18.625V52.4969ZM19.1495 50.5666V49.0567H19.8713C20.6269 49.0567 20.8863 49.3775 20.8863 49.8144C20.8863 50.2513 20.6269 50.5666 19.8713 50.5666H19.1495ZM23.2803 52.5744C24.222 52.5744 24.786 51.9549 24.786 51.0478C24.786 50.1352 24.222 49.5157 23.2803 49.5157C22.3329 49.5157 21.769 50.1352 21.769 51.0478C21.769 51.9549 22.3329 52.5744 23.2803 52.5744ZM23.2803 52.1706C22.6769 52.1706 22.2878 51.7779 22.2878 51.0478C22.2878 50.3177 22.6769 49.9195 23.2803 49.9195C23.8837 49.9195 24.2672 50.3177 24.2672 51.0478C24.2672 51.7779 23.8837 52.1706 23.2803 52.1706ZM28.9542 49.5931L28.2549 51.9549L27.5556 49.5931H27.0425L26.3432 51.9273L25.6496 49.5931H25.1138L26.05 52.4969H26.58L27.268 50.185L27.9673 52.4969H28.4918L29.4335 49.5931H28.9542ZM31.1697 49.5157C30.3294 49.5157 29.7599 50.0965 29.7599 51.0312C29.7599 51.9383 30.29 52.5744 31.2035 52.5744C31.9648 52.5744 32.4103 52.1264 32.5175 51.5843L32.0551 51.5069C31.9423 51.9604 31.6378 52.1706 31.2035 52.1706C30.5494 52.1706 30.2674 51.7005 30.2561 51.1363H32.54C32.5964 50.1794 32.072 49.5157 31.1697 49.5157ZM30.2561 50.7713C30.2843 50.3675 30.572 49.914 31.1697 49.914C31.7788 49.914 32.0325 50.3841 32.0325 50.7713H30.2561ZM33.2339 52.4969H33.7301V50.9095C33.7301 50.2071 34.0515 49.9527 34.5196 49.9527C34.638 49.9527 34.7564 49.9692 34.8805 50.0024V49.571C34.7903 49.5379 34.6944 49.5157 34.5647 49.5157C34.2038 49.5157 33.8993 49.6872 33.7301 50.0743V49.5931H33.2339V52.4969ZM36.5226 49.5157C35.6823 49.5157 35.1127 50.0965 35.1127 51.0312C35.1127 51.9383 35.6429 52.5744 36.5564 52.5744C37.3177 52.5744 37.7632 52.1264 37.8704 51.5843L37.4079 51.5069C37.2951 51.9604 36.9906 52.1706 36.5564 52.1706C35.9023 52.1706 35.6203 51.7005 35.609 51.1363H37.8929C37.9493 50.1794 37.4248 49.5157 36.5226 49.5157ZM35.609 50.7713C35.6372 50.3675 35.9248 49.914 36.5226 49.914C37.1316 49.914 37.3854 50.3841 37.3854 50.7713H35.609ZM40.7296 48.6252V50.0965C40.5717 49.737 40.2164 49.5157 39.7371 49.5157C38.9533 49.5157 38.3893 50.1352 38.3893 51.0478C38.3893 51.9549 38.942 52.5744 39.7371 52.5744C40.2221 52.5744 40.5774 52.3421 40.7296 51.9659V52.4969H41.2146V48.6252H40.7296ZM39.833 52.1651C39.3255 52.1651 38.9138 51.8056 38.9138 51.0478C38.9138 50.279 39.3255 49.9195 39.833 49.9195C40.3405 49.9195 40.7578 50.279 40.7578 51.0478C40.7578 51.8056 40.3405 52.1651 39.833 52.1651ZM45.0442 49.5157C44.5648 49.5157 44.1701 49.7425 43.984 50.102V48.6252H43.499V52.4969H43.9276L43.984 52.0102C44.1927 52.3642 44.5536 52.5744 45.0329 52.5744C45.8562 52.5744 46.3356 51.9273 46.3356 51.0423C46.3356 50.1352 45.828 49.5157 45.0442 49.5157ZM44.8975 52.1651C44.39 52.1651 43.9727 51.8056 43.9727 51.0423C43.9727 50.279 44.3844 49.9195 44.8975 49.9195C45.4051 49.9195 45.8168 50.279 45.8168 51.0423C45.8168 51.8056 45.4051 52.1651 44.8975 52.1651ZM49.1231 49.5931L48.1306 51.8775L47.1211 49.5931H46.5685L47.8543 52.4306L47.7584 52.6076C47.5385 53.0335 47.437 53.1828 47.1211 53.1828C47.0027 53.1828 46.8392 53.144 46.6982 53.0888V53.5257C46.8448 53.5866 47.0196 53.6252 47.155 53.6252C47.6794 53.6252 47.9332 53.3653 48.2603 52.6352L49.625 49.5931H49.1231Z" fill="white" stroke="white" stroke-width="1.48653" mask="url(#path-11-inside-1_19589_9035)"/>
<path d="M46.5723 26.7542C46.9571 26.8542 47.2886 27.0605 47.5723 27.3831L47.5752 27.386C47.87 27.7138 48.129 28.1774 48.3408 28.7932L48.3418 28.7952C48.4819 29.1923 48.6364 29.5221 48.8203 29.7249C48.9172 29.8316 49.0297 29.91 49.1523 29.9651C49.1439 29.9778 49.1381 29.9919 49.1289 30.0032L49.0605 30.0706C48.9525 30.1559 48.7848 30.218 48.5195 30.218C48.2473 30.218 48.0548 30.14 47.9102 29.9983L47.8506 29.9338C47.7175 29.766 47.5797 29.485 47.4463 29.0696L47.3135 28.6047C47.1234 27.823 46.8496 27.2046 46.4551 26.8137H46.4541C46.2093 26.5666 45.9125 26.402 45.5742 26.3118C45.9433 26.2861 46.2796 26.2081 46.5791 26.0745L46.5723 26.7542ZM20.6309 22.0754C20.4523 22.167 20.2844 22.2874 20.1299 22.4368L20.127 22.4397C19.7539 22.8091 19.4869 23.3196 19.3066 23.9417C19.1253 24.5596 19.0381 25.2794 19.0381 26.095C19.0381 27.3427 19.2422 28.3652 19.6885 29.1243C20.0265 29.6992 20.4797 30.0807 21.0391 30.2405C20.4769 30.1977 19.9913 30.0397 19.5752 29.7727C19.1418 29.4876 18.7902 29.1009 18.5215 28.6038L18.4111 28.384C18.1386 27.7712 17.9971 27.039 17.9971 26.179C17.9971 25.3017 18.1434 24.5576 18.4238 23.9368C18.7129 23.306 19.1106 22.8312 19.6143 22.4983C19.9184 22.2973 20.2566 22.1559 20.6309 22.0754ZM30.3594 22.2502C30.8245 22.3275 31.2362 22.4647 31.5977 22.6594L31.5996 22.6604C32.1182 22.9366 32.5266 23.3201 32.8291 23.8167L32.9521 24.0364L32.9551 24.0413C33.2735 24.6394 33.4404 25.3715 33.4404 26.2512C33.4404 27.5576 33.0849 28.4991 32.4258 29.136C31.9263 29.6187 31.2421 29.9341 30.3477 30.0598C30.8785 29.8956 31.3211 29.5787 31.6611 29.1028C32.1772 28.3912 32.4111 27.4087 32.4111 26.2034C32.4111 25.0559 32.2017 24.1034 31.7451 23.384L31.6514 23.2434C31.3129 22.7554 30.8778 22.4247 30.3594 22.2502ZM38.75 22.2004C39.4975 22.2626 40.0561 22.457 40.4531 22.76L40.4551 22.761C40.9356 23.1229 41.1826 23.6268 41.1826 24.3215C41.1826 25.1074 40.8651 25.6985 40.209 26.1331C39.8224 26.3891 39.3284 26.5772 38.7207 26.6956C38.9883 26.5953 39.2244 26.4649 39.4258 26.3L39.4268 26.301C39.978 25.8558 40.2323 25.2105 40.2324 24.4299C40.2324 23.8223 40.0932 23.2939 39.7773 22.886L39.6309 22.719C39.3879 22.4672 39.0901 22.2992 38.75 22.2004ZM46.5098 22.2043C47.1882 22.2651 47.6929 22.4257 48.0469 22.6643L48.0498 22.6663C48.4827 22.9518 48.7001 23.3582 48.7002 23.9377C48.7002 24.4586 48.5295 24.883 48.1875 25.2336C47.8661 25.5557 47.3989 25.8105 46.7617 25.9846C46.8867 25.915 47.0052 25.8355 47.1143 25.7424L47.1172 25.7395C47.5949 25.3218 47.8203 24.7491 47.8203 24.0696C47.8202 23.4781 47.643 22.9722 47.2412 22.6125L47.2422 22.6116C47.0368 22.4198 46.7892 22.2879 46.5098 22.2043ZM22.6445 22.2034C22.8484 22.2801 23.0355 22.3769 23.2061 22.4944L23.4043 22.6311L23.6104 22.5061L23.874 22.3459V23.4983L23.7568 23.3303C23.4195 22.84 23.0486 22.4558 22.6445 22.2034ZM23.6387 27.55L23.5342 27.4426L23.0059 26.8987H24.665L24.3184 27.7249L24.2891 27.7942V29.6848L24.0107 29.3879L23.7285 29.0872L23.6387 29.1907V27.55ZM27.4248 22.8L27.3418 22.6985L26.9209 22.177H28.3047V30.1213H27.0479L27.3936 29.3372L27.4248 29.2659V22.8ZM35.915 22.8L35.832 22.6985L35.4111 22.177H36.7949V29.4983L36.8779 29.6008L37.2979 30.1213H35.5381L35.8828 29.3372L35.915 29.2659V22.8ZM43.6289 22.8L43.5459 22.6985L43.125 22.177H44.5088V29.4983L44.5918 29.6008L45.0117 30.1213H43.252L43.5977 29.3372L43.6289 29.2659V22.8Z" fill="white" stroke="white" stroke-width="0.743267"/>
</svg>
