<svg width="24" height="24" viewBox="0 0 24 24" fill="none" xmlns="http://www.w3.org/2000/svg">
<path d="M17.7129 6.60757C16.7435 5.97567 16.0434 4.96385 15.8255 3.7849C15.7786 3.53034 15.7522 3.26806 15.7522 3H12.6576L12.6525 15.4015C12.6004 16.79 11.4575 17.9047 10.0561 17.9047C9.62089 17.9047 9.21076 17.7961 8.84949 17.6058C8.02152 17.1699 7.45519 16.3021 7.45519 15.3032C7.45519 13.869 8.62193 12.7016 10.0561 12.7016C10.3241 12.7016 10.5806 12.746 10.8236 12.8218V9.66295C10.5723 9.62888 10.3171 9.60702 10.0561 9.60702C6.91521 9.60702 4.3606 12.1623 4.3606 15.3025C4.3606 17.2297 5.32356 18.9345 6.79243 19.9656C7.71746 20.6149 8.84306 20.998 10.0567 20.998C13.1976 20.998 15.7522 18.4427 15.7522 15.3025V9.01433C16.9659 9.88537 18.4528 10.399 20.0573 10.399V7.3044C19.1927 7.3044 18.3878 7.04791 17.7129 6.60757Z" fill="white"/>
</svg>
