<svg width="24" height="24" viewBox="0 0 24 24" fill="none" xmlns="http://www.w3.org/2000/svg">
<rect width="24" height="24" rx="12" fill="#F1F1F1"/>
<g clip-path="url(#clip0_19350_2230)">
<g clip-path="url(#clip1_19350_2230)">
<mask id="mask0_19350_2230" style="mask-type:luminance" maskUnits="userSpaceOnUse" x="3" y="3" width="18" height="18">
<path d="M20.8997 3.10156H3.19971V20.8016H20.8997V3.10156Z" fill="white"/>
</mask>
<g mask="url(#mask0_19350_2230)">
<path d="M19.6325 10.3446C19.8304 9.74862 19.8988 9.11726 19.8332 8.4927C19.7677 7.86813 19.5696 7.26476 19.2522 6.72289C18.7816 5.90385 18.0631 5.25538 17.2003 4.87099C16.3374 4.48662 15.3748 4.38617 14.4512 4.58414C13.9264 4.00046 13.2574 3.56512 12.5112 3.32184C11.7649 3.07857 10.9678 3.03594 10.1999 3.19821C9.43199 3.36049 8.7203 3.72197 8.13631 4.24635C7.55229 4.77073 7.11657 5.43956 6.87284 6.18561C6.25752 6.31179 5.67623 6.56786 5.16779 6.93669C4.65935 7.30551 4.23549 7.77861 3.92454 8.32437C3.44888 9.14206 3.24559 10.0898 3.34405 11.0306C3.44251 11.9715 3.83763 12.8566 4.47228 13.5581C4.27365 14.1538 4.20452 14.785 4.26951 15.4096C4.3345 16.0342 4.53212 16.6377 4.84915 17.1798C5.32029 17.9991 6.03941 18.6477 6.90286 19.0321C7.76633 19.4165 8.72952 19.5168 9.65366 19.3186C10.0705 19.788 10.5828 20.1631 11.1562 20.4189C11.7296 20.6746 12.3509 20.8051 12.9788 20.8016C13.9254 20.8024 14.8479 20.5024 15.613 19.945C16.3781 19.3874 16.9463 18.6012 17.2355 17.6998C17.8507 17.5734 18.4319 17.3172 18.9403 16.9483C19.4487 16.5796 19.8726 16.1066 20.1838 15.561C20.6538 14.7445 20.8536 13.8003 20.7546 12.8633C20.6555 11.9265 20.2628 11.0448 19.6325 10.3446ZM12.9788 19.6431C12.2034 19.6443 11.4524 19.3726 10.8574 18.8755L10.9621 18.8162L14.4861 16.782C14.5738 16.7306 14.6466 16.6572 14.6974 16.5691C14.7482 16.4811 14.7752 16.3812 14.7757 16.2796V11.3111L16.2654 12.173C16.2728 12.1766 16.2791 12.1821 16.284 12.1887C16.2889 12.1955 16.2921 12.2031 16.2935 12.2113V16.3285C16.2916 17.207 15.9417 18.049 15.3205 18.6702C14.6993 19.2914 13.8573 19.6412 12.9788 19.6431ZM5.85398 16.6006C5.46515 15.9292 5.32555 15.1421 5.45971 14.378L5.56445 14.4408L9.09191 16.475C9.1792 16.5262 9.27855 16.5532 9.37975 16.5532C9.48095 16.5532 9.58032 16.5262 9.6676 16.475L13.9767 13.9908V15.7109C13.9763 15.7198 13.9739 15.7285 13.9696 15.7363C13.9654 15.7442 13.9594 15.751 13.9522 15.7563L10.3828 17.8148C9.62109 18.2536 8.71634 18.3722 7.86722 18.1446C7.01811 17.9169 6.29405 17.3616 5.85398 16.6006ZM4.92592 8.92455C5.31745 8.24883 5.93542 7.73343 6.67048 7.46961V11.6566C6.66915 11.7577 6.695 11.8574 6.74531 11.9451C6.79564 12.0329 6.86859 12.1055 6.95656 12.1555L11.2447 14.6293L9.75484 15.491C9.74678 15.4953 9.73781 15.4975 9.72867 15.4975C9.71953 15.4975 9.71054 15.4953 9.70249 15.491L6.14014 13.436C5.37983 12.9953 4.82514 12.2712 4.59756 11.4224C4.36998 10.5735 4.48805 9.6691 4.92592 8.90714V8.92455ZM17.1657 11.7682L12.8636 9.26999L14.35 8.41154C14.358 8.40727 14.367 8.40501 14.3762 8.40501C14.3853 8.40501 14.3943 8.40727 14.4024 8.41154L17.9647 10.4701C18.5093 10.7844 18.9534 11.2472 19.2449 11.8044C19.5365 12.3615 19.6635 12.9902 19.6112 13.6168C19.559 14.2435 19.3294 14.8423 18.9496 15.3435C18.5697 15.8446 18.055 16.2274 17.4658 16.447V12.2601C17.4627 12.159 17.4334 12.0606 17.3808 11.9744C17.3282 11.8881 17.2541 11.8171 17.1657 11.7682ZM18.6486 9.53865L18.5439 9.47582L15.0234 7.42426C14.9356 7.37273 14.8356 7.34556 14.7338 7.34556C14.6319 7.34556 14.532 7.37273 14.4442 7.42426L10.1387 9.90845V8.18837C10.1378 8.17963 10.1393 8.1708 10.143 8.16281C10.1466 8.15482 10.1524 8.14799 10.1597 8.14301L13.722 6.08791C14.268 5.77338 14.8923 5.6208 15.5217 5.64802C16.1513 5.67525 16.76 5.88115 17.2768 6.24165C17.7935 6.60216 18.197 7.10234 18.4399 7.68374C18.6829 8.26512 18.7553 8.90364 18.6487 9.52465L18.6486 9.53865ZM9.32561 12.588L7.83587 11.7297C7.82841 11.7252 7.82204 11.7192 7.8172 11.7119C7.81235 11.7047 7.80917 11.6965 7.80784 11.6879V7.58126C7.80866 6.95127 7.98882 6.33453 8.32722 5.80316C8.66565 5.27177 9.14835 4.84771 9.71888 4.58055C10.2894 4.3134 10.9242 4.21418 11.5491 4.29451C12.1739 4.37483 12.763 4.63139 13.2474 5.03417L13.1427 5.09354L9.61877 7.12756C9.53107 7.179 9.45826 7.25237 9.40748 7.34047C9.35671 7.42855 9.32971 7.52833 9.32915 7.63002L9.32561 12.588ZM10.1351 10.8435L12.0541 9.73743L13.9767 10.8435V13.0556L12.0611 14.1616L10.1386 13.0556L10.1351 10.8435Z" fill="black"/>
</g>
</g>
</g>
<defs>
<clipPath id="clip0_19350_2230">
<rect width="17.7" height="18.7" fill="white" transform="translate(3.19971 2.60156)"/>
</clipPath>
<clipPath id="clip1_19350_2230">
<rect width="17.7" height="17.7" fill="white" transform="translate(3.19971 3.10156)"/>
</clipPath>
</defs>
</svg>
