<svg width="104" height="35" viewBox="0 0 104 35" fill="none" xmlns="http://www.w3.org/2000/svg">
<g id="Frame 1000004398">
<g id="Group 1000003425">
<path id="Vector" d="M8.14029 17.0163C5.61995 14.5555 6.69368 10.2051 10.7908 9.59436C13.2636 9.22573 15.7684 9.22169 18.2602 9.30747C19.7907 9.36017 21.3396 9.22996 22.8543 9.56898C24.5559 9.94983 26.0272 10.6165 26.4848 12.5205C26.7396 13.5803 26.3084 14.3445 25.2674 14.6461C24.7695 14.7904 24.2587 14.8004 23.7446 14.8001C19.3255 14.7976 14.9065 14.7973 10.4874 14.8037C10.0799 14.8043 9.65855 14.727 9.11531 14.9924C9.77468 15.9606 10.6278 16.5111 11.7432 16.6728C14.1323 17.0192 16.5381 16.8705 18.9368 16.8677C21.1112 16.8652 23.2902 16.8603 25.4445 16.4782C25.6622 16.4396 25.8939 16.4329 26.1107 16.6601C26.1253 17.3686 25.5646 17.6402 25.0292 17.9035C23.815 18.5009 22.478 18.4759 21.179 18.5493C17.7596 18.7424 14.3383 18.8093 10.9291 18.3412C9.87666 18.1967 8.98028 17.7509 8.14029 17.0163ZM17.9772 10.9919C15.8379 11.0354 13.6937 10.8939 11.5614 11.2021C10.2222 11.3957 9.29829 12.0597 9.09572 13.0733C11.3695 13.0733 13.6349 13.0732 15.9003 13.0733C18.4274 13.0734 20.9544 13.0774 23.4815 13.069C23.7846 13.068 24.187 13.1528 24.293 12.7474C24.3856 12.3933 24.0942 12.1563 23.8353 11.9728C23.2549 11.5613 22.6 11.3333 21.8979 11.1935C20.6612 10.9472 19.4131 11.035 17.9772 10.9919Z" fill="white"/>
<path id="Vector_2" d="M79.0371 14.8099C77.7103 14.8098 76.4796 14.8098 75.0427 14.8098C75.7589 15.967 76.6211 16.4954 77.6969 16.665C80.1134 17.0461 82.5518 16.8687 84.981 16.8716C87.1548 16.8742 89.3331 16.8682 91.4857 16.4769C91.7025 16.4375 91.9364 16.4284 92.2012 16.7323C91.9057 17.6941 91.048 18.0893 90.1601 18.2316C86.4788 18.8217 82.7669 18.7483 79.0577 18.5611C78.2942 18.5225 77.5302 18.4217 76.7757 18.295C74.4857 17.9104 72.8228 16.0554 72.8281 13.9278C72.8337 11.7271 74.3856 9.9157 76.7926 9.62335C80.8021 9.13638 84.8319 9.15653 88.8502 9.59179C89.8863 9.70402 90.828 10.1388 91.589 10.8653C92.4057 11.645 92.848 12.6217 92.4429 13.7122C92.0549 14.7563 91.0132 14.7866 90.0807 14.7926C86.4316 14.816 82.7824 14.8069 79.0371 14.8099ZM77.7896 13.0823C81.9829 13.0823 86.1762 13.0823 90.6285 13.0823C89.966 11.7503 89.0466 11.365 88.0282 11.2254C84.9116 10.7981 81.7764 11.0116 78.6502 11.0826C77.746 11.1031 76.7912 11.2173 75.9979 11.7831C75.5916 12.0729 75.1476 12.3423 75.183 12.973C76.0079 13.1771 76.8085 13.0372 77.7896 13.0823Z" fill="white"/>
<path id="Vector_3" d="M72.3405 10.9643C72.5403 11.7608 71.9419 11.5662 71.5944 11.5621C69.5769 11.5383 67.5589 11.503 65.5428 11.4292C64.1572 11.3785 64.1095 11.3886 64.1077 12.6688C64.1057 14.0854 64.1031 15.502 64.1088 16.9186C64.1104 17.3273 64.0649 17.7194 63.8101 18.0616C63.5126 18.4611 63.0876 18.7654 62.598 18.6823C62.0119 18.5827 62.2488 18.0324 62.2439 17.6749C62.2195 15.8891 62.2097 14.1024 62.2421 12.3168C62.2545 11.6348 61.996 11.3774 61.2883 11.4033C59.2395 11.4782 57.1893 11.5242 55.1393 11.5654C54.7644 11.5729 54.3699 11.6565 53.998 11.4497C53.8277 10.9184 54.2811 10.7505 54.6059 10.5478C55.5588 9.95324 56.6616 9.87113 57.7474 9.82772C61.3998 9.6817 65.0546 9.66252 68.7068 9.82798C69.9891 9.88607 71.2796 10.0026 72.3405 10.9643Z" fill="white"/>
<path id="Vector_4" d="M31.3639 14.5073C31.6246 16.3392 31.8454 16.6259 33.6722 16.7868C37.2903 17.1056 40.9176 16.966 44.5418 16.8489C45.2348 16.8265 45.927 16.7822 46.6199 16.7599C46.8429 16.7527 47.0927 16.7797 47.1877 17.0111C47.3054 17.298 47.0806 17.4634 46.8801 17.6192C46.0429 18.2693 45.0257 18.3921 44.0261 18.47C40.0919 18.7765 36.1577 18.8089 32.2311 18.3311C30.5636 18.1282 29.7531 17.411 29.4601 15.7886C29.183 14.2543 29.1819 12.7135 29.4453 11.1734C29.5095 10.7978 29.6235 10.4417 29.8857 10.1649C30.1723 9.86238 30.5445 9.6164 30.9743 9.74661C31.412 9.8792 31.269 10.3127 31.2777 10.6313C31.3124 11.8991 31.3255 13.1675 31.3639 14.5073Z" fill="white"/>
<path id="Vector_5" d="M49.9247 13.4602C49.9255 12.7763 49.9272 12.1856 49.9266 11.5949C49.9261 11.182 50.0053 10.7868 50.2047 10.4368C50.4587 9.99125 50.8277 9.62339 51.321 9.72929C51.8726 9.84769 51.6887 10.4257 51.6922 10.8233C51.7096 12.7817 51.6935 14.7405 51.7002 16.6991C51.7029 17.4655 51.5135 18.1184 50.8591 18.5095C50.2417 18.8784 49.9461 18.7065 49.9346 17.9368C49.9127 16.4759 49.926 15.0145 49.9247 13.4602Z" fill="white"/>
<path id="Vector_6" d="M56.0054 24.8012C55.5773 24.2954 55.2109 23.8192 54.7574 23.2298C54.7041 23.9852 54.6797 24.6088 54.6088 25.2258C54.5694 25.5692 54.4275 25.9012 54.0388 25.8825C53.5977 25.8612 53.4938 25.4962 53.5141 25.0998C53.5723 23.9634 53.6468 22.8278 53.7286 21.6931C53.7507 21.3875 53.8289 21.085 54.1487 20.9854C54.5046 20.8745 54.7303 21.1071 54.9202 21.384C55.3184 21.9645 55.7067 22.5531 56.1244 23.1762C56.707 22.6909 56.9824 22.0864 57.3383 21.5566C57.5577 21.2301 57.7688 20.8514 58.2074 20.9606C58.6626 21.0738 58.6739 21.5248 58.7031 21.9261C58.7733 22.8941 58.842 23.8624 58.8906 24.8319C58.9122 25.2626 58.9643 25.8105 58.4246 25.8661C57.8273 25.9277 57.8019 25.3446 57.7567 24.8825C57.7084 24.3885 57.705 23.8892 57.6795 23.3387C56.9775 23.6923 56.9708 24.8545 56.0054 24.8012Z" fill="white"/>
<path id="Vector_7" d="M72.3793 21.9084C72.3777 23.0036 72.3787 24.0077 72.3729 25.0119C72.3709 25.3503 72.3663 25.7083 71.9864 25.8474C71.6292 25.9782 71.3597 25.764 71.1321 25.5209C70.4015 24.7405 69.7359 23.8893 68.6771 23.0787C68.6771 23.8312 68.6834 24.3841 68.6751 24.9368C68.6682 25.3929 68.6146 25.8721 68.0418 25.8621C67.5399 25.8533 67.4489 25.413 67.4443 24.9926C67.4326 23.9217 67.4384 22.8505 67.4443 21.7795C67.446 21.4672 67.5155 21.163 67.812 21.015C68.1559 20.8434 68.4399 21.0114 68.6716 21.2723C69.4245 22.12 70.1704 22.9746 70.919 23.8265C71.0363 23.7594 71.1536 23.6923 71.2709 23.6253C71.2709 23.0375 71.2673 22.4496 71.2722 21.8619C71.2756 21.455 71.2533 20.988 71.8017 20.9709C72.3415 20.9541 72.3763 21.3933 72.3793 21.9084Z" fill="white"/>
<path id="Vector_8" d="M61.154 24.5992C61.1543 23.6462 61.1744 22.788 61.1494 21.9311C61.1301 21.2708 61.4021 20.9382 62.0712 20.9454C62.8953 20.9543 63.7194 20.9554 64.5433 20.9662C64.8609 20.9703 65.1649 21.0476 65.1822 21.4307C65.1995 21.8145 64.8907 21.9278 64.5855 21.9579C64.1278 22.0031 63.6643 21.9896 63.2059 22.0302C62.8829 22.0589 62.3576 21.8202 62.3387 22.3769C62.3176 22.9969 62.8894 22.7773 63.2405 22.8262C63.5652 22.8714 63.8992 22.8549 64.2217 22.9093C64.4627 22.95 64.6464 23.1178 64.6493 23.3838C64.6528 23.7077 64.4363 23.858 64.1422 23.8758C63.7147 23.9017 63.2853 23.8943 62.8572 23.9115C62.5624 23.9234 62.3317 24.0468 62.3287 24.3754C62.3254 24.7236 62.5857 24.8044 62.8695 24.8121C63.4296 24.8274 63.9916 24.8078 64.5498 24.8467C64.888 24.8702 65.2285 24.991 65.1885 25.4344C65.1536 25.8211 64.8349 25.8758 64.5289 25.8793C63.6716 25.8892 62.8142 25.8894 61.957 25.8817C61.1256 25.8743 61.1518 25.2733 61.154 24.5992Z" fill="white"/>
<path id="Vector_9" d="M50.0877 20.9524C50.4608 20.959 50.7885 20.9766 50.7858 21.4343C50.7831 21.8789 50.4388 21.9204 50.1518 21.95C49.747 21.9919 49.338 21.978 48.9321 22.0102C48.6689 22.0311 48.2637 21.8497 48.246 22.3564C48.2265 22.9136 48.6626 22.7835 48.9588 22.816C49.2478 22.8476 49.5428 22.8248 49.8288 22.8734C50.0997 22.9195 50.3491 23.0557 50.3065 23.4467C50.271 23.7726 50.047 23.8626 49.7982 23.8736C49.4202 23.8903 49.0414 23.886 48.6633 23.9016C48.396 23.9126 48.213 24.0431 48.2325 24.3856C48.2489 24.6741 48.4263 24.7844 48.6471 24.7942C49.1705 24.8174 49.6954 24.8046 50.2179 24.8405C50.5164 24.861 50.8297 24.9596 50.8121 25.4C50.7942 25.8485 50.4722 25.8804 50.1717 25.8832C49.4729 25.8897 48.774 25.8746 48.0754 25.8869C47.4976 25.897 47.2132 25.6101 47.2207 24.9371C47.2322 23.9124 47.2313 22.8873 47.2189 21.8626C47.2114 21.2386 47.4738 20.9455 48.0096 20.9453C48.6788 20.9451 49.3479 20.9502 50.0877 20.9524Z" fill="white"/>
<path id="Vector_10" d="M81.7839 22.4611C82.1958 22.8974 82.7241 22.9113 83.2038 23.0544C83.9591 23.2796 84.5955 23.6736 84.5031 24.5616C84.4088 25.4672 83.7251 25.8006 82.8898 25.8727C82.1732 25.9345 81.4986 25.8021 80.895 25.4001C80.5899 25.197 80.317 24.9245 80.5659 24.538C80.7863 24.1957 81.1207 24.3139 81.4085 24.4833C81.7941 24.7103 82.1825 24.9332 82.6461 24.9099C82.9038 24.897 83.1801 24.8192 83.242 24.5288C83.3144 24.1886 83.0212 24.1183 82.7795 24.0442C82.2964 23.8963 81.7981 23.7894 81.3287 23.607C80.8136 23.4069 80.5142 22.988 80.5075 22.4311C80.5008 21.8748 80.8003 21.4696 81.2926 21.2225C82.1597 20.7873 83.0177 20.8974 83.8467 21.325C84.1264 21.4693 84.4259 21.683 84.227 22.0708C84.0479 22.42 83.7275 22.3995 83.3994 22.2881C82.8399 22.0981 82.2546 21.5753 81.7839 22.4611Z" fill="white"/>
<path id="Vector_11" d="M17.8222 22.3346C17.3394 22.3943 17.0473 22.0547 16.6701 22.016C16.3069 21.9786 15.8915 21.8632 15.694 22.3916C15.9704 22.9275 16.5429 22.8642 17.0031 22.9938C17.7924 23.2161 18.4628 23.5577 18.4729 24.489C18.4811 25.242 17.7099 25.807 16.6965 25.8757C16.0404 25.9203 15.4316 25.7665 14.8855 25.403C14.5872 25.2044 14.2707 24.9469 14.5194 24.5533C14.7287 24.2221 15.0702 24.3402 15.3732 24.486C15.6303 24.6098 15.8864 24.7415 16.1553 24.8335C16.5875 24.9813 16.9612 24.9042 17.221 24.5032C17.0894 23.9862 16.6519 23.9914 16.3042 23.9192C15.8957 23.8344 15.4928 23.7466 15.1372 23.5305C14.3923 23.0779 14.2321 22.2036 14.7617 21.5729C15.4306 20.7765 17.2771 20.7208 17.995 21.4774C18.2959 21.7945 18.321 22.0847 17.8222 22.3346Z" fill="white"/>
<path id="Vector_12" d="M20.7192 23.507C20.7198 22.8614 20.716 22.3063 20.7235 21.7514C20.7286 21.3721 20.7886 20.9928 21.2348 20.9743C21.7297 20.9537 21.8341 21.3531 21.8343 21.7714C21.8344 22.2926 21.7703 22.8141 21.7758 23.335C21.7857 24.2884 22.2746 24.9078 22.9853 24.8465C23.8382 24.7729 24.0849 24.1716 24.0566 23.3425C24.0377 22.7886 24.0491 22.2322 24.0749 21.6784C24.0926 21.299 24.2023 20.9417 24.6456 20.9453C25.0822 20.949 25.1995 21.2768 25.2018 21.6776C25.2053 22.2978 25.2223 22.9189 25.2001 23.5383C25.1473 25.0089 24.3568 25.8482 23.0161 25.8857C21.6175 25.9249 20.8301 25.1405 20.7192 23.507Z" fill="white"/>
<path id="Vector_13" d="M37.1204 20.9791C37.9925 21.2908 38.3502 21.9249 38.2085 22.8435C38.0641 23.7799 37.421 24.1984 36.6669 24.2454C35.8986 24.2932 35.2345 24.2779 35.2841 25.4604C35.2948 25.715 35.0406 25.913 34.7586 25.8844C34.4783 25.8559 34.3153 25.6359 34.2881 25.3614C34.1632 24.0976 34.1656 22.8285 34.2881 21.5657C34.3351 21.0819 34.6845 20.9411 35.0822 20.9454C35.7383 20.9525 36.3944 20.9585 37.1204 20.9791ZM35.4461 22.1474C35.3164 22.673 35.2376 23.181 35.9466 23.182C36.3781 23.1827 36.9627 23.2964 37.0281 22.6322C37.1056 21.8443 36.443 22.0846 36.0566 21.9913C35.8949 21.9522 35.7121 22.0225 35.4461 22.1474Z" fill="white"/>
<path id="Vector_14" d="M27.9316 25.8871C27.4591 25.6983 27.4623 25.3564 27.4611 25.0231C27.4573 23.9961 27.4763 22.9688 27.4536 21.9423C27.4388 21.2724 27.7633 20.947 28.4264 20.9463C29.1071 20.9455 29.7946 20.9336 30.4668 21.0187C31.284 21.1222 31.8695 21.5518 31.9386 22.4194C32.0089 23.3022 31.5526 23.8687 30.7129 24.1461C30.4266 24.2407 30.1132 24.3245 29.817 24.3111C29.0564 24.2769 28.5422 24.4343 28.5999 25.3284C28.6212 25.6585 28.3826 25.8718 27.9316 25.8871ZM28.8149 23.1076C29.2346 23.3337 29.6803 23.2531 30.1074 23.1686C30.4137 23.108 30.7015 22.9238 30.6728 22.5658C30.6477 22.2526 30.368 22.14 30.0847 22.1146C29.651 22.0756 29.2119 21.9981 28.7909 22.1293C28.5795 22.4262 28.6749 22.7158 28.8149 23.1076Z" fill="white"/>
<path id="Vector_15" d="M77.0361 22.39C77.0068 23.3468 76.9976 24.2321 76.9863 25.1174C76.9814 25.4982 76.9387 25.8788 76.4403 25.887C75.9757 25.8947 75.8085 25.5439 75.7989 25.1632C75.7734 24.156 75.7902 23.1478 75.7902 22.1069C75.3469 22.0699 75.0242 22.0546 74.705 22.0129C74.4266 21.9765 74.1778 21.8579 74.1797 21.5333C74.1816 21.2132 74.4248 21.082 74.7043 21.0471C75.8523 20.9039 77.0031 20.924 78.1521 21.0318C78.4277 21.0576 78.6785 21.1884 78.6721 21.5162C78.666 21.8328 78.4111 21.9201 78.1528 22.0212C77.7954 22.1611 77.3381 21.9245 77.0361 22.39Z" fill="white"/>
<path id="Vector_16" d="M41.7482 23.9374C41.7094 24.5781 41.9745 24.8225 42.518 24.8036C42.7503 24.7955 42.9849 24.797 43.2159 24.8196C43.6086 24.8581 44.1024 24.8469 44.0775 25.4056C44.0553 25.903 43.5961 25.8812 43.2345 25.8798C40.1579 25.8678 40.5031 26.2142 40.4903 23.3075C40.4878 22.744 40.4805 22.1792 40.5143 21.6173C40.5387 21.2121 40.7372 20.9059 41.2062 20.9494C41.6219 20.988 41.7425 21.2911 41.7445 21.6581C41.7484 22.3877 41.7466 23.1173 41.7482 23.9374Z" fill="white"/>
</g>
</g>
</svg>
