<svg width="62" height="38" viewBox="0 0 62 38" fill="none" xmlns="http://www.w3.org/2000/svg">
<g id="KICKS_CREW_logo-black_500x 1" clip-path="url(#clip0_417_20219)">
<path id="Vector" d="M40.4042 0C36.9936 0 33.6431 0.609966 30.7049 1.75258C27.7668 0.601375 24.4163 0 21.0056 0C10.2238 0 1.46094 5.98797 1.46094 13.3591C1.46094 20.7302 10.2324 26.7182 21.0056 26.7182C24.4163 26.7182 27.7668 26.1082 30.7049 24.9656C33.6431 26.1168 36.9936 26.7182 40.4042 26.7182C51.186 26.7182 59.9489 20.7302 59.9489 13.3591C59.9489 5.98797 51.1774 0 40.4042 0ZM52.7496 12.8351C52.6809 10.9708 52.2427 9.19244 51.4352 7.54296H56.2891C57.6465 9.11512 58.4455 10.9794 58.5572 12.8265H52.7496V12.8351ZM55.4128 20.0601C53.2221 22.1821 49.9747 23.823 46.3321 24.6735C47.3372 24.0893 48.2651 23.3677 49.0812 22.5258C49.7943 21.7869 50.4214 20.9622 50.9455 20.0773H55.4128V20.0601ZM45.2754 20.0773C45.0348 20.7646 44.7599 21.3918 44.4592 21.9588C43.3338 24.0034 42.1139 25.0773 40.6362 25.3351V20.0773H45.284H45.2754ZM50.9197 6.58076C49.8029 4.69072 48.1963 3.09278 46.3149 2.00172C50.1207 2.90378 53.0331 4.37285 55.3785 6.57217H50.9197V6.58076ZM46.5812 19.1065C47.0279 17.457 47.2685 15.6701 47.3029 13.8058H51.7874C51.7187 15.6529 51.229 17.4828 50.3785 19.0979H46.5812V19.1065ZM46.3407 12.8522H40.6104L40.6018 7.56873H45.5589C46.0228 9.18385 46.2891 11.0052 46.3321 12.8522H46.3407ZM50.3613 7.54296C51.2204 9.15808 51.7101 10.9794 51.7874 12.8351H47.3115C47.2685 10.9794 47.0194 9.20103 46.5726 7.55155H50.3613V7.54296ZM46.2805 6.58935C45.997 5.74742 45.662 4.95704 45.284 4.25258C44.7341 3.23883 44.1328 2.43127 43.4712 1.80412C46.0314 2.5945 48.2908 4.29553 49.7857 6.58076H46.2805V6.58935ZM46.3407 13.8144C46.3063 15.6701 46.04 17.4914 45.5846 19.1151H40.619L40.6104 13.823H46.3407V13.8144ZM49.8029 20.0687C48.308 22.354 46.0486 24.0722 43.497 24.8625C44.6396 23.7801 45.6534 22.0447 46.2891 20.0687H49.8029ZM40.5932 1.3488C42.9128 1.82131 44.1328 3.7543 45.2238 6.49485C45.2324 6.52921 45.2496 6.55498 45.2582 6.58935H40.6018L40.5932 1.3488ZM58.5657 13.7973C58.4627 15.6357 57.6723 17.5086 56.3235 19.0979H51.4609C52.2599 17.4485 52.6895 15.6701 52.7582 13.8058H58.5657V13.7973ZM29.3218 24.1581C28.6946 24.3643 28.0503 24.5361 27.406 24.6907C27.8183 24.4502 28.2221 24.1838 28.6001 23.9003L28.6688 23.8488C28.875 23.9519 29.0898 24.055 29.3218 24.1581ZM27.7066 23.3591C26.7273 24.0378 25.6791 24.5533 24.5623 24.9055C25.2152 24.2869 25.808 23.488 26.3321 22.5172C26.7616 22.8093 27.2255 23.0928 27.7152 23.3591H27.7066ZM23.5228 20.1117L23.6774 20.2749C24.2273 20.8591 24.8544 21.4261 25.5331 21.9416C24.4334 23.9777 23.1791 25.1031 21.6929 25.3608V20.1031H23.5228V20.1117ZM33.9352 13.8402L39.6396 13.823C39.6396 15.0601 39.6396 17.0533 39.6396 18.488V19.1237H34.6998C34.2358 17.5086 33.9695 15.6873 33.9266 13.8316L33.9352 13.8402ZM36.7101 12.8608C35.4644 12.8608 34.2273 12.8608 33.8149 12.8608C33.7462 11.0223 33.2994 9.20103 32.5005 7.56873H33.2307C34.5623 7.56873 36.2633 7.56873 37.3544 7.56873C38.7118 9.14948 39.5108 11.0137 39.6224 12.8608C39.1929 12.8608 37.9472 12.8608 36.7101 12.8608ZM32.973 13.8402C33.0159 15.6787 33.2651 17.5 33.7118 19.1323H29.9145C29.0554 17.5258 28.5657 15.7045 28.4884 13.8488H32.973V13.8402ZM31.4266 7.57732C32.2857 9.19244 32.7754 11.0223 32.8527 12.8694H28.3767C28.3424 11.0137 28.0932 9.2354 27.6379 7.57732H31.4266ZM33.9523 20.0945C34.2273 20.9192 34.5451 21.6667 34.9489 22.4313C35.4987 23.445 36.1001 24.2526 36.7616 24.8797C34.2015 24.0893 31.9334 22.3797 30.4386 20.1031C31.4523 20.1031 32.973 20.1031 33.9438 20.1031L33.9523 20.0945ZM38.5915 7.56014H39.631V9.26976C39.3475 8.67698 38.9953 8.10997 38.5829 7.56014H38.5915ZM37.8011 6.59794C37.2084 5.94502 36.5297 5.32646 35.7822 4.75945L35.7994 4.71649C36.9249 2.67182 38.1448 1.59794 39.6224 1.34021V6.59794H37.7926H37.8011ZM31.985 6.60653C31.2462 5.36942 30.3355 4.28694 29.2788 3.37629C29.0554 3.18729 28.8149 2.99828 28.5657 2.80928C28.1791 2.52577 27.7754 2.25945 27.363 2.0189C28.0245 2.17354 28.6774 2.35395 29.3046 2.55155L29.4077 2.58591C32.2255 3.49656 34.5967 4.84536 36.4352 6.59794C35.095 6.59794 33.2393 6.59794 31.9764 6.59794L31.985 6.60653ZM27.3372 6.61512C27.0623 5.79897 26.753 5.06873 26.3578 4.31272L26.3407 4.27835C25.7908 3.2646 25.1895 2.45704 24.5279 1.8299C25.6706 2.18213 26.753 2.71478 27.7582 3.41065C28.9695 4.26117 30.0348 5.36082 30.851 6.60653H27.3458L27.3372 6.61512ZM21.6671 6.62371V1.36598C23.1706 1.62371 24.4764 2.7921 25.5417 4.82818C25.8252 5.36942 26.0829 5.97079 26.3149 6.61512H21.6671V6.62371ZM23.9609 19.1409C22.6035 17.5601 21.8046 15.6959 21.6929 13.8488H27.5262C27.595 15.6787 28.0417 17.5 28.8407 19.1323C27.9558 19.1323 26.7444 19.1323 25.6362 19.1323H23.9609V19.1409ZM29.3389 20.1031C29.6912 20.6701 30.3011 21.4777 30.5675 21.8385C30.9283 22.268 31.3235 22.6804 31.7444 23.067H31.7273L32.0365 23.3333C32.6379 23.8488 33.2822 24.3041 33.9609 24.6907C33.3166 24.5447 32.6809 24.3643 32.0537 24.1667L31.6671 24.0378C31.3578 23.9347 31.04 23.823 30.7393 23.7027L30.6791 23.6856C28.3682 22.7835 26.418 21.5808 24.8716 20.1117C26.1345 20.1117 28.2221 20.1117 29.3389 20.1117V20.1031ZM39.6654 25.3351C37.7238 24.9828 36.1602 23.2131 35.009 20.0859H39.6568V25.3351H39.6654ZM36.7616 1.81271C36.1173 2.42268 35.5331 3.21306 34.9919 4.19244C34.5623 3.90034 34.0984 3.61684 33.6087 3.35052C34.5795 2.67182 35.6362 2.15636 36.753 1.81271H36.7616ZM33.9094 2.0189C33.4712 2.26804 33.0503 2.55155 32.6551 2.85223C32.4403 2.74914 32.2255 2.64605 32.0108 2.54296C32.6293 2.34536 33.2651 2.16495 33.918 2.01031L33.9094 2.0189ZM26.6242 7.58591C27.0881 9.20103 27.363 11.0309 27.406 12.878H21.6757V10.3265V7.5945H26.6328L26.6242 7.58591ZM22.2857 18.5052C22.4231 18.7199 22.5778 18.9347 22.7324 19.1495H21.6843V17.4399C21.8647 17.8093 22.0623 18.1615 22.2857 18.5052ZM9.88018 19.1667H5.02623C3.66884 17.5945 2.86987 15.7302 2.75819 13.8832H8.56575C8.63448 15.7388 9.07262 17.5172 9.88018 19.1667ZM16.0915 20.1976C16.0915 20.1976 16.0743 20.146 16.0657 20.1203H20.7221V25.3608C18.4025 24.8883 17.1912 22.9553 16.0915 20.2148V20.1976ZM2.75819 12.9124C2.85269 11.0739 3.65166 9.20103 5.00046 7.61168H9.863C9.06403 9.26117 8.62589 11.0395 8.56575 12.9038H2.75819V12.9124ZM14.9833 12.8952C15.0176 11.0481 15.284 9.21821 15.7393 7.5945H20.7049V12.8866H14.9747L14.9833 12.8952ZM5.91111 6.64948C8.10183 4.52749 11.3578 2.8866 14.9919 2.03608C13.9781 2.62027 13.0589 3.34192 12.2341 4.19244C11.5297 4.92268 10.9025 5.74742 10.3699 6.64089H5.90252L5.91111 6.64948ZM15.1723 6.21134C15.1207 6.3488 15.0778 6.49485 15.0348 6.6323H11.5211C13.0159 4.34708 15.2754 2.63746 17.8269 1.83849C16.753 2.85223 15.8596 4.32131 15.1723 6.21134ZM14.7427 7.60309C14.296 9.25258 14.0554 11.0309 14.0211 12.9038H9.53654C9.60527 11.0567 10.095 9.2268 10.9455 7.61168H14.7427V7.60309ZM16.0486 6.6323C16.2891 5.94502 16.564 5.30928 16.8647 4.75086C17.9901 2.70619 19.2101 1.6323 20.6877 1.37457V6.6323H16.04H16.0486ZM15.0434 20.1203C15.3269 20.9622 15.662 21.7526 16.04 22.457C16.5898 23.4708 17.1912 24.2784 17.8527 24.9055C15.2926 24.1151 13.0331 22.4055 11.5383 20.1289H15.0434V20.1203ZM14.0125 13.866C14.0554 15.7302 14.3046 17.5086 14.7513 19.1581H10.9627C10.1035 17.5515 9.61386 15.7216 9.53654 13.8746H14.0125V13.866ZM15.0005 24.7079C11.1946 23.8058 8.29083 22.3368 5.94547 20.1375H10.4042C11.5211 22.0275 13.1276 23.6168 15.009 24.7079H15.0005ZM15.7565 19.1581C15.2926 17.543 15.0262 15.7216 14.9833 13.866H20.7135L20.7221 19.1495H15.7651L15.7565 19.1581Z" fill="white"/>
<path id="Vector_2" d="M3.59107 33.6513C4.02062 33.4366 4.32131 33.1015 4.6134 32.5173L5.64433 30.4727H4.34708L3.3677 32.3971C3.01546 33.0843 2.85223 33.1703 1.77835 33.1703H1.21134V30.4727H0V36.9245H1.20275V34.2613H1.76976C2.95533 34.2613 3.16151 34.3558 3.50515 35.0087L4.47594 36.8988V36.9245H5.83333L4.77663 34.8627C4.44158 34.2098 4.15808 33.8318 3.59107 33.6513Z" fill="white"/>
<path id="Vector_3" d="M7.88634 30.4727H6.68359V36.9245H7.88634V30.4727Z" fill="white"/>
<path id="Vector_4" d="M9.09766 33.7037C9.09766 35.8085 10.1028 36.9253 12.0186 36.9253H14.5272V35.7226H12.0186C10.8159 35.7226 10.3004 35.1212 10.3004 33.7037C10.3004 32.2861 10.8159 31.6676 12.0186 31.6676H14.5272V30.4648H12.0186C10.1114 30.4648 9.09766 31.5817 9.09766 33.6951V33.7037Z" fill="white"/>
<path id="Vector_5" d="M19.3559 33.6513C19.7855 33.4366 20.0862 33.1015 20.3782 32.5173L21.4092 30.4727H20.1119L19.1325 32.3971C18.7803 33.0843 18.6171 33.1703 17.5432 33.1703H16.9762V30.4727H15.7734V36.9245H16.9762V34.2613H17.5432C18.7288 34.2613 18.9349 34.3558 19.2786 35.0087L20.2494 36.8988V36.9245H21.6068L20.5501 34.8627C20.215 34.2098 19.9315 33.8318 19.3645 33.6513H19.3559Z" fill="white"/>
<path id="Vector_6" d="M25.7387 33.0937H24.2525C23.6511 33.0937 23.3504 32.8532 23.3504 32.3807C23.3504 31.9081 23.6339 31.6676 24.1408 31.6676H27.4483V30.4648H24.1837C22.8779 30.4648 22.1562 31.1264 22.1562 32.3377C22.1562 33.1968 22.5257 34.2191 24.2954 34.2191H25.7731C26.4088 34.2191 26.7267 34.4683 26.7267 34.9666C26.7267 35.4648 26.426 35.714 25.8934 35.714H22.2679V36.9167H25.859C27.1906 36.9167 27.9294 36.238 27.9294 35.0095C27.9294 34.1332 27.5514 33.0937 25.7473 33.0937H25.7387Z" fill="white"/>
<path id="Vector_7" d="M31.3594 33.7037C31.3594 35.8085 32.3645 36.9253 34.2803 36.9253H36.7889V35.7226H34.2803C33.0776 35.7226 32.5621 35.1212 32.5621 33.7037C32.5621 32.2861 33.0776 31.6676 34.2803 31.6676H36.7889V30.4648H34.2803C32.3731 30.4648 31.3594 31.5817 31.3594 33.6951V33.7037Z" fill="white"/>
<path id="Vector_8" d="M43.5998 32.4228C43.5998 30.9881 42.5173 30.4727 41.5122 30.4727H38.0156V31.6754H41.5466C42.1651 31.6754 42.3885 32.0878 42.3885 32.4744C42.3885 32.8782 42.1651 33.3163 41.5466 33.3163H39.0637C38.3335 33.3163 38.0242 33.6342 38.0242 34.3644V36.9245H39.227V34.5792C39.227 34.4933 39.2613 34.4589 39.3472 34.4589H40.9795L42.4228 36.8988V36.916H43.7716L42.2768 34.3558C43.1101 34.0981 43.5998 33.3764 43.5998 32.4142V32.4228Z" fill="white"/>
<path id="Vector_9" d="M45.7566 34.9658C45.7566 34.4761 46.0573 34.2355 46.6845 34.2355H49.8889V33.1445H46.7188C46.0831 33.1445 45.791 32.9211 45.791 32.4314C45.791 31.9417 46.1003 31.6754 46.7103 31.6754H49.9405V30.4727H46.7103C45.3099 30.4727 44.5367 31.0998 44.5367 32.251C44.5367 32.9297 44.8202 33.4194 45.37 33.6857C44.8116 33.952 44.5195 34.4589 44.5195 35.1462C44.5195 35.8335 44.803 36.9245 46.6845 36.9245H49.9491V35.7218H46.6845C46.0831 35.7218 45.7652 35.4555 45.7652 34.9658H45.7566Z" fill="white"/>
<path id="Vector_10" d="M60.1371 30.475L58.2299 35.6296C58.1697 35.7842 58.058 35.8702 57.912 35.8702C57.7402 35.8702 57.6371 35.7499 57.6371 35.5523V31.7894C57.6371 30.8959 57.0958 30.3633 56.1766 30.3633C55.3948 30.3633 54.9223 30.7327 54.6388 31.566L53.0924 35.6296C53.0323 35.7842 52.9206 35.8702 52.7831 35.8702C52.6113 35.8702 52.4996 35.7499 52.4996 35.5523V30.475H51.2969V35.6038C51.2969 36.5145 51.8295 37.0385 52.7574 37.0385C53.5477 37.0385 54.0202 36.6691 54.2866 35.8358L55.833 31.7722C55.8673 31.6777 55.9618 31.5231 56.1508 31.5231C56.3226 31.5231 56.4343 31.6519 56.4343 31.8495V35.6038C56.4343 36.5145 56.9584 37.0385 57.8862 37.0385C58.668 37.0385 59.1405 36.6691 59.4326 35.8358L61.4 30.5351L61.4171 30.475H60.1285H60.1371Z" fill="white"/>
</g>
<defs>
<clipPath id="clip0_417_20219">
<rect width="61.4261" height="37.0361" fill="white"/>
</clipPath>
</defs>
</svg>
