<svg width="120" height="13" viewBox="0 0 120 13" fill="none" xmlns="http://www.w3.org/2000/svg">
<path id="Vector" fill-rule="evenodd" clip-rule="evenodd" d="M41.6663 11.6182L42.8507 7.00797H42.8458L39.944 8.97868H37.0817V2.20221L39.0359 0H24.1321L26.1012 2.20221V7.23435C26.1012 8.27377 25.3363 8.93236 23.7571 8.93236C22.1779 8.93236 21.4178 8.33036 21.4178 7.23435V2.20221L23.3771 0H14.9875L16.9319 2.20221V7.81065C16.9319 10.4605 19.1034 11.9527 23.4955 11.9527C26.6392 11.9527 29.3188 10.7847 29.3188 7.81065V2.20221L30.9573 0.349884L32.5957 2.20221V9.41602L30.6464 11.6182H41.6663ZM61.737 0H69.1741L66.1835 2.16105L63.0448 7.15205V9.41602L64.9941 11.6182H56.6046L58.549 9.41602V7.25496L54.9465 2.20221L51.8867 0H61.0807L59.541 1.74942L61.5495 4.9241L63.2768 1.7134L61.737 0ZM116.926 9.41602L119.985 11.6182L120 11.6388H110.737L112.07 9.94083L110.254 7.70774L108.684 10.0129L109.967 11.6337H97.4913L99.3961 9.47261L99.1006 8.73682H94.6093L94.338 9.48288L96.2331 11.6285H83.3723L85.1244 9.64755L84.8677 3.91047L81.7588 12.0401C81.018 11.752 80.1399 11.0934 79.5871 10.3216L77.0553 3.9928L76.7938 9.65272L78.5508 11.6337H71.8044L73.7494 9.42112L74.0636 2.20101L72.1158 0H79.5378L81.5119 4.93954L83.4021 0H90.6069L88.6772 2.20221L88.6578 2.13532L88.9887 9.42629L90.1824 10.7641L91.3672 9.41602V9.43656L94.4074 1.77001L92.828 0H100.171L104.529 9.43146L105.012 9.96144L105.773 9.41602L108.437 5.47466L105.773 2.20221L102.712 0H111.976L110.643 1.69797L112.43 3.88474L113.969 1.62079L112.686 0H119.931L116.871 2.19707L114.231 6.10753L116.926 9.41602ZM96.7561 2.74762L95.3598 6.63751H95.3646H98.2758L96.7561 2.74762ZM51.9657 8.97868L54.8774 7.00797L53.6929 11.6182H42.6632L44.6125 9.41602V2.20221L42.673 0H51.0626L49.1034 2.20221V8.97868H51.9657ZM6.44024 9.19994H8.3649V9.21531C9.11993 9.21531 9.67269 8.70084 9.67269 7.98048C9.67269 7.25496 9.11993 6.75586 8.3649 6.75586H6.44024V9.19994ZM6.44024 2.36686H6.45505V4.50732H8.21188C8.91267 4.50732 9.42097 4.06997 9.42097 3.43709C9.42097 2.80421 8.91267 2.36686 8.19711 2.36686H6.45505V2.34628L6.44024 2.36686ZM12.1995 5.40906C13.6427 4.81461 14.4004 3.7565 14.4004 2.51608C14.4004 1.24003 13.364 0.0257257 11.469 0.0257257H0L1.94933 2.23823V9.44173L0 11.6182H11.4739C13.5466 11.6182 14.8643 10.3422 14.8643 8.42809C14.8643 7.00525 14.0586 5.8166 12.1995 5.40906Z" fill="white"/>
</svg>
