<svg width="74" height="42" viewBox="0 0 74 42" fill="none" xmlns="http://www.w3.org/2000/svg">
<path fill-rule="evenodd" clip-rule="evenodd" d="M33.3409 1.61874C35.5629 1.13647 36.8718 3.12604 37.1004 4.43055C37.3348 5.76745 37.1004 8.12171 37.1004 9.54295C37.1004 11.4252 37.323 13.102 37.0014 14.3997C36.6027 16.011 35.1059 17.6606 32.8462 17.1263C30.1424 16.4873 30.8972 12.572 30.9665 9.88378C31.0506 6.6357 30.3026 2.27824 33.3409 1.61874ZM33.6377 2.98204C33.9236 3.10474 33.792 3.58701 34.2313 3.57849C34.5578 3.17376 34.6221 2.52619 34.0334 2.30039C33.9681 2.58498 33.7257 2.71705 33.6377 2.98204ZM33.8356 4.68617C33.6931 4.73389 33.5942 4.8191 33.5388 4.94179C33.6278 7.51163 33.4398 9.76534 33.4398 11.8435C33.4398 12.561 33.1836 13.4181 33.7366 14.0589C34.8536 14.1083 34.4044 12.872 34.4292 12.2696C34.5271 9.88719 34.6419 6.85724 34.4292 4.68617H33.8356ZM35.9132 7.49799C36.3158 7.14779 36.4583 6.43887 35.8142 6.21989C35.4195 6.58543 35.5056 7.19295 35.9132 7.49799ZM32.3515 7.66841C32.3882 7.38722 32.5831 7.24237 32.7473 7.07196C32.5811 6.81719 32.5474 6.44825 32.1537 6.39031C31.8717 6.80782 31.6976 7.4801 32.3515 7.66841ZM35.7153 12.2696C36.4078 12.1179 36.4227 11.2207 35.8142 10.9915C35.4422 11.4124 35.3651 11.7822 35.7153 12.2696ZM32.2526 12.6956C32.3021 12.3411 32.5989 12.198 32.6484 11.8435C32.4297 11.7191 32.4525 11.3877 32.1537 11.3323C31.7322 11.6816 31.6115 12.4579 32.2526 12.6956ZM33.8356 16.2743C34.5162 16.0706 34.5439 15.1785 33.9345 14.911C33.5645 15.3438 33.4744 15.7877 33.8356 16.2743Z" fill="white"/>
<path fill-rule="evenodd" clip-rule="evenodd" d="M39.9692 1.70415C40.8695 3.62726 41.3216 5.93636 42.5415 7.5834C42.8016 5.90398 42.494 3.73632 42.7393 2.04497C43.6 2.15574 44.2817 2.42073 45.2127 2.47101C44.8832 7.51183 45.5164 11.9017 45.2127 16.4449C43.3339 16.565 43.3211 14.2934 42.8383 13.1218C42.2832 11.7739 41.6184 10.3816 41.1564 9.20233C40.7082 11.3478 41.0723 14.4417 40.9585 16.6153C40.08 16.6255 39.1243 16.5693 38.3862 16.7005C38.7295 11.796 38.2329 6.24055 38.4852 1.87456C38.5406 1.75186 38.6395 1.66666 38.782 1.61894C39.2796 1.5593 39.4715 1.76379 39.9692 1.70415ZM39.3756 4.00473C39.7604 3.96723 39.7802 3.61533 39.9692 3.40828C39.7179 3.28388 39.7772 2.89193 39.4745 2.81183C39.0263 3.15522 39.0788 3.54972 39.3756 4.00473ZM44.0255 4.60117C44.4103 4.56368 44.4301 4.21178 44.6191 4.00473C44.2837 3.95275 44.4608 3.4594 44.0255 3.49349C43.6149 3.84369 43.8088 4.18196 44.0255 4.60117ZM39.0788 14.7408C39.245 14.9955 39.2786 15.3645 39.6724 15.4224C40.0107 15.0628 40.079 14.3957 39.4745 14.2295C39.3686 14.4221 39.2499 14.6044 39.0788 14.7408ZM43.8276 14.826C44.0789 14.9504 44.0195 15.3423 44.3223 15.4224C44.7685 15.1208 44.808 14.4511 44.2233 14.2295C44.1313 14.463 43.9196 14.5925 43.8276 14.826Z" fill="white"/>
<path fill-rule="evenodd" clip-rule="evenodd" d="M29.6802 1.7041C29.5853 7.28769 29.3676 12.7793 29.2845 18.149C28.3624 18.3211 27.5373 18.5759 26.6133 18.7454C26.9863 12.9437 26.9764 7.95827 27.2069 1.87451C28.0132 1.80209 28.8047 1.71688 29.6802 1.7041ZM28.3941 4.43071C28.5197 4.14101 28.7453 3.93822 28.8888 3.66385C28.6028 3.54116 28.7344 3.05889 28.2952 3.06741C28.0201 3.47981 27.8559 4.14271 28.3941 4.43071ZM27.5037 16.5301C27.7896 16.6527 27.658 17.135 28.0973 17.1265C28.1468 16.772 28.4436 16.6289 28.493 16.2744C28.2843 16.1134 28.2714 15.7836 27.9984 15.678C27.8341 15.9626 27.6679 16.2455 27.5037 16.5301Z" fill="white"/>
<path fill-rule="evenodd" clip-rule="evenodd" d="M23.7442 2.21533C24.3873 2.35251 23.9569 2.95322 23.9421 3.23781C23.7056 7.88924 23.5948 12.0005 23.3485 16.7005C23.856 16.8308 24.5268 16.4252 25.1293 16.3596C24.9739 17.1912 25.0442 18.218 25.0303 19.1714C23.5206 19.5182 22.2453 20.0678 20.6772 20.3643C20.9137 14.4757 21.2956 8.51125 21.5677 2.47095C22.3166 2.40534 23.0467 2.32525 23.7442 2.21533ZM22.557 5.11236C23.1832 4.95643 23.3682 3.92884 22.6559 3.74905C22.3087 4.2015 22.1791 4.61134 22.557 5.11236ZM22.0623 18.6602C22.4739 18.2683 22.8063 17.4187 22.0623 17.1265C21.7645 17.6224 21.4747 18.2487 22.0623 18.6602Z" fill="white"/>
<path fill-rule="evenodd" clip-rule="evenodd" d="M17.4122 18.3196C17.9593 18.4568 18.5391 17.9421 19.193 17.8936C19.0407 18.8504 19.1555 20.1686 18.9952 20.8758C17.4924 21.3138 16.1825 21.9187 14.6421 22.3243C15.0269 16.2857 15.4771 9.74101 15.9282 3.49366C16.8453 3.40334 17.5577 3.13579 18.4016 2.98242C18.0721 7.89544 17.6616 13.4253 17.4122 18.3196ZM16.8186 6.30548C17.1194 5.88967 17.6724 5.02056 16.8186 4.77176C16.5149 5.27278 16.2537 5.87348 16.8186 6.30548ZM15.9282 20.535C16.2181 20.0425 16.7533 19.2279 15.9282 18.9161C15.5345 19.498 15.3139 20.0408 15.9282 20.535Z" fill="white"/>
<path fill-rule="evenodd" clip-rule="evenodd" d="M52.8305 17.2117C52.0351 17.0166 51.0576 16.9782 50.2583 16.7857C50.1712 14.5243 50.2899 13.138 50.0604 10.8212C49.6874 10.8868 49.5875 10.7172 49.2689 10.736C48.7772 12.6386 49.262 14.7969 49.17 16.7857C48.3558 16.6348 47.3773 16.6255 46.4988 16.53C46.5344 13.9389 46.6254 11.5148 46.4988 9.03185C46.3949 7.00308 45.9052 4.39661 47.2902 3.57863C49.4539 2.30138 52.234 4.34549 52.6327 6.22003C52.8355 7.17264 52.5862 8.20705 52.6327 9.11706C52.7672 11.7593 52.8612 14.3828 52.8305 17.2117ZM49.2689 5.11234C49.631 5.08337 49.722 4.82094 49.8625 4.6011C49.6498 4.44347 49.6013 4.1444 49.3679 4.00466C48.8732 4.29607 49.0097 4.67438 49.2689 5.11234ZM49.071 8.86144C49.2907 8.98413 49.5479 9.0753 49.9615 9.03185C49.9723 7.64639 50.096 6.98689 49.9615 6.04962C49.7151 5.97804 49.4312 5.938 49.071 5.96441V8.86144ZM47.7849 10.1395C48.2113 9.86602 48.1153 9.1554 47.587 9.03185C47.1359 9.32666 47.3338 9.94867 47.7849 10.1395ZM51.0497 10.1395C51.2209 10.2759 51.3396 10.4582 51.4455 10.6508C51.7779 10.6244 51.8402 10.3662 51.9401 10.1395C51.6948 10.01 51.763 9.6104 51.3465 9.6283C51.307 9.84983 51.0517 9.88562 51.0497 10.1395ZM47.8838 15.5928C47.9066 15.2715 48.2568 15.2323 48.2796 14.9111C47.9442 14.8591 48.1213 14.3658 47.686 14.3999C47.2873 14.8114 47.4258 15.3005 47.8838 15.5928ZM51.0497 15.3371C51.206 15.5152 51.3723 15.6839 51.4455 15.9336C52.1222 15.8288 51.9847 14.9742 51.4455 14.8259C51.3238 15.0048 51.1714 15.1582 51.0497 15.3371Z" fill="white"/>
<path fill-rule="evenodd" clip-rule="evenodd" d="M54.018 4.3457C54.949 4.5093 55.7662 4.77174 56.5903 5.02736C56.6576 9.78955 56.7318 13.6699 56.8871 17.8083C55.9482 17.7087 55.1765 17.4641 54.2159 17.3823C54.2307 12.8382 53.9577 9.14454 54.018 4.3457ZM55.3041 6.73149C55.8374 6.45286 55.6831 5.88027 55.2052 5.6238C54.7234 5.88283 54.9856 6.46905 55.3041 6.73149ZM55.0073 15.9338C55.2102 16.0718 55.2567 16.3436 55.4031 16.5302C56.4993 16.3897 55.3398 14.8798 55.0073 15.9338Z" fill="white"/>
<path fill-rule="evenodd" clip-rule="evenodd" d="M58.0744 5.45312C60.336 5.93965 62.4137 7.21264 63.6147 8.9466C64.4952 10.2179 65.3609 12.4963 63.9115 13.3773C65.2966 14.6844 64.6802 17.7144 64.9998 19.9382C63.9966 19.8369 63.3555 19.4227 62.4275 19.2566C61.9813 17.1213 63.0765 14.3947 61.0424 13.3773C60.2925 14.7015 61.0929 16.9185 60.8446 18.7454C59.9146 18.5809 59.041 18.3679 58.2723 18.0637C58.3356 13.7488 58.0378 9.74498 58.0744 5.45312ZM60.4488 7.32767C60.5082 7.64549 60.8208 7.74603 60.8446 8.09453C61.1156 8.01614 61.2581 7.82613 61.3392 7.58329C61.0731 7.47167 61.1414 7.07205 60.7456 7.07205C60.6902 7.19475 60.5913 7.27995 60.4488 7.32767ZM60.9435 11.5028C61.176 11.5301 61.3145 11.6374 61.636 11.588C62.286 10.6754 61.4481 9.24567 60.7456 8.69098C60.8495 9.59587 60.5211 10.8731 60.9435 11.5028ZM58.8659 9.45784C58.8877 9.77992 59.1765 9.87194 59.2616 10.1395C59.5723 10.1795 59.5228 9.91028 59.7563 9.88387C59.6504 9.43824 59.2507 8.97131 58.8659 9.45784ZM63.219 11.3324C63.2497 11.1313 63.5623 11.1739 63.5158 10.9063C63.3654 10.695 63.313 10.3994 63.0211 10.3099C62.5462 10.5638 62.8064 11.1509 63.219 11.3324ZM60.8446 12.2697C60.9118 12.7724 61.5519 13.3612 61.735 12.6105C61.5153 12.2705 61.2522 11.7703 60.8446 12.2697ZM59.0638 16.7856C59.1884 17.0472 59.2141 17.3948 59.5584 17.4673C60.0679 17.2781 59.7652 16.5692 59.3606 16.4448C59.2616 16.5581 59.1973 16.7021 59.0638 16.7856ZM63.12 17.8933C63.1853 18.1779 63.4277 18.31 63.5158 18.5749C63.8264 18.615 63.777 18.3457 64.0105 18.3193C63.8927 18.0228 63.7948 17.7101 63.4168 17.6377C63.3614 17.7604 63.2625 17.8456 63.12 17.8933Z" fill="white"/>
<path fill-rule="evenodd" clip-rule="evenodd" d="M2.67104 26.9253C2.45833 25.418 2.57013 23.6883 2.76997 21.9833C3.16274 18.6236 3.42788 15.2673 3.66038 11.9289C3.74942 10.6542 3.58717 7.84328 4.15505 7.07216C4.41821 6.71515 6.28509 6.09229 6.72733 6.13489C10.2484 6.4706 10.6946 12.297 8.90387 14.4851C10.2701 17.1513 8.614 21.2131 7.32093 23.2614C6.10306 25.1905 5.2918 26.4694 2.67104 26.9253ZM5.24332 9.71357C5.43723 9.1478 5.95861 8.40565 5.14439 8.09464C4.87529 8.53772 4.41326 9.48521 5.24332 9.71357ZM6.03479 14.2295C7.91355 13.8325 7.27245 10.5733 6.43053 9.62836C6.15549 11.0394 6.01401 12.5646 6.03479 14.2295ZM8.60707 11.9289C8.89299 11.4884 9.47175 10.5639 8.60707 10.31C8.27268 10.7982 8.05205 11.5114 8.60707 11.9289ZM4.25398 17.5526C4.80999 17.268 5.22056 16.2378 4.55078 15.8484C4.17384 16.3128 3.92849 16.9186 4.25398 17.5526ZM6.13372 17.0413C5.07513 18.0323 5.34126 20.6192 5.34225 22.2389C6.17824 21.0282 6.58486 19.4467 6.9252 17.8082C6.65807 17.5551 6.54628 17.1683 6.13372 17.0413ZM8.01347 19.4271C8.13615 19.0497 8.39733 18.7923 8.50814 18.4046C8.32709 18.1908 8.30236 17.8431 8.01347 17.723C7.7879 18.2274 7.31796 19.0701 8.01347 19.4271ZM3.75931 25.0508C4.06106 24.4611 4.67643 23.7019 3.85825 23.2614C3.52583 23.7761 3.08953 24.5847 3.75931 25.0508Z" fill="white"/>
<path fill-rule="evenodd" clip-rule="evenodd" d="M65.8901 8.17969C67.386 8.73779 68.7948 9.37002 70.1443 10.0542C70.0998 10.7461 70.1868 11.3238 70.2432 11.9288C69.6308 11.8027 69.2925 11.4405 68.6603 11.3323C68.4436 11.8819 68.5712 12.3548 68.5614 12.9513C68.8502 13.2418 69.4409 13.2733 69.7486 13.5477V15.0814C69.336 15.0388 69.1718 14.7832 68.7592 14.7406C68.499 16.1584 68.7592 17.382 68.8582 19.2565C69.2529 19.7116 70.0157 19.8504 70.639 20.1086C70.7221 20.7749 70.7676 21.4745 70.7379 22.2388C69.3063 21.5972 67.7728 21.0433 66.2859 20.4494C66.1434 16.2104 65.9544 12.1912 65.8901 8.17969ZM66.6816 9.45779C66.8082 9.74664 66.9774 9.99885 67.1763 10.2246C67.2436 10.027 67.5047 9.99629 67.572 9.79861C67.2841 9.67677 67.3484 9.25244 66.9784 9.20217C66.8815 9.28908 66.7825 9.37428 66.6816 9.45779ZM66.7805 13.2069C67.0437 13.3781 67.02 13.7957 67.3741 13.8885C67.8302 13.5895 67.5295 13.0552 67.0773 12.8661C67.0487 13.0399 66.8092 13.0331 66.7805 13.2069ZM67.6709 19.9382C67.8124 19.9178 67.8381 19.7976 67.9677 19.7678C67.8154 19.473 67.7946 19.0648 67.3741 19.0009C66.9072 19.2472 67.2544 19.7601 67.6709 19.9382Z" fill="white"/>
<path fill-rule="evenodd" clip-rule="evenodd" d="M43.2341 17.9785C42.5198 20.487 43.5299 24.4823 40.8597 25.3063C40.5094 27.5515 40.2938 29.6885 40.1671 31.9524C39.3638 32.0845 38.6425 32.2864 37.7927 32.3784C38.0034 30.1452 38.2953 27.9826 38.4852 25.7323C38.3467 25.4256 37.859 25.4196 37.4959 25.3063C36.3305 23.4888 37.4108 20.4444 37.4959 18.1489C38.3349 18.1617 38.973 18.0007 39.8703 18.0637C39.7902 19.8454 38.9146 22.4561 39.6724 23.8578C41.0061 22.7058 40.3492 19.8394 40.8597 17.9785H43.2341ZM41.6511 19.6826C42.036 19.6452 42.0558 19.2933 42.2447 19.0862C42.0231 18.9933 42.0706 18.6678 41.849 18.575C41.5225 18.8655 41.3335 19.2643 41.6511 19.6826ZM38.3863 19.9383C38.6871 19.5352 38.9463 19.0828 38.3863 18.7454C38.045 19.0802 37.8224 19.6613 38.3863 19.9383ZM41.2554 23.0909C41.6679 23.0764 41.6007 22.6495 41.849 22.4945C41.6274 22.4016 41.6749 22.0761 41.4533 21.9832C41.1268 22.2738 40.9378 22.6725 41.2554 23.0909ZM37.4959 23.0057C37.6908 23.0645 37.7601 23.2332 37.7927 23.4317C38.1865 23.3738 38.2201 23.0049 38.3863 22.7501C38.1439 22.6743 38.2795 22.2746 37.8916 22.3241C37.8699 22.6461 37.581 22.7382 37.4959 23.0057ZM39.5735 25.9879C39.8485 25.6505 40.2215 25.026 39.5735 24.795C39.3103 25.1972 38.9809 25.6863 39.5735 25.9879ZM38.9799 31.2707C39.1807 31.0467 39.3202 30.768 39.4746 30.5039C39.2421 30.4204 39.3103 30.077 38.9799 30.0779C38.7543 30.5124 38.3645 30.9504 38.9799 31.2707Z" fill="white"/>
<path fill-rule="evenodd" clip-rule="evenodd" d="M46.5977 17.9785C47.313 18.12 46.7026 19.1399 46.7956 19.7679C46.5888 20.2041 46.1733 20.0976 45.9052 20.5347C45.453 21.2726 45.7973 22.4808 45.5094 23.4317C45.5836 23.7939 46.1495 23.7325 46.4988 23.8578C46.4414 27.5004 46.2782 31.0518 42.6404 31.6116C42.3574 31.0339 42.6849 30.3028 42.6404 29.6518C44.3133 29.161 43.9057 26.8792 44.1244 25.1359C44.061 24.8496 43.6505 24.8624 43.234 24.8803C43.3299 21.6969 43.1469 18.2725 46.5977 17.9785ZM45.8062 19.5974C46.2702 19.5293 46.5611 18.6508 45.9052 18.575C45.5579 18.8246 45.5807 19.2489 45.8062 19.5974ZM45.0148 25.1359C45.1028 24.8709 45.3452 24.7388 45.4105 24.4542C45.1681 24.3784 45.3037 23.9788 44.9158 24.0282C44.619 24.3784 44.5221 24.8913 45.0148 25.1359ZM43.3329 30.7595C43.9641 30.6632 44.0709 29.8972 43.5308 29.6518C43.2894 29.9748 42.954 30.3624 43.3329 30.7595Z" fill="white"/>
<path fill-rule="evenodd" clip-rule="evenodd" d="M53.9189 18.8308C54.1267 19.1631 53.9684 19.8107 54.0178 20.2793C53.2452 20.4089 52.5032 20.5656 52.1381 21.0462C52.1232 22.0934 52.0916 23.3561 52.1381 24.7101C52.1777 25.8723 51.961 27.3898 52.237 28.2036C52.5041 28.9917 53.5528 28.9074 54.2157 29.3112C54.1682 29.7535 54.3225 30.3687 54.1168 30.6745C52.2865 31.1057 50.3088 30.2638 49.9615 28.6296C49.7805 27.7801 49.9378 26.3017 49.8626 24.8805C49.7726 23.1653 49.6321 20.9525 49.9615 20.1089C50.4335 18.899 52.3884 18.346 53.9189 18.8308ZM50.5551 20.535C50.5551 20.8195 50.8767 20.8255 50.8519 21.1314C51.1844 21.105 51.2467 20.8468 51.3466 20.6202C51.1636 20.4941 51.1982 20.1796 50.8519 20.1941C50.753 20.3075 50.758 20.5111 50.5551 20.535ZM51.2477 28.8852C51.5702 28.5512 51.5742 28.1192 51.0498 27.9479C50.7293 28.2214 50.6323 28.8102 51.2477 28.8852Z" fill="white"/>
<path fill-rule="evenodd" clip-rule="evenodd" d="M34.132 18.8305C37.1624 18.6336 36.3531 23.1411 36.0118 25.8174C35.803 27.4525 35.8178 29.1839 35.4181 30.589C34.8889 32.4499 32.7885 34.223 30.9661 33.6564C28.9202 33.0208 29.9224 29.5162 30.2736 27.0103C30.7208 23.8159 30.5051 19.0656 34.132 18.8305ZM33.4395 20.279C33.6987 20.3395 33.5344 20.7655 33.8352 20.7902C34.0014 20.5363 34.227 20.3326 34.3299 20.0233C34.0974 19.9398 34.1656 19.5965 33.8352 19.5973C33.8134 19.9194 33.5246 20.0114 33.4395 20.279ZM33.4395 21.8127C32.6322 24.4405 32.5748 27.7141 32.1533 30.6742C33.4128 30.8693 33.1575 29.6091 33.2416 28.97C33.5542 26.5996 34.0519 23.9045 34.0331 21.8127C33.8263 21.6269 33.7511 21.8553 33.4395 21.8127ZM35.0224 23.602C35.5666 23.4197 35.8139 22.692 35.2203 22.4091C34.8889 22.7832 34.7543 23.0933 35.0224 23.602ZM31.8565 24.1985C32.0712 23.8389 32.5431 23.2271 31.8565 23.0056C31.4786 23.3089 31.3154 23.9411 31.8565 24.1985ZM34.5277 29.1405C34.7286 28.9164 34.8681 28.6377 35.0224 28.3736C34.78 28.2978 34.9156 27.8981 34.5277 27.9476C34.2646 28.3497 33.9351 28.8388 34.5277 29.1405ZM30.9661 29.8221C31.4835 29.7003 31.813 28.8099 31.164 28.6292C30.8969 28.9479 30.5922 29.4046 30.9661 29.8221ZM32.2523 32.7191C32.8439 32.5138 33.1585 31.7682 32.4501 31.5262C32.2058 31.8253 31.8367 32.3383 32.2523 32.7191Z" fill="white"/>
<path fill-rule="evenodd" clip-rule="evenodd" d="M54.5127 18.916C55.2656 19.0345 56.0284 19.1444 56.7882 19.2568C56.8169 22.4308 57.0256 25.6934 57.085 28.8C57.452 28.9951 58.0694 28.9747 58.6679 28.9704C58.6303 29.7049 58.7659 30.3797 58.7669 30.8449C57.2868 30.6737 55.9393 30.7112 54.8095 30.7597C54.6937 27.2577 54.6017 22.729 54.5127 18.916ZM55.1063 20.4497C55.3388 20.5332 55.2705 20.8766 55.601 20.8758C55.788 20.8664 55.6692 20.5937 55.8978 20.6201C55.8137 20.3517 55.7138 20.0961 55.4031 20.0237C55.3141 20.1745 55.1647 20.2725 55.1063 20.4497ZM55.4031 29.226C55.3784 29.5319 55.6999 29.5379 55.6999 29.8225C56.0778 29.8361 56.0214 29.4748 56.1946 29.3112C55.9621 29.2277 56.0303 28.8843 55.6999 28.8852C55.601 28.9985 55.5367 29.1425 55.4031 29.226Z" fill="white"/>
<path fill-rule="evenodd" clip-rule="evenodd" d="M58.8657 19.5977C59.7215 19.6564 60.2923 19.9598 61.1412 20.0237C61.2243 22.1948 61.35 24.86 61.438 27.0958C61.4647 27.7749 61.2233 28.8554 62.1305 29.0556C62.8745 28.7821 62.46 27.9905 62.4273 27.4367C62.3007 25.2665 62.3007 22.654 62.2295 20.2793C63.0269 20.4446 63.667 20.7454 64.505 20.8758C64.5871 23.9193 64.7434 26.6587 64.9007 29.9077C64.2398 30.718 63.3296 31.4269 62.0316 31.271C60.6723 31.1074 59.8778 29.7389 59.1625 29.0556C59.1111 25.7973 58.8994 22.8312 58.8657 19.5977ZM59.4593 20.7053C59.5454 20.972 59.7047 21.1757 59.954 21.3018C60.326 20.9848 60.1964 20.5912 59.6572 20.4497C59.6621 20.5963 59.581 20.6679 59.4593 20.7053ZM63.2188 22.0686C63.8619 22.0567 63.569 21.2481 63.1199 21.2166C62.7152 21.4807 63.1139 21.7687 63.2188 22.0686ZM59.6572 26.6698C59.8758 26.7942 59.8531 27.1257 60.1519 27.181C60.1825 26.98 60.4952 27.0226 60.4487 26.755C60.2755 26.6204 60.2429 26.3639 59.954 26.329C59.9253 26.5028 59.6859 26.496 59.6572 26.6698ZM63.1199 27.2663C63.3464 27.3838 63.3524 27.6906 63.6145 27.7775C63.67 27.6548 63.7689 27.5696 63.9113 27.5219C63.8253 27.2552 63.666 27.0515 63.4167 26.9254C63.388 27.0992 63.1486 27.0924 63.1199 27.2663ZM61.6359 30.0781C61.8624 30.1957 61.8684 30.5024 62.1305 30.5893C62.2186 30.4095 62.4313 30.3371 62.4273 30.0781C62.2453 29.9503 62.181 29.7228 61.9327 29.652C61.8436 29.8029 61.6942 29.9008 61.6359 30.0781Z" fill="white"/>
<path fill-rule="evenodd" clip-rule="evenodd" d="M22.7549 35.7867C23.2545 30.9061 24.2488 25.7127 24.8325 20.6199C25.4993 20.3831 26.4055 19.9247 27.108 19.9383C30.0315 19.9962 30.9199 24.968 28.9877 26.84C30.4866 29.9254 27.2168 34.4549 25.2282 35.3607C24.4654 35.7083 23.5266 35.7373 22.7549 35.7867ZM25.3272 22.0685C25.4043 22.3428 25.5339 22.572 25.7229 22.7501C25.8871 22.4655 26.0533 22.1826 26.2176 21.898C25.9752 21.8222 26.1107 21.4226 25.7229 21.472C25.6863 21.7532 25.4914 21.898 25.3272 22.0685ZM26.4154 26.3288C28.0854 26.1243 27.7619 23.4318 26.8112 22.7501C26.6964 23.9575 26.4659 25.066 26.4154 26.3288ZM28.6909 24.6246C29.0708 24.4977 29.1242 24.0887 29.2845 23.7726C29.0659 23.7053 29.1559 23.3721 28.8888 23.3466C28.5781 23.678 28.3407 24.1739 28.6909 24.6246ZM24.5357 28.2885C24.7573 28.3814 24.7098 28.7069 24.9314 28.7998C25.064 28.4879 25.3094 28.2732 25.4261 27.9477C25.2826 27.7875 25.2807 27.5046 25.0304 27.4365C24.9136 27.762 24.6683 27.9767 24.5357 28.2885ZM26.4154 28.5442C25.4508 29.3042 25.7585 31.1591 25.4261 32.4637C26.2482 31.7087 27.9232 29.432 26.4154 28.5442ZM27.8994 30.5039C28.4278 30.3914 28.7572 29.501 28.0973 29.311C27.8777 29.6706 27.5255 30.0864 27.8994 30.5039ZM23.6453 33.9974C23.9045 34.0579 23.7403 34.4839 24.041 34.5086C24.2963 34.161 24.875 33.4861 24.14 33.2305C23.9965 33.5049 23.7709 33.7077 23.6453 33.9974Z" fill="white"/>
<path fill-rule="evenodd" clip-rule="evenodd" d="M70.7377 28.1183C72.3721 29.9826 71.4629 32.6871 68.6601 32.6342C67.5194 32.6129 66.6943 32.1034 65.7911 31.697C65.6041 28.3458 65.3914 24.9307 65.2964 21.3018C68.0339 21.3427 71.8527 24.7415 71.3314 27.3514C71.2522 27.7459 71.2502 27.9658 70.7377 28.1183ZM66.6815 23.1763C66.7022 23.0809 66.7913 23.0434 66.8793 23.0059C66.7952 22.7375 66.6953 22.4827 66.3847 22.4094C66.0315 22.631 66.2768 23.1226 66.6815 23.1763ZM68.6601 26.4994C69.136 25.6209 68.3861 24.5149 67.7697 24.0284C68.0537 24.8634 67.3324 26.5641 68.6601 26.4994ZM70.1441 26.3289C70.1995 26.2063 70.2985 26.121 70.4409 26.0733C70.3193 25.8092 70.2233 25.5229 69.8473 25.4769C69.512 25.7725 69.877 26.0946 70.1441 26.3289ZM66.8793 27.4366C67.2503 27.1955 66.9664 26.6698 66.5825 26.5846C66.1799 26.853 66.5766 27.2816 66.8793 27.4366ZM68.2644 30.5893C69.227 30.0371 69.5278 28.2887 68.0665 28.0331C67.8974 28.759 67.8687 30.0687 68.2644 30.5893ZM70.4409 30.4189C70.4696 30.245 70.7091 30.2519 70.7377 30.078C70.4716 29.9664 70.5399 29.5668 70.1441 29.5668C69.7731 29.8079 70.1352 30.2663 70.4409 30.4189ZM66.5825 30.7597C66.5825 31.0443 66.9041 31.0502 66.8793 31.3561C67.1692 31.3502 67.2464 31.161 67.374 31.0153C67.1474 30.8977 67.1415 30.591 66.8793 30.5041C66.8239 30.6268 66.725 30.712 66.5825 30.7597Z" fill="white"/>
<path fill-rule="evenodd" clip-rule="evenodd" d="M12.9606 24.1133C13.2306 24.1934 13.1871 24.5427 13.2574 24.7949C13.0634 24.9398 12.7627 24.9935 12.6638 25.221C12.2591 24.8784 12.5252 24.2266 12.9606 24.1133Z" fill="white"/>
<path fill-rule="evenodd" clip-rule="evenodd" d="M13.2573 29.1408C13.0634 29.514 12.3639 29.4501 11.8722 29.5668C11.8327 29.0488 12.8358 28.9789 13.2573 29.1408Z" fill="white"/>
<path fill-rule="evenodd" clip-rule="evenodd" d="M9.10176 29.737C9.00579 29.9901 8.0679 30.1529 7.91455 29.8223C7.98183 29.3766 8.84552 29.6041 9.10176 29.737Z" fill="white"/>
<path fill-rule="evenodd" clip-rule="evenodd" d="M12.3667 30.0779C12.4181 30.4289 11.8314 30.5116 11.5752 30.3335V30.0779C11.7701 29.9092 12.1401 30.0234 12.3667 30.0779Z" fill="white"/>
<path fill-rule="evenodd" clip-rule="evenodd" d="M9.10183 30.5892C9.02862 30.832 8.46668 30.9368 8.21143 30.7596C8.26683 30.3123 8.80899 30.4282 9.10183 30.5892Z" fill="white"/>
<path fill-rule="evenodd" clip-rule="evenodd" d="M9.6954 30.9302C9.77554 31.4866 10.0753 31.853 10.289 32.2935C10.1287 32.44 9.87546 32.5048 9.49754 32.4639C9.14434 32.0481 9.41542 31.2983 9.6954 30.9302Z" fill="white"/>
<path fill-rule="evenodd" clip-rule="evenodd" d="M11.1797 33.316C11.0927 33.9338 10.3447 33.5154 9.89361 33.4864C9.75708 32.9215 11.0877 32.9215 11.1797 33.316Z" fill="white"/>
<path fill-rule="evenodd" clip-rule="evenodd" d="M6.82637 35.7016C7.03116 35.8379 6.94806 36.2214 7.12317 36.3833C6.61465 36.6483 6.07249 36.2111 5.63916 36.1276C5.75096 35.6888 6.21792 35.4801 6.82637 35.7016Z" fill="white"/>
<path fill-rule="evenodd" clip-rule="evenodd" d="M14.2464 4.00488C13.7794 10.1355 13.1106 16.0914 12.9603 22.4947C18.3146 22.3712 20.4199 25.0458 20.2814 29.6521C20.2121 30.1088 20.7711 30.0253 20.776 30.4189C20.4802 31.5547 21.0095 31.9671 21.5675 32.5491C21.2292 33.3884 20.9957 34.9707 20.3803 35.7017C19.7353 36.4669 18.4481 37.0182 17.5112 37.5763C16.4744 38.1932 15.6622 39.047 14.5432 39.1952C13.8348 39.1398 14.7391 38.6252 14.4443 38.4284C13.6231 38.638 12.3677 38.9013 11.4763 38.7692C10.9994 38.6405 11.1577 37.964 10.2891 38.1727C9.76965 38.1634 10.3207 38.6346 9.79438 38.684C9.25223 38.7249 9.35314 38.2119 9.10185 38.0023C7.7603 37.7092 6.23969 37.5703 5.63916 36.639C7.10437 37.3232 9.93586 38.2503 12.3667 37.4911C12.154 36.7651 11.2012 36.6774 10.9816 35.9574C9.28586 35.6566 7.09349 35.7835 6.13383 34.8497C7.7326 35.2621 9.34522 35.6625 11.4763 35.6165C11.7463 35.5083 11.871 35.2749 12.0699 35.1053C11.3417 34.3657 9.17704 34.8182 7.71677 34.3384C7.28344 33.6602 7.25574 32.6335 7.2221 31.6118C8.067 32.3327 8.33016 33.5545 9.00291 34.4236C11.9096 34.8164 14.0812 34.0956 15.5325 32.8899C15.2318 31.7328 16.1351 29.618 14.1475 29.5669C14.1257 27.0158 9.56387 27.7196 7.61784 28.2036C7.76723 29.1587 7.18253 29.9392 7.61784 31.0154C7.06381 31.1313 6.61267 30.4752 6.72743 29.7373C6.17637 30.9557 6.95003 32.3412 6.82637 33.742C4.78734 29.9631 6.21298 24.3497 10.2891 23.3468C10.6175 17.269 11.2457 10.9381 11.6741 4.68654C12.5467 4.47182 13.3243 4.17615 14.2464 4.00488ZM12.7624 7.41315C13.0434 6.81244 13.4906 6.22366 12.7624 5.79422C12.3746 6.26712 12.0174 7.05528 12.7624 7.41315ZM11.1795 21.2166C11.2922 21.5165 11.3971 21.825 11.6741 21.9835C11.8314 21.6077 12.0362 21.2729 12.1688 20.8758C11.9175 20.7514 11.9769 20.3594 11.6741 20.2793C11.5168 20.5989 11.3862 20.9397 11.1795 21.2166ZM18.4016 26.9255C18.0217 28.2888 16.8662 26.7295 16.6208 26.1586C15.9827 24.6726 14.7658 22.3149 12.4656 23.1764C12.7485 23.1593 13.0058 23.1661 12.9603 23.432C12.1629 24.25 11.5712 25.246 10.5859 25.903C13.0444 25.7087 16.2706 26.1978 17.1155 27.6071C16.1914 27.7068 15.2842 26.7994 13.9496 26.4994C11.2537 25.8936 6.93717 26.4091 6.3317 28.2888C6.71655 28.3859 6.54144 29.4109 6.72743 29.3965C6.65818 28.9679 6.89562 28.8026 6.82637 28.374C8.53001 27.3157 12.2727 27.297 14.1475 27.9479C14.0307 27.7886 13.3431 27.6812 13.5539 27.5219C15.4692 27.8039 16.6564 29.1664 16.5219 30.9302C16.5367 30.7189 16.5407 30.5169 16.324 30.5041C16.3082 30.8058 15.9837 31.6451 16.423 31.7822C16.7029 31.7959 16.3408 31.2574 16.6208 31.271C16.7049 32.1998 16.0836 32.9913 15.4336 33.5716C14.8697 34.0751 13.821 34.2336 13.5539 34.9349C15.4376 34.5949 16.8207 33.0919 17.2144 31.1858C17.4944 31.3911 17.4548 32.7127 17.6102 32.4639C17.4538 31.1824 16.5743 27.8056 18.6984 28.374C19.3692 28.5538 18.9685 29.3769 19.6878 29.6521C19.8203 29.1587 19.849 28.5964 19.7867 28.1184C19.5453 26.2566 18.1968 24.0276 16.6208 23.858C16.8325 24.7842 18.741 25.707 18.4016 26.9255ZM11.2784 24.1136C11.4891 23.8972 11.9492 23.8964 11.9709 23.5172C11.4931 23.4627 10.9024 23.9713 11.2784 24.1136ZM9.29971 24.1989C9.59849 24.4068 9.27795 24.7996 9.00291 24.7953C8.9485 24.6717 9.11866 24.3548 8.90398 24.3693C8.35588 24.9768 7.29531 25.5962 7.41997 26.4994C7.91068 26.2685 8.43206 26.064 9.20078 26.0734C9.1157 25.6925 8.66159 25.6286 8.60718 25.2213C9.19979 24.8498 10.2465 24.4187 10.0912 23.6876C9.8765 23.8998 9.45603 23.9364 9.29971 24.1989ZM9.39865 25.3065C9.5233 25.3415 9.60047 25.4165 9.59651 25.5622C10.4147 25.5281 10.6581 24.9998 10.8827 24.4545C10.2386 24.6095 10.017 25.1285 9.39865 25.3065ZM18.8963 30.9302C19.2436 30.649 19.1713 29.6649 18.5006 29.7373C18.2938 30.1173 18.3393 30.9319 18.8963 30.9302ZM18.4016 32.4639C19.2732 32.1103 21.0214 31.3306 20.2814 30.4189C20.221 31.5368 18.4194 31.5922 18.4016 32.4639ZM19.5888 33.742C18.6658 34.5949 17.3618 35.5722 16.0272 35.7869C16.3052 35.1462 17.2095 35.0448 17.3134 34.2532C16.7386 33.7803 17.5003 33.0032 17.4123 32.7195C16.3636 33.6619 15.4445 34.7168 14.0485 35.3609C14.1138 35.8193 13.4896 36.3842 13.8507 36.5538C14.4888 36.3928 15.2377 35.8756 15.8293 35.9574C15.2407 36.8427 13.1611 36.443 12.8613 37.5763C13.9427 37.6836 14.6412 37.0088 15.4336 37.1503C15.7413 37.5209 15.0606 37.6462 15.0379 38.0023C16.7237 36.1857 20.8542 36.0281 19.8856 32.2083H19.5888C19.3652 32.6036 19.7135 33.1566 19.5888 33.742Z" fill="white"/>
</svg>
