<svg width="83" height="80" viewBox="0 0 83 80" fill="none" xmlns="http://www.w3.org/2000/svg">
<path d="M40 8C56.5685 8 70 22.3269 70 40C70 57.6731 56.5685 72 40 72" stroke="#B2B9FC" stroke-width="2" stroke-linecap="round"/>
<path d="M40 8C51.0457 8 60 22.3269 60 40C60 57.6731 51.0457 72 40 72" stroke="#8E99FF" stroke-width="2" stroke-linecap="round"/>
<path d="M40 8C44.9706 8 49 22.3269 49 40C49 57.6731 44.9706 72 40 72" stroke="#3448FF" stroke-width="2" stroke-linecap="round"/>
<path d="M2.34164 28.6833C0.346941 24.6939 3.24791 20 7.7082 20H68.2918C70.5644 20 72.642 21.284 73.6584 23.3167L80.6584 37.3167C81.5029 39.0059 81.5029 40.9941 80.6584 42.6833L73.6584 56.6833C72.642 58.716 70.5644 60 68.2918 60H7.70821C3.24791 60 0.346937 55.3061 2.34164 51.3167L6.65836 42.6833C7.50294 40.9941 7.50294 39.0059 6.65836 37.3167L2.34164 28.6833Z" fill="white" stroke="#D4D9FF" stroke-width="2" stroke-linecap="round"/>
<path d="M40 72C23.4315 72 10 57.6731 10 40C10 22.3269 23.4315 8 40 8" stroke="#B2B9FC" stroke-width="2" stroke-linecap="round"/>
<path d="M40 72C28.9543 72 20 57.6731 20 40C20 22.3269 28.9543 8 40 8" stroke="#8E99FF" stroke-width="2" stroke-linecap="round"/>
<path d="M51.8106 28.7575C51.9219 28.3123 52.3219 28 52.7808 28H64.7192C65.3698 28 65.8472 28.6114 65.6894 29.2425L64.1894 35.2425C64.0781 35.6877 63.6781 36 63.2192 36H51.2808C50.6302 36 50.1528 35.3886 50.3106 34.7575L51.8106 28.7575Z" stroke="#3448FF" stroke-width="2" stroke-linecap="round"/>
<circle cx="55" cy="47" r="5" stroke="#3448FF" stroke-width="2" stroke-linecap="round"/>
<circle cx="61" cy="47" r="5" stroke="#3448FF" stroke-width="2" stroke-linecap="round"/>
<path d="M40 72C35.0294 72 31 57.6731 31 40C31 22.3269 35.0294 8 40 8" stroke="#8E99FF" stroke-width="2" stroke-linecap="round"/>
<path d="M40 72C35.0294 72 31 57.6731 31 40C31 22.3269 35.0294 8 40 8" stroke="#3448FF" stroke-width="2" stroke-linecap="round"/>
</svg>
