<svg width="1164" height="655" viewBox="0 0 1164 655" fill="none" xmlns="http://www.w3.org/2000/svg">
<g clip-path="url(#clip0_417_22428)">
<path d="M1156.68 -48.9711C1156.68 159.168 899.315 327.898 581.84 327.898C264.365 327.898 7 159.168 7 -48.9711C7 -257.11 264.365 -425.84 581.84 -425.84C899.315 -425.84 1156.68 -257.11 1156.68 -48.9711Z" stroke="#364153" stroke-miterlimit="10" stroke-dasharray="1.61 1.61"/>
<path d="M1041.73 -48.975C1041.73 159.164 835.837 327.894 581.856 327.894C327.876 327.894 121.984 159.164 121.984 -48.975C121.984 -257.114 327.876 -425.844 581.856 -425.844C835.837 -425.844 1041.73 -257.114 1041.73 -48.975Z" stroke="#364153" stroke-miterlimit="10" stroke-dasharray="1.61 1.61"/>
<path d="M949.735 -48.975C949.735 159.164 785.028 327.894 581.852 327.894C378.676 327.894 213.969 159.164 213.969 -48.975C213.969 -257.114 378.676 -425.844 581.852 -425.844C785.028 -425.844 949.735 -257.114 949.735 -48.975Z" stroke="#364153" stroke-miterlimit="10" stroke-dasharray="1.61 1.61"/>
<path d="M876.194 -48.975C876.194 159.164 744.416 327.894 581.859 327.894C419.302 327.894 287.523 159.164 287.523 -48.975C287.523 -257.114 419.302 -425.844 581.859 -425.844C744.416 -425.844 876.194 -257.114 876.194 -48.975Z" stroke="#364153" stroke-miterlimit="10" stroke-dasharray="1.61 1.61"/>
<path d="M817.292 -48.975C817.292 159.164 711.879 327.894 581.845 327.894C451.811 327.894 346.398 159.164 346.398 -48.975C346.398 -257.114 451.811 -425.844 581.845 -425.844C711.879 -425.844 817.292 -257.114 817.292 -48.975Z" stroke="#364153" stroke-miterlimit="10" stroke-dasharray="1.61 1.61"/>
<path d="M770.22 -48.975C770.22 159.164 685.883 327.894 581.848 327.894C477.813 327.894 393.477 159.164 393.477 -48.975C393.477 -257.114 477.813 -425.844 581.848 -425.844C685.883 -425.844 770.22 -257.114 770.22 -48.975Z" stroke="#364153" stroke-miterlimit="10" stroke-dasharray="1.61 1.61"/>
<path d="M732.551 -48.975C732.551 159.164 665.081 327.894 581.854 327.894C498.626 327.894 431.156 159.164 431.156 -48.975C431.156 -257.114 498.626 -425.844 581.854 -425.844C665.081 -425.844 732.551 -257.114 732.551 -48.975Z" stroke="#364153" stroke-miterlimit="10" stroke-dasharray="1.61 1.61"/>
<path d="M702.406 -48.975C702.406 159.164 648.434 327.894 581.855 327.894C515.277 327.894 461.305 159.164 461.305 -48.975C461.305 -257.114 515.277 -425.844 581.855 -425.844C648.434 -425.844 702.406 -257.114 702.406 -48.975Z" stroke="#364153" stroke-miterlimit="10" stroke-dasharray="1.61 1.61"/>
<path d="M678.293 -48.9711C678.293 159.168 635.108 327.898 581.838 327.898C528.567 327.898 485.383 159.168 485.383 -48.9711C485.383 -257.11 528.567 -425.84 581.838 -425.84C635.108 -425.84 678.293 -257.11 678.293 -48.9711Z" stroke="#364153" stroke-miterlimit="10" stroke-dasharray="1.61 1.61"/>
<path d="M659.002 -48.975C659.002 159.164 624.461 327.894 581.853 327.894C539.244 327.894 504.703 159.164 504.703 -48.975C504.703 -257.114 539.244 -425.844 581.853 -425.844C624.461 -425.844 659.002 -257.114 659.002 -48.975Z" stroke="#364153" stroke-miterlimit="10" stroke-dasharray="1.61 1.61"/>
<path d="M643.585 -48.975C643.585 159.164 615.946 327.894 581.851 327.894C547.756 327.894 520.117 159.164 520.117 -48.975C520.117 -257.114 547.756 -425.844 581.851 -425.844C615.946 -425.844 643.585 -257.114 643.585 -48.975Z" stroke="#364153" stroke-miterlimit="10" stroke-dasharray="1.61 1.61"/>
<path d="M631.225 -48.9711C631.225 159.168 609.117 327.898 581.845 327.898C554.573 327.898 532.465 159.168 532.465 -48.9711C532.465 -257.11 554.573 -425.84 581.845 -425.84C609.117 -425.84 631.225 -257.11 631.225 -48.9711Z" stroke="#364153" stroke-miterlimit="10" stroke-dasharray="1.61 1.61"/>
<path d="M621.374 -48.975C621.374 159.164 603.684 327.894 581.863 327.894C560.041 327.894 542.352 159.164 542.352 -48.975C542.352 -257.114 560.041 -425.844 581.863 -425.844C603.684 -425.844 621.374 -257.114 621.374 -48.975Z" stroke="#364153" stroke-miterlimit="10" stroke-dasharray="1.61 1.61"/>
<path d="M613.436 -48.975C613.437 159.164 599.294 327.894 581.849 327.894C564.404 327.894 550.262 159.164 550.262 -48.975C550.262 -257.114 564.404 -425.844 581.849 -425.844C599.294 -425.844 613.436 -257.114 613.436 -48.975Z" stroke="#364153" stroke-miterlimit="10" stroke-dasharray="1.61 1.61"/>
<path d="M582 -425.844V327.156" stroke="#364153" stroke-miterlimit="10" stroke-dasharray="1.61 1.61"/>
<rect x="431" y="326.156" width="752" height="302" transform="rotate(-90 431 326.156)" fill="url(#paint0_radial_417_22428)"/>
<rect x="7" y="326.156" width="752" height="1150" transform="rotate(-90 7 326.156)" fill="url(#paint1_radial_417_22428)"/>
<path d="M1156.68 704.029C1156.68 912.168 899.315 1080.9 581.84 1080.9C264.365 1080.9 7 912.168 7 704.029C7 495.89 264.365 327.16 581.84 327.16C899.315 327.16 1156.68 495.89 1156.68 704.029Z" stroke="#364153" stroke-miterlimit="10" stroke-dasharray="1.61 1.61"/>
<path d="M1041.73 704.025C1041.73 912.164 835.837 1080.89 581.856 1080.89C327.876 1080.89 121.984 912.164 121.984 704.025C121.984 495.886 327.876 327.156 581.856 327.156C835.837 327.156 1041.73 495.886 1041.73 704.025Z" stroke="#364153" stroke-miterlimit="10" stroke-dasharray="1.61 1.61"/>
<path d="M949.735 704.025C949.735 912.164 785.028 1080.89 581.852 1080.89C378.676 1080.89 213.969 912.164 213.969 704.025C213.969 495.886 378.676 327.156 581.852 327.156C785.028 327.156 949.735 495.886 949.735 704.025Z" stroke="#364153" stroke-miterlimit="10" stroke-dasharray="1.61 1.61"/>
<path d="M876.194 704.025C876.194 912.164 744.416 1080.89 581.859 1080.89C419.302 1080.89 287.523 912.164 287.523 704.025C287.523 495.886 419.302 327.156 581.859 327.156C744.416 327.156 876.194 495.886 876.194 704.025Z" stroke="#364153" stroke-miterlimit="10" stroke-dasharray="1.61 1.61"/>
<path d="M817.292 704.025C817.292 912.164 711.879 1080.89 581.845 1080.89C451.811 1080.89 346.398 912.164 346.398 704.025C346.398 495.886 451.811 327.156 581.845 327.156C711.879 327.156 817.292 495.886 817.292 704.025Z" stroke="#364153" stroke-miterlimit="10" stroke-dasharray="1.61 1.61"/>
<path d="M770.22 704.025C770.22 912.164 685.883 1080.89 581.848 1080.89C477.813 1080.89 393.477 912.164 393.477 704.025C393.477 495.886 477.813 327.156 581.848 327.156C685.883 327.156 770.22 495.886 770.22 704.025Z" stroke="#364153" stroke-miterlimit="10" stroke-dasharray="1.61 1.61"/>
<path d="M732.551 704.025C732.551 912.164 665.081 1080.89 581.854 1080.89C498.626 1080.89 431.156 912.164 431.156 704.025C431.156 495.886 498.626 327.156 581.854 327.156C665.081 327.156 732.551 495.886 732.551 704.025Z" stroke="#364153" stroke-miterlimit="10" stroke-dasharray="1.61 1.61"/>
<path d="M702.406 704.025C702.406 912.164 648.434 1080.89 581.855 1080.89C515.277 1080.89 461.305 912.164 461.305 704.025C461.305 495.886 515.277 327.156 581.855 327.156C648.434 327.156 702.406 495.886 702.406 704.025Z" stroke="#364153" stroke-miterlimit="10" stroke-dasharray="1.61 1.61"/>
<path d="M678.293 704.029C678.293 912.168 635.108 1080.9 581.838 1080.9C528.567 1080.9 485.383 912.168 485.383 704.029C485.383 495.89 528.567 327.16 581.838 327.16C635.108 327.16 678.293 495.89 678.293 704.029Z" stroke="#364153" stroke-miterlimit="10" stroke-dasharray="1.61 1.61"/>
<path d="M659.002 704.025C659.002 912.164 624.461 1080.89 581.853 1080.89C539.244 1080.89 504.703 912.164 504.703 704.025C504.703 495.886 539.244 327.156 581.853 327.156C624.461 327.156 659.002 495.886 659.002 704.025Z" stroke="#364153" stroke-miterlimit="10" stroke-dasharray="1.61 1.61"/>
<path d="M643.585 704.025C643.585 912.164 615.946 1080.89 581.851 1080.89C547.756 1080.89 520.117 912.164 520.117 704.025C520.117 495.886 547.756 327.156 581.851 327.156C615.946 327.156 643.585 495.886 643.585 704.025Z" stroke="#364153" stroke-miterlimit="10" stroke-dasharray="1.61 1.61"/>
<path d="M631.225 704.029C631.225 912.168 609.117 1080.9 581.845 1080.9C554.573 1080.9 532.465 912.168 532.465 704.029C532.465 495.89 554.573 327.16 581.845 327.16C609.117 327.16 631.225 495.89 631.225 704.029Z" stroke="#364153" stroke-miterlimit="10" stroke-dasharray="1.61 1.61"/>
<path d="M621.374 704.025C621.374 912.164 603.684 1080.89 581.863 1080.89C560.041 1080.89 542.352 912.164 542.352 704.025C542.352 495.886 560.041 327.156 581.863 327.156C603.684 327.156 621.374 495.886 621.374 704.025Z" stroke="#364153" stroke-miterlimit="10" stroke-dasharray="1.61 1.61"/>
<path d="M613.436 704.025C613.437 912.164 599.294 1080.89 581.849 1080.89C564.404 1080.89 550.262 912.164 550.262 704.025C550.262 495.886 564.404 327.156 581.849 327.156C599.294 327.156 613.436 495.886 613.436 704.025Z" stroke="#364153" stroke-miterlimit="10" stroke-dasharray="1.61 1.61"/>
<path d="M582 327.156V1080.16" stroke="#364153" stroke-miterlimit="10" stroke-dasharray="1.61 1.61"/>
<rect x="431" y="1079.16" width="752" height="302" transform="rotate(-90 431 1079.16)" fill="url(#paint2_radial_417_22428)"/>
<rect x="7" y="1079.16" width="752" height="1150" transform="rotate(-90 7 1079.16)" fill="url(#paint3_radial_417_22428)"/>
<rect y="326.156" width="752" height="1164" transform="rotate(-90 0 326.156)" fill="url(#paint4_linear_417_22428)"/>
<rect width="752" height="1164" transform="matrix(0 1 1 0 0 328.156)" fill="url(#paint5_linear_417_22428)"/>
</g>
<defs>
<radialGradient id="paint0_radial_417_22428" cx="0" cy="0" r="1" gradientUnits="userSpaceOnUse" gradientTransform="translate(807 477.156) rotate(90) scale(151 376)">
<stop offset="0.801153" stop-opacity="0.7"/>
<stop offset="1" stop-opacity="0"/>
</radialGradient>
<radialGradient id="paint1_radial_417_22428" cx="0" cy="0" r="1" gradientUnits="userSpaceOnUse" gradientTransform="translate(383 901.156) rotate(180) scale(376 512.389)">
<stop offset="0.801153" stop-opacity="0.7"/>
<stop offset="1" stop-opacity="0"/>
</radialGradient>
<radialGradient id="paint2_radial_417_22428" cx="0" cy="0" r="1" gradientUnits="userSpaceOnUse" gradientTransform="translate(807 1230.16) rotate(90) scale(151 376)">
<stop offset="0.801153" stop-opacity="0.7"/>
<stop offset="1" stop-opacity="0"/>
</radialGradient>
<radialGradient id="paint3_radial_417_22428" cx="0" cy="0" r="1" gradientUnits="userSpaceOnUse" gradientTransform="translate(383 1654.16) rotate(180) scale(376 512.389)">
<stop offset="0.801153" stop-opacity="0.7"/>
<stop offset="1" stop-opacity="0"/>
</radialGradient>
<linearGradient id="paint4_linear_417_22428" x1="752" y1="908.156" x2="-3.04597e-06" y2="908.156" gradientUnits="userSpaceOnUse">
<stop offset="0.305"/>
<stop offset="0.73" stop-opacity="0.7"/>
<stop offset="1" stop-opacity="0"/>
</linearGradient>
<linearGradient id="paint5_linear_417_22428" x1="752" y1="582" x2="-3.04597e-06" y2="582" gradientUnits="userSpaceOnUse">
<stop offset="0.305"/>
<stop offset="0.73" stop-opacity="0.7"/>
<stop offset="1" stop-opacity="0"/>
</linearGradient>
<clipPath id="clip0_417_22428">
<rect width="1164" height="654" fill="white" transform="translate(0 0.15625)"/>
</clipPath>
</defs>
</svg>
