<svg width="100%" height="100%" viewBox="0 0 1440 526" fill="none" xmlns="http://www.w3.org/2000/svg">
<g id="laser-footer" clip-path="url(#clip0_4196_29900)">
<path id="12" d="M-516.502 538.633C-516.502 242.04 -276.066 1.60352 20.5272 1.60352C317.12 1.60351 557.556 242.04 557.556 538.633" stroke="#364153" stroke-dasharray="2 2"/>
<path id="11" d="M1956.5 538.633C1956.5 242.04 1716.07 1.6035 1419.47 1.60352C1122.88 1.60353 882.443 242.04 882.443 538.633" stroke="#364153" stroke-dasharray="2 2"/>
<path id="10" d="M-455.502 538.633C-455.502 242.04 -215.066 1.60352 81.5272 1.60352C378.12 1.60351 618.556 242.04 618.556 538.633" stroke="#364153" stroke-dasharray="2 2"/>
<path id="09" d="M1895.5 538.633C1895.5 242.04 1655.07 1.6035 1358.47 1.60352C1061.88 1.60353 821.443 242.04 821.443 538.633" stroke="#364153" stroke-dasharray="2 2"/>
<path id="08" d="M-389.502 538.633C-389.502 242.04 -149.066 1.6035 147.527 1.60352C444.12 1.60353 684.556 242.04 684.556 538.633" stroke="#364153" stroke-dasharray="2 2"/>
<path id="07" d="M1829.5 538.633C1829.5 242.04 1589.07 1.6035 1292.47 1.60352C995.879 1.60353 755.443 242.04 755.443 538.633" stroke="#364153" stroke-dasharray="2 2"/>
<path id="06" d="M-319.502 538.633C-319.502 242.04 -79.0658 1.6035 217.527 1.60352C514.12 1.60353 754.556 242.04 754.556 538.633" stroke="#364153" stroke-dasharray="2 2"/>
<path id="05" d="M1759.5 538.633C1759.5 242.04 1519.07 1.6035 1222.47 1.60352C925.879 1.60353 685.443 242.04 685.443 538.633" stroke="#364153" stroke-dasharray="2 2"/>
<path id="04" d="M-241.502 538.633C-241.502 242.04 -1.06577 1.6035 295.527 1.60352C592.12 1.60353 832.556 242.04 832.556 538.633" stroke="#364153" stroke-dasharray="2 2"/>
<path id="03" d="M1681.5 538.633C1681.5 242.04 1441.07 1.6035 1144.47 1.60352C847.879 1.60353 607.443 242.04 607.443 538.633" stroke="#364153" stroke-dasharray="2 2"/>
<path id="02" d="M-154.275 538.633C-154.275 242.04 86.1608 1.6035 382.754 1.60352C679.347 1.60353 919.783 242.04 919.783 538.633" stroke="#364153" stroke-dasharray="2 2"/>
<path id="01" d="M1594.28 538.633C1594.28 242.04 1353.84 1.6035 1057.25 1.60352C760.653 1.60353 520.217 242.04 520.217 538.633" stroke="#364153" stroke-dasharray="2 2"/>
</g>
<defs>
<clipPath id="clip0_4196_29900">
<rect width="1440" height="525" fill="white" transform="translate(0 0.609375)"/>
</clipPath>
</defs>
</svg>
