<svg width="166" height="66" viewBox="0 0 166 66" fill="none" xmlns="http://www.w3.org/2000/svg">
<path d="M87.5104 32.4479C90.3594 32.4479 92.2946 34.6518 92.2946 37.9308V44.032C92.2946 44.1126 92.2139 44.1932 92.1333 44.1932H89.3381C89.2574 44.1932 89.1768 44.1126 89.1768 44.032V37.9577C89.1768 36.6945 88.5586 35.3237 86.8116 35.3237H86.7579C85.4409 35.3506 84.312 36.5332 84.312 37.8771V44.032C84.312 44.1126 84.2314 44.1932 84.1508 44.1932H81.3824C81.3018 44.1932 81.2212 44.1126 81.2212 44.032V32.7435C81.2212 32.6629 81.3018 32.5823 81.3824 32.5823H84.0701C84.1508 32.5823 84.2314 32.6629 84.2314 32.7435V33.738C85.2527 32.851 86.301 32.4479 87.5104 32.4479ZM130.111 42.1506C130.057 42.2043 130.084 42.3118 130.138 42.3656C131.804 44.032 133.605 44.247 135.164 44.247C137.368 44.247 139.007 43.4138 139.706 41.9355C139.921 41.4786 140.029 40.9948 140.029 40.4842C140.029 37.5008 137.448 36.9633 135.218 36.8289C133.444 36.7214 133.444 36.1032 133.444 35.8882C133.444 35.1356 134.653 35.055 135.164 35.055C136.158 35.055 136.911 35.2969 137.529 35.8344C137.583 35.8882 137.69 35.8882 137.744 35.8075L139.33 33.9799C139.383 33.9261 139.383 33.8186 139.303 33.7649C138.147 32.7973 136.911 32.3941 135.11 32.3941C133.954 32.3941 132.825 32.6898 131.992 33.1736C130.917 33.8186 130.353 34.7862 130.353 35.9688C130.353 38.0383 131.992 39.3016 135.002 39.5166C136.696 39.6241 136.911 40.1079 136.911 40.5379C136.911 41.1561 136.078 41.4786 135.271 41.4786H135.191C133.874 41.4518 132.61 40.968 131.777 40.1885C131.697 40.1348 131.589 40.1348 131.535 40.2154L130.111 42.1506ZM102.024 40.2423C102.481 39.7047 102.696 38.9522 102.696 38.1459C102.696 36.6945 101.809 35.1625 99.6589 35.1625C97.885 35.1625 96.7024 36.372 96.7024 38.1727C96.7024 39.9735 97.885 41.2099 99.6589 41.2099C100.573 41.2099 101.487 40.8605 102.024 40.2423ZM102.615 32.7167C102.615 32.636 102.696 32.5554 102.777 32.5554H105.545C105.626 32.5554 105.706 32.636 105.706 32.7167V44.032C105.706 44.1126 105.626 44.1932 105.545 44.1932H102.777C102.696 44.1932 102.615 44.1126 102.615 44.032V43.1719C101.648 44.0588 100.492 44.0857 99.4977 44.1126H99.3364C97.67 44.1126 96.2724 43.6019 95.2511 42.6075C94.176 41.5593 93.6384 40.0273 93.6384 38.1996C93.6384 34.6518 95.8961 32.3673 99.417 32.3673H99.4708C100.573 32.3673 101.728 32.4748 102.642 33.2273L102.615 32.7167ZM68.1857 29.7602V27.0456C68.1857 26.9381 68.1051 26.8574 67.9976 26.8574H57.9186C57.8111 26.8574 57.7305 26.9381 57.7305 27.0456V43.9782C57.7305 44.0857 57.8111 44.1664 57.9186 44.1664H60.6332C60.7407 44.1664 60.8213 44.0857 60.8213 43.9782V37.0708C60.8213 36.9633 60.902 36.8826 61.0095 36.8826H66.0893C66.1968 36.8826 66.2774 36.802 66.2774 36.6945V33.953C66.2774 33.8455 66.1968 33.7649 66.0893 33.7649H61.0095C60.902 33.7649 60.8213 33.6842 60.8213 33.5767V30.1633C60.8213 30.0558 60.902 29.9752 61.0095 29.9752H67.9707C68.1051 29.9752 68.1857 29.8677 68.1857 29.7602ZM127.45 40.5648C127.396 40.5111 127.289 40.5111 127.235 40.5648C126.697 41.0217 125.999 41.2636 125.327 41.2636C123.633 41.2636 122.451 40.0541 122.451 38.3071C122.451 36.5601 123.633 35.3506 125.327 35.3506C125.999 35.3506 126.671 35.5925 127.235 36.0494C127.289 36.1032 127.396 36.1032 127.45 36.0494L129.251 34.168C129.305 34.1143 129.305 34.0068 129.251 33.953C128.095 32.851 126.912 32.3941 125.3 32.3941C121.671 32.3941 119.333 34.7324 119.333 38.3609C119.333 41.9893 121.671 44.3276 125.3 44.3276C126.912 44.3276 128.095 43.8707 129.251 42.7687C129.305 42.715 129.305 42.6075 129.251 42.5537L127.45 40.5648ZM112.99 44.1932C113.071 44.1932 113.151 44.1126 113.151 44.032V41.5055C113.151 41.4249 113.071 41.3442 112.99 41.3442H111.619C110.813 41.3174 110.437 40.9142 110.437 40.0541V35.7269H112.99C113.071 35.7269 113.151 35.6463 113.151 35.5656V32.7435C113.151 32.6629 113.071 32.5823 112.99 32.5823H110.464V30.1364C110.464 30.0558 110.383 29.9752 110.302 29.9752H107.507C107.426 29.9752 107.346 30.0558 107.346 30.1364V40.0541C107.346 42.6881 108.824 44.1932 111.431 44.1932H111.942H112.99ZM75.8457 40.2423C76.3026 39.7047 76.5176 38.9522 76.5176 38.1459C76.5176 36.6945 75.6307 35.1625 73.4805 35.1625C71.7066 35.1625 70.524 36.372 70.524 38.1727C70.524 39.9735 71.7066 41.2099 73.4805 41.2099C74.4212 41.2099 75.335 40.8605 75.8457 40.2423ZM76.4639 32.7167C76.4639 32.636 76.5445 32.5554 76.6252 32.5554H79.3935C79.4741 32.5554 79.5548 32.636 79.5548 32.7167V44.032C79.5548 44.1126 79.4741 44.1932 79.3935 44.1932H76.6252C76.5445 44.1932 76.4639 44.1126 76.4639 44.032V43.1719C75.4963 44.0588 74.3406 44.0857 73.3461 44.1126H73.1849C71.5185 44.1126 70.1209 43.6019 69.0995 42.6075C68.0244 41.5593 67.4869 40.0273 67.4869 38.1996C67.46 34.6518 69.7177 32.3404 73.2117 32.3404H73.2655C74.3675 32.3404 75.5232 32.4479 76.437 33.2004L76.4639 32.7167ZM114.818 44.1932H117.613C117.694 44.1932 117.774 44.1126 117.774 44.032V32.7167C117.774 32.636 117.694 32.5554 117.613 32.5554H114.818C114.737 32.5554 114.656 32.636 114.656 32.7167V44.032C114.683 44.1126 114.737 44.1932 114.818 44.1932ZM117.989 29.142C117.989 26.8574 114.549 26.8574 114.549 29.142C114.522 31.3997 117.989 31.3997 117.989 29.142Z" fill="white"/>
<path d="M53.0001 23.5783L50.0973 28.0937C50.0436 28.1743 49.9092 28.2281 49.8286 28.1743C43.1361 24.8147 35.3955 30.9964 28.5687 29.5182C28.5149 29.4913 28.4612 29.4644 28.4074 29.4107C28.4343 29.4107 25.1284 24.3578 24.0264 22.6645C23.892 22.4495 24.0533 22.1538 24.349 22.1807C24.9402 22.3151 27.5205 22.8795 29.5094 23.0408C39.8571 23.6052 45.4744 17.3966 52.9732 23.2827C53.0538 23.3364 53.0807 23.4708 53.0001 23.5783ZM44.5606 36.5063C44.6144 36.5332 44.6681 36.5063 44.7219 36.4525L48.2159 30.9964C48.2697 30.9158 48.2159 30.8352 48.1353 30.8083C43.0555 29.0613 38.2982 32.4209 31.0414 32.6091C30.8532 32.6091 30.6651 32.8241 30.7995 33.066L38.6208 45.1607C38.7283 45.3758 38.997 45.2414 38.9702 45.0532L37.2769 37.3932C37.25 37.3126 37.3038 37.2588 37.3575 37.232C38.0295 37.0438 42.4642 35.5387 44.5606 36.5063Z" fill="white"/>
<path d="M142.017 31.346C142.017 31.9105 141.668 32.3674 141.023 32.3674C140.378 32.3674 140.028 31.9105 140.028 31.346C140.028 30.7816 140.378 30.3247 141.023 30.3247C141.668 30.3247 142.017 30.7816 142.017 31.346ZM141.023 32.2061C141.56 32.2061 141.856 31.8298 141.856 31.346C141.856 30.8623 141.56 30.486 141.023 30.486C140.485 30.486 140.19 30.8623 140.19 31.346C140.19 31.8298 140.485 32.2061 141.023 32.2061ZM141.184 31.4804C141.587 31.4267 141.56 30.8085 141.103 30.8085H140.62V31.8567H140.781V31.4804H140.996L141.318 31.8567H141.507V31.8298L141.184 31.4804ZM141.103 30.9698C141.372 30.9698 141.372 31.346 141.103 31.346H140.781V30.9698H141.103Z" fill="white"/>
</svg>
