<svg width="166" height="66" viewBox="0 0 166 66" fill="none" xmlns="http://www.w3.org/2000/svg">
<g clip-path="url(#clip0_13581_215744)">
<path d="M91.5118 33.0318V23.2521C91.5118 22.9928 91.3049 22.7807 91.0521 22.7807C90.7993 22.7807 90.5925 22.9928 90.5925 23.2521V28.79C90.5925 31.1348 88.7423 33.0318 86.4554 33.0318C84.1685 33.0318 82.3184 31.1348 82.3184 28.79V23.2521C82.3184 22.9928 82.1115 22.7807 81.8587 22.7807C81.6059 22.7807 81.399 22.9928 81.399 23.2521V33.0318H77.7216V23.2521C77.7216 20.9073 79.5718 19.0102 81.8587 19.0102C84.1456 19.0102 85.9957 20.9073 85.9957 23.2521V28.79C85.9957 29.0492 86.2026 29.2613 86.4554 29.2613C86.7082 29.2613 86.9151 29.0492 86.9151 28.79V23.2521C86.9151 20.9073 88.7653 19.0102 91.0521 19.0102C93.339 19.0102 95.1892 20.9073 95.1892 23.2521V33.0318H91.5118ZM75.7106 21.0722C75.7106 19.9411 74.8027 19.0102 73.6995 19.0102C72.5963 19.0102 71.6884 19.9411 71.6884 21.0722C71.6884 22.2034 72.5963 23.1342 73.6995 23.1342C74.8027 23.1342 75.7106 22.2034 75.7106 21.0722ZM75.5382 33.0318V24.3125H71.8608V33.0318H75.5382ZM101.05 46.3465V20.8955C101.05 16.5476 97.591 13.001 93.3505 13.001H73.6995C69.459 13.001 66 16.5476 66 20.8955V46.3465C66 50.6943 69.459 54.241 73.6995 54.241H84.7316V50.4705H73.6995C71.4816 50.4705 69.6774 48.6206 69.6774 46.3465V20.8955C69.6774 18.6214 71.4816 16.7715 73.6995 16.7715H93.3505C95.5684 16.7715 97.3726 18.6214 97.3726 20.8955V46.3465C97.3726 48.6206 95.5684 50.4705 93.3505 50.4705C91.1326 50.4705 89.3284 48.6206 89.3284 46.3465V38.4519C89.3284 36.1072 87.4782 34.2101 85.1913 34.2101C82.9044 34.2101 81.0543 36.1072 81.0543 38.4519V43.9899C81.0543 44.2491 80.8474 44.4612 80.5946 44.4612C80.3418 44.4612 80.1349 44.2491 80.1349 43.9899V38.4519C80.1349 36.1072 78.2847 34.2101 75.9979 34.2101C73.711 34.2101 71.8608 36.1072 71.8608 38.4519V48.2317H75.5382V38.4519C75.5382 38.1927 75.745 37.9806 75.9979 37.9806C76.2507 37.9806 76.4575 38.1927 76.4575 38.4519V43.9899C76.4575 46.3347 78.3077 48.2317 80.5946 48.2317C82.8815 48.2317 84.7316 46.3347 84.7316 43.9899V38.4519C84.7316 38.1927 84.9385 37.9806 85.1913 37.9806C85.4441 37.9806 85.651 38.1927 85.651 38.4519V46.3465C85.651 50.6943 89.11 54.241 93.3505 54.241C97.591 54.241 101.05 50.6943 101.05 46.3465ZM95.3616 36.2721C95.3616 35.141 94.4537 34.2101 93.3505 34.2101C92.2473 34.2101 91.3394 35.141 91.3394 36.2721C91.3394 37.4033 92.2473 38.3341 93.3505 38.3341C94.4537 38.3341 95.3616 37.4033 95.3616 36.2721ZM95.1892 48.2317V39.5124H91.5118V48.2317H95.1892Z" fill="white"/>
</g>
<defs>
<clipPath id="clip0_13581_215744">
<rect width="34.7858" height="39.9181" fill="white" transform="translate(66 13)"/>
</clipPath>
</defs>
</svg>
