<svg width="166" height="66" viewBox="0 0 166 66" fill="none" xmlns="http://www.w3.org/2000/svg">
<path fill-rule="evenodd" clip-rule="evenodd" d="M128.32 28.6675H133.227C134.376 28.6675 135.309 29.601 135.309 30.7499V35.6568C135.309 36.8058 134.376 37.7393 133.227 37.7393H128.32C127.171 37.7393 126.237 36.8058 126.237 35.6568V30.7499C126.237 29.601 127.171 28.6675 128.32 28.6675ZM133.227 29.6967H128.32C127.745 29.6967 127.267 30.1755 127.267 30.7499V35.6568C127.267 36.2313 127.745 36.71 128.32 36.71H133.227C133.801 36.71 134.28 36.2313 134.28 35.6568V30.7499C134.28 30.1755 133.801 29.6967 133.227 29.6967Z" fill="white"/>
<path d="M122.599 32.7604H123.149C123.437 32.7604 123.676 32.5211 123.676 32.2338V27.6381C123.676 26.8003 124.37 26.1062 125.208 26.1062H129.828C130.139 26.1062 130.378 25.8668 130.378 25.5796V25.029C130.378 24.7418 130.139 24.4785 129.828 24.4785H125.208C123.484 24.4785 122.072 25.8908 122.072 27.6381V32.2338C122.072 32.5211 122.312 32.7604 122.599 32.7604Z" fill="white"/>
<path d="M136.341 24.4785H131.721C131.434 24.4785 131.171 24.7418 131.171 25.029V25.5796C131.171 25.8668 131.434 26.1062 131.721 26.1062H136.341C137.179 26.1062 137.873 26.8003 137.873 27.6381V32.2338C137.873 32.5211 138.112 32.7604 138.4 32.7604H138.95C139.237 32.7604 139.501 32.5211 139.501 32.2338V27.6381C139.501 25.8908 138.088 24.4785 136.341 24.4785Z" fill="white"/>
<path d="M138.95 33.5742H138.4C138.112 33.5742 137.873 33.8136 137.873 34.1247V38.7684C137.873 39.6061 137.179 40.3003 136.341 40.3003H131.721C131.434 40.3003 131.171 40.5396 131.171 40.8269V41.3774C131.171 41.6646 131.434 41.904 131.721 41.904H136.341C138.088 41.904 139.501 40.4918 139.501 38.7684V34.1247C139.501 33.8136 139.237 33.5742 138.95 33.5742Z" fill="white"/>
<path d="M129.828 40.3003H125.208C124.37 40.3003 123.676 39.6061 123.676 38.7684V34.1247C123.676 33.8136 123.437 33.5742 123.149 33.5742H122.599C122.312 33.5742 122.072 33.8136 122.072 34.1247V38.7684C122.072 40.4918 123.484 41.904 125.208 41.904H129.828C130.139 41.904 130.378 41.6646 130.378 41.3774V40.8269C130.378 40.5396 130.139 40.3003 129.828 40.3003Z" fill="white"/>
<path d="M29.1303 24.1201H28.3165C27.5984 24.1201 27 24.6946 27 25.4127V40.5882C27 41.3063 27.5984 41.8808 28.3165 41.8808H29.1303C29.8484 41.8808 30.4229 41.3063 30.4229 40.5882V25.4127C30.4229 24.6946 29.8484 24.1201 29.1303 24.1201Z" fill="white"/>
<path d="M73.1499 24.1201H72.3121C71.594 24.1201 71.0195 24.6946 71.0195 25.4127V40.5882C71.0195 41.3063 71.594 41.8808 72.3121 41.8808H73.1499C73.8679 41.8808 74.4424 41.3063 74.4424 40.5882V25.4127C74.4424 24.6946 73.8679 24.1201 73.1499 24.1201Z" fill="white"/>
<path d="M98.1635 24.1201H97.3258C96.6316 24.1201 96.0332 24.6946 96.0332 25.4127V40.5882C96.0332 41.3063 96.6316 41.8808 97.3258 41.8808H98.1635C98.8816 41.8808 99.4561 41.3063 99.4561 40.5882V25.4127C99.4561 24.6946 98.8816 24.1201 98.1635 24.1201Z" fill="white"/>
<path d="M42.8938 24.1201H33.4869C32.7688 24.1201 32.1943 24.6946 32.1943 25.4127V40.5882C32.1943 41.3063 32.7688 41.8808 33.4869 41.8808H34.3007C35.0188 41.8808 35.6172 41.3063 35.6172 40.5882V27.543H42.8938C44.8087 27.543 46.3645 29.0988 46.3645 31.0137V40.5882C46.3645 41.2823 46.939 41.8808 47.6571 41.8808H48.4949C49.189 41.8808 49.7874 41.2823 49.7874 40.5882V31.0137C49.7874 27.2079 46.6757 24.1201 42.8938 24.1201Z" fill="white"/>
<path d="M67.9808 38.4579H54.9356V31.0137C54.9356 29.0988 56.4914 27.543 58.4063 27.543H67.9808C68.6989 27.543 69.2733 26.9446 69.2733 26.2265V25.4127C69.2733 24.6946 68.6989 24.1201 67.9808 24.1201H58.4063C54.6005 24.1201 51.5127 27.2079 51.5127 31.0137V40.5882C51.5127 41.3063 52.0872 41.8808 52.8052 41.8808H67.9808C68.6989 41.8808 69.2973 41.3063 69.2973 40.5882V39.7744C69.2973 39.0563 68.6989 38.4579 67.9808 38.4579Z" fill="white"/>
<path fill-rule="evenodd" clip-rule="evenodd" d="M94.2847 25.4127V31.3249C94.2847 34.5563 91.6517 37.1893 88.4204 37.1893H79.5879V40.5882C79.5879 41.3063 79.0134 41.8808 78.2954 41.8808H77.4576C76.7634 41.8808 76.165 41.3063 76.165 40.5882V25.4127C76.165 24.6946 76.7634 24.1201 77.4576 24.1201H92.9682C93.6863 24.1201 94.2847 24.6946 94.2847 25.4127ZM90.8618 27.543H79.5879V33.7664H88.4204C89.7608 33.7664 90.8618 32.6653 90.8618 31.3249V27.543Z" fill="white"/>
<path fill-rule="evenodd" clip-rule="evenodd" d="M118.845 26.2266C118.845 26.3224 118.845 26.5139 118.917 26.6096H118.534C118.486 26.5139 118.51 26.3463 118.486 26.2027C118.462 26.0351 118.39 25.9633 118.199 25.9633H117.84V26.6096H117.48V24.9341H118.366C118.677 24.9341 118.869 25.1495 118.869 25.4128C118.869 25.6043 118.773 25.7479 118.605 25.8197C118.773 25.8676 118.821 26.0591 118.845 26.2266ZM118.486 25.4607C118.486 25.2931 118.414 25.2213 118.246 25.2213H117.84V25.7H118.246C118.414 25.7 118.486 25.6282 118.486 25.4607Z" fill="white"/>
<path fill-rule="evenodd" clip-rule="evenodd" d="M119.847 25.7712C119.847 26.7047 119.105 27.4468 118.195 27.4468C117.262 27.4468 116.52 26.7047 116.52 25.7712C116.52 24.8617 117.262 24.0957 118.195 24.0957C119.105 24.0957 119.847 24.8617 119.847 25.7712ZM119.488 25.7712C119.488 25.0531 118.913 24.4547 118.195 24.4547C117.453 24.4547 116.879 25.0531 116.879 25.7712C116.879 26.4893 117.453 27.0877 118.195 27.0877C118.913 27.0877 119.488 26.4893 119.488 25.7712Z" fill="white"/>
<path fill-rule="evenodd" clip-rule="evenodd" d="M117.191 30.2234V35.7766C117.191 38.984 114.702 41.617 111.566 41.8564C110.8 41.9362 110.002 41.984 109.172 42C108.335 42 107.545 41.9521 106.779 41.8564C103.643 41.617 101.178 38.984 101.178 35.7766V30.2234C101.178 27.016 103.643 24.383 106.779 24.1436C107.545 24.0638 108.343 24.016 109.172 24C110.002 24.016 110.8 24.0638 111.566 24.1436C114.702 24.383 117.191 27.016 117.191 30.2234ZM113.768 30.2234C113.768 28.7872 112.643 27.6144 111.231 27.5425C110.561 27.4787 109.875 27.4468 109.172 27.4468C108.47 27.4468 107.792 27.4787 107.138 27.5425C105.726 27.6144 104.601 28.7872 104.601 30.2234V35.7766C104.601 37.2128 105.726 38.3856 107.138 38.4574C107.792 38.5213 108.47 38.5532 109.172 38.5532C109.875 38.5532 110.561 38.5213 111.231 38.4574C112.643 38.3856 113.768 37.2128 113.768 35.7766V30.2234Z" fill="white"/>
</svg>
