<svg width="166" height="66" viewBox="0 0 166 66" fill="none" xmlns="http://www.w3.org/2000/svg">
<path d="M86.5504 29.0005C87.7566 29.0005 88.8398 29.2516 89.8005 29.7537C90.7617 30.256 91.5126 30.9925 92.0542 31.9634C92.5963 32.9175 92.8671 34.0725 92.8671 35.4284V41.6053C92.8671 41.9735 92.736 42.2832 92.4742 42.5343C92.2292 42.7686 91.915 42.8858 91.5307 42.8858C91.1459 42.8858 90.8227 42.7686 90.5605 42.5343C90.3159 42.2832 90.1934 41.9735 90.1934 41.6053V35.4284C90.1934 34.0725 89.8091 33.0515 89.0406 32.3651C88.2892 31.662 87.2846 31.3105 86.0265 31.3105C85.2927 31.3105 84.62 31.4528 84.0083 31.7374C83.4143 32.0219 82.9428 32.4069 82.5933 32.8924C82.2615 33.3778 82.0956 33.9219 82.0956 34.5245V41.6053C82.0956 41.9735 81.973 42.2832 81.7285 42.5343C81.4839 42.7686 81.1606 42.8858 80.7582 42.8858C80.374 42.8858 80.0507 42.7686 79.789 42.5343C79.5444 42.2832 79.4219 41.9735 79.4219 41.6053V24.531C79.4219 24.146 79.5444 23.8364 79.789 23.602C80.0507 23.3677 80.374 23.2505 80.7582 23.2505C81.1606 23.2505 81.4839 23.3677 81.7285 23.602C81.973 23.8364 82.0956 24.146 82.0956 24.531V30.6828C82.6543 30.1471 83.3185 29.737 84.087 29.4524C84.8555 29.1511 85.677 29.0005 86.5504 29.0005Z" fill="white"/>
<path d="M97.1648 30.3446C97.1648 29.9568 97.2878 29.645 97.5329 29.409C97.7955 29.1729 98.1198 29.055 98.5055 29.055C98.9083 29.055 99.2325 29.1729 99.478 29.409C99.7236 29.645 99.8461 29.9568 99.8461 30.3446V41.5968C99.8461 41.9677 99.7236 42.2795 99.478 42.5323C99.2325 42.7683 98.9083 42.8864 98.5055 42.8864C98.1198 42.8864 97.7955 42.7683 97.5329 42.5323C97.2878 42.2795 97.1648 41.9677 97.1648 41.5968V30.3446ZM98.5055 23.4668C98.9789 23.4668 99.3813 23.6354 99.7145 23.9725C100.065 24.2928 100.24 24.6805 100.24 25.1357C100.24 25.5908 100.065 25.987 99.7145 26.3241C99.3813 26.6444 98.9789 26.8045 98.5055 26.8045C98.0325 26.8045 97.6206 26.6444 97.2702 26.3241C96.9369 25.987 96.7705 25.5908 96.7705 25.1357C96.7705 24.6805 96.9369 24.2928 97.2702 23.9725C97.6206 23.6354 98.0325 23.4668 98.5055 23.4668Z" fill="white"/>
<path d="M110.412 40.3727C110.72 40.3727 110.977 40.49 111.183 40.7247C111.406 40.9593 111.517 41.261 111.517 41.6296C111.517 41.9984 111.371 42.3001 111.08 42.5347C110.806 42.7692 110.446 42.8867 110.001 42.8867H109.538C108.699 42.8867 107.928 42.6771 107.225 42.2582C106.54 41.8224 106.001 41.2358 105.607 40.4984C105.213 39.7611 105.016 38.9314 105.016 38.0098V31.8005H103.834C103.474 31.8005 103.182 31.7 102.96 31.4988C102.737 31.2977 102.626 31.0464 102.626 30.7447C102.626 30.4095 102.737 30.1414 102.96 29.9403C103.182 29.7391 103.474 29.6386 103.834 29.6386H105.016V26.0186C105.016 25.6499 105.136 25.3483 105.375 25.1136C105.615 24.8791 105.923 24.7617 106.3 24.7617C106.678 24.7617 106.985 24.8791 107.225 25.1136C107.465 25.3483 107.585 25.6499 107.585 26.0186V29.6386H109.769C110.129 29.6386 110.421 29.7391 110.643 29.9403C110.866 30.1414 110.977 30.4095 110.977 30.7447C110.977 31.0464 110.866 31.2977 110.643 31.4988C110.421 31.7 110.129 31.8005 109.769 31.8005H107.585V38.0098C107.585 38.6801 107.774 39.2415 108.151 39.694C108.527 40.1466 108.99 40.3727 109.538 40.3727H110.412Z" fill="white"/>
<path d="M120.925 29.0767C122.963 29.0767 124.656 29.8231 126.004 31.316C126.177 31.4985 126.263 31.7141 126.263 31.963C126.263 32.3279 126.073 32.6347 125.693 32.8835C125.52 32.9996 125.322 33.0577 125.097 33.0577C124.7 33.0577 124.363 32.9084 124.086 32.6098C123.654 32.1619 123.18 31.8385 122.661 31.6395C122.16 31.4238 121.582 31.316 120.925 31.316C119.594 31.316 118.515 31.7473 117.685 32.6098C116.856 33.4559 116.442 34.5837 116.442 35.9938C116.442 36.8896 116.632 37.6941 117.012 38.4074C117.409 39.104 117.953 39.6515 118.645 40.0496C119.353 40.4476 120.156 40.6467 121.054 40.6467C122.229 40.6467 123.18 40.3564 123.905 39.7759C124.233 39.5436 124.553 39.4275 124.864 39.4275C125.106 39.4275 125.33 39.5022 125.537 39.6515C125.866 39.9168 126.03 40.2155 126.03 40.5472C126.03 40.796 125.926 41.0199 125.719 41.219C124.475 42.3305 122.92 42.886 121.054 42.886C119.689 42.886 118.463 42.5875 117.375 41.9903C116.286 41.3932 115.431 40.5721 114.809 39.5271C114.205 38.4654 113.902 37.2876 113.902 35.9938C113.902 34.6667 114.196 33.4807 114.783 32.4356C115.388 31.374 116.226 30.553 117.297 29.9724C118.368 29.3752 119.578 29.0767 120.925 29.0767Z" fill="white"/>
<path d="M136.964 29.0005C138.15 29.0005 139.216 29.2516 140.162 29.7537C141.107 30.256 141.846 30.9925 142.379 31.9634C142.912 32.9175 143.178 34.0725 143.178 35.4284V41.6053C143.178 41.9735 143.05 42.2832 142.792 42.5343C142.551 42.7686 142.242 42.8858 141.864 42.8858C141.485 42.8858 141.167 42.7686 140.909 42.5343C140.668 42.2832 140.548 41.9735 140.548 41.6053V35.4284C140.548 34.0725 140.17 33.0515 139.414 32.3651C138.674 31.662 137.686 31.3105 136.448 31.3105C135.726 31.3105 135.064 31.4528 134.463 31.7374C133.878 32.0219 133.414 32.4069 133.071 32.8924C132.744 33.3778 132.58 33.9219 132.58 34.5245V41.6053C132.58 41.9735 132.46 42.2832 132.22 42.5343C131.979 42.7686 131.661 42.8858 131.265 42.8858C130.887 42.8858 130.569 42.7686 130.312 42.5343C130.07 42.2832 129.95 41.9735 129.95 41.6053V24.531C129.95 24.146 130.07 23.8364 130.312 23.602C130.569 23.3677 130.887 23.2505 131.265 23.2505C131.661 23.2505 131.979 23.3677 132.22 23.602C132.46 23.8364 132.58 24.146 132.58 24.531V30.6828C133.131 30.1471 133.784 29.737 134.54 29.4524C135.296 29.1511 136.104 29.0005 136.964 29.0005Z" fill="white"/>
<mask id="mask0_13581_216001" style="mask-type:luminance" maskUnits="userSpaceOnUse" x="22" y="18" width="45" height="30">
<path d="M66.3332 18.9355H22.8223V47.0646H66.3332V18.9355Z" fill="white"/>
</mask>
<g mask="url(#mask0_13581_216001)">
<path d="M49.2744 19.9769C50.7068 18.5884 53.0291 18.5884 54.4612 19.9769L54.7723 20.2786L47.5111 27.3182C47.5075 27.3217 47.5036 27.3255 47.4999 27.3289C47.4028 27.4218 47.2987 27.5031 47.189 27.5734C46.3916 28.0837 45.3084 27.9986 44.6064 27.3182C44.5062 27.2211 44.4184 27.1163 44.3433 27.0059C43.817 26.2331 43.9045 25.1828 44.6064 24.5024L49.2744 19.9769Z" fill="white"/>
<path d="M56.2242 21.6865L59.1288 24.5024L51.8675 31.542C51.0655 32.3195 49.7649 32.3195 48.9629 31.542C48.8626 31.4448 48.7749 31.34 48.6997 31.2297C48.176 30.4606 48.2602 29.417 48.9522 28.7364L48.9537 28.7351C48.9568 28.732 48.9599 28.7291 48.9629 28.7261L56.2242 21.6865Z" fill="white"/>
<path d="M63.4852 28.726L60.5807 25.9102L53.3194 32.9498C52.5172 33.7274 52.5172 34.9881 53.3194 35.7657C53.4196 35.8628 53.5276 35.9479 53.6415 36.0208C54.4365 36.5297 55.5162 36.4465 56.218 35.7713C56.22 35.7694 56.2222 35.7676 56.224 35.7657L63.4852 28.726Z" fill="white"/>
<path d="M64.9389 30.1343L65.1868 30.3747C66.6542 31.7971 66.6542 34.1032 65.1868 35.5256L60.5821 39.9898C60.3695 40.1961 60.1216 40.3476 59.8573 40.4444C59.8102 40.4617 59.7628 40.4772 59.7147 40.4909C59.0163 40.6913 58.2301 40.5247 57.6787 39.9909L57.6776 39.9898C56.8767 39.2133 56.8758 37.9549 57.6745 37.177L64.9389 30.1343Z" fill="white"/>
<path d="M43.1541 28.7263C42.4101 28.0051 42.0111 27.0761 41.9572 26.132L39.7653 28.2569C38.1612 29.8121 35.5605 29.8121 33.9562 28.2569L32.9882 27.3184C30.582 24.9856 26.6808 24.9856 24.2746 27.3184L22.8223 28.7263L24.2687 30.1286L24.2746 30.1343L37.3447 42.8055C42.9592 48.2485 52.062 48.2485 57.6767 42.8055L58.065 42.4288C57.3907 42.2543 56.7535 41.9105 56.2244 41.3975C55.357 40.5566 54.9587 39.433 55.0295 38.3325C53.894 38.4011 52.735 38.0149 51.8677 37.1739C51 36.3329 50.6017 35.2093 50.6725 34.1086C49.5373 34.1773 48.3782 33.7911 47.5109 32.9501C46.6433 32.1091 46.2449 30.9855 46.3158 29.885C45.1805 29.9535 44.0215 29.5673 43.1541 28.7263Z" fill="white"/>
</g>
</svg>
