<svg width="166" height="66" viewBox="0 0 166 66" fill="none" xmlns="http://www.w3.org/2000/svg">
<g clip-path="url(#clip0_13581_215981)">
<path d="M47.1667 26.9602L43.5377 28.7794C42.0967 26.2169 39.9863 24.3654 37.1141 23.6836C29.9288 21.9789 23.5543 27.6869 25.3157 35.1601C27.3092 43.6213 39.5474 44.4832 43.4478 37.1659L46.8054 38.9884C46.9297 39.1842 45.9153 40.5654 45.7282 40.8059C39.267 49.1054 23.5731 46.7039 21.3123 35.7391C19.6989 27.91 24.4844 20.9876 32.2615 19.9216C38.0827 19.1236 44.4956 21.3858 47.1667 26.9594V26.9602Z" fill="white"/>
<path d="M93.1669 27.2345C99.3273 26.707 103.661 30.9649 103.528 37.169L103.43 37.2354L88.6421 37.3274C89.1292 42.9766 96.8859 44.1727 99.7613 39.7455L103.039 41.393C103.148 41.5647 102.517 42.3138 102.38 42.4739C99.861 45.4237 95.5454 46.259 91.9066 45.3872C82.0722 43.0313 82.8201 28.1213 93.1678 27.2345H93.1669ZM99.4769 34.4266C98.4536 28.9243 89.9825 29.0811 88.8513 34.4266H99.4769Z" fill="white"/>
<path d="M141.095 39.8347C141.203 39.7708 141.361 39.8388 141.467 39.8844L144.594 41.4365C140.299 48.0595 128.481 46.9371 126.669 38.7256C125.554 33.6671 127.956 28.8176 133.019 27.531C138.517 26.1341 143.81 29.0391 144.801 34.8409C144.859 35.1826 145.127 37.0698 144.927 37.2117L130.065 37.3685C130.427 39.8994 132.032 41.789 134.539 42.2693C136.869 42.7156 139.038 42.2254 140.674 40.4435C140.783 40.3241 141.064 39.8537 141.095 39.8347ZM140.916 34.4269C139.901 28.9213 131.421 29.0864 130.291 34.4269H140.916Z" fill="white"/>
<path d="M65.7733 30.0592C68.0521 32.4349 68.746 36.1919 67.8224 39.3391C64.9592 49.0928 47.8145 47.6502 48.7202 35.4644C49.3315 27.2462 60.5096 24.5726 65.7733 30.0592ZM57.693 30.5519C53.4273 30.9741 51.0169 35.6203 53.1485 39.4287C55.6782 43.9488 63.0164 43.2031 64.3242 38.1106C65.4488 33.7298 62.0168 30.1239 57.693 30.5511V30.5519Z" fill="white"/>
<path d="M76.2644 21.7349V27.7075H83.2119V30.9427H76.1827V39.1135C76.1827 39.3242 76.3846 40.0833 76.4704 40.3147C77.1774 42.2077 79.6049 42.3852 81.2674 41.8692C81.511 41.7938 82.4657 41.2728 82.5482 41.3218L84.4363 44.3338C81.0345 46.5702 75.1022 46.2674 73.0915 42.2508C72.7923 41.6527 72.3412 40.26 72.3412 39.6113V31.0256H68.7857L68.6631 30.9012V27.7075H72.3003C72.3003 27.7075 72.3371 23.3267 72.3371 22.0211C72.3371 21.8991 72.3469 21.8079 72.4638 21.7349H76.2644Z" fill="white"/>
<path d="M109.939 27.7075V30.2791L110.799 29.452C111.68 28.6913 113.822 27.7075 114.966 27.7075H116.805V31.6063C114.219 31.4786 111.068 32.3935 110.207 35.1551C110.141 35.3674 109.939 36.2932 109.939 36.2932V45.2106H106.261V27.7075H109.939Z" fill="white"/>
<path d="M123.425 27.7075H119.747V45.2106H123.425V27.7075Z" fill="white"/>
<path d="M121.364 20.0989C124.655 19.7737 124.979 24.702 121.748 24.8861C118.559 25.0686 118.209 20.41 121.364 20.0989Z" fill="white"/>
</g>
<defs>
<clipPath id="clip0_13581_215981">
<rect width="124" height="26" fill="white" transform="translate(21 19.7666)"/>
</clipPath>
</defs>
</svg>
