<svg width="166" height="66" viewBox="0 0 166 66" fill="none" xmlns="http://www.w3.org/2000/svg">
<g clip-path="url(#clip0_13581_216436)">
<path d="M54.0837 50.9259C44.2005 50.9259 36.1611 42.8865 36.1611 33.005C36.1611 23.1234 44.2005 15.084 54.0837 15.084C63.9668 15.084 72.0047 23.1234 72.0047 33.005C72.0047 42.8865 63.9653 50.9259 54.0837 50.9259ZM54.0837 16.0692C44.7454 16.0692 37.1479 23.6667 37.1479 33.005C37.1479 42.3432 44.7438 49.9408 54.0837 49.9408C63.4235 49.9408 71.0195 42.3432 71.0195 33.005C71.0195 23.6667 63.4212 16.0692 54.0837 16.0692Z" fill="white"/>
<path d="M45.9032 36.9987C45.7618 36.9987 45.6262 36.9425 45.5263 36.8425C45.4263 36.7426 45.3701 36.607 45.3701 36.4656V28.7132C45.3754 28.5755 45.4338 28.4451 45.5332 28.3495C45.6325 28.254 45.765 28.2006 45.9028 28.2006C46.0406 28.2006 46.1731 28.254 46.2724 28.3495C46.3718 28.4451 46.4302 28.5755 46.4355 28.7132V36.4648C46.4356 36.5348 46.4219 36.6042 46.3952 36.6689C46.3685 36.7336 46.3293 36.7924 46.2799 36.842C46.2305 36.8916 46.1718 36.9309 46.1071 36.9578C46.0425 36.9847 45.9732 36.9986 45.9032 36.9987ZM49.9956 39.116C49.8542 39.116 49.7187 39.0599 49.6187 38.9599C49.5187 38.8599 49.4625 38.7244 49.4625 38.583V30.8306C49.4678 30.6928 49.5263 30.5625 49.6256 30.4669C49.7249 30.3713 49.8574 30.3179 49.9952 30.3179C50.1331 30.3179 50.2655 30.3713 50.3649 30.4669C50.4642 30.5625 50.5226 30.6928 50.5279 30.8306V38.583C50.5279 38.7242 50.4719 38.8597 50.3721 38.9596C50.2723 39.0596 50.1369 39.1158 49.9956 39.116ZM54.0841 41.2515C53.9427 41.2515 53.8071 41.1953 53.7072 41.0954C53.6072 40.9954 53.551 40.8598 53.551 40.7184V32.966C53.5483 32.8943 53.56 32.8228 53.5856 32.7558C53.6111 32.6888 53.6499 32.6276 53.6996 32.5759C53.7493 32.5242 53.809 32.4831 53.875 32.455C53.941 32.4269 54.012 32.4125 54.0837 32.4125C54.1555 32.4125 54.2264 32.4269 54.2924 32.455C54.3584 32.4831 54.4181 32.5242 54.4678 32.5759C54.5176 32.6276 54.5564 32.6888 54.5819 32.7558C54.6074 32.8228 54.6192 32.8943 54.6164 32.966V40.7184C54.6164 40.8597 54.5604 40.9951 54.4606 41.0951C54.3608 41.195 54.2254 41.2513 54.0841 41.2515ZM58.1726 39.1302C58.0312 39.1302 57.8956 39.074 57.7957 38.9741C57.6957 38.8741 57.6395 38.7385 57.6395 38.5971V30.8447C57.6448 30.707 57.7033 30.5766 57.8026 30.4811C57.9019 30.3855 58.0344 30.3321 58.1722 30.3321C58.3101 30.3321 58.4425 30.3855 58.5419 30.4811C58.6412 30.5766 58.6996 30.707 58.7049 30.8447V38.5971C58.7049 38.7384 58.6488 38.8738 58.549 38.9738C58.4492 39.0737 58.3139 39.13 58.1726 39.1302ZM62.2611 36.9987C62.1197 36.9987 61.9841 36.9425 61.8842 36.8425C61.7842 36.7426 61.728 36.607 61.728 36.4656V28.7132C61.7253 28.6415 61.737 28.57 61.7625 28.503C61.7881 28.436 61.8269 28.3748 61.8766 28.3231C61.9263 28.2714 61.986 28.2303 62.052 28.2022C62.118 28.1741 62.189 28.1596 62.2607 28.1596C62.3324 28.1596 62.4034 28.1741 62.4694 28.2022C62.5354 28.2303 62.5951 28.2714 62.6448 28.3231C62.6946 28.3748 62.7334 28.436 62.7589 28.503C62.7844 28.57 62.7962 28.6415 62.7934 28.7132V36.4648C62.7935 36.5348 62.7798 36.6042 62.7531 36.6689C62.7264 36.7336 62.6873 36.7924 62.6378 36.842C62.5884 36.8916 62.5297 36.9309 62.4651 36.9578C62.4004 36.9847 62.3311 36.9986 62.2611 36.9987ZM80.7851 25.5029L84.9625 37.2243L89.2035 25.5029H91.9554L86.1772 40.7192H83.7053L77.9075 25.5029H80.7851ZM96.8561 41.0597C95.1227 41.0597 93.78 40.5481 92.8281 39.5249C91.8762 38.5017 91.4003 37.0527 91.4003 35.1777C91.3897 34.3599 91.5151 33.5461 91.7714 32.7694C91.997 32.0835 92.3631 31.4521 92.8462 30.9155C93.3281 30.3953 93.9187 29.9878 94.576 29.7219C95.2574 29.4378 96.0316 29.2958 96.8985 29.2958C97.7791 29.2958 98.5607 29.4415 99.2431 29.733C99.8962 30.0038 100.482 30.4147 100.959 30.9367C101.433 31.4706 101.789 32.099 102.003 32.7805C102.244 33.5431 102.363 34.3393 102.354 35.1392C102.354 36.1058 102.219 36.9546 101.949 37.6859C101.704 38.3773 101.316 39.0091 100.809 39.5398C100.321 40.0429 99.7282 40.4321 99.0725 40.6799C98.3633 40.9416 97.6119 41.0703 96.8561 41.0597ZM96.8773 39.0988C97.9005 39.0988 98.65 38.747 99.126 38.0436C99.6019 37.3402 99.8399 36.3775 99.8399 35.1557C99.8399 33.9501 99.6019 32.9982 99.126 32.3001C98.65 31.6019 97.9005 31.2538 96.8773 31.2559C95.8547 31.2559 95.1051 31.6076 94.6286 32.3111C94.1522 33.0145 93.9142 33.963 93.9147 35.1565C93.9147 36.3621 94.1456 37.321 94.6074 38.0334C95.0692 38.7457 95.8253 39.1011 96.8757 39.0995L96.8773 39.0988ZM114.311 36.8406C114.169 38.1621 113.697 39.1957 112.896 39.9416C112.094 40.6875 110.947 41.0604 109.454 41.0604C108.559 41.0604 107.781 40.9218 107.121 40.6445C106.485 40.3863 105.92 39.9823 105.469 39.4651C105.012 38.9272 104.676 38.2974 104.483 37.6182C104.261 36.8388 104.153 36.0313 104.163 35.221C104.154 34.4006 104.276 33.5841 104.525 32.8025C104.745 32.1108 105.105 31.4721 105.583 30.9265C106.051 30.4037 106.63 29.9924 107.278 29.7227C107.946 29.4386 108.706 29.2966 109.558 29.2966C110.339 29.2966 111 29.3996 111.54 29.6056C112.023 29.7765 112.466 30.0455 112.84 30.3956C113.214 30.7458 113.512 31.1696 113.714 31.6404C113.913 32.0973 114.057 32.5768 114.14 33.0682L111.732 33.4307C111.618 32.8059 111.401 32.2872 111.082 31.8747C110.762 31.4622 110.226 31.2562 109.473 31.2567C108.933 31.2567 108.485 31.3704 108.13 31.5979C107.78 31.8205 107.487 32.1238 107.278 32.4825C107.056 32.8692 106.901 33.2908 106.819 33.7295C106.727 34.1998 106.681 34.678 106.681 35.1573C106.678 35.6797 106.728 36.201 106.83 36.7133C106.914 37.1532 107.074 37.5752 107.302 37.9603C107.511 38.3049 107.805 38.5908 108.154 38.7913C108.509 38.9973 108.943 39.1003 109.454 39.1003C110.193 39.1003 110.754 38.9051 111.138 38.5146C111.521 38.1241 111.763 37.5664 111.862 36.8414L114.311 36.8406ZM123.28 39.2702C122.859 39.7748 122.346 40.1943 121.768 40.5061C121.171 40.8327 120.446 40.996 119.594 40.996C119.096 41 118.601 40.9319 118.123 40.7939C117.694 40.6711 117.293 40.4645 116.944 40.1861C116.605 39.9078 116.335 39.5537 116.158 39.1522C115.956 38.685 115.858 38.1797 115.87 37.6709C115.87 36.9035 116.04 36.2819 116.381 35.8059C116.725 35.3277 117.183 34.9431 117.713 34.6871C118.295 34.4064 118.917 34.216 119.557 34.1226C120.234 34.0168 120.916 33.9493 121.601 33.9205L123.242 33.8356V33.3638C123.242 32.5252 123.039 31.9462 122.635 31.627C122.23 31.3078 121.701 31.1479 121.047 31.1474C120.294 31.1474 119.736 31.2753 119.374 31.5311C119.012 31.7869 118.774 32.1564 118.66 32.6397L116.444 32.4038C116.643 31.3246 117.133 30.536 117.914 30.038C118.696 29.5401 119.768 29.2913 121.132 29.2919C122.013 29.2919 122.741 29.4056 123.317 29.6331C123.845 29.8296 124.316 30.1531 124.689 30.575C125.036 30.9838 125.28 31.4688 125.403 31.9903C125.543 32.5801 125.611 33.1847 125.605 33.7908V40.7169H123.283L123.28 39.2702ZM121.682 35.541C121.09 35.5658 120.501 35.6447 119.924 35.7768C119.476 35.8906 119.132 36.0363 118.89 36.214C118.669 36.3644 118.501 36.5807 118.41 36.832C118.331 37.0761 118.291 37.3316 118.293 37.5884C118.293 38.0716 118.446 38.4483 118.752 38.7182C119.057 38.9882 119.508 39.1231 120.105 39.1231C121.17 39.1231 121.959 38.8532 122.471 38.3133C122.982 37.7734 123.238 37.0417 123.238 36.1181V35.4789L121.682 35.541ZM130.717 25.5029V40.7192H128.288V25.5029H130.717Z" fill="white"/>
</g>
<defs>
<clipPath id="clip0_13581_216436">
<rect width="94.9711" height="36" fill="white" transform="translate(36 15)"/>
</clipPath>
</defs>
</svg>
