<svg width="455" height="121" viewBox="0 0 455 121" fill="none" xmlns="http://www.w3.org/2000/svg">
<g clip-path="url(#clip0_1020_16616)">
<mask id="mask0_1020_16616" style="mask-type:luminance" maskUnits="userSpaceOnUse" x="0" y="0" width="455" height="121">
<path d="M455 0.188477H0V120.811H455V0.188477Z" fill="white"/>
</mask>
<g mask="url(#mask0_1020_16616)">
<mask id="mask1_1020_16616" style="mask-type:luminance" maskUnits="userSpaceOnUse" x="105" y="-201" width="520" height="575">
<path d="M407.926 -200.161L624.192 -43.4894L322.04 373.596L105.773 216.925L407.926 -200.161Z" fill="white"/>
</mask>
<g mask="url(#mask1_1020_16616)">
<path d="M255.805 176.668C242.786 105.045 240.119 14.0491 400.647 -1.75252" stroke="url(#paint0_linear_1020_16616)" stroke-width="0.561036"/>
<path d="M324.25 176.669C311.232 105.046 308.564 14.0501 469.092 -1.75154" stroke="url(#paint1_linear_1020_16616)" stroke-width="0.561036"/>
<path d="M311.687 176.669C298.669 105.046 296.002 14.0501 456.529 -1.75154" stroke="url(#paint2_linear_1020_16616)" stroke-width="0.561036"/>
<path d="M272.164 176.668C259.146 105.045 256.478 14.0491 417.006 -1.75252" stroke="url(#paint3_linear_1020_16616)" stroke-width="0.561036"/>
<path d="M340.605 176.669C327.587 105.046 324.92 14.0501 485.447 -1.75154" stroke="url(#paint4_linear_1020_16616)" stroke-width="0.561036"/>
<path d="M285.336 176.669C272.318 105.046 269.65 14.0501 430.178 -1.75154" stroke="url(#paint5_linear_1020_16616)" stroke-width="0.561036"/>
<path d="M353.785 176.669C340.767 105.046 338.099 14.0501 498.627 -1.75154" stroke="url(#paint6_linear_1020_16616)" stroke-width="0.561036"/>
<path d="M298.512 176.669C285.493 105.046 282.826 14.0501 443.354 -1.75154" stroke="url(#paint7_linear_1020_16616)" stroke-width="0.561036"/>
<path d="M366.961 176.669C353.943 105.046 351.275 14.0501 511.803 -1.75154" stroke="url(#paint8_linear_1020_16616)" stroke-width="0.561036"/>
<path d="M380.137 176.669C367.118 105.046 364.451 14.0501 524.979 -1.75154" stroke="url(#paint9_linear_1020_16616)" stroke-width="0.561036"/>
<mask id="mask2_1020_16616" style="mask-type:luminance" maskUnits="userSpaceOnUse" x="450" y="-3" width="6" height="3">
<path d="M450.436 -1.14176C452.223 -1.34092 454.031 -1.53101 455.86 -1.71078Z" fill="black"/>
<path d="M450.436 -1.14176C452.223 -1.34092 454.031 -1.53101 455.86 -1.71078" stroke="url(#paint10_linear_1020_16616)" stroke-width="1.12207"/>
</mask>
<g mask="url(#mask2_1020_16616)">
</g>
</g>
<mask id="mask3_1020_16616" style="mask-type:luminance" maskUnits="userSpaceOnUse" x="-192" y="-501" width="1053" height="1166">
<path d="M421.777 664.242L860.671 346.291L247.479 -500.148L-191.415 -182.196L421.777 664.242Z" fill="white"/>
</mask>
<g mask="url(#mask3_1020_16616)">
<path d="M225.449 -7.90289C212.431 63.7194 209.763 154.716 370.291 170.517" stroke="url(#paint11_linear_1020_16616)" stroke-width="0.561036"/>
<path d="M241.809 -7.90289C228.79 63.7194 226.123 154.716 386.65 170.517" stroke="url(#paint12_linear_1020_16616)" stroke-width="0.561036"/>
<path d="M310.25 -7.90387C297.232 63.7184 294.564 154.715 455.092 170.516" stroke="url(#paint13_linear_1020_16616)" stroke-width="0.561036"/>
<path d="M296.141 -7.90387C283.122 63.7184 280.455 154.715 440.983 170.516" stroke="url(#paint14_linear_1020_16616)" stroke-width="0.561036"/>
<path d="M254.98 -7.90387C241.962 63.7184 239.295 154.715 399.822 170.516" stroke="url(#paint15_linear_1020_16616)" stroke-width="0.561036"/>
<path d="M323.43 -7.90387C310.411 63.7184 307.744 154.715 468.272 170.516" stroke="url(#paint16_linear_1020_16616)" stroke-width="0.561036"/>
<path d="M268.156 -7.90387C255.138 63.7184 252.47 154.715 412.998 170.516" stroke="url(#paint17_linear_1020_16616)" stroke-width="0.561036"/>
<path d="M336.605 -7.90387C323.587 63.7184 320.92 154.715 481.447 170.516" stroke="url(#paint18_linear_1020_16616)" stroke-width="0.561036"/>
<path d="M281.332 -7.90387C268.314 63.7184 265.646 154.715 426.174 170.516" stroke="url(#paint19_linear_1020_16616)" stroke-width="0.561036"/>
<path d="M349.781 -7.90387C336.763 63.7184 334.095 154.715 494.623 170.516" stroke="url(#paint20_linear_1020_16616)" stroke-width="0.561036"/>
</g>
</g>
</g>
<defs>
<linearGradient id="paint0_linear_1020_16616" x1="333.337" y1="91.1604" x2="274.824" y2="48.7714" gradientUnits="userSpaceOnUse">
<stop stop-color="#333333"/>
<stop offset="0.25" stop-color="#5F5F5F"/>
<stop offset="0.5" stop-color="#8B8B8B"/>
<stop offset="0.75" stop-color="#5F5F5F"/>
<stop offset="1" stop-color="#333333"/>
</linearGradient>
<linearGradient id="paint1_linear_1020_16616" x1="401.782" y1="91.1613" x2="343.269" y2="48.7724" gradientUnits="userSpaceOnUse">
<stop stop-color="#333333"/>
<stop offset="0.25" stop-color="#5F5F5F"/>
<stop offset="0.5" stop-color="#8B8B8B"/>
<stop offset="0.75" stop-color="#5F5F5F"/>
<stop offset="1" stop-color="#333333"/>
</linearGradient>
<linearGradient id="paint2_linear_1020_16616" x1="389.22" y1="91.1613" x2="330.707" y2="48.7724" gradientUnits="userSpaceOnUse">
<stop stop-color="#333333"/>
<stop offset="0.25" stop-color="#5F5F5F"/>
<stop offset="0.5" stop-color="#8B8B8B"/>
<stop offset="0.75" stop-color="#5F5F5F"/>
<stop offset="1" stop-color="#333333"/>
</linearGradient>
<linearGradient id="paint3_linear_1020_16616" x1="349.696" y1="91.1604" x2="291.183" y2="48.7714" gradientUnits="userSpaceOnUse">
<stop stop-color="#333333"/>
<stop offset="0.25" stop-color="#5F5F5F"/>
<stop offset="0.5" stop-color="#8B8B8B"/>
<stop offset="0.75" stop-color="#5F5F5F"/>
<stop offset="1" stop-color="#333333"/>
</linearGradient>
<linearGradient id="paint4_linear_1020_16616" x1="418.138" y1="91.1613" x2="359.625" y2="48.7724" gradientUnits="userSpaceOnUse">
<stop stop-color="#333333"/>
<stop offset="0.25" stop-color="#5F5F5F"/>
<stop offset="0.5" stop-color="#8B8B8B"/>
<stop offset="0.75" stop-color="#5F5F5F"/>
<stop offset="1" stop-color="#333333"/>
</linearGradient>
<linearGradient id="paint5_linear_1020_16616" x1="362.868" y1="91.1613" x2="304.355" y2="48.7724" gradientUnits="userSpaceOnUse">
<stop stop-color="#333333"/>
<stop offset="0.25" stop-color="#5F5F5F"/>
<stop offset="0.5" stop-color="#8B8B8B"/>
<stop offset="0.75" stop-color="#5F5F5F"/>
<stop offset="1" stop-color="#333333"/>
</linearGradient>
<linearGradient id="paint6_linear_1020_16616" x1="431.317" y1="91.1613" x2="372.805" y2="48.7724" gradientUnits="userSpaceOnUse">
<stop stop-color="#333333"/>
<stop offset="0.25" stop-color="#5F5F5F"/>
<stop offset="0.5" stop-color="#8B8B8B"/>
<stop offset="0.75" stop-color="#5F5F5F"/>
<stop offset="1" stop-color="#333333"/>
</linearGradient>
<linearGradient id="paint7_linear_1020_16616" x1="376.044" y1="91.1613" x2="317.531" y2="48.7724" gradientUnits="userSpaceOnUse">
<stop stop-color="#333333"/>
<stop offset="0.25" stop-color="#5F5F5F"/>
<stop offset="0.5" stop-color="#8B8B8B"/>
<stop offset="0.75" stop-color="#5F5F5F"/>
<stop offset="1" stop-color="#333333"/>
</linearGradient>
<linearGradient id="paint8_linear_1020_16616" x1="444.493" y1="91.1613" x2="385.98" y2="48.7724" gradientUnits="userSpaceOnUse">
<stop stop-color="#333333"/>
<stop offset="0.25" stop-color="#5F5F5F"/>
<stop offset="0.5" stop-color="#8B8B8B"/>
<stop offset="0.75" stop-color="#5F5F5F"/>
<stop offset="1" stop-color="#333333"/>
</linearGradient>
<linearGradient id="paint9_linear_1020_16616" x1="457.669" y1="91.1613" x2="399.156" y2="48.7724" gradientUnits="userSpaceOnUse">
<stop stop-color="#333333"/>
<stop offset="0.25" stop-color="#5F5F5F"/>
<stop offset="0.5" stop-color="#8B8B8B"/>
<stop offset="0.75" stop-color="#5F5F5F"/>
<stop offset="1" stop-color="#333333"/>
</linearGradient>
<linearGradient id="paint10_linear_1020_16616" x1="453.77" y1="-0.243083" x2="438.868" y2="0.578202" gradientUnits="userSpaceOnUse">
<stop stop-color="white" stop-opacity="0"/>
<stop offset="0.25" stop-color="white" stop-opacity="0.5"/>
<stop offset="0.5" stop-color="white"/>
<stop offset="0.75" stop-color="white"/>
<stop offset="1" stop-color="white"/>
</linearGradient>
<linearGradient id="paint11_linear_1020_16616" x1="302.981" y1="77.6043" x2="244.469" y2="119.993" gradientUnits="userSpaceOnUse">
<stop stop-color="#333333"/>
<stop offset="0.25" stop-color="#5F5F5F"/>
<stop offset="0.5" stop-color="#8B8B8B"/>
<stop offset="0.75" stop-color="#5F5F5F"/>
<stop offset="1" stop-color="#333333"/>
</linearGradient>
<linearGradient id="paint12_linear_1020_16616" x1="319.341" y1="77.6043" x2="260.828" y2="119.993" gradientUnits="userSpaceOnUse">
<stop stop-color="#333333"/>
<stop offset="0.25" stop-color="#5F5F5F"/>
<stop offset="0.5" stop-color="#8B8B8B"/>
<stop offset="0.75" stop-color="#5F5F5F"/>
<stop offset="1" stop-color="#333333"/>
</linearGradient>
<linearGradient id="paint13_linear_1020_16616" x1="387.782" y1="77.6033" x2="329.269" y2="119.992" gradientUnits="userSpaceOnUse">
<stop stop-color="#333333"/>
<stop offset="0.25" stop-color="#5F5F5F"/>
<stop offset="0.5" stop-color="#8B8B8B"/>
<stop offset="0.75" stop-color="#5F5F5F"/>
<stop offset="1" stop-color="#333333"/>
</linearGradient>
<linearGradient id="paint14_linear_1020_16616" x1="373.673" y1="77.6033" x2="315.16" y2="119.992" gradientUnits="userSpaceOnUse">
<stop stop-color="#333333"/>
<stop offset="0.25" stop-color="#5F5F5F"/>
<stop offset="0.5" stop-color="#8B8B8B"/>
<stop offset="0.75" stop-color="#5F5F5F"/>
<stop offset="1" stop-color="#333333"/>
</linearGradient>
<linearGradient id="paint15_linear_1020_16616" x1="332.513" y1="77.6033" x2="274" y2="119.992" gradientUnits="userSpaceOnUse">
<stop stop-color="#333333"/>
<stop offset="0.25" stop-color="#5F5F5F"/>
<stop offset="0.5" stop-color="#8B8B8B"/>
<stop offset="0.75" stop-color="#5F5F5F"/>
<stop offset="1" stop-color="#333333"/>
</linearGradient>
<linearGradient id="paint16_linear_1020_16616" x1="400.962" y1="77.6033" x2="342.449" y2="119.992" gradientUnits="userSpaceOnUse">
<stop stop-color="#333333"/>
<stop offset="0.25" stop-color="#5F5F5F"/>
<stop offset="0.5" stop-color="#8B8B8B"/>
<stop offset="0.75" stop-color="#5F5F5F"/>
<stop offset="1" stop-color="#333333"/>
</linearGradient>
<linearGradient id="paint17_linear_1020_16616" x1="345.689" y1="77.6033" x2="287.176" y2="119.992" gradientUnits="userSpaceOnUse">
<stop stop-color="#333333"/>
<stop offset="0.25" stop-color="#5F5F5F"/>
<stop offset="0.5" stop-color="#8B8B8B"/>
<stop offset="0.75" stop-color="#5F5F5F"/>
<stop offset="1" stop-color="#333333"/>
</linearGradient>
<linearGradient id="paint18_linear_1020_16616" x1="414.138" y1="77.6033" x2="355.625" y2="119.992" gradientUnits="userSpaceOnUse">
<stop stop-color="#333333"/>
<stop offset="0.25" stop-color="#5F5F5F"/>
<stop offset="0.5" stop-color="#8B8B8B"/>
<stop offset="0.75" stop-color="#5F5F5F"/>
<stop offset="1" stop-color="#333333"/>
</linearGradient>
<linearGradient id="paint19_linear_1020_16616" x1="358.864" y1="77.6033" x2="300.351" y2="119.992" gradientUnits="userSpaceOnUse">
<stop stop-color="#333333"/>
<stop offset="0.25" stop-color="#5F5F5F"/>
<stop offset="0.5" stop-color="#8B8B8B"/>
<stop offset="0.75" stop-color="#5F5F5F"/>
<stop offset="1" stop-color="#333333"/>
</linearGradient>
<linearGradient id="paint20_linear_1020_16616" x1="427.314" y1="77.6033" x2="368.801" y2="119.992" gradientUnits="userSpaceOnUse">
<stop stop-color="#333333"/>
<stop offset="0.25" stop-color="#5F5F5F"/>
<stop offset="0.5" stop-color="#8B8B8B"/>
<stop offset="0.75" stop-color="#5F5F5F"/>
<stop offset="1" stop-color="#333333"/>
</linearGradient>
<clipPath id="clip0_1020_16616">
<rect width="455" height="121" fill="white"/>
</clipPath>
</defs>
</svg>
