<svg width="455" height="454" viewBox="0 0 455 454" fill="none" xmlns="http://www.w3.org/2000/svg">
<g clip-path="url(#clip0_1019_16025)">
<mask id="mask0_1019_16025" style="mask-type:luminance" maskUnits="userSpaceOnUse" x="0" y="0" width="455" height="454">
<path d="M455 0.0683594H0V453.931H455V0.0683594Z" fill="white"/>
</mask>
<g mask="url(#mask0_1019_16025)">
<g opacity="0.9">
<path d="M227.664 17.3213C343.507 17.3213 437.562 111.377 437.562 227.22C437.562 343.063 343.507 437.118 227.664 437.118C111.821 437.118 17.7656 343.063 17.7656 227.22C17.7656 111.377 111.821 17.3213 227.664 17.3213Z" stroke="url(#paint0_linear_1019_16025)" stroke-width="1.1375"/>
</g>
<path d="M227.661 52.3008C324.197 52.3008 402.576 130.68 402.576 227.216C402.576 323.752 324.197 402.131 227.661 402.131C131.126 402.131 52.7461 323.752 52.7461 227.216C52.7461 130.68 131.126 52.3008 227.661 52.3008Z" stroke="url(#paint1_linear_1019_16025)" stroke-width="1.1375"/>
<path d="M227.663 87.2773C304.892 87.2773 367.595 149.981 367.595 227.21C367.595 304.438 304.892 367.142 227.663 367.142C150.434 367.142 87.7305 304.438 87.7305 227.21C87.7305 149.981 150.434 87.2773 227.663 87.2773Z" stroke="url(#paint2_linear_1019_16025)" stroke-width="1.1375"/>
<path d="M133.084 203.576L155.795 108.537L250.357 133.153L345.395 155.862L320.78 250.426L298.07 345.464L203.507 320.848L108.468 298.138L133.084 203.576Z" stroke="#3348FF" stroke-width="1.15397"/>
<path d="M225.819 435.184L228.071 432.887L230.323 435.184L232.621 437.437L230.323 439.689L228.071 441.987L225.819 439.689L223.521 437.437L225.819 435.184Z" fill="#333333"/>
<path d="M339.27 400.475L340.071 397.359L343.171 398.223L346.287 399.024L345.423 402.124L344.621 405.24L341.522 404.376L338.406 403.574L339.27 400.475Z" fill="#333333"/>
<path d="M225.819 15.4472L228.071 13.1494L230.323 15.4472L232.621 17.6994L230.323 19.9517L228.071 22.2494L225.819 19.9517L223.521 17.6994L225.819 15.4472Z" fill="#333333"/>
<path d="M115.184 44.7846L115.985 41.6686L119.085 42.5323L122.201 43.334L121.337 46.4334L120.535 49.5494L117.436 48.6856L114.32 47.884L115.184 44.7846Z" fill="#333333"/>
<path d="M225.819 49.5722L228.071 47.2744L230.323 49.5722L232.621 51.8244L230.323 54.0767L228.071 56.3744L225.819 54.0767L223.521 51.8244L225.819 49.5722Z" fill="#333333"/>
<path d="M225.819 399.922L228.071 397.624L230.323 399.922L232.621 402.174L230.323 404.426L228.071 406.724L225.819 404.426L223.521 402.174L225.819 399.922Z" fill="#333333"/>
<path d="M321.641 369.937L322.442 366.821L325.542 367.685L328.658 368.486L327.794 371.586L326.992 374.702L323.893 373.838L320.777 373.036L321.641 369.937Z" fill="#333333"/>
<path d="M132.817 75.3246L133.618 72.2086L136.718 73.0724L139.834 73.874L138.97 76.9734L138.168 80.0894L135.069 79.2256L131.953 78.424L132.817 75.3246Z" fill="#333333"/>
<path d="M225.819 84.8349L228.071 82.5371L230.323 84.8349L232.621 87.0871L230.323 89.3394L228.071 91.6371L225.819 89.3394L223.521 87.0871L225.819 84.8349Z" fill="#333333"/>
<path d="M150.445 105.863L151.247 102.747L154.346 103.61L157.463 104.412L156.599 107.511L155.797 110.628L152.698 109.764L149.582 108.962L150.445 105.863Z" fill="#333333"/>
<path d="M296.027 346.702L296.829 343.586L299.928 344.449L303.045 345.251L302.181 348.35L301.379 351.466L298.28 350.603L295.164 349.801L296.027 346.702Z" fill="#333333"/>
<path d="M223.567 222.495L228.072 217.899L232.576 222.495L237.172 226.999L232.576 231.504L228.072 236.099L223.567 231.504L218.972 226.999L223.567 222.495Z" fill="#3348FF"/>
<mask id="mask1_1019_16025" style="mask-type:luminance" maskUnits="userSpaceOnUse" x="283" y="91" width="36" height="36">
<path d="M284.109 91.3418L318.229 91.9374L317.634 126.057L283.514 125.462L284.109 91.3418Z" fill="white"/>
</mask>
<g mask="url(#mask1_1019_16025)">
<path d="M317.931 108.997C317.767 118.413 309.989 125.924 300.574 125.759C291.158 125.595 283.647 117.817 283.812 108.402C283.976 98.9863 291.754 91.4752 301.169 91.6396C310.585 91.8039 318.096 99.5819 317.931 108.997Z" fill="white"/>
<mask id="mask2_1019_16025" style="mask-type:luminance" maskUnits="userSpaceOnUse" x="291" y="98" width="20" height="22">
<path d="M291.383 98.2949L310.717 98.6324L310.36 119.104L291.025 118.767L291.383 98.2949Z" fill="white"/>
</mask>
<g mask="url(#mask2_1019_16025)">
<path d="M301.848 99.8098C302.085 100.407 302.143 101.115 302.135 101.608C302.525 101.5 302.88 101.407 303.199 101.331C303.031 100.818 302.658 99.9718 301.848 99.8098ZM300.982 111.984C300.849 109.497 297.869 109.215 297.817 108.162C297.802 107.98 297.833 107.207 299.142 107.148C300.044 107.098 300.796 107.44 300.796 107.44L301.509 105.084C301.509 105.084 300.931 104.811 299.782 104.857C296.812 104.986 295.436 106.886 295.545 108.78C295.664 111.051 298.103 111.012 298.167 112.394C298.179 112.724 297.94 113.197 297.322 113.219C296.367 113.268 295.199 112.408 295.199 112.408L294.709 114.21C294.709 114.21 295.871 115.414 298.027 115.32C299.812 115.252 301.072 113.942 300.982 111.984ZM300.673 99.3126C300.499 99.2106 300.288 99.158 300.04 99.1536C298.398 99.1739 296.926 101.534 296.528 103.089C297.113 102.935 297.752 102.766 298.391 102.596C298.62 101.596 299.151 100.552 299.834 99.8907C300.102 99.6485 300.389 99.4396 300.673 99.3126ZM299.171 102.396C299.935 102.195 300.715 101.978 301.425 101.793C301.452 101.251 301.395 100.444 301.105 99.8469C300.803 99.9724 300.535 100.182 300.338 100.359C299.834 100.861 299.396 101.626 299.171 102.396ZM303.874 101.128C304.282 101.021 304.531 100.959 304.531 100.959C304.566 100.944 304.619 100.945 304.689 100.929L304.375 118.967L291.065 116.58C291.065 116.58 292.873 105.016 292.986 104.606C293.067 104.065 293.084 104.049 293.705 103.879C293.723 103.863 294.575 103.631 295.799 103.307C295.938 102.437 296.417 101.327 297.033 100.449C297.903 99.1982 298.974 98.5104 300.034 98.496C300.582 98.4885 301.038 98.6614 301.385 99.0292C301.402 99.0625 301.437 99.079 301.454 99.1123C301.525 99.0976 301.578 99.0986 301.631 99.0995C302.443 99.1137 303.124 99.5692 303.569 100.4C303.705 100.665 303.807 100.913 303.874 101.128Z" fill="black"/>
<path d="M310.384 117.724L304.819 118.909L305.129 101.135C305.476 101.47 306.414 102.342 306.414 102.342C306.414 102.342 307.968 102.4 308.056 102.402C308.144 102.404 308.232 102.471 308.247 102.57C308.264 102.67 310.384 117.724 310.384 117.724Z" fill="black"/>
</g>
</g>
<mask id="mask3_1019_16025" style="mask-type:luminance" maskUnits="userSpaceOnUse" x="71" y="209" width="35" height="36">
<path d="M71.0938 209.937H105.219V244.062H71.0938V209.937Z" fill="white"/>
</mask>
<g mask="url(#mask3_1019_16025)">
<path d="M105.219 226.999C105.219 236.416 97.573 244.062 88.1563 244.062C78.7395 244.062 71.0938 236.416 71.0938 226.999C71.0938 217.582 78.7395 209.937 88.1563 209.937C97.573 209.937 105.219 217.582 105.219 226.999Z" fill="white"/>
<mask id="mask4_1019_16025" style="mask-type:luminance" maskUnits="userSpaceOnUse" x="77" y="216" width="22" height="22">
<path d="M77.918 216.762H98.393V237.237H77.918V216.762Z" fill="white"/>
</mask>
<g mask="url(#mask4_1019_16025)">
<path d="M93.0788 219.899C93.7704 220.705 93.9683 221.578 93.7704 222.888C94.0673 223.055 94.2982 223.223 94.4961 223.457C95.1547 224.197 95.2537 225.305 95.0228 226.58C94.4301 229.668 92.386 230.743 89.8153 230.743H89.4194C89.1225 230.743 88.8268 230.977 88.7938 231.28L88.233 234.838C88.2 235.141 87.9361 235.376 87.6063 235.376H84.9365C84.6726 235.376 84.5088 235.175 84.5407 234.939L84.7716 233.529H81.6071C81.3443 233.529 81.1464 233.295 81.1794 233.026L83.3213 219.261C83.3873 218.891 83.6842 218.623 84.047 218.623H89.1555C90.9357 218.623 92.3201 218.993 93.0788 219.899Z" fill="#333333"/>
<path d="M92.9819 219.897C93.6678 220.702 93.8646 221.574 93.6678 222.882C93.6359 222.982 93.6359 223.083 93.603 223.15C92.9489 226.705 90.6602 227.913 87.7187 227.913H86.2138C85.8543 227.913 85.5608 228.18 85.4949 228.55L84.743 233.513H81.6046C81.343 233.513 81.1473 233.279 81.1792 233.01L83.3052 219.26C83.37 218.89 83.6646 218.623 84.0241 218.623H89.0916C90.857 218.623 92.23 218.992 92.9819 219.897Z" fill="black"/>
<path d="M87.0146 222.379C86.7188 222.379 86.4242 222.681 86.3912 222.916L84.7521 233.513H81.6057C81.343 233.513 81.1473 233.279 81.1792 233.01L83.3097 219.26C83.3757 218.89 83.6703 218.623 84.0309 218.623H89.1121C90.8821 218.623 92.2584 218.992 92.9796 219.93C93.6678 220.735 93.8646 221.608 93.6678 222.916C93.3402 222.715 92.685 222.546 92.3244 222.479C91.9308 222.412 91.4724 222.379 91.0129 222.379H87.0146Z" fill="black"/>
</g>
</g>
<mask id="mask5_1019_16025" style="mask-type:luminance" maskUnits="userSpaceOnUse" x="340" y="259" width="35" height="35">
<path d="M340.73 259.816L374.855 259.765L374.907 293.89L340.782 293.941L340.73 259.816Z" fill="white"/>
</mask>
<g mask="url(#mask5_1019_16025)">
<path d="M374.881 276.828C374.895 286.244 367.261 293.902 357.844 293.916C348.427 293.93 340.77 286.296 340.756 276.879C340.742 267.462 348.376 259.805 357.793 259.791C367.21 259.777 374.867 267.411 374.881 276.828Z" fill="white"/>
<mask id="mask6_1019_16025" style="mask-type:luminance" maskUnits="userSpaceOnUse" x="347" y="266" width="22" height="22">
<path d="M347.566 266.631L368.041 266.6L368.072 287.075L347.597 287.106L347.566 266.631Z" fill="white"/>
</mask>
<g mask="url(#mask6_1019_16025)">
<path d="M353.64 282.907L350.709 282.912C350.015 282.913 349.451 282.38 349.45 281.717L349.438 273.143L353.63 276.127L353.64 282.907Z" fill="#333333"/>
<path d="M363.399 276.112L367.583 273.115L367.596 281.689C367.597 282.35 367.037 282.887 366.341 282.888L363.409 282.892" fill="black"/>
<path d="M364.564 270.232C365.805 269.325 367.579 270.183 367.582 271.693L367.584 273.32L363.4 276.38L363.392 271.089" fill="black"/>
<path d="M358.516 279.939L363.396 276.315L363.388 271.091L358.508 274.714L353.617 271.105L353.625 276.33" fill="black"/>
<path d="M349.435 273.347L349.432 271.72C349.43 270.21 351.2 269.346 352.446 270.25L353.62 271.104L353.628 276.394L349.435 273.347Z" fill="black"/>
</g>
</g>
<mask id="mask7_1019_16025" style="mask-type:luminance" maskUnits="userSpaceOnUse" x="81" y="91" width="35" height="35">
<path d="M81.332 91.6367H115.457V125.762H81.332V91.6367Z" fill="white"/>
</mask>
<g mask="url(#mask7_1019_16025)">
<path d="M115.457 108.699C115.457 118.116 107.811 125.762 98.3945 125.762C88.9777 125.762 81.332 118.116 81.332 108.699C81.332 99.2824 88.9777 91.6367 98.3945 91.6367C107.811 91.6367 115.457 99.2824 115.457 108.699Z" fill="white"/>
<mask id="mask8_1019_16025" style="mask-type:luminance" maskUnits="userSpaceOnUse" x="88" y="98" width="21" height="22">
<path d="M88.2656 98.5762H108.741V119.051H88.2656V98.5762Z" fill="white"/>
</mask>
<g mask="url(#mask8_1019_16025)">
<path d="M102.39 113.632H92.966C92.7373 113.632 92.5667 113.464 92.5667 113.24V103.244C92.5667 103.03 92.7487 102.851 92.966 102.851H100.668C100.884 102.851 101.067 103.03 101.067 103.244V104.129C101.067 104.341 100.884 104.521 100.668 104.521H94.9282C94.712 104.521 94.5289 104.7 94.5289 104.914V111.582C94.5289 111.794 94.712 111.974 94.9282 111.974H102.094C102.311 111.974 102.494 111.794 102.494 111.582V106.325C102.494 106.112 102.676 105.933 102.893 105.933H104.068C104.285 105.933 104.467 106.112 104.467 106.325V114.507C104.467 114.709 104.239 114.82 104.079 114.709L102.619 113.7C102.551 113.655 102.471 113.632 102.39 113.632ZM96.1612 110.551H100.861C100.976 110.551 101.056 110.461 101.056 110.36V106.124C101.056 106.011 100.965 105.933 100.861 105.933H96.1612C96.0463 105.933 95.9667 106.023 95.9667 106.124V110.36C95.9667 110.473 96.0577 110.551 96.1612 110.551ZM104.57 116.704H105.506C105.722 116.704 105.905 116.524 105.916 116.311V106.302C105.916 105.316 105.107 104.521 104.102 104.521H102.904C102.687 104.521 102.505 104.341 102.505 104.129V103.221C102.505 102.235 101.695 101.438 100.691 101.438H92.9432C91.9388 101.438 91.1289 102.235 91.1289 103.221V113.274C91.1289 114.249 91.9388 115.044 92.9432 115.055H101.923C102.002 115.055 102.083 115.078 102.151 115.123L104.342 116.637C104.41 116.681 104.49 116.704 104.57 116.704Z" fill="black"/>
<path d="M100.256 106.304V110.411H96.1484V106.304H100.256Z" fill="white"/>
</g>
</g>
<mask id="mask9_1019_16025" style="mask-type:luminance" maskUnits="userSpaceOnUse" x="112" y="357" width="35" height="35">
<path d="M112.047 357.812H146.172V391.937H112.047V357.812Z" fill="white"/>
</mask>
<g mask="url(#mask9_1019_16025)">
<path d="M146.172 374.874C146.172 384.291 138.526 391.937 129.109 391.937C119.693 391.937 112.047 384.291 112.047 374.874C112.047 365.457 119.693 357.812 129.109 357.812C138.526 357.812 146.172 365.457 146.172 374.874Z" fill="white"/>
<mask id="mask10_1019_16025" style="mask-type:luminance" maskUnits="userSpaceOnUse" x="118" y="364" width="22" height="22">
<path d="M118.871 364.637H139.346V385.112H118.871V364.637Z" fill="white"/>
</mask>
<g mask="url(#mask10_1019_16025)">
<path d="M129.725 383.355C132.413 383.095 133.906 381.622 134.186 378.818C134.357 377.093 134.002 375.525 132.583 374.455C132.071 374.059 131.472 373.786 130.905 373.47C130.469 373.218 129.984 373.045 129.595 372.729C129.385 372.556 129.214 372.14 129.255 371.874C129.289 371.651 129.629 371.378 129.875 371.305C130.216 371.205 130.612 371.233 130.974 371.291C131.86 371.435 132.74 371.614 133.655 371.794C133.655 370.659 133.641 369.508 133.662 368.358C133.668 368.027 133.552 367.89 133.266 367.79C131.472 367.186 129.643 367.013 127.794 367.409C126.055 367.775 124.732 368.717 124.227 370.623C124.118 371.025 124.07 371.442 123.988 371.852C123.988 372.154 123.988 372.463 123.988 372.764C124.016 372.879 124.063 372.987 124.077 373.102C124.234 374.325 124.787 375.317 125.734 376.021C126.212 376.374 126.765 376.64 127.282 376.935C127.733 377.186 128.204 377.409 128.641 377.697C128.968 377.913 129.132 378.308 128.955 378.667C128.825 378.926 128.511 379.191 128.252 379.235C127.753 379.314 127.229 379.293 126.724 379.206C125.912 379.076 125.113 378.861 124.261 378.674C124.261 379.953 124.248 381.198 124.275 382.428C124.282 382.549 124.487 382.744 124.63 382.779C126.294 383.275 127.985 383.52 129.725 383.355Z" fill="black"/>
</g>
</g>
</g>
</g>
<defs>
<linearGradient id="paint0_linear_1019_16025" x1="17.7656" y1="227.22" x2="437.562" y2="227.22" gradientUnits="userSpaceOnUse">
<stop stop-color="#333333"/>
<stop offset="0.25" stop-color="#5F5F5F"/>
<stop offset="0.5" stop-color="#8B8B8B"/>
<stop offset="0.75" stop-color="#5F5F5F"/>
<stop offset="1" stop-color="#333333"/>
</linearGradient>
<linearGradient id="paint1_linear_1019_16025" x1="52.7455" y1="227.216" x2="402.577" y2="227.216" gradientUnits="userSpaceOnUse">
<stop stop-color="#333333"/>
<stop offset="0.25" stop-color="#5F5F5F"/>
<stop offset="0.5" stop-color="#8B8B8B"/>
<stop offset="0.75" stop-color="#5F5F5F"/>
<stop offset="1" stop-color="#333333"/>
</linearGradient>
<linearGradient id="paint2_linear_1019_16025" x1="87.731" y1="227.21" x2="367.595" y2="227.21" gradientUnits="userSpaceOnUse">
<stop stop-color="#333333"/>
<stop offset="0.25" stop-color="#5F5F5F"/>
<stop offset="0.5" stop-color="#8B8B8B"/>
<stop offset="0.75" stop-color="#5F5F5F"/>
<stop offset="1" stop-color="#333333"/>
</linearGradient>
<clipPath id="clip0_1019_16025">
<rect width="455" height="454" fill="white"/>
</clipPath>
</defs>
</svg>
