<svg width="58" height="70" viewBox="0 0 58 70" fill="none" xmlns="http://www.w3.org/2000/svg">
<g clip-path="url(#clip0_18457_319)">
<path d="M48.9865 15.9147C48.9865 24.4856 41.0768 34.5972 29.1093 34.5972H17.5815L17.0157 38.1676L14.3263 55.3555H0L8.61854 0H31.8294C39.6453 0 45.7944 4.35617 48.0593 10.4099C48.7126 12.17 49.0271 14.0377 48.9865 15.9147Z" fill="#002991"/>
<path d="M57.2446 31.8288C56.48 36.4747 54.0869 40.6968 50.4937 43.7395C46.9005 46.7822 42.3418 48.4468 37.6334 48.4354H29.6284L26.2963 69.1937H12.0469L14.3272 55.3548L17.0181 38.167L17.5824 34.5965H29.1102C41.0624 34.5965 48.9874 24.4849 48.9874 15.9141C54.869 18.9494 58.2979 25.0831 57.2446 31.8288Z" fill="#60CDFF"/>
<path d="M48.9868 15.9196C46.5204 14.6295 43.5296 13.8438 40.2743 13.8438H20.8379L17.5811 34.6025H29.1091C41.0616 34.6025 48.9868 24.4907 48.9868 15.9196Z" fill="#008CFF"/>
</g>
<defs>
<clipPath id="clip0_18457_319">
<rect width="57.4328" height="69.1944" fill="white"/>
</clipPath>
</defs>
</svg>
