<svg width="375" height="251" viewBox="0 0 375 251" fill="none" xmlns="http://www.w3.org/2000/svg">
<g clip-path="url(#clip0_18495_401)">
<rect width="375" height="251" fill="#1A1A1A"/>
<rect width="375" height="251" fill="url(#paint0_linear_18495_401)"/>
<path d="M734.12 94.7109C734.12 123.795 489.614 147.373 188 147.373C-113.615 147.373 -358.121 123.795 -358.121 94.7109" stroke="url(#paint1_linear_18495_401)" stroke-width="0.325072" stroke-dasharray="1.3 1.3"/>
<path d="M734.12 205.562C734.12 176.478 489.614 152.901 188 152.901C-113.615 152.901 -358.121 176.478 -358.121 205.562" stroke="url(#paint2_linear_18495_401)" stroke-width="0.325072" stroke-dasharray="1.3 1.3"/>
<path d="M526.075 87.5547C526.075 116.639 374.713 140.216 188 140.216C1.28648 140.216 -150.075 116.639 -150.075 87.5547" stroke="url(#paint3_linear_18495_401)" stroke-width="0.325072" stroke-dasharray="1.3 1.3"/>
<path d="M526.075 212.055C526.075 182.97 374.713 159.393 188 159.393C1.28648 159.393 -150.075 182.97 -150.075 212.055" stroke="url(#paint4_linear_18495_401)" stroke-width="0.325072" stroke-dasharray="1.3 1.3"/>
<path d="M454.559 77.4844C454.559 108.364 335.216 133.397 188 133.397C40.7834 133.397 -78.5591 108.364 -78.5591 77.4844" stroke="url(#paint5_linear_18495_401)" stroke-width="0.325072" stroke-dasharray="1.3 1.3"/>
<path d="M422.052 70.9766C422.052 101.856 317.264 126.889 188.001 126.889C58.7374 126.889 -46.0511 101.856 -46.0511 70.9766" stroke="url(#paint6_linear_18495_401)" stroke-width="0.325072" stroke-dasharray="1.3 1.3"/>
<path d="M454.559 218.883C454.559 189.799 335.216 166.221 188 166.221C40.7834 166.221 -78.5591 189.799 -78.5591 218.883" stroke="url(#paint7_linear_18495_401)" stroke-width="0.325072" stroke-dasharray="1.3 1.3"/>
<path d="M422.052 225.391C422.052 196.306 317.264 172.729 188.001 172.729C58.7374 172.729 -46.0511 196.306 -46.0511 225.391" stroke="url(#paint8_linear_18495_401)" stroke-width="0.325072" stroke-dasharray="1.3 1.3"/>
<circle cx="187.911" cy="152.802" r="48.5602" fill="#1A2480"/>
<circle cx="187.912" cy="152.803" r="36.4201" fill="#2330AA"/>
<circle cx="187.91" cy="152.81" r="26.7081" fill="#3448FF"/>
<rect x="-2.50195" y="105.422" width="19.383" height="19.383" rx="9.69152" transform="rotate(9.46538 -2.50195 105.422)" fill="#F6F8FA"/>
<g clip-path="url(#clip1_18495_401)">
<path d="M1.69971 116.901L4.89962 114.675C5.11211 114.529 5.29248 114.344 5.43023 114.129C5.56799 113.914 5.66037 113.674 5.702 113.423C5.78553 112.923 5.66426 112.409 5.36434 111.993L2.16436 114.219C1.95187 114.365 1.7715 114.55 1.63374 114.765C1.49599 114.98 1.40361 115.22 1.36198 115.471C1.27447 115.996 1.41138 116.501 1.69971 116.901ZM8.62673 116.444L5.42682 118.67C5.21433 118.815 5.03396 119.001 4.8962 119.216C4.75845 119.431 4.66607 119.671 4.62444 119.922C4.54091 120.422 4.66219 120.936 4.96213 121.352L8.16205 119.126C8.37454 118.98 8.55491 118.795 8.69267 118.58C8.83043 118.365 8.92282 118.125 8.96445 117.874C9.05196 117.349 8.91506 116.844 8.62673 116.444L8.62673 116.444ZM8.79488 115.33C9.00737 115.185 9.18775 114.999 9.32551 114.784C9.46327 114.569 9.55566 114.329 9.59729 114.078C9.68081 113.578 9.55952 113.064 9.25957 112.648L1.53064 118.02C1.11578 118.309 0.815732 118.747 0.727309 119.278C0.643788 119.778 0.76508 120.292 1.06503 120.708L8.79488 115.33V115.33Z" fill="black"/>
</g>
<rect x="-1.19263" y="148.25" width="17.7861" height="17.7861" rx="8.89303" transform="rotate(-2.84926 -1.19263 148.25)" fill="#F6F8FA"/>
<g clip-path="url(#clip2_18495_401)">
<path d="M12.1266 154.001L12.3618 158.725L11.2523 159.456L11.0174 154.736L8.07581 153.189L5.30059 155.021L5.54276 159.742L4.36795 159.123L4.133 154.402L8.0159 151.84L12.1266 154.001ZM8.96808 159.569L8.41528 159.937L7.82526 159.63L7.59021 154.907L6.48261 155.639L6.71937 160.36L8.48068 161.287L10.1448 160.189L9.90974 155.467L8.73313 154.848L8.96808 159.569V159.569Z" fill="black"/>
</g>
<rect x="24.1632" y="181.422" width="23.7302" height="23.7302" rx="11.8651" transform="rotate(-7.68112 24.1632 181.422)" fill="#F6F8FA"/>
<path d="M33.4047 197.323L33.2073 195.859L34.5172 195.683L33.5798 188.732L32.2699 188.909L32.0725 187.445L37.3829 186.729C39.8256 186.4 41.4441 187.175 41.6702 188.851C41.8183 189.949 41.1694 190.75 40.2546 191.184C41.6805 191.333 42.7474 192.027 42.9037 193.186C43.1462 194.984 41.6534 196.21 38.9982 196.568L33.4047 197.323ZM35.4207 188.484L35.7825 191.166L37.765 190.899C39.2519 190.698 39.965 190.106 39.8499 189.252C39.7306 188.368 38.8901 188.016 37.4032 188.216L35.4207 188.484ZM36.3622 195.465L38.628 195.159C40.3627 194.925 41.182 194.318 41.0504 193.343C40.9229 192.398 39.9326 192.003 38.0917 192.252L35.9675 192.538L36.3622 195.465V195.465Z" fill="black"/>
<g clip-path="url(#clip3_18495_401)">
<rect x="106.479" y="125.266" width="9.89649" height="9.89649" rx="4.94825" transform="rotate(6.08073 106.479 125.266)" fill="#F6F8FA"/>
<g clip-path="url(#clip4_18495_401)">
<path d="M113.262 134.041L112.911 134.004C112.881 134.001 112.852 133.989 112.828 133.969L112.069 133.296C112.045 133.276 112.016 133.264 111.986 133.261L108.618 132.902C108.242 132.858 107.971 132.518 108.011 132.14L108.425 128.252C108.466 127.87 108.802 127.595 109.179 127.635L112.085 127.945C112.462 127.985 112.733 128.325 112.692 128.706L112.655 129.057C112.646 129.14 112.707 129.217 112.788 129.225L113.238 129.273C113.614 129.313 113.885 129.653 113.845 130.035L113.432 133.906C113.419 133.988 113.343 134.05 113.262 134.041ZM108.685 132.353L112.22 132.729C112.25 132.732 112.279 132.744 112.303 132.764L112.809 133.213C112.865 133.263 112.955 133.228 112.963 133.15L113.3 129.986C113.309 129.903 113.248 129.827 113.167 129.818L112.726 129.771C112.644 129.762 112.569 129.824 112.56 129.907L112.343 131.94C112.334 132.022 112.259 132.084 112.177 132.076L109.489 131.789C109.408 131.781 109.347 131.704 109.356 131.622L109.631 129.042C109.639 128.96 109.715 128.898 109.797 128.906L111.949 129.136C112.031 129.144 112.107 129.082 112.115 129L112.152 128.658C112.161 128.575 112.099 128.499 112.018 128.49L109.129 128.182C109.048 128.173 108.972 128.236 108.963 128.318L108.551 132.185C108.542 132.272 108.599 132.343 108.685 132.353ZM110.01 131.288L111.774 131.476C111.816 131.48 111.85 131.449 111.854 131.41L112.029 129.771C112.033 129.728 112.002 129.694 111.964 129.69L110.201 129.502C110.158 129.497 110.124 129.529 110.12 129.568L109.945 131.207C109.941 131.25 109.972 131.284 110.01 131.288Z" fill="black"/>
</g>
</g>
<g clip-path="url(#clip5_18495_401)">
<rect x="344.308" y="178.898" width="19.8182" height="19.8182" rx="9.90912" transform="rotate(8.34151 344.308 178.898)" fill="#F6F8FA"/>
<path d="M356.781 193.353C356.67 193.25 356.507 193.233 356.371 193.299C356.235 193.366 356.159 193.521 356.184 193.672C356.208 193.822 356.323 193.945 356.471 193.974C356.62 194.002 356.769 193.937 356.847 193.809C356.935 193.662 356.911 193.465 356.781 193.353C356.927 193.488 356.642 193.219 356.781 193.353Z" fill="black"/>
<path d="M352.299 195.847C352.368 195.857 352.444 195.868 352.514 195.872C352.66 195.888 352.807 195.897 352.949 195.9C353.067 195.905 352.707 195.895 352.949 195.9C353.097 195.904 353.194 196.056 353.143 196.199C353.116 196.261 353.062 196.307 353 196.328C352.956 196.34 352.916 196.334 352.874 196.334C352.827 196.333 352.774 196.331 352.727 196.324C352.339 196.297 351.957 196.235 351.579 196.138C351.237 196.045 350.909 195.931 350.588 195.776C350.277 195.628 349.982 195.453 349.703 195.25C349.419 195.046 349.162 194.816 348.92 194.564C348.64 194.283 348.395 193.971 348.184 193.633C347.971 193.302 347.792 192.945 347.649 192.582C347.503 192.206 347.393 191.817 347.327 191.417C347.257 191.01 347.234 190.599 347.247 190.186C347.261 189.767 347.322 189.35 347.423 188.944C347.523 188.544 347.664 188.151 347.849 187.781C348.027 187.417 348.237 187.075 348.486 186.751C348.729 186.432 349.009 186.143 349.308 185.881C349.607 185.624 349.932 185.395 350.275 185.199C350.624 185.004 350.992 184.842 351.366 184.722C351.752 184.599 352.149 184.519 352.553 184.476C352.963 184.434 353.377 184.441 353.787 184.483C354.195 184.531 354.603 184.62 354.994 184.75C355.373 184.877 355.74 185.045 356.09 185.247C356.435 185.448 356.756 185.687 357.049 185.952C357.343 186.218 357.608 186.515 357.845 186.838C357.944 186.973 358.032 187.106 358.085 187.27C358.13 187.408 358.143 187.56 358.134 187.703C358.108 188 357.965 188.285 357.736 188.474C357.471 188.699 357.108 188.79 356.774 188.717C356.613 188.682 356.458 188.611 356.324 188.507C356.255 188.455 356.193 188.392 356.143 188.325C356.083 188.25 356.031 188.164 355.97 188.089C355.725 187.777 355.432 187.511 355.102 187.295C354.76 187.076 354.386 186.913 353.996 186.82C353.594 186.725 353.178 186.694 352.768 186.736C352.37 186.78 351.979 186.891 351.611 187.059C351.253 187.229 350.923 187.457 350.64 187.728C350.35 188.004 350.107 188.329 349.918 188.685C349.728 189.048 349.599 189.444 349.54 189.849C349.479 190.261 349.484 190.676 349.56 191.084C349.633 191.479 349.774 191.854 349.966 192.201C350.159 192.547 350.41 192.86 350.703 193.126C351.002 193.398 351.344 193.616 351.718 193.773C352.098 193.937 352.506 194.027 352.918 194.051C353.318 194.074 353.722 194.031 354.112 193.92C354.156 193.908 354.194 193.89 354.235 193.89C354.271 193.889 354.306 193.894 354.339 193.911C354.405 193.945 354.45 194.006 354.457 194.079C354.465 194.146 354.442 194.221 354.388 194.267C354.36 194.293 354.323 194.305 354.285 194.318C354.236 194.329 354.192 194.346 354.143 194.357C353.748 194.461 353.344 194.504 352.938 194.481C352.525 194.462 352.116 194.378 351.733 194.238C351.777 194.304 351.814 194.376 351.851 194.447C351.888 194.519 351.924 194.596 351.955 194.667C351.959 194.68 351.973 194.706 351.973 194.706C351.973 194.706 351.979 194.707 351.991 194.708C352.014 194.712 352.03 194.72 352.054 194.723C352.093 194.735 352.134 194.741 352.174 194.753C352.341 194.79 352.509 194.814 352.679 194.833C353.012 194.864 353.35 194.866 353.684 194.818C354.005 194.775 354.325 194.696 354.632 194.585C354.933 194.473 355.221 194.335 355.49 194.158C355.556 194.114 355.622 194.069 355.688 194.025C355.747 193.985 355.796 193.933 355.864 193.913C355.983 193.87 356.114 193.907 356.196 193.997C356.284 194.088 356.305 194.223 356.258 194.343C356.231 194.405 356.194 194.454 356.142 194.488C356.076 194.532 356.015 194.583 355.949 194.628C355.686 194.805 355.408 194.963 355.116 195.088C354.818 195.219 354.513 195.318 354.194 195.386C353.869 195.458 353.543 195.495 353.21 195.5C352.871 195.504 352.531 195.478 352.195 195.417C352.213 195.498 352.225 195.578 352.237 195.658C352.244 195.694 352.244 195.731 352.251 195.768C352.249 195.779 352.256 195.81 352.256 195.81L352.299 195.847Z" fill="black"/>
<path d="M355.569 195.362C355.207 195.564 354.821 195.727 354.424 195.839C354.226 195.895 354.024 195.939 353.816 195.975C353.713 195.991 353.61 196.006 353.508 196.015C353.465 196.021 353.418 196.02 353.374 196.038C353.336 196.051 353.308 196.077 353.286 196.111C353.234 196.182 353.232 196.273 353.275 196.346C353.322 196.432 353.407 196.457 353.497 196.452C353.702 196.433 353.908 196.403 354.11 196.359C354.514 196.279 354.913 196.148 355.294 195.979C355.389 195.938 355.485 195.891 355.575 195.844C355.62 195.82 355.671 195.797 355.716 195.773C355.756 195.748 355.8 195.731 355.835 195.693C355.891 195.634 355.905 195.539 355.875 195.462C355.845 195.384 355.769 195.33 355.693 195.325C355.645 195.33 355.601 195.342 355.569 195.362C355.672 195.304 354.904 195.727 355.569 195.362Z" fill="black"/>
<path d="M356.338 194.758C356.272 194.812 356.2 194.866 356.128 194.919C356.07 194.962 356.007 194.998 355.972 195.063C355.915 195.19 355.983 195.341 356.112 195.379C356.192 195.403 356.266 195.382 356.33 195.34C356.401 195.293 356.473 195.239 356.539 195.185C356.597 195.142 356.661 195.1 356.69 195.027C356.711 194.973 356.715 194.903 356.691 194.848C356.634 194.711 356.454 194.666 356.338 194.758C356.44 194.676 356.243 194.834 356.338 194.758Z" fill="black"/>
<path d="M355.482 193.18C355.317 193.321 355.149 193.447 354.971 193.558C354.923 193.585 354.868 193.618 354.82 193.645C354.78 193.667 354.743 193.703 354.718 193.747C354.668 193.835 354.675 193.953 354.739 194.031C354.813 194.124 354.924 194.133 355.026 194.073C355.121 194.018 355.217 193.964 355.306 193.908C355.389 193.852 355.473 193.789 355.558 193.726C355.606 193.692 355.65 193.65 355.699 193.61C355.742 193.575 355.785 193.54 355.817 193.49C355.869 193.388 355.851 193.255 355.768 193.181C355.685 193.114 355.567 193.111 355.482 193.18C355.581 193.099 355.231 193.397 355.482 193.18Z" fill="black"/>
<path d="M353.192 189.131C352.896 189.087 352.593 189.136 352.327 189.275C352.067 189.41 351.851 189.618 351.715 189.876C351.572 190.138 351.514 190.45 351.556 190.752C351.593 191.041 351.72 191.312 351.917 191.526C352.112 191.746 352.379 191.902 352.666 191.962C352.957 192.03 353.27 192.002 353.546 191.882C353.815 191.767 354.04 191.579 354.199 191.331C354.36 191.077 354.441 190.775 354.424 190.47C354.411 190.179 354.3 189.891 354.124 189.662C353.942 189.432 353.69 189.259 353.414 189.17C353.335 189.158 353.264 189.141 353.192 189.131Z" fill="black"/>
</g>
<g clip-path="url(#clip6_18495_401)">
<rect x="338.182" y="98.8672" width="19.8294" height="19.8294" rx="9.91469" transform="rotate(-15.9807 338.182 98.8672)" fill="#F6F8FA"/>
<path d="M352.363 106.193C353.506 105.535 354.432 104.164 353.954 102.496C353.368 100.451 351.681 99.8787 349.445 100.519C347.47 101.085 346.6 102.338 346.798 104.011L345.816 104.292L348.239 105.378L349.838 103.14L348.726 103.459C348.726 103.459 348.408 102.304 349.863 101.887C351.105 101.531 351.79 102.314 352.005 103.066C352.318 104.159 351.977 105.159 350.582 105.559L347.482 106.447L349.007 111.77L350.959 111.211L349.808 107.192L349.82 107.189C350.245 107.067 350.715 107.098 351.743 107.96L354.279 110.247L356.456 109.624L353.84 107.283C353.158 106.69 352.665 106.31 352.363 106.193Z" fill="black"/>
</g>
<rect x="42.7892" y="136.641" width="15.0033" height="15.0033" rx="7.50166" transform="rotate(4.09504 42.7892 136.641)" fill="#F6F8FA"/>
<g clip-path="url(#clip7_18495_401)">
<path d="M48.4294 146.226C48.2531 146.385 48.2334 146.661 48.3853 146.842C48.5372 147.024 48.8032 147.044 48.9795 146.885L51.8509 144.304C52.2033 143.987 52.7352 144.025 53.0389 144.389C53.3426 144.752 53.3031 145.304 52.9507 145.621L50.1346 148.153C50.4379 148.516 50.9695 148.555 51.3219 148.238L51.3226 148.238L53.5011 146.279C54.2061 145.645 54.2851 144.542 53.6776 143.814C53.07 143.087 52.0062 143.011 51.3015 143.644L48.4294 146.226V146.226ZM52.7201 144.675C52.5682 144.493 52.3022 144.474 52.1261 144.633L49.2543 147.214C48.9023 147.531 48.3707 147.493 48.067 147.13L48.0662 147.129C47.9144 146.947 47.6486 146.928 47.4724 147.086L47.4722 147.086C47.2959 147.245 47.276 147.521 47.4277 147.703L47.428 147.703C48.0354 148.43 49.0992 148.506 49.804 147.873L52.6758 145.291C52.8521 145.133 52.8719 144.857 52.7201 144.675V144.675ZM48.1546 145.897L51.026 143.315C51.2021 143.157 51.2219 142.881 51.0701 142.699C50.9184 142.517 50.6526 142.498 50.4765 142.656L47.6045 145.238C47.2523 145.555 46.7203 145.517 46.4167 145.153L46.4165 145.153C46.1128 144.789 46.152 144.238 46.5042 143.921L46.5048 143.92L49.3212 141.388C49.0177 141.024 48.486 140.986 48.1334 141.303L48.133 141.303L45.9549 143.262C45.2501 143.895 45.1711 144.999 45.7784 145.726C46.3861 146.454 47.4494 146.53 48.1546 145.897V145.897ZM46.7357 144.866C46.8874 145.048 47.1532 145.067 47.3293 144.908L50.2013 142.327C50.5535 142.01 51.0853 142.048 51.389 142.412L51.3893 142.412C51.5412 142.594 51.8072 142.613 51.9833 142.454C52.1596 142.296 52.1793 142.02 52.0274 141.838C51.4199 141.111 50.3564 141.034 49.6514 141.668L46.7798 144.25C46.6035 144.408 46.5837 144.684 46.7355 144.866L46.7357 144.866V144.866Z" fill="black"/>
</g>
<rect x="260.49" y="163.297" width="9.75215" height="9.75215" rx="4.87608" fill="#F6F8FA"/>
<g clip-path="url(#clip8_18495_401)">
<path d="M264.986 165.406H263.491L263.491 168.658C263.472 169.311 263.612 169.727 263.684 169.853C264.775 171.905 267.072 171.047 267.558 169.746C267.948 168.706 267.474 167.842 267.189 167.541C266.603 166.798 265.64 166.77 265.232 166.849V168.528C265.494 168.301 265.79 168.394 265.906 168.469C266.384 168.89 266.121 169.291 265.929 169.439C265.273 169.77 265.046 169.242 265.015 168.936L264.986 165.406Z" fill="black"/>
</g>
<rect x="243.586" y="134.422" width="10.2098" height="10.2098" rx="5.1049" transform="rotate(-5.82113 243.586 134.422)" fill="#F6F8FA"/>
<g clip-path="url(#clip9_18495_401)">
<path d="M250.31 142.072L251.894 141.679C251.894 141.679 251.212 137.067 251.208 137.035C251.204 137.003 251.176 136.986 251.153 136.984C251.13 136.982 250.684 136.975 250.684 136.975C250.684 136.975 250.412 136.711 250.31 136.611L250.31 142.072ZM250.138 136.558L249.95 136.616C249.927 136.54 249.897 136.467 249.86 136.396C249.728 136.143 249.533 136.008 249.298 136.008L249.297 136.008C249.281 136.008 249.265 136.01 249.248 136.011C249.241 136.003 249.234 135.995 249.227 135.987C249.125 135.877 248.994 135.824 248.836 135.828C248.533 135.837 248.23 136.056 247.985 136.446C247.813 136.72 247.681 137.064 247.644 137.33C247.296 137.438 247.052 137.514 247.047 137.516C246.871 137.571 246.865 137.576 246.842 137.742C246.825 137.867 246.365 141.427 246.365 141.427L250.184 142.088L250.184 136.551C250.165 136.552 250.148 136.555 250.138 136.558ZM249.256 136.831L248.612 137.031C248.674 136.793 248.792 136.555 248.937 136.4C248.991 136.342 249.066 136.277 249.155 136.24C249.239 136.416 249.258 136.664 249.256 136.831ZM248.842 136.03C248.913 136.029 248.973 136.044 249.025 136.078C248.943 136.121 248.863 136.182 248.789 136.262C248.596 136.469 248.448 136.79 248.389 137.1C248.206 137.156 248.026 137.212 247.86 137.263C247.965 136.776 248.374 136.044 248.842 136.03ZM248.251 138.808C248.272 139.133 249.127 139.204 249.175 139.965C249.212 140.564 248.857 140.973 248.345 141.006C247.731 141.045 247.392 140.682 247.392 140.682L247.523 140.128C247.523 140.128 247.863 140.385 248.136 140.368C248.314 140.356 248.377 140.212 248.371 140.109C248.344 139.685 247.648 139.71 247.604 139.014C247.567 138.428 247.952 137.834 248.801 137.78C249.128 137.76 249.296 137.843 249.296 137.843L249.102 138.57C249.102 138.57 248.885 138.471 248.628 138.487C248.252 138.511 248.248 138.749 248.251 138.808ZM249.457 136.769C249.455 136.615 249.437 136.402 249.365 136.217C249.596 136.26 249.709 136.521 249.757 136.676C249.668 136.704 249.567 136.735 249.457 136.769L249.457 136.769Z" fill="black"/>
</g>
<g clip-path="url(#clip10_18495_401)">
<rect x="328.755" y="137.617" width="15.0033" height="15.0033" rx="7.50166" fill="#F6F8FA"/>
<g clip-path="url(#clip11_18495_401)">
<path d="M340.894 143.203C339.93 143.203 339.301 143.827 339.301 144.858C339.301 146.139 340.265 146.505 340.955 146.505C341.827 146.505 342.324 145.952 342.324 145.952L341.879 145.532C341.642 145.731 341.369 145.852 340.964 145.852C340.427 145.852 340.066 145.557 340.066 145.149H342.46C342.456 145.145 342.874 143.203 340.894 143.203M340.066 144.592C340.066 144.043 340.507 143.781 340.977 143.781C341.448 143.781 341.875 144.051 341.875 144.592H340.066ZM332.08 144.538C331.772 144.5 330.887 144.534 330.887 144.151C330.887 143.927 331.257 143.802 331.6 143.802C332.146 143.802 332.511 144.01 332.612 144.076L333.074 143.64C332.938 143.54 332.432 143.203 331.6 143.203C330.843 143.203 330.161 143.577 330.161 144.176C330.161 145.095 331.336 145.095 331.824 145.141C332.124 145.17 332.392 145.186 332.392 145.461C332.392 145.719 331.978 145.86 331.657 145.86C331.133 145.86 330.821 145.698 330.513 145.436L330.02 145.906C330.473 146.322 331.05 146.505 331.618 146.505C332.498 146.505 333.136 146.139 333.136 145.403C333.136 144.912 332.788 144.621 332.08 144.538M334.605 143.203C333.844 143.203 333.347 143.569 333.259 143.644L333.721 144.08C333.813 144.01 334.126 143.806 334.614 143.806C335.2 143.806 335.376 144.026 335.376 144.276V144.588H334.333C333.945 144.588 333.189 144.679 333.189 145.482C333.189 146.072 333.545 146.505 334.399 146.505C334.825 146.505 335.151 146.372 335.376 146.122V146.442H336.132V144.326C336.128 143.586 335.648 143.203 334.605 143.203ZM335.38 145.286C335.38 145.897 334.918 145.864 334.509 145.864C334.091 145.864 333.827 145.76 333.827 145.486C333.827 145.232 334.042 145.145 334.491 145.145H335.38V145.286ZM338.465 143.27V143.623C338.209 143.344 337.901 143.203 337.479 143.203C336.762 143.203 336.392 143.582 336.269 143.989C336.22 144.139 336.207 144.426 336.207 144.85C336.207 145.249 336.212 145.615 336.357 145.893C336.564 146.284 337.061 146.505 337.479 146.505C337.884 146.505 338.227 146.355 338.465 146.101V146.301C338.465 146.534 338.381 146.688 338.223 146.808C338.064 146.929 337.866 147.004 337.589 147.004C337.338 147.004 337.101 146.875 336.964 146.783L336.454 147.265C336.784 147.519 337.18 147.69 337.602 147.694C338.051 147.698 338.416 147.569 338.733 147.332C339.037 147.107 339.23 146.679 339.23 146.23V143.27H338.465ZM338.465 144.85C338.465 145.095 338.46 145.278 338.438 145.369C338.39 145.573 338.143 145.843 337.695 145.843C337.58 145.843 337.008 145.781 336.942 145.311C336.929 145.216 336.92 145.091 336.92 144.846C336.92 144.48 336.938 144.363 336.955 144.268C336.995 144.085 337.25 143.81 337.695 143.81C338.236 143.81 338.412 144.159 338.438 144.297C338.46 144.396 338.465 144.604 338.465 144.85" fill="black"/>
</g>
</g>
<rect x="93.8566" y="149.391" width="10.1638" height="10.1638" rx="5.08192" transform="rotate(-3.45228 93.8566 149.391)" fill="#F6F8FA"/>
<g clip-path="url(#clip12_18495_401)">
<path d="M99.7736 153.216C99.7806 153.331 99.8078 153.504 99.5655 153.617C99.4905 153.652 99.4419 153.71 99.4419 153.71C99.4254 153.436 99.4575 153.335 99.5563 153.271C99.6323 153.221 99.7736 153.216 99.7736 153.216ZM98.858 153.586L98.6522 154.772L98.3647 153.829C98.2856 153.551 98.1709 153.411 97.948 153.425C97.7271 153.438 97.6285 153.587 97.583 153.876L97.4109 154.847L97.064 153.694C97.005 153.462 96.7901 153.372 96.5991 153.41L97.2601 155.564C97.2601 155.564 97.4355 155.567 97.52 155.513C97.6309 155.442 97.6825 155.39 97.734 155.088C97.7799 154.82 97.906 154.03 97.9188 153.974C97.9493 153.84 98.001 153.847 98.0431 153.966C98.0624 154.021 98.2827 154.789 98.3606 155.051C98.4479 155.344 98.5055 155.39 98.6242 155.447C98.7144 155.49 98.8882 155.466 98.8882 155.466L99.2855 153.248C99.0868 153.233 98.8882 153.351 98.858 153.586ZM99.7951 153.576C99.7951 153.576 99.7654 153.634 99.6927 153.684C99.646 153.717 99.6006 153.74 99.5522 153.769C99.4339 153.84 99.4533 153.898 99.4646 154.086L99.5455 155.426C99.5455 155.426 99.6801 155.436 99.7645 155.383C99.8732 155.313 99.8953 155.251 99.88 154.979L99.8001 153.655L99.7999 153.655L99.7951 153.576V153.576ZM101.159 154.237L101.764 153.106C101.764 153.106 101.478 153.07 101.346 153.218C101.245 153.332 101.165 153.491 100.947 153.884C100.944 153.89 100.903 153.98 100.842 153.89C100.583 153.532 100.481 153.378 100.366 153.278C100.217 153.146 99.9372 153.216 99.9372 153.216L100.674 154.267L100.07 155.394C100.07 155.394 100.368 155.417 100.5 155.269C100.587 155.171 100.631 155.081 100.886 154.62C100.935 154.524 100.987 154.607 100.991 154.614C101.251 154.973 101.339 155.107 101.458 155.211C101.607 155.343 101.894 155.284 101.894 155.284L101.159 154.237Z" fill="black"/>
</g>
<rect x="114.208" y="156.133" width="11.0024" height="11.0024" rx="5.50121" transform="rotate(-11.8558 114.208 156.133)" fill="#F6F8FA"/>
<g clip-path="url(#clip13_18495_401)">
<path d="M121.126 162.307L120.512 159.383L118.658 162.826L121.126 162.307Z" fill="black"/>
<path d="M120.11 159.266C120.294 158.99 120.36 158.655 120.292 158.333L117.823 158.852C117.891 159.173 118.086 159.454 118.365 159.632C118.644 159.811 118.985 159.872 119.312 159.804C119.639 159.735 119.927 159.541 120.11 159.266Z" fill="black"/>
<path d="M121.715 161.29C121.531 161.566 121.466 161.901 121.533 162.222L124.002 161.704C123.934 161.383 123.74 161.102 123.461 160.923C123.181 160.745 122.841 160.683 122.513 160.752C122.186 160.821 121.899 161.014 121.715 161.29Z" fill="black"/>
<path d="M120.699 158.248L121.313 161.172L123.168 157.73L120.699 158.248Z" fill="black"/>
</g>
<rect x="304.049" y="110.633" width="15.0033" height="15.0033" rx="7.50166" transform="rotate(-8.71188 304.049 110.633)" fill="#F6F8FA"/>
<g clip-path="url(#clip14_18495_401)">
<path d="M316.009 119.219C312.889 121.336 310.594 120.316 309.133 119.707C309.042 119.668 308.911 119.753 309.055 119.875C309.583 120.347 311.242 121.425 313.148 121.133C315.055 120.841 316.03 119.626 316.144 119.423C316.257 119.221 316.142 119.137 316.009 119.219L316.009 119.219ZM316.874 118.552C316.766 118.448 316.303 118.496 316.02 118.576C315.736 118.655 315.328 118.898 315.382 118.999C315.408 119.036 315.445 119.012 315.641 118.963C315.837 118.913 316.385 118.757 316.524 118.891C316.665 119.027 316.482 119.802 316.446 119.928C316.412 120.053 316.488 120.073 316.574 119.979C316.659 119.886 316.802 119.656 316.875 119.351C316.947 119.045 316.957 118.631 316.874 118.552L316.874 118.552Z" fill="black"/>
<path fill-rule="evenodd" clip-rule="evenodd" d="M313.245 116.301C313.309 116.721 313.373 117.07 313.218 117.476C313.093 117.806 312.85 118.034 312.547 118.08C312.133 118.144 311.843 117.865 311.772 117.399C311.631 116.48 312.429 116.187 313.209 116.067L313.245 116.301ZM314.736 118.764C314.674 118.838 314.572 118.859 314.485 118.829C314.081 118.586 313.996 118.458 313.755 118.204C313.256 118.899 312.865 119.144 312.097 119.261C311.19 119.4 310.397 118.949 310.225 117.827C310.091 116.952 310.475 116.283 311.105 115.888C311.651 115.54 312.462 115.37 313.076 115.202L313.055 115.063C313.016 114.806 312.989 114.5 312.805 114.301C312.642 114.123 312.378 114.08 312.156 114.113C311.745 114.176 311.41 114.444 311.388 114.894C311.384 114.994 311.328 115.101 311.231 115.12L310.167 115.168C310.076 115.162 309.968 115.106 309.972 114.967C310.019 113.662 311.105 113.104 312.131 112.946C312.656 112.866 313.363 112.9 313.839 113.235C314.439 113.644 314.489 114.306 314.598 115.017L314.855 116.699C314.933 117.204 315.176 117.393 315.415 117.636C315.5 117.723 315.533 117.837 315.456 117.923C315.264 118.141 314.925 118.542 314.739 118.766L314.736 118.764" fill="black"/>
<path d="M316.009 119.219C312.889 121.336 310.594 120.316 309.133 119.707C309.042 119.668 308.911 119.753 309.055 119.875C309.583 120.347 311.242 121.425 313.148 121.133C315.055 120.841 316.03 119.626 316.144 119.423C316.257 119.221 316.142 119.137 316.009 119.219L316.009 119.219ZM316.874 118.552C316.766 118.448 316.303 118.496 316.02 118.576C315.736 118.655 315.328 118.898 315.382 118.999C315.408 119.036 315.445 119.012 315.641 118.963C315.837 118.913 316.385 118.757 316.524 118.891C316.665 119.027 316.482 119.802 316.446 119.928C316.412 120.053 316.488 120.073 316.574 119.979C316.659 119.886 316.802 119.656 316.875 119.351C316.947 119.045 316.957 118.631 316.874 118.552L316.874 118.552Z" fill="black"/>
<path fill-rule="evenodd" clip-rule="evenodd" d="M313.245 116.301C313.31 116.721 313.374 117.07 313.219 117.476C313.094 117.806 312.851 118.034 312.547 118.08C312.133 118.144 311.843 117.865 311.772 117.399C311.631 116.48 312.429 116.187 313.209 116.067L313.245 116.301ZM314.736 118.764C314.674 118.838 314.572 118.859 314.485 118.829C314.081 118.586 313.997 118.458 313.756 118.204C313.257 118.899 312.865 119.144 312.098 119.261C311.19 119.4 310.397 118.949 310.226 117.827C310.091 116.952 310.475 116.283 311.106 115.888C311.652 115.54 312.463 115.37 313.077 115.202L313.055 115.063C313.016 114.806 312.989 114.5 312.805 114.301C312.643 114.123 312.378 114.08 312.157 114.113C311.746 114.176 311.411 114.444 311.388 114.894C311.385 114.994 311.328 115.101 311.232 115.12L310.168 115.168C310.077 115.162 309.969 115.106 309.972 114.967C310.019 113.662 311.106 113.104 312.132 112.946C312.657 112.866 313.364 112.9 313.839 113.235C314.439 113.644 314.489 114.306 314.598 115.017L314.856 116.699C314.933 117.204 315.177 117.393 315.416 117.636C315.5 117.723 315.534 117.837 315.457 117.923C315.265 118.141 314.926 118.542 314.739 118.766L314.736 118.764" fill="black"/>
</g>
<rect x="130.105" y="134.352" width="7.855" height="7.855" rx="3.9275" transform="rotate(2.02002 130.105 134.352)" fill="#F6F8FA"/>
<g clip-path="url(#clip15_18495_401)">
<path d="M135.218 137.513C135.274 137.213 135.235 137.011 135.083 136.82C134.916 136.605 134.6 136.509 134.191 136.494L133.015 136.453C132.932 136.45 132.862 136.509 132.843 136.594L132.239 139.743C132.229 139.804 132.273 139.86 132.333 139.862L133.061 139.888L132.997 140.21C132.987 140.264 133.024 140.312 133.084 140.314L133.698 140.336C133.774 140.338 133.837 140.286 133.847 140.217L134.005 139.403C134.015 139.334 134.085 139.282 134.153 139.285L134.244 139.288C134.835 139.309 135.314 139.078 135.476 138.372C135.539 138.081 135.525 137.825 135.38 137.65C135.336 137.594 135.284 137.554 135.218 137.513" fill="#636363"/>
<path d="M135.194 137.511C135.25 137.212 135.212 137.009 135.06 136.819C134.895 136.604 134.582 136.508 134.176 136.494L133.01 136.453C132.927 136.45 132.857 136.509 132.839 136.594L132.239 139.739C132.229 139.801 132.272 139.857 132.333 139.859L133.055 139.884L133.268 138.748C133.286 138.664 133.356 138.605 133.438 138.608L133.784 138.62C134.461 138.644 134.998 138.385 135.177 137.572C135.185 137.557 135.186 137.534 135.194 137.511Z" fill="black"/>
<path d="M133.52 137.46C133.529 137.406 133.599 137.339 133.667 137.341L134.587 137.374C134.693 137.377 134.798 137.389 134.888 137.407C134.97 137.426 135.12 137.47 135.194 137.519C135.25 137.219 135.211 137.017 135.06 136.826C134.901 136.604 134.588 136.508 134.18 136.494L133.012 136.453C132.929 136.45 132.859 136.509 132.841 136.594L132.239 139.739C132.229 139.801 132.273 139.857 132.333 139.859L133.057 139.884L133.52 137.46V137.46Z" fill="black"/>
</g>
<g clip-path="url(#clip16_18495_401)">
<rect x="306.707" y="174.391" width="11.6393" height="11.6393" rx="5.81966" transform="rotate(8.66332 306.707 174.391)" fill="#F6F8FA"/>
<g clip-path="url(#clip17_18495_401)">
<path d="M308.539 179.568C307.931 179.476 307.386 179.656 307.268 180.433C307.174 181.049 307.455 181.489 308.244 181.609C309.172 181.75 309.325 181.148 309.325 181.148L308.875 181.079C308.875 181.079 308.728 181.394 308.259 181.323C307.877 181.264 307.642 180.964 307.697 180.603L309.416 180.865L309.451 180.638C309.505 180.28 309.362 179.694 308.539 179.568V179.568ZM308.479 179.856C308.843 179.911 309.056 180.172 309.006 180.506L307.751 180.314C307.805 179.96 308.16 179.807 308.479 179.856V179.856Z" fill="black"/>
<path d="M309.704 178.97L309.338 181.371C309.317 181.507 309.278 181.697 309.278 181.697L309.708 181.763C309.708 181.763 309.744 181.628 309.763 181.502C309.763 181.502 309.924 181.866 310.501 181.954C311.108 182.046 311.584 181.688 311.676 181.084C311.762 180.522 311.452 180.013 310.812 179.915C310.214 179.824 309.978 180.119 309.978 180.119L310.143 179.037L309.704 178.97ZM310.656 180.195C311.069 180.258 311.284 180.604 311.222 181.015C311.155 181.455 310.808 181.697 310.439 181.64C309.999 181.573 309.814 181.194 309.872 180.813C309.926 180.458 310.195 180.125 310.656 180.195V180.195Z" fill="black"/>
<path d="M312.898 180.232C311.984 180.093 311.849 180.584 311.837 180.664L312.292 180.733C312.292 180.733 312.36 180.445 312.823 180.516C313.123 180.561 313.335 180.734 313.295 180.999L313.28 181.093L312.747 181.011C312.039 180.904 311.634 181.054 311.57 181.474C311.507 181.887 311.818 182.165 312.285 182.236C312.922 182.333 313.181 182.013 313.181 182.013C313.159 182.153 313.149 182.292 313.149 182.292L313.553 182.354C313.553 182.354 313.564 182.18 313.58 182.071L313.724 181.126C313.819 180.506 313.339 180.299 312.898 180.232V180.232ZM313.237 181.375L313.218 181.5C313.193 181.664 313.03 182.055 312.436 181.965C312.11 181.915 311.996 181.732 312.024 181.543C312.076 181.2 312.547 181.27 313.237 181.375Z" fill="black"/>
<path d="M313.582 180.414L314.093 180.492L314.604 182.075L315.56 180.715L316.024 180.786L314.29 183.202L313.804 183.128L314.3 182.456L313.582 180.414V180.414Z" fill="black"/>
</g>
</g>
<g clip-path="url(#clip18_18495_401)">
<rect x="70.6765" y="115.836" width="15.0033" height="15.0033" rx="7.50166" transform="rotate(11.3563 70.6765 115.836)" fill="#F6F8FA"/>
<g clip-path="url(#clip19_18495_401)">
<path d="M79.8376 124.093C79.4817 124.309 79.2491 124.829 79.325 125.24C79.3804 125.54 79.5819 125.622 79.8343 125.445C80.0913 125.264 80.2241 125.002 80.2962 124.643C80.3094 124.514 80.3099 124.414 80.2795 124.275C80.2266 124.032 80.0482 123.966 79.8376 124.093Z" fill="black"/>
<path d="M80.8909 122.634L73.3377 121.117C72.8238 121.013 72.3237 121.346 72.2205 121.86L71.6563 124.669C71.5531 125.183 71.8859 125.683 72.3997 125.787L75.968 126.503L75.9826 126.506L77.4275 127.744L77.2686 126.764L79.953 127.304C80.4668 127.407 80.9672 127.074 81.0704 126.56L81.6346 123.751C81.7378 123.237 81.4048 122.737 80.8909 122.634ZM75.6226 125.49C75.5884 125.64 75.5343 125.775 75.3688 125.81C75.1932 125.846 75.0855 125.737 74.999 125.602C74.6987 125.132 74.5703 124.607 74.4993 124.064C74.4919 124.008 74.4863 123.951 74.474 123.842C74.2265 124.163 74.0158 124.453 73.7861 124.728C73.6289 124.916 73.4599 125.1 73.2696 125.253C73.0251 125.45 72.8182 125.375 72.793 125.062C72.7381 124.384 72.7143 123.702 72.6946 123.021C72.6848 122.687 72.7089 122.352 72.7241 122.017C72.7343 121.789 72.8754 121.652 73.0798 121.66C73.3063 121.668 73.4149 121.799 73.4101 122.051C73.3978 122.683 73.3875 123.315 73.3769 123.946C73.3764 123.977 73.3821 124.008 73.3873 124.065C73.435 124.017 73.4706 123.988 73.4992 123.953C73.8301 123.546 74.1597 123.138 74.4901 122.731C74.6022 122.593 74.7296 122.471 74.9249 122.536C75.1159 122.601 75.1266 122.77 75.1331 122.942C75.1485 123.35 75.1718 123.757 75.232 124.165C75.373 123.805 75.4974 123.437 75.6601 123.088C75.7843 122.82 75.9445 122.567 76.111 122.323C76.244 122.128 76.4564 122.107 76.6214 122.239C76.7814 122.366 76.7992 122.557 76.6632 122.743C76.2569 123.299 76.0458 123.943 75.8414 124.587C75.7483 124.882 75.6909 125.188 75.6226 125.49ZM78.6122 124.33C78.5344 124.753 78.3373 125.114 78.0347 125.415C77.6909 125.759 77.2579 125.85 76.857 125.672C76.4532 125.493 76.2351 125.118 76.2537 124.629C76.2735 124.103 76.4628 123.646 76.8251 123.264C77.2098 122.858 77.656 122.753 78.088 122.964C78.5071 123.168 78.726 123.638 78.6455 124.163C78.637 124.219 78.6234 124.275 78.6122 124.33ZM81.0182 124.814C80.9405 125.236 80.7429 125.597 80.4405 125.899C80.0967 126.242 79.664 126.333 79.2631 126.155C78.8593 125.976 78.6411 125.602 78.6595 125.112C78.6796 124.586 78.8689 124.13 79.2312 123.747C79.616 123.341 80.0621 123.236 80.4941 123.447C80.9129 123.651 81.1321 124.122 81.0516 124.646C81.0428 124.703 81.0294 124.758 81.0182 124.814Z" fill="black"/>
<path d="M77.4832 123.617C77.1274 123.832 76.8947 124.353 76.9707 124.763C77.0261 125.064 77.2275 125.146 77.48 124.968C77.7369 124.787 77.87 124.526 77.9421 124.167C77.955 124.038 77.9554 123.937 77.9251 123.798C77.8722 123.556 77.6938 123.489 77.4832 123.617Z" fill="black"/>
</g>
</g>
<rect x="289.096" y="145.086" width="15.0033" height="15.0033" rx="7.50166" fill="#F6F8FA"/>
<g clip-path="url(#clip20_18495_401)">
<path d="M293.392 155.171H294.681V152.19L292.839 150.875V154.645C292.839 154.936 293.087 155.171 293.392 155.171Z" fill="#636363"/>
<path d="M298.773 155.171H300.062C300.367 155.171 300.614 154.936 300.614 154.645V150.875L298.773 152.19" fill="black"/>
<path d="M298.773 149.984V152.31L300.614 150.968V150.252C300.614 149.588 299.834 149.21 299.288 149.608" fill="black"/>
<path d="M294.681 152.359V150.062L296.829 151.653L298.978 150.062V152.359L296.829 153.95" fill="black"/>
<path d="M292.839 150.252V150.968L294.681 152.31V149.984L294.165 149.608C293.618 149.21 292.839 149.588 292.839 150.252" fill="black"/>
</g>
<rect x="264.066" y="116.633" width="12.2614" height="12.2614" rx="6.13071" transform="rotate(-9.84682 264.066 116.633)" fill="#F6F8FA"/>
<g clip-path="url(#clip21_18495_401)">
<path d="M271.394 122.017L272.17 121.882C272.39 121.844 272.509 121.698 272.475 121.503C272.443 121.32 272.281 121.211 272.06 121.25L271.284 121.384C271.259 121.389 271.24 121.415 271.244 121.437L271.338 121.981C271.347 122.006 271.368 122.022 271.394 122.017V122.017ZM271.612 123.272L272.413 123.133C272.66 123.09 272.785 122.939 272.747 122.718C272.714 122.527 272.547 122.397 272.293 122.441L271.492 122.58C271.466 122.584 271.448 122.61 271.452 122.633L271.556 123.232C271.565 123.261 271.586 123.276 271.612 123.272ZM273.627 118.037L271.73 120.723L272.105 120.658C272.689 120.557 273.099 120.865 273.168 121.266C273.223 121.582 273.05 121.851 272.84 121.993C272.806 122.015 272.815 122.066 272.858 122.074C273.14 122.131 273.376 122.375 273.432 122.698C273.511 123.154 273.27 123.571 272.678 123.674L271.052 123.956C271.027 123.961 271.001 123.943 270.997 123.921L270.696 122.188L268.613 125.134C268.586 125.173 268.618 125.227 268.666 125.219L274.722 124.168C274.732 124.166 274.742 124.16 274.748 124.151C274.754 124.142 274.757 124.131 274.755 124.121L273.703 118.058C273.707 118.015 273.651 118.002 273.627 118.036L273.627 118.037Z" fill="black"/>
</g>
<rect x="71.2983" y="162.969" width="15.0033" height="15.0033" rx="7.50166" fill="#F6F8FA"/>
<g clip-path="url(#clip22_18495_401)">
<path d="M79.0713 174.198C80.253 174.084 80.9098 173.436 81.0327 172.203C81.1077 171.445 80.9517 170.756 80.3279 170.285C80.103 170.111 79.8391 169.991 79.5902 169.852C79.3982 169.741 79.1853 169.665 79.0143 169.526C78.9214 169.45 78.8464 169.267 78.8644 169.15C78.8794 169.052 79.0293 168.932 79.1373 168.9C79.2872 168.856 79.4612 168.869 79.6201 168.894C80.01 168.957 80.3969 169.036 80.7988 169.115C80.7988 168.616 80.7928 168.11 80.8018 167.604C80.8048 167.459 80.7538 167.399 80.6278 167.355C79.8391 167.089 79.0353 167.013 78.2226 167.187C77.4578 167.348 76.876 167.762 76.654 168.6C76.6061 168.777 76.5851 168.96 76.5491 169.141V169.542C76.5611 169.593 76.5821 169.64 76.5881 169.691C76.657 170.228 76.9 170.664 77.3168 170.974C77.5268 171.129 77.7697 171.246 77.9976 171.375C78.1956 171.486 78.4025 171.584 78.5945 171.71C78.7384 171.805 78.8104 171.979 78.7324 172.137C78.6754 172.251 78.5375 172.368 78.4235 172.387C78.2046 172.421 77.9736 172.412 77.7517 172.374C77.3948 172.317 77.0439 172.222 76.669 172.14C76.669 172.703 76.663 173.25 76.675 173.79C76.678 173.844 76.768 173.929 76.831 173.945C77.5628 174.163 78.3065 174.27 79.0713 174.198Z" fill="black"/>
</g>
<path d="M188.986 157.645L192.356 162.482C196.994 158.766 201.762 151.711 200.416 149.78L196.784 144.567C195.905 143.305 192.617 142.69 186.983 146.681M188.986 157.645C188.986 157.645 195.447 152.195 197.628 147.15C197.613 147.133 190.063 151.101 190.063 151.101L186.983 146.681M188.986 157.645L185.906 153.224C185.906 153.224 178.356 157.193 178.34 157.176C180.522 152.131 186.983 146.681 186.983 146.681M188.986 157.645C183.352 161.635 180.064 161.02 179.185 159.759L175.553 154.546C174.207 152.614 178.975 145.56 183.613 141.844L186.983 146.681" stroke="white"/>
<rect x="362.443" y="144.766" width="21.4547" height="21.4547" rx="10.7274" fill="#F6F8FA"/>
<g clip-path="url(#clip23_18495_401)">
<path d="M377.285 156.178C377.284 156.273 377.245 156.364 377.177 156.431C377.11 156.498 377.019 156.535 376.924 156.535C376.829 156.535 376.737 156.498 376.67 156.431C376.602 156.364 376.564 156.273 376.563 156.178V152.933C376.564 152.838 376.602 152.747 376.67 152.68C376.737 152.613 376.829 152.576 376.924 152.576C377.019 152.576 377.11 152.613 377.177 152.68C377.245 152.747 377.284 152.838 377.285 152.933V156.178ZM377.159 158.437C377.103 158.484 375.766 159.606 373.315 159.606C370.865 159.606 369.528 158.484 369.472 158.437C369.4 158.374 369.355 158.286 369.347 158.19C369.34 158.095 369.371 158 369.433 157.928C369.495 157.855 369.584 157.81 369.679 157.803C369.774 157.795 369.868 157.826 369.941 157.888C369.962 157.906 371.156 158.884 373.315 158.884C375.502 158.884 376.677 157.899 376.689 157.889C376.84 157.759 377.068 157.776 377.198 157.928C377.26 158 377.291 158.095 377.284 158.19C377.276 158.286 377.231 158.374 377.159 158.437ZM369.346 152.933C369.347 152.838 369.386 152.747 369.453 152.68C369.521 152.613 369.612 152.576 369.707 152.576C369.802 152.576 369.893 152.613 369.961 152.68C370.028 152.747 370.067 152.838 370.068 152.933V156.178C370.067 156.273 370.028 156.364 369.961 156.431C369.893 156.498 369.802 156.535 369.707 156.535C369.612 156.535 369.521 156.498 369.453 156.431C369.386 156.364 369.347 156.273 369.346 156.178V152.933ZM371.15 152.211C371.152 152.116 371.191 152.026 371.258 151.96C371.326 151.893 371.417 151.856 371.511 151.856C371.606 151.856 371.697 151.893 371.764 151.96C371.832 152.026 371.871 152.116 371.872 152.211V157.032C371.871 157.126 371.832 157.217 371.764 157.283C371.697 157.35 371.606 157.387 371.511 157.387C371.417 157.387 371.326 157.35 371.258 157.283C371.191 157.217 371.152 157.126 371.15 157.032V152.211ZM372.955 152.029C372.955 151.981 372.964 151.934 372.982 151.89C373 151.847 373.027 151.807 373.06 151.773C373.094 151.74 373.134 151.713 373.177 151.695C373.221 151.677 373.268 151.668 373.315 151.668C373.363 151.668 373.41 151.677 373.453 151.695C373.497 151.713 373.537 151.74 373.571 151.773C373.604 151.807 373.631 151.847 373.649 151.89C373.667 151.934 373.676 151.981 373.676 152.029V157.261C373.675 157.356 373.637 157.446 373.569 157.513C373.502 157.58 373.41 157.617 373.315 157.617C373.22 157.617 373.129 157.58 373.062 157.513C372.994 157.446 372.956 157.356 372.955 157.261V152.029ZM374.759 152.211C374.76 152.116 374.799 152.026 374.866 151.96C374.934 151.893 375.025 151.856 375.12 151.856C375.214 151.856 375.305 151.893 375.373 151.96C375.44 152.026 375.479 152.116 375.48 152.211V157.032C375.479 157.126 375.44 157.217 375.373 157.283C375.305 157.35 375.214 157.387 375.12 157.387C375.025 157.387 374.934 157.35 374.866 157.283C374.799 157.217 374.76 157.126 374.759 157.032V152.211ZM377.375 150.227H369.256C368.509 150.227 367.903 150.832 367.903 151.58V159.698C367.903 160.446 368.509 161.051 369.256 161.051H377.375C378.122 161.051 378.728 160.446 378.728 159.698V151.58C378.728 150.832 378.122 150.227 377.375 150.227Z" fill="black"/>
</g>
</g>
<defs>
<linearGradient id="paint0_linear_18495_401" x1="375" y1="0" x2="171.79" y2="345.477" gradientUnits="userSpaceOnUse">
<stop stop-color="#161616"/>
<stop offset="1" stop-color="#0B0B0B"/>
</linearGradient>
<linearGradient id="paint1_linear_18495_401" x1="734.12" y1="121.042" x2="-358.121" y2="121.042" gradientUnits="userSpaceOnUse">
<stop stop-color="#97A3B6" stop-opacity="0"/>
<stop offset="0.25" stop-color="#97A3B6" stop-opacity="0.5"/>
<stop offset="0.5" stop-color="#97A3B6"/>
<stop offset="0.75" stop-color="#97A3B6" stop-opacity="0.5"/>
<stop offset="1" stop-color="#97A3B6" stop-opacity="0"/>
</linearGradient>
<linearGradient id="paint2_linear_18495_401" x1="734.12" y1="179.232" x2="-358.121" y2="179.232" gradientUnits="userSpaceOnUse">
<stop stop-color="#97A3B6" stop-opacity="0"/>
<stop offset="0.25" stop-color="#97A3B6" stop-opacity="0.5"/>
<stop offset="0.5" stop-color="#97A3B6"/>
<stop offset="0.75" stop-color="#97A3B6" stop-opacity="0.5"/>
<stop offset="1" stop-color="#97A3B6" stop-opacity="0"/>
</linearGradient>
<linearGradient id="paint3_linear_18495_401" x1="526.075" y1="113.886" x2="-150.075" y2="113.886" gradientUnits="userSpaceOnUse">
<stop stop-color="#97A3B6" stop-opacity="0"/>
<stop offset="0.25" stop-color="#97A3B6" stop-opacity="0.5"/>
<stop offset="0.5" stop-color="#97A3B6"/>
<stop offset="0.75" stop-color="#97A3B6" stop-opacity="0.5"/>
<stop offset="1" stop-color="#97A3B6" stop-opacity="0"/>
</linearGradient>
<linearGradient id="paint4_linear_18495_401" x1="526.075" y1="185.724" x2="-150.075" y2="185.724" gradientUnits="userSpaceOnUse">
<stop stop-color="#97A3B6" stop-opacity="0"/>
<stop offset="0.25" stop-color="#97A3B6" stop-opacity="0.5"/>
<stop offset="0.5" stop-color="#97A3B6"/>
<stop offset="0.75" stop-color="#97A3B6" stop-opacity="0.5"/>
<stop offset="1" stop-color="#97A3B6" stop-opacity="0"/>
</linearGradient>
<linearGradient id="paint5_linear_18495_401" x1="454.559" y1="105.441" x2="-78.5591" y2="105.441" gradientUnits="userSpaceOnUse">
<stop stop-color="#97A3B6" stop-opacity="0"/>
<stop offset="0.25" stop-color="#97A3B6" stop-opacity="0.5"/>
<stop offset="0.5" stop-color="#97A3B6"/>
<stop offset="0.75" stop-color="#97A3B6" stop-opacity="0.5"/>
<stop offset="1" stop-color="#97A3B6" stop-opacity="0"/>
</linearGradient>
<linearGradient id="paint6_linear_18495_401" x1="422.052" y1="98.9327" x2="-46.0511" y2="98.9327" gradientUnits="userSpaceOnUse">
<stop stop-color="#97A3B6" stop-opacity="0"/>
<stop offset="0.25" stop-color="#97A3B6" stop-opacity="0.5"/>
<stop offset="0.5" stop-color="#97A3B6"/>
<stop offset="0.75" stop-color="#97A3B6" stop-opacity="0.5"/>
<stop offset="1" stop-color="#97A3B6" stop-opacity="0"/>
</linearGradient>
<linearGradient id="paint7_linear_18495_401" x1="454.559" y1="192.552" x2="-78.5591" y2="192.552" gradientUnits="userSpaceOnUse">
<stop stop-color="#97A3B6" stop-opacity="0"/>
<stop offset="0.25" stop-color="#97A3B6" stop-opacity="0.5"/>
<stop offset="0.5" stop-color="#97A3B6"/>
<stop offset="0.75" stop-color="#97A3B6" stop-opacity="0.5"/>
<stop offset="1" stop-color="#97A3B6" stop-opacity="0"/>
</linearGradient>
<linearGradient id="paint8_linear_18495_401" x1="422.052" y1="199.06" x2="-46.0511" y2="199.06" gradientUnits="userSpaceOnUse">
<stop stop-color="#97A3B6" stop-opacity="0"/>
<stop offset="0.25" stop-color="#97A3B6" stop-opacity="0.5"/>
<stop offset="0.5" stop-color="#97A3B6"/>
<stop offset="0.75" stop-color="#97A3B6" stop-opacity="0.5"/>
<stop offset="1" stop-color="#97A3B6" stop-opacity="0"/>
</linearGradient>
<clipPath id="clip0_18495_401">
<rect width="375" height="251" fill="white"/>
</clipPath>
<clipPath id="clip1_18495_401">
<rect width="12.4051" height="12.4051" fill="white" transform="translate(0.366333 109.438) rotate(9.46538)"/>
</clipPath>
<clipPath id="clip2_18495_401">
<rect width="10.6716" height="10.6716" fill="white" transform="translate(2.53625 151.625) rotate(-2.84926)"/>
</clipPath>
<clipPath id="clip3_18495_401">
<rect x="106.479" y="125.266" width="9.89649" height="9.89649" rx="4.94825" transform="rotate(6.08073 106.479 125.266)" fill="white"/>
</clipPath>
<clipPath id="clip4_18495_401">
<rect width="7.91719" height="7.91719" fill="white" transform="translate(107.359 126.359) rotate(6.08073)"/>
</clipPath>
<clipPath id="clip5_18495_401">
<rect x="344.308" y="178.898" width="19.8182" height="19.8182" rx="9.90912" transform="rotate(8.34151 344.308 178.898)" fill="white"/>
</clipPath>
<clipPath id="clip6_18495_401">
<rect x="338.182" y="98.8672" width="19.8294" height="19.8294" rx="9.91469" transform="rotate(-15.9807 338.182 98.8672)" fill="white"/>
</clipPath>
<clipPath id="clip7_18495_401">
<rect width="9.60213" height="9.60213" fill="white" transform="translate(45.2887 139.523) rotate(4.09504)"/>
</clipPath>
<clipPath id="clip8_18495_401">
<rect width="4.87608" height="5.90262" fill="white" transform="translate(263.056 165.328)"/>
</clipPath>
<clipPath id="clip9_18495_401">
<rect width="5.57092" height="6.32206" fill="white" transform="translate(246.344 135.797)"/>
</clipPath>
<clipPath id="clip10_18495_401">
<rect x="328.755" y="137.617" width="15.0033" height="15.0033" rx="7.50166" fill="white"/>
</clipPath>
<clipPath id="clip11_18495_401">
<rect width="13.653" height="5.20115" fill="white" transform="translate(329.405 142.492)"/>
</clipPath>
<clipPath id="clip12_18495_401">
<rect width="5.69175" height="5.69175" fill="white" transform="translate(96.2239 151.484) rotate(-3.45228)"/>
</clipPath>
<clipPath id="clip13_18495_401">
<rect width="6.16135" height="6.16135" fill="white" transform="translate(117.073 158.008) rotate(-11.8558)"/>
</clipPath>
<clipPath id="clip14_18495_401">
<rect width="9.60213" height="9.60213" fill="white" transform="translate(307.127 112.898) rotate(-8.71188)"/>
</clipPath>
<clipPath id="clip15_18495_401">
<rect width="4.713" height="4.713" fill="white" transform="translate(131.62 135.977) rotate(2.02002)"/>
</clipPath>
<clipPath id="clip16_18495_401">
<rect x="306.707" y="174.391" width="11.6393" height="11.6393" rx="5.81966" transform="rotate(8.66332 306.707 174.391)" fill="white"/>
</clipPath>
<clipPath id="clip17_18495_401">
<rect width="8.70953" height="8.70953" fill="white" transform="translate(307.933 176.062) rotate(8.66332)"/>
</clipPath>
<clipPath id="clip18_18495_401">
<rect x="70.6765" y="115.836" width="15.0033" height="15.0033" rx="7.50166" transform="rotate(11.3563 70.6765 115.836)" fill="white"/>
</clipPath>
<clipPath id="clip19_18495_401">
<rect width="9.60213" height="9.60213" fill="white" transform="translate(72.7922 119.016) rotate(11.3563)"/>
</clipPath>
<clipPath id="clip20_18495_401">
<rect width="9.00199" height="9.00199" fill="white" transform="translate(292.022 148.016)"/>
</clipPath>
<clipPath id="clip21_18495_401">
<rect width="6.86639" height="6.86639" fill="white" transform="translate(267.186 118.828) rotate(-9.84682)"/>
</clipPath>
<clipPath id="clip22_18495_401">
<rect width="9.00199" height="9.00199" fill="white" transform="translate(74.2986 165.969)"/>
</clipPath>
<clipPath id="clip23_18495_401">
<rect width="12.8728" height="12.8728" fill="white" transform="translate(366.733 149.055)"/>
</clipPath>
</defs>
</svg>
