<svg width="261" height="144" viewBox="0 0 261 144" fill="none" xmlns="http://www.w3.org/2000/svg">
<g style="mix-blend-mode:luminosity">
<g clip-path="url(#clip0_18528_649)">
<circle cx="172.047" cy="86.732" r="86.232" stroke="url(#paint0_linear_18528_649)" stroke-width="1.35773"/>
<ellipse cx="172.038" cy="87.5833" rx="70.4722" ry="71.2552" stroke="#BABABA" stroke-width="0.630765" stroke-dasharray="1.26 1.26"/>
<ellipse cx="172.038" cy="87.5798" rx="114.264" ry="113.47" stroke="#BABABA" stroke-width="0.630765" stroke-dasharray="1.26 1.26"/>
<circle cx="171.956" cy="87.498" r="99.1372" transform="rotate(45 171.956 87.498)" stroke="url(#paint1_linear_18528_649)" stroke-width="1.35773"/>
<path d="M285.333 87.5H243.339M58.5629 87.5H100.557" stroke="#BABABA" stroke-width="0.630765" stroke-dasharray="1.26 1.26"/>
<path d="M228.639 185.686L207.642 149.317M115.254 -10.7031L136.251 25.6652" stroke="#BABABA" stroke-width="0.630765" stroke-dasharray="1.26 1.26"/>
<path d="M270.142 144.19L233.774 123.193M73.7536 30.8047L110.122 51.8019" stroke="#BABABA" stroke-width="0.630765" stroke-dasharray="1.26 1.26"/>
<path d="M171.948 200.88L171.948 158.885M171.948 -25.8906L171.948 16.1038" stroke="#BABABA" stroke-width="0.630765" stroke-dasharray="1.26 1.26"/>
<path d="M281.47 116.841L240.907 105.972M62.427 58.1484L102.991 69.0174" stroke="#BABABA" stroke-width="0.630765" stroke-dasharray="1.26 1.26"/>
<path d="M201.294 197.02L190.425 156.456M142.602 -22.0234L153.471 18.5401" stroke="#BABABA" stroke-width="0.630765" stroke-dasharray="1.26 1.26"/>
<path d="M252.124 167.671L222.43 137.976M91.7738 7.32031L121.468 37.0149" stroke="#BABABA" stroke-width="0.630765" stroke-dasharray="1.26 1.26"/>
<path d="M142.603 197.02L153.472 156.456M201.295 -22.0234L190.426 18.5401" stroke="#BABABA" stroke-width="0.630765" stroke-dasharray="1.26 1.26"/>
<path d="M115.254 185.686L136.252 149.317M228.639 -10.7031L207.642 25.6652" stroke="#BABABA" stroke-width="0.630765" stroke-dasharray="1.26 1.26"/>
<path d="M73.7563 144.19L110.125 123.193M270.145 30.8047L233.777 51.8019" stroke="#BABABA" stroke-width="0.630765" stroke-dasharray="1.26 1.26"/>
<path d="M91.7741 167.671L121.469 137.976M252.125 7.32031L222.43 37.0149" stroke="#BABABA" stroke-width="0.630765" stroke-dasharray="1.26 1.26"/>
<path d="M62.4275 116.841L102.991 105.972M281.471 58.1484L240.907 69.0174" stroke="#BABABA" stroke-width="0.630765" stroke-dasharray="1.26 1.26"/>
<g clip-path="url(#clip1_18528_649)">
<rect width="4.12309" height="4.12309" transform="translate(169.032 16.4922) rotate(-45)" fill="#BABABA"/>
</g>
<g clip-path="url(#clip2_18528_649)">
<rect width="3.78459" height="3.78459" transform="translate(98.8897 87.6484) rotate(-45)" fill="#BABABA"/>
</g>
<g clip-path="url(#clip3_18528_649)">
<rect width="4.12309" height="4.12309" transform="translate(239.294 87.6641) rotate(-45)" fill="#BABABA"/>
</g>
<g clip-path="url(#clip4_18528_649)">
<rect width="4.12309" height="4.12309" transform="translate(70.7414 145.648) rotate(-74.9403)" fill="#BABABA"/>
</g>
<path d="M195.649 64.1905L203.033 68.4537C203.457 68.6982 203.601 69.2399 203.357 69.6632L182.084 106.508C181.997 106.659 181.867 106.782 181.71 106.859L174.825 110.257C174.259 110.536 173.591 110.15 173.55 109.521L173.051 101.86C173.039 101.685 173.08 101.511 173.167 101.36L194.439 64.5148C194.684 64.0914 195.226 63.9461 195.649 64.1905Z" stroke="#3448FF" stroke-width="1.77027"/>
<line x1="190.485" y1="69.7413" x2="200.873" y2="75.7384" stroke="#3448FF" stroke-width="1.77027"/>
<line x1="169.919" y1="110.362" x2="140.935" y2="110.362" stroke="#3448FF" stroke-width="1.77027" stroke-linecap="round"/>
<line x1="172.252" y1="92.4789" x2="140.935" y2="92.4789" stroke="#B2B9FC" stroke-width="1.77027" stroke-linecap="round"/>
<line x1="182.22" y1="74.5961" x2="140.935" y2="74.5961" stroke="#D4D9FF" stroke-width="1.77027" stroke-linecap="round"/>
<line x1="168.009" y1="101.424" x2="140.935" y2="101.424" stroke="#8E99FF" stroke-width="1.77027" stroke-linecap="round"/>
<line x1="176.599" y1="83.5414" x2="140.935" y2="83.5414" stroke="#D4D9FF" stroke-width="1.77027" stroke-linecap="round"/>
<line x1="187.84" y1="65.6508" x2="140.935" y2="65.6508" stroke="#E2E5FF" stroke-width="1.77027" stroke-linecap="round"/>
</g>
</g>
<defs>
<linearGradient id="paint0_linear_18528_649" x1="258.279" y1="86.732" x2="85.8147" y2="86.732" gradientUnits="userSpaceOnUse">
<stop stop-color="#3448FF" stop-opacity="0"/>
<stop offset="0.5" stop-color="#3448FF"/>
<stop offset="1" stop-color="#3448FF" stop-opacity="0"/>
</linearGradient>
<linearGradient id="paint1_linear_18528_649" x1="271.093" y1="87.498" x2="72.8191" y2="87.498" gradientUnits="userSpaceOnUse">
<stop stop-color="#3448FF" stop-opacity="0"/>
<stop offset="0.5" stop-color="#3448FF"/>
<stop offset="1" stop-color="#3448FF" stop-opacity="0"/>
</linearGradient>
<clipPath id="clip0_18528_649">
<rect width="260.088" height="260.088" fill="white" transform="translate(0 -42.5469)"/>
</clipPath>
<clipPath id="clip1_18528_649">
<rect width="4.12309" height="4.12309" fill="white" transform="translate(169.032 16.4922) rotate(-45)"/>
</clipPath>
<clipPath id="clip2_18528_649">
<rect width="3.78459" height="3.78459" fill="white" transform="translate(98.8897 87.6484) rotate(-45)"/>
</clipPath>
<clipPath id="clip3_18528_649">
<rect width="4.12309" height="4.12309" fill="white" transform="translate(239.294 87.6641) rotate(-45)"/>
</clipPath>
<clipPath id="clip4_18528_649">
<rect width="4.12309" height="4.12309" fill="white" transform="translate(70.7414 145.648) rotate(-74.9403)"/>
</clipPath>
</defs>
</svg>
