<svg width="222" height="314" viewBox="0 0 222 314" fill="none" xmlns="http://www.w3.org/2000/svg">
<g clip-path="url(#clip0_18527_304)">
<mask id="mask0_18527_304" style="mask-type:alpha" maskUnits="userSpaceOnUse" x="-66" y="96" width="344" height="233">
<rect x="-65.8516" y="328.641" width="232.137" height="342.965" transform="rotate(-90 -65.8516 328.641)" fill="url(#paint0_linear_18527_304)"/>
</mask>
<g mask="url(#mask0_18527_304)">
<path opacity="0.6" d="M112.519 199.309L43.3679 51.7031" stroke="#364153" stroke-width="0.331093" stroke-miterlimit="10"/>
<path opacity="0.6" d="M112.518 199.312L81.5613 113.359" stroke="#364153" stroke-width="0.331093" stroke-miterlimit="10"/>
<path opacity="0.6" d="M112.518 199.309L90.1628 94.7734" stroke="#364153" stroke-width="0.331093" stroke-miterlimit="10"/>
<path opacity="0.6" d="M112.517 199.307L102.891 103.547" stroke="#364153" stroke-width="0.331093" stroke-miterlimit="10"/>
<path opacity="0.6" d="M112.516 199.308L112.868 81.0078" stroke="#364153" stroke-width="0.331093" stroke-miterlimit="10"/>
<path opacity="0.6" d="M112.516 199.315L115.792 124.375" stroke="#364153" stroke-width="0.331093" stroke-miterlimit="10"/>
<path opacity="0.6" d="M112.516 199.309L120.781 108.195" stroke="#364153" stroke-width="0.331093" stroke-miterlimit="10"/>
<path opacity="0.6" d="M112.516 199.312L144.864 56.9219" stroke="#364153" stroke-width="0.331093" stroke-miterlimit="10"/>
<path opacity="0.6" d="M112.516 199.311L166.884 64.8359" stroke="#364153" stroke-width="0.331093" stroke-miterlimit="10"/>
<path opacity="0.6" d="M112.516 199.304L177.206 91.3281" stroke="#364153" stroke-width="0.331093" stroke-miterlimit="10"/>
<path opacity="0.6" d="M112.516 199.309L176.345 102.344" stroke="#364153" stroke-width="0.331093" stroke-miterlimit="10"/>
<path opacity="0.6" d="M112.516 199.305L157.424 133.656" stroke="#364153" stroke-width="0.331093" stroke-miterlimit="10"/>
<path opacity="0.6" d="M112.516 199.307L230.706 104.062" stroke="#364153" stroke-width="0.331093" stroke-miterlimit="10"/>
<path opacity="0.6" d="M112.516 199.309L211.784 129.703" stroke="#364153" stroke-width="0.331093" stroke-miterlimit="10"/>
<path opacity="0.6" d="M112.516 199.311L263.736 121.273" stroke="#364153" stroke-width="0.331093" stroke-miterlimit="10"/>
<path opacity="0.6" d="M112.516 199.305L192.173 162.734" stroke="#364153" stroke-width="0.331093" stroke-miterlimit="10"/>
<path opacity="0.6" d="M112.516 199.304L224.169 156.328" stroke="#364153" stroke-width="0.331093" stroke-miterlimit="10"/>
<path opacity="0.6" d="M112.516 199.314L204.902 182.016" stroke="#364153" stroke-width="0.331093" stroke-miterlimit="10"/>
<path opacity="0.6" d="M112.516 199.314L235.694 182.703" stroke="#364153" stroke-width="0.331093" stroke-miterlimit="10"/>
<path opacity="0.6" d="M112.516 199.312L178.754 199.564" stroke="#364153" stroke-width="0.331093" stroke-miterlimit="10"/>
<path opacity="0.6" d="M112.516 199.312L147.617 202.145" stroke="#364153" stroke-width="0.331093" stroke-miterlimit="10"/>
<path opacity="0.6" d="M112.516 199.312L251.866 215.222" stroke="#364153" stroke-width="0.331093" stroke-miterlimit="10"/>
<path opacity="0.6" d="M112.516 199.312L191.829 210.577" stroke="#364153" stroke-width="0.331093" stroke-miterlimit="10"/>
<path opacity="0.6" d="M112.516 199.312L217.632 217.288" stroke="#364153" stroke-width="0.331093" stroke-miterlimit="10"/>
<path opacity="0.6" d="M112.516 199.312L204.042 219.868" stroke="#364153" stroke-width="0.331093" stroke-miterlimit="10"/>
<path opacity="0.6" d="M112.516 199.312L266.66 278.369" stroke="#364153" stroke-width="0.331093" stroke-miterlimit="10"/>
<path opacity="0.6" d="M112.516 199.312L190.968 241.892" stroke="#364153" stroke-width="0.331093" stroke-miterlimit="10"/>
<path opacity="0.6" d="M112.516 199.312L218.665 266.841" stroke="#364153" stroke-width="0.331093" stroke-miterlimit="10"/>
<path opacity="0.6" d="M112.516 199.312L210.579 288.866" stroke="#364153" stroke-width="0.331093" stroke-miterlimit="10"/>
<path opacity="0.6" d="M112.516 199.312L141.769 231.567" stroke="#364153" stroke-width="0.331093" stroke-miterlimit="10"/>
<path opacity="0.6" d="M112.516 199.312L171.702 270.627" stroke="#364153" stroke-width="0.331093" stroke-miterlimit="10"/>
<path opacity="0.6" d="M112.516 199.312L215.224 317.945" stroke="#364153" stroke-width="0.331093" stroke-miterlimit="10"/>
<path opacity="0.6" d="M112.516 199.312L152.172 281.983" stroke="#364153" stroke-width="0.331093" stroke-miterlimit="10"/>
<path opacity="0.6" d="M112.516 199.312L177.55 344.615" stroke="#364153" stroke-width="0.331093" stroke-miterlimit="10"/>
<path opacity="0.6" d="M112.516 199.312L167.228 327.408" stroke="#364153" stroke-width="0.331093" stroke-miterlimit="10"/>
<path opacity="0.6" d="M112.516 199.312L137.984 268.562" stroke="#364153" stroke-width="0.331093" stroke-miterlimit="10"/>
<path opacity="0.6" d="M112.516 199.312L130.066 344.615" stroke="#364153" stroke-width="0.331093" stroke-miterlimit="10"/>
<path opacity="0.6" d="M112.516 199.312L118.889 285.596" stroke="#364153" stroke-width="0.331093" stroke-miterlimit="10"/>
<path opacity="0.6" d="M112.516 199.312L115.703 324.311" stroke="#364153" stroke-width="0.331093" stroke-miterlimit="10"/>
<path opacity="0.6" d="M112.517 199.312L111.321 236.213" stroke="#364153" stroke-width="0.331093" stroke-miterlimit="10"/>
<path opacity="0.6" d="M112.516 199.312L99.2781 263.36" stroke="#364153" stroke-width="0.331093" stroke-miterlimit="10"/>
<path opacity="0.6" d="M112.518 199.312L82.0769 327.925" stroke="#364153" stroke-width="0.331093" stroke-miterlimit="10"/>
<path opacity="0.6" d="M112.517 199.312L81.9031 321.729" stroke="#364153" stroke-width="0.331093" stroke-miterlimit="10"/>
<path opacity="0.6" d="M112.518 199.312L64.7019 295.404" stroke="#364153" stroke-width="0.331093" stroke-miterlimit="10"/>
<path opacity="0.6" d="M112.517 199.312L77.2585 257.378" stroke="#364153" stroke-width="0.331093" stroke-miterlimit="10"/>
<path opacity="0.6" d="M112.517 199.312L36.1453 328.613" stroke="#364153" stroke-width="0.331093" stroke-miterlimit="10"/>
<path opacity="0.6" d="M112.519 199.312L29.782 309.857" stroke="#364153" stroke-width="0.331093" stroke-miterlimit="10"/>
<path opacity="0.6" d="M112.517 199.312L32.8757 302.975" stroke="#364153" stroke-width="0.331093" stroke-miterlimit="10"/>
<path opacity="0.6" d="M112.518 199.312L71.1492 235.869" stroke="#364153" stroke-width="0.331093" stroke-miterlimit="10"/>
<path opacity="0.6" d="M112.517 199.312L46.1218 254.586" stroke="#364153" stroke-width="0.331093" stroke-miterlimit="10"/>
<path opacity="0.6" d="M112.518 199.312L11.3738 263.962" stroke="#364153" stroke-width="0.331093" stroke-miterlimit="10"/>
<path opacity="0.6" d="M112.519 199.312L25.4812 252.044" stroke="#364153" stroke-width="0.331093" stroke-miterlimit="10"/>
<path opacity="0.6" d="M112.518 199.312L-46.5989 257.206" stroke="#364153" stroke-width="0.331093" stroke-miterlimit="10"/>
<path opacity="0.6" d="M112.516 199.312L51.1101 217.764" stroke="#364153" stroke-width="0.331093" stroke-miterlimit="10"/>
<path opacity="0.6" d="M112.517 199.312L1.39526 219.524" stroke="#364153" stroke-width="0.331093" stroke-miterlimit="10"/>
<path opacity="0.6" d="M112.518 199.312L18.0828 212.986" stroke="#364153" stroke-width="0.331093" stroke-miterlimit="10"/>
<path opacity="0.6" d="M112.517 199.308L-37.9993 188.203" stroke="#364153" stroke-width="0.331093" stroke-miterlimit="10"/>
<path opacity="0.6" d="M112.517 199.312L-69.4797 184.078" stroke="#364153" stroke-width="0.331093" stroke-miterlimit="10"/>
<path opacity="0.6" d="M112.517 199.308L19.2859 187.344" stroke="#364153" stroke-width="0.331093" stroke-miterlimit="10"/>
<path opacity="0.6" d="M112.517 199.315L36.1453 182.188" stroke="#364153" stroke-width="0.331093" stroke-miterlimit="10"/>
<path opacity="0.6" d="M112.518 199.307L-9.61255 146.219" stroke="#364153" stroke-width="0.331093" stroke-miterlimit="10"/>
<path opacity="0.6" d="M112.518 199.307L5.35229 132.797" stroke="#364153" stroke-width="0.331093" stroke-miterlimit="10"/>
<path opacity="0.6" d="M112.518 199.304L50.9402 156.328" stroke="#364153" stroke-width="0.331093" stroke-miterlimit="10"/>
<path opacity="0.6" d="M112.518 199.309L83.7976 172.766" stroke="#364153" stroke-width="0.331093" stroke-miterlimit="10"/>
<path opacity="0.6" d="M112.518 199.313L17.739 113.016" stroke="#364153" stroke-width="0.331093" stroke-miterlimit="10"/>
<path opacity="0.6" d="M112.518 199.306L1.56909 117.828" stroke="#364153" stroke-width="0.331093" stroke-miterlimit="10"/>
<path opacity="0.6" d="M112.517 199.304L27.7156 106.984" stroke="#364153" stroke-width="0.331093" stroke-miterlimit="10"/>
<path opacity="0.6" d="M112.517 199.311L49.5632 106.82" stroke="#364153" stroke-width="0.331093" stroke-miterlimit="10"/>
<path opacity="0.6" d="M112.518 199.315L79.321 139.172" stroke="#364153" stroke-width="0.331093" stroke-miterlimit="10"/>
<path opacity="0.6" d="M112.516 199.314L117.857 183.219" stroke="#364153" stroke-width="0.331093" stroke-miterlimit="10"/>
<path d="M19.7437 109.687L14.4031 109.906L14.6222 115.248L19.9628 115.029L19.7437 109.687Z" fill="#2B3CD5"/>
<path d="M28.2667 106.272L26.905 106.328L26.9609 107.69L28.3226 107.634L28.2667 106.272Z" fill="#2B3CD5"/>
<path d="M84.1163 171.725L82.7546 171.781L82.8105 173.143L84.1722 173.087L84.1163 171.725Z" fill="#3448FF"/>
<path d="M1.60885 116.661L0.260498 116.859L0.458403 118.208L1.80676 118.01L1.60885 116.661Z" fill="#2B3CD5"/>
<path d="M36.3388 181.23L35.2039 181.984L35.9582 183.12L37.0932 182.365L36.3388 181.23Z" fill="#2B3CD5"/>
<path d="M20.1627 180.401L12.2937 186.43L18.3209 194.3L26.1899 188.272L20.1627 180.401Z" fill="#3448FF"/>
<path d="M50.5092 105.511L48.1003 105.32L47.9099 107.73L50.3188 107.92L50.5092 105.511Z" fill="#2B3CD5"/>
<path d="M80.3678 137.554L78.0398 136.906L77.3923 139.235L79.7203 139.882L80.3678 137.554Z" fill="#3448FF"/>
<path d="M7.04147 131.217L3.96167 131.961L4.70505 135.041L7.78484 134.298L7.04147 131.217Z" fill="#3448FF"/>
<path d="M51.3309 153.776L48.196 154.234L48.6546 157.37L51.7895 156.911L51.3309 153.776Z" fill="#2B3CD5"/>
<path d="M0.758727 218.132L-0.391846 220.125L1.601 221.276L2.75157 219.283L0.758727 218.132Z" fill="#3448FF"/>
<path d="M23.5129 251.328L22.9597 253.562L25.1934 254.116L25.7466 251.882L23.5129 251.328Z" fill="#3448FF"/>
<path d="M45.9267 253.668L45.8855 254.898L47.1157 254.94L47.157 253.709L45.9267 253.668Z" fill="#2B3CD5"/>
<path d="M31.5969 302.866L31.7 304.297L33.1303 304.194L33.0273 302.763L31.5969 302.866Z" fill="#2B3CD5"/>
<path d="M28.6594 309.53L28.7625 310.961L30.1928 310.858L30.0898 309.427L28.6594 309.53Z" fill="#2B3CD5"/>
<path d="M63.7308 295.118L64.2351 296.461L65.5776 295.956L65.0732 294.614L63.7308 295.118Z" fill="#2B3CD5"/>
<path d="M98.1701 263.735L98.9285 264.922L100.115 264.163L99.3568 262.976L98.1701 263.735Z" fill="#2B3CD5"/>
<path d="M117.89 286.229L118.932 287.188L119.891 286.145L118.849 285.186L117.89 286.229Z" fill="#2B3CD5"/>
<path d="M137.198 269.33L138.458 269.977L139.104 268.716L137.844 268.07L137.198 269.33Z" fill="#2B3CD5"/>
<path d="M151.451 282.727L152.778 283.219L153.27 281.891L151.943 281.399L151.451 282.727Z" fill="#2B3CD5"/>
<path d="M171.141 271.476L172.55 271.617L172.69 270.208L171.282 270.067L171.141 271.476Z" fill="#2B3CD5"/>
<path d="M141.038 232.316L142.45 232.422L142.556 231.01L141.144 230.904L141.038 232.316Z" fill="#3448FF"/>
<path d="M209.641 289.742H211.407V287.976H209.641V289.742Z" fill="#3448FF"/>
<path d="M218.318 267.417L219.274 267.203L219.061 266.247L218.105 266.461L218.318 267.417Z" fill="#2B3CD5"/>
<path d="M217.702 219.156L219.923 217.516L218.283 215.295L216.062 216.935L217.702 219.156Z" fill="#2B3CD5"/>
<path d="M203.607 220.896L204.884 220.406L204.394 219.129L203.117 219.62L203.607 220.896Z" fill="#3448FF"/>
<path d="M147.558 202.708L148.2 202.125L147.617 201.483L146.975 202.065L147.558 202.708Z" fill="#2B3CD5"/>
<path d="M178.704 205.134L184.274 199.562L178.704 193.991L173.134 199.563L178.704 205.134Z" fill="#2B3CD5"/>
<path d="M214.798 132.989L215.719 126.703L209.435 125.782L208.514 132.068L214.798 132.989Z" fill="#3448FF"/>
<path d="M158.873 133.68L158.52 131.992L156.833 132.345L157.186 134.033L158.873 133.68Z" fill="#2B3CD5"/>
<path d="M177.915 102.209L177.637 100.508L175.936 100.786L176.214 102.487L177.915 102.209Z" fill="#2B3CD5"/>
<path d="M121.479 107.962L120.825 107.25L120.113 107.905L120.767 108.617L121.479 107.962Z" fill="#2B3CD5"/>
<path d="M104.76 102.613L102.612 100.883L100.883 103.031L103.031 104.761L104.76 102.613Z" fill="#2B3CD5"/>
<path d="M82.2935 113.314L81.2585 112.953L80.8977 113.988L81.9327 114.349L82.2935 113.314Z" fill="#2B3CD5"/>
<path d="M117.106 124.417L115.862 123.062L114.508 124.307L115.752 125.661L117.106 124.417Z" fill="#2B3CD5"/>
<path d="M192.892 163.249L193.266 162.211L192.228 161.837L191.854 162.875L192.892 163.249Z" fill="#3448FF"/>
<path d="M205.235 182.804L205.907 181.812L204.916 181.141L204.244 182.132L205.235 182.804Z" fill="#3448FF"/>
<path d="M193.144 214.296L197.077 211.391L194.172 207.457L190.24 210.363L193.144 214.296Z" fill="#3448FF"/>
<path d="M190.714 242.518L191.665 242.281L191.429 241.331L190.478 241.567L190.714 242.518Z" fill="#3448FF"/>
<path d="M110.273 236.539L111.2 237.609L112.27 236.682L111.343 235.612L110.273 236.539Z" fill="#2B3CD5"/>
<path d="M74.8128 257.643L75.3601 260.266L77.9822 259.718L77.4349 257.096L74.8128 257.643Z" fill="#3448FF"/>
<path d="M67.9943 233.45L67.8093 238.969L73.3269 239.154L73.5119 233.635L67.9943 233.45Z" fill="#3448FF"/>
<path d="M9.29812 262.85L8.67261 265.656L11.4779 266.282L12.1034 263.476L9.29812 262.85Z" fill="#2B3CD5"/>
<path d="M16.7593 211.807L15.6316 213.336L17.16 214.464L18.2877 212.935L16.7593 211.807Z" fill="#2B3CD5"/>
<path d="M51.1465 217.206L50.9031 218.234L51.9312 218.478L52.1747 217.449L51.1465 217.206Z" fill="#2B3CD5"/>
</g>
</g>
<defs>
<linearGradient id="paint0_linear_18527_304" x1="166.285" y1="544.579" x2="-65.8516" y2="544.579" gradientUnits="userSpaceOnUse">
<stop stop-opacity="0"/>
<stop offset="0.403846" stop-color="white"/>
</linearGradient>
<clipPath id="clip0_18527_304">
<rect width="374.67" height="314" fill="white" transform="translate(-76.2197 -0.5)"/>
</clipPath>
</defs>
</svg>
