<svg width="222" height="314" viewBox="0 0 222 314" fill="none" xmlns="http://www.w3.org/2000/svg">
<g clip-path="url(#clip0_18528_53)">
<mask id="mask0_18528_53" style="mask-type:alpha" maskUnits="userSpaceOnUse" x="-66" y="96" width="343" height="234">
<rect x="-65.9648" y="329.133" width="232.137" height="342.965" transform="rotate(-90 -65.9648 329.133)" fill="url(#paint0_linear_18528_53)"/>
</mask>
<g mask="url(#mask0_18528_53)">
<path opacity="0.6" d="M112.406 199.809L43.2547 52.2031" stroke="#97A3B6" stroke-width="0.331093" stroke-miterlimit="10"/>
<path opacity="0.6" d="M112.404 199.812L81.448 113.859" stroke="#97A3B6" stroke-width="0.331093" stroke-miterlimit="10"/>
<path opacity="0.6" d="M112.405 199.809L90.0496 95.2734" stroke="#97A3B6" stroke-width="0.331093" stroke-miterlimit="10"/>
<path opacity="0.6" d="M112.404 199.807L102.778 104.047" stroke="#97A3B6" stroke-width="0.331093" stroke-miterlimit="10"/>
<path opacity="0.6" d="M112.403 199.808L112.755 81.5078" stroke="#97A3B6" stroke-width="0.331093" stroke-miterlimit="10"/>
<path opacity="0.6" d="M112.403 199.815L115.679 124.875" stroke="#97A3B6" stroke-width="0.331093" stroke-miterlimit="10"/>
<path opacity="0.6" d="M112.403 199.809L120.668 108.695" stroke="#97A3B6" stroke-width="0.331093" stroke-miterlimit="10"/>
<path opacity="0.6" d="M112.403 199.812L144.751 57.4219" stroke="#97A3B6" stroke-width="0.331093" stroke-miterlimit="10"/>
<path opacity="0.6" d="M112.403 199.811L166.771 65.3359" stroke="#97A3B6" stroke-width="0.331093" stroke-miterlimit="10"/>
<path opacity="0.6" d="M112.403 199.804L177.093 91.8281" stroke="#97A3B6" stroke-width="0.331093" stroke-miterlimit="10"/>
<path opacity="0.6" d="M112.403 199.809L176.232 102.844" stroke="#97A3B6" stroke-width="0.331093" stroke-miterlimit="10"/>
<path opacity="0.6" d="M112.403 199.805L157.31 134.156" stroke="#97A3B6" stroke-width="0.331093" stroke-miterlimit="10"/>
<path opacity="0.6" d="M112.403 199.807L230.592 104.562" stroke="#97A3B6" stroke-width="0.331093" stroke-miterlimit="10"/>
<path opacity="0.6" d="M112.403 199.809L211.671 130.203" stroke="#97A3B6" stroke-width="0.331093" stroke-miterlimit="10"/>
<path opacity="0.6" d="M112.403 199.811L263.622 121.773" stroke="#97A3B6" stroke-width="0.331093" stroke-miterlimit="10"/>
<path opacity="0.6" d="M112.403 199.805L192.059 163.234" stroke="#97A3B6" stroke-width="0.331093" stroke-miterlimit="10"/>
<path opacity="0.6" d="M112.403 199.804L224.056 156.828" stroke="#97A3B6" stroke-width="0.331093" stroke-miterlimit="10"/>
<path opacity="0.6" d="M112.403 199.814L204.789 182.516" stroke="#97A3B6" stroke-width="0.331093" stroke-miterlimit="10"/>
<path opacity="0.6" d="M112.403 199.814L235.581 183.203" stroke="#97A3B6" stroke-width="0.331093" stroke-miterlimit="10"/>
<path opacity="0.6" d="M112.403 199.812L178.641 200.064" stroke="#97A3B6" stroke-width="0.331093" stroke-miterlimit="10"/>
<path opacity="0.6" d="M112.403 199.812L147.504 202.645" stroke="#97A3B6" stroke-width="0.331093" stroke-miterlimit="10"/>
<path opacity="0.6" d="M112.403 199.812L251.753 215.722" stroke="#97A3B6" stroke-width="0.331093" stroke-miterlimit="10"/>
<path opacity="0.6" d="M112.403 199.812L191.715 211.077" stroke="#97A3B6" stroke-width="0.331093" stroke-miterlimit="10"/>
<path opacity="0.6" d="M112.403 199.812L217.519 217.788" stroke="#97A3B6" stroke-width="0.331093" stroke-miterlimit="10"/>
<path opacity="0.6" d="M112.403 199.812L203.929 220.368" stroke="#97A3B6" stroke-width="0.331093" stroke-miterlimit="10"/>
<path opacity="0.6" d="M112.403 199.812L266.547 278.869" stroke="#97A3B6" stroke-width="0.331093" stroke-miterlimit="10"/>
<path opacity="0.6" d="M112.403 199.812L190.854 242.392" stroke="#97A3B6" stroke-width="0.331093" stroke-miterlimit="10"/>
<path opacity="0.6" d="M112.403 199.812L218.551 267.341" stroke="#97A3B6" stroke-width="0.331093" stroke-miterlimit="10"/>
<path opacity="0.6" d="M112.403 199.812L210.466 289.366" stroke="#97A3B6" stroke-width="0.331093" stroke-miterlimit="10"/>
<path opacity="0.6" d="M112.403 199.812L141.656 232.067" stroke="#97A3B6" stroke-width="0.331093" stroke-miterlimit="10"/>
<path opacity="0.6" d="M112.403 199.812L171.589 271.127" stroke="#97A3B6" stroke-width="0.331093" stroke-miterlimit="10"/>
<path opacity="0.6" d="M112.403 199.812L215.11 318.445" stroke="#97A3B6" stroke-width="0.331093" stroke-miterlimit="10"/>
<path opacity="0.6" d="M112.403 199.812L152.059 282.483" stroke="#97A3B6" stroke-width="0.331093" stroke-miterlimit="10"/>
<path opacity="0.6" d="M112.403 199.812L177.437 345.115" stroke="#97A3B6" stroke-width="0.331093" stroke-miterlimit="10"/>
<path opacity="0.6" d="M112.403 199.812L167.115 327.908" stroke="#97A3B6" stroke-width="0.331093" stroke-miterlimit="10"/>
<path opacity="0.6" d="M112.403 199.812L137.87 269.062" stroke="#97A3B6" stroke-width="0.331093" stroke-miterlimit="10"/>
<path opacity="0.6" d="M112.403 199.812L129.953 345.115" stroke="#97A3B6" stroke-width="0.331093" stroke-miterlimit="10"/>
<path opacity="0.6" d="M112.403 199.812L118.776 286.096" stroke="#97A3B6" stroke-width="0.331093" stroke-miterlimit="10"/>
<path opacity="0.6" d="M112.403 199.812L115.59 324.811" stroke="#97A3B6" stroke-width="0.331093" stroke-miterlimit="10"/>
<path opacity="0.6" d="M112.404 199.812L111.208 236.713" stroke="#97A3B6" stroke-width="0.331093" stroke-miterlimit="10"/>
<path opacity="0.6" d="M112.403 199.812L99.1648 263.86" stroke="#97A3B6" stroke-width="0.331093" stroke-miterlimit="10"/>
<path opacity="0.6" d="M112.405 199.812L81.9637 328.425" stroke="#97A3B6" stroke-width="0.331093" stroke-miterlimit="10"/>
<path opacity="0.6" d="M112.404 199.812L81.7898 322.229" stroke="#97A3B6" stroke-width="0.331093" stroke-miterlimit="10"/>
<path opacity="0.6" d="M112.405 199.812L64.5887 295.904" stroke="#97A3B6" stroke-width="0.331093" stroke-miterlimit="10"/>
<path opacity="0.6" d="M112.404 199.812L77.1453 257.878" stroke="#97A3B6" stroke-width="0.331093" stroke-miterlimit="10"/>
<path opacity="0.6" d="M112.403 199.812L36.032 329.113" stroke="#97A3B6" stroke-width="0.331093" stroke-miterlimit="10"/>
<path opacity="0.6" d="M112.405 199.812L29.6687 310.357" stroke="#97A3B6" stroke-width="0.331093" stroke-miterlimit="10"/>
<path opacity="0.6" d="M112.404 199.812L32.7625 303.475" stroke="#97A3B6" stroke-width="0.331093" stroke-miterlimit="10"/>
<path opacity="0.6" d="M112.405 199.812L71.0359 236.369" stroke="#97A3B6" stroke-width="0.331093" stroke-miterlimit="10"/>
<path opacity="0.6" d="M112.404 199.812L46.0086 255.086" stroke="#97A3B6" stroke-width="0.331093" stroke-miterlimit="10"/>
<path opacity="0.6" d="M112.405 199.812L11.2605 264.462" stroke="#97A3B6" stroke-width="0.331093" stroke-miterlimit="10"/>
<path opacity="0.6" d="M112.405 199.812L25.368 252.544" stroke="#97A3B6" stroke-width="0.331093" stroke-miterlimit="10"/>
<path opacity="0.6" d="M112.405 199.812L-46.7121 257.706" stroke="#97A3B6" stroke-width="0.331093" stroke-miterlimit="10"/>
<path opacity="0.6" d="M112.403 199.812L50.9969 218.264" stroke="#97A3B6" stroke-width="0.331093" stroke-miterlimit="10"/>
<path opacity="0.6" d="M112.404 199.812L1.28201 220.024" stroke="#97A3B6" stroke-width="0.331093" stroke-miterlimit="10"/>
<path opacity="0.6" d="M112.404 199.812L17.9695 213.486" stroke="#97A3B6" stroke-width="0.331093" stroke-miterlimit="10"/>
<path opacity="0.6" d="M112.403 199.808L-38.1125 188.703" stroke="#97A3B6" stroke-width="0.331093" stroke-miterlimit="10"/>
<path opacity="0.6" d="M112.404 199.812L-69.593 184.578" stroke="#97A3B6" stroke-width="0.331093" stroke-miterlimit="10"/>
<path opacity="0.6" d="M112.404 199.808L19.1726 187.844" stroke="#97A3B6" stroke-width="0.331093" stroke-miterlimit="10"/>
<path opacity="0.6" d="M112.403 199.815L36.032 182.688" stroke="#97A3B6" stroke-width="0.331093" stroke-miterlimit="10"/>
<path opacity="0.6" d="M112.405 199.807L-9.7258 146.719" stroke="#97A3B6" stroke-width="0.331093" stroke-miterlimit="10"/>
<path opacity="0.6" d="M112.405 199.807L5.23904 133.297" stroke="#97A3B6" stroke-width="0.331093" stroke-miterlimit="10"/>
<path opacity="0.6" d="M112.405 199.804L50.8269 156.828" stroke="#97A3B6" stroke-width="0.331093" stroke-miterlimit="10"/>
<path opacity="0.6" d="M112.405 199.809L83.6844 173.266" stroke="#97A3B6" stroke-width="0.331093" stroke-miterlimit="10"/>
<path opacity="0.6" d="M112.405 199.813L17.6258 113.516" stroke="#97A3B6" stroke-width="0.331093" stroke-miterlimit="10"/>
<path opacity="0.6" d="M112.405 199.806L1.45584 118.328" stroke="#97A3B6" stroke-width="0.331093" stroke-miterlimit="10"/>
<path opacity="0.6" d="M112.404 199.804L27.6023 107.484" stroke="#97A3B6" stroke-width="0.331093" stroke-miterlimit="10"/>
<path opacity="0.6" d="M112.404 199.811L49.45 107.32" stroke="#97A3B6" stroke-width="0.331093" stroke-miterlimit="10"/>
<path opacity="0.6" d="M112.405 199.815L79.2078 139.672" stroke="#97A3B6" stroke-width="0.331093" stroke-miterlimit="10"/>
<path opacity="0.6" d="M112.403 199.814L117.744 183.719" stroke="#97A3B6" stroke-width="0.331093" stroke-miterlimit="10"/>
<path d="M19.6304 110.187L14.2898 110.406L14.509 115.748L19.8496 115.529L19.6304 110.187Z" fill="#8E99FF"/>
<path d="M28.1534 106.772L26.7918 106.828L26.8477 108.19L28.2093 108.134L28.1534 106.772Z" fill="#8E99FF"/>
<path d="M84.003 172.225L82.6414 172.281L82.6973 173.643L84.0589 173.587L84.003 172.225Z" fill="#B2B9FC"/>
<path d="M1.4956 117.161L0.147247 117.359L0.345153 118.708L1.69351 118.51L1.4956 117.161Z" fill="#8E99FF"/>
<path d="M36.2256 181.73L35.0906 182.484L35.845 183.62L36.9799 182.865L36.2256 181.73Z" fill="#8E99FF"/>
<path d="M20.0495 180.901L12.1805 186.93L18.2076 194.8L26.0767 188.772L20.0495 180.901Z" fill="#B2B9FC"/>
<path d="M50.3959 106.011L47.9871 105.82L47.7967 108.23L50.2055 108.42L50.3959 106.011Z" fill="#8E99FF"/>
<path d="M80.2545 138.054L77.9265 137.406L77.2791 139.735L79.6071 140.382L80.2545 138.054Z" fill="#B2B9FC"/>
<path d="M6.92822 131.717L3.84842 132.461L4.5918 135.541L7.67159 134.798L6.92822 131.717Z" fill="#B2B9FC"/>
<path d="M51.2177 154.276L48.0828 154.734L48.5414 157.87L51.6763 157.411L51.2177 154.276Z" fill="#8E99FF"/>
<path d="M0.645477 218.632L-0.505096 220.625L1.48775 221.776L2.63832 219.783L0.645477 218.632Z" fill="#B2B9FC"/>
<path d="M23.3997 251.828L22.8465 254.062L25.0801 254.616L25.6333 252.382L23.3997 251.828Z" fill="#B2B9FC"/>
<path d="M45.8135 254.168L45.7722 255.398L47.0025 255.44L47.0437 254.209L45.8135 254.168Z" fill="#8E99FF"/>
<path d="M31.4837 303.366L31.5867 304.797L33.017 304.694L32.914 303.263L31.4837 303.366Z" fill="#8E99FF"/>
<path d="M28.5462 310.03L28.6492 311.461L30.0795 311.358L29.9765 309.927L28.5462 310.03Z" fill="#8E99FF"/>
<path d="M63.6175 295.618L64.1219 296.961L65.4643 296.456L64.96 295.114L63.6175 295.618Z" fill="#8E99FF"/>
<path d="M98.0569 264.235L98.8152 265.422L100.002 264.663L99.2435 263.476L98.0569 264.235Z" fill="#8E99FF"/>
<path d="M117.777 286.729L118.819 287.688L119.778 286.645L118.736 285.686L117.777 286.729Z" fill="#8E99FF"/>
<path d="M137.085 269.83L138.345 270.477L138.991 269.216L137.731 268.57L137.085 269.83Z" fill="#8E99FF"/>
<path d="M151.337 283.227L152.665 283.719L153.157 282.391L151.829 281.899L151.337 283.227Z" fill="#8E99FF"/>
<path d="M171.027 271.976L172.436 272.117L172.577 270.708L171.168 270.567L171.027 271.976Z" fill="#8E99FF"/>
<path d="M140.925 232.816L142.337 232.922L142.443 231.51L141.031 231.404L140.925 232.816Z" fill="#B2B9FC"/>
<path d="M209.528 290.242H211.294V288.476H209.528V290.242Z" fill="#B2B9FC"/>
<path d="M218.205 267.917L219.161 267.703L218.947 266.747L217.992 266.961L218.205 267.917Z" fill="#8E99FF"/>
<path d="M217.589 219.656L219.809 218.016L218.169 215.795L215.949 217.435L217.589 219.656Z" fill="#8E99FF"/>
<path d="M203.494 221.396L204.77 220.906L204.28 219.629L203.004 220.12L203.494 221.396Z" fill="#B2B9FC"/>
<path d="M147.444 203.208L148.087 202.625L147.504 201.983L146.862 202.565L147.444 203.208Z" fill="#8E99FF"/>
<path d="M178.591 205.634L184.161 200.062L178.591 194.491L173.021 200.063L178.591 205.634Z" fill="#8E99FF"/>
<path d="M214.685 133.489L215.606 127.203L209.321 126.282L208.4 132.568L214.685 133.489Z" fill="#B2B9FC"/>
<path d="M158.76 134.18L158.407 132.492L156.72 132.845L157.073 134.533L158.76 134.18Z" fill="#8E99FF"/>
<path d="M177.802 102.709L177.524 101.008L175.823 101.286L176.101 102.987L177.802 102.709Z" fill="#8E99FF"/>
<path d="M121.366 108.462L120.712 107.75L120 108.405L120.654 109.117L121.366 108.462Z" fill="#8E99FF"/>
<path d="M104.647 103.113L102.499 101.383L100.769 103.531L102.917 105.261L104.647 103.113Z" fill="#8E99FF"/>
<path d="M82.1802 113.814L81.1453 113.453L80.7845 114.488L81.8194 114.849L82.1802 113.814Z" fill="#8E99FF"/>
<path d="M116.993 124.917L115.749 123.562L114.395 124.807L115.639 126.161L116.993 124.917Z" fill="#8E99FF"/>
<path d="M192.779 163.749L193.153 162.711L192.115 162.337L191.741 163.375L192.779 163.749Z" fill="#B2B9FC"/>
<path d="M205.122 183.304L205.794 182.312L204.802 181.641L204.131 182.632L205.122 183.304Z" fill="#B2B9FC"/>
<path d="M193.031 214.796L196.964 211.891L194.059 207.957L190.127 210.863L193.031 214.796Z" fill="#B2B9FC"/>
<path d="M190.601 243.018L191.552 242.781L191.315 241.831L190.365 242.067L190.601 243.018Z" fill="#B2B9FC"/>
<path d="M110.16 237.039L111.087 238.109L112.157 237.182L111.23 236.112L110.16 237.039Z" fill="#8E99FF"/>
<path d="M74.6996 258.143L75.2469 260.766L77.869 260.218L77.3217 257.596L74.6996 258.143Z" fill="#B2B9FC"/>
<path d="M67.881 233.95L67.6961 239.469L73.2137 239.654L73.3986 234.135L67.881 233.95Z" fill="#B2B9FC"/>
<path d="M9.18487 263.35L8.55936 266.156L11.3646 266.782L11.9901 263.976L9.18487 263.35Z" fill="#8E99FF"/>
<path d="M16.646 212.307L15.5183 213.836L17.0468 214.964L18.1745 213.435L16.646 212.307Z" fill="#8E99FF"/>
<path d="M51.0333 217.706L50.7898 218.734L51.818 218.978L52.0614 217.949L51.0333 217.706Z" fill="#8E99FF"/>
</g>
</g>
<defs>
<linearGradient id="paint0_linear_18528_53" x1="166.172" y1="545.071" x2="-65.9649" y2="545.072" gradientUnits="userSpaceOnUse">
<stop stop-opacity="0"/>
<stop offset="0.403846" stop-color="white"/>
</linearGradient>
<clipPath id="clip0_18528_53">
<rect width="374.67" height="314" fill="white" transform="translate(-76.333)"/>
</clipPath>
</defs>
</svg>
