<svg width="318" height="175" viewBox="0 0 318 175" fill="none" xmlns="http://www.w3.org/2000/svg">
<ellipse opacity="0.9" cx="158.589" cy="12.1442" rx="158.16" ry="158.16" stroke="url(#paint0_linear_18630_1138)" stroke-opacity="0.7" stroke-width="0.857114"/>
<circle cx="158.585" cy="12.1358" r="131.8" stroke="url(#paint1_linear_18630_1138)" stroke-opacity="0.7" stroke-width="0.857114"/>
<ellipse cx="158.588" cy="12.1274" rx="105.44" ry="105.44" stroke="url(#paint2_linear_18630_1138)" stroke-opacity="0.7" stroke-width="0.857114"/>
<path d="M158.895 5.11719L155.501 8.5801L152.038 11.9741L155.501 15.3681L158.895 18.831L162.289 15.3681L165.752 11.9741L162.289 8.5801L158.895 5.11719Z" fill="#3448FF"/>
<path d="M107.161 -77.016L89.0841 -6.73442L69.5958 63.1769L69.4793 63.5982L69.9019 63.7071L140.191 81.7862L210.096 101.272L210.517 101.39L210.626 100.966L228.702 30.6847L248.19 -39.2274L248.308 -39.6484L247.884 -39.7577L177.595 -57.836L107.691 -77.3221L107.269 -77.4395L107.161 -77.016Z" stroke="#3448FF" stroke-width="0.857114"/>
<path d="M185.874 113.984C167.996 118.774 149.172 118.774 131.294 113.984" stroke="url(#paint3_linear_18630_1138)" stroke-width="1.33859" stroke-linecap="round"/>
<g filter="url(#filter0_f_18630_1138)">
<rect x="172.261" y="116.289" width="16.0618" height="2.67697" transform="rotate(-15 172.261 116.289)" fill="url(#paint4_linear_18630_1138)"/>
</g>
<path d="M158.895 140.539L157.198 142.271L155.466 143.968L157.198 145.665L158.895 147.396L160.592 145.665L162.323 143.968L160.592 142.271L158.895 140.539Z" fill="#333333"/>
<path d="M233.434 116.41L232.83 118.758L232.179 121.093L234.527 121.697L236.863 122.348L237.467 120L238.118 117.664L235.77 117.061L233.434 116.41Z" fill="#333333"/>
<path d="M158.895 167.109L157.198 168.841L155.466 170.538L157.198 172.235L158.895 173.966L160.592 172.235L162.323 170.538L160.592 168.841L158.895 167.109Z" fill="#333333"/>
<path d="M246.719 139.417L246.115 141.765L245.464 144.101L247.812 144.705L250.148 145.356L250.752 143.008L251.403 140.672L249.055 140.068L246.719 139.417Z" fill="#333333"/>
<path d="M128.896 110.539L127.199 112.271L125.467 113.968L127.199 115.665L128.896 117.396L130.593 115.665L132.324 113.968L130.593 112.271L128.896 110.539Z" fill="#3448FF"/>
<path d="M220.149 93.4017L219.545 95.7497L218.894 98.0851L221.242 98.689L223.577 99.34L224.181 96.992L224.832 94.6566L222.484 94.0527L220.149 93.4017Z" fill="#333333"/>
<rect x="203.894" y="144.977" width="25.7134" height="25.7134" rx="12.8567" fill="white"/>
<g clip-path="url(#clip0_18630_1138)">
<path d="M219.561 151.624C219.561 151.624 219.364 151.676 219.04 151.768C218.983 151.598 218.899 151.402 218.786 151.192C218.42 150.538 217.87 150.185 217.222 150.185C217.18 150.185 217.138 150.185 217.081 150.198C217.067 150.172 217.039 150.159 217.025 150.133C216.743 149.845 216.377 149.714 215.94 149.727C215.095 149.754 214.249 150.316 213.573 151.323C213.094 152.03 212.728 152.919 212.629 153.612C211.657 153.887 210.98 154.083 210.966 154.096C210.473 154.24 210.459 154.253 210.403 154.685C210.318 155.012 209.036 164.234 209.036 164.234L219.688 165.947V151.598C219.631 151.611 219.589 151.611 219.561 151.624ZM217.095 152.33C216.532 152.487 215.912 152.671 215.306 152.841C215.475 152.226 215.813 151.611 216.208 151.206C216.363 151.062 216.574 150.892 216.814 150.787C217.053 151.258 217.109 151.899 217.095 152.33ZM215.954 150.251C216.151 150.251 216.32 150.29 216.461 150.368C216.236 150.473 216.01 150.643 215.799 150.839C215.264 151.376 214.855 152.213 214.686 153.011C214.179 153.155 213.672 153.298 213.207 153.429C213.503 152.187 214.644 150.29 215.954 150.251ZM214.306 157.445C214.362 158.282 216.743 158.465 216.884 160.44C216.983 161.997 215.996 163.056 214.573 163.135C212.854 163.24 211.91 162.298 211.91 162.298L212.277 160.859C212.277 160.859 213.221 161.526 213.982 161.474C214.475 161.448 214.658 161.068 214.644 160.807C214.573 159.708 212.629 159.773 212.502 157.968C212.389 156.464 213.46 154.933 215.827 154.79C216.743 154.737 217.208 154.947 217.208 154.947L216.673 156.83C216.673 156.83 216.067 156.569 215.348 156.621C214.306 156.686 214.292 157.301 214.306 157.445ZM217.659 152.173C217.659 151.781 217.603 151.219 217.405 150.748C218.053 150.865 218.363 151.533 218.504 151.938C218.251 152.003 217.969 152.082 217.659 152.173Z" fill="black"/>
<path d="M220.04 165.898L224.464 164.878C224.464 164.878 222.562 152.935 222.548 152.857C222.534 152.778 222.463 152.726 222.393 152.726C222.323 152.726 221.083 152.7 221.083 152.7C221.083 152.7 220.322 152.019 220.04 151.758V165.898Z" fill="black"/>
</g>
<rect x="43.6133" y="26.1172" width="25.7134" height="25.7134" rx="12.8567" fill="white"/>
<path d="M60.7004 35.8767C60.8494 34.8902 60.7004 34.2324 60.1788 33.6253C59.6075 32.9423 58.5644 32.6641 57.2232 32.6641H53.3735C53.1003 32.6641 52.8767 32.8664 52.8271 33.1447L51.2127 43.5163C51.1878 43.7186 51.3369 43.8957 51.5355 43.8957H53.9199L53.746 44.9582C53.7212 45.1352 53.8454 45.287 54.0441 45.287H56.0559C56.3042 45.287 56.5029 45.1099 56.5278 44.8823L56.95 42.2008C56.9748 41.9732 57.1984 41.7961 57.4219 41.7961H57.7199C59.6572 41.7961 61.1971 40.9866 61.6442 38.6593C61.818 37.6981 61.7435 36.8633 61.2468 36.3068C61.0977 36.1297 60.9239 36.0032 60.7004 35.8767" fill="#333333"/>
<path d="M60.6229 35.8735C60.7707 34.8879 60.6229 34.2309 60.1055 33.6244C59.539 32.942 58.5043 32.6641 57.1741 32.6641H53.3558C53.0848 32.6641 52.8631 32.8662 52.8139 33.1442L51.2126 43.5054C51.188 43.7076 51.3358 43.8845 51.5329 43.8845H53.8978L54.4643 40.1443C54.5136 39.8663 54.7353 39.6642 55.0063 39.6642H56.1395C58.3565 39.6642 60.0809 38.7544 60.5736 36.0757C60.5982 36.0251 60.5982 35.9493 60.6229 35.8735Z" fill="black"/>
<path d="M55.1397 35.8988C55.1644 35.7219 55.3867 35.4944 55.609 35.4944H58.6221C58.9679 35.4944 59.3137 35.5197 59.6101 35.5702C59.8818 35.6208 60.3757 35.7471 60.6227 35.8988C60.7709 34.9132 60.6227 34.2561 60.104 33.6496C59.5607 32.942 58.5234 32.6641 57.1896 32.6641H53.3614C53.0897 32.6641 52.8674 32.8662 52.818 33.1442L51.2127 43.5054C51.188 43.7076 51.3361 43.8845 51.5337 43.8845H53.9048L55.1397 35.8988V35.8988Z" fill="black"/>
<rect x="243.749" y="36.8281" width="25.7134" height="25.7134" rx="12.8567" fill="white"/>
<path d="M251.238 54.2384H253.447V49.1291L250.291 46.875V53.3367C250.291 53.8357 250.715 54.2384 251.238 54.2384Z" fill="#333333"/>
<path d="M260.459 54.2384H262.668C263.192 54.2384 263.615 53.8342 263.615 53.3367V46.875L260.459 49.1291" fill="black"/>
<path d="M260.459 45.3444V49.3308L263.615 47.031V45.8044C263.615 44.6667 262.278 44.0182 261.343 44.7005" fill="black"/>
<path d="M253.445 49.4133V45.4766L257.127 48.202L260.809 45.4766V49.4133L257.127 52.1387" fill="black"/>
<path d="M250.291 45.8044V47.031L253.447 49.3308V45.3444L252.563 44.7005C251.626 44.0182 250.291 44.6667 250.291 45.8044" fill="black"/>
<rect x="288.327" y="69.9766" width="25.7134" height="25.7134" rx="12.8567" fill="white"/>
<path fill-rule="evenodd" clip-rule="evenodd" d="M306.349 88.6738H305.644C305.583 88.6738 305.523 88.6569 305.472 88.6231L303.821 87.4831C303.769 87.4493 303.709 87.4324 303.649 87.4324H296.883C296.126 87.4239 295.516 86.8244 295.516 86.0897V78.5146C295.516 77.7715 296.126 77.1719 296.883 77.1719H302.72C303.477 77.1719 304.087 77.7715 304.087 78.5146V79.1986C304.087 79.3591 304.225 79.4942 304.388 79.4942H305.291C306.048 79.4942 306.658 80.0938 306.658 80.8369V88.3782C306.65 88.5387 306.512 88.6738 306.349 88.6738ZM302.849 84.0375H299.307C299.23 84.0375 299.161 83.9784 299.161 83.894V80.7018C299.161 80.6258 299.221 80.5583 299.307 80.5583H302.849C302.927 80.5583 302.996 80.6174 302.996 80.7018V83.894C302.996 83.97 302.935 84.0375 302.849 84.0375ZM296.9 86.3599H304.001C304.062 86.3599 304.122 86.3768 304.173 86.4106L305.274 87.1706C305.394 87.2551 305.566 87.1706 305.566 87.0186V80.8538C305.566 80.6934 305.429 80.5583 305.265 80.5583H304.38C304.216 80.5583 304.079 80.6934 304.079 80.8538V84.8145C304.079 84.975 303.941 85.1101 303.778 85.1101H298.379C298.215 85.1101 298.078 84.975 298.078 84.8145V79.7898C298.078 79.6293 298.215 79.4942 298.379 79.4942H302.703C302.867 79.4942 303.004 79.3591 303.004 79.1986V78.5315C303.004 78.371 302.867 78.2359 302.703 78.2359H296.9C296.736 78.2359 296.599 78.371 296.599 78.5315V86.0643C296.599 86.2332 296.728 86.3599 296.9 86.3599Z" fill="black"/>
<rect x="71.4688" y="110.539" width="25.7134" height="25.7134" rx="12.8567" fill="white"/>
<path d="M84.7915 129.785C86.8166 129.589 87.9423 128.479 88.153 126.366C88.2815 125.066 88.0143 123.885 86.9451 123.078C86.5596 122.78 86.1073 122.574 85.6807 122.336C85.3517 122.147 84.9868 122.017 84.6938 121.778C84.5345 121.648 84.406 121.334 84.4368 121.134C84.4625 120.966 84.7195 120.76 84.9046 120.706C85.1616 120.63 85.4597 120.651 85.7321 120.695C86.4003 120.803 87.0634 120.939 87.7521 121.074C87.7521 120.218 87.7418 119.351 87.7573 118.485C87.7624 118.235 87.675 118.133 87.4591 118.057C86.1073 117.602 84.7298 117.472 83.3369 117.77C82.0262 118.046 81.029 118.755 80.6486 120.191C80.5664 120.494 80.5304 120.809 80.4688 121.117V121.805C80.4893 121.892 80.5253 121.973 80.5356 122.06C80.6538 122.981 81.0701 123.728 81.7846 124.259C82.1444 124.525 82.5607 124.725 82.9514 124.947C83.2906 125.137 83.6453 125.305 83.9742 125.521C84.2209 125.684 84.3443 125.982 84.2107 126.253C84.113 126.448 83.8766 126.648 83.6812 126.681C83.306 126.74 82.9102 126.724 82.5299 126.659C81.9182 126.561 81.3168 126.399 80.6743 126.258C80.6743 127.222 80.6641 128.159 80.6846 129.086C80.6898 129.178 80.844 129.324 80.9519 129.351C82.2061 129.725 83.4808 129.909 84.7915 129.785Z" fill="black"/>
<defs>
<filter id="filter0_f_18630_1138" x="169.584" y="109.456" width="21.5614" height="12.0966" filterUnits="userSpaceOnUse" color-interpolation-filters="sRGB">
<feFlood flood-opacity="0" result="BackgroundImageFix"/>
<feBlend mode="normal" in="SourceGraphic" in2="BackgroundImageFix" result="shape"/>
<feGaussianBlur stdDeviation="1.33859" result="effect1_foregroundBlur_18630_1138"/>
</filter>
<linearGradient id="paint0_linear_18630_1138" x1="0.428711" y1="12.1442" x2="316.748" y2="12.1442" gradientUnits="userSpaceOnUse">
<stop stop-color="#333333"/>
<stop offset="0.5" stop-color="#8B8B8B"/>
<stop offset="1" stop-color="#333333"/>
</linearGradient>
<linearGradient id="paint1_linear_18630_1138" x1="26.7852" y1="12.1358" x2="290.385" y2="12.1358" gradientUnits="userSpaceOnUse">
<stop stop-color="#333333"/>
<stop offset="0.5" stop-color="#8B8B8B"/>
<stop offset="1" stop-color="#333333"/>
</linearGradient>
<linearGradient id="paint2_linear_18630_1138" x1="53.1484" y1="12.1274" x2="264.028" y2="12.1274" gradientUnits="userSpaceOnUse">
<stop stop-color="#333333"/>
<stop offset="0.5" stop-color="#8B8B8B"/>
<stop offset="1" stop-color="#333333"/>
</linearGradient>
<linearGradient id="paint3_linear_18630_1138" x1="185.783" y1="113.708" x2="129.77" y2="123.124" gradientUnits="userSpaceOnUse">
<stop stop-color="#A1B6FF"/>
<stop offset="0.233619" stop-color="#0B41FC"/>
<stop offset="1" stop-color="#0B41FC" stop-opacity="0.6"/>
</linearGradient>
<linearGradient id="paint4_linear_18630_1138" x1="188.323" y1="117.628" x2="172.261" y2="117.628" gradientUnits="userSpaceOnUse">
<stop stop-color="#A0B5FF"/>
<stop offset="1" stop-color="#A0B5FF" stop-opacity="0"/>
</linearGradient>
<clipPath id="clip0_18630_1138">
<rect width="15.4281" height="16.2852" fill="white" transform="translate(209.036 149.688)"/>
</clipPath>
</defs>
</svg>
