<svg width="256" height="69" viewBox="0 0 256 69" fill="none" xmlns="http://www.w3.org/2000/svg">
<path d="M199.799 21.7012H193.699V42.8012H208.199L209.399 37.5012H199.799V21.7012Z" fill="black"/>
<path d="M225.099 33.0012C225.099 36.5012 223.399 37.8012 221.199 37.8012C218.999 37.8012 217.299 36.6012 217.299 33.0012V21.7012H211.199V33.6012C211.199 40.1012 214.699 43.4012 221.199 43.4012C227.499 43.4012 231.199 39.9012 231.199 33.5012V21.7012H225.099V33.0012Z" fill="black"/>
<path d="M70.8996 36.9008C70.8996 34.3008 69.2996 32.5008 66.3996 31.9008C68.4996 31.3008 69.7996 29.5008 69.7996 27.4008C69.7996 23.9008 67.2996 21.8008 61.9996 21.8008H53.0996V42.9008H62.2996C68.2996 42.8008 70.8996 40.7008 70.8996 36.9008ZM59.1996 26.2008H61.7996C63.4996 26.2008 64.1996 26.9008 64.1996 28.1008C64.1996 29.2008 63.4996 29.9008 61.7996 29.9008H59.1996V26.2008ZM62.0996 38.1008H59.1996V34.0008H62.0996C63.9996 34.0008 64.8996 34.7008 64.8996 36.0008C64.9996 37.4008 64.0996 38.1008 62.0996 38.1008Z" fill="black"/>
<path d="M146.599 21.7012H138.899V42.8012H146.599C153.299 42.8012 158.199 38.7012 158.199 32.2012C158.099 25.7012 153.499 21.7012 146.599 21.7012ZM146.699 37.4012H144.999V27.1012H146.799C149.999 27.1012 152.199 28.7012 152.199 32.2012C152.099 35.9012 149.899 37.4012 146.699 37.4012Z" fill="black"/>
<path d="M107.5 21.7012H100.2L92.5996 42.8012H99.7996L100.8 39.0012H106.8L107.8 42.8012H115L107.5 21.7012ZM102 34.5012L103.8 27.6012L105.6 34.5012H102Z" fill="black"/>
<path d="M90.0992 26.8012L89.3992 21.7012H74.1992V42.8012H88.8992L90.7992 37.7012H80.2992V34.6012H87.5992V29.7012H80.2992V26.8012H90.0992Z" fill="black"/>
<path d="M136.699 42.8016L131.099 34.4016C133.299 33.4016 134.599 31.4016 134.599 28.7016C134.599 24.0016 131.799 21.6016 126.099 21.6016H117.699V42.7016H123.899V35.4016H125.099L129.599 42.7016L136.699 42.8016ZM125.899 30.9016H123.999V26.5016H125.899C127.699 26.5016 128.699 27.2016 128.699 28.7016C128.699 30.2016 127.699 30.9016 125.899 30.9016Z" fill="black"/>
<path d="M181.3 26.9012C184 26.9012 185.6 29.5012 185.6 29.5012L190.5 26.4012C188.5 22.9012 185 21.2012 181 21.2012C174.7 21.2012 170 25.7012 170 32.3012C170 38.9012 174.7 43.4012 181 43.4012C185 43.4012 188.5 41.7012 190.5 38.2012L185.6 35.1012C185.6 35.1012 184.1 37.7012 181.3 37.7012C178.6 37.7012 176.4 35.5012 176.4 32.3012C176.3 29.0012 178.5 26.9012 181.3 26.9012Z" fill="black"/>
<path d="M248.6 31.8012C250.7 31.2012 252 29.4012 252 27.3012C252 23.8012 249.5 21.7012 244.2 21.7012H235.6V42.8012H244.6C250.5 42.8012 253.1 40.7012 253.1 36.8012C253 34.2012 251.4 32.5012 248.6 31.8012ZM241.6 26.2012H243.9C245.6 26.2012 246.3 26.9012 246.3 28.1012C246.3 29.2012 245.6 29.9012 243.9 29.9012H241.6V26.2012ZM244.2 38.1012H241.6V34.0012H244.2C246.1 34.0012 247 34.7012 247 36.0012C247.1 37.4012 246.2 38.1012 244.2 38.1012Z" fill="black"/>
<path d="M33.3996 25.2008C35.0996 23.3008 36.7996 20.3008 36.7996 16.4008C36.7996 9.10078 31.6996 3.30078 23.1996 3.30078H6.79961C6.39961 3.30078 5.99961 3.60078 5.99961 4.10078V31.1008C5.99961 31.6008 6.59961 31.9008 6.89961 31.6008C8.49961 30.4008 12.2996 28.2008 18.3996 28.2008C27.3996 28.2008 34.8996 34.2008 34.8996 43.1008C34.8996 50.4008 29.2996 57.7008 20.7996 57.7008C14.6996 57.7008 10.1996 53.8008 10.1996 48.2008C10.1996 43.5008 12.9996 39.3008 18.4996 39.3008C20.7996 39.3008 22.7996 40.9008 23.7996 42.4008C23.9996 42.7008 24.4996 42.8008 24.8996 42.6008L30.3996 39.2008C30.6996 39.0008 30.8996 38.6008 30.6996 38.2008C28.7996 34.2008 24.1996 31.4008 18.4996 31.4008C9.49961 31.4008 2.09961 37.5008 2.09961 48.2008C2.09961 57.0008 8.49961 65.0008 20.7996 65.0008C34.5996 65.0008 42.9996 53.7008 42.9996 43.1008C43.0996 33.5008 37.7996 28.1008 33.3996 25.2008ZM23.1996 21.7008H14.0996V11.4008H23.2996C26.8996 11.4008 28.5996 13.9008 28.5996 16.6008C28.6996 19.5008 26.4996 21.7008 23.1996 21.7008Z" fill="#020203"/>
</svg>
