<svg width="70" height="67" viewBox="0 0 70 67" fill="none" xmlns="http://www.w3.org/2000/svg">
<mask id="mask0_19589_9016" style="mask-type:luminance" maskUnits="userSpaceOnUse" x="0" y="0" width="70" height="67">
<path d="M70 0H0V67H70V0Z" fill="white"/>
<path d="M69.9385 0.0615234V66.9385H0.0615234V0.0615234H69.9385Z" stroke="white" stroke-width="0.122698"/>
</mask>
<g mask="url(#mask0_19589_9016)">
<path d="M36 66C53.9492 66 68.5 51.4492 68.5 33.5C68.5 15.5508 53.9492 1 36 1C18.0508 1 3.5 15.5508 3.5 33.5C3.5 51.4492 18.0508 66 36 66Z" stroke="white" stroke-width="1.48653" stroke-miterlimit="10"/>
<mask id="mask1_19589_9016" style="mask-type:luminance" maskUnits="userSpaceOnUse" x="3" y="1" width="66" height="65">
<path d="M36 66C53.9492 66 68.5 51.4492 68.5 33.5C68.5 15.5508 53.9492 1 36 1C18.0508 1 3.5 15.5508 3.5 33.5C3.5 51.4492 18.0508 66 36 66Z" fill="white"/>
<path d="M36 1.06152C53.9153 1.06153 68.4385 15.5847 68.4385 33.5C68.4385 51.4153 53.9153 65.9385 36 65.9385C18.0847 65.9385 3.56154 51.4153 3.56152 33.5C3.56152 15.5847 18.0847 1.06152 36 1.06152Z" stroke="#ECF9FF" stroke-opacity="0.33" stroke-width="0.122698"/>
</mask>
<g mask="url(#mask1_19589_9016)">
<path d="M107.004 -3.05566L89.7998 33.248L89.7822 33.2852L89.7734 33.3252C88.3585 39.5613 85.6781 42.9331 82.5146 44.5469C79.3374 46.1677 75.5904 46.0585 71.9609 45.1533C68.3358 44.2492 64.8764 42.5633 62.3164 41.0967C61.0381 40.3643 59.9878 39.6882 59.2578 39.1963C58.893 38.9504 58.608 38.7503 58.415 38.6123C58.3188 38.5435 58.2454 38.4901 58.1963 38.4541C58.1717 38.4361 58.1528 38.4221 58.1406 38.4131C58.1347 38.4086 58.1298 38.4055 58.127 38.4033C58.1256 38.4023 58.1247 38.4009 58.124 38.4004H58.123L57.5576 37.9746L57.5283 38.6816C57.446 40.6737 56.5023 42.684 55.5518 44.2188C55.0795 44.9813 54.6117 45.6166 54.2627 46.0605C54.1647 46.1852 54.0727 46.2919 53.9961 46.3848C53.9679 46.3451 53.9396 46.3012 53.9072 46.2568C53.6615 45.9201 53.2941 45.4519 52.8037 44.9189C51.8231 43.8532 50.3447 42.5234 48.3564 41.4717C44.3581 39.3567 38.3562 38.3991 30.3076 42.8232C26.3837 44.9802 23.039 45.7173 20.2363 45.6299C17.4343 45.5425 15.149 44.6299 13.3428 43.4502C11.5338 42.2687 10.205 40.8183 9.32812 39.6602C8.89032 39.0819 8.5661 38.5781 8.35254 38.2207C8.24593 38.0423 8.16714 37.9 8.11523 37.8037C8.08943 37.7559 8.07003 37.7195 8.05762 37.6953L8.04102 37.6621L8.04004 37.6611L7.83887 37.25L7.47754 37.5322C5.37879 39.1755 3.48834 39.7278 1.8418 39.668C0.189369 39.6079 -1.2636 38.929 -2.47754 38.0303C-3.69209 37.1311 -4.65235 36.0225 -5.31055 35.1328C-5.63868 34.6893 -5.88995 34.3029 -6.05859 34.0283C-6.14271 33.8914 -6.20595 33.7821 -6.24805 33.708C-6.26891 33.6713 -6.2847 33.6427 -6.29492 33.624C-6.30003 33.6147 -6.30428 33.6069 -6.30664 33.6025C-6.30755 33.6009 -6.30812 33.5995 -6.30859 33.5986L-6.30957 33.5977L-6.72852 32.8076L-6.99316 33.6611C-7.77533 36.1859 -10.2808 37.129 -12.7578 37.4092C-13.9807 37.5475 -15.1562 37.5177 -16.0283 37.4531C-16.4636 37.4209 -16.8221 37.3804 -17.0703 37.3477C-17.0803 37.3463 -17.09 37.3441 -17.0996 37.3428C-17.0886 37.2514 -17.0738 37.1443 -17.0615 37.0215C-17.0168 36.5734 -16.9694 35.9192 -16.9561 35.0908C-16.9294 33.4343 -17.0404 31.0763 -17.5879 28.2588C-18.6836 22.6207 -21.5273 15.1466 -28.5068 7.77344C-35.3331 0.56218 -36.0492 -7.3104 -35.0586 -13.3975C-34.5627 -16.4448 -33.6384 -19.0426 -32.8379 -20.8789C-32.4379 -21.7966 -32.0696 -22.5231 -31.8018 -23.0186C-31.668 -23.2661 -31.5591 -23.4558 -31.4844 -23.583C-31.447 -23.6466 -31.4177 -23.6949 -31.3984 -23.7266C-31.3889 -23.7423 -31.3816 -23.7542 -31.377 -23.7617C-31.3748 -23.7652 -31.3731 -23.7678 -31.3721 -23.7695L-31.3711 -23.7715V-23.7725L-31.2051 -24.0352L-31.4346 -24.2451C-35.4443 -27.8941 -36.5567 -32.0148 -35.9912 -36.1641C-35.4221 -40.3397 -33.1494 -44.5672 -30.3379 -48.3662C-27.5304 -52.1598 -24.2092 -55.4947 -21.5859 -57.8838C-20.2751 -59.0776 -19.1404 -60.0334 -18.334 -60.6904C-17.9308 -61.0189 -17.6094 -61.2731 -17.3896 -61.4443C-17.3285 -61.492 -17.2755 -61.5337 -17.2305 -61.5684L107.004 -3.05566Z" stroke="white" stroke-width="0.743267"/>
</g>
<path d="M37.8447 55.0615C38.2544 55.0615 38.5684 55.2 38.7812 55.4541C38.9954 55.71 39.1143 56.0912 39.1143 56.5869V58.0078C39.1143 58.218 39.1875 58.4223 39.3213 58.5859V58.5869L39.4033 58.6875C39.4847 58.7868 39.4141 58.9375 39.2822 58.9375H37.8213C37.708 58.9375 37.6341 58.8235 37.6787 58.7227L37.8008 58.4482C37.8698 58.2937 37.9053 58.1269 37.9053 57.959V56.6367C37.9053 56.3846 37.8516 56.1789 37.7402 56.0352C37.627 55.889 37.4599 55.8145 37.252 55.8145C36.9379 55.8145 36.6926 55.9849 36.5098 56.2969C36.3598 56.5536 36.2881 56.8463 36.2881 57.1406V57.9551C36.2881 58.1681 36.3632 58.3742 36.499 58.5381L36.624 58.6875C36.7068 58.7866 36.6359 58.9385 36.5029 58.9385H34.9639C34.8496 58.9385 34.7749 58.8224 34.8213 58.7217L34.9648 58.4102C35.0371 58.2526 35.0742 58.0825 35.0742 57.9102V56.4346C35.0741 56.1449 34.9696 55.8648 34.7783 55.6455L34.5996 55.4385C34.5138 55.3401 34.5833 55.1855 34.7178 55.1855H35.9502C36.0566 55.1855 36.1426 55.2715 36.1426 55.375V55.5898C36.1425 55.6618 36.1276 55.7322 36.0996 55.7979L36.0674 55.8623L35.9805 56.0117C35.9567 56.0538 35.962 56.1057 35.9912 56.1416L36.0273 56.1709L36.0908 56.2041V56.2031C36.1312 56.2245 36.1796 56.2208 36.2148 56.1943L36.2451 56.1602C36.3999 55.8937 36.5238 55.6242 36.749 55.415C36.9695 55.2102 37.2911 55.0615 37.8447 55.0615Z" fill="white" stroke="white" stroke-width="0.122698"/>
<path d="M40.7773 54.0615H41.3457C41.4253 54.0615 41.4841 54.1213 41.4844 54.1875V54.7324C41.4844 54.7556 41.4634 54.7802 41.4297 54.7803H41.3281C41.2687 54.7805 41.218 54.8277 41.2178 54.8887V54.959C41.2178 55.0222 41.2722 55.0684 41.3301 55.0684H42.3184C42.3771 55.0685 42.4179 55.1122 42.418 55.1592V55.4092C42.4177 55.456 42.377 55.4998 42.3184 55.5H41.4844V57.6182C41.4844 57.883 41.5357 58.092 41.6523 58.2354C41.7713 58.3813 41.9492 58.4492 42.1738 58.4492H42.1748C42.2239 58.448 42.2794 58.4407 42.334 58.4307L42.3447 58.4277C42.3826 58.4245 42.4115 58.4421 42.4268 58.4668C42.4431 58.4933 42.4443 58.5269 42.4189 58.5557C42.2032 58.7994 41.8413 58.9384 41.4355 58.9385C41.0274 58.9385 40.7197 58.8236 40.5137 58.6133C40.3075 58.4026 40.1943 58.0872 40.1943 57.6689V55.499H39.6621C39.603 55.499 39.5615 55.4543 39.5615 55.4072V55.1582C39.5615 55.1112 39.603 55.0674 39.6621 55.0674H39.8145C40.1019 55.0673 40.2862 54.8848 40.4033 54.6895C40.4615 54.5923 40.505 54.4883 40.5381 54.3965L40.6094 54.1758C40.6315 54.1097 40.6988 54.0615 40.7773 54.0615Z" fill="white" stroke="white" stroke-width="0.122698"/>
<path d="M32.3096 55.0615C32.8648 55.0616 33.2752 55.188 33.5459 55.4229C33.815 55.6565 33.9551 56.006 33.9551 56.4717V57.8135C33.9551 57.9624 33.995 58.0921 34.0713 58.1807C34.1347 58.2542 34.2204 58.2936 34.3193 58.2939V58.3047L34.3926 58.29C34.4097 58.2866 34.422 58.2922 34.4287 58.2988C34.4344 58.3046 34.4423 58.3178 34.4365 58.3438C34.4001 58.4869 34.324 58.6167 34.2041 58.7109C34.0844 58.8049 33.9164 58.8672 33.6895 58.8672C33.3402 58.8671 33.0773 58.7051 32.96 58.459L32.9121 58.3594L32.8525 58.4531C32.663 58.751 32.2499 58.9385 31.7363 58.9385C31.3674 58.9384 31.0734 58.8436 30.873 58.6787C30.6739 58.5148 30.5615 58.2769 30.5615 57.9795C30.5616 57.7167 30.6548 57.4805 30.8369 57.2891C31.0197 57.097 31.2952 56.9469 31.6621 56.8633H31.6631C31.9635 56.786 32.3946 56.7451 32.7812 56.7451H32.8428V56.4297C32.8428 56.1021 32.7716 55.8249 32.627 55.6279C32.4803 55.4285 32.262 55.3165 31.9844 55.3164C31.6362 55.3164 31.4008 55.5061 31.3447 55.5557L31.2695 55.6221L31.3633 55.6582C31.3904 55.6689 31.4595 55.7084 31.5215 55.7783C31.5823 55.847 31.6348 55.9434 31.6348 56.0723C31.6348 56.3223 31.424 56.5293 31.1621 56.5293C30.9899 56.5293 30.8394 56.4398 30.7568 56.3076C30.7022 56.21 30.67 56.1133 30.6699 56.0186C30.6708 55.7387 30.8272 55.5018 31.1123 55.332C31.3987 55.1615 31.8118 55.0615 32.3096 55.0615ZM32.7783 57.0215C32.5285 57.0289 32.2532 57.0722 32.0713 57.1562C31.7924 57.2828 31.6671 57.5452 31.667 57.834C31.667 58.0214 31.7243 58.1804 31.8291 58.293C31.9342 58.4059 32.0828 58.4668 32.2549 58.4668C32.4115 58.4667 32.5483 58.4178 32.6514 58.3242C32.7541 58.2309 32.8188 58.0974 32.8408 57.9365H32.8418V57.0195L32.7783 57.0215Z" fill="white" stroke="white" stroke-width="0.122698"/>
<path d="M44.3096 55.0615C44.8648 55.0616 45.2752 55.188 45.5459 55.4229C45.815 55.6565 45.9551 56.006 45.9551 56.4717V57.8135C45.9551 57.9624 45.995 58.0921 46.0713 58.1807C46.1347 58.2542 46.2204 58.2936 46.3193 58.2939V58.3047L46.3926 58.29C46.4097 58.2866 46.422 58.2922 46.4287 58.2988C46.4344 58.3046 46.4423 58.3178 46.4365 58.3438C46.4001 58.4869 46.324 58.6167 46.2041 58.7109C46.0844 58.8049 45.9164 58.8672 45.6895 58.8672C45.3402 58.8671 45.0773 58.7051 44.96 58.459L44.9121 58.3594L44.8525 58.4531C44.663 58.751 44.2499 58.9385 43.7363 58.9385C43.3674 58.9384 43.0734 58.8436 42.873 58.6787C42.6739 58.5148 42.5615 58.2769 42.5615 57.9795C42.5616 57.7167 42.6548 57.4805 42.8369 57.2891C43.0197 57.097 43.2952 56.9469 43.6621 56.8633H43.6631C43.9635 56.786 44.3946 56.7451 44.7812 56.7451H44.8428V56.4297C44.8428 56.1021 44.7716 55.8249 44.627 55.6279C44.4803 55.4285 44.262 55.3165 43.9844 55.3164C43.6362 55.3164 43.4008 55.5061 43.3447 55.5557L43.2695 55.6221L43.3633 55.6582C43.3904 55.6689 43.4595 55.7084 43.5215 55.7783C43.5823 55.847 43.6348 55.9434 43.6348 56.0723C43.6348 56.3223 43.424 56.5293 43.1621 56.5293C42.9899 56.5293 42.8394 56.4398 42.7568 56.3076C42.7022 56.21 42.67 56.1133 42.6699 56.0186C42.6708 55.7387 42.8272 55.5018 43.1123 55.332C43.3987 55.1615 43.8118 55.0615 44.3096 55.0615ZM44.7783 57.0215C44.5285 57.0289 44.2532 57.0722 44.0713 57.1562C43.7924 57.2828 43.6671 57.5452 43.667 57.834C43.667 58.0214 43.7243 58.1804 43.8291 58.293C43.9342 58.4059 44.0828 58.4668 44.2549 58.4668C44.4115 58.4667 44.5483 58.4178 44.6514 58.3242C44.7541 58.2309 44.8188 58.0974 44.8408 57.9365H44.8418V57.0195L44.7783 57.0215Z" fill="white" stroke="white" stroke-width="0.122698"/>
<path d="M25.7412 54.0625H27.2969C27.3865 54.0625 27.4521 54.1429 27.4404 54.2285L27.4307 54.2646L27.3281 54.5186C27.2541 54.7001 27.2506 54.9039 27.3203 55.0879L28.2861 57.6592C28.2948 57.6822 28.3 57.7065 28.3018 57.7305L28.2959 57.8008C28.2849 57.8452 28.2674 57.8903 28.2402 57.9268C28.2269 57.9429 28.2144 57.9651 28.2139 57.9922C28.2134 58.0239 28.23 58.0488 28.251 58.0654V58.0664L28.3115 58.1152L28.3125 58.1162C28.3576 58.1503 28.4123 58.1362 28.4424 58.1084L28.4443 58.1064C28.4633 58.0873 28.486 58.0497 28.5088 58.0059C28.533 57.9593 28.5601 57.8976 28.5869 57.8262L29.7275 54.9375C29.7969 54.7609 29.7762 54.5615 29.6729 54.4023L29.5635 54.2354C29.5148 54.1607 29.5687 54.0625 29.6562 54.0625H30.3008C30.3987 54.0674 30.465 54.1672 30.4277 54.2617L28.6318 58.8242V58.8252C28.6052 58.8937 28.5393 58.9385 28.4658 58.9385H27.6982C27.644 58.9385 27.5933 58.913 27.5596 58.8711L27.5322 58.8242L26.1455 55.1748H26.1445C26.0683 54.9808 25.9668 54.7988 25.8418 54.6338L25.709 54.4746L25.6104 54.3662H25.6094C25.5025 54.2498 25.5856 54.0625 25.7412 54.0625Z" fill="white" stroke="white" stroke-width="0.122698"/>
<path d="M35.9297 5.0625C44.595 5.00029 53.0074 9.22923 58.166 16.2529C59.1864 17.6375 60.0778 19.1143 60.8252 20.6592C62.2168 23.5587 63.1019 26.6969 63.3896 29.875L63.4385 30.5117C63.4395 30.6731 63.3307 30.7665 63.2129 30.7812C63.1532 30.7887 63.0925 30.7754 63.043 30.7412C63.0064 30.7159 62.9737 30.6775 62.9521 30.623L62.9346 30.5625C61.2795 18.8919 52.3037 9.29218 40.7559 7.26562C29.2978 5.13214 17.5866 10.9398 12.1201 21.3135C10.5608 24.2158 9.53992 27.4169 9.06543 30.7197C9.0449 30.86 8.91571 30.9558 8.77832 30.9355C8.64864 30.9169 8.5539 30.7978 8.56152 30.667V30.666C9.43426 16.517 21.3387 5.39151 35.2646 5.06934L35.9297 5.0625Z" fill="white" stroke="white" stroke-width="0.122698"/>
<mask id="path-13-inside-1_19589_9016" fill="white">
<path d="M20.5 51.8716H21.0244V50.3617H21.7406C22.891 50.3617 23.3139 49.8363 23.3139 49.1781C23.3139 48.5199 22.891 48 21.7518 48H20.5V51.8716ZM21.0244 49.9414V48.4315H21.7462C22.5019 48.4315 22.7613 48.7522 22.7613 49.1892C22.7613 49.6261 22.5019 49.9414 21.7462 49.9414H21.0244ZM25.1552 51.9491C26.097 51.9491 26.6609 51.3296 26.6609 50.4226C26.6609 49.51 26.097 48.8905 25.1552 48.8905C24.2079 48.8905 23.644 49.51 23.644 50.4226C23.644 51.3296 24.2079 51.9491 25.1552 51.9491ZM25.1552 51.5453C24.5519 51.5453 24.1628 51.1527 24.1628 50.4226C24.1628 49.6925 24.5519 49.2943 25.1552 49.2943C25.7587 49.2943 26.1421 49.6925 26.1421 50.4226C26.1421 51.1527 25.7587 51.5453 25.1552 51.5453ZM30.8292 48.9679L30.1299 51.3296L29.4306 48.9679H28.9175L28.2182 51.302L27.5246 48.9679H26.9889L27.9249 51.8716H28.455L29.143 49.5598L29.8423 51.8716H30.3667L31.3084 48.9679H30.8292ZM33.0447 48.8905C32.2044 48.8905 31.6349 49.4712 31.6349 50.406C31.6349 51.3131 32.1649 51.9491 33.0785 51.9491C33.8398 51.9491 34.2853 51.5011 34.3925 50.9591L33.93 50.8817C33.8173 51.3352 33.5127 51.5453 33.0785 51.5453C32.4244 51.5453 32.1424 51.0753 32.1311 50.5111H34.415C34.4714 49.5543 33.9469 48.8905 33.0447 48.8905ZM32.1311 50.146C32.1593 49.7423 32.4469 49.2887 33.0447 49.2887C33.6537 49.2887 33.9075 49.7589 33.9075 50.146H32.1311ZM35.1088 51.8716H35.6051V50.2843C35.6051 49.5818 35.9265 49.3275 36.3946 49.3275C36.513 49.3275 36.6314 49.3441 36.7555 49.3772V48.9458C36.6652 48.9127 36.5694 48.8905 36.4397 48.8905C36.0788 48.8905 35.7742 49.062 35.6051 49.4492V48.9679H35.1088V51.8716ZM38.3976 48.8905C37.5573 48.8905 36.9878 49.4712 36.9878 50.406C36.9878 51.3131 37.5179 51.9491 38.4314 51.9491C39.1927 51.9491 39.6382 51.5011 39.7454 50.9591L39.2829 50.8817C39.1701 51.3352 38.8657 51.5453 38.4314 51.5453C37.7772 51.5453 37.4953 51.0753 37.4841 50.5111H39.7679C39.8243 49.5543 39.2998 48.8905 38.3976 48.8905ZM37.4841 50.146C37.5122 49.7423 37.7998 49.2887 38.3976 49.2887C39.0066 49.2887 39.2604 49.7589 39.2604 50.146H37.4841ZM42.6046 48V49.4712C42.4467 49.1118 42.0914 48.8905 41.6122 48.8905C40.8283 48.8905 40.2644 49.51 40.2644 50.4226C40.2644 51.3296 40.817 51.9491 41.6122 51.9491C42.0971 51.9491 42.4523 51.7168 42.6046 51.3407V51.8716H43.0896V48H42.6046ZM41.708 51.5398C41.2004 51.5398 40.7888 51.1803 40.7888 50.4226C40.7888 49.6538 41.2004 49.2943 41.708 49.2943C42.2155 49.2943 42.6329 49.6538 42.6329 50.4226C42.6329 51.1803 42.2155 51.5398 41.708 51.5398ZM46.9193 48.8905C46.4399 48.8905 46.0452 49.1173 45.859 49.4768V48H45.3741V51.8716H45.8026L45.859 51.385C46.0677 51.739 46.4286 51.9491 46.908 51.9491C47.7312 51.9491 48.2106 51.302 48.2106 50.4171C48.2106 49.51 47.7031 48.8905 46.9193 48.8905ZM46.7726 51.5398C46.2651 51.5398 45.8477 51.1803 45.8477 50.4171C45.8477 49.6538 46.2594 49.2943 46.7726 49.2943C47.2802 49.2943 47.6918 49.6538 47.6918 50.4171C47.6918 51.1803 47.2802 51.5398 46.7726 51.5398ZM50.9981 48.9679L50.0056 51.2522L48.9962 48.9679H48.4435L49.7293 51.8053L49.6334 51.9823C49.4135 52.4081 49.3119 52.5575 48.9962 52.5575C48.8778 52.5575 48.7142 52.5188 48.5732 52.4635V52.9004C48.7199 52.9612 48.8947 53 49.03 53C49.5545 53 49.8082 52.74 50.1353 52.0099L51.5 48.9679H50.9981Z"/>
</mask>
<path d="M20.5 51.8716H21.0244V50.3617H21.7406C22.891 50.3617 23.3139 49.8363 23.3139 49.1781C23.3139 48.5199 22.891 48 21.7518 48H20.5V51.8716ZM21.0244 49.9414V48.4315H21.7462C22.5019 48.4315 22.7613 48.7522 22.7613 49.1892C22.7613 49.6261 22.5019 49.9414 21.7462 49.9414H21.0244ZM25.1552 51.9491C26.097 51.9491 26.6609 51.3296 26.6609 50.4226C26.6609 49.51 26.097 48.8905 25.1552 48.8905C24.2079 48.8905 23.644 49.51 23.644 50.4226C23.644 51.3296 24.2079 51.9491 25.1552 51.9491ZM25.1552 51.5453C24.5519 51.5453 24.1628 51.1527 24.1628 50.4226C24.1628 49.6925 24.5519 49.2943 25.1552 49.2943C25.7587 49.2943 26.1421 49.6925 26.1421 50.4226C26.1421 51.1527 25.7587 51.5453 25.1552 51.5453ZM30.8292 48.9679L30.1299 51.3296L29.4306 48.9679H28.9175L28.2182 51.302L27.5246 48.9679H26.9889L27.9249 51.8716H28.455L29.143 49.5598L29.8423 51.8716H30.3667L31.3084 48.9679H30.8292ZM33.0447 48.8905C32.2044 48.8905 31.6349 49.4712 31.6349 50.406C31.6349 51.3131 32.1649 51.9491 33.0785 51.9491C33.8398 51.9491 34.2853 51.5011 34.3925 50.9591L33.93 50.8817C33.8173 51.3352 33.5127 51.5453 33.0785 51.5453C32.4244 51.5453 32.1424 51.0753 32.1311 50.5111H34.415C34.4714 49.5543 33.9469 48.8905 33.0447 48.8905ZM32.1311 50.146C32.1593 49.7423 32.4469 49.2887 33.0447 49.2887C33.6537 49.2887 33.9075 49.7589 33.9075 50.146H32.1311ZM35.1088 51.8716H35.6051V50.2843C35.6051 49.5818 35.9265 49.3275 36.3946 49.3275C36.513 49.3275 36.6314 49.3441 36.7555 49.3772V48.9458C36.6652 48.9127 36.5694 48.8905 36.4397 48.8905C36.0788 48.8905 35.7742 49.062 35.6051 49.4492V48.9679H35.1088V51.8716ZM38.3976 48.8905C37.5573 48.8905 36.9878 49.4712 36.9878 50.406C36.9878 51.3131 37.5179 51.9491 38.4314 51.9491C39.1927 51.9491 39.6382 51.5011 39.7454 50.9591L39.2829 50.8817C39.1701 51.3352 38.8657 51.5453 38.4314 51.5453C37.7772 51.5453 37.4953 51.0753 37.4841 50.5111H39.7679C39.8243 49.5543 39.2998 48.8905 38.3976 48.8905ZM37.4841 50.146C37.5122 49.7423 37.7998 49.2887 38.3976 49.2887C39.0066 49.2887 39.2604 49.7589 39.2604 50.146H37.4841ZM42.6046 48V49.4712C42.4467 49.1118 42.0914 48.8905 41.6122 48.8905C40.8283 48.8905 40.2644 49.51 40.2644 50.4226C40.2644 51.3296 40.817 51.9491 41.6122 51.9491C42.0971 51.9491 42.4523 51.7168 42.6046 51.3407V51.8716H43.0896V48H42.6046ZM41.708 51.5398C41.2004 51.5398 40.7888 51.1803 40.7888 50.4226C40.7888 49.6538 41.2004 49.2943 41.708 49.2943C42.2155 49.2943 42.6329 49.6538 42.6329 50.4226C42.6329 51.1803 42.2155 51.5398 41.708 51.5398ZM46.9193 48.8905C46.4399 48.8905 46.0452 49.1173 45.859 49.4768V48H45.3741V51.8716H45.8026L45.859 51.385C46.0677 51.739 46.4286 51.9491 46.908 51.9491C47.7312 51.9491 48.2106 51.302 48.2106 50.4171C48.2106 49.51 47.7031 48.8905 46.9193 48.8905ZM46.7726 51.5398C46.2651 51.5398 45.8477 51.1803 45.8477 50.4171C45.8477 49.6538 46.2594 49.2943 46.7726 49.2943C47.2802 49.2943 47.6918 49.6538 47.6918 50.4171C47.6918 51.1803 47.2802 51.5398 46.7726 51.5398ZM50.9981 48.9679L50.0056 51.2522L48.9962 48.9679H48.4435L49.7293 51.8053L49.6334 51.9823C49.4135 52.4081 49.3119 52.5575 48.9962 52.5575C48.8778 52.5575 48.7142 52.5188 48.5732 52.4635V52.9004C48.7199 52.9612 48.8947 53 49.03 53C49.5545 53 49.8082 52.74 50.1353 52.0099L51.5 48.9679H50.9981Z" fill="white" stroke="white" stroke-width="0.245396" mask="url(#path-13-inside-1_19589_9016)"/>
<path d="M21.7891 19.0615C22.5457 19.0615 23.3376 19.3233 24.0205 19.8066L24.0488 19.8271L24.0811 19.8125L25.2559 19.2861V21.3838L24.3955 20.6885C23.4098 19.8979 22.5918 19.5137 21.9004 19.5137C21.5496 19.5137 21.26 19.6077 21.0576 19.7822C20.8544 19.9577 20.7451 20.2097 20.7451 20.5127C20.7451 20.8173 20.8524 21.0783 21.0928 21.3105C21.3306 21.5402 21.6976 21.7408 22.2139 21.9336L22.2158 21.9346L23.3877 22.3389C24.2947 22.6521 24.9361 22.9896 25.3496 23.3828C25.7602 23.7733 25.9482 24.2206 25.9482 24.7627C25.9482 25.4104 25.686 25.953 25.2285 26.334C24.7701 26.7157 24.112 26.9384 23.3193 26.9385C22.5364 26.9385 21.6532 26.7171 21.0039 26.3604L20.9766 26.3457L20.9482 26.3584L19.7842 26.8936V24.7256L20.7803 25.4834L20.7822 25.4844C21.6927 26.1277 22.5759 26.4648 23.3633 26.4648C23.7906 26.4648 24.1357 26.364 24.375 26.167C24.616 25.9685 24.7421 25.6787 24.7422 25.3174C24.7422 24.9818 24.6354 24.7113 24.3779 24.4727C24.1878 24.2965 23.9165 24.1386 23.5498 23.9805L23.1504 23.8213L23.1484 23.8203L21.8535 23.3838H21.8545C20.3115 22.8437 19.5617 22.05 19.5615 21.0137C19.5615 20.4399 19.7912 19.9531 20.1826 19.6094C20.5745 19.2651 21.1317 19.0615 21.7891 19.0615ZM30.6748 19.0615C31.8393 19.0615 32.7712 19.4348 33.4121 20.1113C34.0534 20.7883 34.4101 21.7757 34.4102 23.0156C34.4102 24.2449 34.0533 25.2248 33.4121 25.8965C32.7712 26.5678 31.8394 26.9385 30.6748 26.9385C29.5215 26.9385 28.5982 26.5677 27.9629 25.8965C27.3272 25.2248 26.9727 24.245 26.9727 23.0156C26.9727 21.803 27.3377 20.8149 27.9795 20.1309C28.621 19.4472 29.5449 19.0615 30.6748 19.0615ZM39.2109 19.0615C39.9184 19.0615 40.5978 19.2201 41.0312 19.499L41.0596 19.5166L41.0898 19.5039L41.7744 19.2002V21.5576L41.2617 20.7461C40.7402 19.9136 40.0639 19.4824 39.2891 19.4824C38.6073 19.4825 38.0801 19.8012 37.7266 20.4043C37.3753 21.0036 37.1954 21.8818 37.1953 23.0049C37.1953 24.1494 37.3832 25.0261 37.7549 25.6182C38.1294 26.2145 38.6883 26.5175 39.4121 26.5176C40.2972 26.5176 41.0641 26.0453 41.5869 25.1562L41.5859 25.1553L41.9414 24.5674V26.3623C41.1195 26.732 40.15 26.9385 39.2559 26.9385C38.079 26.9385 37.1647 26.5879 36.5439 25.9424C35.9228 25.2965 35.5879 24.3469 35.5879 23.1328C35.588 21.8773 35.9526 20.8599 36.585 20.1572C37.217 19.4551 38.1212 19.0616 39.2109 19.0615ZM48.5859 19.0615C49.4362 19.0616 50.125 19.2723 50.5996 19.6475C51.0725 20.0214 51.3379 20.5628 51.3379 21.2373C51.3378 22.3754 50.6041 23.3605 48.5615 24.8193H48.5605L48.5566 24.8232L47.8311 25.4512L47.7061 25.5596H50.2852L50.3037 25.542L51.4385 24.4287V26.8213H45.6211L47.8555 24.8516C49.1372 23.7253 49.7412 22.6018 49.7412 21.2793C49.7412 20.7127 49.6169 20.2685 49.375 19.9648C49.1312 19.659 48.7742 19.503 48.3291 19.5029C47.8789 19.5029 47.5226 19.6552 47.2773 19.9385C47.0334 20.2202 46.9049 20.6246 46.8936 21.1182V21.1191C46.888 21.4501 46.8302 21.6772 46.7256 21.8203C46.6241 21.959 46.4719 22.0283 46.252 22.0283C46.0378 22.0283 45.8742 21.9567 45.7637 21.8252C45.6518 21.6921 45.5869 21.4893 45.5869 21.2158C45.5869 20.599 45.8913 20.062 46.418 19.6777C46.9455 19.293 47.6973 19.0615 48.5859 19.0615ZM30.6748 19.5029C29.989 19.5029 29.4606 19.7997 29.1074 20.3896C28.7572 20.9749 28.5811 21.8458 28.5811 22.9951C28.5811 24.1496 28.7546 25.0228 29.1035 25.6094C29.4553 26.2008 29.9836 26.4971 30.6748 26.4971C31.3771 26.4971 31.9141 26.1955 32.2715 25.6016C32.626 25.0124 32.8017 24.139 32.8018 22.9951C32.8018 21.8506 32.6202 20.9792 32.2627 20.3926C31.9026 19.8017 31.366 19.5029 30.6748 19.5029Z" fill="white" stroke="white" stroke-width="0.122698"/>
<path d="M47.4385 30.0615V34.9385H46.6084V30.0615H47.4385ZM45.1729 30.0615V34.9385H44.3418V30.0615H45.1729ZM41.2793 30.0615V30.7383H39.2754V32.0967H41.1504V32.7168H39.2754V34.2471H41.2793V34.9385H38.458V30.0615H41.2793ZM35.6377 30.0615C36.2328 30.0615 36.6637 30.2174 36.9453 30.4795C37.2264 30.7412 37.3672 31.1163 37.3672 31.5713C37.3672 32.0226 37.2265 32.3976 36.9385 32.6602C36.6498 32.9233 36.2045 33.081 35.5801 33.0811H34.752V34.9385H33.9277V30.0615H35.6377ZM28.0654 30.0615V30.7383H26.7314V34.9385H25.8945V30.7383H24.5615V30.0615H28.0654ZM34.752 32.4609H35.502C35.8451 32.4609 36.1 32.3829 36.2686 32.2305C36.4381 32.077 36.5107 31.8574 36.5107 31.5996C36.5107 31.3421 36.438 31.1231 36.2686 30.9697C36.1 30.8173 35.8451 30.7383 35.502 30.7383H34.752V32.4609ZM30.4023 32.7031L30.3926 32.6885L28.7266 30.0615H29.6885L30.8164 31.8818L30.8691 31.9658L30.9209 31.8828L32.0557 30.0615H32.8711L31.2227 32.6963L31.2139 32.7109V34.9385H30.4023V32.7031Z" fill="white" stroke="white" stroke-width="0.122698"/>
</g>
</svg>
