<svg width="13" height="13" viewBox="0 0 13 13" fill="none" xmlns="http://www.w3.org/2000/svg">
<path d="M0.191344 4.93884C1.04992 1.45395 4.55979 -0.670353 8.02974 0.191918C11.5007 1.05386 13.617 4.57686 12.7584 8.06109C11.8995 11.5453 8.39032 13.6706 4.91938 12.808C1.4491 11.9461 -0.66821 8.42275 0.191344 4.93884Z" fill="#54B948"/>
<path d="M0.448853 6.52741L6.42647 10.3598L12.4044 6.52741L6.42647 2.69531L0.448853 6.52741Z" fill="#FFD203"/>
<path d="M6.42659 3.95312C7.8401 3.95312 8.98628 5.10413 8.98628 6.52351C8.98628 7.94289 7.8401 9.09423 6.42659 9.09423C5.01309 9.09423 3.8656 7.94355 3.8656 6.52351C3.8656 5.10348 5.01178 3.95312 6.42659 3.95312Z" fill="#2E3192"/>
<path d="M8.97337 6.7845C7.85337 5.88741 6.42252 5.37071 4.87847 5.42589C4.60526 5.43509 4.33662 5.46432 4.07388 5.50834C4.01891 5.63546 3.97441 5.7685 3.94104 5.90548C4.24926 5.84339 4.56599 5.8043 4.89155 5.79248C6.41532 5.7386 7.82359 6.27469 8.89812 7.19576C8.93411 7.06306 8.95963 6.92542 8.97337 6.7845Z" fill="white"/>
<path d="M4.19875 5.6702L4.22721 5.73097L4.27957 5.74575L4.3257 5.7175L4.33519 5.6495L4.30738 5.58841L4.2547 5.57494L4.20791 5.60319L4.19842 5.6702H4.19875ZM4.14771 5.67874L4.15 5.6137L4.16734 5.57625L4.19646 5.54899L4.24914 5.53125L4.34108 5.55293L4.38787 5.64261L4.36824 5.74181L4.28644 5.78845L4.19384 5.7671L4.14771 5.67841V5.67874Z" fill="#0C9C51"/>
<path d="M4.53803 5.6107L4.57467 5.60741L4.61983 5.60052L4.63291 5.58836L4.63651 5.56931L4.62833 5.54927L4.60772 5.54139L4.57042 5.54402L4.53181 5.5473L4.5377 5.6107H4.53803ZM4.50007 5.75983L4.47815 5.50953L4.58318 5.5L4.64306 5.50132L4.67381 5.52267L4.68854 5.56143L4.6761 5.60906L4.62866 5.63665L4.65778 5.65537L4.68919 5.69348L4.7242 5.7398L4.66433 5.74505L4.62277 5.69381L4.59365 5.65964L4.57762 5.65012H4.55144L4.54097 5.65078L4.55046 5.75523L4.50007 5.75983Z" fill="#0C9C51"/>
<path d="M4.85541 5.51992L4.85999 5.68646L4.89794 5.68548L4.9287 5.68252L4.94833 5.67103L4.96077 5.64606L4.96535 5.6004L4.9588 5.55606L4.94343 5.53175L4.91987 5.52091L4.87831 5.51992H4.85541ZM4.80371 5.47886L4.89631 5.47656L4.94375 5.47952L4.98171 5.50186L5.00723 5.5416L5.01672 5.60106L5.01017 5.6546L4.98531 5.6996L4.9503 5.72063L4.90514 5.72752L4.81026 5.73015L4.80371 5.47886Z" fill="#0C9C51"/>
<path d="M5.11829 5.72785L5.12123 5.47656L5.30741 5.47952L5.30675 5.52222L5.17162 5.51992L5.17097 5.57577L5.29628 5.57774L5.29563 5.62044L5.16998 5.61814L5.16868 5.68679L5.30872 5.68844L5.30806 5.73081L5.11829 5.72785Z" fill="#0C9C51"/>
<path d="M5.40857 5.73468L5.42624 5.48438L5.50149 5.4893L5.53487 5.66373L5.59115 5.49588L5.66706 5.50113L5.64939 5.75176L5.60293 5.74881L5.61667 5.55139L5.55319 5.74519L5.50509 5.74191L5.4691 5.54055L5.45536 5.73764L5.40857 5.73468Z" fill="#0C9C51"/>
<path d="M5.90857 5.77959L5.94587 5.53125L6.13008 5.5595L6.12354 5.60155L5.98971 5.58118L5.98088 5.63604L6.10587 5.65476L6.099 5.69681L5.97532 5.67776L5.96485 5.74575L6.10358 5.76645L6.09704 5.80849L5.90857 5.77959Z" fill="#0C9C51"/>
<path d="M6.4397 5.66226L6.42367 5.7319L6.4505 5.73814L6.49075 5.74372L6.50907 5.73485L6.51856 5.71712L6.51561 5.69281L6.49795 5.67737L6.46392 5.66752L6.4397 5.66193V5.66226ZM6.34351 5.85409L6.40044 5.60938L6.47929 5.62777L6.53688 5.64452L6.56666 5.67672L6.5696 5.72763L6.55291 5.76409L6.52674 5.78347L6.49827 5.78905L6.44657 5.78051L6.41451 5.77329L6.39324 5.86592L6.34351 5.85409Z" fill="#0C9C51"/>
<path d="M6.71599 5.79663L6.75166 5.80681L6.79616 5.81601L6.81317 5.81042L6.82331 5.79301L6.82168 5.77166L6.8063 5.75688L6.77063 5.74571L6.73431 5.7352L6.71599 5.79695V5.79663ZM6.62765 5.92145L6.69636 5.67969L6.79845 5.70925L6.85243 5.73192L6.87403 5.76312V5.80418L6.84491 5.84491L6.79092 5.85312L6.81153 5.88104L6.82757 5.92868L6.84425 5.98419L6.78601 5.96744L6.7654 5.90437L6.75002 5.86134L6.73824 5.84721L6.71403 5.83769L6.70454 5.83473L6.67607 5.9359L6.62732 5.92145H6.62765Z" fill="#0C9C51"/>
<path d="M7.00298 5.90528L7.00004 5.97261L7.04028 6.01039L7.09362 6.00514L7.13386 5.95028L7.13746 5.88294L7.09656 5.84615L7.04257 5.84976L7.00298 5.90528ZM6.95325 5.88951L6.98466 5.83235L7.01738 5.80739L7.05533 5.79688L7.10998 5.80542L7.18229 5.86717V5.96867L7.12045 6.04784L7.02621 6.05112L6.95325 5.99035V5.88984V5.88951Z" fill="#0C9C51"/>
<path d="M7.37546 6.08447L7.3915 6.04506L7.49227 6.08677L7.45497 6.17908L7.40164 6.18696L7.34111 6.17448L7.28352 6.13309L7.2616 6.07265L7.27338 6.00465L7.31493 5.94651L7.37677 5.92188L7.43665 5.93337L7.49653 5.97936L7.507 6.04243L7.45726 6.03159L7.44974 5.9971L7.42062 5.97312L7.36368 5.97246L7.32147 6.02272L7.31493 6.09269L7.35419 6.13309L7.38659 6.13933L7.41702 6.13605L7.42945 6.10648L7.37546 6.08447Z" fill="#0C9C51"/>
<path d="M7.64451 6.1407L7.67887 6.15713L7.72042 6.17421L7.73809 6.1706L7.75053 6.15582L7.75347 6.13447L7.74038 6.11738L7.70832 6.10096L7.67167 6.08388L7.64451 6.14103V6.1407ZM7.53719 6.25042L7.64451 6.02344L7.74006 6.0691L7.78979 6.10063L7.80648 6.13479L7.79863 6.1752L7.76427 6.21034L7.70963 6.20936L7.72468 6.23991L7.73351 6.28951L7.74006 6.34699L7.68541 6.32105L7.67593 6.25567L7.66775 6.21067L7.65826 6.19458L7.63633 6.18111L7.6275 6.17684L7.58202 6.27177L7.53687 6.24976L7.53719 6.25042Z" fill="#0C9C51"/>
<path d="M7.8136 6.3848L7.93335 6.16406L8.09597 6.25308L8.07634 6.28987L7.95658 6.22549L7.93041 6.27476L8.04133 6.33454L8.02072 6.37199L7.91078 6.31188L7.87839 6.37199L8.00109 6.43867L7.98145 6.47612L7.8136 6.3848Z" fill="#0C9C51"/>
<path d="M8.09838 6.45058L8.14288 6.4716L8.13928 6.51266L8.16415 6.54157L8.20113 6.55208L8.22468 6.53763L8.22828 6.52153L8.21814 6.50313L8.18902 6.47292L8.15303 6.42167L8.15957 6.36682L8.18738 6.34119L8.22697 6.33594L8.27344 6.35401L8.32317 6.40853L8.31663 6.46963L8.27213 6.445L8.27507 6.41379L8.25151 6.38948L8.21749 6.3793L8.20276 6.38882L8.20113 6.40558L8.23286 6.44401L8.26918 6.4877L8.27933 6.52449L8.26787 6.56358L8.23712 6.59249L8.19327 6.5984L8.14223 6.57803L8.09119 6.5212L8.09838 6.45058Z" fill="#0C9C51"/>
<path d="M8.34852 6.60807L8.39237 6.63205L8.38648 6.67213L8.41069 6.70234L8.44701 6.7145L8.47057 6.70136L8.47482 6.68625L8.46599 6.66687L8.4385 6.63501L8.4048 6.58212L8.41429 6.52759L8.44341 6.50328L8.48366 6.5L8.52913 6.52069L8.5756 6.57785L8.56611 6.63796L8.52292 6.61169L8.52685 6.58048L8.50558 6.55551L8.47187 6.54369L8.45584 6.55124L8.45388 6.56865L8.483 6.60873L8.51801 6.65406L8.52685 6.69118L8.51277 6.72994L8.48005 6.75654L8.43687 6.76114L8.38648 6.73749L8.33838 6.67869L8.34852 6.60807Z" fill="#0C9C51"/>
<path d="M8.66118 6.76739L8.63827 6.83178L8.66445 6.87908L8.71713 6.89189L8.77275 6.85116L8.79599 6.78841L8.7685 6.74111L8.71582 6.72764L8.66118 6.76739ZM8.61897 6.73717L8.66707 6.69315L8.70568 6.67969L8.74494 6.681L8.79468 6.70596L8.84441 6.7871L8.813 6.884L8.72989 6.93984L8.6386 6.91423L8.58887 6.83276L8.61864 6.7375L8.61897 6.73717Z" fill="#0C9C51"/>
<path d="M7.23883 5.54688L7.26304 5.6198H7.33863L7.27744 5.6648L7.301 5.73707L7.23883 5.6924L7.17731 5.73707L7.20153 5.6648L7.14001 5.6198H7.21593L7.23883 5.54688Z" fill="white"/>
<path d="M6.43667 7.625L6.46022 7.69726H6.53613L6.47495 7.74194L6.49818 7.81519L6.43667 7.76986L6.37548 7.81519L6.39904 7.74194L6.33752 7.69726H6.41344L6.43667 7.625Z" fill="white"/>
<path d="M8.25385 7.375L8.27807 7.44924H8.35529L8.29279 7.4949L8.31668 7.56848L8.25385 7.52315L8.19201 7.56848L8.21524 7.4949L8.15308 7.44924H8.22997L8.25385 7.375Z" fill="white"/>
<path d="M8.61241 7.42969L8.62785 7.47683H8.67743L8.63737 7.50616L8.65247 7.55396L8.61241 7.52495L8.57268 7.55396L8.58746 7.50616L8.54773 7.47683H8.59764L8.61241 7.42969Z" fill="white"/>
<path d="M8.35746 7.61719L8.37873 7.68157H8.44581L8.39117 7.72099L8.41211 7.78504L8.35746 7.74563L8.30348 7.78504L8.32474 7.72099L8.26978 7.68157H8.33718L8.35746 7.61719Z" fill="white"/>
<path d="M8.1975 7.82812L8.21812 7.89119H8.28388L8.2312 7.93028L8.25149 7.99368L8.1975 7.95426L8.14515 7.99368L8.16576 7.93028L8.11145 7.89119H8.17787L8.1975 7.82812Z" fill="white"/>
<path d="M7.99208 7.98438L8.00811 8.03266H8.0585L8.0176 8.06321L8.03363 8.1115L7.99208 8.08095L7.95118 8.1115L7.96656 8.06321L7.92566 8.03266H7.97703L7.99208 7.98438Z" fill="white"/>
<path d="M7.72342 7.92969L7.73951 7.97748H7.78942L7.74903 8.00715L7.76446 8.05561L7.72342 8.02594L7.68303 8.05561L7.69847 8.00715L7.65808 7.97748H7.70897L7.72342 7.92969Z" fill="white"/>
<path d="M7.4331 8.01562L7.45012 8.06786H7.5041L7.46026 8.09972L7.47695 8.15129L7.4331 8.1191L7.38926 8.15129L7.40627 8.09972L7.36243 8.06786H7.41642L7.4331 8.01562Z" fill="white"/>
<path d="M7.72816 8.44531L7.74354 8.49459H7.79459L7.75369 8.52415L7.76972 8.57309L7.72816 8.54287L7.68628 8.57309L7.70264 8.52415L7.66174 8.49459H7.7118L7.72816 8.44531Z" fill="white"/>
<path d="M7.20526 8.21875L7.22653 8.28478H7.29589L7.23961 8.32584L7.26154 8.39153L7.20526 8.35047L7.14898 8.39153L7.1709 8.32584L7.11462 8.28478H7.18399L7.20526 8.21875Z" fill="white"/>
<path d="M7.00454 7.95312L7.02156 8.00371H7.07489L7.0317 8.03459L7.04839 8.0855L7.00454 8.0543L6.96233 8.0855L6.97837 8.03459L6.93616 8.00371H6.98884L7.00454 7.95312Z" fill="white"/>
<path d="M7.73625 8.16406L7.75752 8.22812H7.82459L7.76995 8.26786L7.79057 8.33192L7.73625 8.2925L7.68226 8.33192L7.70288 8.26786L7.64856 8.22812H7.71596L7.73625 8.16406Z" fill="white"/>
<path d="M6.43352 8.57812L6.4407 8.60136H6.46483L6.44494 8.61577L6.45244 8.63835L6.43352 8.62428L6.41363 8.63835L6.42113 8.61577L6.40222 8.60136H6.42602L6.43352 8.57812Z" fill="white"/>
<path d="M7.11267 6.33594L7.13034 6.38882H7.18498L7.14016 6.42101L7.15783 6.4739L7.11267 6.44171L7.06883 6.4739L7.08551 6.42101L7.04102 6.38882H7.09566L7.11267 6.33594Z" fill="white"/>
<path d="M6.43516 6.89844L6.45349 6.95395H6.51205L6.46428 6.98811L6.48261 7.04396L6.43516 7.00914L6.3887 7.04396L6.4067 6.98811L6.35925 6.95395H6.41782L6.43516 6.89844Z" fill="white"/>
<path d="M6.73585 7.13281L6.75516 7.19227H6.81765L6.76726 7.22873L6.78722 7.28818L6.73585 7.25139L6.68546 7.28818L6.70542 7.22873L6.65405 7.19227H6.71688L6.73585 7.13281Z" fill="white"/>
<path d="M6.17557 7.14062L6.19002 7.18776H6.23993L6.19987 7.21644L6.21497 7.26424L6.17557 7.2349L6.13518 7.26424L6.15062 7.21644L6.11023 7.18776H6.15948L6.17557 7.14062Z" fill="white"/>
<path d="M6.29929 7.35156L6.30943 7.38342H6.34248L6.31532 7.40248L6.32579 7.43368L6.29929 7.4143L6.27311 7.43368L6.28326 7.40248L6.25708 7.38342H6.28915L6.29929 7.35156Z" fill="white"/>
<path d="M4.31057 6L4.33413 6.07293H4.40971L4.34852 6.11727L4.37208 6.19019L4.31057 6.14486L4.24938 6.19019L4.27261 6.11727L4.21143 6.07293H4.28734L4.31057 6Z" fill="white"/>
<path d="M5.43068 6.57812L5.44965 6.63791H5.51248L5.46209 6.67503L5.48172 6.73481L5.43068 6.69802L5.37963 6.73481L5.39992 6.67503L5.34888 6.63791H5.4117L5.43068 6.57812Z" fill="white"/>
<path d="M4.54312 7.09375L4.56635 7.16668H4.64226L4.58107 7.21234L4.6043 7.2846L4.54312 7.23927L4.48095 7.2846L4.50451 7.21234L4.44299 7.16668H4.5189L4.54312 7.09375Z" fill="white"/>
<path d="M4.79442 6.98438L4.80591 7.02129H4.844L4.81313 7.04371L4.82495 7.07997L4.79442 7.05755L4.76355 7.07997L4.77504 7.04371L4.74451 7.02129H4.7826L4.79442 6.98438Z" fill="white"/>
<path d="M5.08625 7.36719L5.10589 7.42894H5.171L5.11832 7.46704L5.13795 7.52913L5.08625 7.4907L5.03292 7.52913L5.05353 7.46704L5.00085 7.42894H5.06564L5.08625 7.36719Z" fill="white"/>
<path d="M5.39064 7.84375L5.4142 7.91635H5.49011L5.4286 7.96102L5.45216 8.03329L5.39064 7.98894L5.32946 8.03329L5.35269 7.96102L5.2915 7.91635H5.36741L5.39064 7.84375Z" fill="white"/>
<path d="M5.00149 7.625L5.02178 7.68676H5.08624L5.03454 7.72519L5.05417 7.78661L5.00149 7.74851L4.9498 7.78661L4.96943 7.72519L4.91675 7.68676H4.98186L5.00149 7.625Z" fill="white"/>
<path d="M4.22182 7.35156L4.2372 7.39919H4.28758L4.24668 7.42908L4.26272 7.47705L4.22182 7.44781L4.18092 7.47705L4.1963 7.42908L4.1554 7.39919H4.20578L4.22182 7.35156Z" fill="white"/>
<path d="M6.69652 5.67969L6.62781 5.92145L6.67656 5.9359L6.70503 5.83473L6.71452 5.83769L6.73873 5.84721L6.75051 5.86134L6.76589 5.90437L6.7865 5.96744L6.84474 5.98419L6.82805 5.92868L6.81202 5.88104L6.79141 5.85312L6.8454 5.84491L6.87452 5.80451V5.76345L6.85259 5.73224L6.79861 5.70958L6.69652 5.68001V5.67969ZM6.79664 5.81601L6.75214 5.80681L6.71648 5.79663L6.7348 5.73487L6.77112 5.74538L6.80679 5.75655L6.82216 5.77133L6.8238 5.79268L6.81366 5.81009L6.79664 5.81568V5.81601Z" fill="#118543"/>
<path d="M7.05582 5.7972L7.01787 5.80772L6.98515 5.83268L6.95374 5.88984V5.99035L7.0267 6.05113L7.12093 6.04784L7.1831 5.96868V5.86717L7.11079 5.80542L7.05615 5.79688L7.05582 5.7972ZM7.04044 6.01105L7.0002 5.97327L7.00314 5.90593L7.04273 5.85042L7.09672 5.84681L7.13762 5.8836L7.13402 5.95094L7.09378 6.00579L7.04044 6.01105Z" fill="#118543"/>
<path d="M7.37677 5.92188L7.31493 5.94651L7.27338 6.00465L7.2616 6.07265L7.28352 6.13309L7.34111 6.17448L7.40164 6.18696L7.45497 6.17908L7.49227 6.08677L7.3915 6.04506L7.37546 6.08447L7.42945 6.10648L7.41734 6.13605L7.38659 6.13933L7.35452 6.13309L7.31493 6.09236L7.32147 6.02305L7.36368 5.97246L7.42062 5.97312L7.45006 5.9971L7.45726 6.03159L7.507 6.04243L7.49653 5.97936L7.43665 5.93337L7.37677 5.92188Z" fill="#118543"/>
<path d="M7.64468 6.02344L7.53735 6.25042L7.58251 6.27243L7.62799 6.17749L7.6365 6.18177L7.65842 6.19523L7.66791 6.21133L7.67576 6.25633L7.68525 6.3217L7.74022 6.34765L7.73367 6.29017L7.72484 6.24057L7.70979 6.21002L7.76443 6.21067L7.79879 6.17553L7.80697 6.13512L7.79028 6.10096L7.74055 6.06943L7.645 6.02377L7.64468 6.02344ZM7.72059 6.17421L7.67903 6.15713L7.64468 6.1407L7.67183 6.08355L7.70848 6.10063L7.74055 6.11705L7.75363 6.13414L7.75069 6.15549L7.73825 6.17027L7.72059 6.17388V6.17421Z" fill="#118543"/>
<path d="M7.93335 6.16406L7.8136 6.3848L7.98145 6.47612L8.00109 6.43867L7.87839 6.37199L7.91045 6.31188L8.02072 6.37199L8.04133 6.33454L7.93041 6.27476L7.95658 6.22549L8.07634 6.28987L8.09597 6.25308L7.93335 6.16406Z" fill="#118543"/>
<path d="M8.22697 6.33594L8.18738 6.34119L8.15957 6.36682L8.15303 6.42167L8.18902 6.47292L8.21814 6.50313L8.22828 6.52153L8.22468 6.53763L8.20113 6.55175L8.16415 6.54157L8.13928 6.51266L8.14288 6.4716L8.09838 6.45058L8.09119 6.5212L8.14223 6.57803L8.19327 6.5984L8.23712 6.59249L8.26787 6.56358L8.27933 6.52449L8.26918 6.4877L8.23286 6.44401L8.20113 6.40558L8.20276 6.38882L8.21749 6.3793L8.25151 6.38948L8.27507 6.41379L8.27213 6.445L8.31663 6.4693L8.32317 6.40853L8.27344 6.35401L8.22697 6.33594Z" fill="#118543"/>
<path d="M8.48366 6.5L8.44341 6.50328L8.41429 6.52759L8.4048 6.58212L8.4385 6.63501L8.46599 6.66687L8.47482 6.68625L8.47057 6.70136L8.44701 6.7145L8.41069 6.70234L8.38648 6.6718L8.39237 6.63205L8.34852 6.60807L8.33838 6.67869L8.38648 6.73749L8.43687 6.76114L8.48005 6.75654L8.51277 6.72994L8.52685 6.69118L8.51801 6.65406L8.483 6.60873L8.45388 6.56865L8.45584 6.55124L8.47187 6.54369L8.50558 6.55551L8.52685 6.58048L8.52292 6.61169L8.56611 6.63796L8.5756 6.57785L8.52913 6.52069L8.48366 6.5Z" fill="#118543"/>
<path d="M8.70584 6.67969L8.66723 6.69315L8.61913 6.73717L8.58936 6.83243L8.63876 6.9139L8.73005 6.93952L8.81316 6.884L8.84457 6.7871L8.79484 6.70596L8.7451 6.68133L8.70584 6.68002V6.67969ZM8.71762 6.89189L8.66494 6.87908L8.63876 6.83178L8.66167 6.76739L8.71631 6.72764L8.76899 6.74111L8.7968 6.78841L8.77357 6.85116L8.71794 6.89189H8.71762Z" fill="#118543"/>
</svg>
