<svg xmlns="http://www.w3.org/2000/svg" fill="none" viewBox="0 0 92 106"><path fill="#fff" d="M0 83.334 46 106l46-22.666V0H0v83.334Z"/><path fill="#fff" d="M0 83.334 46 106l46-22.666V0H0v83.334Z"/><path fill="#000" d="M12.83 13.33q-.37 0-.69-.09-.32-.09-.57-.25-.26-.17-.42-.37-.16-.2-.21-.43l.93-.28q.09.24.33.41.23.17.58.18.37.01.6-.16.24-.17.24-.43 0-.23-.19-.39-.18-.16-.51-.24l-.63-.17q-.36-.09-.63-.28-.28-.18-.43-.46-.15-.27-.15-.63 0-.7.45-1.09.46-.38 1.3-.38.47 0 .83.13.35.14.59.39t.36.6l-.93.28q-.08-.24-.31-.4-.22-.17-.57-.17t-.54.16q-.2.16-.2.46 0 .23.15.36.16.13.43.2l.65.16q.63.16.98.56t.35.89q0 .43-.21.75-.21.33-.61.51t-.97.18Zm3.31-.08v-4.9h1.82q.51 0 .91.21.4.2.63.57.22.37.22.85t-.22.85q-.21.37-.59.58-.38.22-.88.22h-.93v1.62Zm.96-2.51h.91q.32 0 .53-.21.21-.21.21-.55 0-.33-.23-.55-.23-.2-.58-.2h-.84Zm3.96 2.51v-4.9h1.82q.52 0 .91.2.4.21.63.56.22.35.22.82 0 .46-.23.82-.24.36-.64.56-.41.2-.93.2h-.82v1.74Zm2.69 0-1.13-1.97.73-.52 1.49 2.49Zm-1.73-2.61h.86q.22 0 .39-.09t.28-.25q.1-.16.1-.37 0-.31-.23-.51-.23-.19-.58-.19h-.82Zm4.25 2.61v-4.9h.96v4.9Zm2.73 0v-4.9h1l2.39 3.29V8.35h.95v4.9h-.95L29.95 9.9v3.35Zm8.38.08q-.75 0-1.32-.32-.58-.33-.91-.9-.33-.57-.33-1.31 0-.74.33-1.31.33-.57.91-.9.57-.32 1.32-.32.45 0 .83.13.38.13.67.37.29.23.48.53l-.78.49q-.12-.19-.31-.33-.2-.15-.43-.23-.23-.09-.46-.09-.46 0-.82.21-.35.22-.56.59-.2.37-.2.86 0 .48.2.86t.56.59q.37.22.84.22.37 0 .66-.15.29-.15.46-.41.17-.27.17-.62l.91-.14q0 .69-.28 1.18-.29.49-.79.75-.5.25-1.15.25Zm.16-1.96v-.74h2.06v.59l-.52.15Zm5.66 1.88v-.71q0-.2.12-.44.13-.25.35-.49.23-.25.53-.46l.74-.53q.16-.11.29-.24.14-.13.23-.29.08-.16.08-.3 0-.19-.08-.33-.09-.15-.26-.23-.17-.09-.41-.09-.21 0-.38.09-.16.08-.27.22-.1.14-.14.3l-.99-.17q.07-.35.3-.65.23-.3.61-.49.37-.18.85-.18.54 0 .93.2.4.19.61.53.21.34.21.79t-.24.81q-.25.35-.69.66l-.66.48q-.21.14-.35.31-.15.17-.23.37h2.24v.84Zm6.66.08q-.59 0-1.05-.32-.45-.33-.71-.9-.26-.57-.26-1.31 0-.74.26-1.31.26-.57.71-.9.45-.32 1.05-.32.59 0 1.05.32.46.33.72.9.26.57.26 1.31 0 .74-.26 1.31-.26.57-.72.9-.45.32-1.05.32Zm0-.86q.32 0 .57-.22.24-.21.38-.59.14-.37.14-.86t-.14-.87q-.14-.38-.38-.59-.25-.21-.57-.21-.32 0-.56.21-.25.21-.39.59-.13.38-.13.87t.13.86q.14.38.39.59.25.22.56.22Zm3.33.78v-.71q0-.2.12-.44.13-.25.35-.49.23-.25.53-.46l.74-.53q.15-.11.29-.24.14-.13.23-.29.08-.16.08-.3 0-.19-.08-.33-.09-.15-.26-.23-.17-.09-.41-.09-.21 0-.38.09-.16.08-.27.22-.1.14-.14.3L53 9.58q.07-.35.3-.65.23-.3.61-.49.37-.18.85-.18.54 0 .93.2.4.19.61.53.21.34.21.79t-.25.81q-.24.35-.68.66l-.66.48q-.21.14-.35.31-.15.17-.23.37h2.24v.84Zm6.49.08q-.5 0-.85-.17-.34-.18-.56-.5-.22-.31-.33-.73-.1-.42-.1-.9 0-.56.12-1.06t.36-.88q.24-.39.62-.61.38-.21.91-.21.39 0 .75.11.37.11.67.32l-.48.7q-.22-.15-.47-.22-.24-.07-.45-.07-.54 0-.85.47-.31.48-.3 1.51l-.18-.14q.16-.38.49-.61.34-.23.8-.23.47 0 .83.21.36.22.57.6.2.37.2.83 0 .46-.21.82-.22.36-.62.56-.39.2-.92.2Zm0-.81q.23 0 .41-.1.18-.11.29-.29.1-.18.1-.42t-.1-.42q-.11-.19-.29-.3-.18-.11-.41-.11-.23 0-.42.11-.18.11-.29.3-.11.18-.11.42t.11.42q.11.18.29.29.19.1.42.1Z" style="white-space:pre"/><g fill="#000" style="white-space:pre"><path d="M22.51 46.25v-10.5h6.84v2.22h-4.43v1.92h3.71v2.15h-3.71v1.99h4.5v2.22Zm13 0-.06-1.62v-2.11q0-.6-.1-1.05-.11-.45-.38-.71-.27-.26-.81-.26-.42.01-.73.2-.32.2-.54.54l-2.04-.67q.25-.56.69-1.01.45-.45 1.09-.72.65-.27 1.5-.27 1.17 0 1.98.43.81.44 1.22 1.22.4.78.4 1.85l-.03 4.18Zm-2.04.18q-1.33 0-2.07-.6-.73-.6-.73-1.69 0-1.19.76-1.77.77-.59 2.15-.59h2.05v1.5h-1.17q-.75 0-1.08.21-.33.21-.33.59 0 .27.25.42.25.16.68.16.44 0 .77-.19.33-.18.52-.5.18-.31.18-.69h.59q0 1.5-.63 2.33-.63.82-1.94.82Zm8.51 0q-.74 0-1.38-.22-.63-.21-1.1-.61-.46-.4-.69-.97l1.92-.81q.2.39.54.58.35.19.71.19.37 0 .58-.13.21-.13.21-.35 0-.24-.21-.38-.22-.13-.63-.24l-.64-.16q-1.05-.27-1.62-.9-.56-.62-.56-1.44 0-1.16.8-1.79.79-.63 2.2-.63.8 0 1.41.21.6.21 1.02.59.41.38.59.9l-1.86.76q-.11-.3-.43-.46-.32-.15-.71-.15-.33 0-.51.14t-.18.38q0 .18.22.31.21.13.63.23l.8.2q.7.18 1.18.54.48.37.72.86t.24 1.04q0 .71-.41 1.22-.41.52-1.15.81-.73.28-1.69.28Zm4.5-.18v-7.5h2.34v7.5Zm1.17-8.46q-.53 0-.92-.4-.4-.39-.4-.92 0-.55.4-.94.39-.38.92-.38.54 0 .93.38.39.39.39.94 0 .53-.39.92-.39.4-.93.4Zm6.43 8.64q-1.17 0-2.07-.5-.9-.5-1.41-1.39-.51-.88-.51-2.04 0-1.17.52-2.05.52-.89 1.42-1.38.9-.5 2.08-.5 1.07 0 1.92.51.86.51 1.36 1.52.5 1 .5 2.5h-5.64l.26-.28q0 .51.21.9t.58.59q.38.2.84.2.56 0 .94-.25.38-.24.53-.62l2.07.71q-.3.7-.84 1.17-.55.46-1.26.69-.7.22-1.5.22Zm-1.51-4.59-.24-.3h3.36l-.21.3q0-.55-.23-.88-.22-.33-.55-.48-.33-.14-.66-.14t-.67.14q-.34.15-.57.48-.23.33-.23.88Zm9.13 4.59q-.73 0-1.37-.22-.64-.21-1.1-.61-.47-.4-.69-.97l1.92-.81q.19.39.54.58.34.19.7.19.38 0 .59-.13.21-.13.21-.35 0-.24-.22-.38-.22-.13-.62-.24l-.65-.16q-1.05-.27-1.61-.9-.56-.62-.56-1.44 0-1.16.79-1.79.8-.63 2.21-.63.79 0 1.4.21.61.21 1.02.59.41.38.59.9l-1.86.76q-.1-.3-.42-.46-.33-.15-.72-.15-.33 0-.51.14t-.18.38q0 .18.22.31t.64.23l.79.2q.71.18 1.19.54.48.37.72.86t.24 1.04q0 .71-.41 1.22-.42.52-1.15.81-.74.28-1.7.28Zm7.59 0q-1.33 0-1.98-.64-.66-.63-.66-1.82v-7.56h2.34v6.98q0 .45.17.66.16.21.51.21.13 0 .31-.07t.33-.17l.81 1.71q-.36.3-.86.5t-.97.2Zm-3.81-5.71v-1.97h5.22v1.96ZM30.46 61.43q-.77 0-1.47-.2-.69-.2-1.25-.56-.57-.35-.93-.79-.36-.44-.45-.95l2.39-.68q.16.44.58.76.41.32 1.04.34.61.01 1.03-.29.41-.3.41-.78 0-.37-.3-.66-.29-.28-.83-.43l-1.48-.38q-.78-.19-1.36-.61-.58-.42-.9-1.03-.32-.61-.32-1.39 0-1.51 1-2.36 1.01-.85 2.84-.85 1 0 1.75.28t1.28.82q.54.54.85 1.35l-2.37.7q-.12-.4-.51-.73-.4-.33-1.03-.33t-.99.28q-.35.29-.35.83 0 .37.29.62.28.25.78.37l1.48.37q1.28.32 1.99 1.18.71.86.71 1.96 0 .99-.45 1.69-.46.71-1.33 1.09-.87.38-2.1.38Zm8.79 0q-1.17 0-2.07-.5-.9-.5-1.41-1.39-.51-.88-.51-2.04 0-1.17.52-2.05.51-.89 1.41-1.38.9-.5 2.09-.5 1.06 0 1.92.51.85.51 1.36 1.52.5 1 .5 2.5h-5.64l.25-.28q0 .51.21.9t.59.59q.37.2.84.2.55 0 .93-.25.39-.24.54-.62l2.07.71q-.3.7-.85 1.17-.55.46-1.25.69-.71.22-1.5.22Zm-1.52-4.59-.24-.3h3.36l-.21.3q0-.55-.22-.88-.23-.33-.56-.48-.33-.14-.66-.14t-.67.14q-.33.15-.56.48-.24.33-.24.88Zm9.54 4.59q-1.33 0-1.98-.64-.66-.63-.66-1.82v-7.56h2.34v6.98q0 .45.17.66.16.21.51.21.13 0 .31-.07t.33-.17l.81 1.71q-.36.3-.86.5t-.97.2Zm-3.81-5.71v-1.97h5.22v1.97Zm11.66 5.53-.14-1.38v-6.12h2.34v7.5Zm-4.97-3.66v-3.84h2.34v3.84Zm2.34 0q0 .59.14.95.13.36.39.52.25.17.6.18.67 0 1.02-.38.34-.38.34-1.15h.71q0 1.19-.36 2.02-.36.83-.98 1.27-.63.43-1.45.43-.9 0-1.52-.37-.61-.36-.92-1.11-.31-.75-.31-1.92v-.44Zm6.44 6.66v-10.5h2.2l.14 1.38v9.12Zm4.47-2.82q-.93 0-1.56-.47t-.95-1.36q-.31-.88-.31-2.1 0-1.23.31-2.11.32-.87.95-1.35.63-.47 1.56-.47 1.05 0 1.81.47.77.48 1.17 1.35.41.88.41 2.11 0 1.22-.41 2.1-.4.89-1.17 1.36-.76.47-1.81.47Zm-.6-2.16q.45 0 .79-.22.35-.23.56-.63.21-.39.21-.92 0-.52-.2-.92-.19-.4-.55-.62-.35-.23-.8-.23-.45 0-.8.23-.35.22-.55.63-.19.4-.19.91 0 .53.19.92.2.4.54.63.35.22.8.22Z"/></g><path fill="#000" d="M26.82 72.38v-3.85h.82l1.12 1.66 1.12-1.66h.82v3.85h-.75V69.7l-1.19 1.75-1.19-1.74v2.67Zm5.26 0v-3.85h.76v3.85Zm2.14 0v-3.85h1.23q.59 0 1.05.24.45.25.71.68.25.43.25 1 0 .56-.25 1-.26.43-.71.68-.46.25-1.05.25Zm.75-.71h.48q.27 0 .49-.09.23-.1.4-.26.16-.17.26-.39.09-.22.09-.48t-.09-.48q-.1-.22-.26-.39-.17-.16-.4-.26-.22-.09-.49-.09h-.48Zm3.53-.62v-.62h1.65v.62Zm2.92 1.33v-3.85h.81l1.13 1.66 1.12-1.66h.81v3.85h-.75V69.7l-1.18 1.75-1.19-1.74v2.67Zm7.93 0-1.48-3.85h.76l1.51 3.85Zm-3.05 0 1.52-3.85h.76l-1.48 3.85Zm.72-.85v-.67h2.41v.67Zm4.14.85v-3.85h1.43q.4 0 .72.15.31.16.49.44.17.28.17.65 0 .36-.18.64-.19.29-.51.44-.31.16-.72.16h-.65v1.37Zm2.11 0-.89-1.55.58-.41 1.17 1.96Zm-1.36-2.06h.68q.17 0 .31-.07.13-.07.21-.2.08-.12.08-.28 0-.25-.18-.4-.18-.16-.46-.16h-.64Zm3.79 1.08-.08-.94 1.8-1.93h.97Zm-.45.98v-3.85H56v3.85Zm2.27 0-1.53-1.96.54-.45 1.92 2.41Zm1.95 0v-3.85h2.43v.68h-1.68v.88h1.45v.67h-1.45v.93h1.7v.69Zm4.6 0v-3.17h-1.16v-.68h3.06v.68h-1.15v3.17Z" style="white-space:pre"/><path fill="#FF492C" d="M71 0h21v21H71z"/><path fill="#fff" fill-rule="evenodd" d="M86.05 8.041h-1.794c.049-.28.222-.438.575-.616l.33-.168c.592-.303.906-.644.906-1.2a.972.972 0 0 0-.407-.828c-.265-.2-.59-.298-.965-.298-.298 0-.569.076-.818.233a1.383 1.383 0 0 0-.542.59l.52.519c.2-.406.493-.606.878-.606.326 0 .526.168.526.4 0 .195-.097.357-.472.546l-.21.103c-.462.233-.782.498-.966.8-.184.298-.276.682-.276 1.142v.124h2.716v-.74ZM85.806 9.641h-2.967l-1.483 2.57h2.967l1.483 2.57 1.483-2.57-1.483-2.57Z" clip-rule="evenodd"/><path fill="#fff" fill-rule="evenodd" d="M81.608 13.928a3.433 3.433 0 0 1-3.43-3.428 3.433 3.433 0 0 1 3.43-3.427l1.175-2.456a6 6 0 0 0-7.177 5.883 6 6 0 0 0 6.002 5.998 5.978 5.978 0 0 0 3.535-1.15l-1.3-2.25c-.6.516-1.382.83-2.235.83Z" clip-rule="evenodd"/><path fill="#288DFF" d="M0 83.223v-6.204l46 23.043 46-23.043v6.272L46 106 0 83.223Z"/><path fill="#FFF" d="M0 77.566v-6.5l46 23.042 46-23.042v6.5l-46 22.48-46-22.48Z"/><path fill="#FFF" d="M0 71.631v-6.5l46 23.043L92 65.13v6.5l-46 22.48-46-22.48Z"/><path stroke="#000" d="M91.5.5v82.522L46 105.441.5 83.022V.5h91ZM91.53 20.533H.625M71.262.909v19.624"/></svg>
